<svg xmlns="http://www.w3.org/2000/svg" viewBox="0 0 17.9 17.9" width="16" height="16"><path d="M13.28,5.27a3.7,3.7,0,0,1-1.19.47,1.85,1.85,0,0,0-1.37-.61A1.9,1.9,0,0,0,8.83,7.06a2,2,0,0,0,0,.44A5.29,5.29,0,0,1,5,5.48a2,2,0,0,0-.25,1,1.94,1.94,0,0,0,.84,1.6,1.85,1.85,0,0,1-.85-.24v0A1.92,1.92,0,0,0,6.24,9.73a1.79,1.79,0,0,1-.5.07,1.83,1.83,0,0,1-.35,0A1.89,1.89,0,0,0,7.15,11.1a3.71,3.71,0,0,1-2.34.83l-.45,0a5.23,5.23,0,0,0,2.88.87A5.39,5.39,0,0,0,12.6,7.28c0-.08,0-.17,0-.25a3.86,3.86,0,0,0,.94-1,3.67,3.67,0,0,1-1.08.3A1.92,1.92,0,0,0,13.28,5.27Z" style="fill:#32a8e0"/></svg>
