<svg width="22" height="20" viewBox="0 0 22 20" fill="none" xmlns="http://www.w3.org/2000/svg">
<path fill-rule="evenodd" clip-rule="evenodd" d="M11.8791 0.906142C11.6978 0.593484 11.3626 0.400879 10.9999 0.400879C10.6372 0.400879 10.3021 0.593484 10.1207 0.906142L0.575955 18.0851C0.394603 18.3977 0.394603 18.783 0.575955 19.0956C0.757307 19.4083 1.09246 19.6009 1.45516 19.6009H20.5447C20.9074 19.6009 21.2426 19.4083 21.4239 19.0956C21.6053 18.783 21.6053 18.3977 21.4239 18.0851L11.8791 0.906142ZM18.7863 17.5798H3.21358L10.9999 3.43246L18.7863 17.5798ZM9.94413 12.6908V7.89076C9.95272 6.60964 12.039 6.61292 12.0561 7.89076V12.6908C12.0647 13.9697 9.92708 13.9729 9.94413 12.6908ZM9.94413 15.5708C9.94413 15.0406 10.4169 14.6108 11.0001 14.6108C11.5833 14.6108 12.0561 15.0406 12.0561 15.5708C12.0561 16.101 11.5833 16.5308 11.0001 16.5308C10.4169 16.5308 9.94413 16.101 9.94413 15.5708Z" fill="white"/>
</svg>
