<svg width="20" height="20" viewBox="0 0 20 20" fill="none" xmlns="http://www.w3.org/2000/svg">
<path fill-rule="evenodd" clip-rule="evenodd" d="M15.7227 0.476638C16.1864 0.276414 16.7257 0.470482 16.956 0.920402C18.6904 4.30946 19.592 7.08029 19.5792 9.93374C19.5664 12.7802 18.6436 15.5908 16.9654 19.0569C16.7459 19.5104 16.2133 19.7167 15.746 19.5293L9.98948 17.2148V18.1581C9.98948 18.6883 9.56015 19.1181 9.03054 19.1181H5.19479C4.66518 19.1181 4.23585 18.6883 4.23585 18.1581V14.9014L1.32302 13.7302C-0.0281855 13.0447 0.161464 7.21155 1.323 6.70775L15.7227 0.476638ZM6.15372 15.6725V17.1981H8.0716V16.4437L6.15372 15.6725ZM2.31844 8.35586C2.00699 9.8087 2.00135 10.6234 2.31844 12.0769L14.9172 17.1287C14.1835 14.5261 13.804 12.3142 13.8043 10.0633C13.8046 7.81671 14.1833 5.57685 14.9134 2.91711L2.31844 8.35586ZM17.6613 9.9251C17.6537 11.6366 17.2621 13.3887 16.4572 15.4587C15.9616 13.4726 15.7219 11.7657 15.7222 10.0636C15.7224 8.32827 15.9719 6.56431 16.4871 4.48062C17.2956 6.49588 17.669 8.21967 17.6613 9.9251Z" fill="white"/>
</svg>
