<svg width="45" height="45" viewBox="0 0 45 45" fill="none" xmlns="http://www.w3.org/2000/svg">
<path fill-rule="evenodd" clip-rule="evenodd" d="M23.5813 11.6967C23.0514 12.2645 23.0821 13.1544 23.6499 13.6843L31.5886 21.0938H9.84379C9.06714 21.0938 8.43754 21.7234 8.43754 22.5C8.43754 23.2767 9.06714 23.9063 9.84379 23.9063H31.5886L23.6499 31.3157C23.0821 31.8456 23.0514 32.7355 23.5813 33.3033C24.1113 33.871 25.0011 33.9017 25.5689 33.3718L36.1158 23.5281C36.4007 23.2621 36.5625 22.8898 36.5625 22.5C36.5625 22.1102 36.4007 21.7379 36.1158 21.472L25.5689 11.6282C25.0011 11.0983 24.1113 11.129 23.5813 11.6967Z" fill="white"/>
</svg>
