<svg width="10" height="16" viewBox="0 0 10 16" fill="none" xmlns="http://www.w3.org/2000/svg">
<path fill-rule="evenodd" clip-rule="evenodd" d="M4.3203 4.66761V7.44878C4.34125 7.45135 4.358 7.45558 4.37467 7.45516C4.75013 7.4461 5.12611 7.44971 5.50071 7.42293C5.81795 7.40027 6.12879 7.31963 6.41978 7.15412C7.02016 6.81281 7.22037 5.96849 6.84542 5.34725C6.66881 5.05465 6.41209 4.9081 6.1328 4.81262C5.54012 4.61014 4.93333 4.657 4.3203 4.66761ZM4.31945 8.87549V11.939C4.33996 11.9418 4.35681 11.9467 4.37348 11.9462C4.87708 11.9293 5.38137 11.9267 5.88386 11.8892C6.21811 11.8642 6.54595 11.7696 6.85431 11.6017C7.1589 11.4356 7.41519 11.2033 7.51649 10.7994C7.64882 10.2715 7.53957 9.66193 7.0493 9.3064C6.68846 9.0447 6.28693 8.93522 5.87548 8.90639C5.39034 8.8724 4.90324 8.87899 4.4169 8.86869C4.38536 8.86807 4.35381 8.87302 4.31945 8.87549ZM0.783508 13.6026C0.783508 13.5745 0.783508 13.5463 0.783508 13.5182C0.788979 13.5066 0.797699 13.4956 0.799409 13.4832C0.841639 13.179 0.883015 12.8745 0.924989 12.5702C0.953884 12.3606 0.983548 12.1512 1.01338 11.9381C1.05767 11.9381 1.09237 11.9381 1.127 11.9381C1.37183 11.9378 1.61675 11.9437 1.86133 11.9356C2.1419 11.9263 2.29158 11.7314 2.29158 11.3916C2.29167 9.34823 2.2915 7.30479 2.29124 5.26145C2.29124 4.94331 2.12856 4.68511 1.87287 4.60478C1.80303 4.58294 1.72951 4.56894 1.65744 4.5676C1.36619 4.56193 1.07485 4.56265 0.783508 4.56101V3.06465H3.12457C3.12457 3.00677 3.12449 2.96516 3.12457 2.92355C3.1256 2.20488 3.12662 1.48611 3.12765 0.767334H4.28232C4.28326 1.47282 4.2842 2.17831 4.28514 2.8838C4.28523 2.92489 4.28514 2.96609 4.28514 3.00347H5.20943V0.767334H6.38154C6.38017 0.788344 6.37769 0.809251 6.37769 0.830158C6.37761 1.54986 6.37769 2.26946 6.37812 2.98916C6.37812 3.01274 6.38214 3.03643 6.38453 3.06311C6.44882 3.07165 6.50934 3.07928 6.56978 3.08772C7.01603 3.14982 7.45654 3.24293 7.87714 3.4418C8.32184 3.65201 8.70209 3.96129 8.94897 4.47037C9.12516 4.83373 9.19338 5.23292 9.20603 5.64808C9.2339 6.56284 8.95573 7.28172 8.27645 7.74157C8.25798 7.75403 8.24114 7.7702 8.21712 7.78988C8.33535 7.83427 8.44392 7.87083 8.55018 7.91563C9.20065 8.19 9.65681 8.68857 9.81667 9.52363C9.84265 9.65957 9.85932 9.7981 9.88035 9.93538V10.5888C9.86274 10.7304 9.84676 10.8723 9.82735 11.0135C9.69322 11.9928 9.26117 12.7008 8.50521 13.1105C7.97288 13.3989 7.40627 13.5131 6.83086 13.5798C6.68143 13.5971 6.53183 13.6108 6.37812 13.6266C6.37812 13.7852 6.37795 13.9322 6.37821 14.0792C6.37923 14.7002 6.38043 15.3211 6.38154 15.942H5.20943V13.6559H4.28514C4.28514 13.6998 4.28523 13.7413 4.28514 13.7827C4.2842 14.5025 4.28326 15.2222 4.28232 15.942H3.12765V13.6202C3.082 13.6202 3.05045 13.6203 3.01899 13.6202C2.3115 13.6169 1.60393 13.6136 0.896351 13.6098C0.858737 13.6097 0.821123 13.6051 0.783508 13.6026Z" fill="url(#paint0_linear)"/>
<defs>
<linearGradient id="paint0_linear" x1="-3.93194" y1="10.171" x2="14.3134" y2="34.4496" gradientUnits="userSpaceOnUse">
<stop stop-color="#FAD961"/>
<stop offset="0.355656" stop-color="#F7BD5B"/>
<stop offset="1" stop-color="#F28B50"/>
</linearGradient>
</defs>
</svg>
