<svg width="75" height="73" viewBox="0 0 75 73" fill="none" xmlns="http://www.w3.org/2000/svg">
<path opacity="0.4" d="M45.4953 3.60627C46.9665 4.14045 48.3548 4.8051 49.6516 5.58254M19.291 10.3937C24.0075 5.03393 30.9549 2.00459 38.1961 2.23871M57.1959 12.7535C57.5766 13.3198 57.9328 13.9018 58.2634 14.4974" stroke="#B5BFC7" stroke-width="2.6076" stroke-miterlimit="10" stroke-linecap="round" stroke-linejoin="round"/>
<path opacity="0.4" d="M67.9078 7.96526C66.6922 6.17819 65.3247 4.53383 63.8311 3.04175M11.4641 7.63803C9.16084 10.9684 7.46791 14.6783 6.45983 18.5775M5.38269 27.8039C5.35301 26.4154 5.40942 25.0317 5.54894 23.6606" stroke="#B5BFC7" stroke-width="2.6076" stroke-miterlimit="10" stroke-linecap="round" stroke-linejoin="round"/>
<path d="M31.4701 42.2572C22.4941 39.0238 17.9006 29.128 21.1017 20.2483C21.3928 19.3827 21.8125 18.4534 22.2638 17.7485C26.2946 10.5398 35.0642 7.06616 43.2068 9.91226C51.221 12.8221 55.819 21.1136 54.2564 29.2598C54.0615 30.1577 53.8664 31.0556 53.5753 31.9212C50.278 40.7686 40.4784 45.3946 31.4701 42.2572Z" fill="#E3EDFF" stroke="#163150" stroke-width="2.6076" stroke-miterlimit="10" stroke-linecap="round" stroke-linejoin="round"/>
<path opacity="0.2" d="M31.4701 42.2545C22.4943 39.0211 17.9006 29.1253 21.1017 20.2456C21.3928 19.38 21.8125 18.4507 22.2637 17.746C27.7599 14.4558 34.5648 13.6402 40.9763 15.904C47.4839 18.2001 52.0908 23.2827 54.2564 29.2571C54.0615 30.155 53.8664 31.0529 53.5753 31.9185C50.278 40.766 40.4783 45.3919 31.4701 42.2545Z" fill="#003C77"/>
<path d="M68.6332 38.2915L33.8379 45.4062L35.5026 53.5476L70.2979 46.4328L68.6332 38.2915Z" fill="#E3EDFF"/>
<path d="M71.181 30.5017L36.3857 37.6165L38.0504 45.7579L72.8457 38.6432L71.181 30.5017Z" fill="#FFD166"/>
<path d="M60.5697 24.1907L25.7744 31.3055L27.4391 39.447L62.2344 32.3321L60.5697 24.1907Z" fill="#FFD166"/>
<path opacity="0.2" d="M51.7325 41.7466L33.8379 45.4056L35.5026 53.547L53.3974 49.8879L51.7325 41.7466Z" fill="#003C77"/>
<path d="M54.2805 33.9543L36.3857 37.6135L38.0504 45.7548L55.9452 42.0958L54.2805 33.9543Z" fill="#FFAA00"/>
<path d="M43.6691 27.6455L25.7744 31.3045L27.4391 39.4459L45.3338 35.7868L43.6691 27.6455Z" fill="#FFAA00"/>
<path d="M69.9179 47.1153L35.1227 54.2301L33.458 46.0887L68.2532 38.9738L69.9179 47.1153ZM70.5651 30.0193L35.7699 37.1342L37.4346 45.2756L72.2298 38.1608L70.5651 30.0193ZM59.953 23.7075L25.1577 30.8224L26.8224 38.9638L61.6177 31.849L59.953 23.7075Z" stroke="#163150" stroke-width="2.6076" stroke-miterlimit="10" stroke-linecap="round" stroke-linejoin="round"/>
<path d="M18.8047 47.2389C25.5486 54.2821 36.7253 54.5247 43.7685 47.7809C50.8116 41.037 51.0542 29.8603 44.3103 22.8171C37.5664 15.774 26.3899 15.5313 19.3466 22.2752C12.3035 29.0191 12.0609 40.1958 18.8047 47.2389Z" fill="url(#paint0_radial)" stroke="#163150" stroke-width="2.6076" stroke-miterlimit="10" stroke-linecap="round" stroke-linejoin="round"/>
<path d="M25.8699 25.8618C33.5828 21.0054 43.4278 27.0323 42.8012 36.0615L32.1267 35.1839L38.9028 43.728C33.8581 47.9964 26.0592 46.894 22.3803 41.1445C19.1193 35.9781 20.7035 29.1227 25.8699 25.8618Z" fill="#FFC835" stroke="#FFAE25" stroke-width="2.6076" stroke-miterlimit="10" stroke-linecap="round" stroke-linejoin="round"/>
<path d="M41.3891 49.002H5.60107V65.5264H13.7013C14.3071 65.5264 14.9098 65.6107 15.4922 65.7771L33.2354 70.8467C34.7865 71.2898 36.447 71.1421 37.8955 70.4319L69.9996 54.6947C72.1771 53.6274 73.0676 50.9902 71.9832 48.8213C70.9715 46.7979 68.582 45.8823 66.4773 46.7114L48.8292 53.6637C47.017 54.3776 44.9904 53.3347 44.5181 51.4451C44.1591 50.0093 42.869 49.002 41.3891 49.002Z" fill="white"/>
<path d="M8.60791 49.0017H40.6126C43.2631 49.0017 45.4119 51.1504 45.4119 53.801C45.4119 56.2116 43.6238 58.2481 41.2334 58.5599L28.1366 60.2682" stroke="#163050" stroke-width="2.6076" stroke-miterlimit="10" stroke-linecap="round" stroke-linejoin="round"/>
<path d="M8.60791 65.5264H14.6167L32.0256 71.122C34.3436 71.8671 36.8632 71.655 39.0241 70.5331L70.5213 54.1788C72.7542 53.0193 73.4857 50.1778 72.09 48.0843C70.9862 46.4284 68.8767 45.7673 67.0251 46.4966L45.4119 55.011" stroke="#163050" stroke-width="2.6076" stroke-miterlimit="10" stroke-linecap="round" stroke-linejoin="round"/>
<path d="M14.7284 46.5496H1.69043V70.018H14.7284V46.5496Z" fill="#05D5FC"/>
<path d="M14.7284 63.6177H1.69043V70.0181H14.7284V63.6177Z" fill="#1EB8E7"/>
<path d="M14.7284 46.5496H1.69043V70.018H14.7284V46.5496Z" stroke="#163050" stroke-width="2.6076" stroke-miterlimit="10" stroke-linecap="round" stroke-linejoin="round"/>
<defs>
<radialGradient id="paint0_radial" cx="0" cy="0" r="1" gradientUnits="userSpaceOnUse" gradientTransform="translate(31.0095 21.1197) rotate(79.236) scale(14.4026)">
<stop offset="0.0648649" stop-color="#FFEA80"/>
<stop offset="0.1087" stop-color="#FFE77D"/>
<stop offset="0.4689" stop-color="#FFD76C"/>
<stop offset="0.735" stop-color="#FFD166"/>
</radialGradient>
</defs>
</svg>
