<svg width="28" height="27" viewBox="0 0 28 27" fill="none" xmlns="http://www.w3.org/2000/svg">
<path d="M23.0223 10.6879C23.0223 9.93611 23.6158 9.32663 24.3479 9.32663H26.9991V12.0493H24.3479C23.6158 12.0493 23.0223 11.4398 23.0223 10.6879Z" fill="#F6F8FA"/>
<path d="M18.1777 5.24268H24.3479C25.8121 5.24268 26.9991 6.46164 26.9991 7.96531V13.4106C26.9991 14.9142 25.8121 16.1332 24.3479 16.1332H22.4159M26.9991 9.32663H24.3479C23.6158 9.32663 23.0223 9.93611 23.0223 10.6879C23.0223 11.4398 23.6158 12.0493 24.3479 12.0493H26.9991V9.32663Z" stroke="#A682FF" stroke-width="1.84781" stroke-linecap="round" stroke-linejoin="round"/>
<path d="M18.7862 10.0843L17.2679 1.56131C17.2572 1.46071 17.2168 1.36588 17.1521 1.28953C17.0874 1.21319 17.0015 1.15898 16.906 1.13419C16.8105 1.1094 16.7098 1.11522 16.6176 1.15085C16.5254 1.18648 16.446 1.25023 16.39 1.33353L14.9127 3.59515C8.51325 2.01643 4.13787 6.89507 5.25875 10.9743" fill="#F6F8FA"/>
<path d="M18.7862 10.0843L17.2679 1.56131C17.2572 1.46071 17.2168 1.36588 17.1521 1.28953C17.0874 1.21319 17.0015 1.15898 16.906 1.13419C16.8105 1.10941 16.7098 1.11522 16.6176 1.15085C16.5254 1.18648 16.446 1.25023 16.39 1.33353L14.9127 3.59515C8.51325 2.01644 4.13787 6.89507 5.25875 10.9743C7.25535 7.62434 10.8486 8.05582 11.6401 8.51045L10.0596 10.9494C9.90919 11.1815 10.103 11.4808 10.3753 11.437L18.7862 10.0843Z" stroke="#A682FF" stroke-width="1.84781" stroke-linecap="round" stroke-linejoin="round"/>
<path d="M1.60007 12.0263C1.30307 10.4738 2.28787 8.96796 3.79969 8.66297L12.0268 7.10738C13.5386 6.80238 15.005 7.81371 15.302 9.36623L16.3775 14.9884C16.6745 16.5409 15.6897 18.0468 14.1779 18.3518L5.95074 19.9074C4.43893 20.2123 2.9726 19.201 2.6756 17.6485L1.60007 12.0263Z" fill="#F6F8FA"/>
<path d="M11.7337 13.0057C11.5852 12.2294 12.0776 11.4765 12.8335 11.324L15.5708 10.7718L16.1086 13.5829L13.3712 14.1351C12.6153 14.2876 11.8822 13.782 11.7337 13.0057Z" fill="#F6F8FA"/>
<path d="M1.60007 12.0263C1.30307 10.4738 2.28787 8.96796 3.79969 8.66297L12.0268 7.10738C13.5386 6.80238 15.005 7.81371 15.302 9.36623L16.3775 14.9884C16.6745 16.5409 15.6897 18.0468 14.1779 18.3518L5.95074 19.9074C4.43893 20.2123 2.9726 19.201 2.6756 17.6485L1.60007 12.0263Z" stroke="#A682FF" stroke-width="1.84781" stroke-linecap="round" stroke-linejoin="round"/>
<path d="M11.7337 13.0057C11.5852 12.2294 12.0776 11.4765 12.8335 11.324L15.5708 10.7718L16.1086 13.5829L13.3712 14.1351C12.6153 14.2876 11.8822 13.782 11.7337 13.0057Z" stroke="#A682FF" stroke-width="1.84781" stroke-linecap="round" stroke-linejoin="round"/>
<path fill-rule="evenodd" clip-rule="evenodd" d="M18.4811 15.7102L10.2812 17.2495L11.8067 25.6651C11.8709 26.0194 12.3213 26.1205 12.5194 25.8251L14.0536 23.5368C20.4168 25.065 24.8202 20.2294 23.7033 16.1645C21.7539 19.4352 18.2442 19.0733 17.3426 18.6312L18.8809 16.3368C19.079 16.0414 18.8263 15.6454 18.4811 15.7102Z" fill="#F6F8FA"/>
<path d="M10.2812 17.2495L10.1108 16.3414C9.6115 16.4351 9.28155 16.9144 9.37216 17.4142L10.2812 17.2495ZM18.4811 15.7102L18.3107 14.8021L18.4811 15.7102ZM11.8067 25.6651L12.7158 25.5004L11.8067 25.6651ZM12.5194 25.8251L11.752 25.3106L12.5194 25.8251ZM14.0536 23.5368L14.2694 22.6384C13.8936 22.5482 13.5014 22.7013 13.2862 23.0223L14.0536 23.5368ZM23.7033 16.1645L24.5942 15.9197C24.4961 15.5626 24.1943 15.2986 23.8273 15.2489C23.4604 15.1992 23.0992 15.3734 22.9096 15.6915L23.7033 16.1645ZM17.3426 18.6312L16.5752 18.1167C16.4267 18.3382 16.3811 18.6131 16.4503 18.8707C16.5194 19.1283 16.6964 19.3434 16.9359 19.4608L17.3426 18.6312ZM18.8809 16.3368L19.6483 16.8513V16.8513L18.8809 16.3368ZM10.4517 18.1575L18.6516 16.6182L18.3107 14.8021L10.1108 16.3414L10.4517 18.1575ZM12.7158 25.5004L11.1903 17.0847L9.37216 17.4142L10.8976 25.8299L12.7158 25.5004ZM11.752 25.3106C12.0437 24.8755 12.6408 25.0869 12.7158 25.5004L10.8976 25.8299C11.101 26.9519 12.5989 27.3655 13.2868 26.3396L11.752 25.3106ZM13.2862 23.0223L11.752 25.3106L13.2868 26.3396L14.821 24.0513L13.2862 23.0223ZM22.8124 16.4093C23.6891 19.5998 20.1572 24.0525 14.2694 22.6384L13.8379 24.4351C20.6763 26.0775 25.9514 20.859 24.5942 15.9197L22.8124 16.4093ZM16.9359 19.4608C17.6068 19.7898 18.9272 19.9913 20.3227 19.6938C21.7739 19.3843 23.3737 18.522 24.4969 16.6375L22.9096 15.6915C22.0835 17.0777 20.9537 17.6698 19.9374 17.8866C18.8653 18.1152 17.98 17.9148 17.7493 17.8017L16.9359 19.4608ZM18.1135 15.8223L16.5752 18.1167L18.11 19.1457L19.6483 16.8513L18.1135 15.8223ZM18.6516 16.6182C18.4074 16.664 18.2007 16.534 18.1059 16.3853C18.0119 16.2381 17.9863 16.0121 18.1135 15.8223L19.6483 16.8513C20.2758 15.9154 19.5075 14.5774 18.3107 14.8021L18.6516 16.6182Z" fill="#A682FF"/>
</svg>
