<svg width="125" height="135" viewBox="0 0 125 135" fill="none" xmlns="http://www.w3.org/2000/svg">
<path d="M83.161 110.115C76.983 109.271 70.8472 105.701 69.211 111.037C69.0816 113.489 69.6811 116.088 78.8797 118.092C88.0782 120.096 93.266 119.971 93.8297 116.026C94.3934 112.082 89.339 110.96 83.161 110.115Z" fill="white" stroke="#153150" stroke-width="1.39284" stroke-linecap="round" stroke-linejoin="round"/>
<path d="M76.7817 109.94C76.6267 102.535 78.205 92.5295 79.0135 88.4527L71.1839 89.2961C71.0636 96.7699 72.2381 106.774 72.8405 110.841C73.5112 112.918 76.823 111.913 76.7817 109.94Z" fill="#FFD168" stroke="#153150" stroke-width="1.39284" stroke-linecap="round" stroke-linejoin="round"/>
<path d="M51.6521 117.399C46.4001 119.744 37.3971 122.576 34.2169 116.086C32.9334 112.051 38.1129 111.67 44.6135 110.18C51.1141 108.691 58.215 106.457 60.0187 109.496C61.8223 112.535 56.9041 115.053 51.6521 117.399Z" fill="white" stroke="#153150" stroke-width="1.39284" stroke-linecap="round" stroke-linejoin="round"/>
<path d="M52.5357 109.384C52.8646 101.985 51.5216 91.9457 50.809 87.8511L58.6169 88.8777C58.5618 96.352 57.1526 106.325 56.4549 110.377C55.9941 111.89 52.4358 111.635 52.5357 109.384Z" fill="#FFD168" stroke="#153150" stroke-width="1.39284" stroke-linecap="round" stroke-linejoin="round"/>
<path d="M11.8113 8.82313C11.8113 4.60547 14.9923 1.65311 19.4456 1.44222C34.7142 0.387808 89.2147 1.44222 110.845 2.28575C114.875 2.49663 118.48 5.449 118.48 10.2993C118.48 14.0952 118.48 25.272 118.48 25.272V25.0611V45.0392C118.48 47.8636 116.187 50.1518 113.363 50.1462L15.9812 49.9556C13.113 49.95 10.8119 47.5841 10.8858 44.7169L11.8113 8.82313Z" fill="#0DBAEC" stroke="#153150" stroke-width="1.39284" stroke-linecap="round" stroke-linejoin="round"/>
<path opacity="0.2" d="M18.815 12.4162C18.815 12.4162 83.4946 12.4162 111.487 12.2053C115.092 12.4162 118.061 13.6815 118.061 21.2733C118.061 21.2733 117.637 17.0557 107.246 17.2665C96.6426 17.4774 19.6633 16.423 19.6633 16.423C9.69627 14.5251 10.5445 6.72237 20.5115 9.04209C18.3909 11.5727 18.815 12.4162 18.815 12.4162Z" fill="#153150"/>
<path d="M118.271 49.3078C122.937 50.5731 123.997 44.0357 123.997 36.4439C123.997 32.4371 121.665 29.063 118.271 27.165V49.3078Z" fill="#0D88CA" stroke="#153150" stroke-width="1.39284" stroke-linecap="round" stroke-linejoin="round"/>
<path d="M110.846 93.1842C78.1882 95.504 51.6802 94.8713 19.4464 92.5516C14.781 92.1298 12.2362 88.5448 12.0242 84.9598C9.90352 61.7626 9.26733 35.824 11.8121 8.40918C11.8121 13.4704 15.6293 16.2119 19.4464 16.2119C50.6199 17.688 80.733 17.8989 110.846 17.2663C112.967 17.2663 114.875 18.1098 116.148 19.586C117.415 21.056 118.261 22.9443 118.268 24.8344C118.268 24.8502 118.268 24.8466 118.268 24.8624C118.273 25.3709 118.69 70.705 118.268 85.8033C118.268 89.8101 115.299 92.9734 110.846 93.1842Z" fill="#0DBAEC" stroke="#153150" stroke-width="1.39284" stroke-linecap="round" stroke-linejoin="round"/>
<path d="M56.9648 61.8801H69.0841M69.0841 58.0732V65.3697" stroke="#153150" stroke-width="1.39284" stroke-linecap="round" stroke-linejoin="round"/>
<path d="M106.825 23.2661C110.557 23.2044 111.579 25.2622 112.281 27.8713" stroke="#153150" stroke-width="1.39284" stroke-linecap="round" stroke-linejoin="round"/>
<path d="M107.703 88.2561C111.317 87.7596 113.035 85.4382 113.09 82.1616" stroke="#153150" stroke-width="1.39284" stroke-linecap="round" stroke-linejoin="round"/>
<path opacity="0.15" d="M121.025 64.5003C121.025 75.888 83.7021 81.7927 83.7021 61.5479C83.7021 38.5617 114.027 48.6841 121.025 43.8337C121.025 43.6229 121.025 58.5956 121.025 64.5003Z" fill="#153150"/>
<path d="M113.609 69.7676L102.582 70.1894C88.1615 70.8221 88.1615 48.2575 102.582 47.8358L113.609 47.414C119.335 47.2031 124 42.3528 124 36.4481V35.8154V58.8017C124 64.4956 119.335 69.5568 113.609 69.7676Z" fill="#0DBAEC" stroke="#153150" stroke-width="1.39284" stroke-linecap="round" stroke-linejoin="round"/>
<line x1="118.061" y1="52.2169" x2="118.061" y2="59.9086" stroke="#153150" stroke-width="1.39284" stroke-linecap="round" stroke-linejoin="round"/>
<path d="M19.6035 15.756V10.8267C19.6035 9.35121 20.7612 8.13094 22.2343 8.04747C55.2805 6.17508 74.7794 6.17431 107.277 8.04516C108.749 8.1299 109.904 9.34966 109.904 10.8241V17.0897" stroke="#153150" stroke-width="1.39284" stroke-linecap="round" stroke-linejoin="round"/>
<ellipse cx="103.95" cy="59.0454" rx="4.40534" ry="4.3808" fill="#FFD168" stroke="#153150" stroke-width="1.39284" stroke-linecap="round" stroke-linejoin="round"/>
<path d="M9.9067 46.1543C5.24128 49.3175 1 54.8005 1 63.2358C1 80.3174 24.5391 96.1336 31.5373 84.1133C34.2941 79.263 29.2045 72.5147 24.5391 72.3038C17.9651 71.8821 15.2083 76.9433 15.2083 76.9433C5.02922 71.2494 2.69651 57.542 10.1188 50.7937L9.9067 46.1543Z" fill="white" stroke="#153150" stroke-width="1.39284" stroke-linecap="round" stroke-linejoin="round"/>
<path d="M53.3793 52.8954H42.3519C39.8072 52.8954 37.6865 50.7866 37.6865 48.256V41.9295C37.6865 39.3989 39.8072 37.29 42.3519 37.29H53.3793C55.924 37.29 58.0447 39.3989 58.0447 41.9295V48.256C58.0447 50.7866 56.1361 52.8954 53.3793 52.8954Z" fill="#153150" stroke="#153150" stroke-width="1.39284" stroke-linecap="round" stroke-linejoin="round"/>
<path d="M56.9648 43.9092H68.2868" stroke="#153150" stroke-width="1.39284" stroke-linecap="round" stroke-linejoin="round"/>
<path d="M83.7074 52.8954H72.6801C70.1353 52.8954 68.0146 50.7866 68.0146 48.256V41.9295C68.0146 39.3989 70.1353 37.29 72.6801 37.29H83.7074C86.2522 37.29 88.3728 39.3989 88.3728 41.9295V48.256C88.3728 50.7866 86.2522 52.8954 83.7074 52.8954Z" fill="#153150" stroke="#153150" stroke-width="1.39284" stroke-linecap="round" stroke-linejoin="round"/>
<path d="M72.6406 40.7959L72.6406 43.2317M72.6406 47.135L72.6406 47.2861" stroke="white" stroke-width="1.39284" stroke-linecap="round" stroke-linejoin="round"/>
<path d="M42.499 40.7959L42.499 43.2317M42.499 47.135L42.499 47.2861" stroke="white" stroke-width="1.39284" stroke-linecap="round" stroke-linejoin="round"/>
</svg>
