<svg width="125" height="136" viewBox="0 0 125 136" fill="none" xmlns="http://www.w3.org/2000/svg">
<path d="M83.1632 110.926C76.9851 110.075 70.8492 106.478 69.213 111.855C69.0836 114.325 69.6831 116.944 78.8817 118.963C88.0804 120.982 93.2683 120.856 93.832 116.882C94.3957 112.908 89.3413 111.776 83.1632 110.926Z" fill="white" stroke="#153150" stroke-width="1.58523" stroke-linecap="round" stroke-linejoin="round"/>
<path d="M76.7813 110.746C76.6264 103.285 78.2048 93.204 79.0134 89.0964L71.1837 89.9464C71.0632 97.4766 72.2377 107.556 72.8399 111.654C73.5106 113.747 76.8225 112.734 76.7813 110.746Z" fill="#FFD168" stroke="#153150" stroke-width="1.58523" stroke-linecap="round" stroke-linejoin="round"/>
<path d="M51.6601 118.277C46.408 120.641 37.4049 123.494 34.2247 116.955C32.9412 112.889 38.1208 112.506 44.6214 111.004C51.1221 109.503 58.2232 107.253 60.0268 110.315C61.8305 113.377 56.9122 115.914 51.6601 118.277Z" fill="white" stroke="#153150" stroke-width="1.58523" stroke-linecap="round" stroke-linejoin="round"/>
<path d="M52.5469 110.195C52.8747 102.74 51.5302 92.6254 50.8169 88.5001L58.6256 89.5355C58.5715 97.0657 57.1637 107.113 56.4665 111.196C56.006 112.72 52.4474 112.462 52.5469 110.195Z" fill="#FFD168" stroke="#153150" stroke-width="1.58523" stroke-linecap="round" stroke-linejoin="round"/>
<path d="M11.8162 8.88218C11.8162 4.63268 14.9972 1.65804 19.4506 1.44556C34.7195 0.383188 89.2208 1.44556 110.852 2.29546C114.881 2.50793 118.486 5.48258 118.486 10.3695C118.486 14.194 118.486 25.4552 118.486 25.4552V25.2427V44.7033C118.486 47.9179 115.877 50.5221 112.662 50.5158L16.7073 50.3265C13.4434 50.3201 10.8246 47.6281 10.9081 44.3653L11.8162 8.88218Z" fill="#0DBAEC" stroke="#153150" stroke-width="1.58523" stroke-linecap="round" stroke-linejoin="round"/>
<path opacity="0.2" d="M18.8112 12.4893C18.8112 12.4893 83.4918 12.4893 111.485 12.2769C115.09 12.4893 118.059 13.7642 118.059 21.4133C118.059 21.4133 117.635 17.1638 107.243 17.3763C96.64 17.5887 19.6595 16.5264 19.6595 16.5264C9.69232 14.6141 10.5406 6.75252 20.5078 9.08974C18.3871 11.6394 18.8112 12.4893 18.8112 12.4893Z" fill="#153150"/>
<path d="M118.271 49.6746C122.937 50.9495 123.997 44.3627 123.997 36.7136C123.997 32.6766 121.665 29.277 118.271 27.3647V49.6746Z" fill="#0D88CA" stroke="#153150" stroke-width="1.58523" stroke-linecap="round" stroke-linejoin="round"/>
<path d="M110.849 93.8719C78.1902 96.2091 51.6818 95.5717 19.4475 93.2345C14.782 92.8095 12.2372 89.1974 12.0252 85.5854C9.90449 62.2131 9.26829 36.0787 11.8131 8.45703C11.8131 13.5564 15.6303 16.3186 19.4475 16.3186C50.6215 17.8059 80.7351 18.0184 110.849 17.381C112.969 17.381 114.878 18.2309 116.15 19.7182C117.417 21.1986 118.263 23.1 118.271 25.0033C118.271 25.0211 118.271 25.0177 118.271 25.0355C118.276 25.6092 118.692 71.2334 118.271 86.4353C118.271 90.4723 115.302 93.6594 110.849 93.8719Z" fill="#0DBAEC" stroke="#153150" stroke-width="1.58523" stroke-linecap="round" stroke-linejoin="round"/>
<path d="M106.827 23.4294C110.559 23.3675 111.581 25.4408 112.284 28.0695" stroke="#153150" stroke-width="1.58523" stroke-linecap="round" stroke-linejoin="round"/>
<path d="M107.704 88.9124C111.318 88.4123 113.036 86.0734 113.091 82.772" stroke="#153150" stroke-width="1.58523" stroke-linecap="round" stroke-linejoin="round"/>
<path opacity="0.15" d="M121.027 64.981C121.027 76.4546 83.7031 82.4039 83.7031 62.0064C83.7031 38.8466 114.029 49.0454 121.027 44.1585C121.027 43.946 121.027 59.0317 121.027 64.981Z" fill="#153150"/>
<path d="M113.609 70.2846L102.581 70.7096C88.1605 71.347 88.1605 48.6122 102.581 48.1872L113.609 47.7623C119.334 47.5498 124 42.6629 124 36.7136V36.0762V59.2359C124 64.9727 119.334 70.0721 113.609 70.2846Z" fill="#0DBAEC" stroke="#153150" stroke-width="1.58523" stroke-linecap="round" stroke-linejoin="round"/>
<line x1="118.163" y1="52.6906" x2="118.163" y2="60.2584" stroke="#153150" stroke-width="1.58523" stroke-linecap="round" stroke-linejoin="round"/>
<path d="M19.6104 15.8741V11.2494C19.6104 9.57067 20.9226 8.18229 22.5987 8.08703C55.308 6.22776 74.7609 6.22688 106.928 8.0844C108.603 8.18111 109.913 9.56891 109.913 11.2464V17.2179" stroke="#153150" stroke-width="1.58523" stroke-linecap="round" stroke-linejoin="round"/>
<ellipse cx="103.957" cy="59.4832" rx="4.4054" ry="4.41386" fill="#FFD168" stroke="#153150" stroke-width="1.58523" stroke-linecap="round" stroke-linejoin="round"/>
<path d="M9.90683 46.4902C5.24135 49.6774 1 55.2017 1 63.7007C1 80.9112 24.5395 96.8468 31.5377 84.7357C34.2946 79.8488 29.205 73.0496 24.5395 72.8371C17.9654 72.4122 15.2085 77.5116 15.2085 77.5116C5.02928 71.7747 2.69654 57.9639 10.1189 51.1647L9.90683 46.4902Z" fill="white" stroke="#153150" stroke-width="1.58523" stroke-linecap="round" stroke-linejoin="round"/>
<path d="M49.4806 47.0265C51.0873 47.0265 52.3898 45.7212 52.3898 44.1109C52.3898 42.5007 51.0873 41.1953 49.4806 41.1953C47.8738 41.1953 46.5713 42.5007 46.5713 44.1109C46.5713 45.7212 47.8738 47.0265 49.4806 47.0265Z" fill="#1D314D" stroke="#163050" stroke-width="1.13228" stroke-linecap="round" stroke-linejoin="round"/>
<path d="M48.6359 44.093C49.2358 44.093 49.7221 43.6057 49.7221 43.0045C49.7221 42.4034 49.2358 41.916 48.6359 41.916C48.0361 41.916 47.5498 42.4034 47.5498 43.0045C47.5498 43.6057 48.0361 44.093 48.6359 44.093Z" fill="white"/>
<path d="M80.0601 39.4976C79.5865 38.6052 78.8929 37.8491 78.0453 37.3013C77.1977 36.7535 76.2243 36.4323 75.2178 36.3682" stroke="#163050" stroke-width="1.58523" stroke-linecap="round" stroke-linejoin="round"/>
<path d="M74.6954 47.0265C76.3021 47.0265 77.6047 45.7212 77.6047 44.1109C77.6047 42.5007 76.3021 41.1953 74.6954 41.1953C73.0887 41.1953 71.7861 42.5007 71.7861 44.1109C71.7861 45.7212 73.0887 47.0265 74.6954 47.0265Z" fill="#1D314D" stroke="#163050" stroke-width="1.13228" stroke-linecap="round" stroke-linejoin="round"/>
<path d="M73.8488 44.093C74.4487 44.093 74.9349 43.6057 74.9349 43.0045C74.9349 42.4034 74.4487 41.916 73.8488 41.916C73.249 41.916 72.7627 42.4034 72.7627 43.0045C72.7627 43.6057 73.249 44.093 73.8488 44.093Z" fill="white"/>
<path d="M42.9779 36.6026L51.1739 32.8434" stroke="#163050" stroke-width="1.58523" stroke-linecap="round" stroke-linejoin="round"/>
<path d="M58.9736 59.1056L67.7618 61.117" stroke="#163050" stroke-width="1.58523" stroke-linecap="round" stroke-linejoin="round"/>
</svg>
