<svg width="73" height="78" viewBox="0 0 73 78" fill="none" xmlns="http://www.w3.org/2000/svg">
<path fill-rule="evenodd" clip-rule="evenodd" d="M71.5474 51.1846V33.0389C71.5385 28.9475 68.2075 25.6355 64.1015 25.6355H55.6358C53.6653 25.6398 51.7772 26.4239 50.3869 27.8153C48.9966 29.2068 48.2179 31.0915 48.2222 33.0551V38.9423C48.2311 43.0337 51.5622 46.3458 55.6682 46.3457H64.927C68.0092 46.18 70.7803 48.2054 71.5474 51.1846Z" fill="#0C9FE1" stroke="#163150" stroke-width="2.61933" stroke-linecap="round" stroke-linejoin="round"/>
<path fill-rule="evenodd" clip-rule="evenodd" d="M8.69356 61.0732V21.8624C8.69356 19.5236 10.636 17.3783 14.019 17.3783H59.7954C60.9288 17.3698 62.0192 17.8102 62.8267 18.6028C63.6341 19.3953 64.0926 20.475 64.1012 21.6043L64.2309 51.4277C64.2578 53.8055 62.3593 55.7621 59.9735 55.815H13.7277C12.3552 55.8315 11.0474 56.3987 10.1 57.3883C9.15255 58.3779 8.64553 59.7063 8.69356 61.0732Z" fill="#0C9FE1" stroke="#163150" stroke-width="2.61933" stroke-linecap="round" stroke-linejoin="round"/>
<path fill-rule="evenodd" clip-rule="evenodd" d="M34.4469 17.4586C29.2509 16.136 25.8516 15.1521 23.6178 13.0553C21.3841 10.9585 20.1539 7.34545 18.7618 1.76465C17.2402 7.73256 15.9615 11.4423 13.1935 13.765C10.9921 15.5554 7.81948 16.2167 3.06055 17.4264C13.8086 20.1523 16.01 22.362 18.7618 33.072C21.4812 22.3943 23.6988 20.1845 34.4469 17.4586Z" fill="#FFD166" stroke="#163150" stroke-width="2.61933" stroke-linecap="square" stroke-linejoin="round"/>
<path fill-rule="evenodd" clip-rule="evenodd" d="M64.2309 31.9442L64.1013 61.7515C64.0835 64.1059 62.1583 66.0025 59.7956 65.9936L15.1684 65.8H12.7728C10.4164 65.7823 8.51562 63.8738 8.51562 61.5257L8.69368 22.3149C8.64984 23.6859 9.16592 25.0159 10.1239 26.0009C11.0819 26.9859 12.3998 27.5416 13.7764 27.5409H14.8285L60.0384 27.6538C62.3795 27.6979 64.2489 29.6111 64.2309 31.9442Z" fill="#1EB8E7"/>
<path fill-rule="evenodd" clip-rule="evenodd" d="M17.3378 27.5409L16.917 65.7839C14.1814 65.7839 8.64551 66.6549 8.64551 61.5096V22.3149C8.69407 27.7183 15.1688 27.5409 17.3378 27.5409Z" fill="#0C9FE1"/>
<path fill-rule="evenodd" clip-rule="evenodd" d="M8.6932 22.2998L8.5637 60.7364C8.46008 62.1919 9.00812 63.6185 10.0606 64.633C11.1131 65.6476 12.5622 66.146 14.0187 65.9946H59.7951C62.1578 66.0035 64.083 64.1068 64.1008 61.7525L64.2304 31.9291C64.2486 29.5576 62.3526 27.6108 59.9731 27.558H13.7273C12.3549 27.5415 11.047 26.9743 10.0996 25.9847C9.15219 24.9951 8.64517 23.6667 8.6932 22.2998Z" stroke="#163150" stroke-width="2.61933" stroke-linecap="round" stroke-linejoin="round"/>
<path fill-rule="evenodd" clip-rule="evenodd" d="M71.5472 34.1687V52.3144C71.5205 56.3932 68.1946 59.6855 64.1012 59.6855H52.042C47.9497 59.6503 44.646 56.3439 44.6284 52.266V46.3787C44.6551 42.2973 47.9784 39.0002 52.0744 38.9914H65.0239C68.0657 39.1118 70.7809 37.1045 71.5472 34.1687Z" fill="#1EB8E7"/>
<path fill-rule="evenodd" clip-rule="evenodd" d="M64.2313 46.7823C71.2241 50.9114 64.9921 61.4601 57.967 57.331L52.5444 55.0406L57.8214 43.5564L64.2313 46.7823Z" fill="#0C9FE1"/>
<path d="M58.766 51.5614C59.9941 49.5629 59.363 46.9521 57.3564 45.7301C55.3498 44.508 52.7276 45.1374 51.4995 47.1359C50.2714 49.1343 50.9025 51.7451 52.9091 52.9671C54.9157 54.1892 57.538 53.5598 58.766 51.5614Z" fill="#B3C1D6" stroke="#163150" stroke-width="2.61933" stroke-linecap="round" stroke-linejoin="round"/>
<path fill-rule="evenodd" clip-rule="evenodd" d="M71.5472 34.1687V52.3144C71.5205 56.3932 68.1946 59.6855 64.1012 59.6855H52.042C47.9497 59.6503 44.646 56.3439 44.6284 52.266V46.3787C44.6551 42.2973 47.9784 39.0002 52.0744 38.9914H65.0239C68.0657 39.1118 70.7809 37.1045 71.5472 34.1687Z" stroke="#163150" stroke-width="2.61933" stroke-linecap="round" stroke-linejoin="round"/>
<path fill-rule="evenodd" clip-rule="evenodd" d="M49.5167 65.8329C42.3783 64.0264 40.9053 62.607 39.0762 55.4456C38.2021 58.865 37.5384 61.3812 36.1626 62.8651C34.7867 64.349 32.3425 64.8974 28.6519 65.8329C35.7903 67.6556 37.2633 69.0588 39.0762 76.2365C39.9341 72.8977 40.5654 70.446 41.8927 68.9782C43.22 67.5104 45.729 66.8007 49.5167 65.8329Z" fill="#FFD166" stroke="#163150" stroke-width="2.61933" stroke-linecap="square" stroke-linejoin="round"/>
<path d="M33.9936 46.0261H21.3354M27.6645 39.7195V52.3327V39.7195Z" stroke="#E3EDFF" stroke-width="2.61933" stroke-linecap="round" stroke-linejoin="round"/>
<path opacity="0.4" d="M1.3125 49.7677L1.34487 42.574M11.0408 72.849C5.472 71.9516 1.36695 67.1794 1.32869 61.5584V57.8809" stroke="#B5BFC7" stroke-width="2.61933" stroke-linecap="round" stroke-linejoin="round"/>
<path opacity="0.4" d="M43.8677 10.1494H48.6104M55.6355 10.1494H59.8279C66.1804 10.1583 71.3278 15.2875 71.3368 21.6175" stroke="#B5BFC7" stroke-width="2.61933" stroke-linecap="round" stroke-linejoin="round"/>
</svg>
