<svg width="20" height="20" viewBox="0 0 20 20" fill="none" xmlns="http://www.w3.org/2000/svg">
<path fill-rule="evenodd" clip-rule="evenodd" d="M10.25 6.75C10.25 6.33579 10.5858 6 11 6H16C16.4142 6 16.75 6.33579 16.75 6.75V13C16.75 13.4142 16.4142 13.75 16 13.75H11C10.5858 13.75 10.25 13.4142 10.25 13V6.75ZM11.75 7.5V12.25H15.25V7.5H11.75Z" fill="#A682FF"/>
<path fill-rule="evenodd" clip-rule="evenodd" d="M0 2C0 0.895432 0.89543 0 2 0H18C19.1046 0 20 0.89543 20 2V18C20 19.1046 19.1046 20 18 20H2C0.895432 20 0 19.1046 0 18V2ZM2 18V4H18V18H16.75V16C16.75 15.5858 16.4142 15.25 16 15.25H11C10.5858 15.25 10.25 15.5858 10.25 16V18H8.75V6.75C8.75 6.33579 8.41421 6 8 6H4C3.58579 6 3.25 6.33579 3.25 6.75V18H2ZM15.25 18H11.75V16.75H15.25V18ZM7.25 18H4.75V7.5H7.25V18Z" fill="#A682FF"/>
</svg>
