<svg width="381" height="201" viewBox="0 0 381 201" fill="none" xmlns="http://www.w3.org/2000/svg">
<path d="M133.68 33.9848C190.463 72.5847 269.913 196.814 221.607 196.814C185.926 196.814 83.587 197.702 52.2282 197.702C20.8693 197.702 15.7289 160.522 26.2878 110.297C42.146 34.8722 15.6733 -46.2142 133.68 33.9848Z" fill="#A682FF" fill-opacity="0.6146"/>
<path d="M357.127 128.796L360.022 124.923H378.398V121.303H339.388V128.796H357.127ZM352.48 123.957H354.766V126.243H352.48V123.957ZM347.791 123.957H350.077V126.243H347.791V123.957ZM343.102 123.957H345.388V126.243H343.102V123.957Z" fill="#B5BFC7"/>
<path d="M361.167 127.208L358.272 131.082H339.388V160.314H378.398V127.208H361.167ZM352.976 150.349L351.359 151.965L344.94 145.546L351.359 139.126L352.976 140.742L348.172 145.546L352.976 150.349ZM356.047 154.44L353.968 153.49L361.663 136.651L363.742 137.601L356.047 154.44ZM366.427 151.965L364.81 150.349L369.614 145.546L364.81 140.742L366.427 139.126L372.846 145.546L366.427 151.965Z" fill="#B5BFC7"/>
<path d="M311.434 152.626C310.29 152.157 309.801 151.535 309.848 150.608C309.897 149.525 309.283 148.732 308.991 148.418C309.167 147.745 309.682 145.416 308.991 143.393C308.249 141.227 305.983 137.92 303.644 134.669C302.687 133.334 302.641 131.883 302.589 130.202C302.539 128.6 302.482 126.783 301.589 124.763C300.617 122.564 298.667 121.303 296.238 121.303C294.794 121.303 293.311 121.755 292.169 122.542C289.833 124.155 290.142 127.671 290.346 129.998C290.374 130.316 290.4 130.617 290.416 130.874C290.552 133.153 290.428 134.354 290.266 134.719C290.161 134.957 289.645 135.636 289.1 136.355C288.535 137.099 287.895 137.941 287.371 138.726C286.745 139.671 286.24 141.115 285.751 142.512C285.394 143.534 285.056 144.499 284.727 145.076C284.104 146.186 284.259 147.221 284.389 147.699C284.153 147.863 283.812 148.185 283.524 148.793C283.177 149.535 282.471 149.934 281.005 150.216C280.331 150.354 279.866 150.637 279.623 151.058C279.269 151.671 279.462 152.441 279.637 152.967C279.897 153.741 279.735 154.23 279.441 155.119C279.373 155.325 279.296 155.557 279.219 155.813C279.096 156.217 279.14 156.585 279.35 156.906C279.904 157.752 281.52 158.051 283.184 158.248C284.178 158.365 285.265 158.763 286.317 159.147C287.348 159.524 288.413 159.913 289.382 160.032C289.529 160.05 289.675 160.059 289.815 160.059C291.278 160.059 291.939 159.089 292.148 158.69C292.673 158.583 294.485 158.24 296.352 158.194C298.217 158.141 300.021 158.509 300.532 158.623C300.692 158.931 301.116 159.633 301.791 159.995C302.162 160.198 302.678 160.314 303.207 160.314C303.207 160.314 303.207 160.314 303.207 160.314C303.772 160.314 304.847 160.18 305.697 159.286C306.545 158.387 308.665 157.239 310.212 156.401C310.558 156.214 310.881 156.039 311.164 155.881C312.033 155.399 312.508 154.711 312.466 153.992C312.43 153.395 312.035 152.872 311.434 152.626ZM292.188 152.453C292.08 151.69 291.1 150.934 289.964 150.059C289.035 149.343 287.983 148.532 287.693 147.845C287.094 146.427 287.566 143.935 288.39 142.651C288.797 142.009 289.129 141.034 289.451 140.092C289.798 139.074 290.157 138.022 290.558 137.561C291.194 136.842 291.782 135.443 291.886 134.341C292.481 134.909 293.405 135.63 294.258 135.63C294.389 135.63 294.517 135.613 294.639 135.579C295.223 135.41 296.081 134.914 296.912 134.434C297.627 134.021 298.51 133.511 298.842 133.464C299.412 134.282 302.721 141.606 303.06 143.958C303.327 145.819 303.045 147.357 302.902 147.96C302.788 147.944 302.652 147.932 302.508 147.932C301.587 147.932 301.343 148.435 301.279 148.735C301.116 149.516 301.098 152.012 301.097 152.573C300.763 152.996 299.078 154.991 296.657 155.349C295.672 155.492 294.751 155.565 293.922 155.565C293.213 155.565 292.76 155.51 292.572 155.482L291.356 154.09C291.835 153.854 292.315 153.354 292.188 152.453ZM293.732 129.508C293.694 129.525 293.656 129.542 293.62 129.561C293.616 129.478 293.607 129.395 293.594 129.311C293.461 128.547 292.955 127.992 292.389 127.992C292.348 127.992 292.306 127.995 292.259 128.002C291.923 128.058 291.659 128.311 291.515 128.669C291.642 127.883 292.087 127.301 292.615 127.301C293.235 127.301 293.759 128.137 293.759 129.127C293.759 129.252 293.75 129.376 293.732 129.508ZM298.552 130.097C298.609 129.917 298.639 129.721 298.639 129.518C298.639 128.621 298.07 127.918 297.344 127.918C296.633 127.918 296.056 128.635 296.056 129.518C296.056 129.578 296.059 129.638 296.064 129.698C296.027 129.684 295.99 129.67 295.954 129.656C295.872 129.409 295.831 129.15 295.831 128.887C295.831 127.814 296.517 126.941 297.36 126.941C298.202 126.941 298.888 127.814 298.888 128.887C298.888 129.333 298.765 129.759 298.552 130.097ZM297.93 132.185C297.918 132.24 297.892 132.264 297.607 132.412C297.462 132.487 297.283 132.581 297.058 132.718L296.908 132.809C296.304 133.174 294.892 134.031 294.508 134.082C294.247 134.117 294.086 134.016 293.724 133.769C293.642 133.714 293.555 133.655 293.462 133.595C292.809 133.167 292.389 132.694 292.342 132.51C292.555 132.345 293.082 131.933 293.353 131.689C293.901 131.179 294.453 130.836 294.727 130.836C294.741 130.836 294.754 130.838 294.768 130.84C295.089 130.897 295.88 131.213 296.459 131.444C296.726 131.55 296.957 131.642 297.119 131.701C297.631 131.876 297.898 132.101 297.93 132.185ZM302.528 156.023C302.817 154.721 303.149 152.949 303.096 151.905C303.083 151.668 303.062 151.409 303.042 151.16C303.004 150.693 302.947 149.999 303.006 149.793C303.017 149.788 303.03 149.783 303.044 149.779C303.047 150.376 303.176 151.567 304.129 151.983C304.412 152.106 304.737 152.169 305.093 152.169C306.047 152.169 307.105 151.701 307.539 151.267C307.794 151.012 308.009 150.7 308.159 150.452C308.192 150.549 308.212 150.675 308.202 150.837C308.145 151.717 308.573 152.886 309.388 153.316L309.506 153.379C309.796 153.531 310.567 153.935 310.579 154.127C310.579 154.127 310.573 154.15 310.53 154.19C310.337 154.366 309.657 154.713 309 155.048C307.835 155.644 306.514 156.318 305.921 156.942C305.086 157.821 304.141 158.411 303.571 158.411C303.502 158.411 303.439 158.403 303.384 158.385C302.764 158.192 302.254 157.298 302.528 156.023ZM281.41 152.701C281.347 152.405 281.297 152.172 281.35 151.946C281.389 151.778 282.216 151.599 282.57 151.522C283.066 151.414 283.58 151.303 283.916 151.099C284.37 150.824 284.616 150.316 284.833 149.869C284.99 149.545 285.152 149.21 285.345 149.1C285.356 149.094 285.373 149.086 285.404 149.086C285.766 149.086 286.525 149.847 286.962 150.527C287.073 150.698 287.278 151.042 287.516 151.44C288.227 152.629 289.2 154.258 289.708 154.804C290.166 155.295 290.908 156.238 290.725 157.048C290.592 157.676 289.881 158.186 289.713 158.299C289.652 158.313 289.577 158.32 289.488 158.32C288.515 158.32 286.59 157.511 285.555 157.076L285.402 157.011C284.824 156.769 283.881 156.616 282.969 156.469C282.243 156.351 281.249 156.191 281.085 156.045C280.951 155.895 281.106 155.409 281.243 154.979C281.341 154.67 281.442 154.351 281.498 154.017C281.577 153.484 281.484 153.05 281.41 152.701Z" fill="#B5BFC7"/>
<path d="M339.388 60.3909V73.3944H357.593V58.1152L339.388 60.3909Z" fill="#B5BFC7"/>
<path d="M360.192 57.7902V73.3945H380.998V55.1895L360.192 57.7902Z" fill="#B5BFC7"/>
<path d="M360.192 75.9954V91.5997L380.998 94.2004V75.9954H360.192Z" fill="#B5BFC7"/>
<path d="M339.388 75.9954V88.9989L357.593 91.2746V75.9954H339.388Z" fill="#B5BFC7"/>
<path d="M306.404 75.9161C306.353 70.9726 310.434 68.6068 310.615 68.4881C308.323 65.1387 304.756 64.678 303.481 64.6271C300.448 64.3162 297.557 66.4135 296.013 66.4135C294.476 66.4135 292.096 64.6695 289.577 64.7148C286.265 64.7656 283.215 66.6424 281.508 69.6046C278.068 75.5741 280.626 84.4154 283.978 89.2628C285.618 91.6314 287.574 94.2911 290.137 94.1978C292.607 94.0989 293.54 92.5981 296.528 92.5981C299.515 92.5981 300.355 94.1978 302.967 94.1498C305.626 94.0989 307.308 91.7332 308.933 89.3589C310.816 86.6087 311.59 83.9434 311.638 83.8105C311.576 83.7766 306.457 81.8178 306.404 75.9161Z" fill="#B5BFC7"/>
<path d="M301.491 61.419C302.85 59.7712 303.772 57.4761 303.52 55.1895C301.556 55.2686 299.184 56.4925 297.774 58.1431C296.51 59.6044 295.411 61.9363 295.705 64.1777C297.893 64.3501 300.131 63.064 301.491 61.419Z" fill="#B5BFC7"/>
<path d="M170.035 198.998H121.583L123.696 173.98H167.923L170.035 198.998Z" fill="#D8D8D8" stroke="#163050" stroke-width="3.21001" stroke-linecap="round" stroke-linejoin="round"/>
<path d="M236.722 41.4746H65.6695C58.1467 41.4746 52.0483 47.573 52.0483 55.0958V161.285C52.0483 168.808 58.1467 174.906 65.6695 174.906H236.722C244.244 174.906 250.343 168.808 250.343 161.285V55.0958C250.343 47.573 244.244 41.4746 236.722 41.4746Z" fill="#78E1F2" stroke="#163050" stroke-width="3.21001" stroke-linecap="round" stroke-linejoin="round"/>
<path d="M250.343 152.668V161.285C250.343 164.898 248.908 168.362 246.353 170.917C243.799 173.471 240.334 174.906 236.722 174.906H65.6695C62.0569 174.906 58.5924 173.471 56.0379 170.917C53.4834 168.362 52.0483 164.898 52.0483 161.285V152.668H250.343Z" fill="#D8D8D8" stroke="#163050" stroke-width="3.21001" stroke-linecap="round" stroke-linejoin="round"/>
<path d="M151.196 169.347C154.266 169.347 156.756 166.858 156.756 163.787C156.756 160.717 154.266 158.228 151.196 158.228C148.125 158.228 145.636 160.717 145.636 163.787C145.636 166.858 148.125 169.347 151.196 169.347Z" fill="#2A455F"/>
<path d="M43.8768 14.052L48.4636 18.6387L43.8768 23.2254L48.4636 27.8122L43.8768 32.3989L39.2901 27.8122L34.7034 32.3989L30.1167 27.8122L34.7034 23.2254L30.1167 18.6387L34.7034 14.052L39.2901 18.6387L43.8768 14.052Z" fill="#FFD167"/>
<path d="M27.5056 164.734L34.4513 171.392L17.2834 191.177L8.36314 182.58L27.5056 164.734ZM7.90005 157.063L12.303 165.227L29.0154 155.018L25.5933 148.672L7.90005 157.063Z" fill="#007A99"/>
<g filter="url(#filter0_d)">
<path d="M151.196 139.695C173.713 139.695 191.967 121.442 191.967 98.9244C191.967 76.4073 173.713 58.1536 151.196 58.1536C128.679 58.1536 110.425 76.4073 110.425 98.9244C110.425 121.442 128.679 139.695 151.196 139.695Z" fill="#007A99"/>
</g>
<path d="M159.025 102.436C159.32 102.14 159.671 101.905 160.057 101.744C160.444 101.584 160.858 101.501 161.276 101.501C161.695 101.501 162.109 101.584 162.495 101.744C162.882 101.905 163.233 102.14 163.528 102.436C164.003 102.911 164.381 103.475 164.638 104.096C164.895 104.717 165.028 105.383 165.028 106.055C165.028 106.727 164.895 107.392 164.638 108.013C164.381 108.634 164.003 109.198 163.528 109.673L154.438 118.782C153.963 119.257 153.399 119.634 152.778 119.892C152.157 120.149 151.492 120.281 150.819 120.281C150.147 120.281 149.482 120.149 148.861 119.892C148.24 119.634 147.676 119.257 147.201 118.782L138.093 109.682C137.617 109.207 137.24 108.643 136.983 108.022C136.725 107.401 136.593 106.736 136.593 106.064C136.593 105.392 136.725 104.726 136.983 104.105C137.24 103.485 137.617 102.92 138.093 102.445C138.388 102.149 138.739 101.914 139.125 101.753C139.511 101.593 139.926 101.51 140.344 101.51C140.763 101.51 141.177 101.593 141.563 101.753C141.95 101.914 142.301 102.149 142.596 102.445L147.229 107.079C147.704 107.554 148.268 107.931 148.889 108.188C149.51 108.446 150.175 108.578 150.847 108.578C151.519 108.578 152.185 108.446 152.806 108.188C153.427 107.931 153.991 107.554 154.466 107.079L159.025 102.436ZM173.165 88.1293L164.473 79.447C163.539 78.5333 162.28 78.0279 160.974 78.0418C159.667 78.0557 158.419 78.5878 157.505 79.5211L150.806 86.2298L144.217 79.6416C143.755 79.1878 143.207 78.8297 142.606 78.5878C142.004 78.3458 141.361 78.2249 140.713 78.2317C140.065 78.2386 139.425 78.3732 138.829 78.6279C138.233 78.8825 137.693 79.2522 137.24 79.7157L128.382 88.5834C127.45 89.4991 126.919 90.7474 126.907 92.054C126.895 93.3606 127.402 94.6186 128.317 95.5515C128.596 95.8318 128.928 96.054 129.294 96.2051C129.66 96.3562 130.052 96.4332 130.448 96.4318C130.858 96.4298 131.264 96.347 131.643 96.188C132.021 96.029 132.365 95.797 132.653 95.5051L137.129 91.0204C137.582 90.5568 138.122 90.1872 138.718 89.9325C139.314 89.6779 139.954 89.5433 140.602 89.5364C141.25 89.5295 141.893 89.6505 142.495 89.8924C143.096 90.1343 143.643 90.4924 144.106 90.9462L148.508 95.3384C148.98 95.8104 149.596 96.1106 150.259 96.1908H150.342H150.713C151.123 96.1889 151.529 96.1061 151.908 95.9471C152.286 95.7881 152.63 95.556 152.918 95.2642L157.403 90.7794C158.318 89.8461 159.565 89.314 160.872 89.3001C162.178 89.2862 163.437 89.7916 164.371 90.7053L168.773 95.0974C169.348 95.6723 170.128 95.9953 170.941 95.9953C171.754 95.9953 172.534 95.6723 173.109 95.0974C173.576 94.6319 173.946 94.0787 174.199 93.4697C174.452 92.8608 174.582 92.2079 174.582 91.5485C174.582 90.9126 174.456 90.2829 174.211 89.696C173.966 89.1091 173.608 88.5766 173.155 88.1293H173.165Z" fill="#F2F2F2"/>
<defs>
<filter id="filter0_d" x="105.485" y="55.6832" width="91.423" height="91.423" filterUnits="userSpaceOnUse" color-interpolation-filters="sRGB">
<feFlood flood-opacity="0" result="BackgroundImageFix"/>
<feColorMatrix in="SourceAlpha" type="matrix" values="0 0 0 0 0 0 0 0 0 0 0 0 0 0 0 0 0 0 127 0" result="hardAlpha"/>
<feOffset dy="2.47033"/>
<feGaussianBlur stdDeviation="2.47033"/>
<feColorMatrix type="matrix" values="0 0 0 0 0 0 0 0 0 0 0 0 0 0 0 0 0 0 0.15 0"/>
<feBlend mode="normal" in2="BackgroundImageFix" result="effect1_dropShadow"/>
<feBlend mode="normal" in="SourceGraphic" in2="effect1_dropShadow" result="shape"/>
</filter>
</defs>
</svg>
