<svg width="10" height="16" viewBox="0 0 10 16" fill="none" xmlns="http://www.w3.org/2000/svg">
<path fill-rule="evenodd" clip-rule="evenodd" d="M0.770404 8.03521C0.788623 8.09614 0.832124 8.1463 0.889853 8.17297L5.08566 10.2789C5.22812 10.3417 5.39045 10.3417 5.5329 10.2789L9.72871 8.16306C9.85595 8.09906 9.89481 7.95811 9.82319 7.84459L5.42395 0.843446C5.35385 0.730684 5.23728 0.72916 5.16642 0.843446L0.794615 7.85449C0.761002 7.90847 0.752185 7.97429 0.770404 8.03521ZM0.926473 9.63353C0.812949 9.5703 0.780949 9.60763 0.860188 9.72115L5.19695 15.9162C5.27466 16.0274 5.40495 16.029 5.48495 15.9162L9.86285 9.72572C9.94133 9.61449 9.91238 9.57334 9.79428 9.6381L5.536 11.9832C5.40217 12.0478 5.24621 12.0478 5.11238 11.9832L0.926473 9.63353Z" fill="#737BB1"/>
</svg>
