<svg width="24" height="26" viewBox="0 0 24 26" fill="none" xmlns="http://www.w3.org/2000/svg">
<path d="M12 2.10007C17.514 2.10007 22 6.81053 22 12.6004C22 18.3903 17.514 23.1008 12 23.1008C6.486 23.1008 2 18.3903 2 12.6004C2 6.81053 6.486 2.10007 12 2.10007ZM12 0C5.373 0 0 5.64184 0 12.6004C0 19.559 5.373 25.2009 12 25.2009C18.627 25.2009 24 19.559 24 12.6004C24 5.64184 18.627 0 12 0ZM14 12.6004L9.5 17.3256L11.027 18.9007L17 12.6004L11.027 6.30022L9.5 7.87527L14 12.6004Z" fill="#163150"/>
</svg>
