<svg width="56" height="60" viewBox="0 0 56 60" fill="none" xmlns="http://www.w3.org/2000/svg">
<path fill-rule="evenodd" clip-rule="evenodd" d="M22.4351 56.3462C3.67569 56.3462 4.96893 44.156 6.47028 41.9755C13.7689 31.3365 31.146 31.3511 38.4297 41.9755C39.8716 44.0828 41.4324 56.3462 22.4351 56.3462Z" fill="#1EB8E7"/>
<path fill-rule="evenodd" clip-rule="evenodd" d="M35.4568 39.1513C28.946 46.7903 16.3852 47.244 7.67435 40.5123C14.3784 32.5513 29.1243 31.7318 35.4568 39.1513Z" fill="#0C9FE1"/>
<path fill-rule="evenodd" clip-rule="evenodd" d="M38.4297 41.9756C34.8329 36.7606 28.8456 33.6382 22.4426 33.6382C16.0396 33.6382 10.0523 36.7606 6.45542 41.9756C4.96893 44.1561 3.69055 56.3464 22.4351 56.3464C40.8676 56.3464 41.2838 46.1171 38.4297 41.9756Z" stroke="#163150" stroke-width="2.9484" stroke-linecap="round" stroke-linejoin="round"/>
<path fill-rule="evenodd" clip-rule="evenodd" d="M33.3573 34.2478C38.7404 28.4926 38.3653 19.5308 32.5193 14.2312C26.6734 8.93161 17.5704 9.30095 12.1872 15.0562C6.80403 20.8114 7.1792 29.7731 13.0252 35.0727C18.8711 40.3723 27.9741 40.003 33.3573 34.2478Z" fill="white" stroke="#163150" stroke-width="2.9484" stroke-linecap="round" stroke-linejoin="round"/>
<path fill-rule="evenodd" clip-rule="evenodd" d="M7.10947 12.7073L8.26893 25.3805C8.26893 25.3805 8.84866 13.4683 16.9203 13.2488C18.0203 26.3171 37.1662 24.0341 37.1662 24.0341C37.7757 13.7902 38.6527 10.7463 36.4824 7.49754C32.3649 1.42437 21.8851 0.736565 16.9203 5.62437C10.0973 3.92681 6.38109 8.06827 7.10947 12.7073Z" fill="#FFD166"/>
<path fill-rule="evenodd" clip-rule="evenodd" d="M7.10948 12.7073L8.26894 25.3805C8.26894 25.3805 8.84867 13.4683 16.9203 13.2488C18.0203 26.3171 37.1662 24.0341 37.1662 24.0341C37.7757 13.7902 38.6527 10.7463 36.4825 7.49754C32.3649 1.42437 21.8852 0.736565 16.9203 5.62437C10.0973 3.92681 6.69327 8.12681 7.10948 12.7073Z" stroke="#163150" stroke-width="2.9484" stroke-linecap="round" stroke-linejoin="round"/>
<path fill-rule="evenodd" clip-rule="evenodd" d="M53.6514 46.3658L45.1041 53.6829C44.7894 53.9657 44.3667 54.1021 43.943 54.0573C43.5194 54.0125 43.1357 53.7909 42.8892 53.4488L36.5865 43.9512C36.2578 43.4651 36.2541 42.8331 36.5772 42.3433C36.9002 41.8535 37.4882 41.5997 38.073 41.6975L41.15 42.1658C41.0906 38.7268 38.8014 35.8439 34.1041 37.4536C33.447 37.6592 32.7327 37.3931 32.3785 36.8108C32.0243 36.2285 32.1233 35.4829 32.6176 35.0097C34.4344 33.3644 36.8236 32.4687 39.2919 32.5073C42.177 32.5009 44.9353 33.6741 46.9081 35.7466C48.8809 37.8192 49.891 40.6051 49.6973 43.439L52.8933 43.8049C53.4718 43.8854 53.9487 44.2922 54.1121 44.8444C54.2756 45.3966 54.0953 45.9919 53.6514 46.3658ZM22.3311 47.039L25.5122 47.5658C25.1889 51.6752 27.3989 55.5751 31.1205 57.4629C34.8422 59.3508 39.3507 58.8589 42.5622 56.2146C43.0749 55.7451 43.1853 54.9869 42.8271 54.3946C42.4689 53.8022 41.7394 53.5362 41.0757 53.7561C36.1406 55.3658 34.0892 52.1171 34.0892 48.9561L37.1662 49.4536C37.7462 49.5463 38.3272 49.294 38.6487 48.8098C38.9701 48.3256 38.9717 47.7004 38.6527 47.2146L32.4689 37.6439C32.2391 37.2911 31.8666 37.0522 31.4459 36.9878C31.0252 36.9235 30.5967 37.0398 30.2689 37.3073L21.6027 44.478C21.16 44.848 20.9766 45.4378 21.1332 45.9883C21.2897 46.5389 21.7576 46.9492 22.3311 47.039Z" fill="#E3EDFF"/>
<path fill-rule="evenodd" clip-rule="evenodd" d="M53.1311 42.4147L51.1689 42.122C50.9302 37.7877 48.275 33.9391 44.2704 32.1228C40.2658 30.3065 35.5691 30.8207 32.0676 33.4586L20.6662 43.3513C19.7796 44.0951 19.416 45.2803 19.736 46.383C20.056 47.4857 21.0007 48.3028 22.1527 48.4732L24.1 48.7952C24.2868 53.0014 26.7535 56.785 30.56 58.7041C34.3665 60.6233 38.9267 60.3824 42.5027 58.0732L54.6176 47.4927C55.4757 46.7441 55.82 45.5764 55.5025 44.4918C55.185 43.4072 54.2623 42.5989 53.1311 42.4147ZM35.9919 57.1659C31.1608 57.1659 26.1365 53.4342 27.073 46.3366L24.7838 45.9561L22.5689 45.5903L31.2203 38.4196L37.4041 48.0049L32.7662 47.244C31.9933 51.3854 34.0743 55.644 38.623 55.644C39.6359 55.6363 40.6406 55.4632 41.596 55.1318C40.0569 56.4839 38.0542 57.2108 35.9919 57.1659ZM37.7906 43.1025L44.1081 52.6001L52.6554 45.3122L50.4406 44.9757L48.0919 44.6244C48.9541 37.5708 43.9595 33.9122 39.173 33.9122C37.0867 33.8835 35.0673 34.6368 33.5243 36.0196C34.4773 35.6757 35.4824 35.4927 36.4973 35.4781C41.046 35.4781 43.1568 39.6781 42.4433 43.7903L37.7906 43.1025Z" fill="#163150"/>
</svg>
