<svg width="63" height="49" viewBox="0 0 63 49" fill="none" xmlns="http://www.w3.org/2000/svg">
<path fill-rule="evenodd" clip-rule="evenodd" d="M60.8 34.1688V21.1571C60.7962 19.7558 60.2297 18.4133 59.225 17.4251C58.2203 16.4368 56.8599 15.8837 55.4428 15.8875H49.3714C46.4239 15.903 44.0428 18.2704 44.0428 21.1854V25.4237C44.0586 28.3386 46.4524 30.6934 49.4 30.6934H56.0571C58.2717 30.5921 60.2532 32.0441 60.8 34.1688Z" fill="#0C9FE1" stroke="#163150" stroke-width="2.85714" stroke-linecap="round" stroke-linejoin="round"/>
<path fill-rule="evenodd" clip-rule="evenodd" d="M15.5857 41.2186V13.2456C15.631 12.3084 16.0668 11.4317 16.7896 10.824C17.5124 10.2163 18.4575 9.93197 19.4 10.0386H52.4286C54.1217 10.0385 55.4986 11.3876 55.5143 13.0619L55.6143 34.3383C55.6181 35.1738 55.2833 35.9759 54.6846 36.5653C54.0859 37.1547 53.2733 37.4823 52.4286 37.4747H19.2286C18.2372 37.4739 17.2883 37.8728 16.6008 38.5793C15.9134 39.2858 15.5468 40.2389 15.5857 41.2186Z" fill="#0C9FE1"/>
<path d="M15.5857 41.2186V13.2456C15.631 12.3084 16.0668 11.4317 16.7896 10.824C17.5124 10.2163 18.4575 9.93197 19.4 10.0386H52.4286C54.1217 10.0385 55.4986 11.3876 55.5143 13.0619L55.6143 34.3383C55.6181 35.1738 55.2833 35.9759 54.6846 36.5653C54.0859 37.1547 53.2733 37.4823 52.4286 37.4747H19.2286C18.2372 37.4739 17.2883 37.8728 16.6008 38.5793C15.9134 39.2858 15.5468 40.2389 15.5857 41.2186V41.2186" stroke="#163150" stroke-width="2.85714" stroke-linecap="round" stroke-linejoin="round"/>
<path fill-rule="evenodd" clip-rule="evenodd" d="M44.7444 30.2081C50.1766 25.7099 50.893 17.7084 46.3445 12.3363C41.796 6.96415 33.7051 6.25566 28.2729 10.7539C22.8407 15.252 22.1243 23.2535 26.6727 28.6257C31.2212 33.9978 39.3122 34.7063 44.7444 30.2081Z" fill="#FFD166" stroke="#163150" stroke-width="2.85714" stroke-linecap="round" stroke-linejoin="round"/>
<path fill-rule="evenodd" clip-rule="evenodd" d="M55.5286 20.4366L55.4429 41.6989C55.4279 43.3461 54.0938 44.6842 52.4286 44.7223L20.3429 44.5951H18.5429C16.8498 44.5796 15.4856 43.2179 15.4857 41.5435L15.5714 13.5706C15.5406 14.5505 15.9117 15.5011 16.6005 16.2063C17.2893 16.9114 18.2372 17.3111 19.2286 17.3144H19.9857L52.4286 17.3709C53.2531 17.3633 54.0461 17.6839 54.6291 18.2604C55.2122 18.837 55.5363 19.6213 55.5286 20.4366Z" fill="#1EB8E7"/>
<path d="M15.5857 13.5564L15.4857 40.936C15.4082 41.9745 15.7999 42.9936 16.5555 43.719C17.311 44.4443 18.3526 44.8014 19.4 44.694H52.4286C54.124 44.6863 55.4987 43.3331 55.5143 41.6565L55.6143 20.3801C55.5908 18.6613 54.1667 17.2845 52.4286 17.3003H19.2286C18.2371 17.301 17.2882 16.9021 16.6008 16.1956C15.9134 15.4891 15.5468 14.5361 15.5857 13.5564V13.5564" stroke="#163150" stroke-width="2.85714" stroke-linecap="round" stroke-linejoin="round"/>
<path fill-rule="evenodd" clip-rule="evenodd" d="M60.8 22.019V34.9742C60.7843 37.8891 58.3904 40.2439 55.4429 40.2439H46.7143C43.7723 40.2284 41.3935 37.8695 41.3857 34.9601V30.7217C41.3895 29.3204 41.956 27.9779 42.9607 26.9897C43.9654 26.0014 45.3258 25.4483 46.7429 25.4521H56C58.2246 25.5912 60.2369 24.1519 60.8 22.019Z" fill="#1EB8E7"/>
<path fill-rule="evenodd" clip-rule="evenodd" d="M55.5286 31.0465C60.5571 33.9851 56.0857 41.5152 51.0286 38.5625L47.1286 36.9378L51 28.6589L55.5286 31.0465Z" fill="#0C9FE1"/>
<path fill-rule="evenodd" clip-rule="evenodd" d="M49.2571 35.9773C50.9534 35.9773 52.3286 34.6174 52.3286 32.9398C52.3286 31.2623 50.9534 29.9023 49.2571 29.9023C47.5608 29.9023 46.1857 31.2623 46.1857 32.9398C46.1857 34.6174 47.5608 35.9773 49.2571 35.9773Z" fill="#B3C1D6" stroke="#163150" stroke-width="2.85714" stroke-linecap="round" stroke-linejoin="round"/>
<path fill-rule="evenodd" clip-rule="evenodd" d="M60.8 22.019V34.9742C60.7843 37.8891 58.3904 40.2439 55.4429 40.2439H46.7143C43.7723 40.2284 41.3935 37.8695 41.3857 34.9601V30.7217C41.3895 29.3204 41.956 27.9779 42.9607 26.9897C43.9654 26.0014 45.3258 25.4483 46.7429 25.4521H56C58.2246 25.5912 60.2369 24.1519 60.8 22.019Z" stroke="#163150" stroke-width="2.85714" stroke-linecap="round" stroke-linejoin="round"/>
<path fill-rule="evenodd" clip-rule="evenodd" d="M9.04285 26.5822L1.52856 24.3359L18.7571 17.3992L29.0857 32.4594L20.8571 29.9729C19.4286 36.3021 24.5 45.4428 38.9286 45.0189C26.2571 51.7155 7.07142 44.5386 9.04285 26.5822Z" fill="#E3EDFF" stroke="#163150" stroke-width="2.85714" stroke-linecap="round" stroke-linejoin="round"/>
</svg>
