<svg width="338" height="342" viewBox="0 0 338 342" fill="none" xmlns="http://www.w3.org/2000/svg">
<path opacity="0.1" d="M243.588 301.157C246.6 321.377 232.833 324.388 223.368 325.249C221.217 319.513 216.141 300.899 213.043 272.333C249.611 269.752 238.856 292.553 243.588 301.157Z" fill="black"/>
<path d="M211.981 295.577C200.652 290.323 202.75 278.816 194.736 276.36C203.969 273.905 222.912 269.098 232.143 278.816C242.811 290.045 228.743 303.35 211.981 295.577Z" fill="#FF8C25"/>
<path d="M213.196 281.001C218.216 281.973 229.131 285.957 232.629 294.119C233.868 297.504 234.658 300.993 234.898 302.314M194.736 276.36C202.75 278.816 200.652 290.323 211.981 295.577C228.743 303.35 242.811 290.045 232.143 278.816C222.912 269.098 203.969 273.905 194.736 276.36Z" stroke="black" stroke-width="2" stroke-linecap="round" stroke-linejoin="round"/>
<path d="M227.991 322.712C215.468 328.681 201.197 318.278 194.015 323.441C195.265 313.557 198.135 293.451 215.566 292.637C223.87 292.249 230.588 295.791 234.318 300.708C239.636 307.718 238.88 317.521 227.991 322.712Z" fill="#FFC835"/>
<path d="M210.897 309.474C227.991 297.866 245.471 299.988 249.465 301.985M194.015 323.441C201.197 318.278 215.468 328.681 227.991 322.712C246.518 313.88 235.709 291.696 215.566 292.637C198.135 293.451 195.265 313.557 194.015 323.441Z" stroke="black" stroke-width="2" stroke-linecap="round" stroke-linejoin="round"/>
<path d="M293.79 195.608C303.186 192.037 312.877 200.392 318.368 197.088C316.882 204.151 313.621 218.501 300.986 218.059C294.967 217.849 290.325 214.894 287.922 211.123C284.496 205.747 285.621 198.713 293.79 195.608Z" fill="#FFC835"/>
<path d="M305.352 206.177C297.928 210.378 290.677 211.352 285.3 211.103M318.368 197.088C312.877 200.392 303.186 192.037 293.79 195.608C279.89 200.891 286.385 217.549 300.986 218.059C313.621 218.501 316.882 204.151 318.368 197.088Z" stroke="black" stroke-width="2" stroke-linecap="round" stroke-linejoin="round"/>
<path d="M93.5823 304.189C73.8022 312.977 51.9764 296.157 40.5598 303.908C42.9215 288.545 48.2379 257.305 75.4576 256.763C88.4261 256.504 98.756 262.31 104.368 270.134C112.37 281.289 110.783 296.548 93.5823 304.189Z" fill="white"/>
<path d="M67.474 282.829C83.6457 272.468 99.8283 269.713 111.569 269.872M40.5598 303.908C51.9764 296.157 73.8022 312.977 93.5823 304.189C122.848 291.188 106.915 256.136 75.4576 256.763C48.2379 257.305 42.9215 288.545 40.5598 303.908Z" stroke="#FFC692" stroke-width="2" stroke-linecap="round" stroke-linejoin="round"/>
<path opacity="0.3" d="M42.3492 239.96C33.0077 241.886 7.93314 246.22 2.5249 240.923L287.686 121.51C302.272 120.707 332.526 120.643 336.852 126.806C341.179 132.97 323.577 142.536 314.236 146.548C314.892 147.832 315.514 154.926 312.761 173.031C309.319 195.662 280.803 226.478 262.12 252.479C237.537 288.111 223.771 284.258 217.871 283.777C211.971 283.295 183.947 273.184 176.572 268.85C169.197 264.517 118.064 252.961 106.756 250.553C95.4482 248.146 80.2068 230.811 73.8153 230.811C67.4237 230.811 51.6907 238.034 42.3492 239.96Z" fill="#A77547"/>
<path d="M141.993 254.206C83.4939 235.402 71.6183 235.751 72.0581 218.341C64.4597 223.406 33.2259 236.82 5.79806 239.475C2.26706 239.817 0.0524504 236.83 2.05646 234.503C33.4583 198.043 89.8456 188.755 116.042 160.888C130.117 145.915 160.466 150.441 184.217 115.273L280.542 113.532L285.38 117.71C291.029 119.062 306.258 121.234 325.563 120.269C328.389 120.128 330.174 122.476 328.373 124.207C324.586 127.847 318.569 132.783 310.451 137.558C312.65 141.62 315.024 157.394 315.024 162.13C315.024 168.049 296.024 197.13 277.903 224.261C266.069 241.978 247.046 264.185 234.844 276.041C231.928 278.874 227.115 279.93 222.757 278.722C208.56 274.784 180.51 266.587 141.993 254.206Z" fill="#9AA98F"/>
<path d="M72.0581 218.029C71.6183 235.44 83.4939 235.091 141.993 253.894C180.51 266.275 208.56 274.473 222.757 278.41C227.115 279.619 231.928 278.563 234.844 275.729C247.046 263.874 267.19 242.366 277.903 223.949C293.091 197.839 326.676 167.219 310.451 137.246C318.569 132.472 324.586 127.536 328.373 123.895C330.174 122.164 328.389 119.816 325.563 119.957C306.258 120.923 291.029 118.751 285.38 117.399L280.542 113.22L184.217 114.961C160.466 150.13 130.117 145.603 116.042 160.576C89.8456 188.444 33.4583 197.732 2.05646 234.191C0.0524504 236.518 2.26706 239.506 5.79806 239.164C33.2259 236.509 64.4597 223.095 72.0581 218.029ZM72.0581 218.029C72.0581 214.281 76.4136 209.256 81.8186 206.974M15.3502 227.119C31.9711 223.412 81.5997 184.679 93.7728 202.471C103.511 216.704 108.901 225.389 112.266 226.007M201.926 236.941C183.672 233.892 144.404 224.164 136.228 208.277M141.993 240.833C172.195 244.539 227.676 244.52 246.638 239.618M140.592 193.76C135.442 198.949 140.124 203.137 151.361 206.974" stroke="#708661" stroke-width="2" stroke-linecap="round" stroke-linejoin="round"/>
<path d="M138.154 206.25C135.013 210.175 133.756 214.704 126.847 213.194L124.962 208.061L150.717 163.681L247.452 113.867C268.542 113.185 307.747 120.66 325.525 120.13C328.359 120.045 330.189 124.054 328.096 125.893C320.857 132.252 314.864 137.517 310.495 139.25C308.296 143.276 305.179 147.076 298.646 148.284C298.646 149.894 297.766 154.322 294.249 159.153C282.188 175.093 233.318 170.021 210.391 165.493C201.911 168.613 181.496 175.275 167.677 176.965C158.882 185.419 140.666 203.11 138.154 206.25Z" fill="#708661"/>
<path d="M118.069 208.291C116.607 206.724 113.368 202.755 111.801 198.994C110.025 198.367 106.16 197.74 105.428 200.561C104.488 204.008 110.339 208.083 118.069 208.291Z" fill="#FF8C25"/>
<path d="M120.785 192.516C119.845 186.248 115.979 179.562 110.338 180.711C103.025 182.174 110.338 197.635 113.89 203.59C117.442 209.545 123.815 214.559 127.367 212.992C130.918 211.425 127.993 205.888 126.74 204.217C125.486 202.545 121.725 198.784 120.785 192.516Z" fill="#FFC835"/>
<path d="M134.889 170.787C133.113 174.026 130.71 177.682 123.397 198.785C124.755 201.396 128.62 204.844 129.247 208.396C138.336 196.068 148.156 184.368 158.603 173.19C172.184 171.727 185.034 169.116 186.078 161.385C185.242 160.654 182.422 158.982 179.079 156.788C177.198 157.206 172.497 158.46 168.319 159.818L166.438 158.564C162.991 159.4 151.395 162.325 145.649 163.683C138.44 165.25 136.665 167.444 134.889 170.787Z" fill="#FFC835"/>
<path d="M158.394 156.161L154.006 161.176L166.438 158.459L162.155 155.116L158.394 156.161Z" fill="#FF8C25"/>
<path d="M123.501 198.576C130.814 177.577 133.322 173.921 134.993 170.578C136.769 167.34 138.545 165.041 145.753 163.474C151.499 162.116 162.677 159.504 166.125 158.669M153.275 161.698L157.976 156.266" stroke="black" stroke-width="2" stroke-linecap="round" stroke-linejoin="round"/>
<path d="M125.173 201.501C129.561 194.293 139.381 178.727 143.873 174.653C161.424 172.25 184.511 172.25 185.974 161.698" stroke="black" stroke-width="2" stroke-linecap="round" stroke-linejoin="round"/>
<path d="M121.412 192.726C120.472 186.458 116.606 179.772 110.965 180.921C103.652 182.383 110.965 197.845 114.517 203.799C118.069 209.754 124.442 214.769 127.994 213.202C131.546 211.635 128.62 206.098 127.367 204.426C126.113 202.65 122.352 198.889 121.412 192.726Z" stroke="black" stroke-width="2" stroke-linecap="round" stroke-linejoin="round"/>
<path d="M129.247 208.186C136.978 197.739 152.126 180.397 158.707 172.98" stroke="black" stroke-width="2" stroke-linecap="round" stroke-linejoin="round"/>
<path opacity="0.3" d="M140.53 172.772C139.798 173.817 136.351 178.936 124.128 199.934C124.337 200.247 124.859 200.978 125.173 201.187C125.904 199.934 136.769 182.801 144.081 174.548C149.2 173.503 160.483 172.354 169.259 171.832C180.228 171.205 184.302 166.19 185.66 163.161C186.809 160.758 181.063 157.937 178.138 156.788L168.214 159.818L165.915 158.251L162.468 159.295C164.035 159.818 167.169 161.594 167.169 164.519C167.169 168.175 160.588 169.324 151.185 169.742C141.783 170.16 141.261 171.727 140.53 172.772Z" fill="#FF0000"/>
<path opacity="0.3" d="M143.873 174.443C149.723 181.025 140.007 192.516 127.471 204.426C127.994 204.739 128.934 206.202 128.516 209.127C137.291 197.217 147.843 184.472 159.439 172.458C158.185 172.563 151.186 173.294 143.873 174.443Z" fill="#FF0000"/>
<path d="M111.592 198.888C109.816 198.261 105.951 197.634 105.219 200.455C104.279 203.903 109.816 207.977 117.547 208.186" stroke="black" stroke-width="2" stroke-linecap="round" stroke-linejoin="round"/>
<path d="M112.175 11.2766C82.69 18.4022 77.5301 28.8447 79.7415 31.1789C89.6425 46.7417 109.014 91.5925 107.291 146.494L273.386 147.081C285.141 147.122 295.197 138.444 295.654 126.698C297.059 90.5771 290.801 50.9832 284.111 25.7571C280.912 13.6944 270.573 5.30471 258.186 3.79322C199.112 -3.41468 138.693 4.86801 112.175 11.2766Z" fill="#0E9FFF"/>
<path d="M289.584 51.0728C294.733 52.4832 294.31 60.5243 291.808 66.1477L289.584 51.0728Z" fill="#0E9FFF"/>
<path d="M112.175 11.2766C82.69 18.4022 77.5301 28.8447 79.7415 31.1789C89.6425 46.7417 109.014 91.5925 107.291 146.494L273.386 147.081C285.141 147.122 295.197 138.444 295.654 126.698C297.059 90.5771 290.801 50.9832 284.111 25.7571C280.912 13.6944 270.573 5.30471 258.186 3.79322C199.112 -3.41468 138.693 4.86801 112.175 11.2766Z" stroke="black" stroke-width="2" stroke-linecap="round" stroke-linejoin="round"/>
<path d="M93.5368 80.7164C87.2482 89.7001 84.8098 101.763 87.7616 113.827C97.6435 113.828 100.21 98.8119 93.5368 80.7164Z" fill="#35D2FF"/>
<path d="M274.147 31.485C279.898 51.0458 287.41 85.6571 284.065 142.235C283.764 147.335 279.384 151.196 274.294 150.762C233.014 147.245 154.969 135.439 114.892 142.419C113.612 111.081 100.85 49.5294 94.6136 22.601C94.6038 22.5797 94.5987 22.5574 94.5982 22.5343C94.5783 21.5924 102.263 19.2045 113.291 17.3489C147.169 11.6487 199.845 5.19973 251.224 11.7169C262.014 13.0855 271.078 21.0507 274.147 31.485Z" fill="#0E9FFF"/>
<path d="M244.846 14.4908C201.396 9.11528 144.687 15.4886 109.634 21.354C99.3494 23.0749 94.9058 23.2351 94.6136 22.601M94.5982 22.5343C94.5783 21.5924 102.263 19.2045 113.291 17.3489C147.169 11.6487 199.845 5.19973 251.224 11.7169C262.014 13.0855 271.078 21.0507 274.147 31.485C279.898 51.0458 287.41 85.6571 284.065 142.235C283.764 147.335 279.384 151.196 274.294 150.762C233.014 147.245 154.969 135.439 114.892 142.419C113.612 111.081 100.85 49.5294 94.6136 22.601M94.5982 22.5343C94.5987 22.5574 94.6038 22.5797 94.6136 22.601M94.5982 22.5343C94.6033 22.5565 94.6085 22.5787 94.6136 22.601" stroke="black" stroke-width="2" stroke-linecap="round" stroke-linejoin="round"/>
<path d="M136.704 163.325C90.5734 169.545 92.6468 159.438 92.9059 151.663C94.2309 111.91 92.4267 68.522 79.5054 30.6662C82.5558 34.3197 111.03 25.324 166.249 21.0451C204.012 18.1188 231.013 20.5699 247.44 23.8034C258.175 25.9166 265.659 34.6286 267.726 45.3729C270.511 59.8533 273.609 80.7397 274.838 104.236C275.989 126.24 274.306 143.85 272.137 155.897C270.354 165.799 261.961 172.586 251.908 172.989C236.657 173.601 215.763 172.795 197.348 167.472C164.176 157.883 182.835 157.105 136.704 163.325Z" fill="#35D2FF"/>
<path d="M136.704 163.325C90.5734 169.545 92.6468 159.438 92.9059 151.663C94.2309 111.91 92.4267 68.522 79.5054 30.6662C82.5558 34.3197 111.03 25.324 166.249 21.0451C204.012 18.1188 231.013 20.5699 247.44 23.8034C258.175 25.9166 265.659 34.6286 267.726 45.3729C270.511 59.8533 273.609 80.7397 274.838 104.236C275.989 126.24 274.306 143.85 272.137 155.897C270.354 165.799 261.961 172.586 251.908 172.989C236.657 173.601 215.763 172.795 197.348 167.472C164.176 157.883 182.835 157.106 136.704 163.325Z" stroke="black" stroke-width="2" stroke-linecap="round" stroke-linejoin="round"/>
<path d="M137.489 74.044C143.356 68.358 150.614 69.8695 153.509 71.3361M171.109 71.3361C179.051 67.9067 184.873 70.4339 186.79 72.1262M136.925 92.4333C139.903 97.0363 150.426 102.549 155.314 104.73M133.653 92.9973C134.704 90.0585 137.831 88.4753 138.843 88.1461" stroke="black" stroke-width="2" stroke-linecap="round" stroke-linejoin="round"/>
<path d="M151.038 70.515C144.878 70.1964 142.754 70.0899 139.462 72.6391C133.47 57.7129 150.549 55.5659 151.038 70.515Z" fill="black"/>
<path d="M144.025 62.8526C142.726 62.299 140.976 63.8266 140.706 66.3901" stroke="white" stroke-width="2" stroke-linecap="round" stroke-linejoin="round"/>
<path d="M184.405 69.9589C177.671 68.6979 175.348 68.2669 171.347 70.5867C166.956 53.2692 186.075 53.4291 184.405 69.9589Z" fill="black"/>
<path d="M177.406 60.5748C175.692 60.1845 173.719 62.1612 173.758 65.029" stroke="white" stroke-width="2" stroke-linecap="round" stroke-linejoin="round"/>
<path d="M239.768 70.5073C226.477 72.9444 216.378 78.6018 217.211 83.1434L235.463 124.352C236.808 131.688 266.518 126.24 265.173 118.904L265.34 74.3178C264.507 69.7762 253.058 68.0701 239.768 70.5073Z" fill="#FF8C25"/>
<path d="M242.528 82.4011C232.601 82.4011 224.553 84.6718 224.553 87.4728C224.553 87.7363 224.624 87.995 224.761 88.2476L238.776 119.624C240.178 123.205 260.503 120.691 260.503 115.836V87.4728C260.503 84.6718 252.456 82.4011 242.528 82.4011Z" fill="white"/>
<path d="M260.503 87.4728C260.503 90.2739 252.456 92.5445 242.528 92.5445C233.534 92.5445 226.083 90.6809 224.761 88.2476M260.503 87.4728C260.503 84.6718 252.456 82.4011 242.528 82.4011C232.601 82.4011 224.553 84.6718 224.553 87.4728C224.553 87.7363 224.624 87.995 224.761 88.2476M260.503 87.4728V115.836M224.761 88.2476L238.776 119.624" stroke="black" stroke-width="2" stroke-linecap="round" stroke-linejoin="round"/>
<path d="M236.945 128.137L217.713 84.0583C229.46 93.3104 262.48 84.0583 265.222 76.1576V117.637L236.945 128.137Z" fill="#FFC835"/>
<path opacity="0.2" d="M247.869 106.942C249.853 102.777 253.641 92.5123 252.927 84.7769C255.853 83.6858 262.418 80.2839 265.274 75.4045V97.7189L247.869 106.942Z" fill="black"/>
<path d="M217.411 83.7952L235.463 124.351C236.808 131.687 266.518 126.239 265.173 118.903L265.378 75.0944M265.34 74.3173C266.173 78.8589 256.074 84.5163 242.784 86.9534C229.493 89.3905 218.044 87.6845 217.211 83.1429C216.378 78.6013 226.477 72.9439 239.768 70.5067C243.212 69.8751 246.533 69.5217 249.578 69.424C258.361 68.7772 265.318 70.1894 265.34 74.3173Z" stroke="black" stroke-width="2" stroke-linecap="round" stroke-linejoin="round"/>
<path d="M217.838 106.881C217.108 101.876 219.53 100.73 226.203 95.204C227.836 95.5167 231.028 95.9279 236.918 95.204C222.426 103.649 223.455 105.849 225.658 109.488C228.056 113.45 235.771 123.146 235.771 123.146L228.056 121.582C228.056 121.582 218.422 110.885 217.838 106.881Z" fill="#FFC835"/>
<path d="M226.35 109.676C228.748 113.638 236.464 123.335 236.464 123.335L235.942 121.041L235.421 118.747C233.996 116.349 228.819 108.772 229.26 106.457C229.643 104.447 235.247 102.517 238.757 101.335L237.611 95.3925C223.118 103.838 224.148 106.038 226.35 109.676Z" fill="#FF8C25"/>
<path d="M236.463 123.335L228.748 121.771C228.748 121.771 219.114 111.073 218.53 107.07C217.801 102.065 220.222 100.918 226.895 95.3925C228.528 95.7052 231.721 96.1164 237.61 95.3925M236.463 123.335C236.463 123.335 228.748 113.638 226.35 109.676C224.148 106.038 223.118 103.838 237.61 95.3925M236.463 123.335L235.942 121.041L235.421 118.747C233.996 116.349 228.819 108.772 229.26 106.457C229.643 104.447 235.247 102.517 238.757 101.335L237.61 95.3925" stroke="black" stroke-width="2" stroke-linecap="round" stroke-linejoin="round"/>
<path opacity="0.4" d="M234.375 34.5007C241.027 63.3076 211.18 60.0695 232.72 84.7069L249.337 83.6828C246.377 79.4978 246.887 73.6526 251.726 67.2495C260.435 55.7281 250.065 39.9137 234.375 34.5007Z" fill="white"/>
<path opacity="0.2" d="M284.433 140.075C293.881 131.781 295.979 121.621 295.847 117.579L292.589 92.8483C270.092 95.8479 223.036 111.473 236.519 142.17C246.469 164.822 266.207 147.656 274.509 140.075L274.12 144.455C275.562 143.938 279.643 141.395 284.433 135.362C284.433 136.989 284.433 140.208 284.433 140.075Z" fill="#0501A3"/>
<path d="M243.014 102.796C250.602 99.3082 259.671 94.7198 269.515 88.9672C288.937 77.6163 294.329 64.4004 293.755 56.8857C293.617 56.0881 293.485 55.3314 293.36 54.6217C293.557 55.3006 293.692 56.0586 293.755 56.8857C296.06 70.1631 300.097 94.784 300.502 102.759C300.952 111.602 288.484 129.725 256.488 144.851C245.32 150.131 232.571 143.414 229.072 131.567C225.681 120.088 232.139 107.794 243.014 102.796Z" fill="#0DBAEC"/>
<path d="M266.197 96.4115C263.413 97.3183 260.137 99.078 260.103 100.671C260.073 102.039 261.911 102.297 264.693 101.24C273.133 98.0345 280.755 91.7013 287.115 85.0204C290.1 81.8853 288.422 80.2251 285.247 83.242C276.906 91.1673 268.981 95.5048 266.197 96.4115Z" fill="white"/>
<path d="M290.471 50.9941C291.762 51.4244 292.805 52.7088 293.36 54.6217M293.36 54.6217C293.557 55.3006 293.692 56.0586 293.755 56.8857M293.36 54.6217C293.485 55.3314 293.617 56.0881 293.755 56.8857M293.755 56.8857C294.329 64.4004 288.937 77.6163 269.515 88.9672C259.671 94.7198 250.602 99.3082 243.014 102.796C232.139 107.794 225.681 120.088 229.072 131.567C232.571 143.414 245.32 150.131 256.488 144.851C288.484 129.725 300.952 111.602 300.502 102.759C300.097 94.784 296.06 70.1631 293.755 56.8857Z" stroke="black" stroke-width="2" stroke-linecap="round" stroke-linejoin="round"/>
<path opacity="0.2" d="M254.467 138.631C240.778 144.011 234.349 120.062 248.039 114.681C261.729 109.301 268.157 133.251 254.467 138.631Z" fill="#0501A3"/>
<path d="M255.504 134.62C243.355 139.564 237.433 117.154 249.582 112.211C261.731 107.267 267.653 129.677 255.504 134.62Z" fill="#FFC835"/>
<path d="M255.504 134.62C243.355 139.564 237.433 117.154 249.582 112.211C261.731 107.267 267.653 129.677 255.504 134.62Z" stroke="black" stroke-width="2" stroke-linecap="round" stroke-linejoin="round"/>
<path opacity="0.2" d="M105.475 91.8499L107.155 100.88L117.422 163.191C143.93 162.664 203.219 161.926 228.308 163.191C226.367 131.403 220.779 98.4721 218.228 85.98C207.712 86.0552 178.466 90.6307 145.61 108.33C133.812 98.5775 113.937 93.2797 105.475 91.8499Z" fill="#0501A3"/>
<path d="M95.9492 94.5761L101.694 108.328L136.857 117.902L206.312 101.887L203.353 90.2241L194.649 91.4426C194.649 90.4562 194.371 88.1353 193.257 86.7427C166.519 90.7812 143.007 102.816 134.594 108.328C129.311 104.919 116.304 95.9027 95.9492 94.5761Z" fill="#E1DDDD"/>
<path d="M109.324 156.221C104.659 131.681 92.3386 108.983 86.7612 100.701C89.6064 100.701 93.9949 100.939 99.2845 101.581C109.234 102.789 122.372 105.424 134.422 110.588C145.734 106.212 175.165 96.9312 204.129 94.0486C204.809 93.981 205.488 93.9169 206.166 93.8564C218.335 123.264 225.603 153.601 227.715 165.094C197.539 160.423 159.883 168 146.084 170.671C141.774 166.615 128.388 158.046 109.324 156.221Z" fill="#006077"/>
<path d="M146.084 170.671C141.774 166.615 128.388 158.046 109.324 156.221C104.659 131.681 92.3386 108.983 86.7612 100.701C89.6064 100.701 93.9949 100.94 99.2845 101.581M146.084 170.671C145.678 150.796 138.14 122.335 134.422 110.589M146.084 170.671C159.883 168 197.539 160.423 227.715 165.094C225.603 153.601 218.335 123.264 206.166 93.8566C205.488 93.917 204.808 93.9811 204.129 94.0487M134.422 110.589C122.372 105.424 109.234 102.789 99.2845 101.581M134.422 110.589C145.734 106.212 175.165 96.9313 204.129 94.0487M99.2845 101.581L95.8404 94.7828C115.461 96.1763 130.038 105.162 134.954 108.365M134.954 108.365C143.984 102.169 165.22 91.1678 193.785 86.7964L194.797 91.1678M134.954 108.365C156.698 98.4577 181.686 91.5308 203.255 90.4787L204.129 94.0487" stroke="black" stroke-width="2" stroke-linecap="round" stroke-linejoin="round"/>
<path opacity="0.14" d="M105.977 125.114C124.419 125.84 118.406 147.439 103.53 135.525L102.162 123.876C103.18 124.583 104.434 125.053 105.977 125.114Z" fill="black"/>
<path d="M93.1339 111.306C93.1339 111.306 93.8705 121.072 101.289 121.364C119.731 122.089 113.718 143.689 98.8426 131.775C93.1982 127.254 89.0577 121.102 87.1465 113.559L93.1339 111.306Z" fill="#35D2FF"/>
<path d="M90.8999 84.6821C81.9098 102.663 87.833 122.957 98.8427 131.775C113.718 143.689 119.731 122.089 101.289 121.364C93.8705 121.072 92.1813 109.69 92.1813 109.69" stroke="black" stroke-width="2" stroke-linecap="round" stroke-linejoin="round"/>
<path d="M74.4251 225.409C53.879 224.455 45.3831 252.196 53.8791 264.94C63.2417 265.807 72.6749 261.714 78.7595 261.299C86.3883 260.779 98.9588 272.916 104.854 263.38C107.455 238.586 93.9308 226.882 85.6084 225.409C82.9621 224.94 82.5741 225.148 74.4251 225.409Z" fill="#FFC835"/>
<path d="M63.6844 259.258L67.3333 263.446M63.5049 252.02L70.6825 259.916M73.5543 251.961L77.0836 235.989M63.5049 251.961L77.4425 235.211L83.4244 259.019L73.4946 251.961H63.5049Z" stroke="#FF9900" stroke-width="3" stroke-linecap="round" stroke-linejoin="round"/>
<path d="M53.8481 264.775C44.1084 249.163 56.8558 220.947 78.0537 225.96C96.5227 230.328 98.3446 255.131 96.1007 266.494" stroke="black" stroke-width="2" stroke-linecap="round" stroke-linejoin="round"/>
<path d="M104.806 263.296C107.299 239.479 94.6123 225.199 83.0869 225.198L72.7202 225.356L72.7313 225.376C74.4355 225.34 76.2127 225.525 78.0536 225.96C96.5225 230.328 98.3445 255.132 96.1005 266.494C96.0039 266.478 95.9083 266.461 95.8134 266.444L95.8454 266.501" stroke="black" stroke-width="2" stroke-linecap="round" stroke-linejoin="round"/>
<path d="M180.33 294.336H174.77V299.897H180.33V294.336Z" fill="#EFEFEF"/>
<path d="M155.214 125.244C154.796 125.356 154.464 125.318 154.22 125.128C153.974 124.932 153.788 124.599 153.661 124.129C153.535 123.659 153.395 122.537 153.242 120.762L153.088 120.804C152.834 121.424 152.674 122.127 152.609 122.911C152.543 123.694 152.559 124.381 152.655 124.969C152.419 125.35 152.095 125.596 151.683 125.707C151.516 125.752 151.352 125.734 151.192 125.653C151.037 125.563 150.859 125.387 150.657 125.124C150.257 124.589 149.78 123.495 149.225 121.843L149.071 121.884C149.128 123.353 149.232 124.371 149.385 124.938C149.537 125.504 149.751 125.916 150.028 126.173C149.719 126.567 149.356 126.82 148.937 126.932C148.519 127.045 148.187 127.006 147.943 126.817C147.697 126.62 147.51 126.284 147.382 125.808C147.252 125.325 147.089 123.909 146.891 121.559L146.102 120.664C146.703 119.998 147.303 119.585 147.901 119.424C148.165 119.353 148.395 119.322 148.591 119.331C148.792 119.333 148.996 119.388 149.205 119.497C149.421 119.605 149.62 119.783 149.804 120.03C150.223 120.587 150.649 121.45 151.08 122.618L151.196 122.586C151.266 121.511 151.502 120.54 151.903 119.673C152.123 119.206 152.426 118.804 152.811 118.465C153.203 118.125 153.659 117.885 154.181 117.745C154.677 117.612 155.005 117.844 155.166 118.443C155.22 118.643 155.294 119.42 155.389 120.775C155.489 122.122 155.572 122.918 155.638 123.162C155.806 123.787 156.028 124.228 156.304 124.485C155.996 124.878 155.633 125.131 155.214 125.244ZM160.932 122.163L160.822 122.141C160.773 122.651 160.62 123.082 160.362 123.435C160.11 123.779 159.784 124.004 159.385 124.112C158.837 124.259 158.344 124.171 157.905 123.847C157.466 123.523 157.154 123.017 156.968 122.328C156.681 121.259 156.798 120.269 157.318 119.355C157.845 118.44 158.643 117.839 159.712 117.552C159.989 117.477 160.25 117.434 160.496 117.424C160.583 117.594 160.648 117.745 160.69 117.879C160.957 117.586 161.261 117.394 161.602 117.302C162.072 117.176 162.375 117.367 162.512 117.875C162.561 118.056 162.604 118.627 162.642 119.59C162.687 120.552 162.768 121.251 162.886 121.689C163.003 122.127 163.184 122.403 163.429 122.516C163.153 122.929 162.819 123.188 162.427 123.294C162.04 123.397 161.726 123.358 161.483 123.174C161.247 122.989 161.063 122.652 160.932 122.163ZM158.657 121.367C158.741 121.682 158.872 121.909 159.047 122.049C159.227 122.18 159.44 122.212 159.684 122.146C159.929 122.081 160.146 121.926 160.336 121.681C160.526 121.437 160.659 121.135 160.735 120.777C160.618 120.111 160.536 119.308 160.49 118.367C159.84 118.542 159.33 118.931 158.961 119.535C158.592 120.138 158.49 120.749 158.657 121.367ZM166.637 117.066C166.418 117.201 166.255 117.355 166.15 117.528C166.043 117.695 165.968 117.916 165.924 118.19C167.055 118.058 167.884 118.084 168.409 118.267C168.935 118.45 169.273 118.822 169.424 119.382C169.519 119.736 169.502 120.072 169.374 120.389C169.244 120.7 169.045 120.964 168.779 121.181C168.254 121.591 167.705 121.874 167.133 122.028C165.504 122.466 164.595 122.334 164.406 121.632C164.311 121.278 164.373 120.882 164.594 120.443C164.815 120.625 165.109 120.753 165.474 120.827C165.845 120.9 166.186 120.895 166.495 120.812C167.029 120.668 167.288 120.346 167.271 119.847C166.261 119.994 165.494 119.966 164.97 119.762C164.445 119.558 164.104 119.163 163.947 118.577C163.822 118.113 163.869 117.683 164.086 117.286C164.311 116.888 164.631 116.567 165.049 116.323C165.472 116.071 165.966 115.869 166.533 115.717C167.106 115.563 167.605 115.546 168.031 115.666C168.461 115.778 168.718 115.989 168.801 116.298C168.884 116.607 168.839 116.874 168.665 117.1C168.498 117.325 168.285 117.472 168.028 117.541C167.777 117.609 167.527 117.603 167.278 117.525C167.036 117.446 166.822 117.293 166.637 117.066ZM170.153 117.218C170.059 117.05 169.992 116.889 169.95 116.734C169.865 116.419 169.894 116.155 170.038 115.944C170.181 115.733 170.401 115.588 170.697 115.508C170.607 115.173 170.422 114.833 170.143 114.487C170.396 114.17 170.636 113.919 170.862 113.734C171.093 113.541 171.354 113.405 171.643 113.327C171.933 113.249 172.147 113.251 172.286 113.331C172.43 113.402 172.531 113.548 172.59 113.767C172.649 113.986 172.695 114.339 172.73 114.827C172.977 114.719 173.223 114.594 173.468 114.452C173.549 114.575 173.619 114.743 173.676 114.955C173.733 115.168 173.703 115.39 173.586 115.622C173.473 115.845 173.259 115.999 172.944 116.084L172.799 116.123C172.85 117.235 172.951 118.074 173.103 118.64C173.256 119.207 173.462 119.576 173.722 119.748C173.447 120.16 173.106 120.421 172.7 120.53C172.295 120.639 171.97 120.599 171.726 120.409C171.486 120.211 171.298 119.858 171.161 119.349C171.078 119.04 170.972 118.199 170.844 116.825C170.599 116.939 170.368 117.07 170.153 117.218ZM178.297 119.025C177.415 119.262 176.671 119.217 176.066 118.89C175.466 118.561 175.062 118.007 174.852 117.228C174.574 116.191 174.702 115.256 175.237 114.422C175.776 113.579 176.584 113.013 177.659 112.724C178.258 112.563 178.748 112.576 179.13 112.763C179.51 112.944 179.758 113.254 179.876 113.691C180.037 114.29 179.879 114.868 179.4 115.425C178.926 115.973 178.082 116.414 176.867 116.748C176.997 117.155 177.178 117.455 177.409 117.648C177.639 117.835 177.879 117.894 178.13 117.827C178.382 117.759 178.575 117.618 178.71 117.402C178.852 117.184 178.871 116.885 178.769 116.506C179.709 116.253 180.239 116.348 180.358 116.793C180.46 117.172 180.325 117.592 179.951 118.052C179.576 118.505 179.025 118.829 178.297 119.025ZM177.799 113.898C177.47 113.986 177.212 114.232 177.023 114.635C176.841 115.036 176.749 115.475 176.746 115.952C177.376 115.727 177.82 115.453 178.078 115.128C178.34 114.795 178.435 114.493 178.362 114.223C178.328 114.094 178.257 113.999 178.151 113.938C178.051 113.875 177.934 113.862 177.799 113.898ZM181.657 116.837C181.587 116.579 181.518 116.063 181.447 115.288C181.383 114.511 181.34 113.798 181.317 113.149L180.607 112.511C181.315 111.934 181.83 111.602 182.151 111.516C182.48 111.427 182.699 111.589 182.81 112.001C182.871 112.227 182.891 112.725 182.871 113.497L182.98 113.519C183.071 112.01 183.462 111.163 184.15 110.978C184.466 110.893 184.733 110.925 184.953 111.073C185.172 111.221 185.314 111.414 185.378 111.652C185.473 112.006 185.422 112.345 185.226 112.667C185.029 112.989 184.667 113.221 184.139 113.363C183.341 113.577 183.163 114.506 183.604 116.147C183.712 116.546 183.858 116.821 184.044 116.971C183.729 117.394 183.405 117.651 183.07 117.741C182.342 117.936 181.871 117.635 181.657 116.837ZM188.175 108.259C188.241 108.504 188.169 108.751 187.96 109C187.75 109.244 187.48 109.409 187.152 109.498C186.823 109.586 186.545 109.592 186.318 109.515C186.096 109.436 185.956 109.288 185.897 109.069C185.818 108.773 185.894 108.504 186.126 108.262C186.357 108.02 186.628 107.857 186.937 107.774C187.246 107.691 187.511 107.689 187.732 107.767C187.96 107.844 188.108 108.008 188.175 108.259ZM188.326 116.327C187.927 116.434 187.61 116.412 187.376 116.261C187.143 116.11 186.971 115.832 186.862 115.426C186.751 115.014 186.662 113.861 186.594 111.967L185.835 111.301C186.51 110.602 187.079 110.19 187.543 110.065C187.807 109.995 188.009 110.002 188.15 110.089C188.288 110.169 188.392 110.334 188.459 110.585C188.485 110.682 188.518 111.28 188.559 112.381C188.6 113.482 188.68 114.254 188.799 114.698C188.919 115.142 189.102 115.425 189.348 115.545C189.072 115.957 188.732 116.218 188.326 116.327ZM191.944 115.354C191.565 115.456 191.258 115.431 191.024 115.28C190.79 115.129 190.629 114.89 190.54 114.561C190.452 114.233 190.373 113.681 190.302 112.906C190.238 112.129 190.195 111.416 190.172 110.767L189.462 110.129C190.002 109.597 190.543 109.258 191.084 109.113C191.625 108.968 191.961 109.139 192.092 109.629C192.179 109.951 192.193 110.299 192.135 110.673L192.245 110.696C192.617 109.332 193.334 108.508 194.396 108.222C195.175 108.013 195.669 108.297 195.879 109.076C195.969 109.411 196.025 110.003 196.046 110.854C196.074 111.702 196.143 112.329 196.252 112.735C196.361 113.14 196.508 113.418 196.694 113.569C196.437 113.976 196.119 114.231 195.74 114.333C194.999 114.532 194.522 114.232 194.307 113.434C194.227 113.138 194.189 112.61 194.191 111.85C194.194 111.09 194.167 110.603 194.11 110.391C194.032 110.101 193.883 109.986 193.664 110.045C193.484 110.093 193.3 110.229 193.111 110.452C192.921 110.669 192.753 110.942 192.607 111.271C192.465 111.593 192.376 111.979 192.339 112.431C192.3 112.876 192.337 113.311 192.452 113.736C192.564 114.155 192.713 114.439 192.899 114.59C192.642 114.997 192.324 115.252 191.944 115.354ZM199.136 110.261C199.225 110.589 199.387 110.832 199.622 110.989C199.863 111.139 200.118 111.177 200.389 111.104C200.756 111.006 201.037 110.744 201.233 110.318C201.189 109.716 201.087 108.773 200.928 107.49C200.207 107.684 199.687 108.048 199.369 108.583C199.056 109.116 198.979 109.675 199.136 110.261ZM202.68 113.232C202.487 113.719 202.192 114.14 201.798 114.495C201.405 114.856 200.954 115.105 200.445 115.242C199.943 115.377 199.512 115.389 199.151 115.279C198.798 115.174 198.578 114.96 198.492 114.639C198.405 114.317 198.446 113.943 198.615 113.518C199.029 113.876 199.532 113.976 200.124 113.816C200.51 113.712 200.822 113.449 201.061 113.026C201.307 112.607 201.399 112.065 201.337 111.398L201.228 111.376C200.951 112.168 200.455 112.661 199.741 112.853C199.2 112.998 198.719 112.903 198.297 112.568C197.875 112.233 197.571 111.717 197.384 111.022C197.204 110.352 197.223 109.692 197.441 109.039C197.688 108.289 198.152 107.692 198.833 107.246C199.209 107 199.583 106.827 199.957 106.726C200.33 106.626 200.652 106.567 200.924 106.549C201.009 106.712 201.074 106.864 201.119 107.004C201.366 106.717 201.644 106.531 201.953 106.448C202.397 106.329 202.681 106.498 202.804 106.955C202.927 107.412 203.024 107.89 203.096 108.388C203.166 108.88 203.214 109.416 203.239 109.996C203.263 110.576 203.226 111.142 203.126 111.694C203.03 112.237 202.882 112.75 202.68 113.232ZM152.256 139.502C151.876 139.604 151.564 139.56 151.32 139.37C151.074 139.174 150.887 138.838 150.759 138.362C150.629 137.879 150.465 136.463 150.268 134.113L149.479 133.217C150.08 132.552 150.679 132.138 151.278 131.977C151.658 131.875 151.941 131.992 152.129 132.329C152.851 132.114 153.714 131.705 154.719 131.104C154.828 131.302 154.91 131.504 154.965 131.711C155.106 132.232 155.037 132.671 154.761 133.029C154.491 133.385 154.085 133.635 153.544 133.781C153.177 133.879 152.796 133.899 152.4 133.84C152.427 134.143 152.464 134.641 152.512 135.332C152.762 135.313 152.971 135.281 153.138 135.236C153.389 135.114 153.658 134.962 153.948 134.78C154.009 134.881 154.074 135.057 154.142 135.308C154.207 135.553 154.16 135.776 154.001 135.978C153.841 136.179 153.636 136.314 153.384 136.382C153.14 136.447 152.881 136.486 152.608 136.497C152.646 136.922 152.714 137.314 152.811 137.675L154.375 137.254C154.845 137.052 155.304 136.794 155.751 136.48C155.821 136.586 155.883 136.738 155.937 136.938C156.039 137.318 156.017 137.686 155.871 138.043C155.732 138.398 155.466 138.628 155.073 138.734C154.867 138.789 154.554 138.828 154.132 138.852C153.718 138.881 153.412 138.911 153.214 138.944C152.955 139.214 152.636 139.399 152.256 139.502ZM156.187 134.437C156.093 134.269 156.026 134.107 155.984 133.953C155.899 133.637 155.929 133.374 156.072 133.163C156.215 132.952 156.435 132.806 156.731 132.727C156.641 132.392 156.457 132.052 156.177 131.706C156.43 131.389 156.67 131.138 156.896 130.953C157.127 130.76 157.388 130.624 157.677 130.546C157.967 130.468 158.181 130.469 158.32 130.549C158.464 130.621 158.565 130.766 158.624 130.985C158.683 131.204 158.73 131.557 158.764 132.045C159.011 131.937 159.257 131.813 159.502 131.671C159.584 131.794 159.653 131.962 159.71 132.174C159.767 132.386 159.737 132.609 159.62 132.84C159.508 133.064 159.294 133.218 158.978 133.303L158.833 133.342C158.884 134.454 158.985 135.293 159.138 135.859C159.29 136.426 159.496 136.795 159.757 136.966C159.481 137.379 159.14 137.64 158.735 137.749C158.329 137.858 158.004 137.817 157.76 137.628C157.52 137.43 157.332 137.077 157.195 136.568C157.112 136.259 157.006 135.418 156.879 134.044C156.633 134.158 156.403 134.289 156.187 134.437ZM165.373 129.491C166.152 129.281 166.647 129.566 166.856 130.345C166.946 130.68 167.002 131.272 167.024 132.123C167.052 132.971 167.12 133.598 167.229 134.004C167.338 134.409 167.486 134.687 167.671 134.838C167.415 135.245 167.097 135.499 166.717 135.602C165.976 135.801 165.499 135.501 165.284 134.703C165.204 134.407 165.166 133.879 165.169 133.119C165.171 132.358 165.144 131.872 165.087 131.66C165.009 131.37 164.861 131.255 164.642 131.313C164.461 131.362 164.277 131.498 164.089 131.721C163.898 131.938 163.73 132.211 163.584 132.54C163.443 132.861 163.353 133.248 163.316 133.7C163.277 134.145 163.315 134.58 163.429 135.005C163.542 135.424 163.691 135.708 163.876 135.858C163.62 136.266 163.301 136.52 162.922 136.622C162.181 136.822 161.704 136.522 161.489 135.724C161.361 135.247 161.23 134.247 161.096 132.723C160.97 131.383 160.903 130.631 160.893 130.468L160.145 129.841C160.823 129.155 161.394 128.749 161.858 128.624C162.122 128.553 162.323 128.558 162.462 128.638C162.599 128.711 162.7 128.87 162.766 129.115C162.891 129.579 162.982 130.096 163.039 130.668C163.096 131.239 163.121 131.664 163.113 131.942L163.222 131.965C163.594 130.601 164.311 129.777 165.373 129.491ZM171.8 134.234C170.918 134.471 170.175 134.426 169.569 134.099C168.969 133.77 168.565 133.216 168.355 132.437C168.077 131.401 168.205 130.465 168.74 129.631C169.279 128.789 170.087 128.223 171.162 127.934C171.761 127.773 172.251 127.786 172.633 127.973C173.013 128.154 173.262 128.463 173.379 128.901C173.54 129.5 173.382 130.077 172.903 130.634C172.429 131.183 171.585 131.624 170.37 131.958C170.5 132.364 170.681 132.664 170.912 132.858C171.142 133.044 171.383 133.104 171.634 133.036C171.885 132.969 172.078 132.827 172.213 132.611C172.355 132.394 172.374 132.095 172.272 131.715C173.212 131.462 173.742 131.558 173.861 132.002C173.964 132.382 173.828 132.802 173.454 133.261C173.079 133.714 172.528 134.039 171.8 134.234ZM171.302 129.108C170.973 129.196 170.715 129.442 170.526 129.844C170.344 130.245 170.252 130.685 170.249 131.162C170.879 130.937 171.323 130.662 171.581 130.338C171.843 130.005 171.938 129.703 171.865 129.432C171.831 129.304 171.76 129.209 171.654 129.148C171.554 129.085 171.437 129.071 171.302 129.108ZM175.16 132.047C175.09 131.789 175.021 131.273 174.95 130.498C174.886 129.721 174.843 129.008 174.82 128.358L174.11 127.721C174.818 127.144 175.333 126.812 175.655 126.725C175.983 126.637 176.202 126.799 176.313 127.211C176.374 127.436 176.394 127.935 176.374 128.706L176.483 128.729C176.575 127.22 176.965 126.373 177.654 126.188C177.969 126.103 178.236 126.134 178.456 126.283C178.675 126.431 178.817 126.624 178.881 126.862C178.976 127.216 178.925 127.554 178.729 127.876C178.533 128.198 178.17 128.43 177.643 128.572C176.844 128.787 176.666 129.715 177.107 131.357C177.215 131.756 177.361 132.031 177.547 132.181C177.232 132.604 176.908 132.86 176.573 132.95C175.846 133.146 175.374 132.845 175.16 132.047ZM183.258 131.152C182.376 131.389 181.633 131.344 181.027 131.017C180.427 130.688 180.023 130.134 179.813 129.355C179.535 128.319 179.663 127.383 180.198 126.549C180.737 125.707 181.545 125.141 182.62 124.852C183.219 124.691 183.709 124.704 184.091 124.891C184.471 125.072 184.72 125.381 184.837 125.819C184.998 126.418 184.84 126.995 184.361 127.552C183.887 128.101 183.043 128.542 181.828 128.876C181.958 129.282 182.139 129.582 182.37 129.776C182.6 129.962 182.84 130.022 183.092 129.954C183.343 129.887 183.536 129.745 183.671 129.529C183.813 129.312 183.832 129.013 183.73 128.633C184.67 128.38 185.2 128.476 185.319 128.92C185.422 129.3 185.286 129.72 184.912 130.179C184.537 130.632 183.986 130.956 183.258 131.152ZM182.76 126.026C182.431 126.114 182.173 126.36 181.984 126.762C181.802 127.163 181.71 127.603 181.707 128.08C182.337 127.855 182.781 127.58 183.039 127.255C183.301 126.923 183.396 126.621 183.323 126.35C183.289 126.222 183.218 126.127 183.112 126.066C183.012 126.003 182.895 125.989 182.76 126.026ZM188.562 129.726C187.996 129.878 187.562 129.846 187.263 129.63C186.963 129.414 186.757 129.096 186.644 128.678C186.53 128.253 186.445 127.654 186.389 126.882C186.333 126.11 186.261 125.56 186.173 125.232C186.085 124.904 185.948 124.664 185.762 124.514C186.276 124.037 186.739 123.744 187.151 123.633C187.415 123.562 187.62 123.566 187.765 123.644C187.915 123.714 188.022 123.868 188.086 124.106C188.15 124.344 188.208 124.957 188.26 125.944C188.316 126.923 188.373 127.522 188.432 127.741C188.491 127.96 188.599 128.117 188.756 128.213C188.911 128.303 189.089 128.321 189.288 128.267C189.488 128.213 189.679 128.079 189.863 127.864C190.045 127.642 190.168 127.367 190.232 127.04C190.182 126.494 190.137 125.622 190.098 124.425L189.311 123.808C189.835 123.163 190.389 122.762 190.975 122.604C191.265 122.526 191.486 122.526 191.637 122.602C191.794 122.671 191.902 122.814 191.96 123.033C192.018 123.246 192.064 123.892 192.099 124.974C192.141 126.053 192.22 126.809 192.336 127.24C192.45 127.665 192.631 127.937 192.877 128.057C192.601 128.47 192.264 128.73 191.865 128.837C191.472 128.943 191.165 128.932 190.945 128.805C190.724 128.678 190.576 128.473 190.5 128.19L190.39 128.167C190.261 128.533 190.03 128.858 189.699 129.14C189.372 129.414 188.993 129.61 188.562 129.726ZM199.314 122.204L199.424 122.227C199.796 120.863 200.481 120.047 201.479 119.779C202.258 119.57 202.752 119.854 202.961 120.633C203.051 120.968 203.107 121.56 203.129 122.411C203.157 123.259 203.225 123.886 203.335 124.292C203.444 124.697 203.591 124.975 203.776 125.126C203.52 125.533 203.202 125.788 202.822 125.89C202.082 126.089 201.604 125.789 201.389 124.991C201.31 124.695 201.271 124.167 201.274 123.407C201.277 122.647 201.249 122.16 201.192 121.948C201.114 121.658 200.966 121.543 200.747 121.602C200.567 121.65 200.386 121.785 200.203 122.007C200.026 122.22 199.871 122.49 199.738 122.816C199.609 123.133 199.529 123.517 199.498 123.967C199.472 124.409 199.516 124.843 199.631 125.267C199.743 125.686 199.892 125.97 200.078 126.121C199.821 126.528 199.503 126.783 199.123 126.885C198.383 127.084 197.906 126.784 197.691 125.986C197.611 125.69 197.573 125.162 197.575 124.402C197.578 123.641 197.551 123.155 197.494 122.943C197.416 122.653 197.267 122.538 197.048 122.597C196.868 122.645 196.687 122.78 196.505 123.002C196.328 123.215 196.172 123.485 196.039 123.81C195.91 124.128 195.831 124.512 195.8 124.962C195.774 125.404 195.818 125.837 195.932 126.262C196.045 126.681 196.194 126.965 196.379 127.115C196.123 127.523 195.805 127.777 195.425 127.88C194.685 128.079 194.207 127.779 193.992 126.981C193.923 126.723 193.853 126.207 193.783 125.432C193.719 124.655 193.675 123.942 193.653 123.292L192.943 122.655C193.483 122.123 194.024 121.784 194.564 121.639C195.105 121.493 195.441 121.665 195.573 122.155C195.66 122.476 195.674 122.825 195.616 123.199L195.725 123.222C196.097 121.858 196.782 121.042 197.78 120.774C198.141 120.677 198.448 120.691 198.703 120.816C198.964 120.939 199.142 121.181 199.239 121.541C199.291 121.734 199.316 121.955 199.314 122.204Z" fill="white"/>
<path d="M161.788 152.824L161.207 152.973C161.14 152.99 161.082 152.987 161.032 152.964C160.982 152.942 160.94 152.907 160.906 152.861L160.042 151.653L157.551 152.294L157.376 153.767C157.37 153.819 157.35 153.868 157.315 153.915C157.281 153.963 157.231 153.995 157.167 154.011L156.585 154.161L157.379 148.039L158.142 147.842L161.788 152.824ZM157.621 151.697L159.694 151.165L158.242 149.13C158.149 149.005 158.049 148.845 157.941 148.65C157.939 148.763 157.936 148.869 157.931 148.966C157.928 149.061 157.922 149.145 157.913 149.219L157.621 151.697ZM162.045 152.304C162.027 152.236 162.023 152.17 162.031 152.105C162.041 152.039 162.061 151.978 162.092 151.924C162.124 151.869 162.167 151.821 162.22 151.78C162.272 151.738 162.332 151.709 162.399 151.692C162.467 151.675 162.533 151.671 162.599 151.682C162.665 151.693 162.726 151.714 162.781 151.747C162.836 151.779 162.883 151.822 162.922 151.876C162.963 151.929 162.992 151.989 163.009 152.056C163.027 152.125 163.031 152.193 163.02 152.259C163.012 152.322 162.991 152.381 162.958 152.436C162.926 152.492 162.883 152.538 162.829 152.577C162.776 152.618 162.717 152.647 162.649 152.664C162.582 152.682 162.516 152.685 162.45 152.674C162.384 152.666 162.324 152.646 162.269 152.614C162.216 152.58 162.17 152.539 162.129 152.488C162.091 152.435 162.062 152.373 162.045 152.304ZM170.195 150.663L169.614 150.813C169.547 150.83 169.488 150.827 169.438 150.804C169.388 150.781 169.346 150.747 169.312 150.7L168.449 149.493L165.958 150.133L165.783 151.607C165.777 151.658 165.757 151.708 165.722 151.755C165.687 151.803 165.638 151.835 165.573 151.851L164.992 152L165.785 145.878L166.549 145.682L170.195 150.663ZM166.028 149.537L168.1 149.005L166.648 146.97C166.555 146.845 166.455 146.685 166.347 146.49C166.346 146.603 166.343 146.708 166.338 146.806C166.334 146.901 166.328 146.985 166.32 147.058L166.028 149.537ZM170.785 150.512L169.777 146.587L170.188 146.482C170.286 146.457 170.36 146.488 170.41 146.577L170.574 146.99C170.696 146.757 170.847 146.556 171.026 146.386C171.208 146.215 171.437 146.095 171.713 146.024C171.928 145.968 172.126 145.956 172.307 145.987C172.49 146.014 172.653 146.079 172.795 146.183C172.94 146.284 173.064 146.419 173.168 146.587C173.272 146.756 173.352 146.952 173.409 147.174L174.051 149.673L173.362 149.85L172.72 147.351C172.643 147.054 172.516 146.842 172.337 146.714C172.16 146.583 171.932 146.554 171.653 146.625C171.449 146.678 171.271 146.776 171.118 146.92C170.967 147.063 170.839 147.238 170.732 147.444L171.475 150.335L170.785 150.512ZM176.296 149.162C175.986 149.241 175.725 149.216 175.513 149.086C175.303 148.956 175.156 148.728 175.073 148.402L174.455 146L173.983 146.122C173.941 146.132 173.903 146.13 173.869 146.114C173.834 146.095 173.81 146.06 173.797 146.009L173.726 145.734L174.348 145.487L174.195 144.234C174.191 144.193 174.199 144.158 174.222 144.128C174.244 144.094 174.276 144.072 174.32 144.061L174.669 143.971L175.016 145.323L176.14 145.035L176.268 145.535L175.145 145.823L175.75 148.179C175.793 148.344 175.864 148.456 175.965 148.516C176.066 148.575 176.179 148.589 176.306 148.556C176.378 148.538 176.438 148.513 176.485 148.481C176.534 148.447 176.574 148.413 176.607 148.38C176.64 148.347 176.667 148.318 176.688 148.293C176.711 148.265 176.733 148.248 176.754 148.243C176.79 148.234 176.828 148.247 176.868 148.284L177.154 148.561C177.063 148.703 176.943 148.828 176.791 148.935C176.639 149.041 176.474 149.116 176.296 149.162ZM178.545 144.268C178.832 144.194 179.102 144.176 179.357 144.212C179.614 144.248 179.845 144.333 180.05 144.468C180.258 144.602 180.437 144.783 180.586 145.011C180.738 145.237 180.853 145.503 180.932 145.81C181.012 146.12 181.04 146.411 181.016 146.681C180.994 146.951 180.924 147.195 180.807 147.412C180.692 147.629 180.53 147.815 180.323 147.97C180.117 148.122 179.87 148.235 179.584 148.309C179.297 148.382 179.025 148.403 178.769 148.369C178.515 148.333 178.283 148.248 178.076 148.114C177.868 147.98 177.688 147.8 177.537 147.575C177.385 147.35 177.269 147.082 177.19 146.772C177.111 146.465 177.083 146.176 177.107 145.905C177.131 145.632 177.201 145.387 177.319 145.17C177.437 144.952 177.598 144.766 177.803 144.611C178.011 144.456 178.259 144.342 178.545 144.268ZM179.445 147.77C179.833 147.671 180.089 147.467 180.213 147.16C180.338 146.85 180.34 146.462 180.22 145.997C180.1 145.53 179.911 145.19 179.653 144.979C179.395 144.767 179.072 144.711 178.685 144.81C178.488 144.861 178.326 144.938 178.199 145.043C178.072 145.147 177.975 145.275 177.91 145.427C177.847 145.578 177.814 145.753 177.813 145.951C177.814 146.146 177.844 146.36 177.904 146.593C177.963 146.825 178.04 147.027 178.134 147.199C178.23 147.369 178.342 147.506 178.47 147.608C178.6 147.707 178.746 147.771 178.908 147.801C179.07 147.831 179.249 147.821 179.445 147.77ZM182.287 147.556L181.278 143.632L181.689 143.526C181.787 143.501 181.861 143.533 181.912 143.622L182.075 144.034C182.197 143.802 182.348 143.601 182.527 143.431C182.709 143.26 182.938 143.139 183.215 143.068C183.429 143.013 183.627 143.001 183.808 143.031C183.992 143.058 184.154 143.124 184.297 143.228C184.441 143.328 184.565 143.463 184.669 143.632C184.773 143.801 184.853 143.996 184.91 144.218L185.553 146.717L184.863 146.894L184.221 144.395C184.145 144.098 184.017 143.886 183.838 143.759C183.662 143.628 183.434 143.598 183.155 143.67C182.951 143.722 182.772 143.821 182.619 143.965C182.469 144.108 182.34 144.283 182.234 144.489L182.976 147.379L182.287 147.556ZM187.156 142.055C187.443 141.982 187.713 141.963 187.968 142C188.225 142.035 188.456 142.12 188.661 142.255C188.869 142.389 189.048 142.57 189.197 142.799C189.349 143.024 189.464 143.29 189.543 143.598C189.623 143.908 189.651 144.198 189.626 144.468C189.605 144.738 189.535 144.982 189.418 145.199C189.303 145.416 189.141 145.602 188.933 145.757C188.727 145.909 188.481 146.022 188.194 146.096C187.908 146.17 187.636 146.19 187.38 146.157C187.125 146.12 186.894 146.035 186.686 145.901C186.479 145.767 186.299 145.588 186.147 145.362C185.996 145.137 185.88 144.869 185.801 144.559C185.722 144.252 185.694 143.963 185.718 143.693C185.742 143.42 185.812 143.174 185.93 142.957C186.047 142.739 186.209 142.553 186.414 142.399C186.622 142.243 186.869 142.129 187.156 142.055ZM188.056 145.557C188.443 145.458 188.7 145.254 188.824 144.947C188.948 144.637 188.951 144.25 188.831 143.785C188.711 143.317 188.522 142.978 188.264 142.766C188.006 142.554 187.683 142.498 187.295 142.598C187.099 142.648 186.937 142.725 186.81 142.83C186.683 142.934 186.586 143.062 186.52 143.214C186.457 143.365 186.425 143.54 186.424 143.738C186.425 143.934 186.455 144.148 186.515 144.38C186.574 144.613 186.651 144.814 186.745 144.986C186.841 145.157 186.953 145.293 187.081 145.395C187.211 145.494 187.357 145.558 187.519 145.588C187.681 145.618 187.86 145.608 188.056 145.557ZM191.239 146.672L189.889 141.419L190.3 141.314C190.398 141.288 190.472 141.32 190.523 141.409L190.7 141.859C190.816 141.612 190.965 141.399 191.147 141.22C191.332 141.04 191.565 140.914 191.847 140.842C192.072 140.784 192.287 140.775 192.493 140.816C192.698 140.854 192.887 140.942 193.06 141.079C193.233 141.214 193.386 141.397 193.52 141.63C193.654 141.863 193.763 142.142 193.846 142.467C193.921 142.756 193.951 143.036 193.938 143.307C193.924 143.575 193.869 143.819 193.771 144.039C193.673 144.257 193.532 144.446 193.347 144.607C193.165 144.764 192.942 144.876 192.678 144.944C192.435 145.006 192.217 145.02 192.023 144.984C191.832 144.948 191.652 144.873 191.483 144.76L191.929 146.495L191.239 146.672ZM191.762 141.458C191.537 141.516 191.353 141.618 191.209 141.766C191.067 141.912 190.95 142.098 190.856 142.323L191.344 144.221C191.515 144.359 191.684 144.444 191.851 144.475C192.022 144.505 192.2 144.497 192.386 144.449C192.75 144.355 192.997 144.153 193.126 143.842C193.255 143.53 193.258 143.133 193.134 142.65C193.068 142.395 192.988 142.181 192.895 142.01C192.804 141.838 192.701 141.704 192.585 141.61C192.47 141.513 192.343 141.453 192.205 141.431C192.067 141.409 191.919 141.418 191.762 141.458ZM195.737 139.85C196.023 139.777 196.294 139.758 196.548 139.795C196.805 139.83 197.036 139.916 197.242 140.05C197.45 140.184 197.628 140.365 197.778 140.594C197.929 140.819 198.045 141.085 198.124 141.393C198.203 141.703 198.231 141.993 198.207 142.263C198.185 142.533 198.116 142.777 197.998 142.994C197.883 143.211 197.722 143.397 197.514 143.552C197.308 143.705 197.062 143.817 196.775 143.891C196.488 143.965 196.217 143.985 195.96 143.952C195.706 143.915 195.475 143.83 195.267 143.696C195.059 143.562 194.88 143.383 194.728 143.157C194.577 142.932 194.461 142.664 194.381 142.354C194.302 142.047 194.275 141.758 194.299 141.488C194.322 141.215 194.393 140.969 194.51 140.752C194.628 140.534 194.79 140.348 194.995 140.194C195.203 140.038 195.45 139.924 195.737 139.85ZM196.637 143.353C197.024 143.253 197.28 143.05 197.405 142.742C197.529 142.432 197.531 142.045 197.412 141.58C197.292 141.112 197.103 140.773 196.844 140.561C196.586 140.349 196.263 140.293 195.876 140.393C195.68 140.443 195.518 140.521 195.391 140.625C195.263 140.729 195.167 140.857 195.101 141.009C195.038 141.16 195.006 141.335 195.005 141.534C195.005 141.729 195.035 141.943 195.095 142.175C195.155 142.408 195.232 142.61 195.325 142.781C195.421 142.952 195.533 143.088 195.662 143.19C195.792 143.289 195.937 143.353 196.099 143.383C196.261 143.413 196.44 143.403 196.637 143.353ZM199.066 139.061L199.709 141.564C199.786 141.861 199.913 142.073 200.092 142.2C200.271 142.328 200.498 142.356 200.775 142.285C200.976 142.233 201.154 142.137 201.307 141.995C201.461 141.854 201.591 141.679 201.697 141.47L200.953 138.576L201.643 138.399L202.651 142.323L202.24 142.429C202.142 142.454 202.068 142.422 202.018 142.333L201.855 141.925C201.733 142.157 201.581 142.359 201.399 142.529C201.216 142.697 200.988 142.817 200.714 142.887C200.5 142.942 200.301 142.956 200.118 142.929C199.937 142.898 199.774 142.833 199.63 142.732C199.485 142.631 199.361 142.497 199.257 142.328C199.156 142.159 199.077 141.963 199.02 141.741L198.377 139.238L199.066 139.061ZM203.084 136.129L204.551 141.835L203.861 142.012L202.395 136.306L203.084 136.129ZM206.33 137.128C206.617 137.055 206.887 137.036 207.142 137.072C207.399 137.108 207.63 137.193 207.835 137.328C208.043 137.462 208.222 137.643 208.371 137.872C208.523 138.097 208.638 138.363 208.717 138.671C208.797 138.981 208.824 139.271 208.8 139.541C208.779 139.811 208.709 140.055 208.592 140.272C208.477 140.489 208.315 140.675 208.107 140.83C207.901 140.982 207.655 141.095 207.368 141.169C207.082 141.243 206.81 141.263 206.554 141.23C206.299 141.193 206.068 141.108 205.86 140.974C205.653 140.84 205.473 140.661 205.321 140.435C205.17 140.21 205.054 139.942 204.975 139.632C204.896 139.325 204.868 139.036 204.892 138.766C204.916 138.492 204.986 138.247 205.104 138.03C205.221 137.812 205.383 137.626 205.588 137.472C205.796 137.316 206.043 137.202 206.33 137.128ZM207.23 140.63C207.617 140.531 207.873 140.327 207.998 140.02C208.122 139.71 208.125 139.323 208.005 138.858C207.885 138.39 207.696 138.051 207.438 137.839C207.18 137.627 206.857 137.571 206.469 137.671C206.273 137.721 206.111 137.798 205.984 137.903C205.857 138.007 205.76 138.135 205.694 138.287C205.631 138.438 205.599 138.613 205.598 138.811C205.599 139.007 205.629 139.221 205.688 139.453C205.748 139.685 205.825 139.887 205.918 140.059C206.015 140.23 206.127 140.366 206.255 140.468C206.385 140.567 206.531 140.631 206.693 140.661C206.855 140.691 207.034 140.681 207.23 140.63ZM211.476 136.562C211.46 136.626 211.419 136.667 211.355 136.684C211.316 136.694 211.269 136.691 211.212 136.675C211.156 136.659 211.087 136.644 211.006 136.629C210.927 136.61 210.835 136.6 210.729 136.597C210.623 136.591 210.503 136.605 210.369 136.64C210.253 136.669 210.152 136.712 210.067 136.767C209.981 136.819 209.912 136.88 209.858 136.949C209.806 137.017 209.772 137.09 209.753 137.169C209.737 137.245 209.739 137.323 209.76 137.403C209.786 137.504 209.836 137.581 209.91 137.633C209.986 137.685 210.079 137.723 210.187 137.748C210.295 137.772 210.415 137.788 210.546 137.796C210.677 137.801 210.811 137.809 210.949 137.82C211.089 137.829 211.226 137.843 211.361 137.863C211.495 137.884 211.62 137.92 211.736 137.973C211.851 138.026 211.952 138.102 212.038 138.201C212.126 138.297 212.19 138.424 212.231 138.581C212.277 138.762 212.288 138.938 212.263 139.11C212.238 139.279 212.176 139.436 212.079 139.583C211.981 139.726 211.849 139.854 211.682 139.965C211.515 140.077 211.312 140.164 211.071 140.226C210.798 140.296 210.538 140.316 210.294 140.285C210.048 140.252 209.83 140.185 209.64 140.086L209.735 139.78C209.747 139.741 209.764 139.709 209.788 139.684C209.812 139.659 209.847 139.64 209.894 139.628C209.94 139.616 209.994 139.621 210.055 139.644C210.116 139.667 210.188 139.691 210.272 139.717C210.358 139.741 210.457 139.758 210.57 139.768C210.685 139.777 210.821 139.761 210.979 139.721C211.113 139.686 211.226 139.639 211.318 139.58C211.41 139.518 211.482 139.448 211.533 139.372C211.585 139.295 211.617 139.214 211.628 139.129C211.642 139.042 211.637 138.955 211.615 138.868C211.587 138.759 211.534 138.678 211.457 138.623C211.381 138.566 211.29 138.524 211.181 138.5C211.073 138.473 210.952 138.457 210.818 138.453C210.687 138.445 210.551 138.437 210.412 138.429C210.274 138.42 210.137 138.406 210 138.386C209.865 138.363 209.739 138.324 209.623 138.269C209.507 138.213 209.404 138.135 209.315 138.034C209.227 137.93 209.162 137.794 209.119 137.626C209.08 137.476 209.075 137.325 209.101 137.172C209.128 137.016 209.187 136.872 209.279 136.738C209.371 136.602 209.495 136.48 209.652 136.374C209.809 136.267 209.999 136.185 210.221 136.128C210.479 136.062 210.721 136.044 210.946 136.074C211.173 136.101 211.38 136.166 211.567 136.27L211.476 136.562Z" fill="white"/>
</svg>
