<svg width="252" height="275" viewBox="0 0 252 275" fill="none" xmlns="http://www.w3.org/2000/svg">
<path d="M75.9545 252.074C98.3717 240.999 222.908 258.017 200.435 269.609C170.09 285.298 61.2251 259.337 75.9545 252.074Z" fill="#112B44"/>
<path d="M73.047 20.528L78.3628 18.6084C79.4535 18.2136 80.3452 17.4061 80.8459 16.3598C81.3466 15.3136 81.416 14.1126 81.0393 13.0156L78.4921 5.63242C78.2993 4.9858 77.9798 4.38401 77.5521 3.86211C77.1245 3.3402 76.5972 2.90863 76.0011 2.59254C75.405 2.27644 74.7519 2.08213 74.0799 2.02095C73.408 1.95977 72.7306 2.03292 72.0872 2.23616L67.7772 3.78663C66.5044 4.30792 65.4865 5.30695 64.9414 6.5697C64.3962 7.83244 64.3673 9.25845 64.8609 10.5422L67.3619 17.8147C67.5532 18.3688 67.8529 18.8793 68.2433 19.3165C68.6338 19.7538 69.1074 20.109 69.6364 20.3615C70.1655 20.614 70.7394 20.7587 71.325 20.7873C71.9105 20.8159 72.4958 20.7278 73.047 20.528Z" fill="#FFD167" stroke="white" stroke-width="3.19715" stroke-linecap="round" stroke-linejoin="round"/>
<path d="M99.3221 82.0204C93.3418 85.1583 88.6165 76.1785 94.6061 73.0314L110.951 64.4485C116.931 61.3106 121.656 70.2904 115.667 73.4375L99.3221 82.0204Z" fill="#A682FF"/>
<path d="M211.002 198.49C216.096 210.008 221.634 223.003 224.126 238.544C225.759 248.585 181.183 271.529 173.68 265.041C161.765 254.732 154.733 242.263 148.153 231.502C139.589 217.49 132.984 202.371 128.523 186.567C127.101 181.592 125.883 176.701 124.831 171.883C121.306 155.982 119.561 141.345 114.421 123.33C110.379 109.409 105.13 95.8677 98.7315 82.8606L116.71 73.4193C123.789 86.0715 131.96 98.081 141.129 109.311C153.016 123.763 164.073 133.481 175.166 145.479C178.525 149.097 181.857 152.862 185.152 156.868C195.626 169.498 204.324 183.502 211.002 198.49Z" fill="#A682FF"/>
<path d="M106.456 77.7475C140.991 153.425 151.604 209.362 197.592 259.217C186.914 264.828 176.735 269.129 172.434 264.644C162.713 254.438 154.143 243.194 146.879 231.115C138.316 217.102 131.711 201.983 127.249 186.179C125.828 181.204 124.61 176.313 123.558 171.495C117.753 145.294 116.783 122.526 97.458 82.4727L106.456 77.7475Z" fill="#9574E5"/>
<path d="M211.002 198.49L148.153 231.493C139.589 217.481 132.985 202.361 128.523 186.557L185.143 156.821C195.624 169.465 204.325 183.485 211.002 198.49Z" fill="#FFD167"/>
<path d="M141.111 109.311L131.504 122.453L114.412 123.376C110.37 109.455 105.12 95.9137 98.7223 82.9066L116.7 73.4653C123.779 86.1012 131.947 98.0952 141.111 109.311Z" fill="#FFD167"/>
<path d="M98.7128 82.8605C118.038 122.914 119.017 145.682 124.812 171.883C125.883 176.701 127.092 181.592 128.504 186.566C132.966 202.371 139.57 217.49 148.134 231.502C154.733 242.254 161.645 254.87 173.643 265.04C181.026 271.233 225.473 248.096 224.088 238.544C221.827 222.947 216.087 210.017 210.965 198.49C204.293 183.486 195.599 169.467 185.124 156.821C181.838 152.825 178.497 149.051 175.138 145.433C156.865 125.784 138.665 112.061 116.663 73.4469" stroke="white" stroke-width="3.19715" stroke-miterlimit="10"/>
<path d="M115.657 73.4375L99.313 82.0204C93.3326 85.1583 88.6074 76.1785 94.597 73.0314L110.941 64.4485C116.922 61.3106 121.647 70.2904 115.657 73.4375Z" stroke="white" stroke-width="3.19715" stroke-miterlimit="10"/>
<path d="M114.402 123.339L131.504 122.453L141.111 109.311" stroke="white" stroke-width="3.19715" stroke-miterlimit="10"/>
<path d="M211.002 198.49L148.153 231.493C139.589 217.481 132.985 202.361 128.523 186.557L185.143 156.821C195.624 169.465 204.325 183.485 211.002 198.49V198.49Z" stroke="white" stroke-width="3.19715" stroke-miterlimit="10"/>
<path d="M165.826 146.217L152.343 132.448M214.251 240.537C214.851 239.07 214.932 237.443 214.481 235.923L214.251 240.537ZM206.784 211.005C207.984 214.069 209.858 219.163 211.787 225.771L206.784 211.005Z" stroke="white" stroke-width="3.19715" stroke-linecap="round" stroke-linejoin="round"/>
<path d="M157.691 198.444C154.692 192.735 156.889 185.677 162.598 182.679C168.306 179.681 175.364 181.878 178.362 187.586C181.36 193.295 179.163 200.353 173.455 203.351C167.747 206.349 160.689 204.152 157.691 198.444Z" fill="#007FC6"/>
<path d="M161.055 195.353L162.476 190.794L167.727 192.427L169.361 187.176L174.077 188.643" stroke="white" stroke-width="3.19715" stroke-linecap="round" stroke-linejoin="round"/>
<path d="M166.149 197.531L171.068 198.795L172.895 193.987" stroke="white" stroke-width="3.19715" stroke-linecap="round" stroke-linejoin="round"/>
<path d="M168.023 181.324C165.471 181.325 162.989 182.161 160.957 183.705C158.925 185.249 157.455 187.416 156.77 189.875C156.086 192.333 156.225 194.948 157.167 197.32C158.109 199.692 159.801 201.69 161.986 203.01C164.17 204.329 166.727 204.897 169.265 204.626C171.802 204.356 174.182 203.262 176.039 201.511C177.896 199.761 179.129 197.451 179.55 194.934C179.971 192.417 179.556 189.831 178.368 187.572C177.382 185.683 175.896 184.1 174.071 182.999C172.246 181.897 170.154 181.317 168.023 181.324ZM168.023 178.555C171.554 178.551 174.965 179.84 177.612 182.179C180.258 184.517 181.956 187.744 182.386 191.25C182.816 194.755 181.947 198.296 179.944 201.205C177.941 204.114 174.942 206.188 171.514 207.037C168.086 207.886 164.466 207.45 161.337 205.812C158.208 204.174 155.788 201.447 154.532 198.146C153.277 194.845 153.273 191.199 154.523 187.895C155.772 184.592 158.188 181.861 161.313 180.217C163.382 179.127 165.685 178.557 168.023 178.555Z" fill="white"/>
<path d="M187.763 183.318L191.178 175.335M193.467 181.048L185.474 177.615L193.467 181.048Z" stroke="white" stroke-width="3.19715" stroke-linecap="round" stroke-linejoin="round"/>
<path d="M139.673 134.068C139.258 133.278 139.562 132.302 140.352 131.887C141.142 131.472 142.118 131.776 142.533 132.566C142.948 133.356 142.644 134.332 141.854 134.747C141.064 135.162 140.088 134.858 139.673 134.068Z" fill="#9574E5"/>
<path d="M142.142 154.655C141.491 153.414 141.968 151.88 143.209 151.228C144.45 150.576 145.984 151.054 146.636 152.295C147.288 153.536 146.81 155.07 145.569 155.722C144.329 156.374 142.794 155.896 142.142 154.655Z" fill="#9574E5"/>
<path d="M194.619 218.839C193.967 217.598 194.444 216.064 195.685 215.412C196.926 214.76 198.461 215.238 199.112 216.478C199.764 217.719 199.287 219.254 198.046 219.906C196.805 220.557 195.27 220.08 194.619 218.839Z" fill="#9574E5"/>
<path d="M200.402 239.781C199.988 238.991 200.292 238.015 201.081 237.6C201.871 237.185 202.847 237.489 203.262 238.279C203.677 239.069 203.373 240.045 202.583 240.46C201.794 240.874 200.817 240.571 200.402 239.781Z" fill="#9574E5"/>
<path d="M170.829 246.973C169.94 245.28 170.591 243.188 172.284 242.299C173.976 241.411 176.068 242.062 176.957 243.754C177.846 245.446 177.194 247.538 175.502 248.427C173.81 249.316 171.718 248.665 170.829 246.973Z" fill="#A682FF"/>
<path d="M74.0073 43.1111L86.6418 62.4459" stroke="#A682FF" stroke-width="6.39429" stroke-linecap="round" stroke-linejoin="round"/>
<path d="M90.7578 44.671L96.6274 56.2256" stroke="#A682FF" stroke-width="6.39429" stroke-linecap="round" stroke-linejoin="round"/>
<path d="M243.927 122.967L250.225 121.528L251.664 127.826L245.366 129.265L243.927 122.967Z" fill="#FFD167"/>
<path d="M32.1994 55.0073L9.56996 32.8116L-0.000484467 45.5291L27.5942 61.1261L32.1994 55.0073Z" fill="#A682FF"/>
<path d="M59.6868 122.079L64.572 117.851L68.7993 122.737L63.914 126.964L59.6868 122.079Z" fill="#FFD167"/>
<path d="M29.2335 182.983L34.1187 178.755L38.346 183.641L33.4607 187.868L29.2335 182.983Z" fill="white"/>
<path d="M140.012 36.3786L146.316 34.9682L147.727 41.2727L141.422 42.683L140.012 36.3786Z" fill="#FFD167"/>
<path d="M201.902 34.9896L203.102 41.3299L207.634 40.4716L208.492 45.0123L214.841 43.8125L213.983 39.2718L218.515 38.4228L217.315 32.0732L212.783 32.9315L211.925 28.3909L205.575 29.5906L206.434 34.1313L201.902 34.9896Z" fill="white"/>
<path d="M80.6055 169.678L84.7124 174.671L88.2748 171.745L91.2096 175.308L96.2024 171.21L93.2676 167.638L96.83 164.713L92.7323 159.72L89.17 162.645L86.2351 159.083L81.2423 163.19L84.1771 166.752L80.6055 169.678Z" fill="#FFD167"/>
<path d="M105.773 45.6678L107.148 52.2481" stroke="#A682FF" stroke-width="6.39429" stroke-linecap="round" stroke-linejoin="round"/>
<path opacity="0.1" d="M141.48 94.7751C139.034 91.4804 136.552 87.9364 134.023 84.088" stroke="white" stroke-width="3.19715" stroke-linecap="round" stroke-linejoin="round"/>
<path opacity="0.1" d="M201.395 162.931C198.546 158.876 195.51 154.877 192.286 150.933C189.074 147.029 185.696 143.172 181.931 139.129C177.852 134.746 173.754 130.62 169.786 126.624C166.029 122.84 162.236 119.029 158.379 114.903" stroke="white" stroke-width="3.19715" stroke-linecap="round" stroke-linejoin="round"/>
<path opacity="0.1" d="M198.459 133.361C196.337 130.897 194.113 128.424 191.741 125.867C189.24 123.173 186.72 120.579 184.238 118.051" stroke="white" stroke-width="3.19715" stroke-linecap="round" stroke-linejoin="round"/>
<path opacity="0.1" d="M228.343 250.292C234.204 243.694 233.548 239.218 233.262 237.215C232.936 234.951 232.549 232.745 232.1 230.598" stroke="white" stroke-width="3.19715" stroke-linecap="round" stroke-linejoin="round"/>
<path opacity="0.1" d="M99.3127 107.354C106.834 126.92 109.658 142.037 112.409 156.775C113.442 162.313 114.513 168.035 115.805 173.867C116.857 178.611 117.955 183.032 119.155 187.333" stroke="white" stroke-width="3.19715" stroke-linecap="round" stroke-linejoin="round"/>
<path d="M98.7128 82.8605C118.038 122.914 119.017 145.682 124.812 171.883C125.883 176.701 127.092 181.592 128.504 186.566C132.966 202.371 139.57 217.49 148.134 231.502C154.733 242.254 161.645 254.87 173.643 265.04C181.026 271.233 225.473 248.096 224.088 238.544C221.827 222.947 216.087 210.017 210.965 198.49C204.293 183.486 195.599 169.467 185.124 156.821C181.838 152.825 178.497 149.051 175.138 145.433C156.865 125.784 138.665 112.061 116.663 73.4469" stroke="white" stroke-width="3.19715" stroke-miterlimit="10"/>
</svg>
