<svg width="292" height="401" viewBox="0 0 292 401" fill="none" xmlns="http://www.w3.org/2000/svg">
<path d="M105.515 76.2718C90.3713 80.3997 72.4417 67.308 34.1591 57.3843C-6.7243 46.7863 -2.63418 81.5264 16.5482 96.0539C68.6362 135.502 44.4601 165.826 19.5248 158.8C-14.9704 149.081 -3.04308 222.611 59.4188 276C163.78 275.853 193.372 232.627 243.506 149.081C243.506 91.4175 172.984 38.8712 103.861 37.0166C85.3334 36.5195 86.8703 47.2082 100.554 54.0169C116.197 61.8006 113.452 74.1081 105.515 76.2718Z" fill="#FFF7F0"/>
<path d="M46.4676 19.5328C46.6397 16.1442 48.5489 10.3157 54.8088 14.1098C61.5545 4.87655 73.8244 13.1412 60.9433 18.9917C66.9063 21.9895 63.8769 29.4414 58.3386 31.6099C60.7821 33.9839 61.9394 39.9124 52.2047 40.749C57.0894 43.4359 53.3844 50.1307 46.9092 48.7897C57.4421 62.1291 39.2738 66.1618 27.7712 58.1834C27.6902 58.1285 27.6096 58.0732 27.5296 58.0176C14.9339 49.2599 14.7888 31.4249 28.1969 38.119C25.1497 30.3968 25.6937 22.7574 35.647 27.7202C34.9453 22.5169 39.3603 13.4583 46.4676 19.5328Z" fill="#FFC835"/>
<path d="M27.5296 58.0176C14.9339 49.2599 14.7888 31.4249 28.1969 38.119C25.1497 30.3968 25.6937 22.7574 35.647 27.7202C34.9453 22.5169 39.3603 13.4583 46.4676 19.5328C46.6397 16.1442 48.5489 10.3157 54.8088 14.1098C61.5545 4.87655 73.8244 13.1412 60.9433 18.9917C66.9063 21.9895 63.8769 29.4414 58.3386 31.6099C60.7821 33.9839 61.9394 39.9124 52.2047 40.749C57.0894 43.4359 53.3844 50.1307 46.9092 48.7897C57.4421 62.1291 39.2738 66.1618 27.7712 58.1834C27.6902 58.1285 27.6096 58.0732 27.5296 58.0176ZM27.5296 58.0176C28.8266 53.9663 30.4796 49.8466 32.5595 45.8952M27.5296 58.0176C26.5381 61.1146 25.7546 64.1717 25.1473 67.0832" stroke="black" stroke-width="2" stroke-linecap="round" stroke-linejoin="round"/>
<circle cx="134.351" cy="395.12" r="5.88038" fill="white"/>
<path d="M117.138 140.605C77.9616 148.169 66.5487 152.838 65.1064 163.338C55.0634 236.449 165.828 234.236 219.717 231.032C224.172 196.459 233.271 124.449 234.034 112.995C234.989 98.6787 227.162 100.206 219.717 104.214C186.312 122.731 158.37 132.644 117.138 140.605Z" fill="#0E9FFF" stroke="black" stroke-width="2" stroke-linecap="round" stroke-linejoin="round"/>
<path d="M113.53 161.428C85.1719 167.66 78.3229 167.925 77.0476 173.331C75.7867 178.676 72.0175 195.721 71.2437 211.455L216.206 213.776L219.571 162.406C219.963 155.372 220.747 139.745 220.747 133.507C220.903 127.118 219.556 124.725 213.011 128.309C187.458 141.864 141.888 155.195 113.53 161.428Z" fill="#0E9FFF" stroke="black" stroke-width="2" stroke-linecap="round" stroke-linejoin="round"/>
<path d="M256.567 148.963C257.59 141.244 255.019 139.635 247.966 143.203C192.216 171.4 75.1519 191.999 77.1275 173.265C75.2165 179.985 71.3945 196.932 71.3945 210.961L244.466 222.016C248.206 200.891 255.749 155.138 256.567 148.963Z" fill="#0E9FFF" stroke="black" stroke-width="2" stroke-linecap="round" stroke-linejoin="round"/>
<g style="mix-blend-mode:darken">
<path fill-rule="evenodd" clip-rule="evenodd" d="M68.2082 174.054C67.6052 166.214 70.1179 160.384 87.9082 157.771C126.424 152.114 164.877 140.421 200.529 124.9C215.886 118.215 223.757 112.635 223.757 132C223.757 145.222 222.881 152.016 222.687 154.252C181.344 169.103 101.049 186.892 82.5657 178.872C134.599 197.196 212.284 181.876 256.458 151.062C256.024 153.711 254.863 160.453 253.686 166.231C205.802 191.377 111.908 204.351 75.2433 181.048C75.2452 181.001 75.2478 180.951 75.2512 180.897C72.3179 178.956 69.3337 175.527 68.2082 174.054ZM220.744 142.551C220.744 140.115 220.744 143.637 220.744 133.264C220.744 122.89 215.695 126.803 209.795 129.767C176.499 146.497 139.352 156.12 103.051 163.635C99.8452 164.298 77.5877 167.269 77.797 171.824C78.6298 189.944 211.953 147.174 220.744 142.551Z" fill="#008AE6"/>
</g>
<path d="M65.6028 161.398C61.8342 169.145 63.7963 209.213 60.7873 244.727C59.0098 265.707 56.285 289.746 54.8976 297.874C53.5103 306.003 47.7626 330.378 102.861 330.973C146.469 331.443 252.507 319.649 265.181 289.55C294.047 221.002 290.202 166.875 289.9 155.013C289.674 146.119 285.257 143.729 278.262 149.824C219.112 201.36 58.6743 209.148 65.6028 161.398Z" fill="#35D2FF" stroke="black" stroke-width="2" stroke-linecap="round" stroke-linejoin="round"/>
<mask id="mask0" style="mask-type:alpha" maskUnits="userSpaceOnUse" x="196" y="231" width="57" height="45">
<path d="M196.986 250.567C216.248 248.199 241.851 237.081 252.245 231.818C237.246 290.827 194.618 281.749 196.986 250.567Z" fill="black"/>
</mask>
<g mask="url(#mask0)">
<circle cx="224.617" cy="253.027" r="38.5389" fill="#0066CC"/>
<path d="M190.956 251.064C207.415 257.137 233.783 259.054 238.417 235.403C224.674 232.527 199.585 241.955 190.956 251.064Z" fill="white" stroke="black" stroke-width="2" stroke-linecap="round" stroke-linejoin="round"/>
</g>
<path d="M196.987 250.567C216.249 248.199 241.853 237.081 252.247 231.818C237.248 290.827 194.619 281.749 196.987 250.567Z" stroke="black" stroke-width="2" stroke-linecap="round" stroke-linejoin="round"/>
<path d="M219.915 287.565C213.947 311.013 206.557 320.018 193.104 322.239C210.177 329.664 223.808 326.044 228.584 322.666C229.579 325.224 237.253 327.782 240.948 331.619C244.643 335.456 247.485 342.846 255.727 337.161C263.969 331.477 255.017 321.245 239.953 316.271C240.474 314.282 242.085 306.778 244.358 292.681C247.201 275.059 247.058 261.843 238.674 259.854C230.29 257.864 225.884 264.117 219.915 287.565Z" fill="#FFC835" stroke="black" stroke-width="2" stroke-linecap="round" stroke-linejoin="round"/>
<g style="mix-blend-mode:darken">
<path d="M284.765 207.783C276.958 221.866 265.325 227.989 252.16 232.276L250.75 237.935C261.288 233.671 276.733 227.799 284.765 207.783Z" fill="#00A1E6"/>
</g>
<path d="M184.247 281.312C178.989 297.513 163.297 323.659 149.721 328.534C173.453 350.561 192.915 329.345 197.178 291.686C199.026 296.944 203.659 309.763 207.41 318.971C206.131 320.819 204.852 329.345 213.521 340.572C222.19 351.799 231.711 349.525 236.685 347.393C241.659 345.261 240.38 341.282 236.685 338.724C232.99 336.166 224.463 330.482 220.2 325.224C219.442 322.666 217.585 314.765 216.221 303.623C214.516 289.697 213.805 272.217 206.273 266.675C198.742 261.133 189.212 266.012 184.247 281.312Z" fill="#FFC835" stroke="black" stroke-width="2" stroke-linecap="round" stroke-linejoin="round"/>
<g style="mix-blend-mode:darken" opacity="0.5">
<path d="M170.317 337.502C190.714 333.361 194.252 311.058 197.008 293.69C197.096 293.131 197.184 292.578 197.272 292.031C199.961 299.384 205.747 315.079 207.371 319.037C203.237 328.795 214.532 344.058 221.322 347.185C228.989 350.716 233.73 348.698 237.261 347.185C240.792 345.672 240.691 342.746 237.866 339.619C233.628 347.622 219.991 342.104 215.428 331.756C208.531 316.116 206.24 291.648 207.071 283.218C206.325 287.776 196.026 291.043 181.437 291.508C183.215 291.712 186.678 291.982 190.194 291.861C184.092 309.11 173.079 320.144 164.329 316.293L151.455 330.192C155.343 333.879 163.308 338.834 170.317 337.502Z" fill="#FF8C25"/>
</g>
<path d="M78.603 195.737C75.8624 193.49 72.1048 191.619 70.8519 193.352C69.7761 194.84 70.9255 197.278 73.7796 199.355C82.4398 205.658 92.9087 207.522 102.72 207.522C107.324 207.522 107.373 203.711 102.72 203.356C90.497 202.424 81.3436 197.985 78.603 195.737Z" fill="white"/>
<path d="M214.743 194.3C217.671 193.289 218.901 196.65 216.189 197.795C213.135 199.085 212.023 195.24 214.743 194.3Z" fill="white"/>
<path d="M226.071 195.385C222.283 196.079 221.605 192.822 224.926 191.739C237.853 187.526 247.279 182.731 254.002 179.287C260.969 175.719 274.97 165.965 277.085 164.383C279.201 162.801 280.616 163.816 279.087 166.376C277.559 168.936 269.25 176.962 256.708 183.673C240.723 192.226 231.828 194.33 226.071 195.385Z" fill="white"/>
<g opacity="0.3">
<path d="M69.4929 254.021C64.4445 261.089 64.2428 271.889 69.8683 281.698C74.585 289.922 84.0862 283.242 77.2803 275.755C76.0023 274.35 68.5904 264.254 75.8746 257.098C83.1587 249.941 78.5582 243.615 77.2803 241.89C76.0023 240.165 75.1184 234.981 74.8299 231.231C74.5414 227.481 76.4166 222.721 73.5317 222.144C70.6469 221.567 69.4929 231.231 70.6468 237.289C71.8007 243.348 74.5414 246.954 69.4929 254.021Z" fill="white"/>
<path d="M69.0854 289.157C71.6008 290.072 72.8979 295.365 74.9153 298.439C78.694 304.196 84.9517 306.107 84.2113 309.533C83.0573 314.872 71.4991 315.754 64.9568 306.795C60.6593 300.909 62.016 286.584 69.0854 289.157Z" fill="white"/>
</g>
<path d="M228.855 277.986C233.137 296.753 230.495 310.509 229.402 313.334C228.309 316.158 227.255 320.239 228.581 322.798M237.028 319.274C238.432 318.813 239.744 317.184 240.056 315.838" stroke="black" stroke-width="2" stroke-linecap="round" stroke-linejoin="round"/>
<path d="M196.866 226.295C202.874 224.761 208.638 225.123 210.769 225.496L200.222 234.765" stroke="black" stroke-width="2" stroke-linecap="round" stroke-linejoin="round"/>
<path d="M249.442 212.552L238.576 219.743L247.205 220.862" stroke="black" stroke-width="2" stroke-linecap="round" stroke-linejoin="round"/>
<path d="M196.871 289.821C168.81 294.318 119.944 290.927 88.3179 254.197L106.923 257.409C145.603 283.618 177.911 274.003 195.203 269.35C212.495 264.698 212.561 287.307 196.871 289.821Z" fill="#35D2FF"/>
<path d="M88.3179 254.197C119.944 290.927 168.81 294.318 196.871 289.821C212.561 287.307 212.495 264.698 195.203 269.35C177.911 274.003 145.603 283.618 106.923 257.409" stroke="black" stroke-width="2" stroke-linecap="round" stroke-linejoin="round"/>
<path d="M253.35 236.844C274.496 229.22 284.842 216.063 289.112 194.357C289.71 194.667 290.82 196.381 290.474 200.754C290.043 206.22 283.752 241.003 282.169 247.908C280.587 254.813 276.128 267.472 254.406 277.829C226.094 291.329 229.813 245.33 253.35 236.844Z" fill="#35D2FF" stroke="black" stroke-width="2" stroke-linecap="round" stroke-linejoin="round"/>
<path d="M252.861 247.903C265.338 246.301 261.79 269.766 249.542 271.025C237.294 272.284 241.186 249.506 252.861 247.903Z" fill="#FFC835" stroke="black" stroke-width="2" stroke-linecap="round" stroke-linejoin="round"/>
<g style="mix-blend-mode:darken" opacity="0.5">
<path d="M88.7388 254.551C94.8267 271.176 112.336 294.384 154.994 303.059C171.808 306.479 157.321 321.933 150.026 328.719C154.324 326.787 165.465 318.711 180.837 291.447C153.469 292.194 111.416 283.153 88.7388 254.551Z" fill="#0E9FFF"/>
</g>
<g style="mix-blend-mode:darken" opacity="0.5">
<path d="M216.18 304.063C222.622 307.036 231.169 291.056 229.311 279.411C234.346 290.671 234.449 301.993 233.367 313.854C232.558 322.724 254.831 341.767 257.979 329.172C259.909 332.608 258.763 335.804 253.94 338.215C249.117 340.627 247.007 338.878 243.872 335.14C241.156 330.558 237.188 328.56 233.929 326.919C231.41 325.65 229.314 324.595 228.548 322.724C225.639 324.508 222.243 325.728 220.909 326.115C218.255 320.234 216.752 309.368 216.18 304.063Z" fill="#FF8C25"/>
<path d="M235.565 259.143C235.046 259.571 232.558 260.145 232.558 260.145C229.311 278.32 235.565 283.084 245.434 285.005L244.261 294.31C258.689 290.27 265.925 279.765 271.351 266.722C257.404 278.344 230.05 290.003 235.565 259.143Z" fill="#FF8C25"/>
</g>
<path d="M226.162 18.6923C226.291 18.2324 226.436 17.7721 226.597 17.3117C194.513 44.4796 228.408 69.3197 253.506 48.8786C234.927 48.3761 221.951 33.7441 226.162 18.6923Z" fill="#FF8C25"/>
<path d="M224.527 40.0816C219.352 34.648 225.562 14.9834 232.289 9.80847M226.597 17.3117C221.163 32.8367 234.359 48.3607 253.506 48.8786C228.408 69.3197 194.513 44.4796 226.597 17.3117Z" stroke="black" stroke-width="2" stroke-linecap="round" stroke-linejoin="round"/>
</svg>
