<svg width="417" height="253" viewBox="0 0 417 253" fill="none" xmlns="http://www.w3.org/2000/svg">
<path opacity="0.1" d="M32.6227 75.1909C29.0827 79.1309 25.5727 83.0009 22.2627 86.9909C18.9607 90.8782 15.9207 94.9806 13.1627 99.2709C10.5127 103.461 8.30268 107.961 7.70268 112.181C7.39424 114.096 7.59427 116.058 8.28269 117.871C8.60277 118.659 9.04485 119.391 9.59269 120.041C10.0587 120.565 10.6409 120.972 11.2927 121.231C12.0916 121.526 12.9317 121.695 13.7827 121.731C14.8354 121.779 15.8902 121.725 16.9327 121.571C19.3057 121.224 21.6467 120.686 23.9327 119.961C28.7127 118.551 33.5627 116.671 38.5027 114.961C43.4427 113.251 48.4427 111.501 53.5827 110.141C56.1527 109.471 58.7427 108.851 61.3727 108.401C62.6827 108.171 63.9927 107.971 65.3127 107.791C66.6327 107.611 67.9527 107.511 69.3127 107.461C59.4827 111.401 50.4327 116.231 41.0027 120.841C36.2365 123.243 31.3426 125.383 26.3427 127.251C23.67 128.22 20.9156 128.946 18.1127 129.421C16.569 129.667 15.005 129.765 13.4427 129.711C11.6732 129.654 9.92852 129.278 8.2927 128.601C6.51845 127.864 4.9401 126.724 3.68266 125.271C2.54093 123.916 1.65034 122.369 1.05271 120.701C-0.0723706 117.573 -0.300999 114.192 0.392678 110.941C1.00322 108.027 2.05893 105.224 3.52268 102.631C4.88642 100.192 6.45543 97.8736 8.21269 95.7009C11.6336 91.5298 15.4626 87.7108 19.6427 84.3009C21.7027 82.6109 23.8027 80.9909 25.9927 79.4809C28.1827 77.9709 30.3227 76.5109 32.6227 75.1909Z" fill="#00D6FF"/>
<path opacity="0.1" d="M284.433 192.861C285.682 191.104 287.147 189.512 288.793 188.121C290.562 186.604 292.596 185.428 294.793 184.651C297.465 183.752 300.352 183.721 303.043 184.561C305.742 185.509 308.153 187.134 310.043 189.281C313.081 192.859 315.43 196.968 316.973 201.401C318.401 205.261 319.626 209.193 320.643 213.181C321.643 217.001 322.573 220.711 323.563 224.181C324.421 227.479 325.6 230.684 327.083 233.751C328.338 236.469 330.468 238.687 333.133 240.051C334.749 240.799 336.468 241.298 338.233 241.531C340.251 241.785 342.28 241.935 344.313 241.981C342.656 243.39 340.795 244.54 338.793 245.391C336.623 246.316 334.292 246.805 331.933 246.831C329.339 246.815 326.783 246.203 324.463 245.041C322.156 243.882 320.076 242.317 318.323 240.421C315.219 236.965 312.757 232.983 311.053 228.661C309.466 224.777 308.15 220.787 307.113 216.721C306.113 212.821 305.233 208.991 304.343 205.381C303.629 202.102 302.597 198.9 301.263 195.821C300.784 194.708 300.106 193.692 299.263 192.821C298.281 191.973 297.056 191.455 295.763 191.341C293.979 191.16 292.179 191.224 290.413 191.531C288.523 191.931 286.533 192.421 284.433 192.861Z" fill="#00D6FF"/>
<path opacity="0.1" d="M44.2231 157.571C42.779 160.214 42.0872 163.203 42.2231 166.211C42.2231 166.551 42.3031 166.891 42.3431 167.211C42.3831 167.531 42.4932 167.871 42.5732 168.211L42.6832 168.691L42.8431 169.161L43.1832 170.101C43.7219 171.324 44.3925 172.484 45.1832 173.561C46.8459 175.791 48.8192 177.771 51.0432 179.441C53.327 181.204 55.7518 182.776 58.2932 184.141C63.5601 186.95 69.0857 189.244 74.7932 190.991C77.6932 191.891 80.6632 192.691 83.6832 193.451C86.7032 194.211 89.8131 194.831 93.0031 195.611C89.8694 196.558 86.639 197.148 83.3731 197.371C80.0828 197.589 76.7797 197.512 73.5031 197.141C66.8454 196.37 60.3964 194.333 54.5031 191.141C51.4772 189.493 48.666 187.478 46.1331 185.141C43.4822 182.745 41.3251 179.855 39.7831 176.631C39.5931 176.211 39.4031 175.801 39.2331 175.381C39.0631 174.961 38.9432 174.501 38.7932 174.061C38.5174 173.178 38.3068 172.275 38.1631 171.361C37.9036 169.516 37.9815 167.639 38.3931 165.821C38.7999 164.078 39.5625 162.437 40.6331 161.001C41.6173 159.654 42.8328 158.493 44.2231 157.571Z" fill="#00D6FF"/>
<path opacity="0.1" d="M211.873 238.641C197.053 260.311 109.233 255.061 109.233 227.641C109.233 209.421 141.163 190.821 141.163 177.641C141.163 166.141 126.163 168.011 126.163 167.911C126.163 152.401 158.113 157.911 158.113 171.031C158.113 186.661 115.243 208.541 115.243 225.151C115.243 245.151 191.873 251.151 209.583 235.941C210.499 236.7 211.274 237.613 211.873 238.641Z" fill="#00D6FF"/>
<path opacity="0.2" d="M416.633 154.411C416.633 170.591 375.163 240.201 334.633 243.471C312.013 245.291 314.563 188.031 294.003 188.031C286.003 188.031 280.313 200.391 263.283 202.711C239.473 205.991 223.443 186.391 201.853 186.391C192.243 186.391 190.363 187.901 195.853 199.881C199.943 208.731 213.193 220.411 213.193 228.941C213.193 252.451 115.193 247.811 115.193 225.191C115.193 205.101 176.433 178.361 152.423 162.491C149.936 160.855 147.16 159.708 144.243 159.111C113.323 153.471 124.343 195.111 85.1531 195.111C57.2631 195.111 42.5631 173.201 42.5631 163.191C42.5631 146.191 95.0331 161.311 95.0331 144.071C95.0331 137.071 103.273 106.811 87.5331 106.071C55.1231 104.621 12.533 139.511 7.12305 117.441C-0.746953 85.441 72.373 42.811 78.343 42.811C132.083 20.101 100.953 74.811 127.533 74.811C141.213 74.811 150.413 60.461 178.743 60.461C214.573 60.461 249.683 85.021 285.743 91.381C296.743 93.321 341.383 92.681 342.393 112.771C343.023 124.471 323.023 135.811 323.023 144.581C323.023 157.961 359.473 139.711 383.023 139.711C400.323 139.711 416.633 142.321 416.633 154.411Z" fill="#00D6FF"/>
<path d="M381.593 214.331C381.593 215.231 358.443 241.551 334.593 243.471C310.743 245.391 313.233 175.931 289.013 189.521C305.283 176.131 319.153 205.661 328.013 224.131C338.443 246.031 362.953 230.991 381.593 214.331Z" fill="white"/>
<path d="M213.203 228.941C213.203 252.451 115.203 247.811 115.203 225.191C115.203 211.351 144.973 193.851 154.893 179.361C150.073 199.251 124.023 206.871 124.023 224.361C124.023 236.661 182.793 238.261 182.893 238.261C204.923 238.241 213.203 224.531 213.203 228.941Z" fill="white"/>
<path d="M111.823 183.681C90.4129 209.131 42.6128 187.961 42.6128 163.221C42.6128 157.561 48.4428 155.461 56.2228 154.541C54.5328 157.861 50.7128 161.611 50.7128 166.601C50.7128 181.851 86.5328 200.831 110.213 184.601C110.733 184.266 111.27 183.959 111.823 183.681Z" fill="white"/>
<path d="M95.273 109.251C95.273 112.691 94.4231 106.441 87.5831 106.131C55.1731 104.681 12.583 139.571 7.17305 117.501C1.11305 92.8709 46.493 56.3109 78.353 42.8809C65.273 54.1409 13.763 83.6208 13.763 108.601C13.763 113.821 16.923 118.221 23.703 118.221C42.043 118.221 55.703 101.551 93.093 105.761C94.623 107.141 95.273 108.291 95.273 109.251Z" fill="white"/>
<path opacity="0.4" d="M138.803 73.8111C138.803 88.7311 131.803 98.8711 110.123 100.971L103.253 99.7211C91.9127 94.0811 74.4927 51.0311 74.4927 50.9311C74.4927 48.2811 75.9827 45.5311 78.3927 42.8711C132.133 20.1611 101.003 74.8711 127.583 74.8711C137.643 74.8911 138.803 69.5411 138.803 73.8111ZM383.023 139.711C359.843 139.711 323.023 157.961 323.023 144.581C323.023 135.771 343.273 124.471 342.493 112.851C331.5 62 301.913 139.695 247.603 121.251C156.883 90.4811 168.443 112.941 127.803 124.191C119.953 126.361 108.503 127.051 97.0127 128.011C94.7227 155.011 95.9228 151.921 61.3228 154.101C70.1728 161.561 67.4327 183.861 88.2627 183.861C99.6027 183.861 103.933 169.221 113.783 163.861C119.783 168.051 114.443 175.591 115.213 179.171C122.683 168.091 126.653 155.861 144.333 159.081C147.249 159.678 150.025 160.825 152.513 162.461C160.513 164.221 163.183 169.151 163.183 184.331C163.183 184.431 146.703 279.141 187.613 204.941C196.053 206.001 205.063 219.721 211.863 223.531C208.373 215.891 199.193 206.981 195.863 199.851C190.333 187.851 192.213 186.361 201.863 186.361C223.433 186.361 239.513 205.961 263.293 202.681C273.693 194.781 281.693 182.161 293.933 177.361C330.013 163.221 335.213 191.071 352.993 191.071C368.243 191.071 370.733 179.321 370.733 165.231C370.733 153.231 374.233 146.081 389.623 146.081C410.813 146.081 412.733 158.481 412.873 167.561C419.643 151.811 420.473 139.711 383.023 139.711Z" fill="#00A2FF"/>
<path d="M111.073 28.121C110.073 23.981 105.583 22.571 101.543 23.861L100.823 23.321C100.743 12.611 95.0629 2.32098 84.8929 5.69098C69.4029 10.691 72.1629 47.401 80.3929 53.111C90.6429 60.181 113.663 38.981 111.073 28.121Z" fill="#BFB5F2"/>
<path d="M86.0832 54.5712C73.2132 53.4812 73.0831 37.6812 89.2331 37.6812C99.6031 37.6812 104.913 46.5412 94.0231 52.8112L86.0832 54.5712Z" fill="#A382E5"/>
<path d="M112.183 88.0309C97.473 76.7209 92.723 55.7409 92.063 38.5009C88.493 37.1509 86.2029 37.6109 85.1529 39.8409C84.8929 56.6309 94.8629 85.7409 105.353 95.1909L112.183 88.0309Z" fill="white"/>
<path d="M105.353 95.191C94.8629 85.741 84.8929 56.631 85.1529 39.841M92.063 38.501C92.723 55.741 97.473 76.7209 112.183 88.0309" stroke="#163050" stroke-width="3" stroke-linecap="round" stroke-linejoin="round"/>
<path d="M77.0229 48.4409C71.1729 33.3309 72.9129 9.57092 84.9329 5.69092C79.8029 18.1409 82.4429 27.5109 84.5729 38.2009C74.6229 40.6009 77.0229 48.4409 77.0229 48.4409Z" fill="#A382E5"/>
<path d="M97.2729 40.161C108.013 35.931 107.273 27.161 108.043 24.791C113.113 27.271 109.863 39.1511 99.043 48.2111C99.483 45.0811 99.1629 42.751 97.2729 40.161Z" fill="#A382E5"/>
<path d="M95.6729 26.8113C95.8729 23.6113 96.6729 20.3713 99.0829 18.0713C100.523 18.6813 101.173 20.9113 101.173 22.1413C101.173 24.9213 98.0729 25.6913 95.6729 26.8113Z" fill="#A382E5"/>
<path opacity="0.3" d="M92.3831 40.1609C92.3831 44.3109 88.5531 41.5709 89.0531 46.1609C90.5231 59.8409 94.1531 71.1609 100.583 81.5309C103.293 85.8909 106.173 85.0109 108.333 85.0109L111.803 88.0109C111.803 89.2209 107.603 94.4709 105.803 94.4709C102.013 94.4709 87.053 72.0909 85.123 38.2809C87.383 38.0309 92.3831 36.9309 92.3831 40.1609Z" fill="#163050"/>
<path d="M86.0831 54.5712C73.2131 53.4812 73.083 37.6812 89.233 37.6812C99.603 37.6812 104.913 46.5412 94.023 52.8112M100.823 23.3212C100.603 -7.49878 62.383 0.321228 77.003 48.5212M96.923 50.9212C99.273 49.3812 116.433 33.3812 109.703 25.4912C107.123 22.4912 102.083 22.4312 96.413 26.5912" stroke="#163050" stroke-width="3" stroke-linecap="round" stroke-linejoin="round"/>
<path d="M91.8027 16.1309C91.5527 13.2009 90.0427 12.8809 88.9327 11.9209C85.4627 8.92092 93.7427 6.3809 95.1727 15.7209C95.6027 18.5409 92.1527 20.0909 91.8027 16.1309Z" fill="white"/>
<path d="M342.023 130.731C331.223 155.631 325.753 169.591 280.253 173.881L310.163 140.591C333.643 143.591 341.523 131.871 342.023 130.731Z" fill="#00D6FF"/>
<path opacity="0.6" d="M324.673 141.071L304.513 169.681C304.513 169.681 283.513 175.031 280.283 173.881C323.573 128.011 300.633 143.601 324.673 141.071Z" fill="#00A2FF"/>
<path d="M308.893 168.401C332.153 160.341 335.313 145.101 345.973 121.901C367.913 74.1609 407.323 75.8109 387.083 108.461C356.563 157.711 300.963 171.721 308.893 168.401Z" fill="#00A2FF"/>
<path d="M341.693 131.491C341.693 131.491 333.693 143.601 310.193 140.591M308.023 168.811C354.423 153.511 376.393 125.751 387.023 108.511C407.263 75.8611 367.853 74.2111 345.913 121.951C331.913 152.421 330.843 169.151 280.223 173.951" stroke="#163050" stroke-width="3" stroke-linecap="round" stroke-linejoin="round"/>
<path d="M384.453 103.811C392.983 85.8111 372.543 90.4111 358.773 110.171C340.103 136.971 372.133 129.811 384.453 103.811Z" fill="#0075CF"/>
<path d="M384.023 102.321C391.523 87.7311 373.933 90.8711 362.833 106.611C348.783 126.521 373.913 121.991 384.023 102.321Z" fill="#FFC858"/>
<path d="M384.023 102.321C380.363 109.431 371.023 118.321 363.893 119.461C367.793 118.821 376.173 112.461 379.803 105.461C387.903 89.961 362.903 100.231 358.953 114.971C359.263 112.741 360.553 109.841 362.833 106.601C374.023 90.811 391.473 87.811 384.023 102.321Z" fill="white"/>
<path d="M384.023 102.321C391.523 87.7311 373.933 90.8711 362.833 106.611C348.783 126.521 373.913 121.991 384.023 102.321Z" stroke="#163050" stroke-width="3" stroke-linecap="round" stroke-linejoin="round"/>
<path d="M250.873 85.161C250.973 85.161 313.003 76.861 332.233 80.741C338.333 81.971 339.943 85.521 336.593 92.741C343.863 96.901 337.433 105.151 337.383 105.041C339.583 109.681 338.603 111.881 335.953 115.551C323.393 132.931 301.393 159.961 277.713 182.551C249.113 209.851 232.043 174.761 99.5028 140.011C91.6428 137.951 85.6128 131.011 85.5928 122.921C85.5928 114.491 89.7728 112.161 98.4728 102.991C104.093 97.081 178.943 85.161 250.873 85.161Z" fill="#00A2FF"/>
<path d="M333.773 78.1309C247.773 221.551 242.493 134.191 101.773 108.711C96.9229 108.131 92.6329 109.761 88.7729 113.321C164.283 30.3209 160.613 33.2509 168.633 28.7109C178.284 23.0695 189.657 21.129 200.633 23.2509C233.413 29.5609 290.383 42.3408 328.633 60.9808C330.15 61.7127 331.498 62.7524 332.591 64.0338C333.684 65.3151 334.498 66.8101 334.981 68.4234C335.465 70.0367 335.607 71.7331 335.399 73.4044C335.191 75.0757 334.637 76.6854 333.773 78.1309Z" fill="#00D6FF"/>
<path opacity="0.3" d="M207.283 24.6112C165.713 46.0912 126.533 77.6811 112.433 110.851C102.303 108.601 96.263 106.421 88.873 113.321L157.873 37.4912C161.203 33.8112 177.093 16.8111 207.283 24.6112Z" fill="#00A2FF"/>
<path d="M88.8729 113.321L157.873 37.4912C163.193 31.6458 169.926 27.2661 177.426 24.7725C184.927 22.2788 192.942 21.755 200.703 23.2512C233.483 29.5612 290.443 42.3412 328.703 60.9812C330.209 61.7247 331.544 62.7732 332.624 64.0601C333.703 65.3471 334.503 66.8443 334.974 68.4569C335.444 70.0695 335.574 71.7622 335.355 73.4276C335.136 75.093 334.574 76.6948 333.703 78.1312C323.863 94.5312 303.473 125.821 278.703 148.631C273.756 153.215 267.695 156.423 261.122 157.936C254.55 159.448 247.696 159.212 241.243 157.251C193.503 142.541 83.3829 82.4312 85.5129 122.941C85.7217 126.896 87.1814 130.683 89.6815 133.754C92.1815 136.826 95.5927 139.024 99.4229 140.031C231.833 174.741 249.053 209.851 277.633 182.571C301.303 159.981 323.313 132.951 335.873 115.571C336.997 114.022 337.735 112.226 338.024 110.333C338.313 108.44 338.144 106.506 337.533 104.691" stroke="#163050" stroke-width="3" stroke-linecap="round" stroke-linejoin="round"/>
<path d="M125.633 136.541C116.013 133.941 109.843 132.681 106.213 131.941C94.923 129.621 96.1431 118.391 108.443 120.551C120.743 122.711 201.253 153.551 239.323 167.981C262.233 176.681 282.653 165.881 336.203 93.1813C340.013 88.0213 339.543 83.1813 332.203 81.5713M336.713 93.0913C341.243 95.9713 340.503 100.851 336.613 105.211C250.893 201.441 280.213 192.901 190.803 158.531M109.703 110.441C105.674 114.264 102.091 118.531 99.0231 123.161M176.203 153.041C164.873 148.881 155.133 145.551 146.803 142.871L176.203 153.041Z" stroke="#163050" stroke-width="3" stroke-linecap="round" stroke-linejoin="round"/>
<path opacity="0.3" d="M262.133 125.491C265.493 121.281 303.603 103.791 303.603 80.3211C303.603 69.1811 288.443 68.421 288.443 58.941C288.443 49.111 320.963 67.941 320.963 77.171C320.963 83.971 288.573 133.871 266.903 133.871C263.353 133.871 256.243 132.861 262.133 125.491ZM248.313 142.211C255.923 142.211 254.913 131.701 247.103 131.701C239.293 131.701 238.023 142.211 248.313 142.211Z" fill="white"/>
<path d="M312.293 85.3508C311.293 86.4008 308.953 85.1308 309.363 83.7508C309.873 82.0608 311.933 77.3408 311.693 75.6408C311.003 70.5408 304.993 71.1408 305.913 68.0408C307.273 63.4708 324.023 72.9808 312.293 85.3508Z" fill="white"/>
<path d="M70.7428 146.631C64.4128 150.631 69.0029 162.921 77.5429 175.421C85.0729 186.421 95.3129 181.421 93.9329 172.101C80.3829 139.501 71.1828 146.361 70.7428 146.631Z" fill="white"/>
<path d="M161.323 138.511C131.453 145.081 111.323 162.111 95.6029 170.791C84.4129 176.971 84.9029 167.611 90.6029 162.441C104.603 149.771 125.783 133.551 140.843 130.361L161.323 138.511Z" fill="#FFC858"/>
<path d="M91.7126 173.001C67.3026 173.001 153.713 139.001 129.513 135.711L138.273 130.961C145.153 130.961 153.093 136.581 159.043 138.961C126.023 149.731 105.233 165.441 91.7126 173.001Z" fill="#FFAC40"/>
<path opacity="0.5" d="M73.6629 145.921C69.3629 152.311 77.3129 173.731 93.4129 173.731C95.5229 173.731 92.723 186.881 81.923 179.861C71.603 173.151 60.1929 144.381 73.6629 145.921Z" fill="#B5B7B4"/>
<path d="M90.203 163.141C85.423 154.331 77.2029 142.601 70.7429 146.631C64.2829 150.661 69.003 162.921 77.543 175.421C85.073 186.421 95.313 181.421 93.933 172.101M160.603 138.471C136.523 144.161 102.983 165.291 93.063 172.671C87.563 176.141 82.773 169.591 88.443 164.941C88.443 164.941 114.183 139.411 138.943 131.291L160.603 138.471Z" stroke="#163050" stroke-width="3" stroke-linecap="round" stroke-linejoin="round"/>
<path d="M182.023 187.191C182.023 187.191 186.593 164.861 194.193 151.121L179.673 145.731C170.173 165.941 168.783 205.561 168.783 205.561L182.023 187.191Z" fill="#FFC858"/>
<path d="M167.523 218.911C167.523 226.741 173.643 230.421 180.053 221.361C205.713 185.081 167.523 168.131 167.523 218.911Z" fill="white"/>
<path d="M184.693 161.491C184.693 170.221 178.843 182.661 177.453 188.141C185.893 187.321 177.823 190.311 190.613 159.311C192.313 155.201 194.133 150.971 194.763 150.231C183.283 146.171 180.033 144.671 180.033 144.671C177.593 148.491 175.503 158.471 175.503 158.471C178.733 151.181 184.693 153.011 184.693 161.491Z" fill="#FFAC40"/>
<path opacity="0.5" d="M170.903 198.391C168.643 210.731 182.013 217.521 187.573 204.971C178.623 237.081 159.133 233.701 170.903 198.391Z" fill="#B5B7B4"/>
<path d="M168.753 205.561C168.753 205.561 170.143 165.941 179.643 145.731L194.163 151.121C186.563 164.861 181.993 187.191 181.993 187.191M167.523 218.911C167.523 226.741 173.643 230.421 180.053 221.361C205.713 185.081 167.523 168.131 167.523 218.911Z" stroke="#163050" stroke-width="3" stroke-linecap="round" stroke-linejoin="round"/>
<path d="M189.023 79.1509C174.703 113.021 217.863 107.681 230.153 89.8909C216.843 88.8109 199.673 83.8109 189.023 79.1509Z" fill="#163050"/>
<path d="M192.793 81.3911C188.003 97.1711 208.603 96.3411 228.693 91.8811C232.533 86.2911 228.833 94.3611 192.793 81.3911Z" fill="white"/>
<path d="M192.793 81.3911C188.263 96.3111 207.983 96.6311 227.123 92.8611" stroke="#163050" stroke-width="3" stroke-linecap="round" stroke-linejoin="round"/>
<path d="M189.023 79.1509C174.703 113.021 217.863 107.681 230.153 89.8909C216.843 88.8109 199.673 83.8109 189.023 79.1509Z" stroke="#163050" stroke-width="3" stroke-linecap="round" stroke-linejoin="round"/>
<path d="M179.873 58.3213C181.894 60.6788 184.273 62.7036 186.923 64.3213M258.333 85.6313C263.473 85.6313 268.443 85.6313 273.463 84.3913M252.023 92.3513C252.893 93.5047 253.853 94.5881 254.893 95.5913" stroke="#163050" stroke-width="3" stroke-linecap="round" stroke-linejoin="round"/>
<path d="M216.023 69.1609C222.083 62.4909 208.223 58.1609 202.023 65.0309" stroke="#163050" stroke-width="3" stroke-linecap="round" stroke-linejoin="round"/>
<path d="M245.303 77.7312C251.363 71.0712 237.503 66.7912 231.303 73.6112" stroke="#163050" stroke-width="3" stroke-linecap="round" stroke-linejoin="round"/>
<g opacity="0.2">
<path opacity="0.2" d="M144.893 55.3111C145.443 55.3111 175.583 33.4511 212.003 33.1111C222.263 33.0211 240.003 38.0111 240.003 31.7011C240.003 24.0811 214.063 20.8911 205.863 20.8911C155.473 20.8911 132.543 55.3111 144.893 55.3111Z" fill="#5C4396"/>
</g>
<path d="M154.623 24.101C175.183 -8.47896 205.413 2.34109 217.233 10.4611C217.538 11.3503 217.703 12.2812 217.723 13.221C217.723 14.011 162.893 30.5611 162.793 30.5611C159.593 30.5611 156.733 28.921 154.623 24.101Z" fill="#BFB5F2"/>
<path d="M161.533 25.2511C140.263 18.2511 137.083 54.3911 141.763 54.3911C149.383 54.3911 159.353 37.8211 159.353 37.8211C178.233 37.8211 182.443 30.4211 182.443 30.4211C187.543 30.4211 190.233 31.3311 203.983 25.4911C210.08 27.3608 216.5 27.9398 222.833 27.1911C228.038 29.2727 233.507 30.6189 239.083 31.1911C242.863 14.4211 234.183 10.8011 221.603 10.1911C217.873 10.0311 215.863 10.7511 214.483 14.0011C210.283 9.00112 201.483 9.20111 198.243 16.9311C193.243 13.4611 186.123 10.0011 183.483 18.0511C176.873 15.1111 166.303 15.9711 161.533 25.2511Z" fill="#BFB5F2"/>
<path d="M199.703 16.5909C204.993 18.8909 206.433 22.0909 212.773 22.0909C220.563 22.0909 215.633 15.0109 215.633 14.2009C215.633 10.4409 225.173 21.1109 227.803 21.1109C233.043 21.1109 236.863 15.2309 225.453 11.0009C229.453 9.49088 240.043 14.1209 240.043 23.0009C240.043 26.0809 239.923 30.6009 236.883 30.6009C232.883 30.6009 223.463 27.2309 221.553 27.2309C219.643 27.2309 217.993 27.5409 216.193 27.5409C215.323 27.5409 205.453 26.5409 204.343 25.6509C202.483 24.1609 200.933 19.0109 199.703 16.5909Z" fill="#A382E5"/>
<path d="M222.703 26.6208C224.373 29.2708 225.433 27.9608 239.083 31.1808C240.633 25.5208 245.613 10.3008 220.083 10.3008C215.973 10.3008 214.523 11.7808 214.443 14.0408" stroke="#163050" stroke-width="3" stroke-linecap="round" stroke-linejoin="round"/>
<path d="M203.883 24.9609C204.276 25.6042 204.846 26.1201 205.526 26.4465C206.206 26.773 206.965 26.896 207.713 26.8009C217.613 26.8009 216.503 27.6509 220.323 27.6509C228.933 27.6509 206.153 -0.45916 198.243 16.9708" stroke="#163050" stroke-width="3" stroke-linecap="round" stroke-linejoin="round"/>
<path d="M203.643 24.461C203.643 23.531 202.763 22.4609 200.563 21.0309C192.383 28.4109 182.493 26.351 185.803 14.561C185.093 15.351 184.723 16.5609 183.803 17.0309C176.023 21.2409 178.203 31.0309 169.983 31.0309C165.103 31.0309 167.443 20.9009 174.103 17.6609C166.903 12.2109 173.903 7.121 177.603 3.771C176.713 4.131 163.983 7.98096 153.903 24.551C142.573 30.081 139.663 40.661 139.953 49.941C140.363 63.361 158.023 38.871 159.363 37.861C167.523 38.921 182.453 30.461 182.453 30.461C190.593 31.941 203.643 27.241 203.643 24.461Z" fill="#A382E5"/>
<path d="M203.573 24.5013C198.483 12.7613 180.573 4.3313 182.353 29.4013C182.633 33.1713 204.943 27.6813 203.573 24.5013Z" stroke="#163050" stroke-width="3" stroke-linecap="round" stroke-linejoin="round"/>
<path d="M182.353 29.4012C182.263 34.6912 158.213 40.4012 158.553 36.9112C161.053 11.1712 181.973 17.1812 182.553 17.4012" stroke="#163050" stroke-width="3" stroke-linecap="round" stroke-linejoin="round"/>
<path d="M158.483 38.0709C157.303 44.7009 142.943 54.2009 142.583 54.2009C135.043 54.2009 143.393 18.0309 161.583 25.2509" stroke="#163050" stroke-width="3" stroke-linecap="round" stroke-linejoin="round"/>
<path d="M154.623 24.101C175.183 -8.47896 205.413 2.34109 217.233 10.4611" stroke="#163050" stroke-width="3" stroke-linecap="round" stroke-linejoin="round"/>
<path opacity="0.2" d="M59.9628 125.551C59.9628 145.961 6.48291 152.261 6.48291 131.071C6.48291 120.491 21.4829 110.691 31.9029 110.691C42.5129 110.691 59.9628 116.011 59.9628 125.551Z" fill="#00D6FF"/>
<path d="M42.1227 103.021C64.6927 103.021 72.0127 137.421 35.9727 137.421C3.13273 137.421 18.8527 103.021 42.1227 103.021Z" fill="url(#paint0_radial)"/>
<path opacity="0.2" d="M383.583 77.0309C374.943 77.0309 364.903 74.0309 364.233 65.5309C349.823 65.4809 333.133 60.2609 333.133 45.5309C333.133 30.1709 354.133 17.4109 368.223 18.0409C391.133 19.0409 396.713 22.8709 401.963 52.0409C419.073 61.2409 405.313 77.0309 383.583 77.0309Z" fill="#00D6FF"/>
<path d="M381.023 8.67104C409.943 10.221 423.483 55.9011 375.683 55.4411C330.153 55.0111 349.263 6.96104 381.023 8.67104Z" fill="url(#paint1_radial)"/>
<path d="M393.843 41.8108C411.733 42.8108 420.113 71.0308 390.533 70.7508C362.363 70.5208 374.183 40.8108 393.843 41.8108Z" fill="url(#paint2_radial)"/>
<defs>
<radialGradient id="paint0_radial" cx="0" cy="0" r="1" gradientUnits="userSpaceOnUse" gradientTransform="translate(39.3182 106.574) rotate(95.3914) scale(48.7108 48.5541)">
<stop stop-color="white"/>
<stop offset="1" stop-color="#BAFCFF"/>
</radialGradient>
<radialGradient id="paint1_radial" cx="0" cy="0" r="1" gradientUnits="userSpaceOnUse" gradientTransform="translate(378.181 13.4622) rotate(95.2963) scale(66.2846 64.9194)">
<stop stop-color="white"/>
<stop offset="1" stop-color="#BAFCFF"/>
</radialGradient>
<radialGradient id="paint2_radial" cx="0" cy="0" r="1" gradientUnits="userSpaceOnUse" gradientTransform="translate(392.08 44.778) rotate(95.297) scale(41.011 40.1714)">
<stop stop-color="white"/>
<stop offset="1" stop-color="#BAFCFF"/>
</radialGradient>
</defs>
</svg>
