<svg width="397" height="457" viewBox="0 0 397 457" fill="none" xmlns="http://www.w3.org/2000/svg">
<path d="M336.661 373.75C336.464 382.674 333.161 391.25 327.321 398C314.321 410 294.321 407 284.321 422C282.321 416 276.321 413 274.321 407C276.321 412 276.321 417 275.821 422C276.321 428 269.321 430 265.321 431C266.321 420 258.321 411 253.321 402C252.321 409 246.321 412 242.321 415.89C239.775 412.316 236.981 408.924 233.961 405.74C230.341 404 227.341 399 223.341 397C227.341 402 229.341 410 224.341 416C222.341 418 218.341 419 216.341 416C215.341 413 213.341 410 217.341 408C211.341 410 206.341 412 203.341 418C201.341 410 194.341 405 190.341 398C193.341 403 191.341 407 191.341 412C188.341 408 184.341 407 180.341 405C180.341 410 173.341 416 171.341 412C169.341 408 174.341 401 180.341 398C168.341 401 161.341 412 157.341 423C156.791 419.948 155.619 417.042 153.899 414.461C152.179 411.881 149.947 409.682 147.341 408C145.341 416 142.341 424 137.341 431C135.341 419 126.341 411 122.341 400C123.341 420 118.341 438 113.341 457C98.3411 445 101.341 424 96.341 408C93.341 419 92.341 431 92.341 443C91.341 438 88.3411 433 87.4711 427.83C83.7104 412.476 83.3181 396.49 86.3211 380.97C76.8611 393.32 71.3811 408.03 70.3211 424.97C67.3211 420.97 67.3211 415.97 65.3211 411.97C62.2532 420.221 56.181 427.007 48.3211 430.97C51.3211 417.97 57.3211 402.97 51.2211 389.6C47.2611 400.95 43.3211 412 34.3211 419C36.6011 398.11 44.0211 379.51 53.8711 365.51C38.3211 380.75 24.0211 391.9 19.3211 408C13.3211 396 8.32105 383 1.32105 372C7.32105 378 14.3211 382 22.3211 386C11.3211 369 -3.67895 349 2.32105 327C4.32105 336 11.3211 344 19.3211 347C16.3211 313 15.3211 278 12.3211 244C16.3211 261 15.3211 279 22.3211 295C29.3211 280 33.3211 262 45.3211 249C36.3211 269 34.3211 291 35.3211 312C42.3211 303 40.3211 291 44.3211 281C44.1654 282.728 44.5127 284.465 45.3211 286C47.3211 262 49.3211 237 41.3211 214C58.3211 239 57.3211 271 57.3211 300C63.3211 295 66.3211 287 73.3211 283C68.3211 293 62.3211 305 65.3211 317C77.3211 297 70.3211 274 71.3211 253C77.3211 269 83.3211 284 85.3211 301C87.3211 290 92.3211 279 100.321 271C94.148 283.375 92.384 297.486 95.3211 311C101.321 304 98.3211 294 98.3211 286C103.321 287 102.321 293 105.321 295C104.321 287 102.321 278 103.321 270C105.321 278 114.321 282 115.321 291C110.321 274 118.321 258 120.321 241C117.321 251 122.321 261 122.321 271C129.367 258.882 134.43 245.716 137.321 232C139.321 255 124.321 279 135.321 302C134.321 294 140.321 287 139.321 279C141.321 285 143.321 291 147.321 296C145.321 292 146.321 287 143.321 284C150.321 288 153.321 295 157.321 302C160.518 282.585 167.3 263.934 177.321 247C167.321 273 172.321 303 185.321 328C185.321 327 186.321 327 186.321 326C188.321 327 189.321 330 189.321 332C189.321 326 191.321 321 192.321 316C192.321 322 199.321 324 199.321 330C198.321 313 204.321 297 207.321 280C207.321 298.07 208.321 315 214.321 332C215.321 319 215.321 304 227.321 295C225.321 300 223.321 305 224.321 311C224.321 310 223.321 309 223.321 308C221.321 316 224.321 325 227.321 333C230.321 331 230.321 327 231.321 324C231.321 328 232.321 332 233.321 336C239.321 312 236.321 288 240.321 264C242.321 288 243.321 313 248.321 337C251.3 332.618 254.959 328.739 259.161 325.51C262.281 322 268.281 320 272.281 317C262.281 326 257.281 339 252.281 351C260.626 345.193 270.461 341.899 280.621 341.51C303.321 342 323.321 356 336.661 373.75Z" fill="#6DF3C3"/>
<path d="M92.381 393.907C86.7016 397.065 89.9796 420.731 66.3614 407.632C64.092 390.653 85.717 392.07 92.381 393.907Z" fill="#6DF3C3"/>
<path d="M66.3971 414.656C59.0487 414.5 53.5014 419.002 56.0589 427.54C60.3215 428.176 65.0763 427.167 67.0335 423.937L66.3971 414.656Z" fill="#6DF3C3"/>
<path d="M51.4122 360.203C57.4879 355.052 67.5499 359.855 70.6237 367.095C81.4302 370.145 73.6135 391.11 58.3404 387.7C57.1396 393.703 46.7654 394.7 43.1392 394.352C41.038 391.194 37.2917 388.504 31.7924 390.75C28.8747 385.37 30.8198 381.324 30.8198 381.324C26.7734 375.548 30.0514 368.368 36.067 368.62C38.5765 359.855 43.4874 359.026 51.4122 360.203Z" fill="#35D2FF"/>
<path d="M89.1627 400.547C84.4919 400.427 65.4604 395.648 65.4604 405.434C65.4604 410.309 77.8399 412.855 83.051 409.637C86.1249 407.74 87.8059 403.765 89.1627 400.547Z" fill="#0BD386"/>
<path d="M70.6236 382.633C68.8105 384.77 65.0402 387.844 61.7022 387.844C57.7399 387.844 55.1943 380.003 55.2183 378.742C55.2423 377.482 56.5992 376.269 57.0194 375.14C63.9236 380.58 69.0026 379.655 70.6236 382.633ZM57.2235 386.235C55.5185 387.219 53.8735 388.408 51.6762 388.408C50.9898 388.415 50.309 388.283 49.6751 388.019C49.0413 387.756 48.4674 387.366 47.9882 386.875C47.509 386.383 47.1344 385.8 46.887 385.159C46.6397 384.519 46.5247 383.835 46.5491 383.149C46.5491 381.444 41.9504 385.551 41.9504 390.101C41.9384 398.35 59.8171 393.643 57.2115 386.199L57.2235 386.235ZM30.3394 385.611C30.3394 391.074 43.8955 393.787 40.9778 386.415C35.2503 386.415 33.077 382.417 38.7204 379.319C35.2984 378.887 30.3274 382.453 30.3274 385.575L30.3394 385.611ZM41.2059 376.737C36.2469 375.452 34.9141 373.699 32.1285 369.689C28.6103 371.778 29.1146 376.401 30.7356 380.159C34.038 378.509 37.5662 377.356 41.2059 376.737ZM47.2095 369.533C45.5285 367.059 42.5988 363.133 39.7891 362.124C37.9039 364.034 36.7032 365.727 36.6672 368.5C40.0052 369.401 44.3758 372.979 47.1855 369.533H47.2095ZM50.9918 370.013C57.7879 367.228 53.6934 362.881 59.661 359.891C50.6796 358.342 48.2662 367.131 50.9678 369.977L50.9918 370.013Z" fill="#21B9FF"/>
<path d="M61.4745 420.972C62.9754 419.675 64.5363 416.469 66.2773 415.712C67.0491 417.898 67.5059 420.182 67.6342 422.496C67.6342 427.876 56.2633 427.095 55.3628 426.567C56.6476 423.925 59.3372 422.833 61.4745 420.972Z" fill="#0BD386"/>
<path d="M56.8993 372.09C54.2697 366.627 41.2899 372.871 43.9195 378.346C46.5491 383.821 59.5289 377.565 56.8993 372.09Z" fill="#FFC858"/>
<path d="M48.5904 372.763C46.8974 377.229 53.3092 376.125 55.5546 373.507C57.0435 380.832 44.2318 384.218 44.2318 377.974C44.2077 376.473 45.5646 374.12 48.5904 372.763Z" fill="#FFAC40"/>
<path d="M58.3403 387.7C67.754 403.573 68.2223 432.042 68.2223 432.042" stroke="#163050" stroke-width="3" stroke-linecap="round" stroke-linejoin="round"/>
<path d="M56.8993 372.09C54.2697 366.627 41.2899 372.871 43.9195 378.346C46.5491 383.821 59.5289 377.565 56.8993 372.09Z" stroke="#163050" stroke-width="3" stroke-linecap="round" stroke-linejoin="round"/>
<path d="M43.3315 377.866C34.3501 377.962 26.2333 382.26 31.3243 389.801" stroke="#163050" stroke-width="3" stroke-linecap="round" stroke-linejoin="round"/>
<path d="M46.285 380.255C42.6829 385.887 37.0275 396.105 50.4876 394.1C63.9477 392.095 56.3231 381.684 54.0897 379.199" stroke="#163050" stroke-width="3" stroke-linecap="round" stroke-linejoin="round"/>
<path d="M30.8198 381.3C26.6173 373.471 31.5763 363.926 45.3366 371.946" stroke="#163050" stroke-width="3" stroke-linecap="round" stroke-linejoin="round"/>
<path d="M36.0669 368.596C37.6879 360.864 44.3759 358.859 50.4756 360.96" stroke="#163050" stroke-width="3" stroke-linecap="round" stroke-linejoin="round"/>
<path d="M50.0196 370.037C49.1551 361.728 51.3404 357.333 62.339 359.627C69.6874 361.151 70.3598 366.11 70.3598 366.11" stroke="#163050" stroke-width="3" stroke-linecap="round" stroke-linejoin="round"/>
<path d="M56.8994 372.09C63.7675 366.399 75.9068 364.106 75.6187 373.087C75.3305 382.068 65.3045 392.671 58.6164 386.655" stroke="#163050" stroke-width="3" stroke-linecap="round" stroke-linejoin="round"/>
<path d="M66.0371 405.266C66.0371 392.335 83.2314 391.386 92.3809 393.908C86.7015 397.065 89.9795 420.732 66.3613 407.632" stroke="#163050" stroke-width="3" stroke-linecap="round" stroke-linejoin="round"/>
<path d="M66.3971 414.656C59.0487 414.5 53.5014 419.002 56.0589 427.54C60.3215 428.176 65.0763 427.167 67.0335 423.937" stroke="#163050" stroke-width="3" stroke-linecap="round" stroke-linejoin="round"/>
<path d="M46.1663 429.651C42.0278 436.111 31.624 434.162 29.3621 426.472C34.2799 421.641 43.8476 423.695 46.1663 429.651Z" fill="#6DF3C3"/>
<path d="M45.0523 429.179C43.672 436.869 29.1688 432.558 30.2522 426.522C30.4386 425.484 31.3911 425.237 32.3942 425.417C33.8901 425.686 32.8351 428.021 36.7595 428.726C39.5089 429.079 42.2806 429.231 45.0523 429.179Z" fill="#0BD386"/>
<path d="M42.9248 397.362C50.0335 396.821 51.4822 408.08 41.5682 411.651C42.2658 418.542 27.2977 422.541 23.5351 415.217C17.0922 417.412 6.40804 413.887 13.195 408.257C9.93167 400.732 13.8414 396.711 18.8018 395.893C19.3358 390.54 25.4096 388.478 31.9746 391.473C36.1709 386.513 43.5226 389.123 42.9248 397.362Z" fill="#FFC858"/>
<path d="M18.5285 405.817C13.3677 408.206 11.7097 408.689 12.8246 402.477C13.4232 399.142 16.1594 396.346 19.5554 397.109C17.3676 398.47 16.1534 401.44 18.9779 401.947C20.3153 402.187 22.451 401.825 23.2849 402.138C22.8714 403.127 20.765 404.792 18.5285 405.817ZM15.2859 407.842C4.85409 414.752 22.6903 418.862 23.6078 413.749C24.6154 408.136 20.305 413.175 15.2859 407.842ZM28.9193 418.617C33.3189 419.407 40.3511 416.509 41.4889 413.308C34.7725 414.091 26.3051 416.332 27.4974 408.98C21.9222 413.02 24.3102 417.781 28.9209 418.608L28.9193 418.617ZM36.8533 403.257C35.5892 403.266 36.1455 403.202 34.566 405.88C38.036 406.13 39.5106 409.401 42.0215 410.896C44.3174 409.946 47.4968 407.919 47.9611 405.332C48.0259 404.971 44.6836 404.971 42.9853 404.666C40.6583 404.221 39.3831 403.229 36.8533 403.257ZM32.0729 392.09C30.3762 392.839 29.6105 395.081 29.3876 396.931C29.4756 396.946 35.817 400.074 35.905 400.089C35.993 400.105 47.4568 395.187 42.0542 394.218C40.8663 394.004 35.477 395.744 32.0377 392.084L32.0729 392.09ZM23.5836 393.845C22.4309 393.638 21.4736 392.849 20.3015 392.902C19.6497 393.902 18.8957 395.674 20.1188 395.894C22.5297 396.326 28.5761 400.49 29.2062 396.98C30.1881 391.307 26.9656 394.434 23.5405 393.883L23.5836 393.845Z" fill="#FFAC40"/>
<path d="M35.808 401.134C34.1014 395.006 22.2965 398.283 24.0031 404.411C25.7097 410.539 37.5011 407.288 35.808 401.134Z" fill="#35D2FF"/>
<path d="M26.5155 400.13C26.6579 405.105 32.1928 404.782 32.9231 404.913C34.9821 405.282 30.8838 407.925 27.4697 407.313C24.418 406.756 22.9477 402.55 26.5155 400.13Z" fill="#21B9FF"/>
<path d="M38.9326 416.972C46.1738 424.094 48.5799 434.725 48.6694 437.212" stroke="#163050" stroke-width="3" stroke-linecap="round" stroke-linejoin="round"/>
<path d="M35.808 401.134C34.1014 395.006 22.2965 398.283 24.0031 404.411C25.7097 410.539 37.5011 407.288 35.808 401.134Z" stroke="#163050" stroke-width="3" stroke-linecap="round" stroke-linejoin="round"/>
<path d="M24.0031 404.411C15.7704 403.623 6.19545 412.54 15.2192 415.55C17.9447 416.407 20.8831 416.292 23.5335 415.225" stroke="#163050" stroke-width="3" stroke-linecap="round" stroke-linejoin="round"/>
<path d="M27.1654 407.894C19.484 412.282 25.1137 423.12 37.4791 417.683C43.1601 415.179 44.0725 411.31 35.0374 406.491" stroke="#163050" stroke-width="3" stroke-linecap="round" stroke-linejoin="round"/>
<path d="M35.7094 400.417C47.4525 390.654 54.8068 406.76 41.377 410.69" stroke="#163050" stroke-width="3" stroke-linecap="round" stroke-linejoin="round"/>
<path d="M29.4171 397.726C29.2964 387.114 43.1427 384.913 43.8704 397.305" stroke="#163050" stroke-width="3" stroke-linecap="round" stroke-linejoin="round"/>
<path d="M25.3927 399.147C21.1193 395.428 14.3045 395.141 12.4292 401.035C10.7191 406.413 13.1932 408.265 13.1932 408.265" stroke="#163050" stroke-width="3" stroke-linecap="round" stroke-linejoin="round"/>
<path d="M18.8003 395.902C18.9397 391.785 25.1602 388.097 30.9143 391.056" stroke="#163050" stroke-width="3" stroke-linecap="round" stroke-linejoin="round"/>
<path d="M46.1663 429.651C42.0278 436.111 31.624 434.162 29.3621 426.472C34.2799 421.641 43.8476 423.695 46.1663 429.651Z" stroke="#163050" stroke-width="3" stroke-linecap="round" stroke-linejoin="round"/>
<path d="M236.721 333.32C236.721 333.32 208.491 329.09 203.811 343.32C199.131 357.55 180.361 350.66 175.991 363.64C174.121 369.22 145.991 367.25 146.621 380.76C147.561 401.27 228.751 380.97 244.121 403.76C254.751 419.52 285.371 424.4 301.311 407.42C317.251 390.44 345.691 403.08 358.811 394.15C371.931 385.22 364.131 372.39 376.941 368.78C389.751 365.17 396.311 363.21 395.381 355.96C392.781 335.9 337.781 352.96 324.751 336.76C318.321 328.76 298.591 326.9 291.751 326.49C270.521 323.34 262.781 333.34 236.721 333.32Z" fill="#D3F1FF"/>
<path d="M341.691 412.11C333.991 406.11 315.251 409.95 315.251 418.28C315.241 431.6 356.621 423.67 341.691 412.11Z" fill="#D3F1FF"/>
<path d="M303.971 329.1C306.281 320.64 328.801 285.32 341.041 285.77C345.211 285.92 347.041 288.69 347.041 292.69C347.041 299.75 341.171 302.21 323.481 315.43C317.181 320.11 311.091 325.75 303.971 329.1Z" fill="#D3F1FF"/>
<path d="M340.761 318.86C345.181 314.76 360.421 297.39 366.541 297.61C370.051 297.74 373.841 300.53 373.841 303.82C373.841 312.64 351.241 315.72 340.761 318.86Z" fill="#D3F1FF"/>
<path d="M345.771 249.71C345.771 238.99 365.681 234.71 365.681 249.92C365.681 262.15 345.771 265.78 345.771 249.71Z" fill="#D3F1FF"/>
<path d="M204.091 312.19C201.091 312.36 186.401 308.67 186.401 300.19C186.401 291.96 201.311 294.29 204.091 312.19Z" fill="#D3F1FF"/>
<path d="M156.821 312.07C140.591 311.51 125.541 312.93 125.541 302.07C125.541 285.69 165.021 294.13 176.931 318.25C170.061 316.99 163.671 313.59 156.821 312.07Z" fill="#D3F1FF"/>
<path d="M143.641 334.84C111.641 332.95 104.581 357.84 132.641 358.84C145.301 359.3 166.541 359.56 166.541 347.68C166.591 338.79 152.541 335.37 143.641 334.84Z" fill="#D3F1FF"/>
<path d="M230.461 334.12C230.461 334.12 213.911 334.84 212.141 341.64C210.371 348.44 207.071 350.1 194.711 354.3C204.451 344.08 208.901 327.65 230.461 334.12ZM169.331 369.54C191.041 367.74 179.511 359.34 192.281 354.87C175.071 356.24 175.511 364.67 169.331 369.54ZM146.611 382.66C150.901 401.49 233.251 382.57 241.931 400.76C246.351 410 262.241 423.87 282.761 416.65C303.281 409.43 253.631 397.86 247.671 388.57C241.711 379.28 237.741 378.02 226.051 380.69C214.361 383.36 205.051 382.14 179.481 382.98C153.911 383.82 150.801 378.39 155.871 372.15C155.871 372.15 143.961 371.05 146.611 382.66ZM362.861 389.46C362.861 382.81 354.031 386.92 339.251 388.15C324.471 389.38 324.021 391.15 312.331 398.91C336.241 397.64 362.861 400.59 362.861 389.46ZM392.861 352.24C393.301 355.8 390.211 358.12 381.861 359.81C373.511 361.5 371.041 363.81 369.501 373.09C382.081 365.84 401.051 365.22 392.871 352.23L392.861 352.24ZM321.361 424.24C335.361 428.56 342.361 422.34 342.771 415.94C341.891 416.57 336.591 418.15 331.291 418.4C325.991 418.65 319.161 415.74 322.291 411.4C311.661 415.26 315.441 422.46 321.371 424.26L321.361 424.24Z" fill="#73E2FF"/>
<path d="M122.991 338.83C121.671 345.65 126.991 350.49 143.991 350.67C160.991 350.85 165.391 347.91 165.391 345.03C174.071 366.79 109.101 361.09 115.301 345.42C117.241 340.4 122.991 338.83 122.991 338.83ZM129.241 309.17C131.241 313.45 151.091 310.85 178.241 317.86C171.391 312.77 150.241 305.28 141.411 304.96C132.581 304.64 129.051 300.3 131.921 295.96C121.941 298.94 127.241 304.89 129.241 309.17ZM204.241 311.46C204.241 311.46 187.031 299.09 191.241 295.92C181.121 294.1 182.791 310.32 204.241 311.46Z" fill="#73E2FF"/>
<path d="M307.241 324.96C321.361 304.66 346.301 294.96 345.861 287.83C350.491 290.66 343.211 301.91 338.131 305.27C333.051 308.63 307.241 324.96 307.241 324.96ZM373.001 302.96C372.341 307.59 356.451 306.56 345.201 315.68C372.931 314.31 375.171 304.89 373.011 303L373.001 302.96ZM349.421 258.04C356.701 264.04 366.191 258.43 365.971 249.12C359.311 260.01 344.801 243.04 356.481 242.12C343.911 240.82 342.151 252.06 349.431 258.08L349.421 258.04Z" fill="#73E2FF"/>
<path d="M230.631 344.09C191.481 363.64 257.431 383.59 290.131 367.35C282.291 364.35 272.271 367.03 257.471 366.49C243.831 365.99 218.661 361.18 230.621 344.76C230.751 344.59 230.621 344.31 230.631 344.09Z" fill="#73E2FF"/>
<path d="M236.721 333.32C236.721 333.32 208.491 329.09 203.811 343.32C199.131 357.55 180.361 350.66 175.991 363.64C174.121 369.22 145.991 367.25 146.621 380.76C147.561 401.27 228.751 380.97 244.121 403.76C254.751 419.52 285.371 424.4 301.311 407.42C317.251 390.44 345.691 403.08 358.811 394.15C371.931 385.22 364.131 372.39 376.941 368.78C389.751 365.17 396.311 363.21 395.381 355.96C392.781 335.9 337.781 352.96 324.751 336.76C317.421 327.66 292.751 326.54 289.751 326.38C259.401 324.81 273.761 330.06 236.721 333.32Z" stroke="#163050" stroke-width="3" stroke-linecap="round" stroke-linejoin="round"/>
<path d="M338.301 304.05C316.741 320.51 308.501 325.84 300.691 334.65C334.071 264.9 365.161 283.54 338.301 304.05Z" stroke="#163050" stroke-width="3" stroke-linecap="round" stroke-linejoin="round"/>
<path d="M362.481 299.97C374.091 293.68 381.021 307.55 368.481 311.15C353.081 315.57 347.481 317.23 337.081 321.79C349.521 309.12 357.661 302.58 362.481 299.97Z" stroke="#163050" stroke-width="3" stroke-linecap="round" stroke-linejoin="round"/>
<path d="M138.571 311.25C154.031 310.42 175.001 317.76 180.341 319.99C164.791 298.7 148.961 294.63 137.771 293.86C122.011 292.77 121.531 312.16 138.571 311.25Z" stroke="#163050" stroke-width="3" stroke-linecap="round" stroke-linejoin="round"/>
<path d="M198.691 297.88C206.261 307.23 205.021 312.98 205.021 312.98C173.241 305.31 189.031 285.95 198.691 297.88Z" stroke="#163050" stroke-width="3" stroke-linecap="round" stroke-linejoin="round"/>
<path d="M366.031 244.93C359.531 233.38 340.291 243.86 346.781 255.38C353.271 266.9 372.521 256.46 366.031 244.93Z" stroke="#163050" stroke-width="3" stroke-linecap="round" stroke-linejoin="round"/>
<path d="M131.841 358.57C147.341 359.76 164.841 359.05 166.991 349.74C168.801 341.74 160.271 335.74 144.991 335.19C109.721 333.9 106.941 356.66 131.841 358.57Z" stroke="#163050" stroke-width="3" stroke-linecap="round" stroke-linejoin="round"/>
<path d="M315.941 416.13C317.581 411.01 330.641 407.56 338.941 410.78C347.241 414 344.751 422.46 335.131 424.66C326.241 426.71 313.401 424.05 315.941 416.13Z" stroke="#163050" stroke-width="3" stroke-linecap="round" stroke-linejoin="round"/>
<path d="M230.681 346.11C207.161 372.65 312.681 374.02 312.681 353.98C312.55 352.301 312.172 350.65 311.561 349.08" stroke="#163050" stroke-width="3" stroke-linecap="round" stroke-linejoin="round"/>
<path d="M279.241 378.73C290.861 379.15 294.531 378.19 303.521 373.96" stroke="#163050" stroke-width="3" stroke-linecap="round" stroke-linejoin="round"/>
<path d="M311.951 340.5C317.951 342 313.951 343.5 318.951 349C321.521 352 323.451 353 328.951 353.5C334.451 354 340.951 353 340.951 350.5C340.951 348 334.451 347 329.451 347C324.451 347 321.451 338 314.951 336C308.451 334 305.951 339 311.951 340.5Z" fill="white"/>
<path d="M353.951 351C353.951 352.105 353.056 353 351.951 353C350.847 353 349.951 352.105 349.951 351C349.951 349.896 350.847 349 351.951 349C353.056 349 353.951 349.896 353.951 351Z" fill="white"/>
<path d="M312.701 140.896C324.651 134.106 322.858 121.03 323.668 109.08C324.478 97.1299 331.268 79.7699 352.728 97.6799C368.728 111.05 351.888 177.35 324.878 194.85C323.648 168 323.001 152.026 312.701 140.896Z" fill="#0E9FFF"/>
<path opacity="0.8" d="M318.888 134.37C335.608 143.37 345.168 168.37 345.168 168.37C339.588 179.52 324.858 194.85 324.858 194.85C325.698 169.37 322.938 155.66 313.368 140.99C315.458 139.005 317.31 136.783 318.888 134.37Z" fill="#0081D0"/>
<path d="M312.638 140.7C321.738 135.62 323.048 121.27 324.078 104.01C325.558 79.29 362.408 86.87 359.598 121.07C356.598 157.21 338.388 184 325.598 192.86" stroke="#163050" stroke-width="3" stroke-linecap="round" stroke-linejoin="round"/>
<path d="M347.228 110.129C343.008 97.3694 330.528 101.479 334.738 114.249C338.948 127.019 351.448 122.899 347.228 110.129Z" fill="#FFC858"/>
<path opacity="0.8" d="M333.428 122.31C331.178 117.39 329.428 112.73 331.338 107.6C331.338 107.72 333.408 122.32 343.048 122.32C347.048 122.32 350.108 118.32 350.448 114.32C357.218 123.67 343.998 141.51 333.428 122.31Z" fill="#0081D0"/>
<path d="M349.248 116.49C347.008 128.98 330.648 119.95 332.908 107.31C335.168 94.6695 351.508 103.84 349.248 116.49Z" stroke="#163050" stroke-width="3" stroke-linecap="round" stroke-linejoin="round"/>
<path d="M212.998 92.2302C243.586 100.728 275.686 116.087 296.478 127.459C309.401 134.527 320.278 147.732 322.559 162.285C326.569 187.863 325.575 216.78 325.088 235.39C325.036 237.427 324.562 239.431 323.698 241.276C322.833 243.121 321.595 244.767 320.063 246.111C318.531 247.454 316.738 248.465 314.795 249.082C312.853 249.698 310.804 249.905 308.778 249.69C276.708 246.28 174.298 237.69 160.138 267.35C161.038 233.35 154.468 161.25 143.068 122.1C131.468 82.1702 173.378 81.2202 212.998 92.2302Z" fill="#35D2FF"/>
<path d="M248.998 247.37L262.918 262.24C192.328 265.11 155.308 289.24 160.118 269.51C162.958 257.81 193.008 249.58 210.408 247.05C223.268 246.493 236.149 246.6 248.998 247.37ZM284.108 263.5C287.03 262.616 289.591 260.818 291.414 258.369C293.238 255.921 294.228 252.953 294.238 249.9L282.015 248.509L284.108 263.5Z" fill="#0E9FFF"/>
<path opacity="0.5" d="M162.878 88.75C178.618 141.42 190.728 250.09 190.728 250.09C177.108 252.82 162.878 263.37 160.158 267.37C161.068 223.17 154.618 177.17 154.618 177.17C162.278 179.58 168.088 167.92 162.068 162.9C156.048 157.88 151.268 158.46 151.268 158.46C146.408 136.2 144.988 128.08 142.188 118.28C139.388 108.48 136.798 91.51 162.878 88.75Z" fill="#0E9FFF"/>
<path d="M283.568 263.42C292.788 262.42 293.298 254.24 293.728 248.53" stroke="#163050" stroke-width="3" stroke-linecap="round" stroke-linejoin="round"/>
<path d="M151.268 158.44C151.268 158.44 146.008 134.82 142.188 118.26C128.718 59.8901 237.238 92.95 298.828 129.11C310.488 135.96 319.898 147.11 321.768 160.52C325.378 186.45 326.388 217.89 325.088 236.52C324.953 238.457 324.43 240.347 323.55 242.078C322.669 243.809 321.45 245.345 319.963 246.594C318.477 247.844 316.754 248.781 314.898 249.351C313.041 249.92 311.089 250.111 309.158 249.91C181.488 236.52 151.748 263.5 161.298 274.37C169.488 283.65 206.698 262.28 262.898 262.61" stroke="#163050" stroke-width="3" stroke-linecap="round" stroke-linejoin="round"/>
<path d="M153.648 177.82C161.808 224.04 159.728 270.26 159.728 270.26" stroke="#163050" stroke-width="3" stroke-linecap="round" stroke-linejoin="round"/>
<path opacity="0.2" d="M265.538 351.5C259.248 351.5 255.228 355.5 239.538 355.5C230.428 355.5 210.268 352.11 210.268 343.09C210.268 335.67 225.088 332.52 232.508 332.52C246.338 332.52 243.118 345.42 253.198 345.42C258.288 345.42 261.688 340.05 264.198 340.05C268.498 340.05 284.448 351.12 296.738 343.69C283.798 359.09 270.998 351.5 265.538 351.5Z" fill="#163050"/>
<path d="M264.328 307.58C269.268 310.27 277.788 310.27 282.278 307.13C280.178 315.65 280.028 319.13 280.028 319.13C294.838 323.13 301.718 329.9 298.278 339.93C294.838 349.96 273.448 345.61 266.418 337.98C267.618 326.61 265.678 319.13 259.688 311.36C261.446 310.383 263.017 309.104 264.328 307.58Z" fill="#C6BBFF"/>
<path d="M272.078 248.37L281.338 248.84C283.848 268.47 284.008 288.41 276.788 307.09C271.608 308.97 263.698 304.21 263.698 304.21C271.998 284.08 273.328 280.13 272.078 248.37Z" fill="#FFC858"/>
<path d="M281.218 248.02C286.373 266.707 285.54 290.017 277.769 307.774" stroke="#163050" stroke-width="3" stroke-linecap="round" stroke-linejoin="round"/>
<path opacity="0.7" d="M272.615 308.241C272.375 316.021 270.498 323.167 279.838 321.617C287.163 327.31 287.13 335.198 297.518 330.64C302.098 333.54 299.115 344.216 287.604 345.455C276.093 346.694 265.586 336.668 265.586 336.668C265.586 336.668 270.238 324.471 258.867 310.412L264.553 306.277L272.615 308.241Z" fill="#9C7BFF"/>
<path d="M281.478 299C287.138 305.81 277.148 311.79 264.398 306.45" stroke="#163050" stroke-width="3" stroke-linecap="round" stroke-linejoin="round"/>
<path d="M282.618 304.82L279.948 320.18" stroke="#163050" stroke-width="3" stroke-linecap="round" stroke-linejoin="round"/>
<path d="M280.818 318.65C292.668 322.37 299.198 325.2 299.318 335.92C299.488 350.92 273.518 346.46 265.318 336.71" stroke="#163050" stroke-width="3" stroke-linecap="round" stroke-linejoin="round"/>
<path d="M259.364 280.008C268.469 273.159 282.112 291.284 271.719 301.677C261.325 312.071 247.892 288.637 259.364 280.008Z" fill="#A88EFF"/>
<path d="M250.868 247.37C250.868 247.37 283.578 269.87 255.508 287.96C255.755 293.158 257.713 298.129 261.078 302.1C286.588 279.37 283.338 268.24 269.428 248.1C263.258 247.532 257.063 247.288 250.868 247.37Z" fill="#FFC858"/>
<path d="M255.451 283.5C238.93 298.407 231.187 296.958 232.282 308.538C232.68 312.748 235.656 321.048 239.782 328.692C244.137 336.76 246.411 343.688 251.647 344.708C273.514 343.128 266.951 318.101 258.608 310.55C263.228 307.96 266.951 304.5 266.951 304.5C266.951 304.5 253.563 303.383 255.451 283.5Z" fill="#C6BBFF"/>
<path opacity="0.7" d="M256.818 299.37C253.438 300.94 249.818 303.72 243.658 303.72C238.548 303.72 235.658 301.25 234.458 300.81C233.75 301.459 233.198 302.259 232.841 303.15C232.484 304.042 232.333 305.002 232.398 305.96C232.398 306.07 241.758 346.34 254.288 346.34C259.288 346.34 267.868 338.57 266.748 328.64C257.108 338.59 249.548 335.04 249.548 322.74C249.548 311.6 258.368 312.83 264.758 306.55C262.108 303.27 259.168 302.42 256.818 299.37Z" fill="#9C7BFF"/>
<path d="M275.738 255.37C269.328 250.77 262.838 254.17 262.498 261.24C258.187 255.225 252.951 251 247.451 247L269.951 246.5L275.738 255.37Z" fill="#FFAC40"/>
<path d="M277.178 265.26C276.178 284.87 257.258 295.13 257.258 299.46C257.258 307.25 286.618 279.29 277.178 265.26Z" fill="#FFAC40"/>
<path d="M270.451 247C268.051 246.6 253.951 246.5 247.451 246.5C260.946 254.513 274.217 273.283 258.548 286.13L255.379 288.754" stroke="#163050" stroke-width="3" stroke-linecap="round" stroke-linejoin="round"/>
<path d="M269.951 247C283.508 269.652 280.803 283.132 262.168 300.85L261.22 301.872" stroke="#163050" stroke-width="3" stroke-linecap="round" stroke-linejoin="round"/>
<path d="M263.618 278.99C250.938 280.17 253.238 303.45 266.148 303.81C275.435 304.069 276.396 292.206 274.902 285.477" stroke="#163050" stroke-width="3" stroke-linecap="round" stroke-linejoin="round"/>
<path d="M271.212 302.361L256.308 311.49" stroke="#163050" stroke-width="3" stroke-linecap="round" stroke-linejoin="round"/>
<path d="M258.401 281.304C237.661 299.654 227.548 294.89 233.658 314.64C235.838 321.64 240.098 327.73 242.038 333.64C247.958 351.64 267.178 346.18 266.508 328.64C266.331 321.782 263.456 315.271 258.508 310.52" stroke="#163050" stroke-width="3" stroke-linecap="round" stroke-linejoin="round"/>
<path d="M282.585 197.044C284.863 191.659 283.368 185.824 280.449 184.48C276.837 182.823 274.719 185.98 267.022 186.128C257.474 186.321 250.809 183.274 247.926 189.248C241.617 202.327 273.829 217.708 282.585 197.044Z" fill="#163050"/>
<path d="M251.227 200.634C262.715 211.284 278.465 206.783 282.585 197.044C281.962 196.428 274.915 186.34 268.534 193.896C268.49 193.878 258.72 187.048 251.227 200.634Z" fill="#FFA5C3"/>
<path d="M259.049 193.215C257.225 206.552 280.832 202.981 270.75 194.743C277.148 197.283 279.782 194.218 279.72 194.218C280.761 194.108 282.807 195.847 283.03 196.676C281.054 204.794 260.473 211.642 252.259 200.357C251.939 196.022 258.399 193.546 259.049 193.215Z" fill="#FA6D9C"/>
<path d="M280.485 184.48C276.873 182.823 274.755 185.98 267.058 186.128C257.51 186.321 250.845 183.274 247.962 189.248C244.5 196.418 256.406 209.838 271.516 205.945C286.367 202.106 285.246 186.68 280.485 184.48Z" stroke="#163050" stroke-width="3" stroke-linecap="round" stroke-linejoin="round"/>
<path d="M251.058 200.036C258.969 187.076 267.965 193.592 268.534 193.896C275.083 186.652 281.784 196.206 282.282 196.759M273.081 197.477C271.652 195.99 270.025 194.722 268.25 193.712" stroke="#163050" stroke-width="3" stroke-linecap="round" stroke-linejoin="round"/>
<path d="M297.018 168.6L304.738 166.63M222.658 155.27L214.488 148.61M216.448 164.21L201.158 161.48" stroke="#163050" stroke-width="3" stroke-linecap="round" stroke-linejoin="round"/>
<path d="M254.268 156.281C250.608 148.281 241.268 146.281 236.328 152.391" stroke="#163050" stroke-width="3" stroke-linecap="round" stroke-linejoin="round"/>
<path d="M286.998 163.25C284.168 156.63 276.908 154.86 273.098 160" stroke="#163050" stroke-width="3" stroke-linecap="round" stroke-linejoin="round"/>
<path d="M155.65 176.86C113.51 161.53 93.4498 140.49 103.56 83.0902C103.56 83.0402 110.41 62.2802 110.56 62.2802C110.71 62.2802 105.43 60.2802 105.05 57.2802C104.67 54.2802 99.2698 39.6702 118.15 32.7302C124.91 31.3802 135.52 31.9602 132.24 43.9202C137.24 48.7502 136.29 60.9202 123.36 64.3802C116.61 80.2002 101.36 119.38 140.22 152.94C144.62 155.48 159.66 162.43 159.66 162.43C166.15 164.74 164.84 178.09 155.65 176.86Z" fill="white"/>
<path d="M162.66 170.25C160.87 174.44 160.47 178.85 150.07 175.44C139.67 172.03 108.46 156.44 103.46 119.64C97.3701 74.7401 109.83 63.1601 110.57 62.1201C96.4301 55.8201 103.47 41.1201 108.31 38.1201C113.15 35.1201 121.88 36.8201 126.93 42.6001C119.02 50.8701 119.81 48.1901 121.5 55.1801C122.67 60.0001 131.05 56.9601 135.06 52.8201C134.56 56.8201 129.06 63.8201 120.06 64.1701C120.107 64.2625 120.144 64.3597 120.17 64.4601C116.04 66.3501 114.86 64.7501 111.53 77.6201C100.1 128.89 117.99 155.02 162.66 170.25Z" fill="#D0D6DC"/>
<path d="M132.32 43.0201C134.32 40.9601 134.75 38.1501 131.52 35.2801C124.64 29.1501 106.09 32.6901 103.52 47.2801C101.52 58.6701 108.12 61.8001 110.52 62.2801C89.5201 111.75 99.9001 158.5 152.87 176.15C164.33 179.97 166.32 163.81 158.82 161.53C104.41 144.92 110.24 93.8501 123.54 63.6701" stroke="#163050" stroke-width="3" stroke-linecap="round" stroke-linejoin="round"/>
<path d="M156.27 12.25C155.74 25.69 140.5 27.67 140.5 27.67C142.65 33.4 140.86 36.45 140.86 36.45C140.68 47.56 144.8 59.04 152.86 63.16C148.38 68.36 158.77 75.89 158.77 75.89C163.3 72.08 159.9 73.94 175.09 67.82C176.381 63.7182 176.76 59.3836 176.2 55.12C176.2 55.12 191.76 45.77 176.2 34.12C172.13 33.18 172 31.25 172 31.25C172.93 21.37 171.49 12.43 156.27 12.25Z" fill="#9C7BFF"/>
<path d="M247.75 5.51001C251.21 5.30001 253.03 2.36 256.4 2C259.74 2.21 262.64 6.20001 262.64 9.51001C262.64 14.29 255.25 16.43 251.27 18.99L177.05 69.83L176.19 55.12C185.01 49.82 186.09 37.99 174.9 33.04C173.11 22.65 169.73 13.04 162.42 10.89L247.75 5.51001Z" fill="#C6BBFF"/>
<path d="M177.36 53.3699C178.004 53.1239 178.61 52.7872 179.16 52.3699L177.36 53.3699ZM173.11 22.6999C175.11 26.8099 173.49 32.5799 173.49 32.5799C230.01 13.4799 276.49 1.9799 255.12 4.7099C242.41 6.2799 207.97 15.1399 173.11 22.6499V22.6999ZM179.19 52.3299C180.91 51.0399 184.09 45.3299 182.05 39.2299C220.62 23.4699 249.05 11.4499 257.71 8.1099C275.21 1.3699 231.95 22.5499 179.19 52.2799V52.3299ZM174.65 70.9599C177.08 67.3599 178.65 60.2999 176.19 55.1699C291.79 -5.5601 286.42 -7.63009 174.65 70.9099V70.9599Z" fill="#9C7BFF"/>
<path d="M171.409 26C134.627 37.6309 113.233 43.7672 101.223 48.3499C77.7232 55 88.7231 81.5 108.723 76.5C114.643 74.06 112.409 65.46 106.119 67.09C100.519 68.54 95.019 60.8 104.419 57.4C115.059 53.54 171.059 35.92 171.059 35.92C173.319 29.53 171.409 26 171.409 26Z" fill="white"/>
<path opacity="0.3" d="M89.8198 66.8C94.1898 71.93 101.24 75.01 112.02 69.62C114.78 81 93.1198 80.55 89.8198 66.8ZM170.41 36.64L171.95 31.25C99.6498 54.04 89.2998 53.78 96.7898 65.51C97.3698 58.58 94.9998 61.31 170.41 36.64Z" fill="#163050"/>
<path d="M171.43 26.7197C171.43 26.7197 104.12 47.7197 100.29 48.7797C78.5298 54.7797 89.1298 82.0697 108.94 76.3197C115.7 74.3197 113.04 65.0497 106.46 66.9297C98.8198 69.1097 95.1698 59.8397 103.46 57.4197C112.31 54.8297 174.58 34.8597 174.58 34.8597" stroke="#163050" stroke-width="3" stroke-linecap="round" stroke-linejoin="round"/>
<path d="M140.56 35.8698C140.56 35.8698 142.99 30.3498 137.96 27.6698C152.23 28.3098 157.06 21.1998 155.84 11.7998C171.84 11.7998 174.35 26.3698 172.08 33.1798C186.91 36.1798 185.08 51.9498 175.56 54.1798C180.42 70.7998 168.13 77.4798 161.76 71.9998C160.98 76.4698 156.76 79.8198 149.02 64.1798C158.53 61.0098 146.02 66.5098 141.87 45.7398" stroke="#163050" stroke-width="3" stroke-linecap="round" stroke-linejoin="round"/>
<path d="M155.84 11.7999L258.7 3.87988M170.48 73.19L261.77 10.8M175.56 54.2099L261.11 7.93994M172.08 33.1801L260.45 6.08008" stroke="#163050" stroke-width="3" stroke-linecap="round" stroke-linejoin="round"/>
<path d="M152.71 62.98L178.77 52.49M161.76 72.0399L175.71 65.4199M146.3 26.97L169.64 20.46" stroke="#163050" stroke-width="3" stroke-linecap="round" stroke-linejoin="round"/>
<path d="M255.71 15.1797C256.682 15.2892 257.665 15.1642 258.579 14.8151C259.493 14.4661 260.309 13.9032 260.96 13.1736C261.612 12.444 262.079 11.569 262.322 10.6218C262.566 9.67465 262.578 8.68292 262.36 7.72972C261.36 1.98972 255.21 1.24973 252.01 4.07973M260.64 6.81968L266.81 4.66968" stroke="#163050" stroke-width="3" stroke-linecap="round" stroke-linejoin="round"/>
<path d="M125.223 32.9997C132.224 33.1355 135.723 37.9997 132.723 43.9997C139.153 54.1043 120.723 65.7416 120.723 46.9997C103.723 41.9997 116.303 32.2097 125.223 32.9997Z" fill="white"/>
<path d="M121.19 54.6498C121.06 52.1398 119.82 44.6498 126.48 42.8298C137.84 39.8298 140.37 65.3998 118.48 63.0498M121.723 46.3798C119.93 46.4771 118.075 47.0502 116.409 46.3798C114.744 45.7094 113.449 44.812 112.223 43.4999L110.223 43.9999M132.66 43.2498C137.223 39.4998 131.223 28.9999 116.223 33.4998" stroke="#163050" stroke-width="3" stroke-linecap="round" stroke-linejoin="round"/>
<path d="M281.171 409.872C281.171 409.872 274.871 413.802 271.111 424.112C271.111 424.112 268.181 412.232 261.231 406.462C261.761 411.572 261.901 422.522 261.901 422.522C261.901 422.522 254.681 404.882 242.341 398.852C246.766 408.77 249.843 419.236 251.491 429.972C249.293 428.717 246.939 427.755 244.491 427.112C245.312 430.867 245.89 434.672 246.221 438.502C254.401 437.302 260.391 442.692 260.391 442.692C260.391 442.692 264.711 437.102 274.961 436.972C274.961 436.972 278.681 425.212 283.011 422.062C283.001 422.052 281.431 419.312 281.171 409.872Z" fill="url(#paint0_linear)"/>
<path d="M258.441 437.641C255.921 434.951 252.551 431.401 252.551 427.461C252.551 424.691 258.181 415.701 259.551 415.701C264.141 415.701 263.201 435.051 258.441 437.641ZM271.051 423.961C270.851 427.781 272.421 432.771 275.801 434.701C277.801 427.751 277.281 426.981 277.121 413.701C274.341 416.481 271.251 419.891 271.051 423.961Z" fill="#0BD386"/>
<path d="M246.341 437.441C245.874 433.695 245.206 429.976 244.341 426.301C255.711 430.301 260.341 441.361 260.341 441.361" stroke="#163050" stroke-width="3" stroke-linecap="round" stroke-linejoin="round"/>
<path d="M252.101 430.261C249.101 411.261 239.951 395.461 239.951 395.461C259.771 413.151 261.901 422.521 261.901 422.521" stroke="#163050" stroke-width="3" stroke-linecap="round" stroke-linejoin="round"/>
<path d="M260.991 440.271C263.791 423.111 260.621 404.841 260.621 404.841C270.621 416.131 274.471 435.941 274.471 435.941" stroke="#163050" stroke-width="3" stroke-linecap="round" stroke-linejoin="round"/>
<path d="M271.111 424.111C271.861 413.981 281.861 408.861 281.861 408.861C280.431 413.231 281.111 418.141 282.161 421.951" stroke="#163050" stroke-width="3" stroke-linecap="round" stroke-linejoin="round"/>
<path d="M375.781 412.331C372.371 378.081 376.831 359.331 380.441 347.121C384.341 335.201 387.341 329.741 386.741 330.051C386.931 328.631 369.581 356.771 359.741 392.791L375.781 412.331Z" fill="url(#paint1_linear)"/>
<path d="M375.781 412.331C372.371 378.081 376.831 359.331 380.441 347.121C384.341 335.201 387.341 329.741 386.741 330.051C386.931 328.631 369.581 356.771 359.741 392.791" stroke="#163050" stroke-width="3" stroke-linecap="round" stroke-linejoin="round"/>
<defs>
<linearGradient id="paint0_linear" x1="262.681" y1="445.242" x2="262.681" y2="392.682" gradientUnits="userSpaceOnUse">
<stop stop-color="#DEFCF2"/>
<stop offset="1" stop-color="#BBFAE0"/>
</linearGradient>
<linearGradient id="paint1_linear" x1="-6194.48" y1="68445.6" x2="-2619.65" y2="63918.7" gradientUnits="userSpaceOnUse">
<stop stop-color="#DEFCF2"/>
<stop offset="1" stop-color="#BBFAE0"/>
</linearGradient>
</defs>
</svg>
<svg width="397" height="457" viewBox="0 0 397 457" fill="none" xmlns="http://www.w3.org/2000/svg">
<path d="M336.661 373.75C336.464 382.674 333.161 391.25 327.321 398C314.321 410 294.321 407 284.321 422C282.321 416 276.321 413 274.321 407C276.321 412 276.321 417 275.821 422C276.321 428 269.321 430 265.321 431C266.321 420 258.321 411 253.321 402C252.321 409 246.321 412 242.321 415.89C239.775 412.316 236.981 408.924 233.961 405.74C230.341 404 227.341 399 223.341 397C227.341 402 229.341 410 224.341 416C222.341 418 218.341 419 216.341 416C215.341 413 213.341 410 217.341 408C211.341 410 206.341 412 203.341 418C201.341 410 194.341 405 190.341 398C193.341 403 191.341 407 191.341 412C188.341 408 184.341 407 180.341 405C180.341 410 173.341 416 171.341 412C169.341 408 174.341 401 180.341 398C168.341 401 161.341 412 157.341 423C156.791 419.948 155.619 417.042 153.899 414.461C152.179 411.881 149.947 409.682 147.341 408C145.341 416 142.341 424 137.341 431C135.341 419 126.341 411 122.341 400C123.341 420 118.341 438 113.341 457C98.3411 445 101.341 424 96.341 408C93.341 419 92.341 431 92.341 443C91.341 438 88.3411 433 87.4711 427.83C83.7104 412.476 83.3181 396.49 86.3211 380.97C76.8611 393.32 71.3811 408.03 70.3211 424.97C67.3211 420.97 67.3211 415.97 65.3211 411.97C62.2532 420.221 56.181 427.007 48.3211 430.97C51.3211 417.97 57.3211 402.97 51.2211 389.6C47.2611 400.95 43.3211 412 34.3211 419C36.6011 398.11 44.0211 379.51 53.8711 365.51C38.3211 380.75 24.0211 391.9 19.3211 408C13.3211 396 8.32105 383 1.32105 372C7.32105 378 14.3211 382 22.3211 386C11.3211 369 -3.67895 349 2.32105 327C4.32105 336 11.3211 344 19.3211 347C16.3211 313 15.3211 278 12.3211 244C16.3211 261 15.3211 279 22.3211 295C29.3211 280 33.3211 262 45.3211 249C36.3211 269 34.3211 291 35.3211 312C42.3211 303 40.3211 291 44.3211 281C44.1654 282.728 44.5127 284.465 45.3211 286C47.3211 262 49.3211 237 41.3211 214C58.3211 239 57.3211 271 57.3211 300C63.3211 295 66.3211 287 73.3211 283C68.3211 293 62.3211 305 65.3211 317C77.3211 297 70.3211 274 71.3211 253C77.3211 269 83.3211 284 85.3211 301C87.3211 290 92.3211 279 100.321 271C94.148 283.375 92.384 297.486 95.3211 311C101.321 304 98.3211 294 98.3211 286C103.321 287 102.321 293 105.321 295C104.321 287 102.321 278 103.321 270C105.321 278 114.321 282 115.321 291C110.321 274 118.321 258 120.321 241C117.321 251 122.321 261 122.321 271C129.367 258.882 134.43 245.716 137.321 232C139.321 255 124.321 279 135.321 302C134.321 294 140.321 287 139.321 279C141.321 285 143.321 291 147.321 296C145.321 292 146.321 287 143.321 284C150.321 288 153.321 295 157.321 302C160.518 282.585 167.3 263.934 177.321 247C167.321 273 172.321 303 185.321 328C185.321 327 186.321 327 186.321 326C188.321 327 189.321 330 189.321 332C189.321 326 191.321 321 192.321 316C192.321 322 199.321 324 199.321 330C198.321 313 204.321 297 207.321 280C207.321 298.07 208.321 315 214.321 332C215.321 319 215.321 304 227.321 295C225.321 300 223.321 305 224.321 311C224.321 310 223.321 309 223.321 308C221.321 316 224.321 325 227.321 333C230.321 331 230.321 327 231.321 324C231.321 328 232.321 332 233.321 336C239.321 312 236.321 288 240.321 264C242.321 288 243.321 313 248.321 337C251.3 332.618 254.959 328.739 259.161 325.51C262.281 322 268.281 320 272.281 317C262.281 326 257.281 339 252.281 351C260.626 345.193 270.461 341.899 280.621 341.51C303.321 342 323.321 356 336.661 373.75Z" fill="#6DF3C3"/>
<path d="M92.381 393.907C86.7016 397.065 89.9796 420.731 66.3614 407.632C64.092 390.653 85.717 392.07 92.381 393.907Z" fill="#6DF3C3"/>
<path d="M66.3971 414.656C59.0487 414.5 53.5014 419.002 56.0589 427.54C60.3215 428.176 65.0763 427.167 67.0335 423.937L66.3971 414.656Z" fill="#6DF3C3"/>
<path d="M51.4122 360.203C57.4879 355.052 67.5499 359.855 70.6237 367.095C81.4302 370.145 73.6135 391.11 58.3404 387.7C57.1396 393.703 46.7654 394.7 43.1392 394.352C41.038 391.194 37.2917 388.504 31.7924 390.75C28.8747 385.37 30.8198 381.324 30.8198 381.324C26.7734 375.548 30.0514 368.368 36.067 368.62C38.5765 359.855 43.4874 359.026 51.4122 360.203Z" fill="#35D2FF"/>
<path d="M89.1627 400.547C84.4919 400.427 65.4604 395.648 65.4604 405.434C65.4604 410.309 77.8399 412.855 83.051 409.637C86.1249 407.74 87.8059 403.765 89.1627 400.547Z" fill="#0BD386"/>
<path d="M70.6236 382.633C68.8105 384.77 65.0402 387.844 61.7022 387.844C57.7399 387.844 55.1943 380.003 55.2183 378.742C55.2423 377.482 56.5992 376.269 57.0194 375.14C63.9236 380.58 69.0026 379.655 70.6236 382.633ZM57.2235 386.235C55.5185 387.219 53.8735 388.408 51.6762 388.408C50.9898 388.415 50.309 388.283 49.6751 388.019C49.0413 387.756 48.4674 387.366 47.9882 386.875C47.509 386.383 47.1344 385.8 46.887 385.159C46.6397 384.519 46.5247 383.835 46.5491 383.149C46.5491 381.444 41.9504 385.551 41.9504 390.101C41.9384 398.35 59.8171 393.643 57.2115 386.199L57.2235 386.235ZM30.3394 385.611C30.3394 391.074 43.8955 393.787 40.9778 386.415C35.2503 386.415 33.077 382.417 38.7204 379.319C35.2984 378.887 30.3274 382.453 30.3274 385.575L30.3394 385.611ZM41.2059 376.737C36.2469 375.452 34.9141 373.699 32.1285 369.689C28.6103 371.778 29.1146 376.401 30.7356 380.159C34.038 378.509 37.5662 377.356 41.2059 376.737ZM47.2095 369.533C45.5285 367.059 42.5988 363.133 39.7891 362.124C37.9039 364.034 36.7032 365.727 36.6672 368.5C40.0052 369.401 44.3758 372.979 47.1855 369.533H47.2095ZM50.9918 370.013C57.7879 367.228 53.6934 362.881 59.661 359.891C50.6796 358.342 48.2662 367.131 50.9678 369.977L50.9918 370.013Z" fill="#21B9FF"/>
<path d="M61.4745 420.972C62.9754 419.675 64.5363 416.469 66.2773 415.712C67.0491 417.898 67.5059 420.182 67.6342 422.496C67.6342 427.876 56.2633 427.095 55.3628 426.567C56.6476 423.925 59.3372 422.833 61.4745 420.972Z" fill="#0BD386"/>
<path d="M56.8993 372.09C54.2697 366.627 41.2899 372.871 43.9195 378.346C46.5491 383.821 59.5289 377.565 56.8993 372.09Z" fill="#FFC858"/>
<path d="M48.5904 372.763C46.8974 377.229 53.3092 376.125 55.5546 373.507C57.0435 380.832 44.2318 384.218 44.2318 377.974C44.2077 376.473 45.5646 374.12 48.5904 372.763Z" fill="#FFAC40"/>
<path d="M58.3403 387.7C67.754 403.573 68.2223 432.042 68.2223 432.042" stroke="#163050" stroke-width="3" stroke-linecap="round" stroke-linejoin="round"/>
<path d="M56.8993 372.09C54.2697 366.627 41.2899 372.871 43.9195 378.346C46.5491 383.821 59.5289 377.565 56.8993 372.09Z" stroke="#163050" stroke-width="3" stroke-linecap="round" stroke-linejoin="round"/>
<path d="M43.3315 377.866C34.3501 377.962 26.2333 382.26 31.3243 389.801" stroke="#163050" stroke-width="3" stroke-linecap="round" stroke-linejoin="round"/>
<path d="M46.285 380.255C42.6829 385.887 37.0275 396.105 50.4876 394.1C63.9477 392.095 56.3231 381.684 54.0897 379.199" stroke="#163050" stroke-width="3" stroke-linecap="round" stroke-linejoin="round"/>
<path d="M30.8198 381.3C26.6173 373.471 31.5763 363.926 45.3366 371.946" stroke="#163050" stroke-width="3" stroke-linecap="round" stroke-linejoin="round"/>
<path d="M36.0669 368.596C37.6879 360.864 44.3759 358.859 50.4756 360.96" stroke="#163050" stroke-width="3" stroke-linecap="round" stroke-linejoin="round"/>
<path d="M50.0196 370.037C49.1551 361.728 51.3404 357.333 62.339 359.627C69.6874 361.151 70.3598 366.11 70.3598 366.11" stroke="#163050" stroke-width="3" stroke-linecap="round" stroke-linejoin="round"/>
<path d="M56.8994 372.09C63.7675 366.399 75.9068 364.106 75.6187 373.087C75.3305 382.068 65.3045 392.671 58.6164 386.655" stroke="#163050" stroke-width="3" stroke-linecap="round" stroke-linejoin="round"/>
<path d="M66.0371 405.266C66.0371 392.335 83.2314 391.386 92.3809 393.908C86.7015 397.065 89.9795 420.732 66.3613 407.632" stroke="#163050" stroke-width="3" stroke-linecap="round" stroke-linejoin="round"/>
<path d="M66.3971 414.656C59.0487 414.5 53.5014 419.002 56.0589 427.54C60.3215 428.176 65.0763 427.167 67.0335 423.937" stroke="#163050" stroke-width="3" stroke-linecap="round" stroke-linejoin="round"/>
<path d="M46.1663 429.651C42.0278 436.111 31.624 434.162 29.3621 426.472C34.2799 421.641 43.8476 423.695 46.1663 429.651Z" fill="#6DF3C3"/>
<path d="M45.0523 429.179C43.672 436.869 29.1688 432.558 30.2522 426.522C30.4386 425.484 31.3911 425.237 32.3942 425.417C33.8901 425.686 32.8351 428.021 36.7595 428.726C39.5089 429.079 42.2806 429.231 45.0523 429.179Z" fill="#0BD386"/>
<path d="M42.9248 397.362C50.0335 396.821 51.4822 408.08 41.5682 411.651C42.2658 418.542 27.2977 422.541 23.5351 415.217C17.0922 417.412 6.40804 413.887 13.195 408.257C9.93167 400.732 13.8414 396.711 18.8018 395.893C19.3358 390.54 25.4096 388.478 31.9746 391.473C36.1709 386.513 43.5226 389.123 42.9248 397.362Z" fill="#FFC858"/>
<path d="M18.5285 405.817C13.3677 408.206 11.7097 408.689 12.8246 402.477C13.4232 399.142 16.1594 396.346 19.5554 397.109C17.3676 398.47 16.1534 401.44 18.9779 401.947C20.3153 402.187 22.451 401.825 23.2849 402.138C22.8714 403.127 20.765 404.792 18.5285 405.817ZM15.2859 407.842C4.85409 414.752 22.6903 418.862 23.6078 413.749C24.6154 408.136 20.305 413.175 15.2859 407.842ZM28.9193 418.617C33.3189 419.407 40.3511 416.509 41.4889 413.308C34.7725 414.091 26.3051 416.332 27.4974 408.98C21.9222 413.02 24.3102 417.781 28.9209 418.608L28.9193 418.617ZM36.8533 403.257C35.5892 403.266 36.1455 403.202 34.566 405.88C38.036 406.13 39.5106 409.401 42.0215 410.896C44.3174 409.946 47.4968 407.919 47.9611 405.332C48.0259 404.971 44.6836 404.971 42.9853 404.666C40.6583 404.221 39.3831 403.229 36.8533 403.257ZM32.0729 392.09C30.3762 392.839 29.6105 395.081 29.3876 396.931C29.4756 396.946 35.817 400.074 35.905 400.089C35.993 400.105 47.4568 395.187 42.0542 394.218C40.8663 394.004 35.477 395.744 32.0377 392.084L32.0729 392.09ZM23.5836 393.845C22.4309 393.638 21.4736 392.849 20.3015 392.902C19.6497 393.902 18.8957 395.674 20.1188 395.894C22.5297 396.326 28.5761 400.49 29.2062 396.98C30.1881 391.307 26.9656 394.434 23.5405 393.883L23.5836 393.845Z" fill="#FFAC40"/>
<path d="M35.808 401.134C34.1014 395.006 22.2965 398.283 24.0031 404.411C25.7097 410.539 37.5011 407.288 35.808 401.134Z" fill="#35D2FF"/>
<path d="M26.5155 400.13C26.6579 405.105 32.1928 404.782 32.9231 404.913C34.9821 405.282 30.8838 407.925 27.4697 407.313C24.418 406.756 22.9477 402.55 26.5155 400.13Z" fill="#21B9FF"/>
<path d="M38.9326 416.972C46.1738 424.094 48.5799 434.725 48.6694 437.212" stroke="#163050" stroke-width="3" stroke-linecap="round" stroke-linejoin="round"/>
<path d="M35.808 401.134C34.1014 395.006 22.2965 398.283 24.0031 404.411C25.7097 410.539 37.5011 407.288 35.808 401.134Z" stroke="#163050" stroke-width="3" stroke-linecap="round" stroke-linejoin="round"/>
<path d="M24.0031 404.411C15.7704 403.623 6.19545 412.54 15.2192 415.55C17.9447 416.407 20.8831 416.292 23.5335 415.225" stroke="#163050" stroke-width="3" stroke-linecap="round" stroke-linejoin="round"/>
<path d="M27.1654 407.894C19.484 412.282 25.1137 423.12 37.4791 417.683C43.1601 415.179 44.0725 411.31 35.0374 406.491" stroke="#163050" stroke-width="3" stroke-linecap="round" stroke-linejoin="round"/>
<path d="M35.7094 400.417C47.4525 390.654 54.8068 406.76 41.377 410.69" stroke="#163050" stroke-width="3" stroke-linecap="round" stroke-linejoin="round"/>
<path d="M29.4171 397.726C29.2964 387.114 43.1427 384.913 43.8704 397.305" stroke="#163050" stroke-width="3" stroke-linecap="round" stroke-linejoin="round"/>
<path d="M25.3927 399.147C21.1193 395.428 14.3045 395.141 12.4292 401.035C10.7191 406.413 13.1932 408.265 13.1932 408.265" stroke="#163050" stroke-width="3" stroke-linecap="round" stroke-linejoin="round"/>
<path d="M18.8003 395.902C18.9397 391.785 25.1602 388.097 30.9143 391.056" stroke="#163050" stroke-width="3" stroke-linecap="round" stroke-linejoin="round"/>
<path d="M46.1663 429.651C42.0278 436.111 31.624 434.162 29.3621 426.472C34.2799 421.641 43.8476 423.695 46.1663 429.651Z" stroke="#163050" stroke-width="3" stroke-linecap="round" stroke-linejoin="round"/>
<path d="M236.721 333.32C236.721 333.32 208.491 329.09 203.811 343.32C199.131 357.55 180.361 350.66 175.991 363.64C174.121 369.22 145.991 367.25 146.621 380.76C147.561 401.27 228.751 380.97 244.121 403.76C254.751 419.52 285.371 424.4 301.311 407.42C317.251 390.44 345.691 403.08 358.811 394.15C371.931 385.22 364.131 372.39 376.941 368.78C389.751 365.17 396.311 363.21 395.381 355.96C392.781 335.9 337.781 352.96 324.751 336.76C318.321 328.76 298.591 326.9 291.751 326.49C270.521 323.34 262.781 333.34 236.721 333.32Z" fill="#D3F1FF"/>
<path d="M341.691 412.11C333.991 406.11 315.251 409.95 315.251 418.28C315.241 431.6 356.621 423.67 341.691 412.11Z" fill="#D3F1FF"/>
<path d="M303.971 329.1C306.281 320.64 328.801 285.32 341.041 285.77C345.211 285.92 347.041 288.69 347.041 292.69C347.041 299.75 341.171 302.21 323.481 315.43C317.181 320.11 311.091 325.75 303.971 329.1Z" fill="#D3F1FF"/>
<path d="M340.761 318.86C345.181 314.76 360.421 297.39 366.541 297.61C370.051 297.74 373.841 300.53 373.841 303.82C373.841 312.64 351.241 315.72 340.761 318.86Z" fill="#D3F1FF"/>
<path d="M345.771 249.71C345.771 238.99 365.681 234.71 365.681 249.92C365.681 262.15 345.771 265.78 345.771 249.71Z" fill="#D3F1FF"/>
<path d="M204.091 312.19C201.091 312.36 186.401 308.67 186.401 300.19C186.401 291.96 201.311 294.29 204.091 312.19Z" fill="#D3F1FF"/>
<path d="M156.821 312.07C140.591 311.51 125.541 312.93 125.541 302.07C125.541 285.69 165.021 294.13 176.931 318.25C170.061 316.99 163.671 313.59 156.821 312.07Z" fill="#D3F1FF"/>
<path d="M143.641 334.84C111.641 332.95 104.581 357.84 132.641 358.84C145.301 359.3 166.541 359.56 166.541 347.68C166.591 338.79 152.541 335.37 143.641 334.84Z" fill="#D3F1FF"/>
<path d="M230.461 334.12C230.461 334.12 213.911 334.84 212.141 341.64C210.371 348.44 207.071 350.1 194.711 354.3C204.451 344.08 208.901 327.65 230.461 334.12ZM169.331 369.54C191.041 367.74 179.511 359.34 192.281 354.87C175.071 356.24 175.511 364.67 169.331 369.54ZM146.611 382.66C150.901 401.49 233.251 382.57 241.931 400.76C246.351 410 262.241 423.87 282.761 416.65C303.281 409.43 253.631 397.86 247.671 388.57C241.711 379.28 237.741 378.02 226.051 380.69C214.361 383.36 205.051 382.14 179.481 382.98C153.911 383.82 150.801 378.39 155.871 372.15C155.871 372.15 143.961 371.05 146.611 382.66ZM362.861 389.46C362.861 382.81 354.031 386.92 339.251 388.15C324.471 389.38 324.021 391.15 312.331 398.91C336.241 397.64 362.861 400.59 362.861 389.46ZM392.861 352.24C393.301 355.8 390.211 358.12 381.861 359.81C373.511 361.5 371.041 363.81 369.501 373.09C382.081 365.84 401.051 365.22 392.871 352.23L392.861 352.24ZM321.361 424.24C335.361 428.56 342.361 422.34 342.771 415.94C341.891 416.57 336.591 418.15 331.291 418.4C325.991 418.65 319.161 415.74 322.291 411.4C311.661 415.26 315.441 422.46 321.371 424.26L321.361 424.24Z" fill="#73E2FF"/>
<path d="M122.991 338.83C121.671 345.65 126.991 350.49 143.991 350.67C160.991 350.85 165.391 347.91 165.391 345.03C174.071 366.79 109.101 361.09 115.301 345.42C117.241 340.4 122.991 338.83 122.991 338.83ZM129.241 309.17C131.241 313.45 151.091 310.85 178.241 317.86C171.391 312.77 150.241 305.28 141.411 304.96C132.581 304.64 129.051 300.3 131.921 295.96C121.941 298.94 127.241 304.89 129.241 309.17ZM204.241 311.46C204.241 311.46 187.031 299.09 191.241 295.92C181.121 294.1 182.791 310.32 204.241 311.46Z" fill="#73E2FF"/>
<path d="M307.241 324.96C321.361 304.66 346.301 294.96 345.861 287.83C350.491 290.66 343.211 301.91 338.131 305.27C333.051 308.63 307.241 324.96 307.241 324.96ZM373.001 302.96C372.341 307.59 356.451 306.56 345.201 315.68C372.931 314.31 375.171 304.89 373.011 303L373.001 302.96ZM349.421 258.04C356.701 264.04 366.191 258.43 365.971 249.12C359.311 260.01 344.801 243.04 356.481 242.12C343.911 240.82 342.151 252.06 349.431 258.08L349.421 258.04Z" fill="#73E2FF"/>
<path d="M230.631 344.09C191.481 363.64 257.431 383.59 290.131 367.35C282.291 364.35 272.271 367.03 257.471 366.49C243.831 365.99 218.661 361.18 230.621 344.76C230.751 344.59 230.621 344.31 230.631 344.09Z" fill="#73E2FF"/>
<path d="M236.721 333.32C236.721 333.32 208.491 329.09 203.811 343.32C199.131 357.55 180.361 350.66 175.991 363.64C174.121 369.22 145.991 367.25 146.621 380.76C147.561 401.27 228.751 380.97 244.121 403.76C254.751 419.52 285.371 424.4 301.311 407.42C317.251 390.44 345.691 403.08 358.811 394.15C371.931 385.22 364.131 372.39 376.941 368.78C389.751 365.17 396.311 363.21 395.381 355.96C392.781 335.9 337.781 352.96 324.751 336.76C317.421 327.66 292.751 326.54 289.751 326.38C259.401 324.81 273.761 330.06 236.721 333.32Z" stroke="#163050" stroke-width="3" stroke-linecap="round" stroke-linejoin="round"/>
<path d="M338.301 304.05C316.741 320.51 308.501 325.84 300.691 334.65C334.071 264.9 365.161 283.54 338.301 304.05Z" stroke="#163050" stroke-width="3" stroke-linecap="round" stroke-linejoin="round"/>
<path d="M362.481 299.97C374.091 293.68 381.021 307.55 368.481 311.15C353.081 315.57 347.481 317.23 337.081 321.79C349.521 309.12 357.661 302.58 362.481 299.97Z" stroke="#163050" stroke-width="3" stroke-linecap="round" stroke-linejoin="round"/>
<path d="M138.571 311.25C154.031 310.42 175.001 317.76 180.341 319.99C164.791 298.7 148.961 294.63 137.771 293.86C122.011 292.77 121.531 312.16 138.571 311.25Z" stroke="#163050" stroke-width="3" stroke-linecap="round" stroke-linejoin="round"/>
<path d="M198.691 297.88C206.261 307.23 205.021 312.98 205.021 312.98C173.241 305.31 189.031 285.95 198.691 297.88Z" stroke="#163050" stroke-width="3" stroke-linecap="round" stroke-linejoin="round"/>
<path d="M366.031 244.93C359.531 233.38 340.291 243.86 346.781 255.38C353.271 266.9 372.521 256.46 366.031 244.93Z" stroke="#163050" stroke-width="3" stroke-linecap="round" stroke-linejoin="round"/>
<path d="M131.841 358.57C147.341 359.76 164.841 359.05 166.991 349.74C168.801 341.74 160.271 335.74 144.991 335.19C109.721 333.9 106.941 356.66 131.841 358.57Z" stroke="#163050" stroke-width="3" stroke-linecap="round" stroke-linejoin="round"/>
<path d="M315.941 416.13C317.581 411.01 330.641 407.56 338.941 410.78C347.241 414 344.751 422.46 335.131 424.66C326.241 426.71 313.401 424.05 315.941 416.13Z" stroke="#163050" stroke-width="3" stroke-linecap="round" stroke-linejoin="round"/>
<path d="M230.681 346.11C207.161 372.65 312.681 374.02 312.681 353.98C312.55 352.301 312.172 350.65 311.561 349.08" stroke="#163050" stroke-width="3" stroke-linecap="round" stroke-linejoin="round"/>
<path d="M279.241 378.73C290.861 379.15 294.531 378.19 303.521 373.96" stroke="#163050" stroke-width="3" stroke-linecap="round" stroke-linejoin="round"/>
<path d="M311.951 340.5C317.951 342 313.951 343.5 318.951 349C321.521 352 323.451 353 328.951 353.5C334.451 354 340.951 353 340.951 350.5C340.951 348 334.451 347 329.451 347C324.451 347 321.451 338 314.951 336C308.451 334 305.951 339 311.951 340.5Z" fill="white"/>
<path d="M353.951 351C353.951 352.105 353.056 353 351.951 353C350.847 353 349.951 352.105 349.951 351C349.951 349.896 350.847 349 351.951 349C353.056 349 353.951 349.896 353.951 351Z" fill="white"/>
<path d="M312.701 140.896C324.651 134.106 322.858 121.03 323.668 109.08C324.478 97.1299 331.268 79.7699 352.728 97.6799C368.728 111.05 351.888 177.35 324.878 194.85C323.648 168 323.001 152.026 312.701 140.896Z" fill="#0E9FFF"/>
<path opacity="0.8" d="M318.888 134.37C335.608 143.37 345.168 168.37 345.168 168.37C339.588 179.52 324.858 194.85 324.858 194.85C325.698 169.37 322.938 155.66 313.368 140.99C315.458 139.005 317.31 136.783 318.888 134.37Z" fill="#0081D0"/>
<path d="M312.638 140.7C321.738 135.62 323.048 121.27 324.078 104.01C325.558 79.29 362.408 86.87 359.598 121.07C356.598 157.21 338.388 184 325.598 192.86" stroke="#163050" stroke-width="3" stroke-linecap="round" stroke-linejoin="round"/>
<path d="M347.228 110.129C343.008 97.3694 330.528 101.479 334.738 114.249C338.948 127.019 351.448 122.899 347.228 110.129Z" fill="#FFC858"/>
<path opacity="0.8" d="M333.428 122.31C331.178 117.39 329.428 112.73 331.338 107.6C331.338 107.72 333.408 122.32 343.048 122.32C347.048 122.32 350.108 118.32 350.448 114.32C357.218 123.67 343.998 141.51 333.428 122.31Z" fill="#0081D0"/>
<path d="M349.248 116.49C347.008 128.98 330.648 119.95 332.908 107.31C335.168 94.6695 351.508 103.84 349.248 116.49Z" stroke="#163050" stroke-width="3" stroke-linecap="round" stroke-linejoin="round"/>
<path d="M212.998 92.2302C243.586 100.728 275.686 116.087 296.478 127.459C309.401 134.527 320.278 147.732 322.559 162.285C326.569 187.863 325.575 216.78 325.088 235.39C325.036 237.427 324.562 239.431 323.698 241.276C322.833 243.121 321.595 244.767 320.063 246.111C318.531 247.454 316.738 248.465 314.795 249.082C312.853 249.698 310.804 249.905 308.778 249.69C276.708 246.28 174.298 237.69 160.138 267.35C161.038 233.35 154.468 161.25 143.068 122.1C131.468 82.1702 173.378 81.2202 212.998 92.2302Z" fill="#35D2FF"/>
<path d="M248.998 247.37L262.918 262.24C192.328 265.11 155.308 289.24 160.118 269.51C162.958 257.81 193.008 249.58 210.408 247.05C223.268 246.493 236.149 246.6 248.998 247.37ZM284.108 263.5C287.03 262.616 289.591 260.818 291.414 258.369C293.238 255.921 294.228 252.953 294.238 249.9L282.015 248.509L284.108 263.5Z" fill="#0E9FFF"/>
<path opacity="0.5" d="M162.878 88.75C178.618 141.42 190.728 250.09 190.728 250.09C177.108 252.82 162.878 263.37 160.158 267.37C161.068 223.17 154.618 177.17 154.618 177.17C162.278 179.58 168.088 167.92 162.068 162.9C156.048 157.88 151.268 158.46 151.268 158.46C146.408 136.2 144.988 128.08 142.188 118.28C139.388 108.48 136.798 91.51 162.878 88.75Z" fill="#0E9FFF"/>
<path d="M283.568 263.42C292.788 262.42 293.298 254.24 293.728 248.53" stroke="#163050" stroke-width="3" stroke-linecap="round" stroke-linejoin="round"/>
<path d="M151.268 158.44C151.268 158.44 146.008 134.82 142.188 118.26C128.718 59.8901 237.238 92.95 298.828 129.11C310.488 135.96 319.898 147.11 321.768 160.52C325.378 186.45 326.388 217.89 325.088 236.52C324.953 238.457 324.43 240.347 323.55 242.078C322.669 243.809 321.45 245.345 319.963 246.594C318.477 247.844 316.754 248.781 314.898 249.351C313.041 249.92 311.089 250.111 309.158 249.91C181.488 236.52 151.748 263.5 161.298 274.37C169.488 283.65 206.698 262.28 262.898 262.61" stroke="#163050" stroke-width="3" stroke-linecap="round" stroke-linejoin="round"/>
<path d="M153.648 177.82C161.808 224.04 159.728 270.26 159.728 270.26" stroke="#163050" stroke-width="3" stroke-linecap="round" stroke-linejoin="round"/>
<path opacity="0.2" d="M265.538 351.5C259.248 351.5 255.228 355.5 239.538 355.5C230.428 355.5 210.268 352.11 210.268 343.09C210.268 335.67 225.088 332.52 232.508 332.52C246.338 332.52 243.118 345.42 253.198 345.42C258.288 345.42 261.688 340.05 264.198 340.05C268.498 340.05 284.448 351.12 296.738 343.69C283.798 359.09 270.998 351.5 265.538 351.5Z" fill="#163050"/>
<path d="M264.328 307.58C269.268 310.27 277.788 310.27 282.278 307.13C280.178 315.65 280.028 319.13 280.028 319.13C294.838 323.13 301.718 329.9 298.278 339.93C294.838 349.96 273.448 345.61 266.418 337.98C267.618 326.61 265.678 319.13 259.688 311.36C261.446 310.383 263.017 309.104 264.328 307.58Z" fill="#C6BBFF"/>
<path d="M272.078 248.37L281.338 248.84C283.848 268.47 284.008 288.41 276.788 307.09C271.608 308.97 263.698 304.21 263.698 304.21C271.998 284.08 273.328 280.13 272.078 248.37Z" fill="#FFC858"/>
<path d="M281.218 248.02C286.373 266.707 285.54 290.017 277.769 307.774" stroke="#163050" stroke-width="3" stroke-linecap="round" stroke-linejoin="round"/>
<path opacity="0.7" d="M272.615 308.241C272.375 316.021 270.498 323.167 279.838 321.617C287.163 327.31 287.13 335.198 297.518 330.64C302.098 333.54 299.115 344.216 287.604 345.455C276.093 346.694 265.586 336.668 265.586 336.668C265.586 336.668 270.238 324.471 258.867 310.412L264.553 306.277L272.615 308.241Z" fill="#9C7BFF"/>
<path d="M281.478 299C287.138 305.81 277.148 311.79 264.398 306.45" stroke="#163050" stroke-width="3" stroke-linecap="round" stroke-linejoin="round"/>
<path d="M282.618 304.82L279.948 320.18" stroke="#163050" stroke-width="3" stroke-linecap="round" stroke-linejoin="round"/>
<path d="M280.818 318.65C292.668 322.37 299.198 325.2 299.318 335.92C299.488 350.92 273.518 346.46 265.318 336.71" stroke="#163050" stroke-width="3" stroke-linecap="round" stroke-linejoin="round"/>
<path d="M259.364 280.008C268.469 273.159 282.112 291.284 271.719 301.677C261.325 312.071 247.892 288.637 259.364 280.008Z" fill="#A88EFF"/>
<path d="M250.868 247.37C250.868 247.37 283.578 269.87 255.508 287.96C255.755 293.158 257.713 298.129 261.078 302.1C286.588 279.37 283.338 268.24 269.428 248.1C263.258 247.532 257.063 247.288 250.868 247.37Z" fill="#FFC858"/>
<path d="M255.451 283.5C238.93 298.407 231.187 296.958 232.282 308.538C232.68 312.748 235.656 321.048 239.782 328.692C244.137 336.76 246.411 343.688 251.647 344.708C273.514 343.128 266.951 318.101 258.608 310.55C263.228 307.96 266.951 304.5 266.951 304.5C266.951 304.5 253.563 303.383 255.451 283.5Z" fill="#C6BBFF"/>
<path opacity="0.7" d="M256.818 299.37C253.438 300.94 249.818 303.72 243.658 303.72C238.548 303.72 235.658 301.25 234.458 300.81C233.75 301.459 233.198 302.259 232.841 303.15C232.484 304.042 232.333 305.002 232.398 305.96C232.398 306.07 241.758 346.34 254.288 346.34C259.288 346.34 267.868 338.57 266.748 328.64C257.108 338.59 249.548 335.04 249.548 322.74C249.548 311.6 258.368 312.83 264.758 306.55C262.108 303.27 259.168 302.42 256.818 299.37Z" fill="#9C7BFF"/>
<path d="M275.738 255.37C269.328 250.77 262.838 254.17 262.498 261.24C258.187 255.225 252.951 251 247.451 247L269.951 246.5L275.738 255.37Z" fill="#FFAC40"/>
<path d="M277.178 265.26C276.178 284.87 257.258 295.13 257.258 299.46C257.258 307.25 286.618 279.29 277.178 265.26Z" fill="#FFAC40"/>
<path d="M270.451 247C268.051 246.6 253.951 246.5 247.451 246.5C260.946 254.513 274.217 273.283 258.548 286.13L255.379 288.754" stroke="#163050" stroke-width="3" stroke-linecap="round" stroke-linejoin="round"/>
<path d="M269.951 247C283.508 269.652 280.803 283.132 262.168 300.85L261.22 301.872" stroke="#163050" stroke-width="3" stroke-linecap="round" stroke-linejoin="round"/>
<path d="M263.618 278.99C250.938 280.17 253.238 303.45 266.148 303.81C275.435 304.069 276.396 292.206 274.902 285.477" stroke="#163050" stroke-width="3" stroke-linecap="round" stroke-linejoin="round"/>
<path d="M271.212 302.361L256.308 311.49" stroke="#163050" stroke-width="3" stroke-linecap="round" stroke-linejoin="round"/>
<path d="M258.401 281.304C237.661 299.654 227.548 294.89 233.658 314.64C235.838 321.64 240.098 327.73 242.038 333.64C247.958 351.64 267.178 346.18 266.508 328.64C266.331 321.782 263.456 315.271 258.508 310.52" stroke="#163050" stroke-width="3" stroke-linecap="round" stroke-linejoin="round"/>
<path d="M282.585 197.044C284.863 191.659 283.368 185.824 280.449 184.48C276.837 182.823 274.719 185.98 267.022 186.128C257.474 186.321 250.809 183.274 247.926 189.248C241.617 202.327 273.829 217.708 282.585 197.044Z" fill="#163050"/>
<path d="M251.227 200.634C262.715 211.284 278.465 206.783 282.585 197.044C281.962 196.428 274.915 186.34 268.534 193.896C268.49 193.878 258.72 187.048 251.227 200.634Z" fill="#FFA5C3"/>
<path d="M259.049 193.215C257.225 206.552 280.832 202.981 270.75 194.743C277.148 197.283 279.782 194.218 279.72 194.218C280.761 194.108 282.807 195.847 283.03 196.676C281.054 204.794 260.473 211.642 252.259 200.357C251.939 196.022 258.399 193.546 259.049 193.215Z" fill="#FA6D9C"/>
<path d="M280.485 184.48C276.873 182.823 274.755 185.98 267.058 186.128C257.51 186.321 250.845 183.274 247.962 189.248C244.5 196.418 256.406 209.838 271.516 205.945C286.367 202.106 285.246 186.68 280.485 184.48Z" stroke="#163050" stroke-width="3" stroke-linecap="round" stroke-linejoin="round"/>
<path d="M251.058 200.036C258.969 187.076 267.965 193.592 268.534 193.896C275.083 186.652 281.784 196.206 282.282 196.759M273.081 197.477C271.652 195.99 270.025 194.722 268.25 193.712" stroke="#163050" stroke-width="3" stroke-linecap="round" stroke-linejoin="round"/>
<path d="M297.018 168.6L304.738 166.63M222.658 155.27L214.488 148.61M216.448 164.21L201.158 161.48" stroke="#163050" stroke-width="3" stroke-linecap="round" stroke-linejoin="round"/>
<path d="M254.268 156.281C250.608 148.281 241.268 146.281 236.328 152.391" stroke="#163050" stroke-width="3" stroke-linecap="round" stroke-linejoin="round"/>
<path d="M286.998 163.25C284.168 156.63 276.908 154.86 273.098 160" stroke="#163050" stroke-width="3" stroke-linecap="round" stroke-linejoin="round"/>
<path d="M155.65 176.86C113.51 161.53 93.4498 140.49 103.56 83.0902C103.56 83.0402 110.41 62.2802 110.56 62.2802C110.71 62.2802 105.43 60.2802 105.05 57.2802C104.67 54.2802 99.2698 39.6702 118.15 32.7302C124.91 31.3802 135.52 31.9602 132.24 43.9202C137.24 48.7502 136.29 60.9202 123.36 64.3802C116.61 80.2002 101.36 119.38 140.22 152.94C144.62 155.48 159.66 162.43 159.66 162.43C166.15 164.74 164.84 178.09 155.65 176.86Z" fill="white"/>
<path d="M162.66 170.25C160.87 174.44 160.47 178.85 150.07 175.44C139.67 172.03 108.46 156.44 103.46 119.64C97.3701 74.7401 109.83 63.1601 110.57 62.1201C96.4301 55.8201 103.47 41.1201 108.31 38.1201C113.15 35.1201 121.88 36.8201 126.93 42.6001C119.02 50.8701 119.81 48.1901 121.5 55.1801C122.67 60.0001 131.05 56.9601 135.06 52.8201C134.56 56.8201 129.06 63.8201 120.06 64.1701C120.107 64.2625 120.144 64.3597 120.17 64.4601C116.04 66.3501 114.86 64.7501 111.53 77.6201C100.1 128.89 117.99 155.02 162.66 170.25Z" fill="#D0D6DC"/>
<path d="M132.32 43.0201C134.32 40.9601 134.75 38.1501 131.52 35.2801C124.64 29.1501 106.09 32.6901 103.52 47.2801C101.52 58.6701 108.12 61.8001 110.52 62.2801C89.5201 111.75 99.9001 158.5 152.87 176.15C164.33 179.97 166.32 163.81 158.82 161.53C104.41 144.92 110.24 93.8501 123.54 63.6701" stroke="#163050" stroke-width="3" stroke-linecap="round" stroke-linejoin="round"/>
<path d="M156.27 12.25C155.74 25.69 140.5 27.67 140.5 27.67C142.65 33.4 140.86 36.45 140.86 36.45C140.68 47.56 144.8 59.04 152.86 63.16C148.38 68.36 158.77 75.89 158.77 75.89C163.3 72.08 159.9 73.94 175.09 67.82C176.381 63.7182 176.76 59.3836 176.2 55.12C176.2 55.12 191.76 45.77 176.2 34.12C172.13 33.18 172 31.25 172 31.25C172.93 21.37 171.49 12.43 156.27 12.25Z" fill="#9C7BFF"/>
<path d="M247.75 5.51001C251.21 5.30001 253.03 2.36 256.4 2C259.74 2.21 262.64 6.20001 262.64 9.51001C262.64 14.29 255.25 16.43 251.27 18.99L177.05 69.83L176.19 55.12C185.01 49.82 186.09 37.99 174.9 33.04C173.11 22.65 169.73 13.04 162.42 10.89L247.75 5.51001Z" fill="#C6BBFF"/>
<path d="M177.36 53.3699C178.004 53.1239 178.61 52.7872 179.16 52.3699L177.36 53.3699ZM173.11 22.6999C175.11 26.8099 173.49 32.5799 173.49 32.5799C230.01 13.4799 276.49 1.9799 255.12 4.7099C242.41 6.2799 207.97 15.1399 173.11 22.6499V22.6999ZM179.19 52.3299C180.91 51.0399 184.09 45.3299 182.05 39.2299C220.62 23.4699 249.05 11.4499 257.71 8.1099C275.21 1.3699 231.95 22.5499 179.19 52.2799V52.3299ZM174.65 70.9599C177.08 67.3599 178.65 60.2999 176.19 55.1699C291.79 -5.5601 286.42 -7.63009 174.65 70.9099V70.9599Z" fill="#9C7BFF"/>
<path d="M171.409 26C134.627 37.6309 113.233 43.7672 101.223 48.3499C77.7232 55 88.7231 81.5 108.723 76.5C114.643 74.06 112.409 65.46 106.119 67.09C100.519 68.54 95.019 60.8 104.419 57.4C115.059 53.54 171.059 35.92 171.059 35.92C173.319 29.53 171.409 26 171.409 26Z" fill="white"/>
<path opacity="0.3" d="M89.8198 66.8C94.1898 71.93 101.24 75.01 112.02 69.62C114.78 81 93.1198 80.55 89.8198 66.8ZM170.41 36.64L171.95 31.25C99.6498 54.04 89.2998 53.78 96.7898 65.51C97.3698 58.58 94.9998 61.31 170.41 36.64Z" fill="#163050"/>
<path d="M171.43 26.7197C171.43 26.7197 104.12 47.7197 100.29 48.7797C78.5298 54.7797 89.1298 82.0697 108.94 76.3197C115.7 74.3197 113.04 65.0497 106.46 66.9297C98.8198 69.1097 95.1698 59.8397 103.46 57.4197C112.31 54.8297 174.58 34.8597 174.58 34.8597" stroke="#163050" stroke-width="3" stroke-linecap="round" stroke-linejoin="round"/>
<path d="M140.56 35.8698C140.56 35.8698 142.99 30.3498 137.96 27.6698C152.23 28.3098 157.06 21.1998 155.84 11.7998C171.84 11.7998 174.35 26.3698 172.08 33.1798C186.91 36.1798 185.08 51.9498 175.56 54.1798C180.42 70.7998 168.13 77.4798 161.76 71.9998C160.98 76.4698 156.76 79.8198 149.02 64.1798C158.53 61.0098 146.02 66.5098 141.87 45.7398" stroke="#163050" stroke-width="3" stroke-linecap="round" stroke-linejoin="round"/>
<path d="M155.84 11.7999L258.7 3.87988M170.48 73.19L261.77 10.8M175.56 54.2099L261.11 7.93994M172.08 33.1801L260.45 6.08008" stroke="#163050" stroke-width="3" stroke-linecap="round" stroke-linejoin="round"/>
<path d="M152.71 62.98L178.77 52.49M161.76 72.0399L175.71 65.4199M146.3 26.97L169.64 20.46" stroke="#163050" stroke-width="3" stroke-linecap="round" stroke-linejoin="round"/>
<path d="M255.71 15.1797C256.682 15.2892 257.665 15.1642 258.579 14.8151C259.493 14.4661 260.309 13.9032 260.96 13.1736C261.612 12.444 262.079 11.569 262.322 10.6218C262.566 9.67465 262.578 8.68292 262.36 7.72972C261.36 1.98972 255.21 1.24973 252.01 4.07973M260.64 6.81968L266.81 4.66968" stroke="#163050" stroke-width="3" stroke-linecap="round" stroke-linejoin="round"/>
<path d="M125.223 32.9997C132.224 33.1355 135.723 37.9997 132.723 43.9997C139.153 54.1043 120.723 65.7416 120.723 46.9997C103.723 41.9997 116.303 32.2097 125.223 32.9997Z" fill="white"/>
<path d="M121.19 54.6498C121.06 52.1398 119.82 44.6498 126.48 42.8298C137.84 39.8298 140.37 65.3998 118.48 63.0498M121.723 46.3798C119.93 46.4771 118.075 47.0502 116.409 46.3798C114.744 45.7094 113.449 44.812 112.223 43.4999L110.223 43.9999M132.66 43.2498C137.223 39.4998 131.223 28.9999 116.223 33.4998" stroke="#163050" stroke-width="3" stroke-linecap="round" stroke-linejoin="round"/>
<path d="M281.171 409.872C281.171 409.872 274.871 413.802 271.111 424.112C271.111 424.112 268.181 412.232 261.231 406.462C261.761 411.572 261.901 422.522 261.901 422.522C261.901 422.522 254.681 404.882 242.341 398.852C246.766 408.77 249.843 419.236 251.491 429.972C249.293 428.717 246.939 427.755 244.491 427.112C245.312 430.867 245.89 434.672 246.221 438.502C254.401 437.302 260.391 442.692 260.391 442.692C260.391 442.692 264.711 437.102 274.961 436.972C274.961 436.972 278.681 425.212 283.011 422.062C283.001 422.052 281.431 419.312 281.171 409.872Z" fill="url(#paint0_linear)"/>
<path d="M258.441 437.641C255.921 434.951 252.551 431.401 252.551 427.461C252.551 424.691 258.181 415.701 259.551 415.701C264.141 415.701 263.201 435.051 258.441 437.641ZM271.051 423.961C270.851 427.781 272.421 432.771 275.801 434.701C277.801 427.751 277.281 426.981 277.121 413.701C274.341 416.481 271.251 419.891 271.051 423.961Z" fill="#0BD386"/>
<path d="M246.341 437.441C245.874 433.695 245.206 429.976 244.341 426.301C255.711 430.301 260.341 441.361 260.341 441.361" stroke="#163050" stroke-width="3" stroke-linecap="round" stroke-linejoin="round"/>
<path d="M252.101 430.261C249.101 411.261 239.951 395.461 239.951 395.461C259.771 413.151 261.901 422.521 261.901 422.521" stroke="#163050" stroke-width="3" stroke-linecap="round" stroke-linejoin="round"/>
<path d="M260.991 440.271C263.791 423.111 260.621 404.841 260.621 404.841C270.621 416.131 274.471 435.941 274.471 435.941" stroke="#163050" stroke-width="3" stroke-linecap="round" stroke-linejoin="round"/>
<path d="M271.111 424.111C271.861 413.981 281.861 408.861 281.861 408.861C280.431 413.231 281.111 418.141 282.161 421.951" stroke="#163050" stroke-width="3" stroke-linecap="round" stroke-linejoin="round"/>
<path d="M375.781 412.331C372.371 378.081 376.831 359.331 380.441 347.121C384.341 335.201 387.341 329.741 386.741 330.051C386.931 328.631 369.581 356.771 359.741 392.791L375.781 412.331Z" fill="url(#paint1_linear)"/>
<path d="M375.781 412.331C372.371 378.081 376.831 359.331 380.441 347.121C384.341 335.201 387.341 329.741 386.741 330.051C386.931 328.631 369.581 356.771 359.741 392.791" stroke="#163050" stroke-width="3" stroke-linecap="round" stroke-linejoin="round"/>
<defs>
<linearGradient id="paint0_linear" x1="262.681" y1="445.242" x2="262.681" y2="392.682" gradientUnits="userSpaceOnUse">
<stop stop-color="#DEFCF2"/>
<stop offset="1" stop-color="#BBFAE0"/>
</linearGradient>
<linearGradient id="paint1_linear" x1="-6194.48" y1="68445.6" x2="-2619.65" y2="63918.7" gradientUnits="userSpaceOnUse">
<stop stop-color="#DEFCF2"/>
<stop offset="1" stop-color="#BBFAE0"/>
</linearGradient>
</defs>
</svg>
