<svg width="1459" height="930" viewBox="0 0 1459 930" fill="none" xmlns="http://www.w3.org/2000/svg">
<path d="M1454.09 929.749H0.100098L0 0H1453.36L1454.09 929.749Z" fill="url(#paint0_linear)"/>
<path opacity="0.6" d="M1453.99 135.46V630.39C1415.99 653.84 1370.79 666.99 1332.61 666.99C1211.83 666.99 1107.51 547.5 1060.68 444.7C1043.78 407.61 1034.37 372.7 1034.37 346.34C1034.37 327.34 1038.78 309.6 1050.37 295.82C1248.47 297.14 1287.73 201.63 1382.7 156.31C1405.19 145.589 1429.26 138.55 1453.99 135.46Z" fill="white"/>
<path opacity="0.1" d="M1401.04 335.14C1401.04 379.76 1369.72 488.71 1223.14 488.71C1166.14 488.71 1104.47 474.71 1060.68 444.71C1043.78 407.62 1034.37 372.71 1034.37 346.35C1034.37 327.35 1038.78 309.61 1050.37 295.83C1248.47 297.15 1287.73 201.64 1382.7 156.32C1360.48 172.5 1333.95 195.39 1371.15 220.32C1372.27 221.065 1373.22 222.028 1373.96 223.15C1374.7 224.273 1375.2 225.533 1375.44 226.854C1375.68 228.176 1375.65 229.532 1375.36 230.842C1375.06 232.152 1374.5 233.39 1373.72 234.48C1365.51 245.85 1284.72 299 1344.8 299C1356.92 299 1370.49 291 1383.45 282.48C1395.76 297.25 1401.04 315.64 1401.04 335.14Z" fill="url(#paint1_linear)"/>
<path d="M1453.99 385.781L1454.17 929.749H1.6001L1.42041 247.481C163.96 225.821 248.26 129.481 382.25 84.2408C438.25 65.3308 502.88 55.3508 585.53 63.4608C883.82 92.7308 990.91 402.431 1453.99 385.781Z" fill="url(#paint2_linear)"/>
<path opacity="0.2" d="M570.59 634.609C473.21 582.729 430.8 465.689 295.38 465.689C210.79 465.689 102.01 498.529 8.3802 498.529C6.0402 498.529 3.7302 498.529 1.4502 498.459V246.989C163.99 225.329 248.29 128.989 382.28 83.7488C353.02 97.5288 329.91 117.829 329.91 147.119C329.91 198.499 413.66 206.899 413.66 245.519C413.66 261.299 389.14 280.879 389.14 306.809C389.14 351.429 455.95 398.679 481.55 439.559C520.13 501.209 525.07 575.119 570.59 634.609Z" fill="url(#paint3_linear)"/>
<path d="M1453.99 228.27V781.72C1326.91 742.19 1268.03 654.39 1257.05 559.62C1242.14 430.89 1315.6 289.39 1426.52 238.69C1435.43 234.607 1444.61 231.126 1453.99 228.27Z" fill="#EAFEFF"/>
<path opacity="0.2" d="M1453.99 583.58C1434.18 594.78 1407.99 599.58 1381.42 599.58C1335.08 599.58 1292.23 584.26 1257.05 559.58C1242.14 430.89 1315.6 289.39 1426.52 238.69C1393.52 266.96 1376.22 298.38 1376.22 331.77C1376.22 395.2 1421.09 424.42 1453.99 457.77V583.58Z" fill="url(#paint4_linear)"/>
<path d="M1.42041 820.27C333.21 807.61 281.42 211.01 1.42041 155.92V820.27Z" fill="url(#paint5_linear)"/>
<path d="M312.8 23.1601C312.804 24.1084 312.527 25.0364 312.003 25.8267C311.479 26.6171 310.732 27.2341 309.857 27.5998C308.982 27.9654 308.018 28.0631 307.088 27.8805C306.158 27.698 305.302 27.2433 304.63 26.5743C303.958 25.9052 303.5 25.0517 303.314 24.122C303.127 23.1923 303.221 22.2282 303.583 21.3517C303.945 20.4753 304.559 19.726 305.347 19.1988C306.135 18.6716 307.062 18.3901 308.01 18.3901C309.276 18.3927 310.49 18.8955 311.387 19.7889C312.284 20.6823 312.792 21.894 312.8 23.1601Z" fill="#FFFFFC"/>
<path d="M380.04 38.8099C384.359 38.8099 387.86 35.3088 387.86 30.9899C387.86 26.6711 384.359 23.1699 380.04 23.1699C375.721 23.1699 372.22 26.6711 372.22 30.9899C372.22 35.3088 375.721 38.8099 380.04 38.8099Z" fill="#FFFFFC"/>
<path d="M278.84 83.58C282.187 83.58 284.9 80.8668 284.9 77.52C284.9 74.1731 282.187 71.46 278.84 71.46C275.493 71.46 272.78 74.1731 272.78 77.52C272.78 80.8668 275.493 83.58 278.84 83.58Z" fill="#FFFFFC"/>
<path d="M420.88 100.639C420.88 101.606 420.593 102.552 420.056 103.356C419.519 104.16 418.755 104.787 417.861 105.157C416.968 105.527 415.985 105.624 415.036 105.435C414.088 105.246 413.216 104.781 412.532 104.097C411.848 103.413 411.383 102.542 411.194 101.593C411.005 100.644 411.102 99.6612 411.472 98.7677C411.842 97.8742 412.469 97.1105 413.273 96.5731C414.078 96.0358 415.023 95.749 415.99 95.749C417.287 95.749 418.531 96.2642 419.448 97.1813C420.365 98.0983 420.88 99.3421 420.88 100.639Z" fill="#FFFFFC"/>
<path d="M660.62 39.499C660.622 41.8254 659.934 44.1 658.643 46.0353C657.352 47.9705 655.516 49.4794 653.367 50.371C651.219 51.2626 648.854 51.4969 646.572 51.0443C644.29 50.5916 642.194 49.4724 640.548 47.8281C638.902 46.1839 637.781 44.0885 637.327 41.807C636.872 39.5255 637.104 37.1604 637.994 35.011C638.884 32.8615 640.391 31.0243 642.326 29.7316C644.26 28.439 646.534 27.749 648.86 27.749C650.404 27.7477 651.933 28.0507 653.36 28.6406C654.786 29.2305 656.083 30.0958 657.175 31.187C658.267 32.2782 659.134 33.574 659.725 35.0002C660.316 36.4264 660.62 37.9552 660.62 39.499Z" fill="#FFFFFC"/>
<path d="M503.76 60.7602C503.76 60.5426 503.696 60.3299 503.575 60.149C503.454 59.9681 503.282 59.8271 503.081 59.7439C502.88 59.6606 502.659 59.6388 502.445 59.6813C502.232 59.7237 502.036 59.8285 501.882 59.9823C501.728 60.1362 501.624 60.3322 501.581 60.5456C501.539 60.7589 501.561 60.9801 501.644 61.1811C501.727 61.3821 501.868 61.5539 502.049 61.6748C502.23 61.7956 502.442 61.8602 502.66 61.8602C502.952 61.8602 503.232 61.7443 503.438 61.538C503.644 61.3317 503.76 61.0519 503.76 60.7602Z" fill="#FFFFFC"/>
<path d="M488.48 12.429C488.482 13.1593 488.267 13.8737 487.863 14.4818C487.459 15.0899 486.883 15.5644 486.209 15.8453C485.535 16.1261 484.793 16.2006 484.076 16.0593C483.36 15.9181 482.701 15.5674 482.184 15.0518C481.667 14.5361 481.315 13.8787 481.172 13.1626C481.029 12.4465 481.101 11.7041 481.38 11.0292C481.659 10.3544 482.132 9.77751 482.739 9.3716C483.346 8.9657 484.06 8.74903 484.79 8.74902C485.767 8.74902 486.704 9.13641 487.396 9.82626C488.087 10.5161 488.477 11.4521 488.48 12.429Z" fill="#FFFFFC"/>
<path d="M480.83 39.4498C480.83 40.2667 480.588 41.0652 480.134 41.7443C479.68 42.4235 479.035 42.9529 478.281 43.2655C477.526 43.578 476.696 43.6598 475.895 43.5005C475.093 43.3411 474.358 42.9478 473.78 42.3702C473.202 41.7926 472.809 41.0567 472.65 40.2556C472.49 39.4544 472.572 38.624 472.885 37.8694C473.197 37.1147 473.727 36.4697 474.406 36.0159C475.085 35.5621 475.883 35.3198 476.7 35.3198C477.243 35.3185 477.781 35.4244 478.282 35.6315C478.784 35.8386 479.24 36.1428 479.624 36.5265C480.007 36.9103 480.312 37.3661 480.519 37.8678C480.726 38.3695 480.832 38.9071 480.83 39.4498Z" fill="#FFFFFC"/>
<path d="M627.04 346.63C627.04 348.29 626.548 349.912 625.626 351.291C624.704 352.671 623.394 353.747 621.861 354.382C620.328 355.017 618.641 355.183 617.013 354.859C615.386 354.535 613.891 353.736 612.718 352.563C611.544 351.39 610.745 349.895 610.421 348.267C610.098 346.64 610.264 344.953 610.899 343.42C611.534 341.886 612.609 340.576 613.989 339.654C615.369 338.732 616.991 338.24 618.65 338.24C620.875 338.24 623.009 339.124 624.583 340.698C626.156 342.271 627.04 344.405 627.04 346.63Z" fill="#FFFFFC"/>
<path d="M748.81 324.72C748.81 325.314 748.634 325.894 748.304 326.387C747.975 326.88 747.506 327.265 746.958 327.492C746.41 327.719 745.807 327.778 745.225 327.663C744.643 327.547 744.108 327.261 743.689 326.842C743.269 326.422 742.983 325.887 742.868 325.306C742.752 324.724 742.811 324.12 743.038 323.572C743.265 323.024 743.65 322.555 744.143 322.226C744.637 321.896 745.217 321.72 745.81 321.72C746.606 321.72 747.369 322.036 747.931 322.599C748.494 323.162 748.81 323.925 748.81 324.72Z" fill="#FFFFFC"/>
<path d="M765.44 300.98C765.44 302.129 765.1 303.252 764.461 304.208C763.823 305.163 762.915 305.908 761.854 306.348C760.792 306.787 759.624 306.902 758.497 306.678C757.37 306.454 756.335 305.901 755.522 305.088C754.709 304.276 754.156 303.24 753.932 302.113C753.708 300.986 753.823 299.818 754.263 298.757C754.702 297.695 755.447 296.787 756.402 296.149C757.358 295.511 758.481 295.17 759.63 295.17C761.171 295.17 762.649 295.782 763.739 296.872C764.828 297.961 765.44 299.439 765.44 300.98Z" fill="#FFFFFC"/>
<path d="M1188.14 24.6801C1188.14 25.9281 1187.77 27.1481 1187.08 28.1858C1186.38 29.2234 1185.4 30.0322 1184.24 30.5098C1183.09 30.9874 1181.82 31.1124 1180.6 30.8689C1179.37 30.6254 1178.25 30.0244 1177.37 29.142C1176.49 28.2595 1175.88 27.1352 1175.64 25.9111C1175.4 24.6871 1175.52 23.4184 1176 22.2654C1176.48 21.1124 1177.29 20.1269 1178.32 19.4336C1179.36 18.7402 1180.58 18.3701 1181.83 18.3701C1182.66 18.3688 1183.48 18.5311 1184.25 18.8478C1185.01 19.1644 1185.71 19.6291 1186.29 20.2153C1186.88 20.8015 1187.35 21.4977 1187.66 22.2638C1187.98 23.03 1188.14 23.8511 1188.14 24.6801Z" fill="#FFFFFC"/>
<path d="M1140.65 58.1298C1142.74 58.1298 1144.43 56.4375 1144.43 54.3498C1144.43 52.2622 1142.74 50.5698 1140.65 50.5698C1138.56 50.5698 1136.87 52.2622 1136.87 54.3498C1136.87 56.4375 1138.56 58.1298 1140.65 58.1298Z" fill="#FFFFFC"/>
<path d="M1187.65 77.5102C1187.65 78.7088 1187.29 79.8804 1186.63 80.877C1185.96 81.8735 1185.02 82.6502 1183.91 83.1089C1182.8 83.5676 1181.58 83.6876 1180.41 83.4538C1179.23 83.2199 1178.15 82.6428 1177.31 81.7953C1176.46 80.9478 1175.88 79.868 1175.65 78.6924C1175.41 77.5169 1175.53 76.2985 1175.99 75.1911C1176.45 74.0838 1177.23 73.1374 1178.22 72.4715C1179.22 71.8056 1180.39 71.4502 1181.59 71.4502C1182.39 71.4502 1183.17 71.6069 1183.91 71.9115C1184.64 72.216 1185.31 72.6624 1185.88 73.2251C1186.44 73.7879 1186.88 74.4559 1187.19 75.1911C1187.49 75.9264 1187.65 76.7144 1187.65 77.5102Z" fill="#FFFFFC"/>
<path d="M996.99 228.09C1001.99 228.09 1006.04 224.038 1006.04 219.04C1006.04 214.042 1001.99 209.99 996.99 209.99C991.992 209.99 987.94 214.042 987.94 219.04C987.94 224.038 991.992 228.09 996.99 228.09Z" fill="#FFFFFC"/>
<path d="M801.99 391.65C801.986 393.675 801.382 395.653 800.254 397.335C799.126 399.016 797.525 400.326 795.653 401.097C793.781 401.869 791.722 402.068 789.737 401.67C787.751 401.272 785.929 400.294 784.499 398.86C783.069 397.426 782.097 395.601 781.704 393.614C781.312 391.628 781.517 389.57 782.295 387.7C783.072 385.83 784.386 384.233 786.071 383.11C787.755 381.987 789.735 381.388 791.76 381.39C793.106 381.39 794.439 381.656 795.682 382.172C796.925 382.688 798.054 383.444 799.005 384.397C799.955 385.35 800.708 386.481 801.22 387.726C801.732 388.971 801.994 390.304 801.99 391.65Z" fill="#FFFFFC"/>
<path d="M648.62 328.55C651.116 328.55 653.14 326.526 653.14 324.03C653.14 321.533 651.116 319.51 648.62 319.51C646.124 319.51 644.1 321.533 644.1 324.03C644.1 326.526 646.124 328.55 648.62 328.55Z" fill="#FFFFFC"/>
<path d="M892.73 48.9601C892.73 50.0241 892.415 51.0643 891.824 51.949C891.232 52.8338 890.392 53.5233 889.409 53.9305C888.426 54.3377 887.344 54.4443 886.301 54.2367C885.257 54.0291 884.298 53.5167 883.546 52.7643C882.794 52.0119 882.281 51.0533 882.074 50.0097C881.866 48.966 881.973 47.8843 882.38 46.9012C882.787 45.9182 883.477 45.0779 884.361 44.4868C885.246 43.8956 886.286 43.5801 887.35 43.5801C888.777 43.5801 890.146 44.1469 891.154 45.1558C892.163 46.1648 892.73 47.5332 892.73 48.9601Z" fill="#FFFFFC"/>
<path d="M962.34 32.4399C966.223 32.4399 969.37 29.2924 969.37 25.4099C969.37 21.5273 966.223 18.3799 962.34 18.3799C958.458 18.3799 955.31 21.5273 955.31 25.4099C955.31 29.2924 958.458 32.4399 962.34 32.4399Z" fill="#FFFFFC"/>
<path d="M1403.66 103.24C1403.66 104.489 1403.29 105.709 1402.6 106.747C1401.9 107.785 1400.92 108.594 1399.76 109.071C1398.61 109.548 1397.34 109.672 1396.12 109.428C1394.89 109.184 1393.77 108.582 1392.88 107.698C1392 106.815 1391.4 105.69 1391.16 104.465C1390.92 103.24 1391.04 101.971 1391.52 100.819C1392 99.6657 1392.81 98.6809 1393.85 97.9887C1394.89 97.2966 1396.11 96.9282 1397.36 96.9302C1399.03 96.9328 1400.63 97.5988 1401.82 98.7819C1403 99.9649 1403.66 101.568 1403.66 103.24Z" fill="#FFFFFC"/>
<path d="M1377.43 40.6699C1379.52 40.6699 1381.21 38.9775 1381.21 36.8899C1381.21 34.8022 1379.52 33.1099 1377.43 33.1099C1375.34 33.1099 1373.65 34.8022 1373.65 36.8899C1373.65 38.9775 1375.34 40.6699 1377.43 40.6699Z" fill="#FFFFFC"/>
<path d="M1443.75 119.26C1443.75 120.461 1443.4 121.636 1442.73 122.635C1442.07 123.635 1441.12 124.414 1440.01 124.875C1438.9 125.336 1437.68 125.458 1436.5 125.225C1435.32 124.992 1434.24 124.414 1433.39 123.566C1432.54 122.717 1431.96 121.636 1431.73 120.458C1431.49 119.28 1431.61 118.059 1432.07 116.95C1432.53 115.84 1433.31 114.891 1434.31 114.224C1435.31 113.556 1436.48 113.2 1437.68 113.2C1438.48 113.199 1439.27 113.355 1440 113.659C1440.74 113.963 1441.41 114.409 1441.97 114.972C1442.54 115.534 1442.98 116.203 1443.29 116.939C1443.59 117.675 1443.75 118.464 1443.75 119.26Z" fill="#FFFFFC"/>
<path d="M1108.26 127.53C1108.26 128.596 1107.94 129.638 1107.35 130.525C1106.76 131.411 1105.92 132.102 1104.93 132.51C1103.95 132.918 1102.86 133.025 1101.82 132.817C1100.77 132.609 1099.81 132.095 1099.06 131.341C1098.31 130.588 1097.79 129.627 1097.58 128.582C1097.38 127.536 1097.48 126.452 1097.89 125.467C1098.3 124.483 1098.99 123.641 1099.88 123.049C1100.76 122.456 1101.8 122.14 1102.87 122.14C1103.58 122.139 1104.28 122.277 1104.93 122.548C1105.59 122.818 1106.18 123.215 1106.68 123.716C1107.19 124.217 1107.58 124.811 1107.85 125.466C1108.12 126.12 1108.26 126.822 1108.26 127.53Z" fill="#FFFFFC"/>
<path d="M1184.91 103.97C1184.91 105.355 1184.5 106.708 1183.73 107.859C1182.96 109.01 1181.87 109.908 1180.59 110.437C1179.31 110.967 1177.9 111.106 1176.54 110.836C1175.19 110.566 1173.94 109.899 1172.96 108.92C1171.98 107.941 1171.31 106.694 1171.04 105.336C1170.77 103.978 1170.91 102.571 1171.44 101.291C1171.97 100.012 1172.87 98.9191 1174.02 98.1499C1175.17 97.3808 1176.53 96.9702 1177.91 96.9702C1179.77 96.9702 1181.55 97.7077 1182.86 99.0205C1184.17 100.333 1184.91 102.114 1184.91 103.97Z" fill="#FFFFFC"/>
<path d="M706.02 404.92C708.252 404.92 710.06 403.111 710.06 400.88C710.06 398.649 708.252 396.84 706.02 396.84C703.789 396.84 701.98 398.649 701.98 400.88C701.98 403.111 703.789 404.92 706.02 404.92Z" fill="#FFFFFC"/>
<path d="M38.8801 63.139C38.8801 64.7984 38.388 66.4205 37.4661 67.8003C36.5442 69.18 35.2339 70.2554 33.7008 70.8904C32.1677 71.5254 30.4808 71.6915 28.8533 71.3678C27.2258 71.0441 25.7308 70.245 24.5575 69.0717C23.3841 67.8983 22.585 66.4033 22.2613 64.7758C21.9376 63.1483 22.1037 61.4614 22.7388 59.9283C23.3738 58.3952 24.4491 57.0849 25.8289 56.163C27.2086 55.2411 28.8307 54.749 30.4901 54.749C32.7153 54.749 34.8493 55.633 36.4227 57.2064C37.9962 58.7798 38.8801 60.9139 38.8801 63.139Z" fill="#FFFFFC"/>
<path d="M148.91 42.1001C148.91 42.6934 148.734 43.2735 148.405 43.7668C148.075 44.2602 147.606 44.6447 147.058 44.8717C146.51 45.0988 145.907 45.1582 145.325 45.0425C144.743 44.9267 144.208 44.641 143.789 44.2214C143.369 43.8019 143.084 43.2673 142.968 42.6854C142.852 42.1034 142.911 41.5002 143.139 40.952C143.366 40.4039 143.75 39.9353 144.243 39.6057C144.737 39.276 145.317 39.1001 145.91 39.1001C146.706 39.1001 147.469 39.4162 148.031 39.9788C148.594 40.5414 148.91 41.3044 148.91 42.1001Z" fill="#FFFFFC"/>
<path d="M165.52 18.3899C165.522 19.5398 165.183 20.6645 164.545 21.6215C163.908 22.5785 163 23.3247 161.938 23.7657C160.876 24.2067 159.707 24.3226 158.579 24.0987C157.451 23.8748 156.415 23.3213 155.602 22.5081C154.789 21.695 154.235 20.6588 154.012 19.5309C153.788 18.4029 153.904 17.2339 154.345 16.1718C154.786 15.1098 155.532 14.2025 156.489 13.5648C157.446 12.9272 158.57 12.5879 159.72 12.5899C161.258 12.5925 162.732 13.2044 163.819 14.2916C164.906 15.3787 165.518 16.8524 165.52 18.3899Z" fill="#FFFFFC"/>
<path d="M202.07 109.03C202.07 111.053 201.47 113.031 200.346 114.713C199.222 116.396 197.624 117.707 195.755 118.481C193.886 119.255 191.829 119.458 189.845 119.063C187.86 118.669 186.037 117.694 184.607 116.264C183.176 114.833 182.202 113.01 181.807 111.026C181.412 109.041 181.615 106.984 182.389 105.115C183.163 103.246 184.475 101.648 186.157 100.524C187.839 99.3998 189.817 98.7998 191.84 98.7998C194.554 98.7998 197.156 99.8776 199.074 101.796C200.993 103.715 202.07 106.317 202.07 109.03Z" fill="#FFFFFC"/>
<path d="M39.6201 39.789C42.1164 39.789 44.1401 37.7654 44.1401 35.269C44.1401 32.7727 42.1164 30.749 39.6201 30.749C37.1238 30.749 35.1001 32.7727 35.1001 35.269C35.1001 37.7654 37.1238 39.789 39.6201 39.789Z" fill="#FFFFFC"/>
<path d="M22.7803 171.66C22.7803 172.451 22.5457 173.225 22.1062 173.882C21.6666 174.54 21.0419 175.053 20.311 175.356C19.5801 175.658 18.7758 175.738 17.9999 175.583C17.224 175.429 16.5113 175.048 15.9518 174.489C15.3924 173.929 15.0115 173.216 14.8571 172.441C14.7028 171.665 14.782 170.86 15.0848 170.129C15.3875 169.399 15.9002 168.774 16.558 168.334C17.2158 167.895 17.9892 167.66 18.7803 167.66C19.8411 167.66 20.8586 168.082 21.6087 168.832C22.3588 169.582 22.7803 170.599 22.7803 171.66Z" fill="#FFFFFC"/>
<path d="M0.137342 232.903C0.137342 233.003 0.137344 232.953 0.0273438 232.903H0.137342Z" fill="#94DFFA"/>
<path d="M106.048 371.453C95.1075 390.673 66.0475 332.843 102.158 401.793C79.0275 397.533 39.0375 391.253 18.4075 402.253C6.2775 400.343 1.4675 399.723 0.247496 399.533C0.00749594 399.293 0.397496 148.913 0.397496 148.793C25.3975 125.553 13.5675 141.433 6.3375 133.723C3.6075 130.723 3.0275 128.933 7.5675 122.603C18.6375 107.143 55.8175 75.4733 70.7075 63.6533C71.5601 62.9681 72.5422 62.4619 73.5949 62.1652C74.6477 61.8685 75.7495 61.7873 76.8345 61.9264C77.9194 62.0655 78.9651 62.4221 79.9089 62.9748C80.8528 63.5276 81.6754 64.2651 82.3275 65.1433C84.4775 68.0533 84.0675 66.6032 87.8575 105.433C91.5775 143.573 101.357 174.803 77.8575 155.833C75.4575 155.833 98.9875 236.053 98.9875 260.833C95.6175 276.833 79.2975 256.463 79.1975 256.563C79.2175 263.723 110.188 361.143 106.048 371.453Z" fill="#94DFFA"/>
<path opacity="0.6" d="M0.137342 232.903C0.137342 233.003 0.137344 232.953 0.0273438 232.903H0.137342Z" fill="#94DFFA"/>
<path d="M106.048 371.453C95.1075 390.673 66.0475 332.843 102.158 401.793C38.9775 414.953 0.747511 399.593 0.647511 399.593C-0.212489 399.343 0.327511 235.883 0.327511 148.793C24.1075 126.653 14.9275 139.243 8.25751 135.383C3.42751 132.003 2.48751 129.303 7.25751 122.903C7.35751 122.803 15.8775 106.473 69.5175 64.5833C76.9475 58.7833 83.2975 63.7933 83.8575 69.2933C85.2275 81.7933 93.7175 154.503 92.4175 158.033C89.4175 166.033 77.7875 155.193 77.7875 156.103C77.7875 161.743 99.0075 238.683 99.0075 260.043C99.0075 266.223 93.2175 272.353 79.7275 257.043C75.1275 251.773 110.558 360.233 106.048 371.453Z" fill="#B9F0FD"/>
<path d="M99.1676 256.513C99.2676 261.853 99.8076 261.163 95.7976 258.573C95.6976 258.473 79.2276 247.983 79.2276 247.833C78.8976 247.603 5.77759 237.923 0.327585 237.233C0.137585 237.233 0.187586 159.453 0.187586 148.783C21.1876 127.783 16.1876 138.713 8.85759 135.723C6.31759 134.723 3.99759 131.103 3.99759 130.213C3.99759 118.143 64.1276 68.3534 63.4976 69.5434C35.5676 126.893 70.4976 132.543 88.5676 114.123C93.4076 153.713 94.1676 158.893 89.6776 160.693C80.4576 160.693 80.1876 157.473 76.4376 149.613C20.8876 114.473 -21.4424 201.423 41.0276 222.893C59.4976 229.243 80.3876 225.453 89.5376 208.193C94.2676 228.313 98.9976 247.283 99.1676 256.513Z" fill="#A2E7FC"/>
<path d="M105.018 355.623C105.069 374.922 94.5341 371.426 76.1783 349.075C68.3886 400.212 56.5228 391.25 43.0351 339.611C35.6712 388.518 19.9622 364.145 0.237793 322.319V309.213C15.9309 339.097 74.2392 348.422 95.6978 319.143C96.8078 323.303 102.658 344.303 105.018 355.623Z" fill="#94DFFA"/>
<path opacity="0.5" d="M5.33767 197.483C4.61767 198.803 2.27767 203.613 0.22767 208.433C0.22767 199.863 -1.26233 203.633 5.33767 197.483Z" fill="#94DFFA"/>
<path d="M97.2475 264.833C93.0375 270.963 83.7675 260.983 79.2475 256.413C79.2475 257.413 82.3775 269.703 82.6675 270.843C76.2775 265.433 76.5175 262.843 77.8475 268.023C73.7968 263.255 70.1791 258.134 67.0375 252.723C66.6575 251.983 63.6475 277.233 55.4275 280.903C45.7775 285.223 41.3475 258.903 42.4275 249.073C42.0975 249.883 34.4275 278.323 25.6675 274.163C16.5575 269.923 13.7675 244.933 13.8675 244.913C13.9675 244.893 6.86753 256.753 0.257535 261.693C0.117535 261.833 0.257535 261.173 0.257535 242.533C8.78753 242.783 15.7775 233.303 19.3975 225.533C19.3975 244.283 26.8075 256.693 34.5775 241.793C40.3075 230.343 44.3775 210.423 45.2975 206.733C45.6675 214.123 49.1575 253.553 55.6575 251.903C61.1375 250.533 63.8975 235.813 63.8975 231.903C65.356 235.994 67.1765 239.946 69.3375 243.713C77.1175 256.883 82.7775 250.943 82.7775 250.323C86.2375 245.123 87.0775 233.823 87.9475 227.033C88.6275 221.713 87.7575 221.033 89.3175 226.663C89.2875 227.193 96.7175 256.033 97.2475 264.833Z" fill="#94DFFA"/>
<path opacity="0.5" d="M61.5576 125.863C61.4476 126.713 61.3476 127.503 61.2876 128.303C61.4176 127.353 61.4976 126.523 61.5576 125.863Z" fill="#94DFFA"/>
<path opacity="0.5" d="M23.7975 110.403C33.1375 101.403 14.7075 117.763 4.4375 131.263C8.2375 137.883 13.1575 136.363 15.4375 135.143C1.0575 132.533 23.4975 110.403 23.7975 110.403Z" fill="#94DFFA"/>
<path d="M13.3973 143.573C10.0773 146.513 8.14734 147.573 15.0273 144.573C17.8818 143.383 20.5494 141.787 22.9473 139.833C8.94734 154.833 17.7873 171.703 43.1273 148.433C44.5173 155.983 38.6673 170.223 48.5573 171.993C57.5573 173.603 61.7273 161.823 64.0773 154.443C64.2073 154.033 70.9273 161.443 74.4273 165.093C75.3573 166.093 75.2273 166.173 74.8673 164.603C76.5857 166.028 78.4493 167.269 80.4273 168.303C78.7573 160.643 77.7273 155.743 77.7273 155.743C76.5873 155.743 90.0673 164.173 90.0673 160.253C90.3273 157.633 87.6674 139.123 86.8673 134.063C85.4874 125.353 86.7873 128.993 84.7773 139.063C79.9173 163.503 61.3073 144.573 61.3573 130.063C61.3573 126.923 61.9073 127.683 60.2873 134.913C53.4973 157.953 43.3473 148.943 45.4973 132.993C36.6773 146.313 20.4973 149.913 37.7873 123.433C39.9973 120.043 40.8773 119.573 38.7873 121.543C33.6273 126.373 23.3573 135.773 16.3473 135.363C15.5073 135.363 17.0773 133.923 5.02734 144.683C9.30734 147.013 13.3973 143.573 13.3973 143.573Z" fill="#92E1FB"/>
<path d="M3.98746 130.243C3.98746 131.093 7.85746 138.343 14.4175 135.663C16.4175 134.853 17.4175 133.663 15.7275 135.203C11.9775 137.923 13.9075 136.973 16.2375 136.133C25.7475 132.713 28.2375 127.853 24.3875 132.763C13.4975 146.703 21.7275 161.623 46.2475 139.383C47.4975 147.143 41.6675 161.073 51.4375 162.973C60.0275 164.643 64.4375 153.653 67.0775 145.513C67.0775 145.353 67.8775 146.103 68.6875 146.933C79.2975 157.813 78.1375 157.933 77.7575 155.793C77.6675 155.303 79.3375 157.863 84.8575 160.113C94.9375 164.223 92.7375 152.673 92.7375 147.683C92.7875 147.143 91.5975 135.873 91.5375 135.443C88.2975 112.203 89.9275 120.973 87.9575 130.443C83.0075 154.173 66.0875 137.103 64.7575 123.343C64.7575 114.683 65.5475 122.163 61.6275 132.153C55.9975 146.493 46.8475 139.433 48.9775 124.153C38.0975 140.203 22.8775 137.683 43.5575 111.363C19.6875 135.233 7.75746 126.363 17.2575 113.153C22.1375 105.563 38.3475 90.1531 23.5775 104.743C19.2375 109.023 5.32746 122.743 4.05746 129.153C4.15746 130.073 3.88746 130.243 3.98746 130.243Z" fill="white"/>
<path d="M0.2274 205.893C0.2274 205.893 0.1574 194.993 0.2274 194.893C11.9974 187.073 9.4974 181.283 0.2274 205.893Z" fill="white"/>
<path d="M95.5877 266.303C89.5877 269.303 79.0877 255.383 79.5877 256.803C79.6646 257.507 79.7882 258.205 79.9577 258.893C79.9577 259.473 73.4077 251.153 69.1477 243.553C68.9118 244.496 68.7282 245.45 68.5977 246.413C64.2077 281.483 43.5977 282.163 44.5977 240.233C45.1277 234.393 35.7577 279.413 23.3977 260.883C17.6977 252.143 16.2377 235.803 16.2077 235.703C15.4677 235.703 12.3977 244.873 0.27769 253.943C0.18769 253.943 0.27769 232.943 0.44769 232.943C12.9877 235.883 21.6777 217.213 22.0077 216.323C21.9177 217.533 22.0677 240.753 31.0877 238.923C38.2277 237.413 45.6677 207.843 45.6677 207.133C49.9277 190.373 45.9877 194.553 50.9877 225.133C50.9877 225.623 53.6877 243.903 57.9877 242.853C62.8777 241.633 65.1177 231.293 65.9877 226.353C66.6777 222.263 66.1077 222.233 67.0777 224.783C67.0777 227.433 80.1577 254.113 86.5277 238.693C88.9077 232.943 90.2077 221.603 90.8477 214.993C91.0077 213.563 90.5977 212.073 92.2777 219.333C97.0977 240.663 103.498 263.683 95.5877 266.303Z" fill="white"/>
<path d="M0.0375 308.893C-0.0125 308.793 -0.0125 308.823 0.0375 308.633C0.0675 308.703 0.1175 308.663 0.0375 308.893Z" fill="white"/>
<path d="M106.738 367.503C106.738 379.773 92.5177 376.083 84.8777 366.503C84.8777 366.503 86.4077 369.763 86.4777 369.893C70.2477 355.163 78.1977 352.423 73.2177 374.593C65.9677 405.513 50.2777 380.093 42.2177 351.673C40.3577 344.863 40.7777 344.743 40.7777 349.673C40.2177 357.043 37.4977 369.143 30.6977 369.143C17.9777 371.143 2.49774 323.473 1.91774 325.383C1.81774 325.483 2.10774 324.903 0.227739 330.533C0.227739 332.263 0.0877399 305.963 0.41774 304.623C7.05774 281.243 0.00774097 288.173 13.5577 324.783C17.5577 335.353 23.5577 350.123 30.8677 342.853C33.293 340.367 35.2449 337.459 36.6277 334.273C48.3377 309.533 39.1077 303.563 46.1677 335.533C46.9777 337.953 49.4777 351.343 55.0677 350.633C64.8377 348.773 61.4777 320.133 62.3677 321.463C65.7677 327.863 84.8077 354.153 92.0377 346.823C95.6177 343.193 96.8977 328.713 96.8977 323.603C99.5877 333.193 106.738 358.393 106.738 367.503Z" fill="white"/>
<path d="M64.4976 119.383C64.6376 118.443 64.7376 117.623 64.7976 116.953C64.7176 117.793 64.6076 118.593 64.4976 119.383Z" fill="white"/>
<path opacity="0.6" d="M65.5977 227.083C66.9577 223.593 66.5077 223.773 66.2277 222.843C66.2277 222.843 66.0477 224.603 65.5977 227.083Z" fill="#CBFAFF"/>
<path opacity="0.6" d="M64.4974 119.383C63.7374 124.663 62.0974 129.253 64.4474 123.153C64.3292 121.898 64.3459 120.635 64.4974 119.383Z" fill="#CBFAFF"/>
<path opacity="0.6" d="M8.14754 188.144C0.227539 203.574 0.227539 207.684 0.227539 204.544C1.71754 199.084 4.12754 192.144 8.12754 188.144H8.14754Z" fill="#CBFAFF"/>
<path opacity="0.6" d="M63.4973 323.243C61.1673 319.633 63.0773 320.193 62.0273 334.173C62.8445 330.581 63.3365 326.923 63.4973 323.243Z" fill="#CBFAFF"/>
<path opacity="0.6" d="M46.2576 139.393C47.5676 146.953 41.6176 161.143 51.4976 162.983C60.4976 164.643 64.6676 152.873 67.1276 145.513C67.2676 145.103 73.8976 152.513 77.3476 156.213C78.2576 157.213 78.1376 157.313 77.7876 155.723C81.7876 159.153 88.8976 163.593 91.9976 158.843C93.2076 156.993 92.9976 155.203 92.9976 152.303C88.9976 154.623 80.2876 147.533 80.5276 147.533C80.8376 149.083 80.9976 149.003 80.0876 148.013C76.6776 144.293 70.0876 136.853 69.9976 137.263C67.4976 144.623 63.1076 156.363 54.1976 154.653C45.9776 153.083 48.9176 142.813 49.3576 135.143C49.0059 133.998 48.7582 132.823 48.6176 131.633C29.6176 148.493 21.9276 142.353 22.4376 135.633C14.2876 148.783 23.6976 159.853 46.2576 139.393Z" fill="#CBFAFF"/>
<path opacity="0.6" d="M79.8878 259.223C79.4378 257.393 79.1778 256.383 79.1778 256.383C79.1778 256.383 95.9378 276.503 98.9378 260.703C99.1878 259.304 99.2584 257.88 99.1478 256.463C93.8878 264.143 80.9978 248.143 81.0478 248.143C81.0978 248.143 81.2978 249.143 81.7278 250.983C67.5978 233.983 72.7878 229.983 69.2578 243.863C72.3056 249.309 75.865 254.452 79.8878 259.223Z" fill="#CBFAFF"/>
<path opacity="0.6" d="M87.7975 361.843C73.7975 350.233 77.9875 343.983 75.9175 358.123C78.9998 362.622 82.7032 366.662 86.9175 370.123C85.9175 367.923 85.2975 366.693 85.2975 366.693C85.2975 366.693 99.6375 382.923 106.067 371.453C106.817 370.103 106.897 367.453 106.507 363.963C99.8175 374.123 86.1975 358.523 86.2475 358.483L87.7975 361.843Z" fill="#CBFAFF"/>
<path opacity="0.6" d="M61.3073 387.984C73.0673 395.144 75.4273 361.544 75.8673 358.344C74.1873 368.864 70.6373 384.804 62.1573 379.644C49.6273 372.024 41.5873 335.864 42.0873 337.704C42.1866 341.007 41.8878 344.311 41.1973 347.544C42.7073 354.244 50.5873 381.504 61.3073 387.984Z" fill="#CBFAFF"/>
<path opacity="0.6" d="M36.0775 122.403C43.0775 109.533 47.0075 108.403 38.1475 116.023C36.8975 118.553 36.0575 120.863 36.0775 122.403Z" fill="#CBFAFF"/>
<path opacity="0.6" d="M40.8273 349.143C40.8273 354.143 39.1973 362.953 35.3273 366.823C20.8173 381.333 2.72726 323.043 2.08727 324.823C1.08727 327.723 0.507266 329.753 0.197266 330.573C0.197266 323.813 0.807264 325.323 0.807264 324.503C5.34726 311.643 1.56727 313.383 9.86727 331.503V331.593C10.9973 332.713 29.5673 382.873 40.8273 349.143Z" fill="#CBFAFF"/>
<path opacity="0.6" d="M45.6274 207.143C48.6774 197.143 48.0474 197.253 48.0474 197.353C48.0474 197.453 47.0874 201.513 45.6274 207.143Z" fill="#CBFAFF"/>
<path opacity="0.6" d="M13.4975 137.143C16.7613 136.179 19.8896 134.805 22.8075 133.053C26.0575 122.563 32.0375 122.053 24.9075 125.133C22.2788 126.595 19.4904 127.75 16.5975 128.573C24.5975 121.743 13.6975 133.863 7.5175 122.573C4.7075 126.473 3.3775 129.413 4.1675 130.903C10.7175 143.143 22.4975 129.343 13.4975 137.143Z" fill="#CBFAFF"/>
<path opacity="0.6" d="M68.6476 246.243C68.6476 247.243 66.1776 256.413 66.1776 256.533C58.1776 283.403 44.9976 275.323 44.5976 243.123C44.5976 239.013 44.8976 239.333 43.6776 242.993C28.5176 289.993 16.6176 248.903 16.6176 239.283C15.7476 233.283 16.9076 236.203 14.0876 239.033C11.2176 243.323 4.94756 251.663 0.347562 253.963C0.177562 254.053 0.227562 254.963 0.227562 246.373C6.88756 244.143 14.7576 233.143 18.4076 227.273C18.2676 228.273 21.0376 252.353 29.6176 256.493C34.9676 259.133 40.9476 248.013 42.7176 242.693C49.0176 227.623 45.5876 227.953 47.1676 243.293C47.6576 246.213 48.8076 262.883 56.3776 263.923C65.1076 265.143 68.6476 244.323 68.6476 246.243Z" fill="#CBFAFF"/>
<path opacity="0.6" d="M17.4272 110.983C15.9172 116.803 18.6572 108.683 30.0972 98.7833C30.2372 98.7833 29.4972 98.2033 17.4272 110.983Z" fill="#CBFAFF"/>
<path opacity="0.6" d="M97.3075 325.014C96.6175 322.604 97.1475 322.374 96.4175 330.454C96.8054 328.656 97.1024 326.841 97.3075 325.014Z" fill="#CBFAFF"/>
<path opacity="0.6" d="M91.5974 217.023C90.1074 210.623 91.6474 213.253 88.8374 229.383C91.7174 220.433 91.3274 217.023 91.5974 217.023Z" fill="#CBFAFF"/>
<path opacity="0.6" d="M64.8376 116.953C64.7176 117.783 64.6076 118.583 64.5376 119.383C64.6776 118.436 64.7776 117.626 64.8376 116.953Z" fill="#CBFAFF"/>
<path opacity="0.6" d="M89.8075 125.293C88.4675 116.583 89.8075 120.193 87.6675 130.293C88.5865 128.722 89.3055 127.043 89.8075 125.293Z" fill="#CBFAFF"/>
<path d="M0.137342 232.903C0.137342 233.003 0.137344 232.953 0.0273438 232.903H0.137342Z" fill="#94DFFA"/>
<path d="M0.227577 246.383C0.227577 262.623 0.287577 261.623 0.227577 261.723C0.187577 245.293 0.127577 246.483 0.227577 246.383Z" fill="#94DFFA"/>
<path d="M0.227739 205.893C0.225929 205.92 0.225929 205.947 0.227739 205.973C0.187739 205.873 0.227739 205.733 0.227739 205.893Z" fill="#94DFFA"/>
<path d="M0.0375 308.893C-0.0125 308.793 -0.0125 308.823 0.0375 308.633C0.0675 308.703 0.1175 308.663 0.0375 308.893Z" fill="#94DFFA"/>
<path d="M0.227538 324.723C0.227538 328.903 0.227538 330.983 0.227538 330.633C0.187538 324.323 0.157538 324.823 0.227538 324.723Z" fill="#94DFFA"/>
<path d="M0.1875 399.463L0.2275 399.473V399.513L0.1875 399.463Z" fill="#94DFFA"/>
<path d="M0.137641 232.943C0.267641 232.943 0.227641 232.473 0.227641 237.223C0.097641 237.213 0.137641 237.683 0.137641 232.943Z" fill="#94DFFA"/>
<path d="M1343.42 228.399C1336.08 208.749 1299.72 279.059 1302.21 281.819C1307.08 287.229 1310.9 281.989 1310.89 281.999C1310.6 281.089 1262.51 353.679 1272.16 363.249C1281.08 372.129 1287.08 358.399 1287.08 358.399C1286.55 357.649 1251.01 435.049 1259.25 440.079C1266.71 444.639 1273.48 438.199 1273.47 438.219C1272.35 436.919 1233.31 545.309 1247.08 556.329C1259.23 566.069 1282.58 527.139 1282.65 527.439C1282.57 527.349 1275.2 555.389 1285.78 555.569C1296.15 555.749 1307.03 522.139 1307.14 522.269C1307.01 522.269 1316.41 548.529 1330.21 550.389C1343.69 552.209 1359.21 509.959 1359.42 510.209C1359.21 510.389 1383.27 534.209 1390.55 531.209C1397.45 528.369 1382.73 506.849 1382.87 506.749C1382.45 507.319 1434.31 533.749 1442.17 519.689C1449.61 506.379 1430.6 493.869 1430.67 493.749C1430.56 493.879 1452.81 508.099 1457.86 498.929C1460.98 491.559 1392.86 422.599 1394.64 421.009C1436.22 449.079 1370.08 351.829 1372.08 350.539C1372.08 350.539 1386.14 360.779 1385.63 350.009C1384.12 339.869 1353.26 286.009 1354.14 285.509C1373.46 295.049 1359.73 272.329 1343.42 228.399Z" fill="#B0F0FA"/>
<path d="M1343.3 228.119C1336.08 208.729 1299.78 279.119 1302.21 281.819C1307.08 287.229 1310.9 281.989 1310.89 281.999C1310.6 281.089 1262.51 353.679 1272.16 363.249C1281.08 372.129 1287.08 358.399 1287.08 358.399C1286.55 357.649 1251.01 435.049 1259.25 440.079C1266.71 444.639 1273.48 438.199 1273.47 438.219C1272.35 436.919 1233.31 545.309 1247.08 556.329C1259.23 566.069 1282.58 527.139 1282.65 527.439C1282.57 527.349 1275.2 555.389 1285.78 555.569C1296.15 555.749 1307.03 522.139 1307.14 522.269C1307.01 522.269 1316.41 548.529 1330.21 550.389C1343.69 552.209 1359.21 509.959 1359.42 510.209C1359.21 510.389 1383.27 534.209 1390.55 531.209C1397.45 528.369 1382.73 506.849 1382.87 506.749C1382.45 507.319 1434.31 533.749 1442.17 519.689C1449.61 506.379 1430.6 493.869 1430.67 493.749C1430.56 493.879 1452.81 508.099 1457.86 498.929C1460.98 491.559 1392.86 422.599 1394.64 421.009C1436.22 449.079 1370.08 351.829 1372.08 350.539C1372.08 350.539 1386.14 360.779 1385.63 350.009C1384.12 339.869 1353.26 286.009 1354.14 285.509C1372.54 294.599 1361.52 277.119 1343.3 228.119Z" fill="url(#paint6_radial)"/>
<g opacity="0.3">
<path opacity="0.3" d="M1377.3 489.199C1319.37 501.459 1311.3 429.089 1312.22 428.969C1327.77 431.539 1322.49 435.519 1332.5 407.969C1354.5 417.469 1342.16 415.909 1405.63 410.599C1383.33 365.989 1408.31 403.019 1358.84 408.259C1314.35 412.969 1314.96 351.809 1315.62 351.799C1378.31 343.549 1367.31 344.059 1385.62 349.979C1385.32 344.979 1377.84 331.299 1370.62 317.559C1363.8 346.209 1308.72 338.999 1314.35 305.399C1319.01 277.599 1345.28 273.609 1356.35 286.469C1371.48 291.649 1360.35 272.689 1354.08 256.699C1345.38 271.939 1321.7 274.519 1330.35 231.869C1275.02 306.399 1317.08 275.799 1310.85 282.049C1310.56 281.139 1262.47 353.729 1272.12 363.299C1279.57 370.699 1284.94 362.379 1286.51 359.449C1281.7 367.649 1251.61 435.549 1259.16 440.139C1266.71 444.729 1273.39 438.259 1273.38 438.279C1272.31 436.969 1233.27 545.399 1247.08 556.399C1259.23 566.139 1282.58 527.209 1282.65 527.509C1282.57 527.419 1275.21 555.509 1285.78 555.639C1296.08 555.799 1306.98 522.189 1307.08 522.319C1306.95 522.319 1316.36 548.579 1330.15 550.439C1343.64 552.259 1359.15 510.009 1359.36 510.259C1359.15 510.439 1383.21 534.259 1390.49 531.259C1397.39 528.419 1382.67 506.899 1382.81 506.799C1382.39 507.369 1434.25 533.799 1442.11 519.739C1449.55 506.429 1430.54 493.919 1430.61 493.799C1430.5 493.929 1452.78 508.169 1457.8 498.979C1460.36 494.299 1441.31 474.849 1424.37 455.619C1419.33 468.089 1407.16 482.879 1377.3 489.199Z" fill="#B0F0FA"/>
</g>
<g opacity="0.5">
<path opacity="0.5" d="M1307.34 347.399C1308.09 345.659 1307.63 366.849 1315.08 370.229C1322.53 373.609 1327.69 354.149 1327.74 354.169C1327.79 354.189 1333.74 369.939 1340.33 371.169C1346.92 372.399 1346.89 352.049 1346.97 352.049C1345.97 352.049 1356.64 382.049 1362.53 367.699C1369.83 349.979 1351.83 346.989 1376.53 359.379C1359.53 327.629 1404.03 384.899 1372.1 327.089C1378.47 367.299 1357.59 337.269 1357.69 337.199C1358.16 340.089 1358.75 349.699 1355.51 351.479C1350.84 354.039 1341.26 323.379 1341.21 324.189C1341.21 379.869 1326.78 340.669 1327.5 340.429C1327.56 340.429 1325.26 354.929 1316.19 354.949C1306.58 354.949 1313.96 323.949 1313.5 324.719C1300.8 346.009 1274.68 360.399 1281.64 334.599C1280.23 337.349 1268.64 360.229 1271.49 363.069C1283.08 374.629 1293 343.159 1279.71 372.219C1287.35 370.139 1306.9 348.399 1307.34 347.399Z" fill="#B0F0FA"/>
</g>
<g opacity="0.5">
<path opacity="0.5" d="M1315.85 284.469C1309.39 296.609 1317.85 306.049 1330.45 286.639C1332.63 291.309 1331.24 301.519 1337.95 300.999C1344.06 300.519 1344.77 292.189 1345.05 286.999C1345.05 286.999 1354.43 293.079 1353.77 291.769C1361.19 295.209 1354.13 285.439 1354.13 285.539C1354.13 286.069 1363.57 288.759 1362.87 286.379C1362.98 285.589 1357.13 271.679 1356.41 270.039C1354.03 264.619 1355.51 266.929 1355.91 273.699C1357.05 292.979 1338.46 276.979 1339.21 271.769C1338.73 269.899 1339.15 269.769 1339.15 275.139C1339.15 290.139 1330.82 288.199 1329.35 276.379C1323.79 292.289 1315.17 284.239 1323.28 269.669C1324.28 267.019 1316.21 282.869 1310.63 282.869C1310.39 282.869 1310.78 282.009 1305.01 290.769C1308.6 291.509 1313.79 287.239 1315.85 284.469Z" fill="#B0F0FA"/>
</g>
<path opacity="0.6" d="M1385.02 347.219C1382.4 354.479 1368.31 343.649 1363.27 338.219C1364.52 353.459 1389.89 361.749 1385.02 347.219Z" fill="#E2FDFD"/>
<path opacity="0.6" d="M1292.75 411.559C1292.75 409.979 1267.6 446.279 1258.36 433.369C1255.21 456.079 1292.75 428.449 1292.75 411.559Z" fill="#E2FDFD"/>
<path d="M1308.53 433.749C1308.53 433.749 1303.86 450.939 1296.89 449.289C1291.08 447.919 1292.62 430.859 1293.59 424.289C1263.51 459.959 1271.87 449.989 1299.79 397.759C1294.72 441.069 1303.64 435.759 1306.79 414.809C1306.79 414.809 1311.19 438.619 1321.07 432.979C1330.67 427.499 1328.51 392.139 1328.74 392.139C1328.35 392.349 1347.64 427.809 1353.74 422.729C1359.48 417.949 1358.05 397.299 1358.1 399.989C1358.1 400.519 1366.18 422.899 1372.3 421.849C1377.12 421.019 1372.05 407.569 1372.45 401.569C1392.3 418.569 1400.6 421.459 1395.27 396.999C1427.56 451.639 1380.82 405.059 1401.8 429.929C1392.8 427.319 1390.72 425.709 1387.62 423.019C1397.02 475.669 1362.77 421.249 1362.84 421.409C1374.04 452.549 1339.15 432.979 1333.92 415.409C1331.08 470.399 1317.92 443.139 1308.53 433.749Z" fill="#CCF8FD"/>
<path opacity="0.6" d="M1281.58 521.279C1281.58 521.179 1251.93 566.419 1244.58 547.969C1245.69 570.069 1265.07 552.899 1279.39 532.539C1279.88 528.743 1280.61 524.982 1281.58 521.279Z" fill="#E2FDFD"/>
<path opacity="0.6" d="M1358.14 504.529C1357.98 504.289 1342.14 546.419 1328.76 544.529C1315.08 542.599 1305.83 516.299 1305.97 516.259C1305.89 516.159 1286.97 564.659 1280.11 546.339C1280.35 551.339 1281.79 555.509 1285.77 555.559C1296.14 555.709 1307.02 522.129 1307.13 522.259C1307 522.259 1316.41 548.519 1330.2 550.379C1343.69 552.199 1359.2 509.949 1359.41 510.199C1357.98 511.429 1401.47 548.289 1390.89 521.719C1392.16 537.239 1357.38 505.329 1358.14 504.529Z" fill="#E2FDFD"/>
<path opacity="0.6" d="M1381.58 501.209C1393.33 519.299 1457.48 537.589 1442.28 506.549C1445.56 535.499 1381.08 501.859 1381.58 501.209Z" fill="#E2FDFD"/>
<g opacity="0.5">
<path opacity="0.5" d="M1437.77 474.499C1436.69 473.279 1440.47 481.099 1440.11 487.279C1439.38 499.889 1401.11 467.579 1401.04 467.679C1444.54 547.429 1367.8 487.469 1368.04 489.439C1368.14 489.439 1374.21 507.349 1370.77 511.529C1366.77 516.409 1345.21 470.929 1345.77 470.659C1345.32 470.659 1349.36 521.799 1335.71 533.579C1321.47 545.869 1309.63 501.709 1310.01 501.579C1310.01 501.529 1302.78 523.849 1295.31 526.849C1283.22 531.699 1306.31 462.929 1293.9 491.909C1277.79 529.459 1254.69 538.719 1250.52 517.259C1229.72 606.539 1282.28 527.109 1282.33 527.339C1281.3 531.238 1280.56 535.205 1280.09 539.209C1287.87 527.869 1280.38 535.849 1281.17 552.599C1288.97 570.769 1306.76 522.099 1306.82 522.169C1306.69 522.169 1316.1 548.429 1329.89 550.289C1343.38 552.109 1358.89 509.859 1359.1 510.109C1356.52 512.329 1416.1 558.469 1382.59 506.649C1382.22 507.149 1446.48 540.699 1443.59 511.839C1436.68 498.269 1422.84 495.839 1440.59 503.929C1437.82 499.957 1434.4 496.482 1430.47 493.649C1429.88 494.339 1455.89 508.249 1457.74 498.569C1451.78 488.949 1436.37 474.099 1437.77 474.499Z" fill="#B0F0FA"/>
</g>
<g opacity="0.5">
<path opacity="0.5" d="M1311.46 265.23C1316.03 258.02 1306.97 271.169 1302.46 282.099C1306.04 285.749 1308.97 283.929 1310.23 282.759C1300.36 283.499 1311.29 265.23 1311.46 265.23Z" fill="#B0F0FA"/>
</g>
<path d="M1339.4 264.169C1339.34 263.529 1339.26 262.989 1339.18 262.539C1339.25 263.099 1339.31 263.639 1339.4 264.169ZM1363.92 282.759C1366.46 294.879 1345.49 280.379 1345.47 280.689C1345.13 285.879 1344.37 294.239 1338.28 294.689C1331.6 295.189 1333.06 284.949 1330.93 280.269C1318.8 298.829 1309.56 290.399 1316.44 278.029C1312.63 282.969 1307 286.979 1302.22 281.849C1299.32 278.729 1313.28 256.619 1313.6 256.619C1299.38 276.399 1310.24 286.229 1324.23 262.499C1315.4 280.949 1325.1 283.559 1329.9 269.819C1331.1 282.719 1341.56 283.909 1339.41 264.149C1340.35 272.859 1359.16 288.999 1355.53 260.649C1365.55 285.739 1363.56 282.759 1363.92 282.759ZM1358.78 365.049C1351.85 365.889 1346.78 345.809 1346.86 345.779C1346.79 345.779 1346.57 366.149 1340.11 364.869C1333.65 363.589 1327.63 347.869 1327.69 347.799C1327.75 347.729 1322.23 367.149 1314.96 363.799C1307.69 360.449 1308.15 339.159 1307.44 340.919C1299.24 358.329 1249.08 392.509 1282.61 328.149C1280.4 336.149 1280.4 342.969 1287.14 341.689C1302.24 338.829 1314.43 318.269 1314.47 318.319C1314.34 318.319 1307.54 348.699 1316.76 348.719C1325.76 348.719 1328.11 334.239 1328.14 334.249C1328.17 334.259 1332.14 350.249 1337.85 347.409C1343.34 344.709 1341.71 317.589 1341.85 317.559C1341.62 317.659 1351.56 347.819 1355.85 345.469C1359.85 343.279 1357.92 331.009 1357.95 330.999C1358.27 330.899 1378.79 362.329 1372.38 320.999C1384.56 341.649 1387.85 352.119 1384.87 354.329C1381.37 356.939 1369.56 350.559 1363.33 343.989C1363.28 343.969 1365.52 364.239 1358.78 365.049ZM1387.09 417.049C1386.97 417.049 1391.94 441.649 1382.69 438.919C1373.23 436.119 1361.69 414.139 1362.34 415.249C1362.83 416.449 1366.09 429.939 1359.22 432.089C1352.05 434.329 1333.46 407.949 1333.67 407.789C1333.47 407.789 1332.67 442.569 1323.67 442.579C1314.35 442.579 1308.07 427.319 1308.12 427.299C1308.17 427.279 1303.06 445.299 1296.4 442.759C1289.74 440.219 1293.1 417.639 1293.16 417.669C1294.07 418.129 1234.25 485.479 1270 396.559C1258.31 454.159 1300.68 391.039 1300.74 391.139C1300.6 391.079 1294.95 423.139 1300.31 423.869C1305.49 424.569 1307.04 408.339 1307.08 408.339C1306.96 408.339 1311.28 432.189 1321.17 426.609C1330.77 421.189 1328.89 385.849 1329.17 385.809C1328.82 386.019 1347.76 421.629 1353.88 416.579C1359.64 411.829 1358.33 393.859 1358.39 393.839C1358.24 393.899 1366.56 418.149 1372.39 415.839C1377.97 413.629 1372.09 395.579 1372.17 395.539C1372.07 395.639 1402.35 426.969 1395.01 391.119C1427.08 447.029 1386.99 417.049 1387.08 417.049H1387.09ZM1436.09 468.599C1486 524.599 1430.3 494.389 1430.66 493.749C1430.59 493.869 1449.66 506.369 1442.16 519.689C1434.29 533.689 1382.44 507.319 1382.86 506.749C1382.72 506.849 1397.43 528.379 1390.53 531.209C1383.25 534.209 1359.19 510.389 1359.4 510.209C1359.23 509.959 1343.68 552.209 1330.2 550.389C1316.4 548.509 1307 522.309 1307.13 522.269C1307.02 522.139 1296.13 555.749 1285.77 555.569C1275.19 555.399 1282.56 527.399 1282.64 527.399C1282.64 527.299 1226.84 605.829 1249.82 510.519C1251.13 517.519 1254.45 522.469 1261.11 521.769C1282.11 519.559 1296.25 477.389 1296.43 477.589C1296.18 477.419 1286.49 523.379 1294.23 520.429C1301.74 517.569 1309.02 495.199 1309.07 495.259C1308.68 495.379 1320.19 539.609 1334.44 527.419C1348.12 515.719 1344.44 464.599 1344.92 464.569C1344.41 464.829 1365.54 510.469 1369.57 505.569C1373.19 501.179 1366.78 483.159 1366.85 483.129C1366.46 483.589 1409.71 512.979 1411.55 499.759C1413.31 487.129 1399.68 461.859 1399.83 461.759C1399.42 462.189 1437.77 493.759 1438.62 481.679C1438.96 476.969 1436.19 468.599 1436.08 468.599H1436.09Z" fill="white"/>
<path opacity="0.6" d="M1373.17 396.559C1371.04 394.559 1372.42 394.839 1374.07 403.929C1374 401.45 1373.7 398.983 1373.17 396.559Z" fill="#E2FDFD"/>
<path opacity="0.6" d="M1330.92 280.269C1333.05 284.949 1331.59 295.169 1338.27 294.689C1344.36 294.249 1345.14 285.909 1345.46 280.689C1345.46 280.579 1366.77 295.779 1363.46 280.689C1359.68 284.469 1346 274.689 1345.99 274.809C1345.63 279.999 1344.79 288.349 1338.72 288.749C1332.65 289.149 1333.95 281.749 1331.21 274.749C1321.79 288.749 1315.72 286.329 1314.92 281.749C1311.73 291.759 1319.77 297.399 1330.92 280.269Z" fill="#E2FDFD"/>
<path opacity="0.6" d="M1395.46 417.489C1384.3 412.219 1386.13 407.549 1387.11 417.029C1397.22 425.829 1412.91 428.409 1407.9 415.629C1404.37 426.029 1389.36 409.959 1395.46 417.489Z" fill="#E2FDFD"/>
<path opacity="0.6" d="M1387.08 417.219C1391.4 461.749 1357.24 401.839 1361.69 409.549C1368.41 432.399 1392.08 458.399 1387.08 417.219Z" fill="#E2FDFD"/>
<path opacity="0.6" d="M1321.46 270.909C1323.82 261.409 1326.17 259.969 1321.72 266.419C1321.32 267.881 1321.23 269.411 1321.46 270.909Z" fill="#E2FDFD"/>
<path opacity="0.6" d="M1409.76 486.309C1408.76 480.959 1404.42 465.929 1399.84 461.819C1403.78 469.713 1407.09 477.901 1409.76 486.309Z" fill="#E2FDFD"/>
<path opacity="0.6" d="M1296.37 442.759C1303.02 445.399 1308.08 427.269 1308.08 427.299C1308.08 427.329 1314.31 442.589 1323.63 442.579C1332.71 442.579 1333.46 407.779 1333.63 407.789C1331.89 409.119 1370.54 455.139 1362.82 417.199C1363.31 444.649 1332.44 402.469 1333.17 401.939C1332.97 401.939 1331.98 436.709 1322.93 436.669C1313.65 436.669 1307.49 421.309 1307.55 421.279C1309.95 420.079 1295.65 450.509 1292.14 430.149C1292.24 435.799 1293.2 441.529 1296.37 442.759Z" fill="#E2FDFD"/>
<path opacity="0.6" d="M1314.66 280.069C1315 272.769 1318.78 271.369 1314.66 274.579C1309.66 279.419 1305.82 278.849 1302.99 275.879C1299.35 285.339 1308.08 286.819 1314.66 280.069Z" fill="#E2FDFD"/>
<path opacity="0.6" d="M1429.26 488.559C1433.01 491.317 1436.29 494.655 1438.98 498.449C1449.93 503.629 1462.31 503.749 1456.46 493.559C1453.18 503.089 1428.81 489.129 1429.26 488.559Z" fill="#E2FDFD"/>
<path opacity="0.6" d="M1307.47 340.899C1308.18 339.139 1307.6 360.359 1314.99 363.779C1322.38 367.199 1327.68 347.779 1327.72 347.779C1327.76 347.779 1333.55 363.589 1340.14 364.849C1346.73 366.109 1346.82 345.769 1346.89 345.759C1343.09 345.759 1366.1 389.389 1363.52 345.639C1362.95 378.949 1343.92 341.219 1346.79 339.939C1346.72 339.939 1346.35 360.309 1339.92 358.999C1333.49 357.689 1327.64 341.909 1327.7 341.909C1327.76 341.909 1322.08 361.229 1314.89 357.809C1307.7 354.389 1308.34 333.129 1307.57 334.869C1307.57 334.969 1276.25 373.129 1271.44 355.549C1266.81 378.999 1301.59 353.399 1307.47 340.899Z" fill="#E2FDFD"/>
<path d="M1308.08 537.61C1338.24 537.61 1362.68 516.393 1362.68 490.22C1362.68 464.047 1338.24 442.83 1308.08 442.83C1277.93 442.83 1253.48 464.047 1253.48 490.22C1253.48 516.393 1277.93 537.61 1308.08 537.61Z" fill="url(#paint7_linear)"/>
<path d="M1304.83 441.12C1310.12 483.99 1298.83 489.12 1207.15 494.37C1184.24 495.68 1180.98 484.19 1177.68 460.71C1167.25 386.71 1202.53 373.19 1234.78 371.34C1295.9 367.84 1299.05 391.42 1304.83 441.12Z" fill="url(#paint8_radial)"/>
<path opacity="0.1" d="M1296.34 443.42C1251.87 469.12 1238.59 399.94 1296.55 396.98C1300.77 403.85 1302.55 412.64 1304.01 422.78C1305.08 430.42 1305.53 438.15 1296.34 443.42Z" fill="#00A2FF"/>
<path d="M1293.49 396.89C1279.83 397.67 1260.75 409.5 1262.83 424.31C1264.29 434.68 1276.69 440.81 1287.83 440.17C1314.14 438.66 1325.82 395.04 1293.49 396.89Z" fill="url(#paint9_radial)"/>
<path d="M1179.75 425.16L1143.44 404M1158.32 404.05C1158.89 408.45 1159.76 410.65 1161.7 414.641M1152.2 409.5C1150.28 410.203 1146.96 411.872 1145.17 412.86" stroke="#163050" stroke-width="3" stroke-linecap="round" stroke-linejoin="round"/>
<path opacity="0.2" d="M1231.75 422.06C1230.86 413.86 1222.38 406.06 1215.11 419.92C1210.02 429.61 1197.98 437.47 1197.97 439.14C1197.97 442.97 1211.76 434.04 1211.86 434C1219.42 431.05 1233.12 434.22 1231.75 422.06Z" fill="#00A2FF"/>
<path d="M1230.39 422.17C1229.77 428.4 1226.74 426.79 1195.25 426.17C1193.71 426.17 1193.19 423.96 1194.6 423.44L1221.5 413.52C1227.17 411.57 1230.87 417.6 1230.39 422.17Z" fill="#FFC500"/>
<path d="M1230.39 422.17C1229.77 428.4 1226.74 426.79 1195.25 426.17C1193.71 426.17 1193.19 423.96 1194.6 423.44C1195.82 423.3 1196.4 424.38 1198.77 424.44C1201.14 424.5 1224.48 424.77 1230.39 422.17Z" fill="#FFAC40"/>
<path d="M1219.63 417.99C1217.16 418.242 1214.71 418.657 1212.3 419.23C1210.71 419.54 1210.91 418.78 1211.78 418.45C1214.78 417.33 1227.06 414.01 1226.6 417.04C1226.34 418.76 1220.93 417.96 1219.63 417.99Z" fill="white"/>
<path opacity="0.3" d="M1210.75 403.14C1211.51 408.5 1219.94 406.72 1219.17 401.21C1218.4 395.7 1209.91 397.06 1210.75 403.14Z" fill="#00A2FF"/>
<path d="M1218.46 400.98C1217.96 397.44 1213.06 397.72 1213.56 401.26C1214.06 404.8 1218.96 404.51 1218.46 400.98Z" fill="#163050"/>
<path opacity="0.3" d="M1234.47 400.51C1235.23 405.88 1243.67 404.09 1242.89 398.59C1242.11 393.09 1233.62 394.42 1234.47 400.51Z" fill="#00A2FF"/>
<path d="M1241.52 398.64C1241.02 395.1 1236.13 395.38 1236.62 398.92C1237.11 402.46 1242.02 402.18 1241.52 398.64Z" fill="#163050"/>
<path d="M1165.86 514.29C1188.32 514.29 1206.52 498.49 1206.52 479C1206.52 459.51 1188.32 443.71 1165.86 443.71C1143.4 443.71 1125.2 459.51 1125.2 479C1125.2 498.49 1143.4 514.29 1165.86 514.29Z" fill="url(#paint10_radial)"/>
<path d="M1214.16 468.82C1214.16 444.82 1175.36 444.75 1175.36 468.82C1175.36 492.89 1214.16 492.9 1214.16 468.82Z" fill="url(#paint11_radial)"/>
<path d="M733.221 929.749H1453.99V515.29C1382.16 479.55 1269.73 443.04 1146.16 488.74C1042.01 527.26 925.781 680.64 733.221 680.74V929.749Z" fill="url(#paint12_radial)"/>
<path d="M733.221 680.7C639.801 680.7 538.551 618.7 438.401 453.56C365.865 333.943 182.097 270.055 62.9106 365.39C44.4521 355.351 20.6543 354.217 0.142578 356.05L0.600098 929.749H733.678L733.221 680.7Z" fill="url(#paint13_radial)"/>
<path opacity="0.59" d="M1202.13 291.69C1202.13 293.008 1201.74 294.296 1201.01 295.393C1200.28 296.489 1199.24 297.345 1198.03 297.85C1196.81 298.356 1195.47 298.489 1194.18 298.233C1192.88 297.977 1191.7 297.344 1190.76 296.413C1189.83 295.482 1189.2 294.295 1188.94 293.003C1188.68 291.711 1188.81 290.371 1189.32 289.154C1189.82 287.936 1190.67 286.895 1191.77 286.163C1192.86 285.431 1194.15 285.04 1195.47 285.04C1197.23 285.04 1198.93 285.74 1200.18 286.987C1201.42 288.234 1202.13 289.925 1202.13 291.69Z" fill="white"/>
<path opacity="0.59" d="M1121.74 231.78C1121.74 231.05 1121.96 230.336 1122.36 229.729C1122.77 229.122 1123.35 228.649 1124.02 228.37C1124.7 228.091 1125.44 228.018 1126.15 228.161C1126.87 228.305 1127.53 228.657 1128.04 229.174C1128.56 229.691 1128.91 230.35 1129.05 231.066C1129.19 231.783 1129.12 232.525 1128.84 233.199C1128.56 233.873 1128.08 234.449 1127.47 234.853C1126.86 235.257 1126.15 235.472 1125.42 235.47C1124.44 235.467 1123.51 235.077 1122.82 234.386C1122.13 233.694 1121.74 232.757 1121.74 231.78Z" fill="white"/>
<path opacity="0.59" d="M1129.11 290.69C1129.11 289.175 1129.56 287.694 1130.4 286.434C1131.24 285.174 1132.44 284.193 1133.84 283.613C1135.24 283.033 1136.78 282.881 1138.26 283.177C1139.75 283.473 1141.12 284.202 1142.19 285.273C1143.26 286.345 1143.99 287.71 1144.28 289.195C1144.58 290.681 1144.43 292.221 1143.85 293.621C1143.27 295.021 1142.29 296.217 1141.03 297.059C1139.77 297.901 1138.28 298.35 1136.77 298.35C1135.76 298.35 1134.77 298.152 1133.84 297.767C1132.91 297.382 1132.06 296.818 1131.35 296.106C1130.64 295.395 1130.08 294.551 1129.69 293.621C1129.31 292.692 1129.11 291.696 1129.11 290.69Z" fill="white"/>
<path opacity="0.59" d="M1098.53 276.62C1100.94 276.62 1102.89 274.668 1102.89 272.26C1102.89 269.852 1100.94 267.9 1098.53 267.9C1096.12 267.9 1094.17 269.852 1094.17 272.26C1094.17 274.668 1096.12 276.62 1098.53 276.62Z" fill="white"/>
<path opacity="0.59" d="M327.08 237.81C327.08 238.591 326.848 239.355 326.414 240.004C325.98 240.654 325.363 241.16 324.641 241.459C323.92 241.758 323.125 241.836 322.359 241.684C321.593 241.532 320.889 241.155 320.337 240.603C319.784 240.051 319.408 239.347 319.256 238.58C319.103 237.814 319.181 237.02 319.48 236.298C319.779 235.576 320.286 234.96 320.935 234.526C321.585 234.092 322.348 233.86 323.13 233.86C324.173 233.873 325.17 234.293 325.908 235.031C326.646 235.769 327.067 236.766 327.08 237.81Z" fill="white"/>
<path opacity="0.59" d="M266.1 288.959C266.102 289.394 266.233 289.818 266.476 290.179C266.719 290.539 267.063 290.819 267.465 290.984C267.867 291.149 268.309 291.192 268.735 291.106C269.162 291.02 269.553 290.809 269.859 290.501C270.166 290.193 270.374 289.801 270.459 289.375C270.543 288.948 270.498 288.506 270.332 288.105C270.165 287.703 269.883 287.36 269.521 287.119C269.16 286.878 268.735 286.749 268.3 286.749C268.01 286.749 267.723 286.806 267.456 286.917C267.188 287.029 266.945 287.192 266.741 287.397C266.537 287.602 266.375 287.846 266.265 288.114C266.155 288.382 266.099 288.669 266.1 288.959Z" fill="white"/>
<path opacity="0.59" d="M459.28 438.839C459.28 439.846 458.982 440.83 458.422 441.667C457.863 442.504 457.068 443.156 456.138 443.542C455.208 443.927 454.184 444.028 453.197 443.831C452.21 443.635 451.303 443.15 450.591 442.438C449.879 441.726 449.394 440.819 449.198 439.832C449.002 438.845 449.102 437.821 449.488 436.891C449.873 435.961 450.525 435.166 451.362 434.607C452.199 434.048 453.183 433.749 454.19 433.749C455.54 433.749 456.835 434.285 457.789 435.24C458.744 436.194 459.28 437.489 459.28 438.839Z" fill="white"/>
<path opacity="0.59" d="M505.46 511.08C505.46 511.466 505.346 511.843 505.131 512.163C504.917 512.484 504.613 512.734 504.256 512.881C503.9 513.029 503.508 513.068 503.13 512.992C502.751 512.917 502.404 512.731 502.131 512.459C501.858 512.186 501.673 511.839 501.598 511.46C501.522 511.082 501.561 510.69 501.708 510.334C501.856 509.977 502.106 509.673 502.427 509.459C502.747 509.244 503.124 509.13 503.51 509.13C504.023 509.143 504.512 509.352 504.875 509.715C505.238 510.078 505.447 510.567 505.46 511.08Z" fill="white"/>
<path opacity="0.59" d="M1142.97 402.03C1142.97 404.205 1142.33 406.332 1141.12 408.141C1139.91 409.95 1138.19 411.36 1136.18 412.192C1134.17 413.025 1131.96 413.243 1129.82 412.818C1127.69 412.394 1125.73 411.346 1124.19 409.808C1122.65 408.27 1121.61 406.31 1121.18 404.176C1120.76 402.042 1120.97 399.83 1121.81 397.82C1122.64 395.81 1124.05 394.092 1125.86 392.884C1127.67 391.675 1129.79 391.03 1131.97 391.03C1134.89 391.03 1137.69 392.189 1139.75 394.252C1141.81 396.314 1142.97 399.112 1142.97 402.03Z" fill="#E7FAFF"/>
<path opacity="0.59" d="M906.63 516.2C906.63 518.42 905.972 520.589 904.738 522.435C903.505 524.28 901.752 525.718 899.701 526.567C897.651 527.416 895.394 527.637 893.217 527.204C891.041 526.77 889.041 525.7 887.473 524.13C885.904 522.56 884.836 520.56 884.404 518.383C883.973 516.206 884.196 513.949 885.047 511.899C885.898 509.849 887.337 508.098 889.184 506.866C891.03 505.634 893.2 504.978 895.42 504.98C896.893 504.98 898.351 505.27 899.712 505.834C901.073 506.398 902.309 507.225 903.35 508.267C904.391 509.309 905.217 510.546 905.779 511.907C906.342 513.268 906.631 514.727 906.63 516.2Z" fill="#E7FAFF"/>
<path opacity="0.59" d="M639.66 498.6C642.604 498.6 644.99 496.214 644.99 493.27C644.99 490.326 642.604 487.94 639.66 487.94C636.716 487.94 634.33 490.326 634.33 493.27C634.33 496.214 636.716 498.6 639.66 498.6Z" fill="#E7FAFF"/>
<path opacity="0.59" d="M537.24 374.809C537.242 375.614 537.005 376.402 536.559 377.073C536.113 377.744 535.478 378.267 534.735 378.576C533.991 378.886 533.172 378.968 532.382 378.812C531.592 378.656 530.866 378.269 530.296 377.701C529.726 377.132 529.337 376.407 529.179 375.617C529.021 374.827 529.101 374.008 529.409 373.264C529.717 372.52 530.238 371.883 530.908 371.436C531.577 370.988 532.365 370.749 533.17 370.749C534.248 370.749 535.281 371.176 536.044 371.938C536.807 372.699 537.237 373.731 537.24 374.809Z" fill="#E7FAFF"/>
<path opacity="0.59" d="M452.56 357.969C452.562 358.608 452.374 359.234 452.021 359.766C451.667 360.299 451.163 360.714 450.573 360.96C449.983 361.206 449.333 361.272 448.706 361.148C448.079 361.025 447.502 360.718 447.05 360.267C446.597 359.815 446.288 359.24 446.163 358.613C446.037 357.986 446.101 357.336 446.345 356.745C446.589 356.155 447.003 355.649 447.535 355.294C448.066 354.939 448.691 354.749 449.33 354.749C450.185 354.749 451.005 355.088 451.611 355.692C452.216 356.295 452.557 357.114 452.56 357.969Z" fill="#E7FAFF"/>
<path opacity="0.59" d="M979.62 376.009C979.62 377.049 979.312 378.066 978.734 378.931C978.156 379.796 977.334 380.471 976.373 380.869C975.412 381.267 974.354 381.371 973.334 381.168C972.314 380.965 971.376 380.464 970.641 379.728C969.905 378.993 969.404 378.056 969.201 377.035C968.998 376.015 969.102 374.957 969.5 373.996C969.899 373.035 970.573 372.213 971.438 371.635C972.303 371.058 973.32 370.749 974.36 370.749C975.755 370.749 977.093 371.303 978.079 372.29C979.066 373.276 979.62 374.614 979.62 376.009Z" fill="#E7FAFF"/>
<path opacity="0.59" d="M1060.91 398.77C1060.91 399.987 1060.55 401.177 1059.88 402.189C1059.2 403.202 1058.24 403.992 1057.12 404.459C1056 404.926 1054.76 405.049 1053.57 404.813C1052.37 404.577 1051.28 403.992 1050.42 403.132C1049.55 402.272 1048.97 401.177 1048.73 399.983C1048.49 398.79 1048.61 397.553 1049.08 396.429C1049.54 395.304 1050.33 394.343 1051.34 393.667C1052.35 392.991 1053.54 392.63 1054.76 392.63C1056.39 392.63 1057.95 393.276 1059.11 394.428C1060.26 395.579 1060.91 397.141 1060.91 398.77Z" fill="#E7FAFF"/>
<path opacity="0.59" d="M853.41 485.68C853.41 486.317 853.221 486.939 852.868 487.469C852.514 487.998 852.011 488.411 851.422 488.655C850.834 488.899 850.187 488.962 849.562 488.838C848.937 488.714 848.364 488.407 847.913 487.957C847.463 487.507 847.156 486.933 847.032 486.308C846.908 485.684 846.972 485.036 847.215 484.448C847.459 483.859 847.872 483.356 848.401 483.003C848.931 482.649 849.553 482.46 850.19 482.46C851.043 482.463 851.861 482.803 852.464 483.406C853.067 484.009 853.408 484.827 853.41 485.68Z" fill="#E7FAFF"/>
<path opacity="0.59" d="M1053.08 442.709C1055.28 442.709 1057.06 440.927 1057.06 438.729C1057.06 436.531 1055.28 434.749 1053.08 434.749C1050.88 434.749 1049.1 436.531 1049.1 438.729C1049.1 440.927 1050.88 442.709 1053.08 442.709Z" fill="#E7FAFF"/>
<path opacity="0.59" d="M881.97 558.58C881.97 559.731 881.629 560.856 880.989 561.813C880.35 562.77 879.441 563.516 878.377 563.957C877.314 564.397 876.144 564.513 875.015 564.288C873.886 564.063 872.849 563.509 872.035 562.695C871.221 561.881 870.666 560.844 870.442 559.715C870.217 558.586 870.333 557.416 870.773 556.353C871.214 555.289 871.96 554.38 872.917 553.741C873.874 553.101 874.999 552.76 876.15 552.76C877.694 552.76 879.174 553.373 880.265 554.464C881.357 555.556 881.97 557.036 881.97 558.58Z" fill="#E7FAFF"/>
<path opacity="0.59" d="M1191.45 368.37C1192.9 368.37 1194.08 367.192 1194.08 365.74C1194.08 364.287 1192.9 363.11 1191.45 363.11C1190 363.11 1188.82 364.287 1188.82 365.74C1188.82 367.192 1190 368.37 1191.45 368.37Z" fill="#E7FAFF"/>
<path opacity="0.59" d="M128.64 399.019C128.64 400.26 128.272 401.472 127.583 402.503C126.893 403.535 125.913 404.338 124.767 404.813C123.621 405.287 122.36 405.411 121.143 405.168C119.927 404.925 118.809 404.327 117.933 403.449C117.057 402.571 116.46 401.453 116.219 400.236C115.979 399.019 116.104 397.758 116.58 396.613C117.056 395.467 117.862 394.489 118.894 393.801C119.926 393.113 121.14 392.747 122.38 392.749C123.203 392.749 124.018 392.911 124.778 393.226C125.538 393.542 126.229 394.004 126.81 394.586C127.392 395.168 127.852 395.86 128.166 396.62C128.48 397.381 128.641 398.196 128.64 399.019Z" fill="#FFFFFC"/>
<path opacity="0.59" d="M248.76 372.579C248.76 373.534 248.477 374.468 247.946 375.262C247.415 376.057 246.661 376.676 245.778 377.041C244.896 377.407 243.925 377.503 242.988 377.316C242.051 377.13 241.19 376.67 240.515 375.994C239.839 375.319 239.379 374.458 239.193 373.521C239.007 372.584 239.102 371.613 239.468 370.731C239.833 369.848 240.452 369.094 241.247 368.563C242.041 368.032 242.975 367.749 243.93 367.749C245.21 367.752 246.437 368.261 247.343 369.167C248.248 370.072 248.757 371.299 248.76 372.579Z" fill="#FFFFFC"/>
<path opacity="0.59" d="M351.76 449.069C354.334 449.069 356.42 446.983 356.42 444.409C356.42 441.835 354.334 439.749 351.76 439.749C349.186 439.749 347.1 441.835 347.1 444.409C347.1 446.983 349.186 449.069 351.76 449.069Z" fill="#FFFFFC"/>
<path opacity="0.59" d="M1153.91 567.319C1153.91 568.845 1153.46 570.338 1152.61 571.608C1151.76 572.877 1150.56 573.867 1149.14 574.451C1147.73 575.035 1146.18 575.188 1144.68 574.89C1143.19 574.592 1141.81 573.857 1140.73 572.777C1139.65 571.698 1138.92 570.322 1138.62 568.825C1138.32 567.327 1138.47 565.775 1139.06 564.364C1139.64 562.954 1140.63 561.748 1141.9 560.9C1143.17 560.051 1144.66 559.599 1146.19 559.599C1148.24 559.599 1150.2 560.412 1151.65 561.86C1153.1 563.308 1153.91 565.271 1153.91 567.319Z" fill="#FFFFFC"/>
<path opacity="0.59" d="M1078.22 577.309C1078.22 577.815 1078.07 578.31 1077.79 578.731C1077.51 579.152 1077.11 579.48 1076.64 579.674C1076.17 579.868 1075.66 579.919 1075.16 579.82C1074.66 579.721 1074.21 579.477 1073.85 579.119C1073.49 578.761 1073.25 578.305 1073.15 577.808C1073.05 577.312 1073.1 576.797 1073.29 576.329C1073.49 575.862 1073.82 575.462 1074.24 575.18C1074.66 574.899 1075.15 574.749 1075.66 574.749C1076.34 574.749 1076.99 575.019 1077.47 575.499C1077.95 575.979 1078.22 576.63 1078.22 577.309Z" fill="#FFFFFC"/>
<path opacity="0.59" d="M1117.87 633.788C1121.06 633.788 1123.64 631.205 1123.64 628.018C1123.64 624.831 1121.06 622.248 1117.87 622.248C1114.68 622.248 1112.1 624.831 1112.1 628.018C1112.1 631.205 1114.68 633.788 1117.87 633.788Z" fill="#FFFFFC"/>
<path opacity="0.59" d="M171.86 483.129C171.86 483.798 171.662 484.451 171.29 485.007C170.919 485.563 170.391 485.996 169.774 486.252C169.156 486.508 168.476 486.574 167.821 486.444C167.165 486.314 166.563 485.992 166.09 485.519C165.617 485.046 165.295 484.444 165.165 483.788C165.035 483.133 165.102 482.453 165.357 481.836C165.613 481.218 166.046 480.69 166.602 480.319C167.158 479.947 167.812 479.749 168.48 479.749C168.924 479.748 169.364 479.834 169.775 480.004C170.186 480.173 170.559 480.422 170.873 480.736C171.187 481.05 171.436 481.423 171.605 481.834C171.775 482.245 171.861 482.685 171.86 483.129Z" fill="#FFFFFC"/>
<path opacity="0.59" d="M1237.74 562.569C1240.45 562.569 1242.65 560.371 1242.65 557.659C1242.65 554.947 1240.45 552.749 1237.74 552.749C1235.03 552.749 1232.83 554.947 1232.83 557.659C1232.83 560.371 1235.03 562.569 1237.74 562.569Z" fill="#FFFFFC"/>
<path opacity="0.59" d="M293.6 468.49C293.6 468.976 293.455 469.452 293.185 469.856C292.915 470.261 292.531 470.576 292.081 470.763C291.632 470.949 291.137 470.997 290.66 470.902C290.183 470.808 289.744 470.573 289.4 470.229C289.056 469.885 288.822 469.447 288.727 468.97C288.632 468.493 288.681 467.998 288.867 467.548C289.053 467.099 289.368 466.715 289.773 466.444C290.178 466.174 290.653 466.03 291.14 466.03C291.792 466.03 292.418 466.289 292.879 466.75C293.341 467.212 293.6 467.837 293.6 468.49Z" fill="#FFFFFC"/>
<defs>
<linearGradient id="paint0_linear" x1="727" y1="658.56" x2="727" y2="-11.9176" gradientUnits="userSpaceOnUse">
<stop offset="0.12" stop-color="white"/>
<stop offset="0.39" stop-color="#FBFEFF"/>
<stop offset="0.67" stop-color="#EFFBFF"/>
<stop offset="0.94" stop-color="#DBF6FF"/>
<stop offset="1" stop-color="#D5F4FF"/>
</linearGradient>
<linearGradient id="paint1_linear" x1="1034.37" y1="322.5" x2="1401.04" y2="322.5" gradientUnits="userSpaceOnUse">
<stop stop-color="white"/>
<stop offset="1" stop-color="#6BCFFF"/>
</linearGradient>
<linearGradient id="paint2_linear" x1="724.53" y1="409.592" x2="715.72" y2="59.2223" gradientUnits="userSpaceOnUse">
<stop offset="0.12" stop-color="white"/>
<stop offset="1" stop-color="#EAFEFF"/>
</linearGradient>
<linearGradient id="paint3_linear" x1="-111083" y1="391486" x2="265522" y2="158935" gradientUnits="userSpaceOnUse">
<stop stop-color="white"/>
<stop offset="1" stop-color="#6BCFFF"/>
</linearGradient>
<linearGradient id="paint4_linear" x1="-37558.1" y1="256662" x2="126418" y2="202661" gradientUnits="userSpaceOnUse">
<stop stop-color="white"/>
<stop offset="1" stop-color="#6BCFFF"/>
</linearGradient>
<linearGradient id="paint5_linear" x1="216.68" y1="221.61" x2="138.38" y2="356.3" gradientUnits="userSpaceOnUse">
<stop stop-color="white"/>
<stop offset="1" stop-color="#EAFEFF"/>
</linearGradient>
<radialGradient id="paint6_radial" cx="0" cy="0" r="1" gradientUnits="userSpaceOnUse" gradientTransform="translate(1352.51 256.029) rotate(92.724) scale(470.281 237.839)">
<stop stop-color="white"/>
<stop offset="1" stop-color="#BAFCFF"/>
</radialGradient>
<linearGradient id="paint7_linear" x1="1324.76" y1="446.17" x2="1302.43" y2="505.13" gradientUnits="userSpaceOnUse">
<stop offset="0.12" stop-color="white"/>
<stop offset="1" stop-color="#BAFCFF"/>
</linearGradient>
<radialGradient id="paint8_radial" cx="0" cy="0" r="1" gradientUnits="userSpaceOnUse" gradientTransform="translate(1253.2 387) rotate(101.119) scale(88.1547 117.814)">
<stop stop-color="white"/>
<stop offset="1" stop-color="#BAFCFF"/>
</radialGradient>
<radialGradient id="paint9_radial" cx="0" cy="0" r="1" gradientUnits="userSpaceOnUse" gradientTransform="translate(1288.11 401.314) rotate(94.9276) scale(61.3858 55.9792)">
<stop stop-color="white"/>
<stop offset="1" stop-color="#BAFCFF"/>
</radialGradient>
<radialGradient id="paint10_radial" cx="0" cy="0" r="1" gradientUnits="userSpaceOnUse" gradientTransform="translate(1166.2 451) rotate(94.8828) scale(99.8624 90.2455)">
<stop stop-color="white"/>
<stop offset="1" stop-color="#BAFCFF"/>
</radialGradient>
<radialGradient id="paint11_radial" cx="0" cy="0" r="1" gradientUnits="userSpaceOnUse" gradientTransform="translate(1194.86 448.31) rotate(90) scale(41.7898 35.2463)">
<stop stop-color="white"/>
<stop offset="1" stop-color="#BAFCFF"/>
</radialGradient>
<radialGradient id="paint12_radial" cx="0" cy="0" r="1" gradientUnits="userSpaceOnUse" gradientTransform="translate(1250.2 119) rotate(98.0537) scale(763.555 922.361)">
<stop stop-color="#BAFCFF"/>
<stop offset="1" stop-color="white"/>
</radialGradient>
<radialGradient id="paint13_radial" cx="0" cy="0" r="1" gradientUnits="userSpaceOnUse" gradientTransform="translate(211.43 263.93) rotate(70.8373) scale(628.389)">
<stop stop-color="#BAFCFF"/>
<stop offset="1" stop-color="white"/>
</radialGradient>
</defs>
</svg>
