<svg width="426" height="520" viewBox="0 0 426 520" fill="none" xmlns="http://www.w3.org/2000/svg">
<path d="M418.573 347.974L411.359 355.188L418.573 362.401L425.786 355.188L418.573 347.974Z" fill="#C8B1FF"/>
<path opacity="0.1" d="M365.332 306.896C352.042 302.448 340.31 312.272 326.812 302.911C317.987 296.794 312.484 297.35 287.98 304.672C269.499 310.14 256.417 324.32 240.012 333.125C220.284 343.691 201.699 355.647 182.595 367.047C180.311 368.437 159.96 378.169 159.96 380.671V406.066C182.595 403.507 183.218 409.495 195.573 412.832C204.087 415.149 213.328 412.461 222.153 413.481C227.345 414.037 232.328 415.89 237.52 416.539C251.64 418.115 246.449 416.076 259.531 424.324C278.74 418.393 262.023 420.432 311.342 428.866C315.391 424.046 315.806 420.524 313.833 418.115C317.26 416.076 320.478 413.944 320.478 413.944C333.457 418.393 348.408 416.725 361.283 410.237C397.415 391.978 344.878 379.466 311.238 396.52C318.298 390.31 317.364 391.793 318.506 384.564C319.232 380.115 322.244 377.335 324.32 373.627C325.878 370.754 323.697 370.569 335.637 352.774C347.681 334.794 396.792 317.555 365.332 306.896ZM317.675 412.646C315.599 413.573 313.73 414.964 311.965 416.261C309.888 414.964 306.773 414.129 303.243 413.759C305.839 412.276 307.604 409.588 307.604 406.066C311.03 409.773 317.467 412.646 317.675 412.646Z" fill="black"/>
<path d="M149.296 404.833L144.082 385.848H155.045L160.66 407.105L149.296 404.833Z" fill="#AD8DFF"/>
<path d="M160.577 406.769L168.505 400.138L166.055 388.75H155.82L160.577 406.769Z" fill="#8F64FD"/>
<path d="M160.7 407.066L149.316 404.731L145.375 391.158L156.905 393.263M160.7 407.066L156.905 393.263M160.7 407.066L168.435 400.207L165.078 387.363L156.905 393.263" stroke="black" stroke-width="2" stroke-linecap="round" stroke-linejoin="round"/>
<path d="M245.51 422.731L240.296 403.746L252.752 404.187L258.518 425.385L245.51 422.731Z" fill="#AD8DFF"/>
<path d="M258.446 425.513L265.492 415.242L263.041 403.854L253.689 407.494L258.446 425.513Z" fill="#8F64FD"/>
<path d="M258.477 425.445L245.575 422.798L241.109 407.416L254.176 409.802M258.477 425.445L254.176 409.802M258.477 425.445L265.492 415.812L261.687 401.257L254.176 409.802" stroke="black" stroke-width="2" stroke-linecap="round" stroke-linejoin="round"/>
<path d="M316.555 346.255L321.235 338.151L320.208 324.452L314.673 328.893L302.856 330.616L303.541 346.255H316.555Z" fill="#8F64FD"/>
<path d="M316.389 346.64L303.998 345.569L302.4 331.2H315.16M316.389 346.64L315.16 331.2M316.389 346.64L321.235 338.15L320.502 325.51L315.16 331.2" stroke="black" stroke-width="2" stroke-linecap="round" stroke-linejoin="round"/>
<path d="M241.359 306.381L323.817 309.884L255.031 397.852L137.156 381.104L241.359 306.381Z" fill="#BFA5FF"/>
<path d="M261.625 248.897L241.397 306.009L323.803 309.312L341.095 247.245L261.625 248.897Z" fill="#AD8DFF"/>
<path d="M327.872 313.147L323.501 309.467L341.212 247.248L344.318 254.149L327.872 313.147Z" fill="#8F64FD"/>
<path d="M323.604 313.418H327.464L323.604 309.756V313.418Z" fill="#8F64FD"/>
<path d="M140.145 393.749L137.508 381.439L254.445 397.559L257.962 413.385L140.145 393.749Z" fill="#AD8DFF"/>
<path d="M208.479 363.888L182.294 386.596L178.274 385.618C181.968 381.055 191.747 369.321 200.982 358.347C219.67 356.5 227.818 353.023 229.122 346.504C231.947 349.655 243.246 354.001 246.071 354.001C248.353 354.001 267.258 355.957 276.385 356.935L268.779 359.433C266.498 358.673 260.413 357.152 254.872 356.935C248.027 356.609 237.923 355.413 229.013 355.196C226.297 357.912 218.257 363.345 208.479 363.888Z" fill="#AD8DFF"/>
<path d="M177.84 396.7C183.489 396.591 183.163 389.855 182.294 386.486L177.84 385.835L170.56 395.504C170.669 396.048 172.19 396.808 177.84 396.7Z" fill="#8F64FD"/>
<path d="M254.738 397.852L323.904 310.516V322.825L257.669 412.213L254.738 397.852Z" fill="#8F64FD"/>
<path d="M137.053 380.95L254.679 397.827M137.053 380.95L241.382 306.284M137.053 380.95L140.125 392.856L257.584 412.837M254.679 397.827L323.721 309.864M254.679 397.827L257.584 412.837M323.721 309.864L241.382 306.284M323.721 309.864L341.265 247.398M241.382 306.284L261.74 249.274L341.265 247.398M257.584 412.837L323.882 322.498L323.721 313.862M341.265 247.398L344.327 254.32L328.346 313.862M328.346 313.862L323.701 309.85L323.721 313.862M328.346 313.862H323.721" stroke="black" stroke-width="2" stroke-linecap="round" stroke-linejoin="round"/>
<path d="M159.267 395.103C157.804 393.536 154.566 389.567 152.999 385.806C151.223 385.179 147.357 384.552 146.626 387.373C145.686 390.82 151.536 394.895 159.267 395.103Z" fill="#FF8C25"/>
<path d="M161.983 379.328C161.043 373.06 157.177 366.374 151.536 367.523C144.223 368.986 151.536 384.447 155.088 390.402C158.64 396.356 165.012 401.371 168.564 399.804C172.116 398.237 169.191 392.7 167.937 391.028C166.684 389.357 162.923 385.596 161.983 379.328Z" fill="#FFC835"/>
<path d="M176.086 357.599C174.31 360.837 171.908 364.494 164.595 385.597C165.953 388.208 169.818 391.656 170.445 395.208C179.534 382.88 189.354 371.18 199.801 360.002C213.382 358.539 226.231 355.927 227.276 348.197C226.44 347.465 223.62 345.794 220.277 343.6C218.396 344.018 213.695 345.272 209.516 346.63L207.636 345.376C204.188 346.212 192.592 349.137 186.846 350.495C179.638 352.062 177.862 354.256 176.086 357.599Z" fill="#FFC835"/>
<path d="M199.592 342.973L195.204 347.987L207.636 345.271L203.353 341.928L199.592 342.973Z" fill="#FF8C25"/>
<path d="M164.699 385.388C172.012 364.389 174.519 360.733 176.191 357.39C177.967 354.151 179.743 351.853 186.951 350.286C192.697 348.928 203.875 346.316 207.323 345.481M194.473 348.51L199.174 343.078" stroke="black" stroke-width="2" stroke-linecap="round" stroke-linejoin="round"/>
<path d="M166.371 388.313C170.758 381.105 180.578 365.539 185.071 361.464C202.621 359.062 225.709 359.062 227.172 348.51" stroke="black" stroke-width="2" stroke-linecap="round" stroke-linejoin="round"/>
<path d="M162.61 379.538C161.67 373.27 157.804 366.584 152.163 367.733C144.85 369.195 152.163 384.657 155.715 390.611C159.267 396.566 165.639 401.581 169.191 400.014C172.743 398.447 169.818 392.91 168.564 391.238C167.311 389.462 163.55 385.701 162.61 379.538Z" stroke="black" stroke-width="2" stroke-linecap="round" stroke-linejoin="round"/>
<path d="M170.445 394.998C178.176 384.551 193.323 367.209 199.905 359.792" stroke="black" stroke-width="2" stroke-linecap="round" stroke-linejoin="round"/>
<path opacity="0.3" d="M181.727 359.584C180.996 360.628 177.549 365.747 165.326 386.746C165.535 387.059 166.057 387.79 166.37 387.999C167.102 386.746 177.966 369.613 185.279 361.36C190.398 360.315 201.681 359.166 210.456 358.644C221.425 358.017 225.5 353.002 226.858 349.973C228.007 347.57 222.261 344.749 219.336 343.6L209.412 346.63L207.113 345.063L203.666 346.107C205.233 346.63 208.367 348.406 208.367 351.331C208.367 354.987 201.785 356.136 192.383 356.554C182.981 356.972 182.459 358.539 181.727 359.584Z" fill="#FF0000"/>
<path opacity="0.3" d="M185.07 361.255C190.921 367.837 181.205 379.328 168.669 391.238C169.191 391.551 170.132 393.014 169.714 395.939C178.489 384.029 189.04 371.284 200.636 359.27C199.383 359.375 192.383 360.106 185.07 361.255Z" fill="#FF0000"/>
<path d="M152.79 385.7C151.014 385.073 147.148 384.446 146.417 387.267C145.477 390.714 151.014 394.789 158.744 394.998" stroke="black" stroke-width="2" stroke-linecap="round" stroke-linejoin="round"/>
<path d="M153.373 198.089C123.888 205.214 118.728 215.657 120.939 217.991C130.84 233.554 150.212 278.404 148.489 333.306L314.584 333.893C326.339 333.934 336.394 325.256 336.851 313.51C338.257 277.389 331.999 237.795 325.309 212.569C322.11 200.506 311.771 192.117 299.383 190.605C240.309 183.397 179.891 191.68 153.373 198.089Z" fill="#0E9FFF"/>
<path d="M330.782 237.885C335.931 239.295 335.507 247.336 333.006 252.96L330.782 237.885Z" fill="#0E9FFF"/>
<path d="M153.373 198.089C123.888 205.214 118.728 215.657 120.939 217.991C130.84 233.554 150.212 278.404 148.489 333.306L314.584 333.893C326.339 333.934 336.394 325.256 336.851 313.51C338.257 277.389 331.999 237.795 325.309 212.569C322.11 200.506 311.771 192.117 299.383 190.605C240.309 183.397 179.891 191.68 153.373 198.089Z" stroke="black" stroke-width="2" stroke-linecap="round" stroke-linejoin="round"/>
<path d="M134.735 277.528C128.447 286.512 126.009 298.575 128.96 310.639C138.842 310.639 141.409 295.624 134.735 277.528Z" fill="#35D2FF"/>
<path d="M315.344 218.297C321.096 237.858 328.608 272.469 325.263 329.047C324.962 334.147 320.582 338.008 315.492 337.574C274.211 334.057 196.167 322.251 156.09 329.23C154.81 297.893 142.048 236.341 135.811 209.413C135.802 209.392 135.796 209.369 135.796 209.346C135.776 208.404 143.46 206.016 154.489 204.161C188.367 198.461 241.043 192.012 292.422 198.529C303.211 199.897 312.276 207.863 315.344 218.297Z" fill="#0E9FFF"/>
<path d="M286.044 201.303C242.594 195.927 185.885 202.301 150.832 208.166C140.547 209.887 136.104 210.047 135.811 209.413M135.796 209.346C135.776 208.404 143.46 206.016 154.489 204.161C188.367 198.461 241.043 192.012 292.422 198.529C303.211 199.897 312.276 207.863 315.344 218.297C321.096 237.858 328.608 272.469 325.263 329.047C324.962 334.147 320.582 338.008 315.492 337.574C274.211 334.057 196.167 322.251 156.09 329.23C154.81 297.893 142.048 236.341 135.811 209.413M135.796 209.346C135.796 209.369 135.802 209.392 135.811 209.413M135.796 209.346C135.801 209.368 135.806 209.391 135.811 209.413" stroke="black" stroke-width="2" stroke-linecap="round" stroke-linejoin="round"/>
<path d="M242.259 203.781C240.964 203.689 239.884 202.747 239.644 201.471L238.715 196.531C238.472 195.238 239.62 194.107 240.912 194.358C291.082 204.116 312.311 224.813 314.883 235.101C317.5 245.571 312.44 249.061 310.52 240.336C306.335 214.546 264.613 205.369 242.259 203.781Z" fill="#2B2B2B"/>
<path d="M239.644 201.471L238.715 196.531C238.472 195.238 239.62 194.107 240.912 194.358C291.082 204.116 312.311 224.813 314.883 235.101C317.5 245.571 312.44 249.061 310.52 240.336C306.335 214.546 264.613 205.369 242.259 203.781C240.964 203.689 239.884 202.747 239.644 201.471Z" stroke="black" stroke-width="2" stroke-linecap="round" stroke-linejoin="round"/>
<path d="M177.903 350.137C131.772 356.357 133.845 346.25 134.104 338.475C135.429 298.721 133.625 255.334 120.704 217.478C123.754 221.132 152.228 212.136 207.447 207.857C245.21 204.931 272.211 207.382 288.638 210.615C299.373 212.729 306.857 221.441 308.924 232.185C311.71 246.665 314.807 267.552 316.036 291.048C317.188 313.052 315.504 330.662 313.335 342.709C311.552 352.611 303.159 359.398 293.106 359.801C277.855 360.413 256.961 359.607 238.547 354.284C205.374 344.695 224.034 343.917 177.903 350.137Z" fill="#35D2FF"/>
<path d="M177.903 350.137C131.772 356.357 133.845 346.25 134.104 338.475C135.429 298.721 133.625 255.334 120.704 217.478C123.754 221.132 152.228 212.136 207.447 207.857C245.21 204.931 272.211 207.382 288.638 210.615C299.373 212.729 306.857 221.441 308.924 232.185C311.71 246.665 314.807 267.552 316.036 291.048C317.188 313.052 315.504 330.662 313.335 342.709C311.552 352.611 303.159 359.398 293.106 359.801C277.855 360.413 256.961 359.607 238.547 354.284C205.374 344.695 224.034 343.917 177.903 350.137Z" stroke="black" stroke-width="2" stroke-linecap="round" stroke-linejoin="round"/>
<path d="M177.293 269.169C183.159 263.483 190.417 264.994 193.313 266.461M210.912 266.461C218.855 263.032 224.676 265.559 226.594 267.251M176.729 287.558C179.707 292.161 190.229 297.674 195.118 299.855M173.457 288.122C174.508 285.183 177.634 283.6 178.647 283.271" stroke="black" stroke-width="2" stroke-linecap="round" stroke-linejoin="round"/>
<path d="M190.842 265.64C184.682 265.321 182.558 265.215 179.265 267.764C173.274 252.838 190.353 250.691 190.842 265.64Z" fill="black"/>
<path d="M183.829 257.977C182.53 257.424 180.78 258.951 180.509 261.515" stroke="white" stroke-width="2" stroke-linecap="round" stroke-linejoin="round"/>
<path d="M224.209 265.084C217.474 263.823 215.152 263.392 211.15 265.712C206.76 248.394 225.879 248.554 224.209 265.084Z" fill="black"/>
<path d="M217.21 255.7C215.495 255.309 213.523 257.286 213.561 260.154" stroke="white" stroke-width="2" stroke-linecap="round" stroke-linejoin="round"/>
<path opacity="0.2" d="M122.732 228.619V233.654C122.732 234.451 122.999 235.219 123.476 235.819C124.366 236.936 125.511 238.406 125.954 239.091C129.177 251.526 131.813 268.968 150.269 264.93C168.725 260.893 171.591 248.617 171.801 234.892C171.944 225.543 182.48 223.118 185.277 231.016C189.103 241.824 192.454 255.241 216.623 253.949C240.791 252.657 243.428 237.638 242.402 213.575L246.613 209.062C247.281 208.345 247.601 207.324 247.488 206.304C247.304 204.643 247.07 202.336 246.88 199.974C246.734 198.143 245.249 196.769 243.592 196.963C198.604 202.219 188.668 211.858 176.488 214.544C164.438 217.201 140.587 217.287 124.326 225.782C123.337 226.298 122.732 227.413 122.732 228.619Z" fill="#0501A3"/>
<path d="M117 221.624V225.994C117 226.686 117.256 227.352 117.712 227.872C118.564 228.842 119.659 230.118 120.084 230.713C123.168 241.506 125.69 256.644 143.352 253.14C161.013 249.635 163.755 238.981 163.956 227.068C164.093 218.954 174.175 216.849 176.851 223.704C180.513 233.085 183.72 244.73 206.847 243.608C229.975 242.487 232.498 229.451 231.517 208.566L235.546 204.649C236.186 204.027 236.491 203.141 236.383 202.255C236.207 200.813 235.983 198.812 235.802 196.761C235.662 195.172 234.241 193.98 232.655 194.148C189.605 198.71 180.096 207.076 168.441 209.407C156.91 211.714 134.086 211.788 118.525 219.161C117.579 219.61 117 220.576 117 221.624Z" fill="#2B2B2B"/>
<path opacity="0.3" d="M133.253 228.068C131.122 231.364 132.788 234.097 130.859 234.945C127.64 236.358 124.209 229.108 125.989 224.571C128.748 217.539 137.463 221.556 133.253 228.068Z" fill="white"/>
<path opacity="0.3" d="M189.985 215.943C187.854 219.239 189.521 221.972 187.591 222.82C184.373 224.233 180.941 216.983 182.721 212.447C185.48 205.414 194.196 209.431 189.985 215.943Z" fill="white"/>
<path d="M117 221.624V225.994C117 226.686 117.256 227.352 117.712 227.872C118.564 228.842 119.659 230.118 120.084 230.713C123.168 241.506 125.69 256.644 143.352 253.14C161.013 249.635 163.755 238.981 163.956 227.068C164.093 218.954 174.175 216.849 176.851 223.704C180.513 233.085 183.72 244.73 206.847 243.608C229.975 242.487 232.498 229.451 231.517 208.566L235.546 204.649C236.186 204.027 236.491 203.141 236.383 202.255C236.207 200.813 235.983 198.812 235.802 196.761C235.662 195.172 234.241 193.98 232.655 194.148C189.605 198.71 180.096 207.076 168.441 209.407C156.91 211.714 134.086 211.788 118.525 219.161C117.579 219.61 117 220.576 117 221.624Z" stroke="black" stroke-width="2" stroke-linecap="round" stroke-linejoin="round"/>
<path d="M280.985 263.077C271.663 264.787 264.579 268.755 265.163 271.941L277.965 300.846C278.909 305.991 299.749 302.17 298.805 297.024L298.922 265.75C298.338 262.564 290.307 261.368 280.985 263.077Z" fill="white"/>
<path d="M282.921 271.42C275.958 271.42 270.312 273.013 270.312 274.978C270.312 275.162 270.362 275.344 270.459 275.521L280.289 297.53C281.273 300.042 295.53 298.278 295.53 294.873V274.978C295.53 273.013 289.885 271.42 282.921 271.42Z" fill="#BFA5FF"/>
<path d="M295.53 274.978C295.53 276.942 289.885 278.535 282.921 278.535C276.612 278.535 271.386 277.228 270.459 275.521M295.53 274.978C295.53 273.013 289.885 271.42 282.921 271.42C275.958 271.42 270.312 273.013 270.312 274.978C270.312 275.162 270.362 275.344 270.459 275.521M295.53 274.978V294.873M270.459 275.521L280.289 297.53" stroke="black" stroke-width="2" stroke-linecap="round" stroke-linejoin="round"/>
<path d="M298.956 274.235C296.387 274.235 293.896 273.344 291.91 271.714C289.924 270.084 288.564 267.816 288.063 265.296C287.562 262.775 287.95 260.159 289.161 257.893C290.372 255.627 292.332 253.851 294.706 252.868C297.08 251.884 299.721 251.755 302.18 252.501C304.639 253.246 306.763 254.822 308.191 256.958C309.618 259.095 310.261 261.66 310.009 264.217C309.757 266.775 308.626 269.165 306.809 270.982L298.956 263.129L298.956 274.235Z" fill="#FFC835"/>
<path d="M298.922 265.75C299.507 268.936 292.423 272.904 283.101 274.613C273.778 276.323 265.747 275.126 265.163 271.941C264.579 268.755 271.663 264.787 280.985 263.077C283.401 262.634 285.731 262.386 287.866 262.318M265.303 272.398L277.965 300.846C278.909 305.991 299.749 302.17 298.805 297.024L298.949 266.295" stroke="black" stroke-width="2" stroke-linecap="round" stroke-linejoin="round"/>
<path d="M298.956 274.235C296.387 274.235 293.896 273.344 291.91 271.714C289.924 270.084 288.564 267.816 288.063 265.296C287.562 262.775 287.95 260.159 289.161 257.893C290.372 255.627 292.332 253.851 294.706 252.868C297.08 251.884 299.721 251.755 302.18 252.501C304.639 253.246 306.763 254.822 308.191 256.958C309.618 259.095 310.261 261.66 310.009 264.217C309.757 266.775 308.626 269.165 306.809 270.982L298.956 263.129L298.956 274.235Z" stroke="black" stroke-width="2" stroke-linecap="round" stroke-linejoin="round"/>
<path d="M292.898 258.529C293.947 257.148 295.436 256.167 297.118 255.748C298.801 255.329 300.576 255.498 302.15 256.226C303.724 256.954 305.001 258.198 305.771 259.751C306.541 261.305 306.757 263.075 306.383 264.768M299.649 259.8L300.788 256.952M301.892 261.665L304.781 259.464" stroke="black" stroke-width="2" stroke-linecap="round" stroke-linejoin="round"/>
<path d="M255.984 253.897L248.653 252.617C247.899 252.485 247.394 251.766 247.528 251.012C247.662 250.257 248.384 249.754 249.139 249.892L256.803 251.287C258.643 251.623 260.245 252.747 261.185 254.364L273.347 275.277L269.67 274.317L259.034 256.022C258.381 254.898 257.264 254.121 255.984 253.897Z" fill="white" stroke="black" stroke-width="2" stroke-linecap="round" stroke-linejoin="round"/>
<path opacity="0.2" d="M325.631 326.887C335.079 318.593 337.177 308.433 337.045 304.391L333.788 279.66C311.29 282.66 264.234 298.285 277.717 328.982C287.667 351.634 307.406 334.468 315.707 326.887L315.319 331.267C316.76 330.75 320.841 328.207 325.631 322.174C325.631 323.801 325.631 327.02 325.631 326.887Z" fill="#0501A3"/>
<path d="M284.212 289.608C291.801 286.12 300.87 281.532 310.713 275.779C330.136 264.428 335.527 251.212 334.954 243.698C334.815 242.9 334.683 242.143 334.558 241.434C334.755 242.113 334.891 242.871 334.954 243.698C337.258 256.975 341.295 281.596 341.7 289.571C342.15 298.414 329.682 316.537 297.686 331.663C286.518 336.943 273.769 330.226 270.27 318.379C266.88 306.9 273.337 294.606 284.212 289.608Z" fill="#0DBAEC"/>
<path d="M307.395 283.223C304.611 284.13 301.336 285.89 301.301 287.483C301.271 288.851 303.109 289.109 305.891 288.052C314.332 284.846 321.954 278.513 328.314 271.832C331.298 268.697 329.621 267.037 326.445 270.054C318.104 277.979 310.18 282.317 307.395 283.223Z" fill="white"/>
<path d="M331.67 237.806C332.961 238.236 334.004 239.521 334.558 241.434M334.558 241.434C334.755 242.113 334.891 242.871 334.954 243.698M334.558 241.434C334.683 242.143 334.815 242.9 334.954 243.698M334.954 243.698C335.527 251.212 330.136 264.428 310.713 275.779C300.87 281.532 291.801 286.12 284.212 289.608C273.337 294.606 266.88 306.9 270.27 318.379C273.769 330.226 286.518 336.943 297.686 331.663C329.682 316.537 342.15 298.414 341.7 289.571C341.295 281.596 337.258 256.975 334.954 243.698Z" stroke="black" stroke-width="2" stroke-linecap="round" stroke-linejoin="round"/>
<path opacity="0.2" d="M295.666 325.443C281.976 330.823 275.547 306.874 289.237 301.493C302.927 296.113 309.356 320.063 295.666 325.443Z" fill="#0501A3"/>
<path d="M296.703 321.433C284.554 326.376 278.632 303.966 290.781 299.023C302.929 294.079 308.852 316.489 296.703 321.433Z" fill="#FFC835"/>
<path d="M296.703 321.433C284.554 326.376 278.632 303.966 290.781 299.023C302.929 294.079 308.852 316.489 296.703 321.433Z" stroke="black" stroke-width="2" stroke-linecap="round" stroke-linejoin="round"/>
<path opacity="0.2" d="M146.674 289.662L148.354 298.692L158.621 361.003C185.129 360.476 244.418 359.738 269.508 361.003C267.566 329.215 261.978 296.284 259.427 283.792C248.911 283.867 219.665 288.443 186.81 306.142C175.011 296.39 155.137 291.092 146.674 289.662Z" fill="#0501A3"/>
<path d="M137.148 292.388L142.893 306.14L178.056 315.714L247.511 299.699L244.552 288.036L235.848 289.255C235.848 288.268 235.57 285.947 234.456 284.555C207.718 288.593 184.206 300.628 175.793 306.14C170.51 302.731 157.503 293.715 137.148 292.388Z" fill="#E1DDDD"/>
<path d="M150.523 354.033C145.859 329.493 133.538 306.795 127.96 298.513C130.806 298.513 135.194 298.751 140.484 299.393C150.434 300.601 163.571 303.236 175.621 308.4C186.933 304.024 216.364 294.743 245.328 291.861C246.008 291.793 246.687 291.729 247.366 291.668C259.534 321.076 266.802 351.413 268.914 362.906C238.739 358.235 201.082 365.812 187.283 368.483C182.973 364.427 169.587 355.858 150.523 354.033Z" fill="#006077"/>
<path d="M187.283 368.483C182.973 364.427 169.587 355.858 150.523 354.033C145.859 329.493 133.538 306.795 127.96 298.513C130.806 298.513 135.194 298.752 140.484 299.393M187.283 368.483C186.877 348.608 179.339 320.147 175.621 308.401M187.283 368.483C201.082 365.812 238.739 358.235 268.914 362.906C266.802 351.413 259.534 321.076 247.366 291.669C246.687 291.729 246.008 291.793 245.328 291.861M175.621 308.401C163.571 303.236 150.434 300.601 140.484 299.393M175.621 308.401C186.933 304.024 216.364 294.743 245.328 291.861M140.484 299.393L137.04 292.595C156.66 293.988 171.237 302.974 176.153 306.177M176.153 306.177C185.184 299.981 206.419 288.98 234.985 284.608L235.996 288.98M176.153 306.177C197.897 296.27 222.885 289.343 244.454 288.291L245.328 291.861" stroke="black" stroke-width="2" stroke-linecap="round" stroke-linejoin="round"/>
<path opacity="0.14" d="M147.176 322.926C165.618 323.652 159.605 345.251 144.73 333.337L143.361 321.688C144.379 322.395 145.633 322.865 147.176 322.926Z" fill="black"/>
<path d="M134.333 309.118C134.333 309.118 135.07 318.884 142.488 319.176C160.93 319.901 154.918 341.501 140.042 329.587C134.397 325.066 130.257 318.915 128.346 311.371L134.333 309.118Z" fill="#35D2FF"/>
<path d="M132.099 282.494C123.109 300.475 129.032 320.769 140.042 329.587C154.918 341.501 160.93 319.901 142.488 319.176C135.07 318.884 133.38 307.502 133.38 307.502" stroke="black" stroke-width="2" stroke-linecap="round" stroke-linejoin="round"/>
<path d="M304.637 388.812C322.954 386.087 337.094 378.076 336.142 370.563L336.89 376.252C337.914 383.78 324.005 391.168 305.645 393.899C279.373 398.128 270.555 389.463 270.276 385.937L269.512 380.461C269.51 380.448 269.508 380.435 269.506 380.423L269.512 380.461C270.584 387.963 286.309 391.539 304.637 388.812Z" fill="#D8D6D6"/>
<path d="M309.33 428.083C331.395 424.41 330.826 413.864 330.826 413.864L331.146 417.915C331.622 423.935 322.782 430.894 310.126 432.777C292.019 435.731 285.763 428.012 285.514 425.161L284.897 420.728C284.896 420.718 284.894 420.708 284.893 420.698L284.897 420.728C285.759 426.802 296.695 429.962 309.33 428.083Z" fill="#D8D6D6"/>
<path d="M330.512 413.877C331.824 428.898 286.243 435.044 284.932 420C283.784 405.485 329.361 399.274 330.512 413.877Z" fill="white"/>
<path d="M305.566 414.22L300.718 379.608L305.032 378.875L309.799 413.577C309.984 414.928 309.099 416.154 307.868 416.252C306.745 416.34 305.739 415.452 305.566 414.22Z" fill="#D8D6D6"/>
<path d="M335.747 371.528C337.391 390.036 270.523 399.037 268.879 380.501C267.464 362.612 334.329 353.533 335.747 371.528Z" fill="white"/>
<path d="M330.676 413.643L330.956 418.023C331.451 424.28 322.282 430.835 309.699 432.707C297.116 434.579 286.351 431.23 285.497 424.957L284.881 420.456M330.676 413.643C331.53 419.916 322.002 426.454 309.316 428.342C296.629 430.229 285.735 426.729 284.881 420.456M330.676 413.643C329.884 407.826 320.15 404.353 308.624 405.486M284.881 420.456C284.089 414.638 292.817 408.412 304.394 406.108M335.892 370.921C336.917 378.45 322.753 386.492 304.394 389.223C286.035 391.954 270.288 388.362 269.263 380.834M335.892 370.921L336.646 376.663C337.671 384.191 323.761 391.579 305.402 394.31C286.94 397.057 271.057 393.877 270.032 386.348L269.263 380.834M335.892 370.921C334.493 353.223 266.802 360.882 269.263 380.834M303.228 394.604L305.549 414.588C305.72 415.843 306.7 416.861 307.851 416.806C309.104 416.736 309.996 415.556 309.809 414.187L307.457 393.975" stroke="black" stroke-width="2" stroke-linecap="round" stroke-linejoin="round"/>
<path d="M343.588 72.42L348.408 77.2394L345.256 80.4833L348.408 83.6345L343.588 88.454L340.437 85.2101L337.286 88.454L332.466 83.6345L335.618 80.4833L332.466 77.2394L337.286 72.42L340.437 75.5712L343.588 72.42Z" fill="#FED269"/>
<path d="M232.184 496.903C234.488 496.903 236.355 495.036 236.355 492.733C236.355 490.429 234.488 488.562 232.184 488.562C229.881 488.562 228.014 490.429 228.014 492.733C228.014 495.036 229.881 496.903 232.184 496.903Z" fill="#FED269"/>
<path d="M221.526 481.148H215.965V486.709H221.526V481.148Z" fill="#EFEFEF"/>
<path d="M398.565 383.699L393.803 386.571L396.675 391.333L401.437 388.461L398.565 383.699Z" fill="#FED269"/>
<path d="M261.195 8.95715e-05L256.433 2.87231L259.305 7.63413L264.067 4.76191L261.195 8.95715e-05Z" fill="#FED269"/>
<path d="M54.9786 319.606C50.8266 310.017 57.0546 300.824 61.6019 298.945C66.1493 297.166 77.913 294.497 84.9318 312.686C77.1222 313.971 68.6206 314.169 63.4801 318.618C60.811 319.804 60.8111 321.089 58.6362 320.397C56.4614 319.705 54.9786 319.606 54.9786 319.606Z" fill="#35D2FF"/>
<path d="M62.0961 319.606C59.5259 312.192 58.6362 305.964 63.579 304.976C68.5217 303.888 70.6966 305.865 70.6966 305.865L74.9473 299.44C68.2252 294.892 58.2407 299.143 56.2636 304.185C54.2865 309.226 56.0659 314.96 58.043 317.629C58.3396 317.53 59.427 319.705 59.427 319.705L62.0961 319.606Z" fill="#00B3FF"/>
<path d="M59.921 299.934L53.1988 282.337C52.7045 280.953 53.3965 279.47 54.7805 279.174C55.9667 278.877 57.2519 279.47 57.6473 280.657L64.4683 298.055" fill="#35D2FF"/>
<path d="M59.9214 320.595C58.2408 317.333 49.0473 302.801 63.6779 298.451C78.2096 294.101 84.4375 311.5 84.9318 312.785C83.5478 312.686 81.5707 313.279 80.1868 313.477C79.8902 313.477 79.4948 313.576 79.1982 313.477C78.9016 313.378 78.7039 313.181 78.5062 312.884C72.6737 301.12 55.7694 303.394 56.5603 313.675" stroke="black" stroke-width="2" stroke-linecap="round" stroke-linejoin="round"/>
<path d="M60.3169 320.792C63.2826 318.914 66.0505 316.64 69.3127 315.553C71.2898 314.96 73.3658 314.762 75.3429 314.466C80.7799 313.675 86.1182 313.18 91.0609 310.907" stroke="black" stroke-width="2" stroke-linecap="round" stroke-linejoin="round"/>
<path d="M56.5604 303.393C51.5188 312.488 54.9788 319.606 54.9788 319.606C54.9788 319.606 58.0433 319.111 59.625 320.99" stroke="black" stroke-width="2" stroke-linecap="round" stroke-linejoin="round"/>
<path d="M64.4687 297.957L57.6478 280.558C57.1535 279.372 55.9672 278.779 54.7809 279.076C53.3969 279.471 52.6061 280.954 53.1993 282.239L59.9214 299.835" stroke="black" stroke-width="2" stroke-linecap="round" stroke-linejoin="round"/>
<path d="M52.8093 432.056L1.08008 462.003L3.79538 476.112C7.37737 470.073 11.2956 464.573 11.2956 464.573C27.2939 467.121 40.6607 465.053 52.9174 453.249L52.8093 432.056Z" fill="#E5EEF2"/>
<path d="M277.56 479.326L52.8755 432.01V453.802C72.9331 479.113 148.491 469.187 173.802 471.336C241.125 477.053 253.127 509.312 277.56 479.326Z" fill="#F1FBFF"/>
<path d="M52.8373 432L279.782 478.215M52.8373 432L1 461.934M52.8373 432V452.148" stroke="#D8D8D8" stroke-width="1.85477" stroke-linecap="round" stroke-linejoin="round"/>
<path d="M11.0493 464.294C35.1498 470.541 46.933 458.501 52.1612 452.7C66.998 468.329 111.015 472.47 131.101 470.541C221.06 461.903 249.795 513.754 279.226 479.881" stroke="#0DBAEC" stroke-width="1.85477" stroke-linecap="round" stroke-linejoin="round"/>
<path d="M72.8397 451.955C55.5842 451.154 48.449 474.453 55.5843 485.156C63.4474 485.884 71.3699 482.446 76.48 482.098C82.8871 481.661 93.4443 491.854 98.3954 483.845C100.58 463.022 89.2216 453.193 82.232 451.955C80.0095 451.562 79.6837 451.737 72.8397 451.955Z" fill="#FFC835"/>
<path d="M63.8197 480.384L66.8843 483.901M63.669 474.305L69.6971 480.937M72.1089 474.255L75.073 460.842M63.6689 474.255L75.3744 460.188L80.3983 480.183L72.0587 474.255H63.6689Z" stroke="#FF9900" stroke-width="2.78216" stroke-linecap="round" stroke-linejoin="round"/>
<path d="M55.561 485.017C47.3811 471.906 58.087 448.208 75.89 452.419C91.4011 456.087 92.9313 476.918 91.0467 486.461" stroke="black" stroke-width="1.85477" stroke-linecap="round" stroke-linejoin="round"/>
<path d="M98.3596 483.775C100.453 463.772 89.7981 451.779 80.1186 451.779L71.4121 451.912L71.4214 451.928C72.8527 451.898 74.3452 452.053 75.8913 452.419C91.4024 456.087 92.9325 476.918 91.048 486.461C90.9669 486.447 90.8865 486.433 90.8069 486.419L90.8337 486.466" stroke="black" stroke-width="1.85477" stroke-linecap="round" stroke-linejoin="round"/>
<path d="M101.71 479.413C93.1139 495.577 84.2664 480.347 72.6385 482.732C65.6328 484.169 54.6785 488.383 48.4893 482.724" stroke="#0DBAEC" stroke-width="1.85477" stroke-linecap="round" stroke-linejoin="round"/>
<mask id="mask0" mask-type="alpha" maskUnits="userSpaceOnUse" x="120" y="440" width="81" height="59">
<path d="M157.434 489.822C169.373 481.446 178.375 479.34 200.69 488.865L181.016 440.748L120.757 462.332C124.065 474.69 131.277 499.192 133.655 498.34C136.627 497.275 145.495 498.199 157.434 489.822Z" fill="black"/>
</mask>
<g mask="url(#mask0)">
<path d="M183.141 474.696C191.556 504.128 149.688 515.43 141.132 487.62C132.577 459.81 174.726 445.264 183.141 474.696Z" fill="#FFC835"/>
<path d="M155.468 460.242L149.372 463.325C140.227 467.951 137.219 480.384 142.611 491.043C148.002 501.703 159.8 506.647 168.944 502.022L175.041 498.939M175.077 499.012C165.933 503.637 154.136 498.693 148.744 488.033C143.352 477.373 146.36 464.94 155.505 460.315C164.649 455.69 176.447 460.634 181.839 471.294C187.23 481.954 184.222 494.386 175.077 499.012Z" stroke="black" stroke-width="1.85477" stroke-linecap="round" stroke-linejoin="round"/>
</g>
<path d="M200.691 488.865C178.415 479.081 169.468 481.152 157.639 489.547C145.81 497.941 136.976 496.948 134.024 498.005" stroke="#0DBAEC" stroke-width="1.85477" stroke-linecap="round" stroke-linejoin="round"/>
<mask id="mask1" mask-type="alpha" maskUnits="userSpaceOnUse" x="110" y="463" width="89" height="56">
<path d="M142.089 515.419C157.52 510.792 186.069 511.682 198.029 517.732V463.558H110.839V517.732C116.112 518.503 129.743 519.12 142.089 515.419Z" fill="#00A5DA"/>
</mask>
<g mask="url(#mask1)">
<path d="M163.102 521.407C132.436 535.619 112.948 491.881 141.821 477.793C170.694 463.705 193.768 507.195 163.102 521.407Z" fill="#FFC835"/>
<path d="M174.136 488.748L169.729 482.625C163.12 473.441 149.044 472.285 138.338 479.99C127.632 487.694 124.256 501.408 130.865 510.592L135.271 516.715M135.198 516.768C128.589 507.584 131.965 493.869 142.671 486.165C153.377 478.461 167.453 479.616 174.062 488.8C180.671 497.985 177.295 511.699 166.589 519.403C155.883 527.107 141.807 525.952 135.198 516.768Z" stroke="black" stroke-width="1.85477" stroke-linecap="round" stroke-linejoin="round"/>
</g>
<path d="M198.027 517.784C186.068 512.272 157.519 511.461 142.087 515.676C129.742 519.049 116.11 518.487 110.838 517.784" stroke="#00A5DA" stroke-width="1.85477" stroke-linecap="round" stroke-linejoin="round"/>
<path d="M195.69 324.114C195.271 324.226 194.94 324.188 194.696 323.998C194.45 323.802 194.263 323.469 194.137 322.999C194.011 322.529 193.871 321.407 193.718 319.632L193.564 319.674C193.309 320.294 193.15 320.996 193.084 321.78C193.019 322.564 193.034 323.25 193.131 323.839C192.895 324.22 192.571 324.466 192.159 324.577C191.992 324.622 191.828 324.604 191.668 324.522C191.513 324.433 191.334 324.257 191.132 323.993C190.733 323.459 190.256 322.365 189.701 320.713L189.546 320.754C189.603 322.223 189.708 323.241 189.86 323.807C190.013 324.374 190.227 324.786 190.503 325.043C190.195 325.436 189.831 325.689 189.413 325.802C188.994 325.915 188.663 325.876 188.419 325.686C188.173 325.49 187.986 325.154 187.857 324.678C187.728 324.195 187.564 322.779 187.367 320.429L186.577 319.533C187.178 318.868 187.778 318.454 188.377 318.293C188.641 318.222 188.871 318.192 189.067 318.201C189.267 318.202 189.472 318.258 189.681 318.367C189.896 318.475 190.096 318.653 190.28 318.9C190.699 319.457 191.124 320.319 191.556 321.487L191.672 321.456C191.741 320.381 191.977 319.41 192.379 318.542C192.599 318.076 192.901 317.674 193.287 317.335C193.678 316.995 194.135 316.755 194.656 316.615C195.152 316.481 195.481 316.714 195.642 317.313C195.695 317.512 195.77 318.29 195.865 319.645C195.965 320.992 196.048 321.787 196.114 322.032C196.282 322.657 196.504 323.097 196.78 323.354C196.472 323.748 196.108 324.001 195.69 324.114ZM201.407 321.033L201.298 321.011C201.248 321.521 201.095 321.952 200.838 322.304C200.585 322.648 200.259 322.874 199.86 322.982C199.313 323.129 198.82 323.04 198.381 322.717C197.942 322.393 197.629 321.887 197.444 321.198C197.157 320.129 197.273 319.138 197.794 318.225C198.321 317.31 199.119 316.709 200.187 316.421C200.464 316.347 200.725 316.304 200.971 316.293C201.058 316.463 201.123 316.615 201.166 316.748C201.432 316.456 201.736 316.264 202.077 316.172C202.547 316.045 202.851 316.237 202.988 316.745C203.036 316.925 203.079 317.497 203.118 318.46C203.162 319.422 203.243 320.121 203.361 320.559C203.479 320.997 203.66 321.273 203.905 321.386C203.629 321.799 203.295 322.058 202.902 322.163C202.516 322.267 202.201 322.228 201.959 322.044C201.723 321.859 201.539 321.522 201.407 321.033ZM199.132 320.236C199.217 320.552 199.347 320.779 199.523 320.918C199.703 321.049 199.915 321.082 200.16 321.016C200.405 320.95 200.622 320.795 200.812 320.551C201.001 320.307 201.134 320.005 201.21 319.646C201.093 318.981 201.012 318.177 200.966 317.237C200.316 317.412 199.806 317.801 199.437 318.404C199.067 319.008 198.966 319.618 199.132 320.236ZM207.112 315.936C206.893 316.071 206.731 316.225 206.626 316.398C206.519 316.565 206.443 316.786 206.4 317.06C207.531 316.928 208.359 316.954 208.885 317.137C209.411 317.32 209.749 317.691 209.899 318.251C209.995 318.606 209.978 318.941 209.849 319.259C209.719 319.57 209.521 319.834 209.255 320.051C208.73 320.461 208.181 320.743 207.608 320.897C205.979 321.336 205.071 321.204 204.882 320.502C204.787 320.148 204.849 319.751 205.069 319.313C205.291 319.495 205.584 319.623 205.949 319.697C206.321 319.77 206.661 319.765 206.97 319.681C207.505 319.538 207.763 319.216 207.746 318.717C206.737 318.864 205.97 318.836 205.445 318.631C204.921 318.427 204.58 318.032 204.422 317.447C204.298 316.983 204.344 316.553 204.562 316.156C204.786 315.757 205.107 315.436 205.525 315.193C205.947 314.941 206.442 314.739 207.008 314.587C207.581 314.433 208.081 314.416 208.506 314.536C208.937 314.648 209.194 314.858 209.277 315.167C209.36 315.476 209.315 315.744 209.141 315.97C208.973 316.195 208.761 316.342 208.503 316.411C208.252 316.478 208.002 316.473 207.754 316.395C207.511 316.315 207.297 316.162 207.112 315.936ZM210.628 316.088C210.535 315.92 210.467 315.758 210.426 315.604C210.341 315.288 210.37 315.025 210.513 314.814C210.657 314.603 210.877 314.457 211.173 314.378C211.083 314.043 210.898 313.703 210.618 313.357C210.872 313.04 211.111 312.789 211.338 312.604C211.569 312.411 211.829 312.275 212.119 312.197C212.408 312.119 212.623 312.12 212.762 312.2C212.905 312.272 213.006 312.417 213.065 312.636C213.124 312.855 213.171 313.209 213.206 313.696C213.453 313.588 213.699 313.464 213.944 313.322C214.025 313.445 214.094 313.613 214.151 313.825C214.209 314.038 214.179 314.26 214.061 314.491C213.949 314.715 213.735 314.869 213.42 314.954L213.275 314.993C213.325 316.105 213.427 316.944 213.579 317.51C213.731 318.077 213.938 318.446 214.198 318.618C213.922 319.03 213.582 319.291 213.176 319.4C212.77 319.509 212.445 319.469 212.201 319.279C211.961 319.081 211.773 318.728 211.636 318.219C211.553 317.91 211.448 317.069 211.32 315.695C211.074 315.809 210.844 315.94 210.628 316.088ZM218.773 317.894C217.891 318.132 217.147 318.087 216.541 317.759C215.942 317.43 215.537 316.876 215.328 316.097C215.049 315.061 215.177 314.126 215.712 313.291C216.252 312.449 217.059 311.883 218.134 311.594C218.733 311.433 219.223 311.446 219.605 311.633C219.985 311.814 220.234 312.123 220.352 312.561C220.513 313.16 220.354 313.738 219.876 314.294C219.402 314.843 218.557 315.284 217.342 315.618C217.473 316.025 217.653 316.325 217.885 316.518C218.115 316.704 218.355 316.764 218.606 316.697C218.857 316.629 219.05 316.487 219.186 316.271C219.327 316.054 219.347 315.755 219.245 315.375C220.185 315.122 220.714 315.218 220.834 315.662C220.936 316.042 220.8 316.462 220.427 316.921C220.052 317.374 219.5 317.699 218.773 317.894ZM218.274 312.768C217.946 312.856 217.687 313.102 217.499 313.505C217.317 313.906 217.224 314.345 217.222 314.822C217.851 314.597 218.295 314.322 218.553 313.998C218.816 313.665 218.911 313.363 218.838 313.093C218.803 312.964 218.733 312.869 218.627 312.808C218.527 312.745 218.409 312.732 218.274 312.768ZM222.132 315.707C222.063 315.449 221.993 314.933 221.923 314.158C221.859 313.381 221.815 312.668 221.792 312.018L221.083 311.381C221.79 310.804 222.305 310.472 222.627 310.385C222.955 310.297 223.175 310.459 223.286 310.871C223.346 311.096 223.367 311.595 223.346 312.367L223.456 312.389C223.547 310.88 223.937 310.033 224.626 309.848C224.941 309.763 225.209 309.795 225.428 309.943C225.647 310.091 225.789 310.284 225.853 310.522C225.948 310.876 225.898 311.214 225.701 311.536C225.505 311.858 225.143 312.09 224.615 312.232C223.817 312.447 223.638 313.375 224.08 315.017C224.187 315.416 224.334 315.691 224.519 315.841C224.205 316.264 223.88 316.52 223.546 316.611C222.818 316.806 222.347 316.505 222.132 315.707ZM228.651 307.129C228.717 307.374 228.645 307.621 228.436 307.87C228.225 308.113 227.956 308.279 227.627 308.367C227.299 308.456 227.021 308.461 226.793 308.385C226.572 308.306 226.432 308.157 226.373 307.938C226.293 307.642 226.369 307.373 226.601 307.131C226.833 306.89 227.103 306.727 227.412 306.644C227.721 306.561 227.987 306.559 228.208 306.637C228.436 306.714 228.583 306.878 228.651 307.129ZM228.802 315.197C228.403 315.304 228.086 315.282 227.852 315.131C227.618 314.98 227.447 314.702 227.337 314.296C227.227 313.884 227.137 312.731 227.07 310.837L226.311 310.171C226.986 309.472 227.555 309.06 228.018 308.935C228.282 308.864 228.485 308.872 228.625 308.958C228.764 309.038 228.867 309.204 228.935 309.455C228.961 309.552 228.994 310.15 229.035 311.251C229.075 312.351 229.155 313.124 229.275 313.568C229.394 314.012 229.577 314.294 229.824 314.414C229.548 314.827 229.207 315.088 228.802 315.197ZM232.42 314.223C232.04 314.326 231.733 314.301 231.499 314.15C231.265 313.999 231.104 313.759 231.016 313.431C230.928 313.103 230.848 312.551 230.778 311.776C230.714 310.999 230.671 310.286 230.648 309.636L229.938 308.999C230.478 308.467 231.019 308.128 231.559 307.983C232.1 307.837 232.436 308.009 232.568 308.498C232.655 308.82 232.669 309.169 232.611 309.543L232.72 309.566C233.092 308.202 233.809 307.378 234.872 307.092C235.651 306.882 236.145 307.167 236.354 307.946C236.445 308.281 236.5 308.873 236.522 309.723C236.55 310.572 236.619 311.199 236.728 311.605C236.837 312.01 236.984 312.288 237.169 312.438C236.913 312.846 236.595 313.1 236.215 313.203C235.475 313.402 234.997 313.102 234.782 312.304C234.703 312.008 234.664 311.48 234.667 310.719C234.67 309.959 234.642 309.473 234.585 309.261C234.507 308.971 234.359 308.856 234.14 308.914C233.96 308.963 233.775 309.099 233.587 309.322C233.397 309.539 233.229 309.812 233.082 310.141C232.941 310.462 232.852 310.849 232.814 311.301C232.775 311.746 232.813 312.181 232.927 312.606C233.04 313.025 233.189 313.309 233.374 313.459C233.118 313.867 232.8 314.121 232.42 314.223ZM239.612 309.13C239.7 309.459 239.862 309.702 240.098 309.859C240.338 310.009 240.594 310.047 240.864 309.974C241.231 309.875 241.513 309.613 241.709 309.188C241.664 308.585 241.563 307.643 241.404 306.36C240.683 306.554 240.163 306.918 239.844 307.453C239.532 307.985 239.454 308.545 239.612 309.13ZM243.156 312.102C242.962 312.589 242.668 313.01 242.273 313.365C241.88 313.726 241.429 313.975 240.921 314.111C240.419 314.247 239.987 314.259 239.626 314.149C239.273 314.044 239.054 313.83 238.967 313.508C238.881 313.186 238.922 312.813 239.09 312.388C239.504 312.746 240.007 312.845 240.6 312.686C240.986 312.582 241.298 312.319 241.536 311.896C241.783 311.477 241.875 310.935 241.813 310.268L241.703 310.245C241.427 311.038 240.931 311.53 240.216 311.723C239.675 311.868 239.194 311.773 238.773 311.438C238.351 311.102 238.047 310.587 237.86 309.892C237.68 309.222 237.699 308.561 237.917 307.909C238.164 307.159 238.628 306.561 239.309 306.116C239.684 305.87 240.059 305.697 240.432 305.596C240.806 305.496 241.128 305.437 241.399 305.419C241.485 305.582 241.55 305.734 241.594 305.874C241.841 305.586 242.119 305.401 242.428 305.318C242.873 305.199 243.156 305.367 243.279 305.824C243.402 306.282 243.5 306.759 243.572 307.258C243.642 307.75 243.689 308.286 243.714 308.866C243.739 309.446 243.701 310.012 243.601 310.563C243.506 311.107 243.357 311.62 243.156 312.102ZM192.732 338.371C192.352 338.474 192.04 338.43 191.796 338.24C191.549 338.044 191.362 337.708 191.234 337.231C191.104 336.748 190.941 335.332 190.744 332.983L189.954 332.087C190.555 331.422 191.155 331.008 191.754 330.847C192.134 330.745 192.417 330.862 192.604 331.198C193.326 330.983 194.19 330.575 195.195 329.973C195.304 330.172 195.386 330.374 195.441 330.58C195.581 331.102 195.513 331.541 195.236 331.899C194.966 332.254 194.561 332.505 194.02 332.65C193.653 332.749 193.272 332.769 192.876 332.71C192.902 333.013 192.94 333.511 192.988 334.202C193.238 334.183 193.447 334.151 193.614 334.106C193.864 333.983 194.134 333.831 194.423 333.65C194.485 333.751 194.55 333.927 194.617 334.178C194.683 334.422 194.636 334.646 194.476 334.847C194.317 335.049 194.111 335.184 193.86 335.251C193.615 335.317 193.357 335.356 193.083 335.367C193.122 335.792 193.189 336.184 193.286 336.545L194.851 336.124C195.321 335.921 195.78 335.663 196.227 335.35C196.297 335.455 196.358 335.608 196.412 335.807C196.514 336.187 196.493 336.556 196.347 336.912C196.208 337.267 195.942 337.498 195.549 337.603C195.343 337.659 195.029 337.698 194.607 337.722C194.194 337.75 193.888 337.781 193.69 337.813C193.431 338.083 193.112 338.269 192.732 338.371ZM196.662 333.307C196.569 333.138 196.501 332.977 196.46 332.823C196.375 332.507 196.404 332.244 196.548 332.033C196.691 331.821 196.911 331.676 197.207 331.596C197.117 331.262 196.932 330.921 196.653 330.575C196.906 330.259 197.146 330.008 197.372 329.823C197.603 329.629 197.863 329.494 198.153 329.416C198.443 329.338 198.657 329.339 198.796 329.419C198.939 329.491 199.041 329.636 199.1 329.855C199.158 330.074 199.205 330.427 199.24 330.915C199.487 330.807 199.733 330.682 199.978 330.54C200.059 330.664 200.129 330.831 200.186 331.044C200.243 331.256 200.213 331.478 200.096 331.71C199.983 331.934 199.769 332.088 199.454 332.173L199.309 332.212C199.359 333.323 199.461 334.162 199.613 334.729C199.766 335.295 199.972 335.665 200.232 335.836C199.956 336.249 199.616 336.509 199.21 336.618C198.805 336.728 198.48 336.687 198.235 336.498C197.996 336.3 197.808 335.946 197.671 335.438C197.588 335.129 197.482 334.287 197.354 332.913C197.109 333.028 196.878 333.159 196.662 333.307ZM205.849 328.361C206.628 328.151 207.122 328.436 207.332 329.215C207.422 329.55 207.478 330.142 207.499 330.992C207.527 331.841 207.596 332.468 207.705 332.873C207.814 333.279 207.961 333.557 208.147 333.707C207.89 334.115 207.572 334.369 207.192 334.471C206.452 334.671 205.974 334.371 205.76 333.573C205.68 333.277 205.642 332.748 205.644 331.988C205.647 331.228 205.62 330.742 205.562 330.529C205.485 330.24 205.336 330.124 205.117 330.183C204.937 330.232 204.753 330.368 204.564 330.591C204.374 330.808 204.206 331.081 204.06 331.41C203.918 331.731 203.829 332.118 203.792 332.569C203.753 333.015 203.79 333.45 203.905 333.875C204.017 334.293 204.166 334.578 204.352 334.728C204.095 335.135 203.777 335.39 203.397 335.492C202.657 335.691 202.179 335.392 201.965 334.593C201.836 334.117 201.705 333.117 201.572 331.593C201.446 330.253 201.378 329.501 201.369 329.338L200.62 328.711C201.299 328.024 201.87 327.619 202.333 327.494C202.597 327.423 202.799 327.428 202.937 327.508C203.075 327.581 203.176 327.74 203.242 327.985C203.367 328.448 203.457 328.966 203.514 329.537C203.572 330.109 203.596 330.534 203.588 330.812L203.698 330.834C204.07 329.471 204.787 328.646 205.849 328.361ZM212.276 333.104C211.394 333.341 210.65 333.296 210.044 332.969C209.445 332.64 209.041 332.086 208.831 331.307C208.552 330.271 208.68 329.335 209.215 328.501C209.755 327.659 210.562 327.093 211.638 326.804C212.236 326.642 212.727 326.656 213.108 326.843C213.488 327.024 213.737 327.333 213.855 327.771C214.016 328.369 213.857 328.947 213.379 329.504C212.905 330.052 212.061 330.494 210.846 330.827C210.976 331.234 211.157 331.534 211.388 331.727C211.618 331.914 211.858 331.974 212.109 331.906C212.36 331.839 212.553 331.697 212.689 331.481C212.83 331.263 212.85 330.965 212.748 330.585C213.688 330.332 214.218 330.428 214.337 330.872C214.439 331.252 214.304 331.671 213.93 332.131C213.555 332.584 213.004 332.908 212.276 333.104ZM211.777 327.978C211.449 328.066 211.191 328.311 211.002 328.714C210.82 329.115 210.728 329.554 210.725 330.031C211.355 329.807 211.798 329.532 212.056 329.207C212.319 328.874 212.414 328.573 212.341 328.302C212.306 328.173 212.236 328.079 212.13 328.017C212.03 327.954 211.913 327.941 211.777 327.978ZM215.635 330.916C215.566 330.659 215.496 330.142 215.426 329.368C215.362 328.591 215.319 327.878 215.296 327.228L214.586 326.59C215.293 326.013 215.808 325.682 216.13 325.595C216.458 325.507 216.678 325.669 216.789 326.081C216.849 326.306 216.87 326.805 216.849 327.576L216.959 327.599C217.05 326.09 217.44 325.243 218.129 325.057C218.445 324.973 218.712 325.004 218.931 325.152C219.151 325.3 219.292 325.494 219.356 325.732C219.452 326.086 219.401 326.424 219.205 326.746C219.008 327.068 218.646 327.3 218.118 327.442C217.32 327.657 217.141 328.585 217.583 330.227C217.69 330.626 217.837 330.901 218.022 331.051C217.708 331.474 217.383 331.73 217.049 331.82C216.321 332.016 215.85 331.715 215.635 330.916ZM223.734 330.022C222.852 330.259 222.108 330.214 221.502 329.887C220.903 329.558 220.499 329.004 220.289 328.225C220.01 327.189 220.138 326.253 220.673 325.419C221.213 324.577 222.02 324.011 223.096 323.722C223.694 323.56 224.184 323.574 224.566 323.761C224.946 323.942 225.195 324.251 225.313 324.689C225.474 325.287 225.315 325.865 224.837 326.422C224.363 326.97 223.519 327.412 222.304 327.745C222.434 328.152 222.614 328.452 222.846 328.645C223.076 328.832 223.316 328.892 223.567 328.824C223.818 328.757 224.011 328.615 224.147 328.399C224.288 328.181 224.308 327.883 224.206 327.503C225.146 327.25 225.675 327.346 225.795 327.79C225.897 328.17 225.761 328.589 225.388 329.049C225.013 329.502 224.461 329.826 223.734 330.022ZM223.235 324.895C222.907 324.984 222.649 325.229 222.46 325.632C222.278 326.033 222.185 326.472 222.183 326.949C222.813 326.725 223.256 326.45 223.514 326.125C223.777 325.792 223.872 325.491 223.799 325.22C223.764 325.091 223.694 324.996 223.588 324.935C223.488 324.872 223.37 324.859 223.235 324.895ZM229.038 328.595C228.471 328.748 228.038 328.716 227.738 328.5C227.438 328.283 227.232 327.966 227.12 327.548C227.005 327.123 226.92 326.524 226.865 325.752C226.809 324.98 226.737 324.43 226.648 324.102C226.56 323.773 226.423 323.534 226.238 323.384C226.752 322.907 227.215 322.614 227.627 322.503C227.891 322.432 228.095 322.435 228.241 322.514C228.391 322.584 228.498 322.738 228.562 322.976C228.626 323.214 228.684 323.827 228.735 324.814C228.791 325.793 228.849 326.392 228.908 326.611C228.967 326.83 229.075 326.987 229.232 327.083C229.387 327.172 229.564 327.19 229.764 327.137C229.963 327.083 230.155 326.949 230.339 326.733C230.521 326.512 230.644 326.237 230.707 325.909C230.657 325.364 230.613 324.492 230.574 323.294L229.786 322.678C230.31 322.033 230.865 321.632 231.451 321.474C231.741 321.396 231.961 321.395 232.113 321.472C232.269 321.54 232.377 321.684 232.436 321.903C232.493 322.115 232.539 322.762 232.575 323.843C232.617 324.923 232.696 325.678 232.812 326.11C232.926 326.535 233.106 326.807 233.353 326.927C233.077 327.34 232.739 327.6 232.34 327.707C231.948 327.813 231.641 327.802 231.42 327.675C231.2 327.548 231.051 327.343 230.975 327.059L230.866 327.037C230.736 327.403 230.506 327.727 230.175 328.01C229.848 328.284 229.469 328.479 229.038 328.595ZM239.79 321.074L239.899 321.097C240.271 319.733 240.956 318.917 241.954 318.649C242.733 318.439 243.227 318.724 243.437 319.503C243.527 319.838 243.583 320.43 243.604 321.28C243.632 322.129 243.701 322.756 243.81 323.162C243.919 323.567 244.066 323.845 244.252 323.995C243.996 324.403 243.677 324.657 243.298 324.76C242.557 324.959 242.08 324.659 241.865 323.861C241.785 323.565 241.747 323.037 241.749 322.276C241.752 321.516 241.725 321.03 241.668 320.818C241.59 320.528 241.441 320.413 241.223 320.471C241.042 320.52 240.861 320.655 240.679 320.876C240.502 321.09 240.346 321.359 240.213 321.685C240.085 322.003 240.005 322.387 239.974 322.837C239.948 323.279 239.992 323.712 240.106 324.137C240.219 324.556 240.368 324.84 240.553 324.99C240.297 325.398 239.979 325.652 239.599 325.754C238.859 325.954 238.381 325.654 238.166 324.856C238.087 324.56 238.048 324.031 238.051 323.271C238.054 322.511 238.026 322.025 237.969 321.813C237.891 321.523 237.743 321.407 237.524 321.466C237.344 321.515 237.163 321.65 236.981 321.871C236.803 322.085 236.648 322.354 236.515 322.68C236.386 322.998 236.306 323.382 236.276 323.832C236.249 324.274 236.294 324.707 236.408 325.132C236.52 325.55 236.669 325.835 236.855 325.985C236.598 326.392 236.28 326.647 235.901 326.749C235.16 326.948 234.683 326.649 234.468 325.851C234.399 325.593 234.329 325.077 234.258 324.302C234.194 323.525 234.151 322.812 234.128 322.162L233.418 321.525C233.959 320.993 234.499 320.654 235.04 320.509C235.581 320.363 235.917 320.535 236.049 321.024C236.135 321.346 236.149 321.694 236.091 322.069L236.201 322.091C236.573 320.728 237.258 319.912 238.256 319.644C238.616 319.547 238.924 319.561 239.178 319.685C239.439 319.809 239.618 320.05 239.715 320.411C239.767 320.604 239.792 320.825 239.79 321.074Z" fill="white"/>
<path d="M202.264 351.693L201.683 351.843C201.616 351.86 201.557 351.857 201.507 351.834C201.457 351.811 201.415 351.776 201.381 351.73L200.518 350.523L198.027 351.163L197.852 352.637C197.846 352.688 197.826 352.737 197.791 352.785C197.756 352.832 197.707 352.864 197.642 352.881L197.061 353.03L197.854 346.908L198.618 346.712L202.264 351.693ZM198.097 350.567L200.169 350.034L198.717 348C198.625 347.875 198.524 347.715 198.416 347.52C198.415 347.633 198.412 347.738 198.407 347.836C198.403 347.93 198.397 348.015 198.389 348.088L198.097 350.567ZM202.52 351.173C202.503 351.106 202.498 351.04 202.506 350.974C202.517 350.908 202.537 350.848 202.567 350.794C202.6 350.738 202.642 350.69 202.695 350.649C202.748 350.608 202.808 350.579 202.875 350.562C202.942 350.544 203.009 350.541 203.075 350.552C203.141 350.562 203.202 350.584 203.257 350.616C203.312 350.649 203.359 350.692 203.397 350.745C203.438 350.798 203.468 350.858 203.485 350.925C203.503 350.995 203.506 351.063 203.496 351.129C203.487 351.192 203.467 351.251 203.434 351.306C203.401 351.361 203.358 351.408 203.305 351.447C203.252 351.488 203.192 351.517 203.125 351.534C203.058 351.551 202.991 351.555 202.925 351.544C202.86 351.536 202.8 351.516 202.744 351.483C202.692 351.45 202.645 351.408 202.605 351.358C202.566 351.305 202.538 351.243 202.52 351.173ZM210.671 349.533L210.089 349.682C210.022 349.7 209.964 349.697 209.914 349.674C209.864 349.651 209.822 349.616 209.788 349.57L208.924 348.363L206.433 349.003L206.259 350.477C206.253 350.528 206.232 350.577 206.198 350.625C206.163 350.672 206.113 350.704 206.049 350.721L205.468 350.87L206.261 344.748L207.024 344.552L210.671 349.533ZM206.503 348.407L208.576 347.874L207.124 345.84C207.031 345.715 206.931 345.555 206.823 345.359C206.822 345.473 206.818 345.578 206.813 345.676C206.81 345.77 206.804 345.854 206.795 345.928L206.503 348.407ZM211.261 349.381L210.252 345.457L210.663 345.351C210.761 345.326 210.836 345.358 210.886 345.447L211.05 345.859C211.172 345.627 211.322 345.426 211.502 345.256C211.684 345.085 211.913 344.964 212.189 344.893C212.403 344.838 212.601 344.826 212.783 344.856C212.966 344.884 213.129 344.949 213.271 345.053C213.415 345.154 213.539 345.288 213.643 345.457C213.747 345.626 213.828 345.821 213.885 346.043L214.527 348.542L213.837 348.719L213.195 346.221C213.119 345.924 212.991 345.711 212.813 345.584C212.636 345.453 212.408 345.423 212.129 345.495C211.925 345.547 211.746 345.646 211.593 345.79C211.443 345.933 211.314 346.108 211.208 346.314L211.951 349.204L211.261 349.381ZM216.772 348.031C216.462 348.111 216.201 348.086 215.988 347.956C215.778 347.825 215.632 347.597 215.548 347.272L214.931 344.87L214.458 344.991C214.417 345.002 214.379 344.999 214.345 344.984C214.31 344.965 214.285 344.93 214.272 344.878L214.202 344.603L214.824 344.357L214.671 343.103C214.666 343.063 214.675 343.028 214.697 342.997C214.719 342.964 214.752 342.942 214.796 342.931L215.145 342.841L215.492 344.193L216.616 343.904L216.744 344.404L215.62 344.693L216.226 347.048C216.268 347.214 216.34 347.326 216.44 347.385C216.541 347.445 216.655 347.458 216.781 347.426C216.854 347.407 216.913 347.382 216.96 347.351C217.009 347.316 217.05 347.283 217.083 347.249C217.116 347.216 217.143 347.187 217.164 347.162C217.187 347.135 217.209 347.118 217.229 347.113C217.266 347.103 217.303 347.117 217.343 347.154L217.629 347.431C217.539 347.573 217.418 347.697 217.267 347.805C217.115 347.91 216.95 347.986 216.772 348.031ZM219.021 343.138C219.307 343.064 219.578 343.045 219.832 343.082C220.089 343.118 220.321 343.203 220.526 343.337C220.734 343.471 220.912 343.652 221.062 343.881C221.214 344.106 221.329 344.373 221.408 344.68C221.487 344.99 221.515 345.28 221.491 345.551C221.47 345.821 221.4 346.064 221.282 346.282C221.167 346.498 221.006 346.684 220.798 346.84C220.592 346.992 220.346 347.105 220.059 347.178C219.772 347.252 219.501 347.272 219.245 347.239C218.99 347.202 218.759 347.117 218.551 346.984C218.343 346.85 218.164 346.67 218.012 346.445C217.861 346.219 217.745 345.952 217.665 345.642C217.586 345.334 217.559 345.045 217.583 344.775C217.607 344.502 217.677 344.257 217.795 344.039C217.912 343.822 218.074 343.636 218.279 343.481C218.487 343.326 218.734 343.211 219.021 343.138ZM219.921 346.64C220.308 346.54 220.564 346.337 220.689 346.029C220.813 345.719 220.815 345.332 220.696 344.867C220.576 344.4 220.387 344.06 220.129 343.848C219.87 343.637 219.548 343.58 219.16 343.68C218.964 343.73 218.802 343.808 218.675 343.912C218.547 344.016 218.451 344.145 218.385 344.296C218.322 344.447 218.29 344.622 218.289 344.821C218.289 345.016 218.319 345.23 218.379 345.462C218.439 345.695 218.516 345.897 218.609 346.068C218.705 346.239 218.818 346.375 218.946 346.477C219.076 346.576 219.222 346.641 219.383 346.671C219.545 346.701 219.724 346.69 219.921 346.64ZM222.762 346.426L221.754 342.501L222.164 342.396C222.263 342.371 222.337 342.403 222.387 342.491L222.551 342.904C222.673 342.671 222.824 342.47 223.003 342.3C223.185 342.13 223.414 342.009 223.69 341.938C223.905 341.883 224.103 341.87 224.284 341.901C224.467 341.928 224.63 341.994 224.772 342.097C224.916 342.198 225.041 342.333 225.144 342.502C225.248 342.67 225.329 342.866 225.386 343.088L226.028 345.587L225.339 345.764L224.696 343.265C224.62 342.968 224.493 342.756 224.314 342.628C224.137 342.497 223.909 342.468 223.63 342.54C223.426 342.592 223.248 342.69 223.095 342.834C222.944 342.977 222.816 343.152 222.709 343.359L223.452 346.249L222.762 346.426ZM227.632 340.925C227.918 340.851 228.189 340.833 228.443 340.869C228.7 340.905 228.931 340.99 229.137 341.125C229.345 341.258 229.523 341.44 229.673 341.668C229.824 341.894 229.94 342.16 230.019 342.467C230.098 342.777 230.126 343.068 230.102 343.338C230.08 343.608 230.011 343.852 229.893 344.069C229.778 344.286 229.617 344.472 229.409 344.627C229.203 344.779 228.957 344.892 228.67 344.966C228.383 345.039 228.112 345.06 227.855 345.026C227.601 344.99 227.37 344.905 227.162 344.771C226.954 344.637 226.775 344.457 226.623 344.232C226.471 344.007 226.356 343.739 226.276 343.429C226.197 343.122 226.17 342.833 226.194 342.562C226.217 342.289 226.288 342.044 226.405 341.826C226.523 341.609 226.684 341.423 226.89 341.268C227.098 341.113 227.345 340.999 227.632 340.925ZM228.532 344.427C228.919 344.328 229.175 344.124 229.3 343.817C229.424 343.507 229.426 343.119 229.307 342.654C229.187 342.187 228.998 341.847 228.739 341.636C228.481 341.424 228.158 341.368 227.771 341.467C227.575 341.518 227.413 341.595 227.286 341.699C227.158 341.804 227.062 341.932 226.996 342.084C226.933 342.235 226.901 342.41 226.9 342.608C226.9 342.803 226.93 343.017 226.99 343.25C227.05 343.482 227.126 343.684 227.22 343.856C227.316 344.026 227.428 344.163 227.557 344.265C227.687 344.363 227.832 344.428 227.994 344.458C228.156 344.488 228.335 344.478 228.532 344.427ZM231.715 345.542L230.365 340.289L230.775 340.183C230.873 340.158 230.948 340.19 230.998 340.279L231.176 340.729C231.291 340.482 231.44 340.268 231.623 340.089C231.808 339.91 232.041 339.784 232.323 339.711C232.547 339.653 232.763 339.645 232.968 339.686C233.174 339.724 233.363 339.811 233.536 339.949C233.708 340.083 233.861 340.267 233.995 340.5C234.13 340.732 234.238 341.011 234.322 341.337C234.396 341.626 234.427 341.906 234.414 342.176C234.4 342.444 234.344 342.688 234.247 342.909C234.149 343.127 234.007 343.316 233.823 343.476C233.64 343.633 233.417 343.746 233.154 343.813C232.911 343.876 232.693 343.889 232.499 343.854C232.308 343.817 232.128 343.743 231.958 343.629L232.404 345.365L231.715 345.542ZM232.237 340.328C232.013 340.386 231.828 340.488 231.684 340.635C231.543 340.782 231.426 340.967 231.332 341.192L231.82 343.091C231.99 343.229 232.159 343.313 232.327 343.344C232.497 343.375 232.675 343.366 232.861 343.319C233.225 343.225 233.472 343.023 233.601 342.711C233.731 342.4 233.733 342.003 233.609 341.52C233.543 341.264 233.464 341.051 233.37 340.879C233.279 340.707 233.176 340.574 233.061 340.48C232.945 340.383 232.818 340.323 232.68 340.301C232.543 340.278 232.395 340.287 232.237 340.328ZM236.212 338.72C236.499 338.646 236.77 338.628 237.024 338.664C237.281 338.7 237.512 338.785 237.717 338.92C237.925 339.053 238.104 339.235 238.254 339.463C238.405 339.689 238.52 339.955 238.599 340.262C238.679 340.572 238.707 340.863 238.683 341.133C238.661 341.403 238.592 341.647 238.474 341.864C238.359 342.081 238.197 342.267 237.99 342.422C237.784 342.574 237.537 342.687 237.251 342.761C236.964 342.834 236.692 342.855 236.436 342.821C236.182 342.785 235.951 342.7 235.743 342.566C235.535 342.432 235.355 342.252 235.204 342.027C235.052 341.802 234.937 341.534 234.857 341.224C234.778 340.917 234.75 340.628 234.775 340.357C234.798 340.084 234.868 339.839 234.986 339.622C235.104 339.404 235.265 339.218 235.47 339.063C235.678 338.908 235.926 338.794 236.212 338.72ZM237.112 342.222C237.5 342.123 237.756 341.919 237.88 341.612C238.005 341.302 238.007 340.914 237.887 340.449C237.767 339.982 237.578 339.642 237.32 339.431C237.062 339.219 236.739 339.163 236.352 339.262C236.155 339.313 235.994 339.39 235.866 339.494C235.739 339.599 235.642 339.727 235.577 339.879C235.514 340.03 235.481 340.205 235.48 340.403C235.481 340.598 235.511 340.812 235.571 341.045C235.63 341.277 235.707 341.479 235.801 341.651C235.897 341.821 236.009 341.958 236.137 342.06C236.267 342.159 236.413 342.223 236.575 342.253C236.737 342.283 236.916 342.273 237.112 342.222ZM239.542 337.93L240.185 340.433C240.261 340.73 240.389 340.942 240.568 341.07C240.746 341.198 240.974 341.226 241.25 341.155C241.452 341.103 241.629 341.006 241.783 340.865C241.936 340.724 242.066 340.549 242.172 340.34L241.429 337.446L242.118 337.268L243.127 341.193L242.716 341.298C242.618 341.324 242.544 341.292 242.493 341.203L242.33 340.795C242.208 341.027 242.056 341.228 241.875 341.399C241.692 341.567 241.464 341.686 241.19 341.757C240.976 341.812 240.777 341.826 240.594 341.798C240.412 341.768 240.25 341.702 240.105 341.602C239.961 341.501 239.837 341.366 239.733 341.198C239.632 341.028 239.552 340.832 239.495 340.61L238.852 338.108L239.542 337.93ZM243.56 334.998L245.026 340.705L244.337 340.882L242.87 335.175L243.56 334.998ZM246.806 335.998C247.092 335.924 247.363 335.906 247.617 335.942C247.874 335.978 248.105 336.063 248.311 336.198C248.519 336.331 248.697 336.513 248.847 336.741C248.998 336.967 249.114 337.233 249.193 337.54C249.272 337.85 249.3 338.14 249.276 338.411C249.254 338.681 249.185 338.924 249.067 339.142C248.952 339.359 248.791 339.545 248.583 339.7C248.377 339.852 248.131 339.965 247.844 340.039C247.557 340.112 247.286 340.132 247.029 340.099C246.775 340.063 246.544 339.978 246.336 339.844C246.128 339.71 245.948 339.53 245.797 339.305C245.645 339.08 245.53 338.812 245.45 338.502C245.371 338.195 245.344 337.906 245.368 337.635C245.391 337.362 245.462 337.117 245.579 336.899C245.697 336.682 245.858 336.496 246.064 336.341C246.272 336.186 246.519 336.071 246.806 335.998ZM247.706 339.5C248.093 339.4 248.349 339.197 248.474 338.89C248.598 338.58 248.6 338.192 248.481 337.727C248.361 337.26 248.171 336.92 247.913 336.708C247.655 336.497 247.332 336.441 246.945 336.54C246.749 336.591 246.587 336.668 246.459 336.772C246.332 336.877 246.236 337.005 246.17 337.156C246.107 337.308 246.075 337.482 246.073 337.681C246.074 337.876 246.104 338.09 246.164 338.323C246.224 338.555 246.3 338.757 246.394 338.928C246.49 339.099 246.602 339.236 246.73 339.338C246.86 339.436 247.006 339.501 247.168 339.531C247.33 339.561 247.509 339.55 247.706 339.5ZM251.952 335.431C251.935 335.496 251.895 335.537 251.83 335.553C251.792 335.563 251.744 335.56 251.688 335.544C251.631 335.529 251.563 335.513 251.482 335.498C251.403 335.48 251.31 335.469 251.205 335.466C251.099 335.46 250.979 335.475 250.844 335.509C250.728 335.539 250.628 335.581 250.543 335.636C250.457 335.689 250.387 335.749 250.333 335.818C250.282 335.886 250.247 335.96 250.229 336.039C250.213 336.115 250.215 336.193 250.235 336.273C250.261 336.374 250.311 336.45 250.385 336.503C250.462 336.555 250.554 336.593 250.662 336.617C250.771 336.642 250.89 336.658 251.022 336.665C251.152 336.67 251.287 336.679 251.425 336.69C251.564 336.698 251.702 336.712 251.836 336.733C251.971 336.753 252.096 336.79 252.211 336.843C252.327 336.896 252.428 336.972 252.514 337.071C252.602 337.167 252.666 337.293 252.706 337.451C252.753 337.632 252.764 337.808 252.739 337.979C252.713 338.148 252.652 338.306 252.555 338.452C252.457 338.596 252.324 338.723 252.157 338.835C251.991 338.947 251.787 339.033 251.547 339.095C251.273 339.166 251.014 339.185 250.769 339.155C250.524 339.121 250.306 339.055 250.115 338.955L250.21 338.65C250.222 338.611 250.24 338.579 250.264 338.554C250.288 338.528 250.323 338.509 250.369 338.498C250.416 338.486 250.469 338.491 250.53 338.514C250.591 338.537 250.664 338.561 250.747 338.586C250.833 338.611 250.933 338.628 251.045 338.638C251.161 338.647 251.297 338.631 251.454 338.59C251.589 338.556 251.702 338.509 251.794 338.449C251.885 338.387 251.957 338.318 252.009 338.241C252.061 338.165 252.092 338.084 252.103 337.998C252.117 337.912 252.113 337.825 252.09 337.737C252.062 337.629 252.01 337.547 251.932 337.493C251.857 337.435 251.765 337.394 251.657 337.37C251.548 337.342 251.427 337.327 251.294 337.322C251.162 337.315 251.027 337.307 250.887 337.299C250.75 337.29 250.613 337.276 250.476 337.256C250.34 337.233 250.214 337.194 250.098 337.138C249.982 337.083 249.88 337.004 249.79 336.903C249.703 336.799 249.638 336.663 249.595 336.495C249.556 336.346 249.55 336.194 249.577 336.041C249.603 335.886 249.662 335.741 249.755 335.608C249.846 335.471 249.971 335.35 250.128 335.243C250.285 335.137 250.474 335.055 250.697 334.998C250.955 334.932 251.197 334.914 251.422 334.944C251.649 334.971 251.856 335.036 252.042 335.14L251.952 335.431Z" fill="white"/>
</svg>
