<svg width="555" height="456" viewBox="0 0 555 456" fill="none" xmlns="http://www.w3.org/2000/svg">
<path d="M500.696 400.057C514.754 408.558 514.831 413.392 497.673 406.147C488.838 402.424 476.336 395.645 466.034 390.588C438.952 377.464 453.021 392.333 461.5 398.99C484.993 417.46 526.433 435.663 544.848 444.786C563.262 453.91 552.115 458.878 538.847 453.755C307.529 364.428 324.221 229.239 70.4893 138.368C370.685 133.956 388.866 332.434 500.696 400.057Z" fill="white"/>
<path opacity="0.2" d="M239.14 20.192C317.354 40.4843 372.796 73.3899 392.866 130.488M295.161 17.6582C283.531 11.342 271.349 6.10087 258.766 2M339.546 45.0295C334.312 41.4845 328.967 37.9283 323.521 34.4277M200.267 11.446C209.846 13.313 219.155 15.3208 228.194 17.4693L200.267 11.446ZM312.108 27.2932C310.519 26.3375 308.919 25.3817 307.319 24.4482L312.108 27.2932Z" stroke="#00D6FF" stroke-width="3" stroke-linecap="round" stroke-linejoin="round"/>
<path opacity="0.2" d="M92.4372 250.798C92.4372 273.479 33.0049 280.481 33.0049 256.932C33.0049 245.175 49.6744 234.284 61.2541 234.284C73.045 234.284 92.4372 240.196 92.4372 250.798Z" fill="#00D6FF"/>
<path d="M72.6006 225.76C97.6826 225.76 105.817 263.989 65.7772 263.989C29.2599 264.045 46.7518 225.76 72.6006 225.76Z" fill="url(#paint0_radial)"/>
<path d="M169.429 319.754C160.872 296.606 149 270 137.034 254.765" stroke="#00D6FF" stroke-width="3" stroke-linecap="round" stroke-linejoin="round"/>
<path d="M134.934 288.826C133.982 285.343 132.779 281.933 131.333 278.625" stroke="#00D6FF" stroke-width="3" stroke-linecap="round" stroke-linejoin="round"/>
<path d="M266 355L250 356.5C229 358.5 207.5 342 189.5 309.5C171.5 277 136 218 91 176C129.5 204 140.725 211 218.5 302.5C232.1 318.5 255.833 344.167 266 355Z" fill="#00D6FF"/>
<path d="M76.0903 162.983C78.8315 165.005 81.5505 167.102 84.2473 169.273" stroke="#00D6FF" stroke-width="3" stroke-linecap="round" stroke-linejoin="round"/>
<path d="M124.21 188.587C82.1914 151.025 33.1608 140.157 2.04443 133.756" stroke="#00D6FF" stroke-width="3" stroke-linecap="round" stroke-linejoin="round"/>
<path d="M136 199.867C134.3 198.122 132.578 196.411 130.822 194.71" stroke="#00D6FF" stroke-width="3" stroke-linecap="round" stroke-linejoin="round"/>
<path opacity="0.4" d="M72.6675 138.268C139.623 164.65 146.758 204.946 163.794 204.112C168.084 203.901 177.23 192.866 155.148 177.83C131.878 162.016 109.385 150.114 72.6675 138.268Z" fill="#00D6FF"/>
<path d="M389 347.5C371.5 348.5 355.124 349.89 345 341C273.01 276.899 140.238 160.769 74.7179 138.866C73.8017 138.565 72.8956 138.276 72 138C72.8925 138.27 73.7986 138.559 74.7179 138.866C156.052 165.581 317.637 288.663 389 347.5Z" fill="#00D6FF"/>
<path opacity="0.2" d="M370.318 345.38C347.625 344.48 330.311 327.3 309.252 327.3C294.083 327.3 279.592 335.445 264.8 335.445C199.4 335.445 197.4 287.971 164.728 259.188C123.61 198.667 73.9344 149.547 2 133.678V128.032C36.6948 123.343 127.844 149.38 167.973 185.12C168.095 185.242 370.207 345.314 370.318 345.38Z" fill="#00D6FF"/>
<path d="M268.19 320.854C268.19 320.854 264.767 347.259 250.098 354.893C287.882 353.515 289.871 350.448 300.84 319.721C289.738 320.721 268.19 320.854 268.19 320.854Z" fill="#C1DDEC"/>
<path d="M159.772 241.029L159.094 247.475C159.094 247.475 217.448 333.389 224.049 341.346C230.65 349.303 245.742 365.239 259.3 346.903C263.367 340.635 267.701 326.966 268.19 320.81C266.601 314.742 252.787 305.963 252.787 305.963C254.099 385.865 213.014 313.453 159.772 241.029Z" fill="#6DB3D7"/>
<path d="M159.349 239.485C159.349 239.485 223.56 328.611 231.083 335.434C238.607 342.258 247.075 345.081 250.131 333.312C251.742 322.599 262.611 338.224 173.529 239.485H159.349Z" fill="#A1C5D8"/>
<path d="M175.607 232.495V253.665C175.607 257.432 184.364 258.21 184.364 253.331C184.364 238.262 186.354 243.374 175.607 232.495Z" fill="#6DB3D7"/>
<path d="M251.932 245.274C251.932 245.274 357.872 334.056 362.239 336.09C366.607 338.124 373.841 337.99 376.119 323.732C365.851 316.32 273.88 245.274 273.88 245.274H251.932Z" fill="#A1C5D8"/>
<path d="M377.453 313.275C377.453 313.275 376.697 329.055 373.463 332.667C370.23 336.279 365.851 338.757 358.816 333.056C235.662 233.195 252.332 240.629 251.187 254.154C251.187 254.154 349.882 337.568 355.972 341.569C362.061 345.569 377.642 355.071 385.443 338.901C393.245 322.732 394.189 310.952 394.189 310.952L377.453 313.275Z" fill="#6DB3D7"/>
<path d="M393.389 315.253C391.055 328.444 384.076 347.081 370.874 347.592C414.704 344.803 409.481 343.702 420.816 314.253L393.389 315.253Z" fill="#C1DDEC"/>
<path d="M246.33 355.338C287.66 353.438 290.249 351.493 301.784 316.442M184.764 252.287L251.442 327.055M377.964 300.195C377.086 320.732 376.175 347.648 358.205 332.645L249.62 243.374M393.389 313.475C390.933 337.39 376.875 359.394 355.482 340.78L250.409 252.698M370.963 347.692C410.158 344.903 409.269 347.337 421.138 314.875M375.764 323.699L272.279 243.208M268.89 316.576C266.034 344.269 248.664 376.453 221.026 336.735C193.388 297.017 159.282 247.709 159.282 247.709C159.16 235.54 146.869 223.482 220.926 323.577C250.665 363.762 252.432 327.789 253.487 303.307L268.89 316.576ZM175.663 232.284V253.665C175.663 258.11 184.387 258.11 184.387 253.665V242.041L175.663 232.284ZM175.496 241.985C172.329 238.44 175.418 239.296 159.182 239.507L175.496 241.985Z" stroke="#163050" stroke-width="3" stroke-linecap="round" stroke-linejoin="round"/>
<path d="M311.03 319.787C344.991 318.409 342.146 319.687 346.803 313.975C349.648 316.198 352.481 318.098 357.349 317.909C378.464 317.053 385.198 318.553 386.176 311.241C385.776 311.819 391.799 316.486 398.856 316.198L423.883 315.164C432.162 314.786 435.762 298.95 426.238 293.672C233.884 186.987 244.852 191.543 234.106 191.432H156.315C147.813 191.432 147.736 202.345 152.247 207.057L256.776 316.52C263.322 323.188 268.501 321.498 298.85 320.154C299.772 320.116 300.669 319.845 301.458 319.367C302.246 318.889 302.902 318.219 303.362 317.42C304.796 319.343 308.707 319.887 311.03 319.787Z" fill="#BE7E52"/>
<path d="M154.837 210.336C277.747 336.279 268.512 339.446 269.979 299.751C264.75 299.707 259.709 297.796 255.766 294.361C234.351 275.091 150.97 194.055 151.07 194.166C149.281 197.911 145.947 201.278 154.837 210.336Z" fill="#995643"/>
<path d="M302.874 296.117C307.574 299.095 315.398 298.784 315.398 298.784L314.464 319.776C314.464 319.776 306.474 320.71 303.351 318.209C304.863 310.997 305.218 297.217 302.874 296.117Z" fill="#995643"/>
<path d="M395.666 297.439C400.112 298.85 396.4 295.027 396.4 316.164C392.321 316.164 386.065 311.775 386.065 311.775C386.554 306.518 388.21 293.271 382.253 292.305C381.142 292.127 373.974 287.415 333.522 261.666C350.581 272.301 400.012 297.228 408.657 296.594C396.122 297.472 396.6 297.072 395.666 297.439Z" fill="#995643"/>
<path d="M329.855 297.094C308.807 296.772 314.92 297.217 206.757 217.659C310.186 302.351 302.117 302.273 329.855 297.094Z" fill="#995643"/>
<path d="M372.463 296.017C356.561 302.251 360.35 289.549 359.128 317.132C359.128 317.132 351.138 318.065 348.015 315.565C349.271 309.797 349.715 299.906 348.648 295.561C342.625 292.85 342.892 291.961 265.301 235.062C351.271 292.472 351.149 295.706 372.463 296.017Z" fill="#995643"/>
<path d="M368.784 262.411C342.602 269.679 340.38 251.387 323.11 251.387C314.108 251.387 304.929 254.065 295.739 254.065C283.325 254.065 265.733 248.142 265.378 248.142C259.388 248.142 255.376 264.523 242.73 264.523C225.905 264.523 212.013 248.075 204.812 248.075C201.845 248.075 199.933 250.554 196.399 250.554C189.676 250.554 179.363 240.807 179.363 231.884C179.363 178.541 308.352 221.738 348.492 250.476C354.971 255.154 361.972 258.399 368.784 262.411Z" fill="#995643"/>
<path d="M271.713 299.317C257.566 299.551 270.513 308.374 158.06 201.267M385.988 311.564C389.611 314.064 392.856 316.465 398.879 316.22C421.938 315.276 429.995 317.042 430.984 308.641C431.118 307.53 434.596 298.328 426.261 293.705C233.906 187.02 244.875 191.577 234.129 191.466H156.338C148.559 191.466 147.103 201.678 152.27 207.09C264.123 324.233 258.822 321.932 269.246 321.454C298.284 320.132 303.552 321.754 304.085 315.209C304.985 304.274 306.863 298.839 300.651 294.094M346.87 313.964C349.715 316.187 352.549 318.087 357.416 317.898C378.531 317.043 385.265 318.543 386.243 311.23C387.544 301.607 388.755 295.75 383.421 292.449L289.305 234.417M263.623 234.595L285.471 250.153M265.467 265.545C312.675 303.785 300.607 298.884 331.323 298.339M339.224 298.206L335.89 298.262M303.44 317.998C305.771 319.266 308.402 319.877 311.053 319.765C336.535 318.732 347.292 320.876 347.659 310.508C348.181 295.15 349.793 296.061 337.057 286.871M294.117 298.928L277.936 299.195M391.933 296.361C397.112 297.817 399.557 297.284 416.237 296.472M354.694 297.617C357.439 298.173 356.916 298.017 379.631 297.384L354.694 297.617Z" stroke="#163050" stroke-width="3" stroke-linecap="round" stroke-linejoin="round"/>
<path d="M166.361 90.5375C166.361 90.5375 165.894 122.365 159.627 127.544C148.113 127.988 121.331 122.498 112.808 114.997C107.862 105.34 108.251 92.1933 111.141 81.6582C106.747 76.8477 102.664 71.7625 98.9163 66.4334C79.2129 37.973 82.3468 33.1611 110.029 16.7138C128.588 5.62306 110.674 35.1169 166.361 90.5375Z" fill="#A682FF"/>
<path d="M155.859 127.499C142.813 126.888 120.42 121.687 112.807 114.997C110.759 110.762 109.534 106.176 109.196 101.484C121.631 106.918 130.533 117.186 138.09 115.186C139.434 114.83 140.19 113.775 139.812 111.597C138.701 105.14 109.307 91.9265 109.307 91.9265C108.918 89.6483 112.107 85.2587 111.529 81.6025C106.184 75.2792 92.8263 60.4878 85.9696 40.7067C85.714 38.6619 86.5363 36.806 87.7254 34.7168C105.173 79.9022 152.614 82.6249 154.97 96.1272C155.637 99.9167 155.581 103.973 156.248 107.796C157.548 115.286 164.538 121.098 155.859 127.499Z" fill="#7566F9"/>
<path d="M111.73 82.347C107.685 91.2374 106.951 114.386 117.509 118.487C128.488 122.754 155.371 131.378 181.22 125.632M180.264 113.663C113.386 110.33 87.8703 48.4524 85.9367 40.7622C84.003 33.072 104.195 18.3028 114.475 14.6133C115.075 14.4032 115.711 14.3186 116.345 14.3648C116.978 14.411 117.596 14.5871 118.159 14.882C118.721 15.177 119.218 15.5845 119.616 16.0793C120.015 16.5741 120.307 17.1456 120.476 17.7583C124.577 30.3382 143.091 80.5912 184.076 104.095L180.264 113.663Z" stroke="#163050" stroke-width="3" stroke-linecap="round" stroke-linejoin="round"/>
<path opacity="0.3" d="M125.376 58.2875C122.042 54.8425 119.498 50.4195 116.386 46.6299C113.274 42.8404 106.318 37.884 106.384 32.0608C106.384 28.7269 108.84 23.6371 111.441 24.5817C115.797 26.1487 126.076 49.5193 129.221 54.8425C130.788 57.5429 128.688 61.6881 125.376 58.2875Z" fill="white"/>
<path d="M376.285 164.739C376.285 164.739 372.251 176.152 359.127 183.986C365.045 196.676 367.99 210.549 367.74 224.549C401.912 209.591 392.755 186.542 376.285 164.739Z" fill="#00A2FF"/>
<path d="M374.296 220.971C377.71 218.986 380.838 216.549 383.598 213.725M376.285 164.739C376.285 164.739 372.251 176.152 359.127 183.986L376.285 164.739Z" stroke="#163050" stroke-width="3" stroke-linecap="round" stroke-linejoin="round"/>
<path d="M349.592 97.1274C332.701 68.7781 223.482 59.0987 184.298 59.6099C139.034 60.1989 158.738 86.759 168.506 236.618C168.506 236.618 228.127 228.961 320.51 244.397C347.992 248.987 365.206 253.287 366.073 229.116C367.94 180.564 367.284 126.832 349.592 97.1274Z" fill="#00D6FF"/>
<path opacity="0.6" d="M184.297 59.5654C175.318 86.9256 199.289 234.829 199.289 234.829L167.906 238.829C163.727 169.051 157.904 118.864 155.192 96.4939C152.481 74.1235 156.759 60.1766 184.297 59.5654Z" fill="#00A2FF"/>
<path d="M349.592 97.1274C332.701 68.7781 223.482 59.0987 184.298 59.6099C139.034 60.1989 158.738 86.759 168.506 236.618C168.506 236.618 228.127 228.961 320.51 244.397C347.992 248.987 365.206 253.287 366.073 229.116C367.94 180.564 367.284 126.832 349.592 97.1274Z" stroke="#163050" stroke-width="3" stroke-linecap="round" stroke-linejoin="round"/>
<path opacity="0.6" d="M339.212 117.575C340.39 100.805 314.764 96.2269 305.051 91.1594C297.894 87.4365 302.051 83.8248 305.362 84.2804C332.033 87.9588 353.004 103.173 349.814 130.344C348.481 141.612 337.39 139.556 337.912 129.344C338.068 125.943 338.923 121.798 339.212 117.575ZM287.948 77.6237C282.036 77.946 282.525 86.5808 288.648 86.2696C293.96 86.0029 294.316 77.3459 287.948 77.6237Z" fill="white"/>
<path d="M179.341 221.07C194.666 227.394 200.078 235.917 197.577 239.596C190.443 250.086 178.474 238.485 196.533 253.287C191.921 261.5 163.405 268.845 156.859 233.461C155.948 228.405 166.672 217.059 179.341 221.07Z" fill="#A682FF"/>
<path d="M181.508 244.185C177.363 249.742 169.351 252.42 159.004 241.774C161.616 261.511 194.566 264.089 195.166 254.421C195.199 253.309 190.61 244.986 181.508 244.185Z" fill="#7566F9"/>
<path d="M156.448 230.361C159.427 272.824 202.856 258.566 194.844 251.82L188.443 244.93" stroke="#163050" stroke-width="3" stroke-linecap="round" stroke-linejoin="round"/>
<path d="M181.73 244.508C198.456 246.586 210.246 234.261 176.93 220.059" stroke="#163050" stroke-width="3" stroke-linecap="round" stroke-linejoin="round"/>
<path d="M157.801 225.757C151.8 240.415 181.471 242.726 182.249 227.624C182.894 216.833 163.068 216.122 157.801 225.757Z" fill="#7566F9"/>
<path d="M161.782 171.006C152.514 194.51 161.849 219.904 179.107 233.55C177.229 236.173 173.829 237.662 168.428 237.64C142.49 214.558 140.868 179.908 151.125 162.472C157.059 155.982 167.772 164.505 161.782 171.006Z" fill="white"/>
<path d="M168.428 237.64C142.49 214.558 140.868 179.908 151.125 162.472M161.782 171.006C152.514 194.51 161.849 219.904 179.107 233.55" stroke="#163050" stroke-width="3" stroke-linecap="round" stroke-linejoin="round"/>
<path opacity="0.2" d="M150.603 193.232C151.07 207.146 162.549 232.728 174.529 229.516L178.419 233.873C174.14 237.495 172.362 237.84 167.161 237.029C131.5 198.4 149.803 169.35 150.603 193.232Z" fill="#163050"/>
<path d="M157.193 225.549C151.192 240.207 180.864 242.518 181.642 227.416C182.053 219.815 172.907 217.892 166.484 219.192" stroke="#163050" stroke-width="3" stroke-linecap="round" stroke-linejoin="round"/>
<path d="M298.94 167.961C304.385 160.582 304.13 151.359 299.629 149.069C294.072 146.236 289.838 151.359 278.114 151.348C264.779 151.348 255.888 146.725 252.721 155.082C247.076 170.206 282.826 189.821 298.94 167.961Z" fill="#163050"/>
<path d="M257.366 169.24C270.457 181.909 290.55 179.364 298.94 167.962C298.195 167.073 290.05 151.903 279.259 162.472C279.203 162.45 266.39 152.415 257.366 169.24Z" fill="#FFA5C3"/>
<path d="M266.69 160.882C264.312 176.352 294.695 175.274 282.248 163.794C290.861 167.717 295.584 163.794 295.45 163.794C297.073 163.738 299.684 166.328 299.773 167.483C294.584 177.418 267.935 181.93 258.555 168.984C257.977 163.905 265.845 161.282 266.69 160.882Z" fill="#FA6D9C"/>
<path d="M299.629 149.036C294.072 146.202 289.838 151.325 278.114 151.314C264.778 151.314 255.888 146.702 252.721 155.048C249.387 163.805 263.356 179.619 281.548 177.474C303.018 174.941 307.008 152.837 299.629 149.036Z" stroke="#163050" stroke-width="3" stroke-linecap="round" stroke-linejoin="round"/>
<path d="M298.573 167.561C297.984 166.761 290.249 152.392 279.258 162.472C278.481 162.005 266.734 152.47 257.144 168.539M278.881 162.205C281.178 163.674 283.242 165.48 285.004 167.561" stroke="#163050" stroke-width="3" stroke-linecap="round" stroke-linejoin="round"/>
<path d="M262 124.587C260.967 110.974 245.186 110.141 245.909 123.676C246.653 137.69 263.067 138.523 262 124.587Z" fill="#163050"/>
<path d="M249.62 125.71C249.554 125.599 249.513 125.475 249.498 125.347C249.483 125.219 249.495 125.089 249.533 124.965C249.572 124.842 249.636 124.728 249.721 124.631C249.806 124.534 249.911 124.456 250.028 124.402C250.146 124.348 250.273 124.319 250.402 124.318C250.531 124.316 250.659 124.342 250.778 124.393C250.897 124.444 251.003 124.519 251.091 124.614C251.179 124.709 251.246 124.821 251.287 124.943C251.832 126.344 250.165 127.133 249.62 125.71ZM250.009 122.576C247.431 122.732 250.265 114.597 255.699 117.898C256.81 118.553 255.888 120.343 254.821 119.698C250.887 117.353 251.52 122.498 250.009 122.576Z" fill="white"/>
<path d="M299.584 127.521C298.106 114.963 283.482 114.374 283.937 126.954C284.437 140.935 301.229 141.446 299.584 127.521Z" fill="#163050"/>
<path d="M288.016 126.465C285.16 126.61 289.35 118.686 290.672 121.687C291.35 123.232 289.228 122.565 288.95 125.51C288.932 125.754 288.829 125.984 288.658 126.159C288.487 126.334 288.26 126.442 288.016 126.465ZM293.184 122.543C291.672 124.821 291.828 120.431 293.706 121.642C295.584 122.854 291.784 124.932 293.184 122.543Z" fill="white"/>
<path d="M237.585 104.984C238.441 94.4714 248.809 91.7488 254.61 99.339" stroke="#163050" stroke-width="3" stroke-linecap="round" stroke-linejoin="round"/>
<path d="M283.426 104.94C289.427 98.1275 297.339 105.151 298.406 110.43" stroke="#163050" stroke-width="3" stroke-linecap="round" stroke-linejoin="round"/>
<path d="M359.317 121.142C378.675 121.231 375.83 179.019 371.785 197.589C377.253 219.148 348.448 226.56 299.062 223.482C217.17 228.405 186.309 209.813 186.309 209.813C153.759 217.236 159.694 186.476 159.783 186.342C159.127 184.331 158.305 181.897 158.671 175.929C141.124 164.505 148.058 150.492 148.058 150.492C145.08 143.635 139.613 131.9 150.281 124.576C149.17 117.664 152.726 112.141 156.549 110.674C159.338 128.855 186.443 153.637 232.017 168.539C303.207 182.219 365.551 167.428 364.128 145.591L359.317 121.142Z" fill="#A682FF"/>
<path d="M148.647 149.803C172.596 183.208 203.434 186.476 246.286 190.054C290.605 193.799 350.593 181.941 362.45 153.837C344.958 219.692 119.387 197.911 148.647 149.803Z" fill="#7566F9"/>
<path d="M168.039 153.603C158.038 147.436 149.147 132.689 146.091 144.191C140.779 138.256 143.069 128.355 149.947 124.799C150.059 120.653 150.77 115.019 154.293 112.674C149.692 126.754 158.86 141.69 168.039 153.603Z" fill="#7566F9"/>
<path d="M216.959 164.027C241.53 175.296 279.003 186.253 279.003 186.253C267.156 182.675 259.844 177.274 260.311 173.084C246.342 170.795 225.705 168.473 216.959 164.027Z" fill="#7566F9"/>
<path d="M160.883 188.042C164.461 198.2 184.92 209.046 186.276 210.124C171.507 216.581 154.293 204.768 160.883 188.042Z" fill="#7566F9"/>
<path d="M176.863 184.609C178.675 195.811 194.844 204.034 199.511 205.146C202.345 194.222 210.624 189.265 224.982 193.944C233.662 196.778 229.05 216.581 253.876 218.392C279.103 220.215 320.632 219.504 348.226 207.557C349.337 198.834 361.461 193.288 368.951 194.111C376.441 194.933 361.739 209.291 349.87 213.825C288.193 237.373 152.837 223.027 158.727 175.93C168.54 180.453 176.863 184.609 176.863 184.609Z" fill="#7566F9"/>
<path d="M155.849 141.212C159.088 146.49 163.287 151.115 168.229 154.848" stroke="#163050" stroke-width="3" stroke-linecap="round" stroke-linejoin="round"/>
<path d="M153.804 137.356C147.302 123.587 150.747 110.952 157.282 111.974C158.393 125.799 180.252 158.404 279.525 186.076" stroke="#163050" stroke-width="3" stroke-linecap="round" stroke-linejoin="round"/>
<path d="M215.27 163.127C246.697 175.352 317.654 178.686 349.103 163.239C368.818 153.581 365.084 143.38 359.35 121.143C374.975 123.521 378.686 177.119 372.863 194.855C357.727 240.896 152.581 233.862 158.827 175.685" stroke="#163050" stroke-width="3" stroke-linecap="round" stroke-linejoin="round"/>
<path d="M203.29 185.009L204.512 185.353" stroke="#163050" stroke-width="3" stroke-linecap="round" stroke-linejoin="round"/>
<path d="M174.841 173.64C182.201 177.572 189.904 180.823 197.856 183.353" stroke="#163050" stroke-width="3" stroke-linecap="round" stroke-linejoin="round"/>
<path d="M149.825 124.91C138.79 132.211 142.202 153.737 170.04 170.851" stroke="#163050" stroke-width="3" stroke-linecap="round" stroke-linejoin="round"/>
<path d="M317.521 187.242C348.959 178.185 369.963 161.094 362.717 134.656" stroke="#163050" stroke-width="3" stroke-linecap="round" stroke-linejoin="round"/>
<path d="M147.781 150.447C136.434 187.276 242.975 205.79 311.62 188.832" stroke="#163050" stroke-width="3" stroke-linecap="round" stroke-linejoin="round"/>
<path d="M297.75 224.138C346.925 226.594 378.197 220.304 371.818 197.589" stroke="#163050" stroke-width="3" stroke-linecap="round" stroke-linejoin="round"/>
<path d="M159.649 187.365C157.927 200.122 161.972 215.603 186.32 210.135" stroke="#163050" stroke-width="3" stroke-linecap="round" stroke-linejoin="round"/>
<path opacity="0.2" d="M366.895 185.776C366.84 169.751 362.961 174.874 359.016 174.963C356.671 175.03 356.049 172.174 358.483 169.662C362.661 165.328 364.362 158.671 366.984 158.66C372.107 158.66 369.985 174.852 370.007 181.142C370.029 189.41 366.906 190.299 366.895 185.776Z" fill="white"/>
<path d="M246.663 247.964C246.663 247.964 256.665 240.574 258.977 236.673L240.507 234.795C242.029 239.413 244.096 243.834 246.663 247.964Z" fill="#FFC858"/>
<path d="M246.663 247.964C246.663 247.964 256.665 240.574 258.977 236.673L240.507 234.795C242.029 239.413 244.096 243.834 246.663 247.964V247.964Z" stroke="#163050" stroke-width="3" stroke-linecap="round" stroke-linejoin="round"/>
<path d="M230.939 249.597C220.626 239.962 210.291 230.794 209.213 207.479C208.135 184.164 235.284 181.464 238.107 201.678C240.796 221.104 243.141 224.293 249.153 235.45C256.154 248.486 242.285 260.244 230.939 249.597Z" fill="white"/>
<path d="M230.939 249.597C220.626 239.962 210.291 230.794 209.213 207.479C208.135 184.164 235.284 181.464 238.107 201.678C240.796 221.104 243.141 224.293 249.153 235.45C256.154 248.486 242.285 260.244 230.939 249.597Z" stroke="#163050" stroke-width="3" stroke-linecap="round" stroke-linejoin="round"/>
<path opacity="0.2" d="M225.293 188.354C236.406 189.798 229.816 201.411 233.684 216.136C239.662 238.873 255.132 243.474 246.008 251.631C237.529 259.21 226.005 244.774 222.848 241.507C202.067 220.215 206.368 187.042 225.293 188.354Z" fill="#163050"/>
<path d="M351.904 248.597C330.311 243.874 293.838 252.354 272.201 238.362C286.248 239.229 286.993 239.607 292.927 238.218C303.551 235.751 330.711 230.328 355.526 231.55C367.428 234.939 363.417 251.12 351.904 248.597Z" fill="#FFC858"/>
<path d="M351.959 245.352C359.06 219.793 354.748 230.294 355.837 210.213C356.893 190.821 380.953 185.642 382.353 211.013C385.509 268.312 345.313 269.234 351.959 245.352Z" fill="white"/>
<path d="M351.904 248.597C330.322 243.841 293.838 252.354 272.201 238.362C282.136 239.874 288.304 240.418 292.205 238.851C293.027 239.262 300.806 242.463 353.582 240.929C351.815 243.441 351.848 247.375 351.904 248.597Z" fill="#FFAC40"/>
<path d="M351.015 248.375C318.365 244.619 299.439 252.053 272.201 238.373C275.843 238.419 279.478 238.709 283.081 239.24C293.749 240.696 320.298 229.827 355.526 231.55" stroke="#163050" stroke-width="3" stroke-linecap="round" stroke-linejoin="round"/>
<path d="M382.353 211.013C381.097 188.143 357.037 188.076 355.837 210.213C354.626 232.773 359.315 218.948 351.959 245.353C345.191 269.601 385.453 267.79 382.353 211.013Z" stroke="#163050" stroke-width="3" stroke-linecap="round" stroke-linejoin="round"/>
<path opacity="0.2" d="M372.729 252.998C362.238 265.278 347.669 260.777 351.959 245.353C359.06 219.793 354.748 230.294 355.837 210.213C356.726 193.955 368.984 193.221 372.573 194.655C357.793 198.089 365.05 213.225 360.349 233.939C355.715 254.376 361.127 259.599 372.729 252.998Z" fill="#163050"/>
<path d="M382.054 215.347C399.346 199.189 389.966 180.053 364.128 147.558C336.735 113.108 359.039 80.1578 378.72 106.796C392.611 125.588 399.234 141.246 400.301 160.138C401.335 178.586 402.146 195.444 385.788 211.736C378.942 218.481 382.054 215.347 382.054 215.347Z" fill="#00D6FF"/>
<path d="M398.623 145.013C401.135 167.65 390.077 182.708 388.088 184.009C389.705 191.602 390.125 199.401 389.333 207.124C399.323 197.633 404.224 177.041 398.623 145.013Z" fill="#00A2FF"/>
<path d="M382.054 215.347C399.346 199.189 389.966 180.053 364.128 147.558C336.735 113.108 359.039 80.1578 378.72 106.796C392.611 125.588 399.234 141.246 400.301 160.138C401.335 178.586 402.146 195.444 385.788 211.736" stroke="#163050" stroke-width="3" stroke-linecap="round" stroke-linejoin="round"/>
<path d="M376.886 113.53C392.444 142.19 370.518 156.982 361.539 135.756C352.559 114.53 366.673 94.7268 376.886 113.53Z" fill="#00A2FF"/>
<path d="M376.13 115.297C386.021 133.833 372.23 149.436 362.395 130.966C352.56 112.496 366.307 96.9159 376.13 115.297Z" fill="#FFC858"/>
<path d="M360.428 117.142C364.117 137.678 380.82 134.133 376.608 119.275C379.775 127.955 379.231 139.001 371.241 137.901C363.25 136.8 359.461 122.231 360.428 117.142Z" fill="#FFAC40"/>
<path d="M376.13 115.297C386.021 133.833 372.23 149.436 362.395 130.966C352.56 112.496 366.307 96.9159 376.13 115.297Z" stroke="#163050" stroke-width="3" stroke-linecap="round" stroke-linejoin="round"/>
<path fill-rule="evenodd" clip-rule="evenodd" d="M367.069 111.156C368.625 111.274 370.143 112.495 371.4 114.132C371.736 114.57 371.654 115.198 371.216 115.535C370.777 115.871 370.15 115.788 369.813 115.35C368.648 113.831 367.592 113.202 366.918 113.15C366.632 113.129 366.388 113.205 366.152 113.42C365.89 113.657 365.597 114.106 365.364 114.892C365.208 115.421 364.651 115.724 364.122 115.567C363.592 115.41 363.29 114.854 363.447 114.324C363.742 113.326 364.185 112.505 364.807 111.94C365.453 111.353 366.239 111.093 367.069 111.156ZM372.335 117.545C372.843 117.327 373.431 117.563 373.648 118.07L373.748 118.304C373.966 118.811 373.731 119.399 373.223 119.617C372.715 119.834 372.128 119.599 371.91 119.091L371.81 118.858C371.592 118.35 371.828 117.763 372.335 117.545Z" fill="white"/>
<defs>
<radialGradient id="paint0_radial" cx="0" cy="0" r="1" gradientUnits="userSpaceOnUse" gradientTransform="translate(69.4851 229.709) rotate(95.3915) scale(54.1325 53.9589)">
<stop stop-color="white"/>
<stop offset="1" stop-color="#BAFCFF"/>
</radialGradient>
</defs>
</svg>
