<svg width="312" height="259" viewBox="0 0 312 259" fill="none" xmlns="http://www.w3.org/2000/svg">
<path d="M153.492 254.21C151.412 254.21 149.342 254.15 147.272 254.06C134.272 250.68 138.042 243.06 138.042 233.63C138.198 228.106 136.303 222.719 132.722 218.51C136.072 227.58 127.372 245.64 127.372 245.64C124.012 241.52 120.652 236.56 122.892 231.64C111.382 233.07 108.772 237.04 108.772 237.04C103.572 228.65 103.132 219.7 104.972 210.18C98.2618 213.48 95.9717 219.26 91.5417 223.39C90.4217 221.74 90.4218 220.09 89.3018 218.39C87.0618 223.39 87.0618 228.29 85.9418 233.24C81.9381 229.501 79.1981 224.608 78.1018 219.24C74.7518 221.72 74.7517 225.84 74.7517 229.15C73.6317 226.67 73.6317 225.02 72.5117 222.54C70.9431 223.253 69.5374 224.281 68.3816 225.558C67.2257 226.836 66.3443 228.338 65.7917 229.97C61.3117 215.97 57.9517 201.91 49.0017 188.7C52.0017 199.11 52.3218 210.19 50.7118 221.35C50.3818 218.44 48.8717 215.54 51.2417 212.64C42.2417 217.59 40.0417 226.64 40.0417 234.1C38.9217 229.15 34.4418 225.84 33.3218 220.89C31.7118 222.08 29.5417 223.26 29.2617 225.04C27.8317 219.12 28.5418 212.86 34.4418 208.51C23.2518 211.81 18.7718 220.89 15.4418 228.32C12.3818 223.81 13.9618 217.93 10.0518 213.18C13.0908 193.229 9.58217 172.83 0.0517578 155.04C12.0518 171.04 20.0518 188.04 26.0518 206.04C28.0518 201.04 30.0518 195.04 35.0518 191.04C34.2238 194.645 33.8874 198.345 34.0518 202.04C37.0518 197.04 36.0518 192.04 38.0518 187.04C39.0518 193.04 44.0518 199.04 45.0518 205.04C48.0518 182.04 33.0518 162.04 31.0518 139.04C38.0518 152.04 41.0518 167.04 51.0518 179.04C50.0518 169.04 51.0518 159.04 48.0518 150.04C53.0518 164.04 60.0518 178.04 60.0518 193.04C61.0518 186.04 64.0518 180.04 67.0518 174.04C69.0518 181.04 67.0518 188.04 69.0518 195.04C69.9607 191.869 71.307 188.84 73.0518 186.04C74.0518 192.04 76.0518 197.04 78.0518 203.04C80.8694 188.546 82.2096 173.804 82.0518 159.04C86.106 172.114 89.1155 185.489 91.0518 199.04C93.0518 192.04 91.0518 184.04 96.0518 178.04C98.0518 184.04 98.0518 191.04 102.052 197.04C100.052 180.04 103.052 163.04 102.052 146.17C106.052 165.07 111.052 184.04 115.052 203.04C122.052 185.04 123.052 166.2 126.052 147.54C126.065 162.191 129.13 176.679 135.052 190.08C134.052 185.08 140.052 182.19 138.052 177.23C143.052 184.23 136.052 193.07 142.052 199.06C144.052 200.06 146.052 198.06 147.052 197.06C152.052 190.17 149.052 182.25 145.052 176.3C150.052 179.3 154.052 183.3 158.052 187.3C155.052 172.56 148.052 157.77 133.052 152.58C151.052 151.02 163.052 168.79 171.052 181.58V149.53C175.059 156.566 178.086 164.115 180.052 171.97C186.052 156.65 178.052 140.09 171.052 126.4C175.052 132.31 181.052 136.33 186.052 141.28C186.882 139.71 187.052 138.11 187.622 136.53C185.622 141.99 190.332 148.27 195.052 151.1C192.052 143.36 195.052 135.79 197.052 129.16C197.052 135.85 203.052 140.79 204.052 146.54C204.052 139.04 205.052 131.54 202.212 124C266.212 139 290.462 179.3 259.502 240.87C239.142 256.06 187.142 268.64 178.502 246.7C163.922 261.69 155.492 256.02 153.492 254.21Z" fill="#6DF3C3"/>
<path d="M212.27 197.168C212.21 204.928 215.69 221.398 198.38 221.398C192.38 221.398 187.7 218.078 187.7 212.118C187.7 204.958 196.81 208.458 196.81 200.268C196.81 197.198 195.34 194.068 195.34 191.138C195.34 182.498 212.4 178.788 212.27 197.168Z" fill="white"/>
<path d="M206.82 194.438C206.99 197.268 207.34 200.258 207.34 203.178C207.34 222.488 188.28 223.858 188.28 212.858C188.28 207.408 194.64 206.018 198.52 201.858C201.17 198.958 202.89 195.738 206.82 194.438Z" fill="#D0D6DC"/>
<path d="M212.27 197.168C212.21 204.928 215.69 221.398 198.38 221.398C192.38 221.398 187.7 218.078 187.7 212.118C187.7 204.958 196.81 208.458 196.81 200.268C196.81 197.198 195.34 194.068 195.34 191.138C195.34 182.498 212.4 178.788 212.27 197.168Z" stroke="#163050" stroke-width="3" stroke-linecap="round" stroke-linejoin="round"/>
<path d="M188.95 199.648C179.77 192.718 189.74 168.648 171.95 176.258C171.85 179.678 176.17 212.258 190.03 211.558C200.32 211.058 204.91 204.098 205.78 198.128C207.27 187.978 198.43 189.288 197.21 193.668C195.99 198.048 192.47 202.308 188.95 199.648Z" fill="#FFD735"/>
<path d="M168.65 177.968C173.74 174.968 175.99 175.828 176.77 175.968C176.77 176.448 181.92 216.558 203.54 204.528C199.54 209.118 195.63 211.018 192.06 211.018C175.9 211.058 171.13 186.628 168.65 177.968Z" fill="#FFAC40"/>
<path d="M168.65 177.968C172.89 197.178 178.92 211.708 191.8 211.438C206.34 211.138 209.67 191.128 202.15 190.438C195.24 189.798 197.86 200.208 191.88 200.208C188.79 200.208 183.71 193.418 182.58 175.108L168.65 177.968Z" stroke="#163050" stroke-width="3" stroke-linecap="round" stroke-linejoin="round"/>
<path d="M170.28 246.968C180.34 244.188 191.76 229.108 189.37 224.258C179.66 204.548 140.64 253.218 170.28 246.968Z" fill="white"/>
<path d="M164.03 233.748C159.03 238.888 163.9 243.748 170.72 241.138C181.65 236.908 187.45 219.508 189.29 224.878C192.4 233.948 165.29 259.188 160.17 244.218C158.6 239.768 160.63 236.578 164.03 233.748Z" fill="#D0D6DC"/>
<path d="M160.34 236.988C153.34 250.718 175.93 253.798 188.73 229.808C192.22 223.268 184.22 216.918 178.89 219.448C170.87 222.258 163.64 230.488 160.34 236.988Z" stroke="#163050" stroke-width="3" stroke-linecap="round" stroke-linejoin="round"/>
<path d="M168.26 213.528C166.8 194.388 171.84 181.798 199.95 181.798C200.545 181.786 201.139 181.843 201.72 181.968C198.54 201.628 179.92 187.578 179.92 208.698C179.92 224.778 187.04 224.078 177.46 227.828C172.03 229.968 168.6 217.928 168.26 213.528Z" fill="#FFD735"/>
<path d="M180.15 227.968C171.57 203.248 172.43 201.328 175.97 188.518C161.31 196.868 167.9 231.008 180.15 227.968Z" fill="#FFAC40"/>
<path d="M202.03 181.658C183.54 183.458 167.73 185.538 167.52 203.968C167.494 211.476 169.377 218.867 172.99 225.448C175.09 231.118 185.1 227.448 182.99 221.758C168.84 184.668 205.61 200.798 202.03 181.658Z" stroke="#163050" stroke-width="3" stroke-linecap="round" stroke-linejoin="round"/>
<path d="M63.9604 80.5882C69.9604 80.9582 75.8504 83.2382 81.7104 82.3282C98.7104 79.6882 183.85 40.9482 215.17 40.9482C249.64 40.9482 271.99 100.208 287.54 137.028C290.65 147.828 287.15 154.028 274.83 159.808C273.63 160.368 181.07 193.198 140.38 193.198C107.03 193.198 119.92 185.718 67.3804 88.8882C66.0635 86.1978 64.9212 83.4254 63.9604 80.5882Z" fill="#35D2FF"/>
<path d="M273.03 37.2179C295.77 70.2179 305.89 70.358 297.23 90.848C301.93 99.358 304.23 103.498 304.23 108.648C304.23 114.488 300.83 122.238 300.83 123.278C300.83 123.388 305.16 142.608 288.97 146.638C285.28 127.688 263.85 86.848 263.79 86.728C248.42 57.728 232.66 33.258 201.23 43.178C181.23 49.498 135.52 61.718 114.88 70.558C94.2403 79.398 52.9603 92.048 57.3803 69.298C61.2103 49.618 93.1804 35.808 124.56 25.908C155.94 16.008 212.81 1.68798 225.24 1.05798C247.92 -0.132024 259.25 17.1679 273.03 37.2179Z" fill="#0E9FFF"/>
<path d="M115.031 152.298C136.341 198.538 144.421 194.468 134.031 194.468C121.031 194.468 113.031 185.408 108.391 173.678C98.0432 142.601 64.6392 84.012 60.2705 78.2979C67.3805 80.9479 75.4105 84.2978 83.2705 81.9778C90.8305 102.578 106.851 134.558 115.031 152.298Z" fill="#21B9FF"/>
<path d="M75.0503 66.8081L83.1603 81.5781" stroke="#163050" stroke-width="3" stroke-linecap="round" stroke-linejoin="round"/>
<path d="M289.94 145.998C292.527 144.562 294.791 142.611 296.593 140.264C298.394 137.917 299.695 135.226 300.414 132.356C301.133 129.487 301.255 126.5 300.773 123.581C300.291 120.663 299.214 117.874 297.61 115.388C263.97 62.688 243.11 17.268 203.72 28.738C122.66 52.358 61.8903 80.998 76.3003 61.608C88.6303 45.028 188.11 19.608 208.99 15.858C240.55 10.148 248.73 17.158 299.46 94.268C303.82 100.898 307.01 114.268 301.14 122.048" stroke="#163050" stroke-width="3" stroke-linecap="round" stroke-linejoin="round"/>
<path d="M59.4901 76.8679C125.02 178.148 96.3402 203.268 159.33 192.318C230.14 174.438 259.68 166.318 278.99 158.488C280.995 157.673 282.811 156.456 284.326 154.911C285.84 153.366 287.022 151.526 287.797 149.506C288.573 147.486 288.925 145.328 288.833 143.166C288.74 141.004 288.205 138.884 287.26 136.938C264.39 87.2679 246.42 31.2579 203.68 41.9379C166.84 51.1379 127.4 65.7078 98.9301 77.1578C73.9301 87.1578 52.1701 83.2878 58.9301 64.1578C70.0901 32.7778 187.01 8.75783 218.34 2.40783C225.531 0.948079 232.986 1.51607 239.873 4.04833C246.76 6.58059 252.808 10.9774 257.34 16.7479C301.34 72.7479 304.83 80.8278 297.41 90.6778" stroke="#163050" stroke-width="3" stroke-linecap="round" stroke-linejoin="round"/>
<path d="M162.93 141.698C178.08 138.698 182.22 133.428 189.38 122.958M182.15 118.598C189.15 119.148 195.51 126.838 195.51 126.838" stroke="#163050" stroke-width="3" stroke-linecap="round" stroke-linejoin="round"/>
<path d="M149.55 105.868C149.02 91.8181 128.27 90.448 128.8 104.468C129.33 118.488 150.08 119.868 149.55 105.868Z" fill="#163050"/>
<path d="M144.18 104.078C142.48 103.968 142.3 100.698 138.51 100.438C136.35 100.298 135.15 101.998 134.14 100.138C133.02 98.0477 136.25 97.2177 138.4 97.3677C143.92 97.7377 147.9 104.328 144.18 104.078Z" fill="white"/>
<path d="M187.54 96.5878C187.01 82.5378 166.25 81.1678 166.78 95.1878C167.31 109.208 188.03 110.608 187.54 96.5878Z" fill="#163050"/>
<path d="M182.34 94.8677C180.64 94.7577 180.46 91.4877 176.67 91.2277C174.51 91.0877 173.31 92.7877 172.3 90.9277C171.18 88.8377 174.41 88.0077 176.56 88.1577C182.08 88.5177 186.03 95.1077 182.34 94.8677Z" fill="white"/>
<path d="M141.1 157.258C143.97 158.808 153.53 155.338 151.86 149.258C157.72 152.258 167.52 142.558 161.18 133.478C167.88 123.318 158.96 114.478 151.89 116.028C152.37 111.368 141.94 106.338 135.89 114.468C130.03 110.768 121.55 117.698 124.42 124.148C118.08 126.778 116.53 135.028 122.98 138.978C121.43 142.438 123.35 151.648 129.08 151.168C133.9 150.748 134.14 155.868 141.1 157.258Z" fill="#FFD735"/>
<path d="M149.33 135.868C149.33 125.598 132.44 125.588 132.44 135.868C132.44 146.148 149.33 146.098 149.33 135.868Z" fill="#BFB5F2"/>
<path d="M149.33 135.868C149.33 125.598 132.44 125.588 132.44 135.868C132.44 146.148 149.33 146.098 149.33 135.868Z" stroke="#163050" stroke-width="3" stroke-linecap="round" stroke-linejoin="round"/>
<path d="M122.93 138.968C116.48 134.968 118.03 126.768 124.37 124.138C121.5 117.688 129.98 110.758 135.84 114.458C141.94 106.328 152.37 111.358 151.84 116.018C158.91 114.428 167.84 123.308 161.13 133.468C167.47 142.548 157.67 152.238 151.81 149.248C153.89 156.818 138.46 162.248 132.98 150.968C120.03 152.038 122.42 140.108 122.93 138.968Z" stroke="#163050" stroke-width="3" stroke-linecap="round" stroke-linejoin="round"/>
<path d="M135.84 114.458C134.902 116.763 134.608 119.279 134.99 121.738" stroke="#163050" stroke-width="3" stroke-linecap="round" stroke-linejoin="round"/>
<path d="M151.89 116.018C149.668 117.268 147.894 119.185 146.82 121.498" stroke="#163050" stroke-width="3" stroke-linecap="round" stroke-linejoin="round"/>
<path d="M161.18 133.468C160.397 132.684 159.459 132.073 158.426 131.673C157.392 131.273 156.287 131.095 155.18 131.148" stroke="#163050" stroke-width="3" stroke-linecap="round" stroke-linejoin="round"/>
<path d="M151.86 149.248C150.86 148.793 149.931 148.196 149.1 147.478" stroke="#163050" stroke-width="3" stroke-linecap="round" stroke-linejoin="round"/>
<path d="M124.37 124.138C125.03 126.568 127.62 128.858 127.62 128.858" stroke="#163050" stroke-width="3" stroke-linecap="round" stroke-linejoin="round"/>
<path d="M141.03 135.308C123.62 168.898 131.1 202.308 133.03 210.418" stroke="#163050" stroke-width="3" stroke-linecap="round" stroke-linejoin="round"/>
<path d="M92.5606 138.518C92.2206 136.908 92.7506 138.858 86.6706 126.518C79.9206 130.688 57.4806 179.998 118.831 174.698C118.831 174.698 119.551 179.408 128.351 179.408C138.671 179.408 141.461 174.228 142.191 165.178C143.291 151.518 118.451 144.428 118.451 164.178C123.031 165.128 71.5006 166.378 92.5606 138.518Z" fill="white"/>
<path d="M85.8001 128.058C58.9901 160.748 94.0502 182.058 117.34 175.238C139.24 189.238 145.68 163.048 130.65 162.668C119.07 162.368 125.9 173.348 107.58 170.888C89.4301 168.448 80.9101 163.058 81.1501 150.088C81.4201 136.028 85.1401 133.798 85.8001 128.058Z" fill="#D0D6DC"/>
<path d="M118.6 172.378C119.07 176.378 122.69 180.888 131.52 178.938C140.98 176.858 140.88 173.738 142.1 167.558C145.1 152.418 129.86 149.948 124.62 152.208C119.87 154.208 119.03 158.658 119.06 164.938C88.9702 165.168 82.6701 152.808 92.2401 137.638L86.6502 126.338C68.6502 150.828 74.5102 178.698 118.59 175.668" stroke="#163050" stroke-width="3" stroke-linecap="round" stroke-linejoin="round"/>
<path d="M246.23 154.148C245.14 152.038 244.461 144.018 235.531 147.848C223.841 141.408 263.651 131.578 269.531 160.478L264.291 162.408C263.541 159.968 261.29 155.958 254.74 159.408C253.38 152.358 247.95 153.968 246.23 154.148Z" fill="#A382E5"/>
<path d="M219.03 193.028C244.56 193.028 282.13 194.118 282.13 169.028C282.13 163.188 278.33 159.888 272.79 159.888C269.53 159.888 268.96 161.218 267.1 161.218C264.7 161.218 262.68 157.778 259.44 157.778C258.55 157.778 257.63 157.948 256.75 157.948C252.95 157.948 254.05 154.528 248.04 153.518C245.21 150.468 247.04 147.188 238.9 147.188C236.4 147.188 234.13 146.248 231.77 146.248C223.77 146.248 207.572 156.302 207.572 156.302C207.572 156.302 199.967 149.714 194.559 153.352C189.151 156.991 191.249 163.645 191.249 163.645C191.249 163.645 186.613 164.068 186.613 171.309C186.613 178.549 195.818 180.267 195.818 180.267C195.818 180.267 201.491 188.169 205.15 189.558C209.649 191.177 214.299 192.34 219.03 193.028Z" fill="#FFD735"/>
<path d="M198.3 202.488C200.81 209.128 217.3 217.688 218.08 201.598C218.76 186.868 210.94 142.138 245.31 140.418C212.53 129.268 186.36 161.338 198.3 202.488Z" fill="#BFB5F2"/>
<path d="M210.08 196.118C209.08 190.208 203.4 190.228 204.34 196.118C205.28 202.008 211.03 202.018 210.08 196.118Z" fill="#FFC858"/>
<path d="M218.87 192.308C227.72 192.308 255.47 196.638 276.23 184.308C276.41 190.518 271.75 222.638 265.23 230.658C260.31 236.718 241.86 238.858 234.51 238.858C198.79 238.858 205.51 222.728 199.51 201.108C202.28 204.438 206.83 209.318 211.14 209.318C219.09 209.338 216.7 197.298 218.87 192.308Z" fill="#BFB5F2"/>
<path opacity="0.6" d="M234.201 193.458C234.321 233.898 242.83 239.128 228.74 239.128C205.96 239.128 202.36 229.998 201.25 206.808C225.25 217.668 209.8 194.588 224.25 193.698C227.58 193.488 230.891 193.498 234.201 193.458Z" fill="#AD8DFF"/>
<path opacity="0.6" d="M224.18 151.588C218.18 151.228 212.3 149.588 206.3 149.128C202.75 154.878 199.1 161.128 197.54 167.768C196.03 174.238 194.77 209.228 208.24 209.228C227.71 209.228 207.32 180.778 224.18 151.588ZM204.03 195.018C204.03 192.548 205.62 190.688 208.56 191.638C209.17 193.368 210.47 195.268 210.63 197.118C209.82 201.108 204.03 199.788 204.03 195.018Z" fill="#AD8DFF"/>
<path d="M195.7 152.128C192.49 157.068 194.59 161.008 199.51 161.698L195.64 179.318C185.04 179.318 183.75 165.928 191.37 164.088C191.37 164.088 188.09 156.348 195.7 152.128ZM217.55 185.248C217.55 193.528 219.07 195.058 232.17 195.058C238.23 195.058 258.07 194.668 260.81 189.248C258.88 186.058 256.41 184.798 255.58 179.928C251.2 185.858 242.36 183.538 242.36 178.778C242.36 177.118 243.11 175.178 243.24 173.778C236.83 174.988 236.01 178.478 232.1 178.478C226.1 178.478 221.361 172.228 227.84 166.968C218.8 167.388 217.55 176.268 217.55 185.248ZM265.88 165.068C265.46 165.528 263.69 171.068 258.75 170.678C272.49 182.938 267.01 184.538 271.28 185.038C278.47 184.758 284.42 174.368 278.63 174.368C274.33 174.368 269.87 170.718 269.87 166.048C269.87 164.898 270.05 163.738 270.05 162.578C268.45 162.99 267.002 163.855 265.88 165.068Z" fill="#FFAC40"/>
<path d="M279.89 178.638C278.02 190.638 244.72 196.838 218.51 192.508" stroke="#163050" stroke-width="3" stroke-linecap="round" stroke-linejoin="round"/>
<path d="M193.03 180.748C200.43 212.878 206.41 228.748 206.41 228.748C212.26 243.228 260.41 242.518 266.12 228.748C275.31 206.478 279.96 177.748 279.96 177.748" stroke="#163050" stroke-width="3" stroke-linecap="round" stroke-linejoin="round"/>
<path d="M269.56 160.478C266.56 133.728 220.73 130.138 217.85 173.388C217.421 182.274 217.542 191.177 218.21 200.048C219.21 215.538 199.99 213.548 196.97 195.568C191.97 173.418 199.75 126.488 251.12 141.018" stroke="#163050" stroke-width="3" stroke-linecap="round" stroke-linejoin="round"/>
<path d="M211.23 196.008C210.37 189.238 202.88 188.888 203.74 195.628C204.6 202.368 212.09 202.748 211.23 196.008Z" stroke="#163050" stroke-width="3" stroke-linecap="round" stroke-linejoin="round"/>
<path d="M193.14 179.248C184.03 177.918 185.14 164.828 191.81 164.248C188.37 153.498 199.25 149.248 203.1 153.998" stroke="#163050" stroke-width="3" stroke-linecap="round" stroke-linejoin="round"/>
<path d="M243.13 155.698C246.62 152.188 253.67 153.858 254.55 159.298C263.98 154.368 268.04 166.388 260.55 168.888" stroke="#163050" stroke-width="3" stroke-linecap="round" stroke-linejoin="round"/>
<path d="M264.6 162.408C275.6 155.698 286.6 167.798 280.06 178.668" stroke="#163050" stroke-width="3" stroke-linecap="round" stroke-linejoin="round"/>
<path d="M236.07 238.888L234.55 209.828" stroke="#163050" stroke-width="3" stroke-linecap="round" stroke-linejoin="round"/>
<path d="M253.67 217.268L253.42 220.018" stroke="#163050" stroke-width="3" stroke-linecap="round" stroke-linejoin="round"/>
<path d="M255.81 193.778L254.51 208.108" stroke="#163050" stroke-width="3" stroke-linecap="round" stroke-linejoin="round"/>
<path d="M214.57 209.768L215.88 218.668" stroke="#163050" stroke-width="3" stroke-linecap="round" stroke-linejoin="round"/>
<path d="M218.33 170.928C223.2 163.818 233.85 168.038 234.81 175.848" stroke="#163050" stroke-width="3" stroke-linecap="round" stroke-linejoin="round"/>
<path d="M229.4 184.218C232.82 171.878 250.34 171.118 255.86 180.358" stroke="#163050" stroke-width="3" stroke-linecap="round" stroke-linejoin="round"/>
<path d="M241.7 164.868C241.951 164.422 242.304 164.042 242.729 163.759C243.155 163.475 243.642 163.297 244.15 163.238" stroke="#163050" stroke-width="3" stroke-linecap="round" stroke-linejoin="round"/>
<path d="M272.38 33.2282C311.69 88.4482 227.51 94.2282 227.51 130.878C227.51 148.398 239.29 159.408 251.83 159.408C268.83 159.408 310.42 121.478 310.42 93.5782C310.42 83.1282 296.13 30.2282 272.38 33.2282Z" fill="#35D2FF"/>
<path d="M271.79 33.5982C279.27 32.3982 289.65 36.3482 295.1 47.4682C316.64 91.4682 318.87 114.108 270.39 151.648C236.61 177.798 208.73 127.648 243.89 103.588C253.2 97.2382 303.33 70.2282 271.79 33.5982Z" stroke="#163050" stroke-width="3" stroke-linecap="round" stroke-linejoin="round"/>
<path d="M267.73 124.108C274.82 144.248 247.43 156.268 240.35 136.168C233.27 116.068 260.64 104.008 267.73 124.108Z" fill="#FFD735"/>
<path d="M250.81 115.598C240.35 128.598 250.59 139.218 257.55 139.218C266.72 139.218 267.76 124.618 267.76 134.158C267.76 139.488 262.88 147.158 255.31 147.158C240.6 147.178 233.14 123.318 250.81 115.598Z" fill="#FFAC40"/>
<path d="M267.73 124.108C274.82 144.248 247.43 156.268 240.35 136.168C233.27 116.068 260.64 104.008 267.73 124.108Z" stroke="#163050" stroke-width="3" stroke-linecap="round" stroke-linejoin="round"/>
<path d="M276.052 243.12C272.942 196.57 282.462 183.79 299.272 143C276.702 181.35 264.712 193.77 261.052 243.12H276.052Z" fill="url(#paint0_linear)"/>
<path d="M276.052 243.12C272.942 196.57 282.462 183.79 299.272 143C276.582 181.55 264.712 193.83 261.052 243.12" stroke="#163050" stroke-width="3" stroke-linecap="round" stroke-linejoin="round"/>
<defs>
<linearGradient id="paint0_linear" x1="279.892" y1="243.64" x2="280.302" y2="165.79" gradientUnits="userSpaceOnUse">
<stop stop-color="#DBFCF0"/>
<stop offset="0.56" stop-color="#CBFAEA"/>
<stop offset="1" stop-color="#C5F9E7"/>
</linearGradient>
</defs>
</svg>
