<svg width="1378" height="774" viewBox="0 0 1378 774" fill="none" xmlns="http://www.w3.org/2000/svg">
<g clip-path="url(#clip0)">
<path fill-rule="evenodd" clip-rule="evenodd" d="M0.5 555.027L57.875 567.047C115.25 579.068 230 603.109 344.75 621.14C459.5 639.171 674.25 651.192 789 615.13C903.75 579.068 1018.5 494.924 1133.25 482.903C1248 470.883 1262.75 530.986 1320.12 561.037L1377.5 591.089V735.336H1320.12C1262.75 735.336 1148 735.336 1033.25 735.336C918.5 735.336 803.75 735.336 689 735.336C574.25 735.336 459.5 735.336 344.75 735.336C230 735.336 115.25 735.336 57.875 735.336H0.5V555.027Z" fill="url(#paint0_linear)"/>
<path d="M345.687 375.394C332.592 366.253 334.89 346.052 325.64 341.798C336.244 337.429 358.003 328.871 368.728 345.856C373.838 353.949 374.111 362.688 371.31 369.217C367.317 378.526 357.074 383.343 345.687 375.394Z" fill="#FFC835"/>
<path d="M349.22 350.756C361.378 356.746 369.146 365.395 373.63 372.678M325.64 341.798C334.89 346.052 332.592 366.253 345.687 375.394C365.061 388.919 381.123 365.486 368.728 345.856C358.003 328.871 336.244 337.429 325.64 341.798Z" stroke="black" stroke-width="2" stroke-linecap="round" stroke-linejoin="round"/>
<path d="M1244.98 265.791C1264.5 280.708 1277.84 291.734 1325.01 343.061C1350.8 371.19 1372.08 396.789 1389.58 420.042L1402.91 420.186C1407.21 326.873 1429.13 233.853 1473.61 224.314C1502.91 223.72 1500.23 225.516 1519.3 234.311C1511.95 227.713 1500.17 221.179 1488.77 219.393C1530.12 212.832 1543.82 214 1508.25 213.988C1477.64 216.115 1461.84 218.203 1447.3 228.287C1472.18 203.411 1487.77 201.543 1505.89 193.756C1541.26 194.199 1543.04 201.963 1561.35 215.657C1568 220.694 1550.16 202.749 1542.89 198.158C1553.63 199.229 1558.22 197.676 1568.84 190.283C1547.26 198.732 1549.58 195.891 1526.21 191.071C1505.95 186.98 1515.61 196.03 1545.97 165.122C1566.86 149.607 1573.29 154.441 1590.48 144.467C1590.37 144.472 1562.93 152.192 1562.83 152.196C1551.85 155.793 1552.21 159.695 1567.66 140.05C1542.91 162.593 1544.96 160.926 1539.1 165.385C1547.56 146.008 1535.31 124.567 1524.79 104.224C1545.99 168.402 1539.57 133.718 1512.27 125.557C1519.38 131.423 1535.69 140.006 1537.67 150.409C1537.39 181.54 1500.78 184.638 1474.86 196.216C1484.62 180.071 1487.05 163.465 1485.71 144.993C1491.68 121.266 1515.95 78.101 1503.02 99.661C1495.16 112.664 1489.34 123.684 1484.85 136.558C1483.79 128.025 1482.07 119.094 1480.01 109.541C1479.76 125.216 1480.11 139.81 1478.41 153.529C1472.93 143.154 1462.96 134.222 1454.76 127.445C1461.56 136.287 1474.72 151.025 1476.61 164.501C1474.18 175.602 1469.81 185.931 1462.14 195.54C1423.25 227.728 1385.66 299.03 1383.37 349.713C1382.84 327.717 1367.85 254.092 1360.31 228.766C1352.78 203.334 1364.93 183.498 1382 156.592C1397.36 140.549 1404.3 161.241 1431.04 152.065C1411.84 153.648 1414.95 151.941 1398.16 147.61C1406.64 145.168 1415.89 143.437 1426.46 132.023C1410.43 141.742 1398.58 141.984 1388.38 146.398C1404.21 120.281 1418.42 90.7334 1410.3 55.5857C1410.24 67.7607 1408.55 79.0452 1405.88 89.415C1403.16 70.8901 1388.88 54.6079 1374.46 40.1305C1392.14 70.4662 1395.97 68.4137 1382.92 64.6806C1367.19 60.2033 1358.23 58.43 1349.42 46.9126C1357.51 64.7023 1381.99 65.2455 1393.35 71.6899C1400.68 86.2275 1404.76 101.631 1396.27 117.622C1386.99 135.019 1350.35 181.516 1346.37 196.488C1323 144.46 1319.72 155.594 1300.58 103.721C1301.07 88.7782 1312.56 82.198 1320.44 69.5116C1326.82 64.8211 1333.42 62.9803 1342.3 51.7372C1333.96 57.773 1333.78 58.6266 1323.11 64.5403C1326.83 56.7763 1328.77 46.6463 1326.83 31.9019C1325.37 71.2276 1304.22 77.2255 1297.14 94.0096C1288.86 68.5002 1286.97 46.8736 1295.23 13.9553C1304.22 -0.149679 1315.92 -6.94939 1322.77 -13.1398C1296.74 -1.87405 1290.93 23.2233 1303.3 -13.028C1293.49 4.49563 1287.62 19.7514 1284.58 34.1578C1275.45 11.3272 1253.23 -10.4722 1236.2 -21.0391C1277.18 20.5755 1249.14 -12.2206 1218.13 -9.33756C1233.57 -6.86032 1251.55 -1.7283 1263.37 8.40316C1272.83 20.3189 1280.74 33.4582 1282.61 46.4057C1278.47 87.3165 1299.09 122.831 1296.31 124.738C1258 89.0542 1217.35 86.2736 1199.44 69.178C1191.65 56.3518 1195.58 51.3318 1196.86 40.5919C1193.71 46.6405 1191.66 53.9168 1192.98 60.6406C1188.87 52.9653 1188.36 45.2578 1179.44 36.0738C1189.03 54.4409 1188.02 64.006 1197.17 73.4989C1192.13 71.787 1177.8 67.7855 1174.32 65.3786C1158.87 54.6451 1157.37 54.1734 1151.29 36.3066C1149.02 29.5136 1150.47 37.0789 1150.35 36.5545C1153.02 51.0591 1156.39 56.0107 1164.9 62.7759C1153.32 58.7747 1139.34 53.1715 1172.23 69.0573C1156.04 69.0434 1150.29 70.9575 1142.61 74.8511C1147.02 74.0466 1161.55 69.2554 1180.21 72.7736C1198.42 81.0724 1217.11 88.2939 1234.9 96.6089C1222.61 102.055 1218.33 106.241 1184.7 98.746C1206.1 107.452 1213.97 105.774 1222.11 105.356C1210.75 115.635 1205.61 127.793 1191 138.727C1211.2 130.119 1217.88 100.119 1243.52 100.724C1261.22 109.571 1277.6 119.845 1291.05 133.936C1338.6 203.56 1346 242.017 1349.21 325.62C1336.9 313.708 1322.16 296.491 1306.91 285.327C1295.89 273.894 1293.22 262.353 1291.58 249.82C1296.07 226.15 1306.04 176.971 1293.28 159.043C1299.75 178.588 1294.55 208.531 1289.34 232.865C1285.92 212.673 1277.51 189.285 1239.56 160.257C1254.38 176.836 1258.55 180.592 1265.67 192.386C1253.96 185.108 1200.27 165.257 1249.37 187.083C1257.24 190.592 1264.03 193.825 1269.3 198.915C1283.94 227.25 1279.4 249.652 1285.92 270.678C1268.1 258.554 1249.44 246.779 1231.54 235.399C1231.08 234.57 1230.42 233.854 1229.56 233.358C1199.71 211.428 1189.87 164.597 1167.44 142.806C1135.89 112.156 1149.32 122.861 1143.23 88.27C1142.17 93.9204 1141.94 107.16 1143.46 116.311C1129.15 96.4313 1126.29 60.5524 1124.39 60.8368C1129.3 97.6956 1129.88 107.411 1144.12 125.389C1136.35 121.558 1127.46 118.724 1116.92 117.012C1137.61 126.697 1158.8 135.516 1173.62 160.246C1151.63 147.329 1132.53 159.705 1095.4 146.733C1136.59 166.323 1161.12 149.082 1132.81 164.246C1122.33 169.834 1114.85 173.614 1104.41 171.897C1119.6 178.83 1138.32 161.706 1152.48 158.41C1187.18 163.536 1183.45 184.849 1198.24 214.554C1195.85 212.952 1177.75 207.296 1177.75 207.296C1148.01 196.37 1093.35 189.787 1073.62 166.622C1067.42 148.336 1070.29 148.755 1071.17 133.162C1067.02 143.588 1066.65 150.483 1068.24 158.784C1063.7 150.807 1060.15 141.1 1053.63 128.331C1060.19 153.165 1062.84 167.141 1077.48 178.964C1053.21 178.095 1041.41 196.013 1000.59 183.289C1024.8 196.227 1038.89 191.241 1053.66 187.181C1048.63 193.831 1046.45 203.441 1035.54 208.623C1028.68 211.85 1024.14 212.13 1032.35 211.073C1050.1 207.429 1051.37 190.868 1060.27 185.552C1068.56 183.752 1077.42 182.988 1088.77 186.363C1143.39 216.658 1153.55 194.464 1227.85 252.476C1210.06 252.206 1191.47 255.989 1171.75 257.91C1147 255.578 1140.93 238.134 1120.03 233.961C1142.83 246.211 1141.99 251.959 1158.77 258.831C1138.36 259.508 1116.67 256.953 1093.24 244.832C1123.03 270.998 1157.81 266.912 1191.04 263.944C1177.87 273.87 1161.05 288.064 1138.22 294.443C1158.93 298.942 1185.56 273.046 1201.38 263.124C1216.68 262.008 1231.39 261.867 1244.98 265.791Z" fill="#F6EEE6"/>
<path fill-rule="evenodd" clip-rule="evenodd" d="M1113.28 281.745C1124.97 274.628 1137.75 276.573 1146.69 288.826C1134.15 287.507 1124.49 284.067 1121.5 283.441C1127.13 286.718 1138.56 289.349 1146.54 290.419C1132.63 297.621 1120.28 293.014 1113.28 281.745Z" fill="#F6EEE6"/>
<path fill-rule="evenodd" clip-rule="evenodd" d="M1153.67 324.757C1146.56 313.175 1148.4 300.297 1160.65 291.359C1159.44 303.896 1156 313.554 1155.37 316.648C1158.65 311.018 1161.28 299.485 1162.25 291.615C1169.45 305.417 1164.84 317.766 1153.67 324.757Z" fill="#F6EEE6"/>
<path fill-rule="evenodd" clip-rule="evenodd" d="M968.854 175.507C980.233 168.614 993.095 170.026 1002.26 182.588C989.716 181.269 980.057 177.829 977.07 177.203C982.699 180.48 994.232 183.107 1002.11 184.181C988.198 191.383 975.849 186.776 968.854 175.507Z" fill="#F6EEE6"/>
<path fill-rule="evenodd" clip-rule="evenodd" d="M1078.46 273.554C1082.42 260.806 1093.04 253.413 1108.09 256.752C1097.79 264.133 1088.3 267.884 1085.61 269.47C1092.02 268.165 1102.39 262.581 1108.99 258.094C1103.41 272.597 1091.1 277.304 1078.46 273.554Z" fill="#F6EEE6"/>
<path fill-rule="evenodd" clip-rule="evenodd" d="M1155.47 216.936C1164.84 226.843 1165.66 239.726 1155.61 251.013C1154.18 238.472 1155.59 228.363 1155.57 225.188C1153.59 231.403 1153.4 243.159 1154.02 251.074C1144.04 239.179 1145.87 226.195 1155.47 216.936Z" fill="#F6EEE6"/>
<path fill-rule="evenodd" clip-rule="evenodd" d="M1088.8 165.085C1092.99 155.504 1101.81 151.037 1112.75 154.746C1104.36 159.513 1096.82 161.602 1094.63 162.533C1099.59 162.131 1107.93 158.741 1113.33 155.888C1107.8 166.473 1098.06 169.07 1088.8 165.085Z" fill="#F6EEE6"/>
<path fill-rule="evenodd" clip-rule="evenodd" d="M1158.96 7.22116C1172.3 9.99087 1180.31 20.1626 1178.45 35.1586C1170.15 25.6332 1165.46 16.4984 1163.67 14.0266C1165.49 20.2017 1172.11 30.0033 1177.11 36.1625C1162.24 32.0755 1156.39 20.2333 1158.96 7.22116Z" fill="#F6EEE6"/>
<path fill-rule="evenodd" clip-rule="evenodd" d="M1073.87 98.5505C1082.74 109.113 1082.82 122.34 1071.92 133.238C1071.32 120.453 1073.25 110.112 1073.45 107.034C1071.04 113.16 1070.13 125.156 1070.33 133.193C1060.95 120.427 1063.62 107.306 1073.87 98.5505Z" fill="#F6EEE6"/>
<path fill-rule="evenodd" clip-rule="evenodd" d="M1078.31 131.617C1087.28 130.955 1094.36 135.976 1095.91 146.078C1088.85 141.48 1084.21 136.365 1082.58 135.158C1084.94 138.877 1090.85 143.943 1095.31 146.948C1084.94 147.028 1078.97 140.483 1078.31 131.617Z" fill="#F6EEE6"/>
<path fill-rule="evenodd" clip-rule="evenodd" d="M993.871 215.089C1002.37 204.919 1015.18 202.205 1027.8 211.141C1015.53 213.941 1005.14 213.704 1002.2 214.134C1008.59 215.371 1020.3 214.287 1028.07 212.718C1017.28 223.929 1004.14 223.48 993.871 215.089Z" fill="#F6EEE6"/>
<path fill-rule="evenodd" clip-rule="evenodd" d="M1025.02 169.013C1036.32 165.616 1046.76 169.979 1051.57 182.285C1041.26 178.446 1033.87 173.437 1031.5 172.258C1035.57 176.23 1044.64 180.963 1051.09 183.573C1037.87 186.621 1028.51 179.994 1025.02 169.013Z" fill="#F6EEE6"/>
<path fill-rule="evenodd" clip-rule="evenodd" d="M1087.52 225.469C1098.9 218.575 1111.76 219.987 1120.92 232.549C1108.38 231.231 1098.72 227.791 1095.74 227.165C1101.37 230.442 1112.79 233.073 1120.77 234.143C1106.87 241.345 1094.52 236.738 1087.52 225.469Z" fill="#F6EEE6"/>
<path fill-rule="evenodd" clip-rule="evenodd" d="M1102.18 69.6256C1113.33 67.7161 1122.85 73.0668 1126.08 85.5388C1116.68 80.6069 1110.22 74.9273 1108.05 73.423C1111.39 77.7405 1119.55 83.4609 1125.39 86.7298C1112.31 88.0781 1104.09 80.6666 1102.18 69.6256Z" fill="#F6EEE6"/>
<path fill-rule="evenodd" clip-rule="evenodd" d="M1168.96 96.8096C1167.91 108.07 1160.27 115.878 1147.46 115.84C1154.68 108.048 1161.8 103.224 1163.74 101.455C1158.74 103.658 1151.15 109.983 1146.47 114.82C1148.51 101.828 1157.81 95.8612 1168.96 96.8096Z" fill="#F6EEE6"/>
<path fill-rule="evenodd" clip-rule="evenodd" d="M1139.23 69.581C1145.34 74.2158 1147.09 81.3462 1142.5 88.7198C1140.55 81.809 1140.32 75.9958 1140.05 74.3129C1139.55 77.9307 1140.55 84.561 1141.67 88.9636C1134.88 83.0848 1134.7 75.6822 1139.23 69.581Z" fill="#F6EEE6"/>
<path fill-rule="evenodd" clip-rule="evenodd" d="M1176.48 152.196C1176.92 144.346 1182 138.647 1190.98 138.303C1186.22 143.989 1181.38 147.562 1180.06 148.777C1183.49 147.164 1188.6 142.416 1191.64 138.913C1190.51 148.165 1184.12 152.538 1176.48 152.196Z" fill="#F6EEE6"/>
<path fill-rule="evenodd" clip-rule="evenodd" d="M1315.85 -0.491306C1309.74 11.3863 1312.14 24.1022 1325.26 32.2785C1323.09 19.8715 1318.91 10.3994 1318.17 7.46434C1321.76 12.8306 1325.26 24.1279 1326.83 31.9006C1332.95 17.588 1327.52 5.62381 1315.85 -0.491306Z" fill="#F6EEE6"/>
<path fill-rule="evenodd" clip-rule="evenodd" d="M1167.5 133.276C1179.6 139.586 1192.19 136.88 1200.38 124.076C1187.97 126.14 1178.5 130.208 1175.57 131.061C1180.93 127.468 1192.23 124.071 1200.01 122.503C1185.79 116.168 1173.72 121.5 1167.5 133.276Z" fill="#F6EEE6"/>
<path fill-rule="evenodd" clip-rule="evenodd" d="M1227.74 45.2283C1214.96 40.4261 1202.74 44.7054 1196.28 58.396C1208.42 54.7549 1217.21 49.5484 1220.03 48.382C1215.11 52.593 1204.39 57.4497 1196.76 59.8595C1211.75 64.4708 1223.02 57.5817 1227.74 45.2283Z" fill="#F6EEE6"/>
<path fill-rule="evenodd" clip-rule="evenodd" d="M1273.01 -24.4637C1270.67 -11.0369 1277.13 0.146863 1291.89 3.9208C1286.06 -7.28729 1279.3 -15.0727 1277.62 -17.5485C1282.75 -13.5113 1289.47 -3.8194 1293.34 3.1242C1294.96 -12.3921 1286.12 -22.1086 1273.01 -24.4637Z" fill="#F6EEE6"/>
<path fill-rule="evenodd" clip-rule="evenodd" d="M1361.19 88.693C1372.96 94.9098 1385.78 92.5127 1394.07 79.493C1381.66 81.5568 1372.18 85.625 1369.25 86.4784C1374.62 82.8854 1385.92 79.4881 1393.69 77.9198C1379.37 71.4833 1367.41 77.0228 1361.19 88.693Z" fill="#F6EEE6"/>
<path fill-rule="evenodd" clip-rule="evenodd" d="M1218.84 202.331C1230.62 208.548 1243.44 206.151 1251.72 193.131C1239.31 195.195 1229.84 199.263 1226.9 200.117C1232.27 196.524 1243.57 193.126 1251.34 191.558C1237.02 185.227 1225.06 190.661 1218.84 202.331Z" fill="#F6EEE6"/>
<path fill-rule="evenodd" clip-rule="evenodd" d="M1273.53 176.629C1273.82 186.991 1280.36 194.679 1292.24 195.282C1286.13 187.683 1279.69 182.744 1278.04 181.113C1282.57 183.374 1289.17 189.789 1293.16 194.4C1292.07 182.481 1283.89 176.337 1273.53 176.629Z" fill="#F6EEE6"/>
<path fill-rule="evenodd" clip-rule="evenodd" d="M1232.22 23.9923C1243.99 30.209 1256.81 27.8119 1265.1 14.7923C1252.69 16.8561 1243.21 20.9242 1240.28 21.7776C1245.65 18.1846 1256.95 14.7874 1264.72 13.219C1250.51 6.88414 1238.44 12.322 1232.22 23.9923Z" fill="#F6EEE6"/>
<path fill-rule="evenodd" clip-rule="evenodd" d="M1210.05 141.593C1213.21 154.809 1223.66 162.558 1238.61 160.291C1228.88 152.302 1219.61 147.894 1217 146.195C1223.31 147.858 1233.29 154.144 1239.62 158.982C1234.91 144.026 1222.85 138.561 1210.05 141.593Z" fill="#F6EEE6"/>
<path fill-rule="evenodd" clip-rule="evenodd" d="M1322.8 205.541C1309.23 204.897 1298.84 212.705 1296.87 227.705C1307.29 220.532 1314.19 212.857 1316.44 210.866C1313.05 216.394 1304.26 224.353 1297.87 228.937C1313.53 228.76 1322.14 218.797 1322.8 205.541Z" fill="#F6EEE6"/>
<path fill-rule="evenodd" clip-rule="evenodd" d="M1221.87 137.965C1233.68 131.161 1238.08 118.925 1231.63 105.307C1226.78 116.924 1225.16 127.042 1224.32 130.038C1224.18 123.481 1227.34 112.14 1230.13 104.729C1217.12 113.378 1215.29 126.362 1221.87 137.965Z" fill="#F6EEE6"/>
<path fill-rule="evenodd" clip-rule="evenodd" d="M1336.49 123.08C1333.93 136.515 1340.29 147.808 1354.84 151.802C1349.22 140.48 1342.57 132.691 1340.99 130.105C1346.02 134.252 1352.53 144.058 1356.29 151.005C1358.14 135.587 1349.5 125.651 1336.49 123.08Z" fill="#F6EEE6"/>
<path fill-rule="evenodd" clip-rule="evenodd" d="M1148.89 186.279C1160.67 192.496 1173.49 190.099 1181.78 177.079C1169.37 179.143 1159.89 183.211 1156.96 184.065C1162.32 180.472 1173.63 177.074 1181.4 175.506C1167.18 169.171 1155.11 174.609 1148.89 186.279Z" fill="#F6EEE6"/>
<path fill-rule="evenodd" clip-rule="evenodd" d="M1195.68 95.3593C1202.92 99.104 1210.48 97.5438 1215.37 89.841C1207.9 91.08 1202.28 93.5185 1200.5 94.0102C1203.7 91.8764 1210.5 89.8161 1215.12 88.8978C1206.62 85.0961 1199.44 88.3352 1195.68 95.3593Z" fill="#F6EEE6"/>
<path fill-rule="evenodd" clip-rule="evenodd" d="M1072.84 209.626C1084.93 215.936 1097.53 213.23 1105.72 200.426C1093.31 202.49 1083.83 206.558 1080.9 207.412C1086.27 203.819 1097.57 200.421 1105.34 198.853C1091.02 192.522 1079.06 197.956 1072.84 209.626Z" fill="#F6EEE6"/>
<path fill-rule="evenodd" clip-rule="evenodd" d="M1232.25 52.5709C1224.1 63.4686 1224.81 76.4607 1236.09 86.5067C1236.04 73.913 1233.54 63.9533 1233.21 60.8963C1235.87 66.8275 1237.48 78.5149 1237.79 86.4419C1246.17 73.3124 1242.83 60.633 1232.25 52.5709Z" fill="#F6EEE6"/>
<path fill-rule="evenodd" clip-rule="evenodd" d="M1364.66 107.614C1376.44 113.83 1389.26 111.433 1397.55 98.4136C1385.14 100.477 1375.66 104.546 1372.73 105.399C1378.1 101.806 1389.4 98.4087 1397.17 96.8404C1382.96 90.5055 1370.89 95.9433 1364.66 107.614Z" fill="#F6EEE6"/>
<path fill-rule="evenodd" clip-rule="evenodd" d="M1272.87 65.5136C1259.68 63.7967 1248.5 70.3648 1245.27 85.5191C1256.25 79.2763 1263.6 72.22 1266.17 70.4276C1262.35 75.6549 1252.89 82.7922 1246.17 86.9664C1261.66 87.8542 1271.15 78.599 1272.87 65.5136Z" fill="#F6EEE6"/>
<path fill-rule="evenodd" clip-rule="evenodd" d="M1037.15 242.43C1048.76 235.846 1053.7 223.907 1047.34 209.862C1042.27 221.382 1040.55 231.61 1039.71 234.5C1039.56 227.943 1042.94 216.593 1045.83 209.285C1032.82 217.828 1030.78 230.82 1037.15 242.43Z" fill="#F6EEE6"/>
<path fill-rule="evenodd" clip-rule="evenodd" d="M1039.81 96.5767C1035 108.934 1038.76 121.386 1052.67 128.156C1049.13 116.013 1044.03 107.106 1042.86 104.293C1047.07 109.212 1051.72 120.042 1054.13 127.676C1058.96 112.672 1052.17 101.395 1039.81 96.5767Z" fill="#F6EEE6"/>
<path fill-rule="evenodd" clip-rule="evenodd" d="M1001.31 152.457C998.758 165.892 1005.01 177.19 1019.57 181.289C1013.94 169.967 1007.29 162.072 1005.71 159.486C1010.74 163.633 1017.26 173.545 1020.91 180.496C1022.96 164.964 1014.32 155.028 1001.31 152.457Z" fill="#F6EEE6"/>
<path fill-rule="evenodd" clip-rule="evenodd" d="M1014.34 127.932C1026.75 134.124 1032.09 146.198 1026.28 160.498C1020.55 148.969 1018.36 138.786 1017.29 135.863C1017.55 142.522 1021.48 153.803 1024.83 161.189C1011.19 153.245 1008.35 140.122 1014.34 127.932Z" fill="#F6EEE6"/>
<path fill-rule="evenodd" clip-rule="evenodd" d="M1048.8 253.522C1056.97 245.694 1067.83 244.748 1077.47 253.269C1066.94 254.52 1058.32 253.475 1055.78 253.466C1061.03 255.064 1070.99 255.212 1077.63 254.639C1067.58 262.963 1056.51 261.483 1048.8 253.522Z" fill="#F6EEE6"/>
<path fill-rule="evenodd" clip-rule="evenodd" d="M1221.68 355.853C1214.75 338.434 1198.99 329.178 1178.16 335.539C1193.32 344.772 1207.18 349.032 1211.14 350.825C1202.08 349.732 1186.83 343.031 1177.04 337.584C1186.43 357.335 1204.27 362.644 1221.68 355.853Z" fill="#F6EEE6"/>
<path fill-rule="evenodd" clip-rule="evenodd" d="M1148.78 544.898C1147.1 531.414 1154.09 520.455 1168.9 517.347C1162.54 528.281 1155.52 535.642 1153.71 538.146C1158.96 534.346 1166.12 524.968 1170.3 518.14C1171.11 533.774 1161.84 543.127 1148.78 544.898Z" fill="#F6EEE6"/>
<path fill-rule="evenodd" clip-rule="evenodd" d="M1185.2 417.985C1169.92 398.546 1146.53 392.572 1122.59 408.411C1145.2 414.415 1164.26 414.862 1169.79 415.631C1157.89 417.658 1136.19 414.761 1121.92 411.381C1141.2 432.827 1165.75 433.063 1185.2 417.985Z" fill="#F6EEE6"/>
<path fill-rule="evenodd" clip-rule="evenodd" d="M1065.15 336.568C1070.07 324.206 1081.25 317.638 1096.03 322.152C1085.27 328.704 1075.44 331.727 1072.63 333C1079.06 332.224 1089.88 327.469 1096.83 323.603C1090.06 337.729 1077.4 341.39 1065.15 336.568Z" fill="#F6EEE6"/>
<path d="M1248.55 491.894C1245.36 488.285 1241.49 480.473 1251.62 478.095C1249.28 462.018 1269.95 458.198 1262.7 476.946C1271.73 474.055 1276.07 484.628 1272.61 492.337C1277.45 492.315 1284.52 497.178 1275.48 507.71C1283.1 505.577 1286 516.054 1278.1 521.135C1302.06 524.19 1287.64 546.353 1268.03 549.701C1267.89 549.726 1267.76 549.75 1267.62 549.773C1246.13 553.418 1228.24 535.469 1248.5 528.923C1237.73 524.12 1230.68 515.829 1245.72 510.963C1239.83 506.382 1235.3 492.801 1248.55 491.894Z" fill="#EEDFD1"/>
<path d="M1396.09 585.709C1401.48 603.532 1384.78 620.36 1390.18 630.934C1377.32 627.274 1351.22 619.392 1353.68 596.102C1354.84 585.005 1360.9 576.81 1368.18 572.857C1378.56 567.222 1391.41 570.21 1396.09 585.709Z" fill="#EEDFD1"/>
<path d="M1345.12 531.419C1366.23 526.416 1384.63 547.027 1397.32 541.499C1392.15 556.202 1381.13 586.003 1354.21 581.505C1341.38 579.362 1332.28 571.731 1328.19 562.983C1322.37 550.511 1326.76 535.768 1345.12 531.419Z" fill="#EEDFD1"/>
<path d="M1334.98 527.547C1342.15 519.111 1355.94 522.025 1359.48 515.921C1361.8 523.526 1366.28 539.103 1353.85 545.388C1347.93 548.382 1341.88 547.997 1337.56 545.635C1331.4 542.267 1328.75 534.882 1334.98 527.547Z" fill="#EEDFD1"/>
<path d="M1344.53 541.47C1342.31 514.026 1310.24 499.877 1311.95 482.406C1296.22 494.392 1264.56 519.339 1280.52 550.078C1288.12 564.724 1300.89 572.732 1313.04 574.241C1330.37 576.393 1346.46 565.336 1344.53 541.47Z" fill="#EEDFD1"/>
<path d="M-5.37741 540.251C-9.33466 539.435 -15.8494 536.133 -10.2504 529.452C-19.8971 519.84 -7.94829 506.894 -3.39384 523.115C1.21411 516.639 9.43685 521.553 10.9867 528.465C14.2233 526.018 21.4108 525.729 20.6333 537.339C24.6801 532.076 31.8894 537.649 29.1389 545.027C46.7465 535.045 48.2042 557.159 36.7311 569.254C36.6518 569.339 36.5721 569.424 36.4921 569.508C23.904 582.749 2.88537 579.691 13.1917 565.121C3.55086 567.31 -5.34254 565.286 2.30066 554.469C-3.95084 554.353 -13.8138 547.517 -5.37741 540.251Z" fill="#F5EBE2"/>
<path d="M194.726 511.362C179.249 491.887 148.065 497.412 140.558 483.442C134.791 500.35 123.588 535.005 151.031 550.038C164.105 557.2 177.718 556.781 187.598 551.795C201.684 544.687 208.184 528.298 194.726 511.362Z" fill="#F6EEE6"/>
<path d="M136.994 538.953C149.559 548.208 146.812 567.885 155.743 572.27C145.275 576.274 123.807 584.093 113.752 567.235C108.961 559.203 108.911 550.659 111.81 544.351C115.942 535.357 126.067 530.905 136.994 538.953Z" fill="#F6ECE4"/>
<path d="M132.931 562.933C121.202 556.78 113.829 548.138 109.63 540.912M155.743 572.27C146.812 567.885 149.559 548.208 136.994 538.953C118.403 525.26 102.132 547.752 113.752 567.235C123.807 584.093 145.275 576.274 155.743 572.27Z" stroke="#F4EAE1" stroke-width="1.76156" stroke-linecap="round" stroke-linejoin="round"/>
<path d="M71.2219 544.741C78.7497 525.023 105.388 521.501 107.88 508.278C116.877 520.476 134.818 545.635 116.474 564.826C107.734 573.969 96.6166 577.118 87.3477 575.617C74.1332 573.478 64.6759 561.887 71.2219 544.741Z" fill="#F1E4D9"/>
<path d="M28.0557 550.93L14.3166 548.445L30.2609 591.559L30.6429 591.394L92.0942 564.947L80.1958 553.987L86.57 540.744L69.5903 550.1L85.7756 516.854L76.287 522.082L72.3644 509.647L60.0119 523.266L57.1326 518.04L41.9508 544.247L33.0442 538.126L28.0557 550.93Z" fill="#F4EAE1"/>
<path d="M769.791 598.081C787.459 583.647 814.327 594.681 823.78 583.626C825.65 599.903 828.929 633.145 801.404 641.263C788.29 645.131 776.173 642.1 768.291 635.705C757.054 626.588 754.426 610.632 769.791 598.081Z" fill="#F6ECE4"/>
<path d="M918.263 566.051C916.022 576.045 908.91 580.833 901.067 583.033C893.267 585.22 884.624 584.891 879.037 584.622C878.687 584.605 878.38 584.382 878.256 584.055C878.131 583.727 878.213 583.357 878.464 583.112C880.032 581.579 880.781 579.399 881.093 576.638C881.367 574.212 881.295 571.461 881.216 568.47C881.205 568.042 881.194 567.609 881.183 567.172C881.017 560.274 881.066 552.351 885.781 545.728C889.841 540.024 894.793 537.35 899.691 537.128C904.081 536.929 908.306 538.707 911.665 541.822C911.885 540.987 912.078 540.172 912.246 539.38C912.347 538.904 912.814 538.6 913.29 538.701C913.766 538.802 914.07 539.27 913.969 539.746C913.727 540.884 913.437 542.066 913.092 543.283C917.804 548.612 920.32 556.871 918.263 566.051Z" fill="#EBDACB"/>
<path d="M927.468 563.645C916.382 562.97 910.029 556.181 906.321 548.163C902.634 540.19 901.496 530.88 900.82 524.852C900.778 524.474 900.963 524.107 901.293 523.918C901.622 523.728 902.032 523.752 902.338 523.978C904.249 525.393 906.712 525.818 909.723 525.676C912.367 525.551 915.3 524.999 918.489 524.399C918.945 524.313 919.406 524.227 919.873 524.14C927.229 522.773 935.72 521.458 943.624 525.363C950.431 528.727 954.148 533.567 955.23 538.772C956.2 543.439 955.026 548.268 952.271 552.402C953.202 552.493 954.108 552.559 954.985 552.602C955.512 552.629 955.918 553.077 955.892 553.604C955.866 554.13 955.417 554.536 954.89 554.51C953.63 554.448 952.315 554.341 950.952 554.181C946.06 560.145 937.651 564.264 927.468 563.645Z" fill="#EBDACB"/>
<path d="M941.543 511.088C950.029 485.205 984.151 479.022 986.547 461.821C998.898 476.99 1023.58 508.315 1001.12 534.186C990.414 546.512 976.277 551.258 964.236 549.895C947.069 547.953 934.163 533.595 941.543 511.088Z" fill="#E8D6C6"/>
<path d="M938.389 455.733C932.185 443.851 915.122 443.598 912.573 435.44C907.799 443.799 898.34 460.994 911.329 471.745C917.868 477.157 925.587 478.151 931.459 476.096C939.065 473.434 943.57 465.654 938.389 455.733Z" fill="#FAF5F0"/>
<path d="M917.501 456.031C921.182 466.795 932.585 478.941 942.585 484.441M912.573 435.44C915.122 443.598 932.185 443.851 938.389 455.733C947.569 473.313 926.339 484.169 911.329 471.745C898.34 460.994 907.799 443.799 912.573 435.44Z" stroke="#FAF5F0" stroke-width="2" stroke-linecap="round" stroke-linejoin="round"/>
<path d="M545.074 597.48L557.172 585.027L572.236 640.168L571.731 640.278L490.444 657.986L494.55 638.293L478.521 629.51L502.464 626.689L462.042 604.772L475.421 603.196L470.392 587.781L492.738 592.618L491.87 585.25L526.184 600.772L530.765 588.138L545.074 597.48Z" fill="#F7EFE7"/>
<path d="M624.357 607.015C624.219 606.464 623.66 606.127 623.108 606.264C622.555 606.401 622.219 606.959 622.357 607.511C622.921 609.768 624.467 612.325 626.476 614.766C626.483 614.827 626.495 614.888 626.513 614.948C629.275 624.145 633.469 629.998 638.214 633.051C642.988 636.122 648.213 636.285 652.789 634.294C661.894 630.335 668.242 618.009 664.211 603.592C664.095 603.178 663.733 602.879 663.304 602.842C662.875 602.806 662.468 603.041 662.286 603.43C655.392 618.117 639.416 623.028 629.192 614.76C626.696 612.014 624.905 609.208 624.357 607.015Z" fill="#F5EBE2"/>
<path d="M584.434 616.249C573.068 606.964 555.786 614.062 549.705 606.95C548.502 617.421 546.393 638.803 564.099 644.025C572.534 646.514 580.328 644.564 585.398 640.45C592.626 634.586 594.317 624.322 584.434 616.249Z" fill="#F6EEE6"/>
<path d="M652.637 551.907C641.862 548.377 631.38 558.301 625.019 554.867C627.065 562.749 631.494 578.747 645.709 577.585C652.865 577 658.126 573.042 660.468 568.33C663.501 562.226 661.634 554.854 652.637 551.907Z" fill="#FAF5F0"/>
<path d="M640.164 564.424C648.751 568.768 662.83 569.387 672.134 566.811M625.019 554.867C631.38 558.301 641.862 548.377 652.637 551.907C668.579 557.129 662.136 576.242 645.709 577.585C631.494 578.747 627.065 562.749 625.019 554.867Z" stroke="#FAF5F0" stroke-width="2" stroke-linecap="round" stroke-linejoin="round"/>
<path d="M637.699 605.266C629.28 589.143 606.125 588.798 602.667 577.729C596.188 589.072 583.353 612.405 600.978 626.994C609.375 633.944 619.207 635.525 626.991 633.312C638.087 630.156 645.021 619.287 637.699 605.266Z" fill="#F1E4D9"/>
<path d="M584.935 607.249C596.3 597.964 613.582 605.062 619.663 597.95C620.866 608.421 622.975 629.803 605.27 635.025C596.834 637.514 589.04 635.564 583.97 631.45C576.742 625.586 575.052 615.322 584.935 607.249Z" fill="#F6EEE6"/>
<path d="M603.976 643.247C586.996 638.536 571.431 654.692 561.31 649.814C565.049 661.904 573.067 686.427 595.053 683.608C605.527 682.265 613.152 676.354 616.736 669.382C621.846 659.442 618.742 647.343 603.976 643.247Z" fill="#F1E4D9"/>
<path d="M585.506 663.571C599.147 669.702 611.964 670.228 621.31 668.921M561.31 649.814C571.431 654.692 586.996 638.536 603.976 643.247C629.1 650.217 620.461 680.35 595.053 683.608C573.067 686.427 565.049 661.904 561.31 649.814Z" stroke="#F1E4D9" stroke-width="1.76156" stroke-linecap="round" stroke-linejoin="round"/>
<path d="M304.343 494.312C301.163 490.87 297.252 483.355 307.044 480.838C304.442 465.26 324.453 461.126 317.789 479.496C326.508 476.503 330.941 486.691 327.733 494.255C332.437 494.135 339.409 498.718 330.833 509.138C338.204 506.91 341.236 517.034 333.658 522.133C357.003 524.615 343.438 546.45 324.451 550.103C324.318 550.13 324.186 550.156 324.053 550.181C303.241 554.16 285.49 537.078 305.049 530.304C294.481 525.855 287.463 517.94 301.977 512.904C296.161 508.572 291.48 495.464 304.343 494.312Z" fill="#F5EBE2"/>
<path d="M488.884 610.339C497.754 594.8 485.733 575.451 493.057 566.705C480.224 567.371 454.088 569.149 451.381 591.492C450.091 602.137 454.008 611.116 459.977 616.382C468.488 623.89 481.17 623.852 488.884 610.339Z" fill="#F6EEE6"/>
<path d="M431.313 554.854C446.387 550.817 460.043 565.247 469.044 561.009C465.637 571.685 458.342 593.337 438.895 590.667C429.63 589.395 422.925 584.1 419.806 577.897C415.36 569.054 418.204 558.365 431.313 554.854Z" fill="#F6ECE4"/>
<path d="M447.508 572.999C435.38 578.32 424.025 578.684 415.759 577.453M469.044 561.009C460.043 565.247 446.387 550.817 431.313 554.854C409.01 560.827 416.421 587.581 438.895 590.667C458.342 593.337 465.637 571.685 469.044 561.009Z" stroke="#F4EAE1" stroke-width="1.76156" stroke-linecap="round" stroke-linejoin="round"/>
<path d="M408.569 525.285C426.177 520.723 441.955 537.673 452.487 532.818C448.414 545.229 439.705 570.396 417.065 567.098C406.278 565.527 398.513 559.292 394.938 552.033C389.84 541.683 393.257 529.252 408.569 525.285Z" fill="#F1E4D9"/>
<path d="M347.355 546.699C364.963 542.137 380.742 559.086 391.274 554.232C387.201 566.643 378.492 591.81 355.851 588.512C345.065 586.941 337.3 580.706 333.725 573.446C328.627 563.097 332.043 550.666 347.355 546.699Z" fill="#F1E4D9"/>
<path d="M345.12 510.497L332.334 504.889L337.828 550.526L338.238 550.455L404.152 539.005L395.124 525.582L404.401 514.181L385.712 519.337L409.177 490.76L398.733 493.642L397.807 480.635L382.629 491.012L381.042 485.261L360.188 507.224L352.947 499.202L345.12 510.497Z" fill="#F4EAE1"/>
<path d="M507.244 707.106C519.001 709.034 527.258 703.418 532.989 695.98C538.672 688.604 542.021 679.271 544.109 673.271C544.314 672.684 544.15 672.03 543.693 671.608C543.236 671.186 542.572 671.075 542.002 671.325C539.892 672.252 537.427 672.148 534.437 671.319C531.804 670.589 528.974 669.362 525.849 668.006C525.402 667.812 524.95 667.616 524.492 667.419C517.302 664.319 508.766 660.919 499.577 663.125C492.02 664.94 487.03 668.862 484.518 673.833C482.39 678.042 482.122 682.843 483.392 687.444C477.85 686.761 472.612 685.569 468.194 683.951C467.383 683.654 466.484 684.071 466.187 684.882C465.89 685.693 466.307 686.592 467.118 686.889C472.222 688.758 478.274 690.063 484.575 690.728C488.067 698.537 496.067 705.273 507.244 707.106Z" fill="#F1E4D9"/>
<path d="M308.244 755.106C320.001 757.034 328.258 751.418 333.989 743.98C339.672 736.604 343.021 727.271 345.109 721.271C345.314 720.684 345.15 720.03 344.693 719.608C344.236 719.186 343.572 719.075 343.002 719.325C340.892 720.252 338.427 720.148 335.437 719.319C332.804 718.589 329.974 717.362 326.849 716.006C326.402 715.812 325.95 715.616 325.492 715.419C318.302 712.319 309.766 708.919 300.577 711.125C293.02 712.94 288.03 716.862 285.518 721.833C283.39 726.042 283.122 730.843 284.392 735.444C278.85 734.761 273.612 733.569 269.194 731.951C268.383 731.654 267.484 732.071 267.187 732.882C266.89 733.693 267.307 734.592 268.118 734.889C273.222 736.758 279.274 738.063 285.575 738.728C289.067 746.537 297.067 753.273 308.244 755.106Z" fill="#F1E4D9"/>
<path d="M145.102 676.318C133.344 674.389 125.087 680.006 119.356 687.444C113.673 694.819 110.325 704.153 108.236 710.152C108.032 710.74 108.195 711.393 108.652 711.815C109.109 712.238 109.773 712.349 110.343 712.099C112.453 711.171 114.919 711.275 117.908 712.104C120.541 712.834 123.371 714.062 126.497 715.418C126.943 715.611 127.395 715.807 127.853 716.005C135.043 719.105 143.579 722.504 152.768 720.298C160.325 718.484 165.315 714.561 167.828 709.591C169.955 705.381 170.224 700.58 168.953 695.98C174.495 696.663 179.733 697.855 184.151 699.473C184.963 699.77 185.861 699.353 186.158 698.542C186.455 697.731 186.039 696.832 185.227 696.535C180.123 694.665 174.071 693.36 167.77 692.695C164.279 684.886 156.278 678.15 145.102 676.318Z" fill="#F1E4D9"/>
<path d="M107.819 648.362C97.9934 646.751 91.093 651.445 86.3036 657.661C81.5548 663.824 78.7563 671.624 77.0111 676.638C76.8401 677.129 76.9766 677.675 77.3586 678.028C77.7407 678.381 78.2956 678.474 78.7718 678.264C80.5351 677.49 82.5955 677.576 85.0939 678.269C87.294 678.879 89.6593 679.905 92.2712 681.038C92.6439 681.2 93.022 681.364 93.405 681.529C99.4133 684.12 106.547 686.96 114.226 685.117C120.541 683.601 124.712 680.322 126.811 676.169C128.589 672.651 128.813 668.639 127.752 664.794C132.383 665.365 136.76 666.361 140.453 667.713C141.131 667.961 141.881 667.613 142.13 666.935C142.378 666.257 142.03 665.506 141.352 665.258C137.086 663.695 132.029 662.605 126.763 662.049C123.845 655.523 117.159 649.894 107.819 648.362Z" fill="#F1E4D9"/>
<path d="M383.35 718.085C392.993 725.082 402.892 723.767 411.351 719.69C419.738 715.647 426.918 708.807 431.475 704.382C431.922 703.948 432.069 703.291 431.85 702.709C431.631 702.126 431.087 701.729 430.465 701.697C428.164 701.579 426.007 700.381 423.706 698.299C421.681 696.465 419.702 694.099 417.517 691.485C417.205 691.112 416.889 690.734 416.568 690.351C411.532 684.356 405.428 677.489 396.226 675.338C388.658 673.57 382.438 674.838 377.964 678.153C374.174 680.961 371.78 685.131 370.852 689.813C366.205 686.717 362.058 683.302 358.836 679.874C358.244 679.244 357.254 679.214 356.624 679.806C355.995 680.397 355.964 681.387 356.556 682.017C360.28 685.978 365.103 689.858 370.437 693.279C370.054 701.825 374.183 711.434 383.35 718.085Z" fill="#F1E4D9"/>
<path d="M89.7822 647.637C78.9141 655.523 67.7578 654.04 58.2251 649.445C48.7728 644.889 40.6813 637.18 35.5451 632.193C35.0418 631.705 34.8761 630.964 35.123 630.308C35.37 629.651 35.9826 629.203 36.6831 629.168C39.2773 629.035 41.7081 627.684 44.3004 625.338C46.5832 623.271 48.8134 620.604 51.2761 617.658C51.6276 617.238 51.984 616.812 52.3458 616.381C58.0205 609.624 64.8999 601.885 75.2704 599.461C83.8001 597.468 90.8094 598.897 95.8525 602.633C100.124 605.798 102.821 610.498 103.867 615.774C109.104 612.285 113.778 608.436 117.41 604.573C118.077 603.863 119.192 603.829 119.902 604.496C120.611 605.163 120.646 606.279 119.979 606.988C115.782 611.452 110.347 615.825 104.336 619.681C104.767 629.311 100.113 640.141 89.7822 647.637Z" fill="#F1E4D9"/>
<path d="M178.684 750.736C169.04 757.733 159.141 756.417 150.683 752.34C142.296 748.297 135.116 741.457 130.559 737.032C130.112 736.599 129.965 735.942 130.184 735.359C130.403 734.777 130.947 734.379 131.568 734.348C133.87 734.23 136.027 733.031 138.327 730.949C140.353 729.116 142.332 726.749 144.517 724.135C144.829 723.762 145.145 723.384 145.466 723.002C150.501 717.006 156.605 710.139 165.807 707.989C173.376 706.22 179.595 707.488 184.07 710.803C187.86 713.611 190.253 717.782 191.182 722.463C195.829 719.367 199.975 715.952 203.198 712.524C203.79 711.895 204.78 711.864 205.409 712.456C206.039 713.048 206.069 714.038 205.478 714.667C201.754 718.628 196.931 722.509 191.597 725.93C191.98 734.475 187.851 744.084 178.684 750.736Z" fill="#F1E4D9"/>
<path d="M187.798 733.823C193.261 744.411 202.693 747.691 212.082 747.856C221.391 748.02 230.881 745.142 236.942 743.242C237.536 743.055 237.963 742.535 238.029 741.916C238.095 741.297 237.789 740.698 237.248 740.39C235.245 739.249 233.859 737.208 232.741 734.313C231.757 731.765 231.055 728.76 230.28 725.443C230.169 724.97 230.057 724.489 229.942 724.004C228.144 716.384 225.783 707.504 218.532 701.443C212.569 696.458 206.445 694.791 200.957 695.739C196.309 696.541 192.295 699.188 189.359 702.951C186.602 698.095 184.436 693.18 183.1 688.668C182.855 687.84 181.985 687.367 181.156 687.612C180.328 687.857 179.855 688.728 180.1 689.556C181.643 694.769 184.204 700.405 187.428 705.86C183.241 713.319 182.604 723.758 187.798 733.823Z" fill="#F1E4D9"/>
<path d="M249.326 700.078L247.622 686.22L211.183 714.242L211.454 714.558L254.948 765.391L261.882 750.776L276.421 752.932L262.446 739.495L298.998 745.083L291.189 737.574L301.9 730.137L285.229 722.383L289.364 718.083L259.833 711.363L263.035 701.041L249.326 700.078Z" fill="#F4EAE1"/>
<path d="M409.663 412.381C416.86 398.599 436.652 398.305 439.608 388.843C445.146 398.539 456.117 418.483 441.051 430.953C433.873 436.894 425.47 438.246 418.817 436.354C409.331 433.656 403.405 424.366 409.663 412.381Z" fill="#FAF5F0"/>
<path d="M683.073 622.232C679.033 622.276 671.965 620.435 676.015 612.716C664.545 605.376 673.467 590.185 681.367 605.065C684.492 597.758 693.572 600.811 696.556 607.235C699.199 604.156 706.16 602.345 707.87 613.854C710.704 607.851 718.934 611.763 717.816 619.558C732.897 606.058 739.025 627.357 730.387 641.615C730.328 641.715 730.268 641.815 730.208 641.914C720.724 657.529 699.536 659.012 706.507 642.583C697.552 646.772 688.432 646.687 693.6 634.492C687.467 635.708 676.375 631.126 683.073 622.232Z" fill="#F5EBE2"/>
<path d="M878.09 544.868C864.233 533.548 843.161 542.202 835.748 533.531C834.281 546.297 831.71 572.368 853.297 578.735C863.582 581.768 873.084 579.391 879.266 574.376C888.079 567.225 890.14 554.712 878.09 544.868Z" fill="#F6EEE6"/>
<path d="M826.696 568.764C840.942 575.135 842.443 594.946 852.102 597.331C842.726 603.47 823.412 615.677 810.002 601.342C803.612 594.513 801.746 586.176 803.237 579.395C805.361 569.728 814.308 563.224 826.696 568.764Z" fill="#F6ECE4"/>
<path d="M827.827 593.06C815.058 589.542 806.015 582.666 800.375 576.498M852.102 597.331C842.443 594.946 840.942 575.135 826.696 568.764C805.619 559.338 794.503 584.777 810.002 601.342C823.412 615.677 842.726 603.47 852.102 597.331Z" stroke="#F4EAE1" stroke-width="1.76156" stroke-linecap="round" stroke-linejoin="round"/>
<path d="M764.326 571.266C772.745 555.143 795.9 554.798 799.358 543.729C805.837 555.072 818.672 578.405 801.047 592.994C792.649 599.944 782.818 601.525 775.034 599.312C763.938 596.156 757.004 585.287 764.326 571.266Z" fill="#F1E4D9"/>
<path d="M722.798 603.637L708.845 604.132L733.594 642.867L733.932 642.625L788.352 603.713L774.395 595.535L777.807 581.239L763.206 593.992L771.95 558.064L763.79 565.191L757.312 553.875L748.139 569.809L744.214 565.316L734.953 594.151L724.949 590.065L722.798 603.637Z" fill="#F4EAE1"/>
<path d="M1385.77 486.834C1383.45 462.913 1362.03 448.368 1351.61 444.086C1343.19 461.614 1342.96 482.706 1343.9 491.061C1337.22 481.089 1319.23 475.919 1311.07 474.58M1311.07 474.58C1322.43 464.481 1322.75 450.93 1321.49 445.417C1306.42 442.173 1293.44 444.675 1288.83 446.331L1290.84 434.117M1311.07 474.58C1302.81 481.92 1289.77 482.181 1275.9 479.906M1302.39 456.762C1287.63 459.197 1274.98 480.005 1270.5 490.105" stroke="#EEDFD1" stroke-width="2" stroke-linecap="round" stroke-linejoin="round"/>
<path d="M172.77 454.834C170.453 430.913 149.031 416.368 138.61 412.086C130.187 429.614 129.963 450.706 130.904 459.061C124.219 449.089 106.229 443.919 98.0698 442.58M98.0698 442.58C109.434 432.481 109.75 418.93 108.488 413.417C93.4178 410.173 80.4391 412.675 75.8334 414.331L77.837 402.117M98.0698 442.58C89.8101 449.92 76.7664 450.181 62.898 447.906M89.3934 424.762C74.6292 427.197 61.9783 448.005 57.4984 458.105" stroke="#F4EAE1" stroke-width="2" stroke-linecap="round" stroke-linejoin="round"/>
<path d="M242.252 503.727C227.759 495.314 209.557 506.443 201.415 499.524C201.953 511.547 203.442 536.036 224.349 538.722C234.309 540.002 242.745 536.394 247.717 530.839C254.805 522.919 254.855 511.042 242.252 503.727Z" fill="#FA873F"/>
<path d="M220.375 517.993C231.455 526.91 243.123 530.472 252.037 531.514M201.415 499.524C209.557 506.443 227.759 495.314 242.252 503.727C263.695 516.173 248.51 541.826 224.349 538.722C203.442 536.036 201.953 511.547 201.415 499.524Z" stroke="black" stroke-width="2" stroke-linecap="round" stroke-linejoin="round"/>
<path opacity="0.5" d="M402.423 568.915C363.795 554.076 332.382 566.079 315.505 589.169C348.622 606.602 359.995 613.901 402.423 568.915Z" fill="#EAEAEA"/>
<path opacity="0.5" d="M253.458 701.227C224.239 728.566 194.001 726.361 173.277 708.282C197.059 680.062 204.874 669.038 253.458 701.227Z" fill="#EAEAEA"/>
<path d="M168.96 684.847C192.266 717.101 219.43 713.477 251.831 700.721C230.099 678.82 207.382 653.23 169.61 684.308C169.394 684.485 169.177 684.665 168.96 684.847Z" fill="white"/>
<path d="M217.903 693.364C194.496 691.897 168.393 684.318 158.268 680.712M251.831 700.721C219.43 713.477 192.266 717.101 168.96 684.847C207.122 652.937 229.974 678.695 251.831 700.721Z" stroke="#FFC692" stroke-width="2" stroke-linecap="round" stroke-linejoin="round"/>
<path d="M373.133 688.401C410.713 701.487 430.902 682.955 450.152 653.938C419.792 648.437 386.513 640.476 373.357 687.587C373.282 687.857 373.207 688.128 373.133 688.401Z" fill="white"/>
<path d="M418.128 667.344C398.102 679.551 372.366 688.293 362.001 691.138M450.152 653.938C430.902 682.955 410.713 701.487 373.133 688.401C386.132 640.384 419.618 648.405 450.152 653.938Z" stroke="#FFC692" stroke-width="2" stroke-linecap="round" stroke-linejoin="round"/>
<path d="M314.176 690.198C324.712 728.571 351.426 734.688 386.242 734.086C373.554 705.961 361.237 674.037 314.974 689.921C314.709 690.011 314.443 690.104 314.176 690.198Z" fill="white"/>
<path d="M357.038 715.314C335.626 705.744 313.83 689.505 305.609 682.581M386.242 734.086C351.426 734.688 324.712 728.571 314.176 690.198C361.096 673.671 373.482 705.801 386.242 734.086Z" stroke="#E5D1C0" stroke-width="2" stroke-linecap="round" stroke-linejoin="round"/>
<path d="M237.069 559.865C230.799 520.568 204.916 511.562 170.243 508.348C179.774 537.693 188.521 570.775 236.246 560.053C236.519 559.992 236.793 559.929 237.069 559.865Z" fill="#FF8C25"/>
<path d="M197.216 530.206C217.45 542.063 237.337 560.592 244.751 568.374M170.243 508.348C204.916 511.562 230.799 520.568 237.069 559.865C188.621 571.153 179.829 537.861 170.243 508.348Z" stroke="black" stroke-width="2" stroke-linecap="round" stroke-linejoin="round"/>
<path d="M204.069 518.934C197.799 479.637 171.916 470.631 137.243 467.417C146.774 496.762 155.521 529.844 203.246 519.122C203.519 519.061 203.793 518.998 204.069 518.934Z" fill="#FF8C25"/>
<path d="M164.216 489.275C184.45 501.132 204.337 519.661 211.751 527.443M137.243 467.417C171.916 470.631 197.799 479.637 204.069 518.934C155.621 530.222 146.829 496.93 137.243 467.417Z" stroke="black" stroke-width="2" stroke-linecap="round" stroke-linejoin="round"/>
<path d="M319.133 650.279L330.716 640.83L338.032 689.601L337.589 689.644L266.399 696.612L271.886 680.152L259.083 671.007H279.811L247.5 648.145H259.083L256.34 634.428L274.934 640.83V634.428L302.673 651.194L307.855 640.83L319.133 650.279Z" fill="white"/>
<path d="M290.48 660.948C316.178 681.751 334.235 689.727 350.127 693.366M330.716 640.83L319.133 650.279L307.855 640.83L302.673 651.194L274.934 634.428V640.83L256.34 634.428L259.083 648.145H247.5L279.811 671.007H259.083L271.886 680.152L266.399 696.612L338.032 689.601L330.716 640.83Z" stroke="#FFC692" stroke-width="2" stroke-linecap="round" stroke-linejoin="round"/>
<path d="M362.553 591.095L373.832 581.645L379.014 592.009L406.752 575.244V581.645L425.346 575.244" stroke="black" stroke-width="2" stroke-linecap="round" stroke-linejoin="round"/>
<path d="M174.82 571.661C155.148 568.621 146.63 544.754 133.943 545.073C143.411 534.363 163.061 512.841 184.387 525.959C194.548 532.209 199.651 541.838 200.101 550.682C200.743 563.291 191.926 574.305 174.82 571.661Z" fill="#FFC835"/>
<path d="M165.247 542.152C182.141 542.179 195.581 547.594 204.597 553.282M133.943 545.073C146.63 544.754 155.148 568.621 174.82 571.661C203.925 576.159 209.033 541.12 184.387 525.959C163.061 512.841 143.411 534.363 133.943 545.073Z" stroke="black" stroke-width="2" stroke-linecap="round" stroke-linejoin="round"/>
<path d="M156.912 530.227C168.951 514.375 158.499 491.289 167.847 482.705C153.596 481.578 124.511 479.747 118.283 503.998C115.316 515.552 118.333 526.023 124.153 532.698C132.45 542.214 146.443 544.012 156.912 530.227Z" fill="#FFC835"/>
<path d="M143.3 502.35C131.166 514.105 125.259 527.337 122.725 537.691M167.847 482.705C158.499 491.289 168.951 514.375 156.912 530.227C139.1 553.681 111.085 532.024 118.283 503.998C124.511 479.747 153.596 481.578 167.847 482.705Z" stroke="black" stroke-width="2" stroke-linecap="round" stroke-linejoin="round"/>
<path d="M196.847 519.989C178.124 517.095 170.016 494.378 157.941 494.681C166.953 484.488 185.656 464.003 205.954 476.489C215.625 482.438 220.482 491.603 220.911 500.02C221.521 512.021 213.129 522.505 196.847 519.989Z" fill="#FF8C25"/>
<path d="M187.736 491.902C203.816 491.927 216.609 497.081 225.19 502.495M157.941 494.681C170.016 494.378 178.124 517.095 196.847 519.989C224.55 524.27 229.412 490.919 205.954 476.489C185.656 464.003 166.953 484.488 157.941 494.681Z" stroke="black" stroke-width="2" stroke-linecap="round" stroke-linejoin="round"/>
<path d="M363.409 594.055C372.992 586.048 367.987 575.475 375.093 571.03C365.539 571.048 345.997 571.308 339.596 583.083C332.198 596.691 349.23 605.901 363.409 594.055Z" fill="#FF8C25"/>
<path d="M358.463 580.29C353.866 582.528 344.354 589.201 343.087 597.99C342.767 601.581 342.907 605.156 343.017 606.494M375.093 571.03C367.987 575.475 372.992 586.048 363.409 594.055C349.23 605.901 332.198 596.691 339.596 583.083C345.997 571.308 365.539 571.048 375.093 571.03Z" stroke="black" stroke-width="2" stroke-linecap="round" stroke-linejoin="round"/>
<path d="M267.917 545.086C249.386 532.149 252.639 503.562 239.548 497.542C254.555 491.36 285.347 479.25 300.524 503.286C307.755 514.738 308.142 527.105 304.178 536.344C298.527 549.517 284.032 556.335 267.917 545.086Z" fill="#FFC835"/>
<path d="M272.917 510.22C290.123 518.696 301.116 530.936 307.46 541.243M239.548 497.542C252.639 503.562 249.386 532.149 267.917 545.086C295.335 564.225 318.064 531.065 300.524 503.286C285.347 479.25 254.555 491.36 239.548 497.542Z" stroke="black" stroke-width="2" stroke-linecap="round" stroke-linejoin="round"/>
<path d="M274.293 572.447C298.4 558.455 328.675 576.965 342.218 565.458C341.323 585.455 338.847 626.189 304.072 630.656C287.504 632.785 273.474 626.784 265.203 617.544C253.413 604.371 253.33 584.615 274.293 572.447Z" fill="#E8D6C6"/>
<path d="M310.577 598.033C330.123 586.688 354.67 601.696 365.65 592.366C364.925 608.58 362.917 641.607 334.722 645.229C321.288 646.955 309.913 642.089 303.207 634.598C293.647 623.917 293.58 607.899 310.577 598.033Z" fill="#FFC835"/>
<path d="M340.08 617.273C325.137 629.299 309.402 634.102 297.381 635.507M365.65 592.366C354.67 601.696 330.123 586.688 310.577 598.033C281.658 614.819 302.137 649.415 334.722 645.229C362.917 641.607 364.925 608.58 365.65 592.366Z" stroke="black" stroke-width="2" stroke-linecap="round" stroke-linejoin="round"/>
<path d="M208.257 491.189L193.487 488.881L211.8 534.672L212.204 534.486L277.17 504.553L264.122 493.115L270.555 478.758L252.664 489.224L269.009 453.176L259.011 459.025L254.453 445.799L241.636 460.714L238.403 455.189L222.926 483.666L213.22 477.337L208.257 491.189Z" fill="#FFC835"/>
<path d="M238.376 485.929C226.699 516.862 215.141 532.863 203.261 544.03M193.487 488.881L208.257 491.189L213.22 477.337L222.926 483.666L238.403 455.189L241.636 460.714L254.453 445.799L259.011 459.025L269.009 453.176L252.664 489.224L270.555 478.758L264.122 493.115L277.17 504.553L211.8 534.672L193.487 488.881Z" stroke="black" stroke-width="2" stroke-linecap="round" stroke-linejoin="round"/>
<path d="M345.873 525.727C360.366 517.314 378.568 528.443 386.71 521.524C386.172 533.547 384.683 558.036 363.776 560.722C353.816 562.002 345.38 558.394 340.408 552.839C333.32 544.919 333.27 533.042 345.873 525.727Z" fill="#FFC835"/>
<path d="M367.75 539.993C356.67 548.91 345.002 552.472 336.088 553.514M386.71 521.524C378.568 528.443 360.366 517.314 345.873 525.727C324.43 538.173 339.615 563.826 363.776 560.722C384.683 558.036 386.172 533.547 386.71 521.524Z" stroke="black" stroke-width="2" stroke-linecap="round" stroke-linejoin="round"/>
<path d="M225.579 556.465C216.799 542.192 227.459 523.712 220.334 515.749C232.367 515.979 256.886 516.842 260.106 537.673C261.64 547.598 258.249 556.123 252.823 561.235C245.087 568.524 233.215 568.878 225.579 556.465Z" fill="#FFC835"/>
<path d="M239.282 534.231C248.479 545.08 252.338 556.652 253.608 565.537M220.334 515.749C227.459 523.712 216.799 542.192 225.579 556.465C238.57 577.584 263.826 561.748 260.106 537.673C256.886 516.842 232.367 515.979 220.334 515.749Z" stroke="black" stroke-width="2" stroke-linecap="round" stroke-linejoin="round"/>
<path d="M224.55 647.033C205.004 635.688 180.457 650.696 169.477 641.366C170.202 657.58 172.21 690.607 200.405 694.229C213.839 695.954 225.214 691.089 231.92 683.597C241.48 672.917 241.547 656.899 224.55 647.033Z" fill="#FA873F"/>
<path d="M195.047 666.273C209.99 678.298 225.725 683.102 237.746 684.507M169.477 641.366C180.457 650.696 205.004 635.688 224.55 647.033C253.469 663.819 232.99 698.415 200.405 694.229C172.21 690.607 170.202 657.58 169.477 641.366Z" stroke="black" stroke-width="2" stroke-linecap="round" stroke-linejoin="round"/>
<path d="M343.252 555.727C328.759 547.314 310.557 558.443 302.415 551.524C302.953 563.547 304.442 588.036 325.349 590.722C335.309 592.002 343.745 588.394 348.717 582.839C355.805 574.919 355.855 563.042 343.252 555.727Z" fill="#FA873F"/>
<path d="M321.375 569.993C332.455 578.91 344.123 582.472 353.037 583.514M302.415 551.524C310.557 558.443 328.759 547.314 343.252 555.727C364.695 568.173 349.51 593.826 325.349 590.722C304.442 588.036 302.953 563.547 302.415 551.524Z" stroke="black" stroke-width="2" stroke-linecap="round" stroke-linejoin="round"/>
<path d="M52.5133 574.5C49.0738 576.62 42.0679 578.685 41.56 569.983C27.9477 569.605 27.7641 551.988 42.2036 560.668C41.1153 552.795 50.47 550.732 56.3381 554.699C57.0156 550.699 62.0479 545.559 69.4447 554.54C68.7799 547.935 77.8486 547.046 80.9077 554.302C86.8745 534.961 103.103 550.054 103.049 566.725C103.05 566.842 103.05 566.958 103.05 567.074C102.97 585.343 85.5766 597.534 83.0839 579.862C77.5691 588.067 69.7095 592.695 67.8526 579.58C63.2237 583.784 51.3573 585.573 52.5133 574.5Z" fill="#FFC835"/>
<path d="M103.05 567.074C102.97 585.343 85.5766 597.534 83.0839 579.862C77.5691 588.067 69.7095 592.695 67.8526 579.58C63.2237 583.784 51.3573 585.573 52.5133 574.5C49.0738 576.62 42.0679 578.685 41.56 569.983C27.9477 569.605 27.7641 551.988 42.2036 560.668C41.1153 552.795 50.47 550.732 56.3381 554.699C57.0156 550.699 62.0479 545.559 69.4447 554.54C68.7799 547.935 77.8486 547.046 80.9077 554.302C86.8745 534.961 103.103 550.054 103.049 566.725C103.05 566.842 103.05 566.958 103.05 567.074ZM103.05 567.074C98.2001 568.539 93.0433 569.701 87.763 570.33M103.05 567.074C106.757 565.954 110.284 564.657 113.55 563.286" stroke="black" stroke-width="2" stroke-linecap="round" stroke-linejoin="round"/>
<path d="M101.438 613.82C86.3014 608.336 83.2691 588.065 73.1512 586.336C82.3374 579.316 101.293 565.305 116.168 579.046C123.255 585.593 125.801 594.031 124.777 601.12C123.317 611.226 114.6 618.59 101.438 613.82Z" fill="#FF8C25"/>
<path d="M98.4496 588.908C111.852 591.567 121.673 597.963 127.939 603.885M73.1512 586.336C83.2691 588.065 86.3014 608.336 101.438 613.82C123.833 621.935 133.359 594.927 116.168 579.046C101.293 565.305 82.3374 579.316 73.1512 586.336Z" stroke="black" stroke-width="2" stroke-linecap="round" stroke-linejoin="round"/>
<path d="M336.13 547.759C346.497 535.441 338.987 516.37 346.885 509.814C335.42 508.327 311.999 505.671 305.987 525.009C303.123 534.222 305.136 542.803 309.568 548.43C315.885 556.452 327.116 558.471 336.13 547.759Z" fill="#FF8C25"/>
<path d="M326.262 524.69C315.985 533.695 310.678 544.144 308.212 552.406M346.885 509.814C338.987 516.37 346.497 535.441 336.13 547.759C320.793 565.985 299.039 547.357 305.987 525.009C311.999 505.671 335.42 508.327 346.885 509.814Z" stroke="black" stroke-width="2" stroke-linecap="round" stroke-linejoin="round"/>
<path d="M378.13 658.759C388.497 646.441 380.987 627.37 388.885 620.814C377.42 619.327 353.999 616.671 347.987 636.009C345.123 645.222 347.136 653.803 351.568 659.43C357.885 667.452 369.116 669.471 378.13 658.759Z" fill="#FF8C25"/>
<path d="M368.262 635.69C357.985 644.695 352.678 655.144 350.212 663.406M388.885 620.814C380.987 627.37 388.497 646.441 378.13 658.759C362.793 676.985 341.039 658.357 347.987 636.009C353.999 616.671 377.42 619.327 388.885 620.814Z" stroke="black" stroke-width="2" stroke-linecap="round" stroke-linejoin="round"/>
<path d="M372.504 649.718C392.318 660.586 392.158 689.357 405.821 693.935C391.566 701.694 362.255 717.046 344.581 694.781C336.16 684.173 334.446 671.92 337.393 662.308C341.595 648.603 355.273 640.266 372.504 649.718Z" fill="#FFC835"/>
<path d="M371.282 684.919C353.264 678.342 341.019 667.355 333.603 657.79M405.821 693.935C392.158 689.357 392.318 660.586 372.504 649.718C343.187 633.637 324.155 669.05 344.581 694.781C362.255 717.046 391.566 701.694 405.821 693.935Z" stroke="black" stroke-width="2" stroke-linecap="round" stroke-linejoin="round"/>
<path d="M467.734 668.908C484.715 664.197 500.28 680.353 510.401 675.476C506.662 687.566 498.644 712.088 476.658 709.269C466.184 707.926 458.559 702.016 454.975 695.044C449.865 685.103 452.969 673.005 467.734 668.908Z" fill="#FFC835"/>
<path d="M486.205 689.233C472.564 695.364 459.747 695.89 450.4 694.583M510.401 675.476C500.28 680.353 484.715 664.197 467.734 668.908C442.611 675.878 451.25 706.012 476.658 709.269C498.644 712.088 506.662 687.566 510.401 675.476Z" stroke="black" stroke-width="2" stroke-linecap="round" stroke-linejoin="round"/>
<path d="M489.279 621.717C470.056 648.32 447.651 645.331 420.927 634.81C438.852 616.746 457.588 595.639 488.743 621.272C488.921 621.419 489.1 621.567 489.279 621.717Z" fill="#FF8C25"/>
<path d="M448.911 628.742C468.217 627.532 489.747 621.281 498.098 618.307M420.927 634.81C447.651 645.331 470.056 648.32 489.279 621.717C457.803 595.397 438.954 616.643 420.927 634.81Z" stroke="black" stroke-width="2" stroke-linecap="round" stroke-linejoin="round"/>
<path opacity="0.1" d="M142.151 626.665C121.946 617.133 127.563 602.793 132.524 593.668C139.043 595.194 159.041 601.876 186.884 616.395C167.04 651.197 152.843 627.585 142.151 626.665Z" fill="black"/>
<path d="M166.402 601.324C178.052 594.216 187.238 603.105 194.332 597.311C190.961 607.193 183.834 627.327 169.401 629.82C152.721 632.702 149.166 611.841 166.402 601.324Z" fill="#FF8C25"/>
<path d="M178.913 611.273C174.983 615.246 164.738 622.749 155.197 620.975C151.369 620.047 147.718 618.648 146.372 618.064M194.332 597.311C187.238 603.105 178.052 594.216 166.402 601.324C149.166 611.841 152.721 632.702 169.401 629.82C183.834 627.327 190.961 607.193 194.332 597.311Z" stroke="black" stroke-width="2" stroke-linecap="round" stroke-linejoin="round"/>
<path d="M132.025 599.409C134.199 584.405 152.314 577.747 151.98 568.087C160.205 575.22 176.737 590.031 166.9 606.366C162.213 614.149 154.917 618.105 148.184 618.512C138.586 619.091 130.135 612.456 132.025 599.409Z" fill="#FFC835"/>
<path d="M154.43 591.906C154.607 614.486 142.071 629.086 137.832 631.504M151.98 568.087C152.314 577.747 134.199 584.405 132.025 599.409C128.809 621.607 155.531 625.245 166.9 606.366C176.737 590.031 160.205 575.22 151.98 568.087Z" stroke="black" stroke-width="2" stroke-linecap="round" stroke-linejoin="round"/>
<path opacity="0.1" d="M109.151 585.734C88.9462 576.201 94.5629 561.861 99.5245 552.737C106.043 554.263 126.041 560.944 153.884 575.464C134.04 610.266 119.843 586.654 109.151 585.734Z" fill="black"/>
<path d="M133.402 560.393C145.052 553.284 154.238 562.174 161.332 556.38C157.961 566.262 150.834 586.396 136.401 588.889C119.721 591.77 116.166 570.91 133.402 560.393Z" fill="#FF8C25"/>
<path d="M145.913 570.342C141.983 574.315 131.738 581.818 122.197 580.044C118.369 579.116 114.718 577.717 113.372 577.133M161.332 556.38C154.238 562.174 145.052 553.284 133.402 560.393C116.166 570.91 119.721 591.77 136.401 588.889C150.834 586.396 157.961 566.262 161.332 556.38Z" stroke="black" stroke-width="2" stroke-linecap="round" stroke-linejoin="round"/>
<path d="M99.0251 558.478C101.199 543.474 119.314 536.815 118.98 527.156C127.205 534.289 143.737 549.099 133.9 565.435C129.213 573.218 121.917 577.174 115.184 577.581C105.586 578.16 97.1348 571.525 99.0251 558.478Z" fill="#FFC835"/>
<path d="M121.43 550.975C121.607 573.555 109.071 588.155 104.832 590.573M118.98 527.156C119.314 536.815 101.199 543.474 99.0251 558.478C95.809 580.676 122.531 584.314 133.9 565.435C143.737 549.099 127.205 534.289 118.98 527.156Z" stroke="black" stroke-width="2" stroke-linecap="round" stroke-linejoin="round"/>
<path opacity="0.1" d="M127.284 650.797C124.959 671.107 110.882 670.453 101.517 668.835C100.924 662.737 100.838 643.444 105.24 615.05C141.23 622.021 124.939 641.261 127.284 650.797Z" fill="black"/>
<path d="M98.1974 637.226C88.6143 629.22 93.6191 618.647 86.5134 614.202C96.0674 614.22 115.609 614.48 122.011 626.255C129.409 639.863 112.376 649.073 98.1974 637.226Z" fill="#FF8C25"/>
<path d="M103.143 623.462C107.741 625.7 117.253 632.373 118.519 641.162C118.84 644.753 118.7 648.327 118.59 649.666M86.5134 614.202C93.6191 618.647 88.6143 629.22 98.1974 637.226C112.376 649.073 129.409 639.863 122.011 626.255C115.609 614.48 96.0674 614.22 86.5134 614.202Z" stroke="black" stroke-width="2" stroke-linecap="round" stroke-linejoin="round"/>
<path d="M106.638 667.581C92.9977 670.105 81.9045 656.363 73.6314 659.491C77.3967 650.268 85.3736 631.589 102.421 635.314C110.542 637.089 116.114 642.25 118.445 647.964C121.767 656.111 118.5 665.385 106.638 667.581Z" fill="#FFC835"/>
<path d="M93.5535 650.37C113.069 643.581 129.404 650.155 132.746 653.118M73.6314 659.491C81.9045 656.363 92.9977 670.105 106.638 667.581C126.82 663.845 122.121 639.619 102.421 635.314C85.3736 631.589 77.3967 650.268 73.6314 659.491Z" stroke="black" stroke-width="2" stroke-linecap="round" stroke-linejoin="round"/>
<path d="M494.147 661.678C497.586 663.799 504.592 665.864 505.1 657.161C518.712 656.783 518.896 639.167 504.457 647.847C505.545 639.974 496.19 637.911 490.322 641.877C489.645 637.877 484.612 632.737 477.215 641.719C477.88 635.114 468.812 634.224 465.752 641.481C459.786 622.139 443.557 637.233 443.611 653.904C443.61 654.02 443.61 654.137 443.611 654.253C443.69 672.522 461.084 684.712 463.576 667.041C469.091 675.246 476.951 679.873 478.808 666.759C483.436 670.962 495.303 672.752 494.147 661.678Z" fill="#FFC835"/>
<path d="M443.611 654.253C443.69 672.522 461.084 684.712 463.576 667.041C469.091 675.246 476.951 679.873 478.808 666.759C483.436 670.962 495.303 672.752 494.147 661.678C497.586 663.799 504.592 665.864 505.1 657.161C518.712 656.783 518.896 639.167 504.457 647.847C505.545 639.974 496.19 637.911 490.322 641.877C489.645 637.877 484.612 632.737 477.215 641.719C477.88 635.114 468.812 634.224 465.752 641.481C459.786 622.139 443.557 637.233 443.611 653.904C443.61 654.02 443.61 654.137 443.611 654.253ZM443.611 654.253C448.46 655.718 463.576 658.836 484 657.161M443.611 654.253C439.903 653.133 436.376 651.836 433.111 650.465" stroke="black" stroke-width="2" stroke-linecap="round" stroke-linejoin="round"/>
<path opacity="0.1" d="M218.244 595.563C206.659 613.91 193.501 606.795 185.294 600.93C187.538 594.827 196.35 576.341 213.648 551.223C244.844 574.479 220.399 585.365 218.244 595.563Z" fill="black"/>
<path d="M196.692 569.179C191.221 557.106 200.88 549.305 196.136 541.779C205.262 546.201 223.826 555.458 224.518 569.668C225.318 586.089 204.787 587.042 196.692 569.179Z" fill="#FF8C25"/>
<path d="M207.766 558.299C211.13 562.558 217.148 573.324 214.307 582.311C212.958 585.891 211.177 589.244 210.454 590.473M196.136 541.779C200.88 549.305 191.221 557.106 196.692 569.179C204.787 587.042 225.318 586.089 224.518 569.668C223.826 555.458 205.262 546.201 196.136 541.779Z" stroke="black" stroke-width="2" stroke-linecap="round" stroke-linejoin="round"/>
<path d="M190.769 602.092C176.564 598.217 172.293 579.964 162.941 579.141C170.793 572.058 187.031 557.878 201.612 569.298C208.559 574.739 211.507 582.242 211.101 588.78C210.521 598.101 203.122 605.461 190.769 602.092Z" fill="#FFC835"/>
<path d="M186.194 579.604C207.981 582.111 220.569 595.927 222.398 600.3M162.941 579.141C172.293 579.964 176.564 598.217 190.769 602.092C211.787 607.824 218.463 582.496 201.612 569.298C187.031 557.878 170.793 572.058 162.941 579.141Z" stroke="black" stroke-width="2" stroke-linecap="round" stroke-linejoin="round"/>
<path opacity="0.1" d="M207.244 482.132C195.659 500.479 182.501 493.364 174.294 487.499C176.538 481.396 185.35 462.91 202.648 437.791C233.844 461.048 209.399 471.934 207.244 482.132Z" fill="black"/>
<path d="M185.692 455.748C180.221 443.675 189.88 435.874 185.136 428.348C194.262 432.769 212.826 442.027 213.518 456.236C214.318 472.658 193.787 473.611 185.692 455.748Z" fill="#FF8C25"/>
<path d="M196.766 444.868C200.13 449.127 206.148 459.893 203.307 468.88C201.958 472.46 200.177 475.813 199.454 477.042M185.136 428.348C189.88 435.874 180.221 443.675 185.692 455.748C193.787 473.611 214.318 472.658 213.518 456.236C212.826 442.027 194.262 432.769 185.136 428.348Z" stroke="black" stroke-width="2" stroke-linecap="round" stroke-linejoin="round"/>
<path d="M179.769 488.661C165.564 484.786 161.293 466.533 151.941 465.71C159.793 458.627 176.031 444.446 190.612 455.867C197.559 461.308 200.507 468.81 200.101 475.348C199.521 484.669 192.122 492.03 179.769 488.661Z" fill="#FFC835"/>
<path d="M175.194 466.173C196.981 468.68 209.569 482.496 211.398 486.869M151.941 465.71C161.293 466.533 165.564 484.786 179.769 488.661C200.787 494.393 207.463 469.065 190.612 455.867C176.031 444.446 159.793 458.627 151.941 465.71Z" stroke="black" stroke-width="2" stroke-linecap="round" stroke-linejoin="round"/>
<path opacity="0.1" d="M284.245 469.131C272.659 487.478 259.502 480.363 251.294 474.498C253.538 468.395 262.351 449.91 279.649 424.791C310.845 448.048 286.4 458.934 284.245 469.131Z" fill="black"/>
<path d="M270.692 449.063C265.221 436.989 274.88 429.189 270.136 421.662C279.262 426.084 297.826 435.342 298.517 449.551C299.317 465.972 278.786 466.925 270.692 449.063Z" fill="#FF8C25"/>
<path d="M281.766 438.182C285.13 442.442 291.148 453.207 288.307 462.194C286.958 465.775 285.176 469.128 284.454 470.357M270.136 421.662C274.88 429.189 265.221 436.989 270.692 449.063C278.786 466.925 299.317 465.972 298.517 449.551C297.826 435.342 279.262 426.084 270.136 421.662Z" stroke="black" stroke-width="2" stroke-linecap="round" stroke-linejoin="round"/>
<path d="M264.769 481.975C250.563 478.101 246.292 459.848 236.941 459.024C244.793 451.942 261.03 437.761 275.611 449.181C282.558 454.623 285.507 462.125 285.1 468.663C284.521 477.984 277.122 485.345 264.769 481.975Z" fill="#FFC835"/>
<path d="M260.193 459.488C281.981 461.994 294.569 475.81 296.397 480.183M236.941 459.024C246.292 459.848 250.563 478.101 264.769 481.975C285.786 487.708 292.462 462.38 275.611 449.181C261.03 437.761 244.793 451.942 236.941 459.024Z" stroke="black" stroke-width="2" stroke-linecap="round" stroke-linejoin="round"/>
<path opacity="0.1" d="M149.393 582.438C140.689 596.221 130.804 590.876 124.638 586.469C126.324 581.884 132.944 567.997 145.94 549.126C169.376 566.598 151.012 574.776 149.393 582.438Z" fill="black"/>
<path d="M133.208 562.616C129.097 553.546 136.354 547.685 132.79 542.031C139.646 545.353 153.592 552.308 154.112 562.983C154.713 575.32 139.289 576.036 133.208 562.616Z" fill="#FF8C25"/>
<path d="M141.527 554.442C144.055 557.642 148.576 565.73 146.441 572.481C145.428 575.171 144.089 577.69 143.547 578.614M132.79 542.031C136.354 547.685 129.097 553.546 133.208 562.616C139.289 576.036 154.713 575.32 154.112 562.983C153.592 552.308 139.646 545.353 132.79 542.031Z" stroke="black" stroke-width="2" stroke-linecap="round" stroke-linejoin="round"/>
<path d="M128.758 587.342C118.086 584.431 114.877 570.719 107.852 570.1C113.751 564.779 125.949 554.126 136.903 562.705C142.122 566.793 144.338 572.429 144.032 577.341C143.597 584.344 138.038 589.874 128.758 587.342Z" fill="#FFC835"/>
<path d="M125.32 570.448C141.689 572.331 151.145 582.711 152.519 585.996M107.852 570.1C114.877 570.719 118.086 584.431 128.758 587.342C144.548 591.649 149.563 572.621 136.903 562.705C125.949 554.126 113.751 564.779 107.852 570.1Z" stroke="black" stroke-width="2" stroke-linecap="round" stroke-linejoin="round"/>
<path opacity="0.1" d="M116.393 541.506C107.689 555.29 97.8042 549.944 91.6383 545.538C93.324 540.953 99.9444 527.066 112.94 508.195C136.376 525.667 118.012 533.845 116.393 541.506Z" fill="black"/>
<path d="M100.208 521.685C96.0975 512.615 103.354 506.754 99.7899 501.1C106.646 504.422 120.592 511.377 121.112 522.052C121.713 534.389 106.289 535.104 100.208 521.685Z" fill="#FF8C25"/>
<path d="M108.527 513.511C111.055 516.711 115.576 524.799 113.441 531.55C112.428 534.24 111.089 536.759 110.547 537.682M99.7899 501.1C103.354 506.754 96.0975 512.615 100.208 521.685C106.289 535.104 121.713 534.389 121.112 522.052C120.592 511.377 106.646 504.422 99.7899 501.1Z" stroke="black" stroke-width="2" stroke-linecap="round" stroke-linejoin="round"/>
<path d="M95.7578 546.411C85.0857 543.5 81.8771 529.788 74.8516 529.169C80.7505 523.848 92.9492 513.195 103.903 521.774C109.122 525.862 111.338 531.498 111.032 536.41C110.597 543.413 105.038 548.942 95.7578 546.411Z" fill="#FFC835"/>
<path d="M92.3203 529.517C108.689 531.4 118.145 541.78 119.519 545.065M74.8516 529.169C81.8771 529.788 85.0857 543.5 95.7578 546.411C111.548 550.718 116.563 531.69 103.903 521.774C92.9492 513.195 80.7505 523.848 74.8516 529.169Z" stroke="black" stroke-width="2" stroke-linecap="round" stroke-linejoin="round"/>
<path opacity="0.1" d="M317.457 676.126C328.28 661.515 338.833 668.28 345.326 673.691C343.072 678.652 334.557 693.551 318.539 713.466C293.917 692.09 315.022 684.514 317.457 676.126Z" fill="black"/>
<path d="M333.82 699.515C337.641 709.944 329.084 715.862 332.58 722.447C325.229 718.184 310.291 709.293 310.597 697.376C310.951 683.603 328.167 684.084 333.82 699.515Z" fill="#FF8C25"/>
<path d="M323.889 707.918C321.342 704.15 316.983 694.779 319.916 687.445C321.267 684.537 322.964 681.846 323.644 680.864M332.58 722.447C329.084 715.862 337.641 709.944 333.82 699.515C328.167 684.084 310.951 683.603 310.597 697.376C310.291 709.293 325.229 718.184 332.58 722.447Z" stroke="black" stroke-width="2" stroke-linecap="round" stroke-linejoin="round"/>
<path d="M340.815 672.379C352.445 676.501 354.878 692.02 362.642 693.29C355.639 698.72 341.188 709.56 329.714 699.109C324.247 694.13 322.25 687.677 322.996 682.239C324.061 674.486 330.701 668.795 340.815 672.379Z" fill="#FFC835"/>
<path d="M343.239 691.456C325.188 688.006 315.529 675.677 314.273 671.909M362.642 693.29C354.878 692.02 352.445 676.501 340.815 672.379C323.608 666.281 316.453 687.032 329.714 699.109C341.188 709.56 355.639 698.72 362.642 693.29Z" stroke="black" stroke-width="2" stroke-linecap="round" stroke-linejoin="round"/>
<path opacity="0.1" d="M387.689 636.797C390.014 657.107 404.091 656.453 413.456 654.835C414.049 648.737 414.135 629.444 409.733 601.05C373.743 608.021 390.033 627.261 387.689 636.797Z" fill="black"/>
<path d="M416.774 623.226C426.357 615.22 421.352 604.647 428.458 600.202C418.904 600.22 399.362 600.48 392.96 612.255C385.562 625.863 402.595 635.073 416.774 623.226Z" fill="#FF8C25"/>
<path d="M411.828 609.462C407.23 611.7 397.718 618.373 396.452 627.162C396.132 630.753 396.271 634.327 396.381 635.666M428.458 600.202C421.352 604.647 426.357 615.22 416.774 623.226C402.595 635.073 385.562 625.863 392.96 612.255C399.362 600.48 418.904 600.22 428.458 600.202Z" stroke="black" stroke-width="2" stroke-linecap="round" stroke-linejoin="round"/>
<path d="M408.334 653.581C421.974 656.105 433.068 642.363 441.341 645.491C437.575 636.268 429.599 617.589 412.552 621.314C404.43 623.089 398.858 628.25 396.527 633.964C393.205 642.111 396.472 651.385 408.334 653.581Z" fill="#FFC835"/>
<path d="M421.419 636.37C401.903 629.581 385.568 636.155 382.227 639.118M441.341 645.491C433.068 642.363 421.974 656.105 408.334 653.581C388.152 649.845 392.851 625.619 412.552 621.314C429.599 617.589 437.575 636.268 441.341 645.491Z" stroke="black" stroke-width="2" stroke-linecap="round" stroke-linejoin="round"/>
<path d="M146.715 617.032C166.231 616.126 174.301 642.477 166.231 654.582C157.338 655.405 142.165 668.383 142.165 668.383C142.165 668.383 119.534 669.526 117.811 653.099C115.341 629.548 128.187 618.431 136.092 617.032C138.606 616.586 138.974 616.784 146.715 617.032Z" fill="#FFC835"/>
<path d="M166.261 654.424C175.513 639.595 163.404 612.793 143.269 617.555C125.726 621.703 123.995 645.264 126.127 656.057" stroke="black" stroke-width="2" stroke-linecap="round" stroke-linejoin="round"/>
<path d="M117.857 653.02C115.489 630.396 127.54 616.831 138.488 616.831L148.335 616.981L148.324 617C146.706 616.966 145.018 617.141 143.269 617.555C125.726 621.704 123.995 645.264 126.127 656.057C126.218 656.042 126.309 656.026 126.399 656.009L126.369 656.063" stroke="black" stroke-width="2" stroke-linecap="round" stroke-linejoin="round"/>
<path d="M141.32 653.023L146.046 655.941M139.003 646.164L148.198 651.577M148.583 643.128L147.218 626.828M138.985 646.107L147.331 625.979L160.101 646.943L148.525 643.145L138.985 646.107Z" stroke="#FF9900" stroke-width="2" stroke-linecap="round" stroke-linejoin="round"/>
<path d="M280.714 528.032C300.231 527.126 308.301 553.477 300.231 565.582C291.337 566.405 276.165 579.383 276.165 579.383C276.165 579.383 253.534 580.526 251.81 564.099C249.34 540.548 262.186 529.431 270.092 528.032C272.605 527.586 272.974 527.784 280.714 528.032Z" fill="#FFC835"/>
<path d="M300.261 565.424C309.512 550.595 297.404 523.793 277.268 528.555C259.725 532.703 257.995 556.264 260.126 567.057" stroke="black" stroke-width="2" stroke-linecap="round" stroke-linejoin="round"/>
<path d="M251.857 564.02C249.489 541.396 261.54 527.831 272.487 527.831L282.334 527.981L282.324 528C280.705 527.966 279.017 528.141 277.268 528.555C259.725 532.704 257.995 556.264 260.126 567.057C260.218 567.042 260.309 567.026 260.399 567.009L260.368 567.063" stroke="black" stroke-width="2" stroke-linecap="round" stroke-linejoin="round"/>
<path d="M275.319 564.024L280.045 566.941M273.002 557.164L282.198 562.578M282.582 554.128L281.218 537.828M272.984 557.107L281.33 536.979L294.101 557.943L282.525 554.146L272.984 557.107Z" stroke="#FF9900" stroke-width="2" stroke-linecap="round" stroke-linejoin="round"/>
<path d="M185.577 688.051C203.275 688.348 213.668 708.342 224.805 706.525C217.761 717.106 203.056 738.444 182.681 729.469C172.974 725.193 167.312 717.329 165.845 709.593C163.754 698.563 170.188 687.793 185.577 688.051Z" fill="#FFC835"/>
<path d="M197.582 712.888C182.697 714.909 170.201 711.766 161.57 707.846M224.805 706.525C213.668 708.342 203.275 688.348 185.577 688.051C159.393 687.612 159.134 719.097 182.681 729.469C203.056 738.444 217.761 717.106 224.805 706.525Z" stroke="black" stroke-width="2" stroke-linecap="round" stroke-linejoin="round"/>
<path d="M425.189 641.349C438.864 641.579 446.895 657.028 455.501 655.625C450.058 663.801 438.695 680.289 422.951 673.354C415.45 670.05 411.075 663.973 409.942 657.995C408.326 649.472 413.297 641.15 425.189 641.349Z" fill="#FFC835"/>
<path d="M434.465 660.541C422.963 662.103 413.307 659.675 406.638 656.646M455.501 655.625C446.895 657.028 438.864 641.579 425.189 641.349C404.956 641.01 404.756 665.339 422.951 673.354C438.695 680.289 450.058 663.801 455.501 655.625Z" stroke="black" stroke-width="2" stroke-linecap="round" stroke-linejoin="round"/>
<path d="M182.676 715.568C174.156 700.053 151.623 700.19 148.033 689.491C141.961 700.659 129.949 723.621 147.394 737.455C155.705 744.045 165.302 745.383 172.83 743.071C183.561 739.775 190.085 729.059 182.676 715.568Z" fill="#FA873F"/>
<path d="M155.107 716.538C160.265 730.647 168.875 740.233 176.369 746.038M148.033 689.491C151.623 700.19 174.156 700.053 182.676 715.568C195.282 738.522 167.554 753.442 147.394 737.455C129.949 723.621 141.961 700.659 148.033 689.491Z" stroke="black" stroke-width="2" stroke-linecap="round" stroke-linejoin="round"/>
<path d="M422.953 662.613C416.37 650.624 398.958 650.73 396.184 642.463C391.492 651.092 382.21 668.836 395.69 679.525C402.112 684.618 409.528 685.652 415.345 683.865C423.637 681.318 428.678 673.038 422.953 662.613Z" fill="#FA873F"/>
<path d="M401.651 663.363C405.636 674.265 412.289 681.672 418.08 686.157M396.184 642.463C398.958 650.73 416.37 650.624 422.953 662.613C432.694 680.35 411.268 691.878 395.69 679.525C382.21 668.836 391.492 651.092 396.184 642.463Z" stroke="black" stroke-width="2" stroke-linecap="round" stroke-linejoin="round"/>
<path d="M155.284 706.493C132.72 705.232 120.456 679.205 106.155 680.968C115.67 667.819 135.494 641.328 161.042 653.793C173.214 659.732 180.046 670.048 181.532 679.991C183.651 694.168 174.906 707.588 155.284 706.493Z" fill="#FFC835"/>
<path d="M141.205 674.207C160.297 672.369 176.084 677.001 186.9 682.432M106.155 680.968C120.456 679.205 132.72 705.232 155.284 706.493C188.669 708.357 190.568 668.199 161.042 653.793C135.494 641.328 115.67 667.819 106.155 680.968Z" stroke="black" stroke-width="2" stroke-linecap="round" stroke-linejoin="round"/>
<path d="M269.812 602.549C284.826 610.785 284.705 632.585 295.057 636.053C284.256 641.933 262.046 653.566 248.654 636.695C242.274 628.657 240.975 619.373 243.208 612.089C246.392 601.705 256.756 595.388 269.812 602.549Z" fill="#FA873F"/>
<path d="M268.887 629.222C255.234 624.239 245.956 615.914 240.336 608.666M295.057 636.053C284.705 632.585 284.826 610.785 269.812 602.549C247.598 590.365 233.177 617.198 248.654 636.695C262.046 653.566 284.256 641.933 295.057 636.053Z" stroke="black" stroke-width="2" stroke-linecap="round" stroke-linejoin="round"/>
<path d="M195.579 605.033C215.125 593.688 239.672 608.696 250.652 599.366C249.927 615.58 247.919 648.607 219.724 652.229C206.29 653.954 194.915 649.089 188.209 641.597C178.649 630.917 178.582 614.899 195.579 605.033Z" fill="#FFC835"/>
<path d="M225.082 624.273C210.139 636.298 194.404 641.102 182.383 642.507M250.652 599.366C239.672 608.696 215.125 593.688 195.579 605.033C166.66 621.819 187.139 656.415 219.724 652.229C247.919 648.607 249.927 615.58 250.652 599.366Z" stroke="black" stroke-width="2" stroke-linecap="round" stroke-linejoin="round"/>
<path d="M261.579 478.602C281.125 467.257 305.672 482.265 316.652 472.935C315.927 489.148 313.919 522.175 285.724 525.797C272.29 527.523 260.915 522.658 254.209 515.166C244.649 504.486 244.582 488.468 261.579 478.602Z" fill="#FFC835"/>
<path d="M291.082 497.842C276.139 509.867 260.404 514.671 248.383 516.076M316.652 472.935C305.672 482.265 281.125 467.257 261.579 478.602C232.66 495.388 253.139 529.983 285.724 525.797C313.919 522.175 315.927 489.148 316.652 472.935Z" stroke="black" stroke-width="2" stroke-linecap="round" stroke-linejoin="round"/>
<path d="M325.55 630.034C306.004 618.689 281.457 633.697 270.477 624.367C271.202 640.581 273.21 673.608 301.405 677.23C314.839 678.955 326.214 674.09 332.92 666.598C342.48 655.918 342.547 639.9 325.55 630.034Z" fill="#FA873F"/>
<path d="M296.047 649.274C310.99 661.299 326.725 666.103 338.746 667.508M270.477 624.367C281.457 633.697 306.004 618.689 325.55 630.034C354.469 646.82 333.99 681.416 301.405 677.23C273.21 673.608 271.202 640.581 270.477 624.367Z" stroke="black" stroke-width="2" stroke-linecap="round" stroke-linejoin="round"/>
<path d="M299.629 590.492C312.099 591.146 314.44 602.607 322.792 601.899C315.138 607.618 299.349 619.136 287.163 613.558C273.079 607.111 281.178 589.523 299.629 590.492Z" fill="#FF8C25"/>
<path d="M303.932 604.47C298.911 605.439 287.297 605.808 281.01 599.537C278.6 596.857 276.567 593.914 275.851 592.777M322.792 601.899C314.44 602.607 312.099 591.146 299.629 590.492C281.178 589.523 273.079 607.111 287.163 613.558C299.349 619.136 315.138 607.618 322.792 601.899Z" stroke="black" stroke-width="2" stroke-linecap="round" stroke-linejoin="round"/>
<path d="M274.662 571.275C284.059 561.07 301.179 565.406 305.92 557.94C308.443 567.578 313.27 587.306 297.398 594.556C289.836 598.009 282.282 597.225 276.988 594.052C269.442 589.528 266.49 580.149 274.662 571.275Z" fill="#FFC835"/>
<path d="M295.457 577.191C283.919 594.332 266.906 598.876 262.456 598.51M305.92 557.94C301.179 565.406 284.059 561.07 274.662 571.275C260.759 586.373 279.055 602.933 297.398 594.556C313.27 587.306 308.443 567.578 305.92 557.94Z" stroke="black" stroke-width="2" stroke-linecap="round" stroke-linejoin="round"/>
<path d="M243.606 558.887C259.766 564.55 263.219 586.076 274 587.801C264.308 595.371 244.305 610.486 228.329 596.038C220.718 589.154 217.915 580.208 218.925 572.657C220.364 561.892 229.553 553.962 243.606 558.887Z" fill="#FA873F"/>
<path d="M247.064 585.35C232.779 582.672 222.262 575.98 215.531 569.751M274 587.801C263.219 586.076 259.766 564.55 243.606 558.887C219.695 550.507 209.867 579.34 228.329 596.038C244.305 610.486 264.308 595.371 274 587.801Z" stroke="black" stroke-width="2" stroke-linecap="round" stroke-linejoin="round"/>
<path d="M227.606 434.455C243.766 440.119 247.219 461.644 258 463.369C248.308 470.94 228.305 486.054 212.329 471.606C204.718 464.723 201.915 455.776 202.925 448.225C204.364 437.46 213.553 429.53 227.606 434.455Z" fill="#FA873F"/>
<path d="M231.064 460.919C216.779 458.24 206.262 451.548 199.531 445.319M258 463.369C247.219 461.644 243.766 440.119 227.606 434.455C203.695 426.075 193.867 454.909 212.329 471.606C228.305 486.054 248.308 470.94 258 463.369Z" stroke="black" stroke-width="2" stroke-linecap="round" stroke-linejoin="round"/>
<path d="M310.606 441.455C326.766 447.119 330.219 468.644 341 470.369C331.308 477.94 311.305 493.054 295.329 478.606C287.718 471.723 284.915 462.776 285.925 455.225C287.364 444.46 296.553 436.53 310.606 441.455Z" fill="#FA873F"/>
<path d="M314.064 467.919C299.779 465.24 289.262 458.548 282.531 452.319M341 470.369C330.219 468.644 326.766 447.119 310.606 441.455C286.695 433.075 276.867 461.909 295.329 478.606C311.305 493.054 331.308 477.94 341 470.369Z" stroke="black" stroke-width="2" stroke-linecap="round" stroke-linejoin="round"/>
<path d="M300.812 683.549C315.826 691.785 315.705 713.585 326.057 717.053C315.256 722.933 293.046 734.566 279.654 717.695C273.274 709.657 271.975 700.373 274.208 693.089C277.392 682.705 287.756 676.388 300.812 683.549Z" fill="#FA873F"/>
<path d="M299.887 710.222C286.234 705.239 276.956 696.914 271.336 689.666M326.057 717.053C315.705 713.585 315.826 691.785 300.812 683.549C278.598 671.365 264.177 698.198 279.654 717.695C293.046 734.566 315.256 722.933 326.057 717.053Z" stroke="black" stroke-width="2" stroke-linecap="round" stroke-linejoin="round"/>
<path d="M386.424 547.151C366.519 552.331 366.629 581.344 378.521 590.996C387.719 589.049 395.515 582.343 401.203 580.143C408.335 577.385 423.938 585.25 426.742 574.395C421.875 549.944 405.49 542.776 397.105 543.836C394.438 544.173 394.13 544.487 386.424 547.151Z" fill="#FFC835"/>
<path d="M386.2 582.663L390.926 585.581M383.882 575.804L393.078 581.217M393.462 572.768L392.098 556.468M383.865 575.747L392.21 555.619L404.981 576.583L393.405 572.785L383.865 575.747Z" stroke="#FF9900" stroke-width="2" stroke-linecap="round" stroke-linejoin="round"/>
<path d="M378.442 590.848C364.512 578.825 368.322 548.098 390.053 546.602C408.987 545.298 418.08 568.447 419.305 579.964" stroke="black" stroke-width="2" stroke-linecap="round" stroke-linejoin="round"/>
<path d="M426.672 574.329C421.992 550.843 405.642 540.966 394.635 544.382L384.781 547.607L384.797 547.622C386.414 547.083 388.166 546.732 390.053 546.602C408.987 545.298 418.08 568.447 419.305 579.964C419.208 579.977 419.112 579.989 419.016 580.001L419.064 580.046" stroke="black" stroke-width="2" stroke-linecap="round" stroke-linejoin="round"/>
<path d="M381.494 581.187L369.911 571.737L362.596 620.509L363.038 620.552L434.229 627.519L428.742 611.059L441.544 601.914H420.816L453.128 579.053H441.544L444.288 565.336L425.694 571.737V565.336L397.955 582.101L392.773 571.737L381.494 581.187Z" fill="#FA873F"/>
<path d="M410.148 591.855C384.449 612.659 366.393 620.634 350.5 624.274M369.911 571.737L381.494 581.187L392.773 571.737L397.955 582.101L425.694 565.336V571.737L444.288 565.336L441.544 579.053H453.127L420.816 601.914H441.544L428.742 611.059L434.229 627.519L362.596 620.509L369.911 571.737Z" stroke="black" stroke-width="2" stroke-linecap="round" stroke-linejoin="round"/>
<path d="M309.002 481.657L297.886 471.662L288.237 520.026L288.677 520.09L359.45 530.469L354.76 513.764L367.987 505.244L347.283 504.249L380.655 482.965L369.085 482.409L372.484 468.84L353.604 474.341L353.912 467.947L325.4 483.361L320.721 472.76L309.002 481.657Z" fill="#FA873F"/>
<path d="M337.11 493.689C310.442 513.234 292.024 520.334 275.974 523.206M297.886 471.662L309.002 481.657L320.721 472.76L325.4 483.361L353.912 467.947L353.604 474.341L372.484 468.84L369.085 482.409L380.655 482.965L347.283 504.249L367.987 505.244L354.76 513.764L359.45 530.469L288.237 520.026L297.886 471.662Z" stroke="black" stroke-width="2" stroke-linecap="round" stroke-linejoin="round"/>
<path d="M368.599 602.53C377.996 592.325 395.116 596.661 399.857 589.195C402.38 598.833 407.207 618.561 391.335 625.81C383.773 629.264 376.219 628.48 370.925 625.307C363.379 620.783 360.427 611.404 368.599 602.53Z" fill="#FFC835"/>
<path d="M389.394 608.446C377.856 625.587 360.843 630.13 356.393 629.765M399.857 589.195C395.116 596.661 377.996 592.325 368.599 602.53C354.696 617.628 372.992 634.188 391.335 625.81C407.207 618.561 402.38 598.833 399.857 589.195Z" stroke="black" stroke-width="2" stroke-linecap="round" stroke-linejoin="round"/>
<path d="M295.096 502.356C304.972 492.614 321.864 497.768 326.959 490.538C329.016 500.286 332.89 520.223 316.688 526.702C308.969 529.789 301.461 528.642 296.326 525.219C289.006 520.338 286.508 510.828 295.096 502.356Z" fill="#FFC835"/>
<path d="M315.583 509.265C303.235 525.831 286.024 529.553 281.596 528.974M326.959 490.538C321.864 497.768 304.972 492.614 295.096 502.356C280.484 516.77 297.964 534.189 316.688 526.702C332.89 520.223 329.016 500.286 326.959 490.538Z" stroke="black" stroke-width="2" stroke-linecap="round" stroke-linejoin="round"/>
<path d="M263.594 643.032C283.11 642.126 291.18 668.477 283.11 680.582C274.217 681.405 259.044 694.383 259.044 694.383C259.044 694.383 236.413 695.526 234.69 679.099C232.219 655.548 245.066 644.431 252.971 643.032C255.485 642.586 255.853 642.784 263.594 643.032Z" fill="#FFC835"/>
<path d="M283.14 680.424C292.392 665.595 280.283 638.793 260.148 643.555C242.605 647.703 240.874 671.264 243.005 682.057" stroke="black" stroke-width="2" stroke-linecap="round" stroke-linejoin="round"/>
<path d="M234.736 679.02C232.368 656.396 244.419 642.831 255.367 642.831L265.214 642.981L265.203 643C263.585 642.966 261.896 643.141 260.148 643.555C242.605 647.704 240.874 671.264 243.005 682.057C243.097 682.042 243.188 682.026 243.278 682.009L243.248 682.063" stroke="black" stroke-width="2" stroke-linecap="round" stroke-linejoin="round"/>
<path d="M258.199 679.023L262.925 681.941M255.881 672.164L265.077 677.577M265.461 669.128L264.097 652.828M255.864 672.107L264.21 651.979L276.98 672.943L265.404 669.145L255.864 672.107Z" stroke="#FF9900" stroke-width="2" stroke-linecap="round" stroke-linejoin="round"/>
<path d="M235 696.336L220.982 686.88L213.639 725.311L214.084 725.345L285.532 730.836L280.026 717.865L292.875 710.659H272.072L304.5 692.645H292.875L301.5 676.336L281 683.336L281.5 677.336L254 694.326L249.5 683.336L235 696.336Z" fill="#FA873F"/>
<path d="M261.364 702.733C235.572 719.126 217.45 725.41 201.5 728.278M220.982 686.88L235 696.336L249.5 683.336L254 694.326L281.5 677.336L281 683.336L301.5 676.336L292.875 692.645H304.5L272.072 710.659H292.875L280.026 717.865L285.532 730.836L213.639 725.311L220.982 686.88Z" stroke="black" stroke-width="2" stroke-linecap="round" stroke-linejoin="round"/>
<path opacity="0.1" d="M213.457 691.126C224.28 676.515 234.833 683.28 241.326 688.691C239.072 693.652 230.557 708.551 214.539 728.466C189.917 707.09 211.022 699.514 213.457 691.126Z" fill="black"/>
<path d="M229.82 714.515C233.641 724.944 225.084 730.862 228.58 737.447C221.229 733.184 206.291 724.293 206.597 712.376C206.951 698.603 224.167 699.084 229.82 714.515Z" fill="#FF8C25"/>
<path d="M219.889 722.918C217.342 719.15 212.983 709.779 215.916 702.445C217.267 699.537 218.964 696.846 219.644 695.864M228.58 737.447C225.084 730.862 233.641 724.944 229.82 714.515C224.167 699.084 206.951 698.603 206.597 712.376C206.291 724.293 221.229 733.184 228.58 737.447Z" stroke="black" stroke-width="2" stroke-linecap="round" stroke-linejoin="round"/>
<path d="M236.815 687.379C248.445 691.501 250.878 707.02 258.642 708.29C251.639 713.72 237.188 724.56 225.714 714.109C220.247 709.13 218.25 702.677 218.996 697.239C220.061 689.486 226.701 683.795 236.815 687.379Z" fill="#FFC835"/>
<path d="M239.239 706.456C221.188 703.006 211.529 690.677 210.273 686.909M258.642 708.29C250.878 707.02 248.445 691.501 236.815 687.379C219.608 681.281 212.453 702.032 225.714 714.109C237.188 724.56 251.639 713.72 258.642 708.29Z" stroke="black" stroke-width="2" stroke-linecap="round" stroke-linejoin="round"/>
<path opacity="0.1" d="M269.56 446.454C264.172 463.82 251.977 460.922 244.06 457.96C244.55 452.533 247.663 435.657 256.202 411.569C286.504 423.609 269.087 437.733 269.56 446.454Z" fill="black"/>
<path d="M246.389 429.785C239.337 421.204 245.458 412.791 239.982 407.731C248.329 409.326 265.365 412.783 269.014 424.132C273.231 437.247 256.823 442.482 246.389 429.785Z" fill="#FF8C25"/>
<path d="M252.986 418.573C256.634 421.288 263.845 428.693 263.499 436.583C263.186 439.774 262.473 442.875 262.155 444.027M239.982 407.731C245.458 412.791 239.337 421.204 246.389 429.785C256.823 442.482 273.231 437.247 269.014 424.132C265.365 412.783 248.329 409.326 239.982 407.731Z" stroke="black" stroke-width="2" stroke-linecap="round" stroke-linejoin="round"/>
<path d="M248.753 457.708C236.414 457.66 228.99 443.817 221.243 445.183C226.058 437.745 236.116 422.739 250.399 428.811C257.203 431.705 261.22 437.135 262.313 442.515C263.87 450.184 259.482 457.749 248.753 457.708Z" fill="#FFC835"/>
<path d="M240.161 440.504C258.339 437.796 271.529 446.241 273.959 449.382M221.243 445.183C228.99 443.817 236.414 457.66 248.753 457.708C267.008 457.778 266.905 435.829 250.399 428.811C236.116 422.739 226.058 437.745 221.243 445.183Z" stroke="black" stroke-width="2" stroke-linecap="round" stroke-linejoin="round"/>
<path d="M806.708 662.477C799.563 668.782 791.581 668.487 784.537 665.885C777.551 663.305 771.315 658.405 767.349 655.229C766.961 654.918 766.794 654.406 766.924 653.926C767.054 653.445 767.457 653.087 767.949 653.015C769.773 652.746 771.399 651.627 773.072 649.795C774.545 648.181 775.94 646.146 777.481 643.899C777.701 643.578 777.924 643.253 778.15 642.924C781.703 637.767 786.04 631.835 793.203 629.423C799.094 627.439 804.142 627.975 807.957 630.274C811.189 632.221 813.411 635.359 814.507 639.016C817.971 636.197 821.012 633.163 823.317 630.188C823.741 629.642 824.527 629.543 825.073 629.966C825.619 630.389 825.719 631.175 825.295 631.721C822.632 635.158 819.088 638.615 815.101 641.744C816.056 648.519 813.5 656.483 806.708 662.477Z" fill="#FFF9F3"/>
<path d="M56.9714 734.539C47.5678 736.081 40.9637 731.589 36.3801 725.64C31.8352 719.742 29.157 712.276 27.4867 707.478C27.3231 707.008 27.4537 706.486 27.8193 706.148C28.1849 705.81 28.716 705.721 29.1717 705.922C30.8594 706.663 32.8312 706.58 35.2223 705.917C37.328 705.333 39.5916 704.351 42.0913 703.267C42.4481 703.112 42.8099 702.955 43.1765 702.797C48.9267 700.318 55.7538 697.599 63.1029 699.364C69.1474 700.815 73.1384 703.952 75.1477 707.927C76.8494 711.294 77.064 715.134 76.0481 718.814C80.4806 718.267 84.6698 717.314 88.2033 716.02C88.8522 715.782 89.5708 716.115 89.8085 716.764C90.0462 717.413 89.7128 718.132 89.0639 718.37C84.9813 719.865 80.1414 720.908 75.1014 721.44C72.3092 727.686 65.9105 733.073 56.9714 734.539Z" fill="#F1E4D9"/>
<path d="M1359.1 606.678C1355.66 608.799 1348.65 610.864 1348.14 602.161C1334.53 601.783 1334.35 584.167 1348.79 592.847C1347.7 584.974 1357.05 582.911 1362.92 586.877C1363.6 582.877 1368.63 577.737 1376.03 586.719C1375.36 580.114 1384.43 579.224 1387.49 586.481C1393.46 567.139 1409.68 582.233 1409.63 598.904C1409.63 599.02 1409.63 599.137 1409.63 599.253C1409.55 617.522 1392.16 629.712 1389.67 612.041C1384.15 620.246 1376.29 624.873 1374.43 611.759C1369.81 615.962 1357.94 617.752 1359.1 606.678Z" fill="#FFC835"/>
<path d="M1409.63 599.253C1409.55 617.522 1392.16 629.712 1389.67 612.041C1384.15 620.246 1376.29 624.873 1374.43 611.759C1369.81 615.962 1357.94 617.752 1359.1 606.678C1355.66 608.799 1348.65 610.864 1348.14 602.161C1334.53 601.783 1334.35 584.167 1348.79 592.847C1347.7 584.974 1357.05 582.911 1362.92 586.877C1363.6 582.877 1368.63 577.737 1376.03 586.719C1375.36 580.114 1384.43 579.224 1387.49 586.481C1393.46 567.139 1409.68 582.233 1409.63 598.904C1409.63 599.02 1409.63 599.137 1409.63 599.253ZM1409.63 599.253C1404.78 600.718 1399.63 601.879 1394.35 602.509M1409.63 599.253C1413.34 598.133 1416.87 596.836 1420.13 595.465" stroke="black" stroke-width="2" stroke-linecap="round" stroke-linejoin="round"/>
<path d="M1276.63 557.372C1269.96 544.264 1280.6 528.857 1274.93 521.387C1285.44 522.442 1306.82 524.937 1308.16 543.386C1308.8 552.176 1305.23 559.391 1300.12 563.478C1292.83 569.304 1282.42 568.771 1276.63 557.372Z" fill="#FFC835"/>
<path d="M1290.19 538.897C1297.47 549.039 1300.02 559.435 1300.5 567.296M1274.93 521.387C1280.6 528.857 1269.96 544.264 1276.63 557.372C1286.49 576.766 1309.71 564.707 1308.16 543.386C1306.82 524.937 1285.44 522.442 1274.93 521.387Z" stroke="black" stroke-width="2" stroke-linecap="round" stroke-linejoin="round"/>
<path d="M525.77 590.163C535.877 599.465 552.416 593.787 557.704 600.767C559.406 591.051 562.558 571.19 546.303 565.333C538.559 562.542 531.169 563.934 526.205 567.497C519.128 572.578 516.982 582.074 525.77 590.163Z" fill="white"/>
<path d="M545.807 582.626C533.021 566.654 515.863 563.561 511.501 564.285M557.704 600.767C552.416 593.787 535.877 599.465 525.77 590.163C510.818 576.4 527.519 558.564 546.303 565.333C562.558 571.19 559.406 591.051 557.704 600.767Z" stroke="#FFC692" stroke-width="2" stroke-linecap="round" stroke-linejoin="round"/>
<path d="M633.23 625.837C618.613 615.855 598.58 626.17 590.538 618.253C590.175 630.959 589.85 656.872 611.666 661.317C622.06 663.435 631.224 660.287 636.891 654.819C644.97 647.025 645.941 634.517 633.23 625.837Z" fill="#FA873F"/>
<path d="M609.083 639.174C620.065 649.423 632.08 654.077 641.39 655.864M590.538 618.253C598.58 626.17 618.613 615.855 633.23 625.837C654.857 640.605 636.878 666.454 611.666 661.317C589.85 656.872 590.175 630.959 590.538 618.253Z" stroke="black" stroke-width="1.5664" stroke-linecap="round" stroke-linejoin="round"/>
<path d="M638.274 631.384C655.979 622.538 676.612 637 686.72 629.446C685.199 643.578 681.635 672.334 656.793 673.956C644.958 674.729 635.281 669.854 629.831 662.939C622.06 653.08 622.878 639.076 638.274 631.384Z" fill="#FFC835"/>
<path d="M663.007 649.816C649.288 659.508 635.273 662.845 624.689 663.415M686.72 629.446C676.612 637 655.979 622.538 638.274 631.384C612.079 644.472 628.084 675.831 656.793 673.956C681.635 672.334 685.199 643.578 686.72 629.446Z" stroke="black" stroke-width="2" stroke-linecap="round" stroke-linejoin="round"/>
<path d="M873.044 572.086L876.47 562.437L898.083 588.398L897.839 588.581L858.626 617.955L855.99 606.367L845.244 605.56L857.382 598.196L830.338 596.288L837.121 592.173L830.641 585.115L843.804 582.257L841.53 578.508L863.73 578.47L863.082 570.56L873.044 572.086Z" fill="#FFC835"/>
<path d="M860.056 588.514C882.496 591.566 895.904 589.821 906.503 586.306M876.47 562.437L873.044 572.086L863.082 570.56L863.73 578.47L841.53 578.508L843.804 582.257L830.641 585.115L837.121 592.173L830.338 596.288L857.382 598.196L845.244 605.56L855.99 606.367L858.626 617.955L898.083 588.398L876.47 562.437Z" stroke="black" stroke-width="2" stroke-linecap="round" stroke-linejoin="round"/>
<path d="M904.156 561.796C904.285 561.336 904.429 560.875 904.591 560.415C872.506 587.583 906.402 612.423 931.5 591.982C912.921 591.479 899.945 576.848 904.156 561.796Z" fill="#FF8C25"/>
<path d="M902.521 583.185C897.346 577.751 903.556 558.087 910.283 552.912M904.591 560.415C899.157 575.94 912.353 591.464 931.5 591.982C906.402 612.423 872.506 587.583 904.591 560.415Z" stroke="black" stroke-width="2" stroke-linecap="round" stroke-linejoin="round"/>
<path d="M1022.04 526.599C1027.78 522.279 1028.79 516.348 1027.93 510.699C1027.07 505.081 1024.36 499.652 1022.57 496.159C1022.46 495.94 1022.23 495.808 1021.99 495.823C1021.74 495.838 1021.53 495.997 1021.44 496.228C1020.92 497.674 1019.74 498.783 1018.07 499.78C1016.59 500.657 1014.81 501.406 1012.88 502.22C1012.6 502.336 1012.32 502.454 1012.04 502.574C1007.58 504.461 1002.53 506.782 999.662 511.71C997.189 515.954 996.911 519.892 998.185 523.087C999.327 525.951 1001.68 528.137 1004.65 529.385C1004.18 529.766 1003.71 530.125 1003.25 530.461C1002.98 530.663 1002.92 531.05 1003.12 531.325C1003.32 531.6 1003.71 531.659 1003.98 531.457C1004.64 530.974 1005.31 530.447 1005.99 529.874C1010.76 531.346 1016.77 530.568 1022.04 526.599Z" fill="#E5D1C0"/>
</g>
<defs>
<linearGradient id="paint0_linear" x1="689.5" y1="481.336" x2="689.5" y2="720.836" gradientUnits="userSpaceOnUse">
<stop stop-color="#8F4400" stop-opacity="0.35"/>
<stop offset="1" stop-color="#CA8242" stop-opacity="0"/>
</linearGradient>
<clipPath id="clip0">
<rect width="1377" height="773" fill="white" transform="translate(0.5 0.335693)"/>
</clipPath>
</defs>
</svg>
