<svg width="400" height="456" viewBox="0 0 400 456" fill="none" xmlns="http://www.w3.org/2000/svg">
<path d="M144.338 420.771C89.985 473.86 61.5446 459.323 5.29547 427.091L5.29541 135.416C17.093 139.418 70.57 232.749 134.542 128.149C188.944 39.1969 249.884 94.0205 249.884 128.149C249.884 145.213 273.901 173.654 310.557 169.23C347.214 164.806 352.27 190.086 344.054 209.047C343.001 212.694 336.976 221.635 329.73 239.712C321.07 261.315 338.503 262.64 347.263 253.488C368.24 231.572 389.539 230.024 397.983 246.913C405.873 262.693 388.277 289.807 351.646 289.807C338.261 289.807 321.276 307.653 340.894 333.553C371.328 373.733 332.046 398.65 284.013 388.538C248.566 381.076 198.691 367.682 144.338 420.771Z" fill="#DDF0F9"/>
<path d="M137.137 56.6227C119.361 61.4664 98.3145 46.1046 53.3764 34.46C5.38534 22.0243 10.1865 62.7885 32.7038 79.8351C93.8475 126.124 65.4683 161.706 36.1979 153.462C-4.29435 142.057 9.70654 228.338 83.0276 290.984C205.532 290.812 240.269 240.091 299.119 142.057C299.119 74.3947 216.336 12.7367 135.196 10.5605C113.448 9.97718 115.252 22.5193 131.314 30.5087C149.677 39.6422 146.455 54.0838 137.137 56.6227Z" fill="#DEFCFF"/>
<path d="M83.4626 376.467C75.4123 364.327 80.9708 348.447 101.345 340.131C127.861 329.309 143.228 356.441 127.081 374.141C113.662 388.85 90.7262 387.42 83.4626 376.467Z" fill="white" stroke="white" stroke-width="0.96239" stroke-linecap="round" stroke-linejoin="round"/>
<path d="M53.5791 224.923C47.6355 214.565 31.2431 218.122 24.8405 239.525C13.8351 276.314 31.7054 317.777 67.479 317.777C85.8926 317.777 103.355 309.742 110.481 297.824C118.827 283.866 109.826 268.504 90.0869 262.284C70.3473 256.064 61.3768 238.511 53.5791 224.923Z" fill="#9DDDF5"/>
<path d="M42.2259 205.894C18.0714 213.946 27.7788 279.488 51.2112 296.499C97.2431 329.917 145.444 276.053 89.5213 243.976C66.3644 230.694 60.6527 199.752 42.2259 205.894Z" fill="#AD8DFF"/>
<circle cx="160.673" cy="358.37" r="5.2051" fill="white"/>
<path d="M106.823 21.3349C99.508 29.79 81.9415 17.1209 90.5078 7.21951C100.398 -4.21207 113.429 13.6999 106.823 21.3349Z" fill="#C4ECF9"/>
<path d="M145.426 133.083C110.749 139.778 100.647 143.911 99.3699 153.205C90.4802 217.92 188.525 215.962 236.226 213.126C240.169 182.522 248.223 118.782 248.899 108.644C249.743 95.971 242.816 97.3228 236.226 100.871C206.657 117.261 181.923 126.036 145.426 133.083Z" fill="#0E9FFF" stroke="black" stroke-width="1.92478" stroke-linecap="round" stroke-linejoin="round"/>
<path d="M142.236 151.515C117.134 157.031 111.072 157.266 109.943 162.051C108.827 166.782 105.491 181.869 104.806 195.797L233.121 197.852L236.1 152.38C236.447 146.154 237.14 132.321 237.14 126.8C237.278 121.145 236.086 119.026 230.293 122.199C207.674 134.198 167.337 145.998 142.236 151.515Z" fill="#0E9FFF" stroke="black" stroke-width="1.92478" stroke-linecap="round" stroke-linejoin="round"/>
<path d="M268.848 140.481C269.754 133.648 267.479 132.224 261.235 135.382C211.887 160.342 108.266 178.575 110.015 161.992C108.323 167.94 104.94 182.941 104.94 195.359L258.137 205.145C261.447 186.446 268.124 145.947 268.848 140.481Z" fill="#0E9FFF" stroke="black" stroke-width="1.92478" stroke-linecap="round" stroke-linejoin="round"/>
<g style="mix-blend-mode:darken">
<path fill-rule="evenodd" clip-rule="evenodd" d="M102.122 162.69C101.588 155.751 103.812 150.591 119.559 148.278C153.652 143.27 187.689 132.92 219.247 119.181C232.84 113.264 239.808 108.325 239.808 125.466C239.808 137.169 239.032 143.183 238.86 145.162C202.266 158.308 131.191 174.054 114.83 166.955C160.888 183.175 229.652 169.614 268.753 142.339C268.37 144.684 267.342 150.652 266.3 155.766C223.915 178.024 140.803 189.508 108.349 168.882C108.35 168.84 108.353 168.795 108.356 168.748C105.759 167.03 103.118 163.994 102.122 162.69ZM237.14 134.805C237.14 132.649 237.14 135.767 237.14 126.585C237.14 117.402 232.671 120.865 227.449 123.489C197.977 138.298 165.095 146.816 132.963 153.468C130.125 154.055 110.424 156.685 110.609 160.716C111.346 176.756 229.359 138.898 237.14 134.805Z" fill="#008AE6"/>
</g>
<path d="M99.8118 151.488C96.476 158.345 98.2127 193.812 95.5493 225.248C93.9759 243.818 91.564 265.097 90.3359 272.292C89.1079 279.487 84.0203 301.063 132.791 301.59C171.391 302.006 265.252 291.566 276.471 264.924C302.022 204.248 298.618 156.336 298.352 145.836C298.151 137.964 294.242 135.848 288.05 141.243C235.693 186.861 93.6789 193.754 99.8118 151.488Z" fill="#35D2FF" stroke="black" stroke-width="1.92478" stroke-linecap="round" stroke-linejoin="round"/>
<mask id="mask0" mask-type="alpha" maskUnits="userSpaceOnUse" x="216" y="213" width="50" height="40">
<path d="M216.114 230.417C233.164 228.321 255.827 218.48 265.027 213.821C251.751 266.054 214.017 258.018 216.114 230.417Z" fill="black"/>
</mask>
<g mask="url(#mask0)">
<circle cx="240.573" cy="232.594" r="34.1132" fill="#0066CC"/>
<path d="M210.771 230.857C225.341 236.233 248.681 237.93 252.783 216.995C240.618 214.449 218.41 222.795 210.771 230.857Z" fill="white" stroke="black" stroke-width="1.92478" stroke-linecap="round" stroke-linejoin="round"/>
</g>
<path d="M216.113 230.417C233.163 228.321 255.827 218.48 265.027 213.821C251.75 266.054 214.017 258.018 216.113 230.417Z" stroke="black" stroke-width="1.92478" stroke-linecap="round" stroke-linejoin="round"/>
<path d="M236.403 263.166C231.12 283.922 224.579 291.892 212.67 293.859C227.783 300.431 239.849 297.226 244.076 294.236C244.957 296.501 251.749 298.765 255.02 302.161C258.291 305.558 260.806 312.099 268.102 307.067C275.398 302.035 267.473 292.979 254.139 288.576C254.601 286.815 256.026 280.173 258.039 267.695C260.555 252.097 260.429 240.398 253.007 238.637C245.586 236.876 241.686 242.411 236.403 263.166Z" fill="#FFC835" stroke="black" stroke-width="1.92478" stroke-linecap="round" stroke-linejoin="round"/>
<g style="mix-blend-mode:darken">
<path d="M293.806 192.546C286.895 205.012 276.598 210.432 264.945 214.226L263.696 219.235C273.024 215.461 286.696 210.263 293.806 192.546Z" fill="#00A1E6"/>
</g>
<path d="M204.829 257.632C200.174 271.972 186.285 295.115 174.268 299.431C195.274 318.928 212.502 300.149 216.275 266.814C217.911 271.468 222.011 282.815 225.332 290.966C224.2 292.601 223.068 300.149 230.741 310.086C238.415 320.024 246.842 318.011 251.245 316.124C255.648 314.237 254.516 310.715 251.245 308.451C247.975 306.187 240.427 301.155 236.653 296.501C235.983 294.237 234.339 287.243 233.131 277.381C231.622 265.053 230.993 249.581 224.326 244.675C217.659 239.769 209.224 244.088 204.829 257.632Z" fill="#FFC835" stroke="black" stroke-width="1.92478" stroke-linecap="round" stroke-linejoin="round"/>
<path d="M111.318 181.884C108.892 179.895 105.566 178.238 104.457 179.772C103.504 181.09 104.522 183.247 107.048 185.086C114.714 190.666 123.98 192.315 132.665 192.315C136.74 192.315 136.783 188.942 132.665 188.628C121.846 187.803 113.743 183.873 111.318 181.884Z" fill="white"/>
<path d="M231.824 180.612C234.416 179.716 235.504 182.692 233.104 183.705C230.4 184.847 229.416 181.443 231.824 180.612Z" fill="white"/>
<path d="M241.851 181.572C238.498 182.186 237.898 179.303 240.838 178.345C252.28 174.615 260.624 170.371 266.575 167.323C272.742 164.164 285.134 155.531 287.007 154.13C288.879 152.73 290.132 153.629 288.779 155.894C287.426 158.16 280.072 165.264 268.97 171.205C254.82 178.776 246.947 180.638 241.851 181.572Z" fill="white"/>
<g opacity="0.3">
<path d="M103.255 233.475C98.7863 239.731 98.6078 249.291 103.587 257.973C107.762 265.252 116.173 259.34 110.148 252.713C109.017 251.469 102.456 242.532 108.904 236.198C115.352 229.863 111.279 224.264 110.148 222.737C109.017 221.21 108.234 216.621 107.979 213.302C107.724 209.982 109.384 205.769 106.83 205.258C104.276 204.747 103.255 213.302 104.276 218.664C105.298 224.027 107.724 227.219 103.255 233.475Z" fill="white"/>
<path d="M102.894 264.575C105.121 265.386 106.269 270.07 108.055 272.791C111.399 277.888 116.939 279.579 116.283 282.611C115.262 287.338 105.031 288.119 99.2398 280.188C95.4359 274.978 96.6367 262.298 102.894 264.575Z" fill="white"/>
</g>
<path d="M244.318 254.687C248.109 271.299 245.77 283.476 244.802 285.976C243.835 288.476 242.902 292.088 244.075 294.354M251.553 291.235C252.795 290.826 253.957 289.384 254.233 288.193" stroke="black" stroke-width="1.92478" stroke-linecap="round" stroke-linejoin="round"/>
<path d="M216.004 208.933C221.323 207.575 226.424 207.895 228.31 208.225L218.974 216.429" stroke="black" stroke-width="1.92478" stroke-linecap="round" stroke-linejoin="round"/>
<path d="M262.539 196.768L252.92 203.133L260.558 204.123" stroke="black" stroke-width="1.92478" stroke-linecap="round" stroke-linejoin="round"/>
<path d="M216.007 265.163C191.168 269.144 147.913 266.142 119.919 233.63L136.388 236.473C170.625 259.672 199.224 251.161 214.53 247.043C229.836 242.925 229.894 262.937 216.007 265.163Z" fill="#35D2FF"/>
<path d="M119.919 233.63C147.913 266.142 191.168 269.144 216.007 265.163C229.894 262.937 229.836 242.925 214.53 247.043C199.224 251.161 170.625 259.672 136.388 236.473" stroke="black" stroke-width="1.92478" stroke-linecap="round" stroke-linejoin="round"/>
<path d="M266.003 218.27C284.72 211.521 293.879 199.875 297.658 180.662C298.187 180.937 299.169 182.454 298.864 186.325C298.482 191.163 292.913 221.952 291.512 228.064C290.112 234.175 286.164 245.381 266.938 254.548C241.876 266.498 245.168 225.781 266.003 218.27Z" fill="#35D2FF" stroke="black" stroke-width="1.92478" stroke-linecap="round" stroke-linejoin="round"/>
<path d="M265.567 228.06C276.61 226.641 273.47 247.411 262.629 248.526C251.787 249.64 255.232 229.478 265.567 228.06Z" fill="#FFC835" stroke="black" stroke-width="1.92478" stroke-linecap="round" stroke-linejoin="round"/>
<g style="mix-blend-mode:darken" opacity="0.5">
<path d="M120.292 233.944C125.681 248.66 141.18 269.202 178.939 276.882C193.822 279.909 180.999 293.588 174.542 299.594C178.346 297.884 188.208 290.736 201.815 266.603C177.59 267.264 140.366 259.262 120.292 233.944Z" fill="#0E9FFF"/>
</g>
<g style="mix-blend-mode:darken" opacity="0.5">
<path d="M233.096 277.77C238.797 280.401 246.363 266.256 244.719 255.949C249.175 265.915 249.267 275.937 248.309 286.437C247.593 294.288 267.308 311.144 270.095 299.995C271.803 303.037 270.789 305.866 266.519 308C262.25 310.135 260.382 308.587 257.607 305.278C255.204 301.222 251.691 299.453 248.806 298.001C246.576 296.878 244.721 295.944 244.043 294.288C241.468 295.867 238.463 296.947 237.282 297.29C234.933 292.084 233.602 282.466 233.096 277.77Z" fill="#FF8C25"/>
<path d="M250.254 238.008C249.795 238.387 247.593 238.896 247.593 238.896C244.719 254.983 250.254 259.2 258.99 260.9L257.952 269.137C270.723 265.561 277.128 256.262 281.931 244.717C269.585 255.005 245.373 265.325 250.254 238.008Z" fill="#FF8C25"/>
</g>
</svg>
