<svg width="1376" height="426" viewBox="0 0 1376 426" fill="none" xmlns="http://www.w3.org/2000/svg">
<path d="M0 24.8562C16.9495 1.65616 54.7369 7.65617 78.7653 23.7562C102.794 39.8562 227.5 124.889 218.549 59.7562C214 33.8887 232 10.8887 232 10.8887C232 10.8887 259.5 -24.1113 295.5 31.3887C307 58.3887 299.607 69.2562 290.734 116.556C269.198 232.156 391.434 142.156 434.705 167.756C485.454 197.856 454.147 293.756 545.375 237.756C594.229 207.756 639.096 215.756 677.98 231.756C737.403 256.156 788.052 183.656 877.386 197.756C954.5 176.156 940.569 162.321 1198.5 213.889C1231.5 220.486 1230.73 187.556 1253.56 176.156C1280.48 162.756 1321.16 163.056 1327.05 192.056C1334.82 230.256 1288.56 245.156 1279.79 252.556C1262.34 267.256 1269.62 289.856 1291.15 293.256C1324.15 298.556 1357.95 283.656 1376 252.556V425.756H0V24.8562Z" fill="url(#paint0_linear)"/>
<path d="M171.285 184.825C189.836 183.961 197.507 209.084 189.836 220.625C181.382 221.41 172.865 217.703 167.371 217.327C160.483 216.856 149.133 227.847 143.81 219.211C141.462 196.758 153.673 186.159 161.187 184.825C163.577 184.4 163.927 184.589 171.285 184.825Z" fill="#FFC835"/>
<path d="M189.864 220.475C198.658 206.337 187.148 180.784 168.008 185.324C151.332 189.279 149.687 211.742 151.713 222.032" stroke="black" stroke-width="2" stroke-linecap="round" stroke-linejoin="round"/>
<path d="M143.851 219.136C141.6 197.567 153.055 184.634 163.461 184.634L172.822 184.777L172.812 184.795C171.273 184.763 169.668 184.93 168.006 185.324C151.33 189.28 149.685 211.742 151.711 222.032C151.799 222.017 151.885 222.002 151.971 221.986L151.942 222.038" stroke="black" stroke-width="2" stroke-linecap="round" stroke-linejoin="round"/>
<path d="M140.246 214.432C149.488 231.861 159 215.439 171.501 218.011C179.033 219.561 190.81 224.104 197.464 218.003" stroke="#0DBAEC" stroke-width="2" stroke-linecap="round" stroke-linejoin="round"/>
<mask id="mask0" mask-type="alpha" maskUnits="userSpaceOnUse" x="1239" y="275" width="87" height="63">
<path d="M1279.21 327.986C1292.05 318.954 1301.72 316.683 1325.71 326.954L1304.56 275.069L1239.78 298.343C1243.33 311.668 1251.09 338.089 1253.64 337.171C1256.84 336.023 1266.37 337.019 1279.21 327.986Z" fill="black"/>
</mask>
<g mask="url(#mask0)">
<path d="M1314.65 322.794C1323.69 354.53 1278.68 366.717 1269.48 336.73C1260.29 306.742 1305.6 291.058 1314.65 322.794Z" fill="#FFC835"/>
<path d="M1284.9 307.208L1278.34 310.533C1268.51 315.52 1265.28 328.927 1271.07 340.421C1276.87 351.916 1289.55 357.247 1299.38 352.26L1305.94 348.935M1305.98 349.013C1296.15 354.001 1283.46 348.669 1277.67 337.175C1271.87 325.68 1275.1 312.274 1284.94 307.287C1294.77 302.299 1307.45 307.631 1313.25 319.125C1319.04 330.62 1315.81 344.026 1305.98 349.013Z" stroke="black" stroke-width="2" stroke-linecap="round" stroke-linejoin="round"/>
</g>
<path d="M1325.71 326.954C1301.77 316.404 1292.15 318.637 1279.43 327.689C1266.71 336.74 1257.21 335.67 1254.04 336.81" stroke="#0DBAEC" stroke-width="2" stroke-linecap="round" stroke-linejoin="round"/>
<mask id="mask1" mask-type="alpha" maskUnits="userSpaceOnUse" x="1229" y="299" width="94" height="60">
<path d="M1262.71 355.587C1279.3 350.598 1309.99 351.557 1322.85 358.081V299.665H1229.11V358.081C1234.78 358.913 1249.44 359.578 1262.71 355.587Z" fill="#00A5DA"/>
</mask>
<g mask="url(#mask1)">
<path d="M1284 373.05C1251.03 388.375 1230.08 341.213 1261.12 326.021C1292.16 310.83 1316.97 357.725 1284 373.05Z" fill="#FFC835"/>
<path d="M1295.86 337.834L1291.13 331.231C1284.02 321.328 1268.89 320.082 1257.38 328.39C1245.87 336.697 1242.24 351.485 1249.34 361.389L1254.08 367.991M1254 368.048C1246.9 358.145 1250.53 343.356 1262.04 335.049C1273.55 326.741 1288.68 327.987 1295.79 337.89C1302.89 347.794 1299.26 362.582 1287.75 370.889C1276.24 379.197 1261.11 377.951 1254 368.048Z" stroke="black" stroke-width="2" stroke-linecap="round" stroke-linejoin="round"/>
</g>
<path d="M1322.85 358.137C1309.99 352.194 1279.3 351.319 1262.71 355.865C1249.44 359.501 1234.78 358.895 1229.11 358.137" stroke="#00A5DA" stroke-width="2" stroke-linecap="round" stroke-linejoin="round"/>
<path d="M390.777 211.205C367.547 210.123 357.942 241.581 367.548 256.032C378.133 257.015 388.798 252.374 395.677 251.903C404.303 251.314 418.515 265.076 425.18 254.263C428.12 226.147 412.83 212.876 403.421 211.205C400.429 210.673 399.99 210.91 390.777 211.205Z" fill="#FFC835"/>
<path d="M378.636 249.59L382.761 254.338M378.433 241.382L386.548 250.336M389.795 241.315L393.785 223.203M378.433 241.315L394.191 222.321L400.954 249.319L389.727 241.315H378.433Z" stroke="#FF9900" stroke-width="3" stroke-linecap="round" stroke-linejoin="round"/>
<path d="M367.517 255.846C356.505 238.142 370.917 206.146 394.884 211.83C415.765 216.783 417.824 244.91 415.287 257.795" stroke="black" stroke-width="2" stroke-linecap="round" stroke-linejoin="round"/>
<path d="M425.129 254.169C427.948 227.16 413.604 210.967 400.573 210.967L388.853 211.146L388.865 211.168C390.792 211.128 392.801 211.337 394.882 211.831C415.764 216.784 417.823 244.91 415.286 257.795C415.177 257.777 415.069 257.757 414.962 257.738L414.998 257.802" stroke="black" stroke-width="2" stroke-linecap="round" stroke-linejoin="round"/>
<path d="M429.647 248.279C418.074 270.103 406.163 249.54 390.51 252.76C381.079 254.701 366.332 260.39 358 252.749" stroke="#0DBAEC" stroke-width="2" stroke-linecap="round" stroke-linejoin="round"/>
<defs>
<linearGradient id="paint0_linear" x1="688" y1="153.889" x2="688" y2="425.889" gradientUnits="userSpaceOnUse">
<stop stop-color="#DDFBFF"/>
<stop offset="1" stop-color="#DDFBFF" stop-opacity="0"/>
</linearGradient>
</defs>
</svg>
