<svg width="1445" height="738" viewBox="0 0 1445 738" fill="none" xmlns="http://www.w3.org/2000/svg">
<path d="M1444.09 36.3051C1433.43 45.5451 1443.34 44.305 1424.21 26.825C1427.96 34.5208 1430.39 42.7878 1431.41 51.285C1421.58 69.435 1431.01 69.2851 1420.35 52.0251C1420.38 55.0402 1420.14 58.0521 1419.64 61.0251C1417.24 54.7568 1415.92 48.1255 1415.74 41.415C1411.04 49.315 1408.91 59.005 1407.87 68.035C1405 58.545 1401.3 49.655 1395.01 41.515C1396.42 47.2403 1397.04 53.1321 1396.84 59.0251C1385 73.2151 1389.75 90.7351 1383.65 64.0851C1370.44 104.285 1390.38 95.5251 1359.49 80.9351C1363.5 87.0384 1366.85 93.5478 1369.49 100.355C1355.7 98.4251 1340.8 99.6151 1330.05 109.355C1341.19 106.605 1351.75 109.725 1361.41 115.355C1352.56 116.355 1343.76 118.775 1336.33 123.955C1324.42 123.055 1312.46 127.415 1304.47 137.725C1311.47 134.525 1319.47 130.285 1327.39 133.075C1324.39 139.195 1319.39 143.355 1315.39 147.465C1317.39 146.405 1319.39 146.345 1321.39 145.285C1320.57 148.21 1320.23 151.251 1320.39 154.285C1320.39 149.285 1324.39 146.205 1326.39 145.145C1331.39 142.975 1339.34 144.655 1342.32 150.475C1332.32 153.845 1326.32 162.935 1318.32 169.115C1308.91 174.385 1306.91 159.895 1303.91 154.945C1305.91 162.745 1306.79 171.285 1300.91 176.005C1287.63 186.665 1267.91 183.265 1253.91 194.245C1263.91 190.805 1282.91 181.025 1285.91 195.545C1286.91 204.195 1269.91 201.645 1264.91 210.105C1268.91 207.375 1272.91 206.555 1277.91 205.785C1282.91 205.175 1285.1 209.045 1284.02 212.515C1286.96 209.315 1293.28 213.615 1294.91 217.835C1298.12 226.175 1296.91 232.115 1296.91 240.835C1295.91 235.085 1289.91 230.145 1289.91 223.455C1287.91 230.085 1284.91 237.655 1287.91 245.395C1283.19 242.565 1278.46 236.285 1280.48 230.825C1279.88 232.405 1279.74 234.005 1278.91 235.575C1273.91 230.625 1267.91 226.575 1263.91 220.695C1270.91 234.385 1278.91 250.945 1272.91 266.265C1270.95 258.41 1267.92 250.861 1263.91 243.825V275.825C1255.91 263.015 1243.91 245.245 1225.91 246.825C1240.91 252.015 1247.91 266.825 1250.91 281.545C1246.91 277.545 1242.91 273.545 1237.91 270.545C1241.91 276.545 1244.91 284.415 1239.91 291.305C1238.91 292.305 1236.91 294.305 1234.91 293.305C1228.91 287.305 1235.91 278.435 1230.91 271.475C1232.91 276.475 1226.91 279.355 1227.91 284.325C1221.99 270.924 1218.92 256.436 1218.91 241.785C1215.91 260.445 1214.91 279.285 1207.91 297.285C1203.91 278.285 1198.91 259.285 1194.91 240.415C1195.91 257.305 1192.91 274.285 1194.91 291.285C1190.91 285.285 1190.91 278.285 1188.91 272.285C1183.91 278.285 1185.91 286.285 1183.91 293.285C1181.97 279.734 1178.96 266.359 1174.91 253.285C1175.07 268.049 1173.73 282.791 1170.91 297.285C1168.91 291.285 1166.91 286.285 1165.91 280.285C1164.17 283.085 1162.82 286.114 1161.91 289.285C1159.91 282.285 1161.91 275.285 1159.91 268.285C1156.91 274.285 1153.91 280.285 1152.91 287.285C1152.91 272.285 1145.91 258.285 1140.91 244.285C1143.91 253.285 1142.91 263.285 1143.91 273.285C1133.91 261.285 1130.91 246.285 1123.91 233.285C1125.91 256.285 1140.91 276.285 1137.91 299.285C1136.91 293.285 1131.91 287.285 1130.91 281.285C1128.91 286.285 1129.91 291.285 1126.91 296.285C1126.75 292.59 1127.08 288.89 1127.91 285.285C1122.91 289.285 1120.91 295.285 1118.91 300.285C1112.91 282.285 1104.91 265.285 1092.91 249.285C1104.71 270.925 1107.03 296.855 1099.91 321.285C1099.91 320.285 1098.91 320.285 1098.91 319.285C1096.91 320.285 1095.91 322.285 1096.91 324.285C1094.91 320.285 1094.91 315.285 1091.91 311.285C1091.91 315.285 1087.91 319.285 1087.91 323.285C1086.91 307.285 1078.91 293.285 1072.91 278.285C1075.91 297.285 1080.91 317.285 1071.91 336.285C1070.03 328.755 1069.03 321.215 1063.91 315.355V301.195C1055.8 316.162 1052.98 333.427 1055.91 350.195C1055.81 350.195 1041.59 324.665 1013.91 314.195C1026.48 326.355 1041.91 353.195 1030.91 373.195C1027.91 362.195 1026.91 350.195 1028.91 339.195C1020.91 352.195 1017.91 367.195 1016.91 382.195C991.91 369.195 972.91 348.195 952.91 329.195C963.91 342.195 972.91 355.195 985.91 367.195C976.59 362.115 966.55 359.895 956.4 356.295C970.68 361.905 985.28 368.825 992.91 383.195C996.06 389.125 993.91 400.195 988.91 398.195C983.91 397.195 983.91 387.195 980.91 381.195C980.91 394.195 973.91 410.195 959.91 412.195C962.91 405.195 960.91 396.195 968.91 393.195C959.91 391.195 953.91 398.195 948.91 404.195C948.91 391.075 941 379.705 937.54 367.625C941.71 385.055 939.24 404.775 924.91 417.195C924.91 411.195 924.91 404.195 928.91 399.195C921.91 400.195 918.91 406.195 912.91 409.195C911.57 401.195 905.76 396.715 901.15 391.355C904.75 405.195 891.32 419.865 879.85 427.245C877.85 428.245 871.85 421.245 874.85 415.245C875.162 414.617 875.597 414.059 876.13 413.603C876.663 413.148 877.282 412.805 877.95 412.595C871.1 413.386 864.215 411.442 858.79 407.185C861.32 412.365 859.91 419.295 854.91 422.185C853.91 417.185 852.91 412.185 849.91 407.185C847.91 415.185 845.91 423.185 841.91 430.185C837.91 422.185 835.91 414.185 829.91 408.185C826.91 412.185 832.91 417.185 829.91 421.185C826.442 409.915 820.225 399.685 811.82 391.415C811.342 393.115 810.72 394.771 809.96 396.365C808.67 389.675 804.63 386.245 796.58 380.025C803.21 385.135 806.91 394.185 806.91 402.185C805.91 411.185 802.91 421.185 794.91 427.185C791.91 415.185 786.91 404.185 780.91 393.185C782.91 405.437 782.91 417.933 780.91 430.185C779.91 429.185 779.91 427.185 778.91 426.185C776.91 428.185 774.91 430.185 772.91 431.185C769.91 424.185 770.91 416.185 772.91 409.185C766.91 412.185 763.91 417.185 760.91 422.185C757.91 417.185 755.91 411.185 752.91 406.185C753.048 411.188 752.268 416.173 750.61 420.895C745.67 416.385 739.83 421.245 735.91 424.185C734.91 418.185 739.91 412.185 743.91 408.185C736.91 409.185 731.91 414.185 725.91 417.185C724.69 406.815 719 398.315 712.26 390.525C712.92 396.155 712.32 402.095 708.65 406.525C706.358 406.427 704.063 406.598 701.81 407.035C695.4 409.975 688.03 411.965 684.91 418.195C674.91 403.195 681.91 382.195 695.91 373.195C687.91 378.195 678.91 382.195 672.91 391.195C671.91 377.195 679.91 364.195 690.91 357.195C676.91 361.195 664.91 373.195 662.91 388.195C654.91 381.195 649.91 372.195 640.91 367.195C651.72 380.955 665.43 399.545 653.55 416.325L652.73 416.075C651.17 408.605 644.86 403.845 643.91 397.195C642.91 401.195 638.91 403.195 638.91 407.195C633.91 402.195 633.91 395.195 632.91 389.195C627.91 392.195 625.91 397.195 624.91 402.195C620.91 389.195 618.91 375.195 611.91 363.195C614.91 374.195 610.91 385.195 609.91 396.195C606.91 391.195 603.91 385.195 605.91 379.195C599.91 380.195 596.91 386.195 596.91 392.195C588.91 380.195 587.91 367.195 589.91 353.195C583.91 357.195 581.91 364.195 577.91 369.195C576.91 367.195 576.91 365.195 575.91 363.195C573.91 369.195 573.91 375.195 572.91 381.195C568.91 376.195 566.91 370.195 565.91 364.195C562.91 367.195 562.91 372.195 562.91 376.195C561.91 373.195 561.91 371.195 560.91 368.195C557.829 370.313 555.68 373.536 554.91 377.195C550.91 360.195 547.91 343.195 539.91 327.195C542.61 339.805 542.91 353.195 541.44 366.745C541.15 363.225 539.8 359.745 541.91 356.195C533.91 362.195 531.91 373.195 531.91 382.195C530.91 376.195 526.91 372.195 525.91 366.195C524.47 367.635 522.53 369.065 522.28 371.195C521 364.015 521.64 356.435 526.91 351.195C516.91 355.195 512.91 366.195 509.91 375.195C506.91 369.195 508.91 361.195 503.91 355.195C504.91 364.195 501.91 373.195 499.91 382.195C495.91 378.195 497.91 372.195 493.91 368.195C493.91 375.195 490.91 381.195 489.91 388.195C489.91 384.195 485.91 381.195 485.91 377.195L480.91 382.195C477.91 365.195 474.91 347.195 466.91 331.195C468.91 342.195 470.91 354.195 464.91 364.195C461.91 359.195 465.91 355.195 464.91 350.195L458.91 359.195V343.195C457.91 348.195 452.91 350.195 451.91 355.195C450.91 343.195 455.91 332.195 461.91 322.295C451.91 329.195 445.91 339.195 439.91 349.195C438.91 347.195 438.91 344.195 437.91 342.195C435.91 346.195 436.91 351.065 432.11 354.075C431.8 353.525 431.51 352.975 431.23 352.415C430.962 351.198 430.628 349.996 430.23 348.815C435.74 341.815 444.48 336.875 447.95 328.195C446.446 328.444 445.052 329.141 443.95 330.195C444.95 327.195 444.95 323.195 447.95 323.195C449.006 323.337 449.971 323.864 450.66 324.675C448.33 321.125 448.19 317.045 449.17 313.125C447.658 315.843 445.989 318.471 444.17 320.995C440.819 317.233 437.16 313.758 433.23 310.605C438.972 308.7 445.005 307.83 451.05 308.035C451.87 306.385 452.82 304.804 453.89 303.305C453.89 302.305 457.89 303.385 460.82 304.445C446.92 297.245 430.94 298.195 416.94 293.195C420.94 291.195 424.94 292.195 428.94 292.195C421.94 285.195 412.94 292.195 404.94 287.195C416.44 285.195 427.94 286.195 439.18 288.965C451 290.195 461 298.195 472 301.235C452.67 289.985 432.91 276.235 410 275.235C428 269.235 436 250.235 438 233.235C432 245.235 421 255.235 409 262.235C412 256.235 417 251.235 416 244.235C415 253.235 401 254.235 399 245.235C398 240.235 398 236.235 402 232.235C397 235.235 391 246.235 385 237.235C385 236.235 386 235.235 386 234.235C379 238.235 375 232.235 370 232.235C379 225.235 391 226.235 401 222.235C388 219.235 375 219.235 362 219.235C364 212.235 373 213.235 378 213.235C373.863 212.356 369.838 211.014 366 209.235C370 205.235 376 204.235 379 200.235C371 201.235 362 203.235 355 207.235C356 200.235 354 194.235 354 187.235C352 194.235 343 199.235 339 196.235C335 193.235 339.94 186.135 345 183.235C355.87 177.015 370 179.235 381 183.235C371 176.235 358 174.235 346.12 175.735C334 177.445 322 182.705 312 189.195C317 177.195 322 164.195 332 155.195C323 161.195 314 167.195 308 176.195C304 153.195 303 130.195 301 107.195C297 130.195 300 154.195 293 177.195C293.165 173.5 292.828 169.8 292 166.195C293 170.195 289 172.195 288 175.195C284.301 168.108 283.083 159.986 284.54 152.125L285.23 155.405C285.39 154.545 285.55 153.685 285.76 152.835L284.64 151.575C285.428 147.243 286.9 143.064 289 139.195C278.18 148.745 275.46 162.335 275.43 176.375C268.43 161.675 269.43 145.455 269.07 130.075C265.18 145.845 258.75 160.955 260.91 176.895C260.08 172.895 254.58 169.665 253.74 165.725C251.52 169.425 251.86 173.465 251.17 177.175H250.55C250.213 176.55 249.739 176.009 249.165 175.592C248.59 175.175 247.929 174.892 247.23 174.765C247.44 175.765 246.23 175.915 246.48 176.905C233.56 154.805 230.11 128.845 239.7 104.795C229.01 122.545 223.2 140.615 219.94 159.345C216.57 154.745 212.94 149.165 206.32 146.055C208.32 149.825 208.94 152.785 209.77 156.725C205.23 152.295 205.36 147.205 201.98 142.605C202.06 148.685 197.47 155.425 197.55 161.495C189.27 139.325 202.63 117.145 200.18 94.1451C194.71 108.145 194.33 123.395 185.18 136.865C184.27 126.865 181.03 117.165 182.66 107.795C179.73 122.415 174.47 137.365 177.59 152.155C174.96 145.415 170.22 140.005 165.47 134.585C164.59 141.815 168.38 148.375 167.47 155.585C165.693 152.551 163.491 149.786 160.93 147.375C161.47 188.905 148.61 156.775 163.01 135.185C155.01 140.185 148.01 149.185 148.01 158.185C144.01 142.185 140.01 126.295 132.14 112.665C133.277 122.065 133.838 131.526 133.82 140.995C109.05 157.995 124.15 162.385 115.63 104.885C113.01 90.185 110.01 75.1851 101.01 62.1851C110.01 86.1851 109.01 112.185 106.01 137.185C106.166 135.457 105.819 133.72 105.01 132.185C93.3005 190.715 90.2605 136.435 106.01 101.425C72.0105 141.365 89.7505 168.015 72.0105 88.185C71.0105 102.185 73.0105 115.185 71.0105 129.185C68.0105 121.185 70.0105 112.185 65.0105 105.185C65.0105 114.185 65.0105 124.185 63.0105 133.185C59.0105 106.185 71.0105 79.1851 90.0105 60.1851C69.0105 71.1851 56.0104 93.185 48.0104 115.185C51.0104 77.185 59.0104 31.1851 31.0104 0.185059C49.0104 26.1851 45.0104 61.185 34.0104 89.185C34.0104 88.185 34.0104 86.185 33.0104 85.185C32.0104 89.185 32.0104 93.185 29.0104 96.185C27.0104 82.185 30.0104 67.1851 35.0104 54.1851C29.0104 58.1851 29.0104 65.1851 23.0104 69.1851C25.0104 60.1851 23.0104 50.1851 24.0104 41.1851C22.0104 48.1851 18.0104 55.1851 17.0104 62.1851C14.0104 50.1851 12.0104 38.1851 16.0104 26.1851C1.07045 47.6051 1.26045 96.1351 0.710449 121.915C0.710449 164.585 1.22045 18.915 1.22045 737.525H1444.09V36.3051ZM1064 316.645C1065.73 322.045 1064.87 327.995 1064 333.195V316.645ZM349.23 214.815L348.46 214.125C348.97 213.885 349.46 213.645 350 213.415C349.75 213.905 349.49 214.365 349.23 214.815ZM133.76 142.065C133.05 183.245 116.2 170.065 133.76 142.065V142.065Z" fill="url(#paint0_linear)"/>
<path opacity="0.5" d="M473.47 504.485C480.01 466.015 446.91 405.635 436.8 389.775C457.43 432.445 442.8 470.725 442.8 461.185C440.8 461.715 439.8 463.475 440.8 465.715C438.8 461.245 438.8 456.245 435.8 451.535C435.8 455.535 431.8 462.595 431.8 462.595C430.8 446.365 422.8 430.475 416.8 414.065C419.8 433.775 424.8 454.945 415.8 471.825C404.41 459.925 407.8 434.945 407.8 434.945C399.8 448.065 396.8 464.355 399.8 482.065C399.7 481.985 385.49 453.155 357.8 436.175C370.37 451.285 385.8 481.765 374.8 499.175C371.8 487.465 370.8 475.235 372.8 464.705C364.8 475.825 361.8 490.115 360.8 504.875C335.8 485.995 316.8 460.515 296.8 436.815C307.8 452.405 316.8 467.515 329.8 482.585C320.48 475.305 310.44 470.705 300.29 464.705C349.71 495.705 339.1 518.255 332.8 514.255C327.8 512.075 327.8 502.075 324.8 495.375C324.8 511.265 315.33 522.755 301.26 527.835C308.39 528.175 314.49 526.835 319.81 523.095C326.81 529.615 329.05 537.745 331.02 546.095C332.707 540.291 333.183 534.202 332.42 528.205C345.33 535.655 339.01 546.095 347.42 513.305C357.74 521.735 363.31 533.225 367.25 545.125C371.25 537.765 372.78 528.945 371.68 518.495C377.18 521.775 380.76 526.585 383.8 532.215C386.91 521.055 387.69 509.215 392 498.615C396.22 503.067 399.707 508.161 402.33 513.705C404.33 509.315 404.91 504.705 405.33 499.595C421.87 514.595 427.1 531.705 429.11 551.035C438.2 533.315 434.11 509.305 428.5 486.875C438.35 495.605 443.25 506.265 447.15 518.095C448.58 511.095 448.51 504.485 447.8 496.905C451.356 502.171 454.097 507.942 455.93 514.025C454.93 499.235 453.93 483.885 460.3 472.285C468.62 484.215 473.47 504.485 473.47 504.485Z" fill="url(#paint1_linear)"/>
<path d="M350.77 537.245C292.42 591.955 337.35 603.385 297.71 573.245C305.12 589.925 310.49 609.075 306.25 626.825C320.32 621.335 321.25 622.145 341.39 620.065C331.92 586.505 333.58 569.455 350.77 537.245Z" fill="url(#paint2_linear)"/>
<path opacity="0.6" d="M90.0007 478.025L81.0607 454.025L75.0007 478.025H90.0007ZM75.6807 483.845C70.6807 449.105 67.6807 428.315 59.6807 393.845C61.8907 428.735 61.4807 449.325 60.6807 483.845H75.6807Z" fill="url(#paint3_linear)"/>
<path d="M60.7305 580.765C57.4205 521.185 45.2505 497.445 19.7305 445.835C39.4805 499.605 48.6305 523.415 45.7305 580.765H60.7305Z" fill="url(#paint4_linear)"/>
<path d="M690 518.705C685.37 488.395 681.45 464.185 694.32 436.455C676.32 462.215 675.8 488.315 675.03 519.655L690 518.705Z" fill="url(#paint5_linear)"/>
<path d="M847.14 549.935C849.72 518.935 848.56 508.525 839.82 477.935C853.63 505.935 857.04 517.415 859.82 549.935H847.14Z" fill="url(#paint6_linear)"/>
<path d="M952.6 610.485C949.6 584.655 947.6 565.055 956.85 538.645C942.19 563.115 939.85 584.195 937.61 610.965L952.6 610.485Z" fill="url(#paint7_linear)"/>
<path d="M1004.25 485.345C1006.88 460.655 1006.12 441.795 997.17 418.595C1011.17 439.915 1016.08 459.505 1018.73 485.345H1004.25Z" fill="url(#paint8_linear)"/>
<path d="M1212.27 415.705C1207.37 398.075 1198.65 382.795 1188.73 367.495C1193.57 383.795 1197.73 400.695 1197.41 417.755L1212.27 415.705Z" fill="url(#paint9_linear)"/>
<path d="M1305.63 640.705C1294.49 613.255 1285.31 583.185 1275.18 554.145C1280.4 584.205 1284.26 613.964 1291.29 645.144L1305.63 640.705Z" fill="url(#paint10_linear)"/>
<path opacity="0.5" d="M1416.06 538.055C1410.93 511.715 1413.34 489.575 1419.58 463.375C1402.68 487.235 1391.82 508.305 1386.06 537.575L1416.06 538.055Z" fill="url(#paint11_linear)"/>
<path d="M1427.71 233.245C1425.53 201.768 1427.48 166.939 1427.71 133.245C1422.51 165.529 1415.64 196.198 1412.71 232L1427.71 233.245Z" fill="url(#paint12_linear)"/>
<path d="M1387.29 122.145C1390.64 103.455 1402.06 98.085 1402.06 98.085C1402.06 98.085 1400.84 108.535 1403.42 117.775" stroke="#163050" stroke-width="3" stroke-linecap="round" stroke-linejoin="round"/>
<path d="M40.7104 130.909C37.8786 108.502 32.303 95.3082 21.7104 76.2451C37.1829 138.962 11.8822 130.909 40.7104 130.909Z" fill="url(#paint13_linear)"/>
<path d="M40.7104 131.245C37.8786 108.701 32.303 95.4254 21.7104 76.2451C26.7373 96.7413 28.7264 110.529 25.8848 131.245" stroke="#163050" stroke-width="3" stroke-linecap="round" stroke-linejoin="round"/>
<path d="M924.79 530.175C924.79 530.175 918.5 535.695 914.79 550.175C914.79 550.175 911.86 533.485 904.91 525.385C905.43 532.565 905.57 547.945 905.57 547.945C905.57 547.945 898.3 523.175 886 514.705C890.485 528.938 893.55 543.579 895.151 558.415C893.047 556.714 890.684 555.364 888.151 554.415C888.961 560.675 889.55 564.055 889.87 570.415C898 568.705 904 576.275 904 576.275C905.563 573.827 907.717 571.811 910.263 570.413C912.809 569.015 915.666 568.28 918.57 568.275C918.57 568.275 922.3 551.765 926.63 547.345C926.63 547.305 925.05 543.435 924.79 530.175Z" fill="url(#paint14_linear)"/>
<path opacity="0.4" d="M902.06 569.195C899.54 565.405 896.17 560.425 896.17 554.885C896.17 550.985 901.8 538.355 903.17 538.355C907.76 538.355 906.82 565.545 902.06 569.195ZM914.67 549.965C914.48 555.335 916.05 562.345 919.43 565.065C921.43 555.295 920.9 554.215 920.74 535.615C918 539.455 914.88 544.245 914.67 549.965Z" fill="#0BD386"/>
<path d="M890 568.905C889.3 560.905 887.94 553.255 887.94 553.255C899.31 558.875 903.94 574.415 903.94 574.415" stroke="#163050" stroke-width="3" stroke-linecap="round" stroke-linejoin="round"/>
<path d="M895.721 558.815C893.719 542.081 889.641 525.661 883.581 509.935C903.391 534.775 905.521 547.935 905.521 547.935" stroke="#163050" stroke-width="3" stroke-linecap="round" stroke-linejoin="round"/>
<path d="M904.61 572.875C907.41 548.775 904.25 523.105 904.25 523.105C914.25 538.965 918.091 566.805 918.091 566.805" stroke="#163050" stroke-width="3" stroke-linecap="round" stroke-linejoin="round"/>
<path d="M914.741 550.175C914.93 546.05 915.984 542.011 917.837 538.321C919.689 534.631 922.297 531.371 925.491 528.755C924.051 534.905 924.741 541.755 925.781 547.145" stroke="#163050" stroke-width="3" stroke-linecap="round" stroke-linejoin="round"/>
<path opacity="0.3" d="M1211.53 507.475C1205.26 520.365 1173.91 516.475 1173.91 503.855C1173.91 498.575 1183.91 492.295 1199.54 499.295C1203.75 501.175 1209.31 503.125 1211.53 507.475Z" fill="#6DF3C3"/>
<path opacity="0.3" d="M1242.36 539.025C1239.89 549.335 1217.44 546.025 1193 551.625C1182 554.135 1168.06 569.465 1135.81 563.745C1108.54 558.915 1102.95 550.885 1102.95 540.505C1102.95 526.075 1130.31 514.565 1145.19 514.565C1173.78 514.565 1228.2 529.495 1242.36 539.025Z" fill="#6DF3C3"/>
<path d="M1243.89 536.605C1243.89 550.185 1206.28 542.455 1178.89 555.115C1136.76 576.015 1090.44 551.895 1133.2 526.855C1140.79 522.415 1142.92 518.215 1152.46 517.855C1170.53 517.255 1177.16 527.475 1203.54 522.925C1217.7 522.215 1243.89 522.415 1243.89 536.605Z" fill="#D3F4FF"/>
<path d="M1153.81 521.355C1146.31 520.355 1139.81 526.355 1132.81 532.855C1131.98 533.855 1130.81 536.055 1132.81 536.855C1135.31 537.855 1138.31 535.855 1142.31 530.855C1146.31 525.855 1149.31 525.855 1153.81 524.855C1158.31 523.855 1170.81 527.355 1179.31 528.855C1187.81 530.355 1186.31 525.855 1182.31 525.855C1178.31 525.855 1161.31 522.355 1153.81 521.355Z" fill="white"/>
<path d="M1212.26 506.245C1212.26 518.665 1170.65 513.605 1182.35 501.405C1190.57 492.825 1212.26 499.835 1212.26 506.245Z" fill="#D3F4FF"/>
<path opacity="0.5" d="M1241.56 530.225C1240.43 538.635 1234.15 537.355 1234.15 537.835C1229.45 537.835 1218.46 536.635 1218.46 536.835C1175.13 537.965 1121.27 566.195 1121.27 536.655C1121.27 535.285 1116.27 541.745 1116.27 547.015C1116.27 557.845 1133.27 562.405 1142.13 562.465C1166.4 562.655 1166.42 560.155 1179.85 554.665C1207.13 543.035 1243.91 549.665 1243.91 536.565C1243.93 534.235 1243.1 531.978 1241.56 530.225Z" fill="#73E2FF"/>
<path d="M1243.89 536.605C1243.89 540.254 1241.18 542.364 1236.67 543.745M1178.89 555.115C1178 555.557 1177.1 555.98 1176.21 556.382C1172.37 558.109 1168.52 559.472 1164.71 560.505C1155.19 563.088 1145.99 563.602 1138.21 562.564C1126.02 560.938 1117.31 555.501 1116.29 548.245M1133.2 526.855C1140.79 522.415 1142.92 518.215 1152.46 517.855C1170.53 517.255 1177.16 527.475 1203.54 522.925M1124.71 532.732C1125.63 531.96 1126.63 531.184 1127.71 530.405M1213.21 522.713C1215.16 522.734 1217.17 522.798 1219.17 522.925" stroke="#163050" stroke-width="3" stroke-linecap="round" stroke-linejoin="round"/>
<path d="M1182.35 501.405C1183.87 507.745 1207.14 514.265 1211.86 504.665C1218.77 518.075 1169.38 514.935 1182.35 501.405Z" fill="#A3EAFF"/>
<path d="M1206.92 557.335C1208.71 538.125 1206.86 528.835 1206.86 528.835C1216.06 536.075 1220.16 557.335 1220.16 557.335H1206.92Z" fill="url(#paint15_linear)"/>
<path d="M1231.16 516.025C1224.31 532.425 1219.8 559.195 1218.6 569.575C1241.43 585.925 1225.76 586.555 1231.16 516.025Z" fill="url(#paint16_linear)"/>
<path opacity="0.4" d="M1215.5 541.835C1209.8 547.615 1206.92 557.335 1206.92 557.335C1207.44 565.105 1212.42 569.025 1218.73 571.515C1218.73 571.515 1221.85 552.845 1215.5 541.835Z" fill="#0BD386"/>
<path d="M1206.92 557.335C1208.71 538.125 1206.86 528.835 1206.86 528.835C1216.06 536.075 1220.16 557.335 1220.16 557.335" stroke="#163050" stroke-width="3" stroke-linecap="round" stroke-linejoin="round"/>
<path d="M1231.58 578.875C1228.58 549.795 1231.16 516.025 1231.16 516.025C1224.31 532.425 1219.8 559.195 1218.6 569.575" stroke="#163050" stroke-width="3" stroke-linecap="round" stroke-linejoin="round"/>
<path d="M1011 375.025C1005.03 382.276 1001.19 391.042 999.911 400.345C1020 397.005 1009.12 403.525 1011 375.025Z" fill="url(#paint17_linear)"/>
<path d="M1003.2 410.085C998.711 400.845 995.801 382.675 995.801 382.675C991.602 389.452 989.248 397.208 988.971 405.175L1003.2 410.085Z" fill="url(#paint18_linear)"/>
<path d="M1012.47 398.255C1010.16 387.835 1011 375.025 1011 375.025C1005.03 382.276 1001.19 391.042 999.911 400.345" stroke="#163050" stroke-width="3" stroke-linecap="round" stroke-linejoin="round"/>
<path d="M1003.2 410.085C998.711 400.845 995.801 382.675 995.801 382.675C991.602 389.452 989.248 397.208 988.971 405.175" stroke="#163050" stroke-width="3" stroke-linecap="round" stroke-linejoin="round"/>
<path d="M167.91 443.885C190.41 448.125 196.06 438.605 211.48 439.165C225.1 439.665 221.03 450.295 250.74 455.165C269.88 458.325 270.83 482.815 209.89 480.585C191.25 479.905 191.64 468.355 154.31 465.855C147.2 465.375 133.48 463.725 133.48 456.565C133.48 443.635 155 443.135 167.91 443.885Z" fill="#D3F1FF"/>
<path d="M174.58 434.965C153.32 433.965 159.58 419.495 172.58 419.965C177.1 420.125 187.4 423.535 187.4 428.305C187.37 433.245 179.76 435.625 174.58 434.965Z" fill="#D3F1FF"/>
<path d="M141.9 447.555C140 456.015 155.48 457.365 164.12 457.675C198.9 458.945 188.63 467.615 215.75 468.605C223.3 468.885 249.15 467.375 261.98 461.305C259.51 481.755 229.66 481.645 208.04 480.855C185.63 480.035 185.2 465.585 166.51 464.905C163.25 464.785 160.67 465.025 156.71 464.905C123 463.645 134.16 449.335 141.9 447.555ZM170.13 434.355C175.13 434.535 186.3 433.745 185.87 428.765C181.43 426.585 169.66 430.965 165.37 424.515C165.93 422.915 169.01 422.195 170.32 421.775C160.43 422.325 157.22 433.885 170.13 434.355Z" fill="#73E2FF"/>
<path d="M133.81 454.925C131.54 464.525 154.24 466.205 170.42 467.365C186.6 468.525 182.33 477.765 211.84 479.985C241.35 482.205 264.62 472.225 262.07 462.165C259.52 452.105 244.19 455.245 237.38 452.725C230.57 450.205 221.49 437.615 207.59 439.385C193.69 441.155 189.14 446.695 173.54 444.985C157.94 443.275 136.8 442.315 133.81 454.925Z" stroke="#163050" stroke-width="3" stroke-linecap="round" stroke-linejoin="round"/>
<path d="M186.78 430.275C185.56 435.135 160.72 435.955 160.47 428.695C160 415.705 189.83 418.145 186.78 430.275Z" stroke="#163050" stroke-width="3" stroke-linecap="round" stroke-linejoin="round"/>
<path d="M201.211 453.245C208.211 453.245 212.711 451.245 219.711 458.745C222.711 462.745 226.711 461.745 228.711 460.245C230.711 458.745 234.711 455.745 228.711 452.245C222.711 448.745 219.711 443.745 207.211 443.745C194.711 443.745 194.211 453.245 201.211 453.245Z" fill="white"/>
<path d="M195.39 497.275C188.28 499.645 182.27 500.495 176.54 499.555C178.38 488.395 180.38 477.645 171.71 452.245C193.22 457.165 204.36 474.245 204.36 474.245L195.39 497.275Z" fill="url(#paint19_linear)"/>
<path opacity="0.5" d="M195.221 493.655C194.541 476.075 189.541 462.395 187.371 459.395C195.241 461.265 202.651 474.725 202.651 476.645C202.651 478.335 195.971 492.125 195.221 493.655Z" fill="#0BD386"/>
<path d="M215.591 485.995C214.032 478.644 213.826 471.07 214.981 463.645C214.331 463.975 194.441 476.175 197.521 504.885L215.591 485.995Z" fill="url(#paint20_linear)"/>
<path d="M215.591 485.995C214.032 478.644 213.826 471.07 214.981 463.645C214.331 463.975 194.441 476.175 197.521 504.885" stroke="#163050" stroke-width="3" stroke-linecap="round" stroke-linejoin="round"/>
<path d="M176.54 499.555C178.38 488.395 180.38 477.645 171.71 452.245C193.22 457.165 204.36 474.245 204.36 474.245" stroke="#163050" stroke-width="3" stroke-linecap="round" stroke-linejoin="round"/>
<path d="M495.902 450.531C502.472 449.961 511.834 455.644 509.666 462.127C518.426 461.974 526.627 474.916 514.703 480.348C518.809 492.393 503.698 496.499 495.431 492.009C491.795 496.094 478.655 496.389 474.429 486.48C465.417 487.268 457.653 477.369 464.059 472.803C457.161 467.7 458.737 459.663 468.614 458.864C464.869 452.797 472.315 448.286 479.433 451.089C483.287 447.114 488.708 446.753 495.902 450.531Z" fill="#35D2FF"/>
<path d="M479.356 493.049C473.881 512.573 472.567 536.346 472.567 536.346" stroke="#163050" stroke-width="3" stroke-linecap="round" stroke-linejoin="round"/>
<path d="M499.132 472.036C494.982 480.709 477.133 474.621 481.283 465.948C485.433 457.276 503.271 463.375 499.132 472.036Z" fill="#FFC858"/>
<path d="M489.2 461.261C486.496 468.204 492.255 472.419 499.406 471.116C498.56 472.71 497.278 474.029 495.708 474.92C494.139 475.81 492.349 476.234 490.547 476.143C480.079 476.099 477.232 460.177 489.2 461.261Z" fill="#FFAC40"/>
<path d="M488.959 447.344C486.605 449.863 485.182 454.451 486.222 457.812C483.692 456.717 481.141 454.308 480.988 451.363C484.218 449.162 483.057 446.72 488.959 447.344Z" fill="#0081D0"/>
<path d="M479.422 457.56C477.725 453.75 474.155 454.472 471.253 450.596C467.552 452.096 467.158 454.582 467.716 458.425C458.354 459.52 459.055 472.31 464.169 471.423C463.983 471.828 454.894 482.526 474.024 486.665C477.309 495.053 491.401 498.207 495.759 491.582C495.869 491.582 515.524 501.349 515.141 480.38C518.973 477.292 521.306 474.905 520.331 469.934C516.962 471.431 513.363 472.346 509.688 472.639C510.783 475.321 513.4 477.829 513.4 480.807C513.4 484.399 509.633 486.961 506.03 486.961C501.212 486.961 499.745 482.778 498.365 478.343C489.277 496.433 467.235 480.654 467.235 464.656C467.235 457.987 477.593 461.842 479.104 461.842C481.185 461.842 480.265 459.444 479.422 457.56Z" fill="#0E9FFF"/>
<path d="M499.132 472.036C494.982 480.709 477.133 474.621 481.283 465.948C485.433 457.276 503.271 463.375 499.132 472.036Z" stroke="#163050" stroke-width="3" stroke-linecap="round" stroke-linejoin="round"/>
<path d="M495.902 450.531C502.472 449.961 511.834 455.644 509.666 462.127C518.426 461.973 526.627 474.916 514.703 480.347C518.809 492.392 503.698 496.499 495.431 492.009C491.795 496.093 478.655 496.389 474.429 486.479C465.417 487.268 457.653 477.369 464.059 472.803C457.161 467.7 458.737 459.663 468.614 458.863C464.869 452.797 472.315 448.286 479.433 451.089" stroke="#163050" stroke-width="3" stroke-linecap="round" stroke-linejoin="round"/>
<path d="M474.429 486.457C474.246 484.722 474.573 482.972 475.371 481.42" stroke="#163050" stroke-width="3" stroke-linecap="round" stroke-linejoin="round"/>
<path d="M464.092 472.781C465.45 471.648 467.038 470.822 468.746 470.361" stroke="#163050" stroke-width="3" stroke-linecap="round" stroke-linejoin="round"/>
<path d="M468.614 458.842C470.839 458.697 473.07 458.987 475.184 459.696" stroke="#163050" stroke-width="3" stroke-linecap="round" stroke-linejoin="round"/>
<path d="M480.298 450.531C483.342 445.154 495.431 447.509 497.533 454.309" stroke="#163050" stroke-width="3" stroke-linecap="round" stroke-linejoin="round"/>
<path d="M511.976 462.367C509.92 462.079 507.824 462.289 505.866 462.981" stroke="#163050" stroke-width="3" stroke-linecap="round" stroke-linejoin="round"/>
<path d="M495.431 491.988C498.486 489.589 498.398 485.133 498.398 485.133" stroke="#163050" stroke-width="3" stroke-linecap="round" stroke-linejoin="round"/>
<path d="M514.703 480.326C513.915 476.318 509.841 473.427 509.841 473.427" stroke="#163050" stroke-width="3" stroke-linecap="round" stroke-linejoin="round"/>
<path d="M474.538 517.764C467.683 521.421 444.261 522.33 449.528 498.13C464.409 501.558 472.983 504.087 474.538 517.764Z" fill="#6DF3C3"/>
<path d="M474.976 528.615C478.82 532.382 494.215 537.539 495.42 520.424C484.798 515.672 478.666 519.833 474.976 528.615Z" fill="#6DF3C3"/>
<path d="M449.299 498.316C451.631 508.708 461.157 513.8 470.75 517.052C459.712 526.666 445.652 510.515 449.299 498.316Z" fill="#0BD386"/>
<path d="M475.874 527.608C489.989 525.856 494.839 516.056 494.993 522.658C494.595 524.684 493.633 526.557 492.218 528.06C490.802 529.563 488.99 530.635 486.992 531.152C484.993 531.67 482.888 531.611 480.921 530.984C478.954 530.357 477.204 529.187 475.874 527.608Z" fill="#0BD386"/>
<path d="M474.538 517.764C467.683 521.421 444.261 522.33 449.528 498.13C464.409 501.558 472.983 504.087 474.538 517.764Z" stroke="#163050" stroke-width="3" stroke-linecap="round" stroke-linejoin="round"/>
<path d="M474.976 528.615C478.82 532.382 494.215 537.539 495.42 520.424C484.798 515.672 478.666 519.833 474.976 528.615Z" stroke="#163050" stroke-width="3" stroke-linecap="round" stroke-linejoin="round"/>
<path d="M1124.4 373.869C1121.48 365.202 1110.86 367.242 1107.41 368.934C1103.43 366.988 1096.68 366.894 1093.81 375.511C1084.37 376.781 1089.3 386.26 1089.3 386.658C1089.3 388.469 1087.83 388.554 1088.31 391.737C1088.78 394.919 1092.23 393.252 1095.08 393.988C1098.27 394.834 1099.46 398.093 1102.93 398.093C1106.7 398.093 1112.24 397.001 1115.08 392.617C1129.05 391.22 1132.02 377.965 1124.4 373.869Z" fill="#FFD735"/>
<path d="M1112.41 378.533C1110.12 373.767 1098.82 379.21 1101.11 383.966C1103.41 388.723 1114.71 383.306 1112.41 378.533Z" fill="#BFB5F2"/>
<path d="M1101.92 390.348C1101.92 392.397 1102.53 393.344 1104.76 393.344C1110.97 393.344 1110.33 388.063 1111.53 388.063C1113.44 388.063 1116.48 397.797 1103.91 397.797C1100.94 397.797 1098.65 394.394 1101.92 390.348ZM1096.9 390.306C1090.72 390.306 1093.34 386.446 1093.51 385.778C1086.35 388.765 1089.81 393.852 1092.33 393.852C1097.41 393.852 1097.62 394.86 1099.89 390.094C1099.01 390.171 1097.92 390.306 1096.9 390.306ZM1094.92 384.305C1099.61 382.764 1099.1 381.664 1098.62 381.529C1093.24 380.995 1092.29 381.529 1091.32 377.297C1090.66 377.828 1090.13 378.493 1089.74 379.247C1089.36 380.001 1089.14 380.828 1089.1 381.673C1089.1 387.538 1093.32 384.83 1094.92 384.305ZM1100.3 369.56C1095.44 369.56 1090.99 376.992 1102.48 376.992C1107.23 376.992 1100.3 375.672 1100.3 372.057C1100.3 370.119 1101.16 369.56 1100.3 369.56ZM1112.09 367.766C1105.15 367.766 1105.46 377.694 1112.69 377.694C1113.61 377.694 1114.15 377.491 1114.15 376.603C1114.15 373.699 1110.01 375.104 1110.01 371.6C1110.01 367.842 1114.61 367.766 1112.09 367.766ZM1115.56 378.016C1114.8 378.778 1111.62 384.085 1111.62 385.168C1111.62 386.252 1113.57 391.804 1115.72 391.804C1120.43 391.804 1112.01 380.098 1120.19 375.849C1118.56 376.349 1116.78 376.763 1115.56 378.016Z" fill="#FFAC40"/>
<path d="M1104.67 379.074C1104.85 380.691 1105.85 381.351 1107.46 381.351C1109.7 381.351 1110.2 380.242 1111.13 379.658C1112.97 381.605 1109.43 385.295 1104.69 385.295C1101.38 385.253 1100.77 380.369 1104.67 379.074Z" fill="#A382E5"/>
<path d="M1113.67 392.109C1121.87 405.939 1122.27 430.705 1122.27 430.705" stroke="#163050" stroke-width="3" stroke-linecap="round" stroke-linejoin="round"/>
<path d="M1112.41 378.533C1110.12 373.767 1098.82 379.21 1101.11 383.966C1103.41 388.723 1114.71 383.306 1112.41 378.533Z" stroke="#163050" stroke-width="3" stroke-linecap="round" stroke-linejoin="round"/>
<path d="M1100.61 383.552C1092.78 383.636 1085.72 387.378 1090.13 393.946" stroke="#163050" stroke-width="3" stroke-linecap="round" stroke-linejoin="round"/>
<path d="M1103.18 385.634C1100.02 390.535 1095.11 399.439 1106.84 397.687C1118.57 395.935 1111.92 386.878 1109.92 384.72" stroke="#163050" stroke-width="3" stroke-linecap="round" stroke-linejoin="round"/>
<path d="M1089.69 386.548C1086.04 379.726 1090.36 371.414 1102.33 378.397" stroke="#163050" stroke-width="3" stroke-linecap="round" stroke-linejoin="round"/>
<path d="M1094.28 375.485C1095.7 368.714 1101.52 367.021 1106.84 368.841" stroke="#163050" stroke-width="3" stroke-linecap="round" stroke-linejoin="round"/>
<path d="M1106.42 376.738C1105.68 369.501 1107.57 365.684 1117.15 367.673C1123.55 369.002 1124.14 373.327 1124.14 373.327" stroke="#163050" stroke-width="3" stroke-linecap="round" stroke-linejoin="round"/>
<path d="M1112.41 378.533C1118.4 373.581 1128.96 371.584 1128.71 379.379C1128.45 387.174 1119.73 396.426 1113.91 391.229" stroke="#163050" stroke-width="3" stroke-linecap="round" stroke-linejoin="round"/>
<path d="M1088.18 439.435C1097.77 430.855 1111.18 435.745 1111.18 441.105C1111.19 447.905 1093 453.075 1088.18 439.435Z" fill="#6DF3C3"/>
<path d="M1066 402.465C1064.23 391.305 1078 388.855 1082.88 391.845C1085.88 382.315 1100.44 386.945 1101.4 398.105C1110.66 398.515 1111.88 408.455 1100.17 417.305C1106.3 423.025 1091.6 429.835 1088.74 430.235C1085.88 430.635 1078.89 429.235 1077.21 426.315C1068.72 430.785 1054.29 430.105 1062.46 419.215C1054.82 413.765 1059.31 401.925 1066 402.465Z" fill="#FFD735"/>
<path d="M1088.38 439.955C1092.52 449.625 1107.09 451.705 1111.06 440.895C1108 439.705 1093.39 442.705 1088.38 439.955Z" fill="#0BD386"/>
<path d="M1065.19 415.935C1065.33 423.685 1068.66 422.565 1074.81 422.565C1078.27 422.565 1079.67 428.285 1068.56 428.285C1059.88 428.285 1056 423.335 1065.19 415.935ZM1077.42 421.745C1077.37 434.115 1100.37 428.625 1100.37 418.795C1100.37 417.715 1098.05 416.015 1097.37 416.015C1097.23 420.235 1087.16 429.375 1077.42 421.705V421.745ZM1090.12 411.635C1090.12 412.835 1090.45 412.215 1092.69 412.255C1095.6 412.315 1097.18 415.065 1099.57 415.065C1103.57 415.065 1107.85 408.065 1107.88 404.065C1106.65 406.365 1101.09 408.205 1099.35 408.205C1096.57 408.205 1097.69 407.275 1091.76 407.765C1091.45 409.115 1090.12 410.265 1090.12 411.635ZM1062.32 405.565C1059.39 405.565 1057.95 417.565 1061.83 417.565C1061.99 417.565 1075.63 411.175 1073.45 408.275C1070.8 408.855 1062.74 411.785 1062.74 406.715C1062.74 405.705 1063 405.565 1062.32 405.565ZM1066.54 399.005C1066.43 399.327 1066.37 399.665 1066.36 400.005C1066.36 402.005 1075.74 403.645 1075.85 403.645C1083.39 403.705 1069.94 388.445 1066.54 399.005ZM1082.4 394.545C1081 400.545 1084.4 399.795 1085.54 399.795C1088.72 399.795 1088.44 401.675 1091.31 401.675C1094.18 401.675 1096.94 397.615 1096.55 396.025C1094.02 395.625 1086.61 395.735 1083.84 391.255C1083.1 392.218 1082.61 393.348 1082.4 394.545Z" fill="#FFAC40"/>
<path d="M1090.44 404.165C1086.63 396.255 1071.38 403.585 1075.19 411.505C1079 419.425 1094.25 412.075 1090.44 404.165Z" fill="#BFB5F2"/>
<path d="M1079.35 403.705C1075.68 405.515 1078.22 410.085 1082.76 410.085C1086.63 410.085 1089.67 407.185 1090.2 407.285C1091.92 409.625 1089.06 415.195 1080.8 415.195C1073.41 415.175 1073.14 406.155 1079.35 403.705Z" fill="#A382E5"/>
<path d="M1098.52 424.935C1110.1 432.845 1115.97 446.715 1116.69 450.075" stroke="#163050" stroke-width="3" stroke-linecap="round" stroke-linejoin="round"/>
<path d="M1090.44 404.165C1086.63 396.255 1071.38 403.585 1075.19 411.505C1079 419.425 1094.25 412.075 1090.44 404.165Z" stroke="#163050" stroke-width="3" stroke-linecap="round" stroke-linejoin="round"/>
<path d="M1075.19 411.505C1063.8 412.435 1053 426.905 1065.97 428.725C1069.88 429.247 1073.84 428.395 1077.19 426.315" stroke="#163050" stroke-width="3" stroke-linecap="round" stroke-linejoin="round"/>
<path d="M1080.35 415.465C1070.97 423.305 1081.27 436.665 1096.76 426.255C1103.9 421.445 1104.12 415.965 1090.76 411.635" stroke="#163050" stroke-width="3" stroke-linecap="round" stroke-linejoin="round"/>
<path d="M1090.14 403.215C1096.9 395.155 1107.67 395.705 1108.27 403.645C1108.71 409.405 1104.62 413.645 1100.35 415.805" stroke="#163050" stroke-width="3" stroke-linecap="round" stroke-linejoin="round"/>
<path d="M1080.93 401.095C1078.16 386.685 1096.45 380.315 1100.47 396.995" stroke="#163050" stroke-width="3" stroke-linecap="round" stroke-linejoin="round"/>
<path d="M1075.81 404.005C1069.08 400.005 1059.73 401.265 1058.63 409.735C1057.63 417.465 1061.44 419.375 1061.44 419.375" stroke="#163050" stroke-width="3" stroke-linecap="round" stroke-linejoin="round"/>
<path d="M1066 401.205C1065.2 395.575 1072.75 389.045 1081.29 391.655" stroke="#163050" stroke-width="3" stroke-linecap="round" stroke-linejoin="round"/>
<path d="M1111.49 440.415C1107.49 450.205 1092.81 450.095 1087.86 440.185C1093.37 432.425 1106.88 432.875 1111.49 440.415Z" stroke="#163050" stroke-width="3" stroke-linecap="round" stroke-linejoin="round"/>
<path d="M1136.17 399.145C1127.39 395.985 1124.36 409.025 1135.75 408.485C1131.13 413.405 1133.26 416.795 1139.3 418.315C1141.77 426.795 1152.74 423.605 1152.96 419.875C1161.96 418.675 1163.12 408.365 1157.13 406.285C1158.82 399.875 1155.48 395.635 1148.28 397.915C1145.26 390.705 1137.75 391.905 1136.17 399.145Z" fill="#BFB5F2"/>
<path d="M1144.4 408.915C1139.56 415.105 1137.14 427.745 1137.14 427.745" stroke="#163050" stroke-width="3" stroke-linecap="round" stroke-linejoin="round"/>
<path d="M1139.94 417.475C1132.41 417.475 1132.17 410.895 1136.5 408.835" stroke="#163050" stroke-width="3" stroke-linecap="round" stroke-linejoin="round"/>
<path d="M1138.23 408.355C1132.5 408.975 1128.29 407.865 1128.65 402.835C1129.01 397.805 1136.15 397.895 1139.15 401.245" stroke="#163050" stroke-width="3" stroke-linecap="round" stroke-linejoin="round"/>
<path d="M1136.11 399.045C1136.63 390.925 1150.64 389.965 1147.5 402.345" stroke="#163050" stroke-width="3" stroke-linecap="round" stroke-linejoin="round"/>
<path d="M1148 398.315C1152.63 395.225 1161.32 399.675 1156.83 406.425" stroke="#163050" stroke-width="3" stroke-linecap="round" stroke-linejoin="round"/>
<path d="M1150.44 408.025C1163.51 402.715 1163.33 418.425 1154.02 419.415" stroke="#163050" stroke-width="3" stroke-linecap="round" stroke-linejoin="round"/>
<path d="M1139.92 418.345C1139.82 427.545 1160.57 424.715 1149.67 414.825" stroke="#163050" stroke-width="3" stroke-linecap="round" stroke-linejoin="round"/>
<path d="M1372.96 456.54C1372.9 462.045 1377.38 464.167 1381.32 462.541C1383.26 465.867 1390.71 463.021 1389.14 458.963C1394.02 466.453 1402.26 451.758 1392.4 450.539C1392.4 450.539 1398.15 449.872 1397.67 444.48C1397.18 439.089 1390.52 435.576 1388.4 438.788C1388.11 431.095 1376.72 432.998 1379.09 440.309C1379.09 440.309 1370.53 435.779 1372.42 447.627C1372.42 447.57 1368.87 451.124 1372.96 456.54Z" fill="#CABFFF"/>
<path d="M1379.11 440.284C1376.73 432.966 1388.13 431.071 1388.41 438.764C1390.53 435.576 1397.2 439.089 1397.68 444.456C1398.16 449.823 1392.41 450.514 1392.41 450.514C1402.26 451.734 1394.04 466.428 1389.16 458.939C1390.73 463.005 1383.28 465.843 1381.34 462.517C1377.52 464.086 1372.92 462.151 1372.98 456.516" stroke="#163050" stroke-width="3" stroke-linecap="round" stroke-linejoin="round"/>
<path d="M1386.17 451.319C1385.35 444.001 1377.1 444.903 1377.94 452.254C1378.78 459.606 1387 458.67 1386.17 451.319Z" fill="#6DF3C3"/>
<path d="M1380.97 451.889C1369.43 456.085 1361.39 468.844 1361.21 478.805" stroke="#163050" stroke-width="3" stroke-linecap="round" stroke-linejoin="round"/>
<path d="M1386.17 451.319C1385.35 444.001 1377.1 444.903 1377.94 452.254C1378.78 459.606 1387 458.67 1386.17 451.319Z" stroke="#163050" stroke-width="3" stroke-linecap="round" stroke-linejoin="round"/>
<path d="M1373.32 454.141C1371.23 453.19 1370.56 448.823 1372.55 447.311" stroke="#163050" stroke-width="3" stroke-linecap="round" stroke-linejoin="round"/>
<path d="M1373.51 447.513C1369.61 442.252 1375.66 435.747 1379.45 441.073" stroke="#163050" stroke-width="3" stroke-linecap="round" stroke-linejoin="round"/>
<path d="M1350.71 447.305C1353.65 449.635 1364.47 451.785 1363.63 439.235C1356.05 436.885 1352.34 440.545 1350.71 447.305Z" fill="#6DF3C3"/>
<path d="M1349.38 439.465C1345.13 442.835 1329.51 445.935 1330.72 427.815C1341 428.765 1347 429.705 1349.38 439.465Z" fill="#6DF3C3"/>
<path d="M1351.6 413.935C1350.81 425.465 1368.66 421.645 1364.43 414.075C1369.61 416.255 1378.27 409.215 1372.67 402.605C1378.59 395.215 1370.67 388.755 1364.46 389.915C1364.89 386.525 1355.67 382.865 1350.28 388.775C1345.1 386.085 1337.6 391.125 1340.14 395.775C1334.54 397.685 1333.14 403.685 1338.87 406.555C1334.87 409.875 1338.06 414.785 1343.13 414.555C1342.13 416.975 1345.05 420.135 1349.68 419.115L1351.6 413.935Z" fill="#CABFFF"/>
<path d="M1332.25 429.265C1337.11 435.055 1345.96 436.325 1348.78 437.765C1348.69 440.475 1343 442.035 1340.01 442.035C1334.91 442.035 1328.24 436.405 1332.25 429.265Z" fill="#0BD386"/>
<path d="M1361 404.705C1361 397.705 1348.55 397.705 1348.55 404.705C1348.55 411.705 1361 411.705 1361 404.705Z" fill="#0BD386"/>
<path d="M1354.27 405.805C1347.07 418.935 1349.84 453.175 1349.84 453.175" stroke="#163050" stroke-width="3" stroke-linecap="round" stroke-linejoin="round"/>
<path d="M1361 404.705C1361 397.705 1348.55 397.705 1348.55 404.705C1348.55 411.705 1361 411.705 1361 404.705Z" stroke="#163050" stroke-width="3" stroke-linecap="round" stroke-linejoin="round"/>
<path d="M1351.6 413.935C1350.81 425.465 1368.66 421.645 1364.43 414.075C1369.61 416.255 1378.27 409.215 1372.67 402.605C1378.59 395.215 1370.67 388.755 1364.46 389.915C1364.89 386.525 1355.67 382.865 1350.28 388.775C1345.1 386.085 1337.6 391.125 1340.14 395.775C1334.54 397.685 1333.14 403.685 1338.87 406.555C1334.87 409.875 1338.06 414.785 1343.13 414.555C1342.13 416.975 1345.05 420.135 1349.68 419.115" stroke="#163050" stroke-width="3" stroke-linecap="round" stroke-linejoin="round"/>
<path d="M1350.28 388.775C1349.67 389.923 1349.37 391.207 1349.4 392.505" stroke="#163050" stroke-width="3" stroke-linecap="round" stroke-linejoin="round"/>
<path d="M1364.46 389.915C1363.21 390.465 1362.08 391.273 1361.16 392.285" stroke="#163050" stroke-width="3" stroke-linecap="round" stroke-linejoin="round"/>
<path d="M1372.67 402.605C1371.16 401.426 1369.28 400.826 1367.37 400.915" stroke="#163050" stroke-width="3" stroke-linecap="round" stroke-linejoin="round"/>
<path d="M1364.43 414.075C1363.57 413.758 1362.75 413.328 1362 412.795" stroke="#163050" stroke-width="3" stroke-linecap="round" stroke-linejoin="round"/>
<path d="M1340.14 395.825C1340.61 396.908 1341.32 397.864 1342.23 398.615" stroke="#163050" stroke-width="3" stroke-linecap="round" stroke-linejoin="round"/>
<path d="M1338.87 406.605C1339.6 406.862 1340.34 407.069 1341.1 407.225" stroke="#163050" stroke-width="3" stroke-linecap="round" stroke-linejoin="round"/>
<path d="M1349.38 439.465C1345.13 442.835 1329.51 445.935 1330.72 427.815C1341 428.765 1347 429.705 1349.38 439.465Z" stroke="#163050" stroke-width="3" stroke-linecap="round" stroke-linejoin="round"/>
<path d="M1350.71 447.305C1353.65 449.635 1364.47 451.785 1363.63 439.235C1356.05 436.885 1352.34 440.545 1350.71 447.305Z" stroke="#163050" stroke-width="3" stroke-linecap="round" stroke-linejoin="round"/>
<defs>
<linearGradient id="paint0_linear" x1="722.401" y1="84.7451" x2="722.401" y2="667.745" gradientUnits="userSpaceOnUse">
<stop stop-color="#B3FFDF"/>
<stop offset="0.984097" stop-color="white"/>
</linearGradient>
<linearGradient id="paint1_linear" x1="320.71" y1="435.245" x2="347.71" y2="581.745" gradientUnits="userSpaceOnUse">
<stop offset="0.0375526" stop-color="#86FFCC"/>
<stop offset="0.999121" stop-color="#EEFFF8"/>
</linearGradient>
<linearGradient id="paint2_linear" x1="311.35" y1="528.355" x2="315.85" y2="619.355" gradientUnits="userSpaceOnUse">
<stop offset="0.0375526" stop-color="#86FFCC"/>
<stop offset="0.999121" stop-color="#FAFFFD"/>
</linearGradient>
<linearGradient id="paint3_linear" x1="68.2107" y1="399.245" x2="68.7107" y2="468.745" gradientUnits="userSpaceOnUse">
<stop offset="0.0375526" stop-color="#86FFCC"/>
<stop offset="0.999121" stop-color="#E8FFF6"/>
</linearGradient>
<linearGradient id="paint4_linear" x1="19.7104" y1="452.745" x2="38.2104" y2="565.245" gradientUnits="userSpaceOnUse">
<stop offset="0.0375526" stop-color="#86FFCC"/>
<stop offset="0.999121" stop-color="#F3FFFA"/>
</linearGradient>
<linearGradient id="paint5_linear" x1="677.882" y1="429.42" x2="681.369" y2="507.681" gradientUnits="userSpaceOnUse">
<stop offset="0.0375526" stop-color="#86FFCC"/>
<stop offset="0.999121" stop-color="#EEFFF8"/>
</linearGradient>
<linearGradient id="paint6_linear" x1="842.777" y1="471.846" x2="851.901" y2="539.426" gradientUnits="userSpaceOnUse">
<stop offset="0.0375526" stop-color="#86FFCC"/>
<stop offset="0.999121" stop-color="#F1FFFA"/>
</linearGradient>
<linearGradient id="paint7_linear" x1="940.455" y1="532.529" x2="950.008" y2="600.3" gradientUnits="userSpaceOnUse">
<stop offset="0.0375526" stop-color="#86FFCC"/>
<stop offset="0.999121" stop-color="#F1FFFA"/>
<stop offset="0.999221" stop-color="#F9FFFD"/>
</linearGradient>
<linearGradient id="paint8_linear" x1="1000.36" y1="412.95" x2="1007.67" y2="475.896" gradientUnits="userSpaceOnUse">
<stop offset="0.0375526" stop-color="#86FFCC"/>
<stop offset="0.999121" stop-color="#DEFFF2"/>
</linearGradient>
<linearGradient id="paint9_linear" x1="1192.21" y1="363.245" x2="1200.5" y2="416.245" gradientUnits="userSpaceOnUse">
<stop offset="0.0375526" stop-color="#86FFCC"/>
<stop offset="0.999121" stop-color="#DEFFF2"/>
</linearGradient>
<linearGradient id="paint10_linear" x1="1279.68" y1="546.45" x2="1289.31" y2="632.341" gradientUnits="userSpaceOnUse">
<stop offset="0.0375526" stop-color="#86FFCC"/>
<stop offset="0.999121" stop-color="#F1FFFA"/>
<stop offset="0.999221" stop-color="#F9FFFD"/>
</linearGradient>
<linearGradient id="paint11_linear" x1="1391.02" y1="457.06" x2="1396.94" y2="527.939" gradientUnits="userSpaceOnUse">
<stop offset="0.0375526" stop-color="#86FFCC"/>
<stop offset="0.999121" stop-color="#F1FFFA"/>
<stop offset="0.999221" stop-color="#EEFFF9"/>
</linearGradient>
<linearGradient id="paint12_linear" x1="1420.21" y1="162.6" x2="1420.21" y2="285.086" gradientUnits="userSpaceOnUse">
<stop offset="0.0375526" stop-color="#86FFCC"/>
<stop offset="0.984097" stop-color="white"/>
</linearGradient>
<linearGradient id="paint13_linear" x1="33.6858" y1="131.289" x2="25.4636" y2="78.1904" gradientUnits="userSpaceOnUse">
<stop stop-color="#7AFACC" stop-opacity="0"/>
<stop offset="0.12" stop-color="#7AFACC" stop-opacity="0.18"/>
<stop offset="0.3" stop-color="#7AFACC" stop-opacity="0.42"/>
<stop offset="0.47" stop-color="#7AFACC" stop-opacity="0.63"/>
<stop offset="0.63" stop-color="#7AFACC" stop-opacity="0.79"/>
<stop offset="0.78" stop-color="#7AFACC" stop-opacity="0.91"/>
<stop offset="0.91" stop-color="#7AFACC" stop-opacity="0.98"/>
<stop offset="1" stop-color="#7AFACC"/>
</linearGradient>
<linearGradient id="paint14_linear" x1="892.21" y1="525.245" x2="898.21" y2="574.745" gradientUnits="userSpaceOnUse">
<stop offset="0.0375526" stop-color="#86FFCC"/>
<stop offset="0.999121" stop-color="#F1FFFA"/>
<stop offset="0.999221" stop-color="#F9FFFD"/>
</linearGradient>
<linearGradient id="paint15_linear" x1="1208.83" y1="526.425" x2="1211" y2="553.489" gradientUnits="userSpaceOnUse">
<stop offset="0.0375526" stop-color="#86FFCC"/>
<stop offset="0.999121" stop-color="#F1FFFA"/>
<stop offset="0.999221" stop-color="#F9FFFD"/>
</linearGradient>
<linearGradient id="paint16_linear" x1="1220.5" y1="510.731" x2="1231.07" y2="568.638" gradientUnits="userSpaceOnUse">
<stop offset="0.0375526" stop-color="#86FFCC"/>
<stop offset="0.999121" stop-color="#F1FFFA"/>
<stop offset="0.999221" stop-color="#F9FFFD"/>
</linearGradient>
<linearGradient id="paint17_linear" x1="13486.5" y1="21672.2" x2="13486.5" y2="20826.2" gradientUnits="userSpaceOnUse">
<stop stop-color="#DEFCF2"/>
<stop offset="1" stop-color="#BBFAE0"/>
</linearGradient>
<linearGradient id="paint18_linear" x1="15206.1" y1="23437.8" x2="15206.1" y2="22522" gradientUnits="userSpaceOnUse">
<stop stop-color="#DEFCF2"/>
<stop offset="1" stop-color="#BBFAE0"/>
</linearGradient>
<linearGradient id="paint19_linear" x1="180.896" y1="455.106" x2="184.753" y2="499.978" gradientUnits="userSpaceOnUse">
<stop offset="0.0375526" stop-color="#86FFCC"/>
<stop offset="0.999121" stop-color="#E8FFF6"/>
</linearGradient>
<linearGradient id="paint20_linear" x1="202.372" y1="466.119" x2="202.545" y2="497.967" gradientUnits="userSpaceOnUse">
<stop offset="0.0375526" stop-color="#86FFCC"/>
<stop offset="0.999121" stop-color="#E8FFF6"/>
</linearGradient>
</defs>
</svg>
