<svg width="400" height="400" viewBox="0 0 400 400" fill="none" xmlns="http://www.w3.org/2000/svg">
<path fill-rule="evenodd" clip-rule="evenodd" d="M231.973 114.789C206.853 139.909 206.758 180.542 231.761 205.544C256.763 230.547 297.396 230.452 322.516 205.332C347.636 180.211 347.731 139.579 322.729 114.576C297.726 89.5736 257.094 89.6688 231.973 114.789Z" fill="#007A99"/>
<path d="M324.474 129.614L317.178 122.583L335.273 101.621L344.643 110.701L324.474 129.614ZM345.086 137.696L340.468 129.067L322.869 139.896L326.458 146.604L345.086 137.696Z" fill="#FFD166"/>
<path opacity="0.4" d="M93.0495 79.6251C77.8184 79.6251 65.4712 91.9723 65.4712 107.203C65.4712 115.44 69.0823 122.834 74.8077 127.887M112.044 87.2091C115.898 90.8715 118.694 95.6364 119.927 100.998M120.628 107.203C120.628 109.337 120.386 111.414 119.927 113.409L120.628 107.203Z" stroke="#B5BFC7" stroke-width="2.41218" stroke-miterlimit="10" stroke-linecap="round" stroke-linejoin="round"/>
<path d="M115.113 107.204C115.113 95.0188 105.235 85.1411 93.05 85.1411C80.865 85.1411 70.9873 95.0188 70.9873 107.204C70.9873 120.993 82.0186 125.13 83.3976 137.54H102.702C104.081 125.13 115.113 120.993 115.113 107.204Z" fill="url(#paint0_radial_19932_94126)" stroke="#163150" stroke-width="2.41218" stroke-miterlimit="10" stroke-linecap="round" stroke-linejoin="round"/>
<path d="M77.8804 140.297C77.8804 138.774 79.3895 137.54 81.251 137.54H104.846C106.707 137.54 108.217 138.774 108.217 140.297C108.217 141.821 106.707 143.055 104.846 143.055H103.16V145.813C103.16 147.336 101.651 148.571 99.7898 148.571V149.95C99.7898 152.235 97.5262 154.087 94.7338 154.087H91.3631C88.5707 154.087 86.3071 152.235 86.3071 149.95V148.571C84.4455 148.571 82.9364 147.336 82.9364 145.813V143.055H81.251C79.3895 143.055 77.8804 141.821 77.8804 140.297Z" fill="#05D5FC"/>
<path d="M77.8804 140.297C77.8804 138.774 79.3895 137.54 81.251 137.54H87.9924V143.055H91.3631V148.571H93.0485V154.087H89.6778C87.8162 154.087 86.3071 152.852 86.3071 151.329V148.571C84.4455 148.571 82.9364 147.336 82.9364 145.813V143.055H81.251C79.3895 143.055 77.8804 141.821 77.8804 140.297Z" fill="#07A9DA"/>
<path d="M77.8804 140.297C77.8804 138.774 79.1151 137.54 80.6382 137.54H105.459C106.982 137.54 108.217 138.774 108.217 140.297C108.217 141.821 106.982 143.055 105.459 143.055H80.6382C79.1151 143.055 77.8804 141.821 77.8804 140.297Z" stroke="#163050" stroke-width="2.41218" stroke-miterlimit="10" stroke-linecap="round" stroke-linejoin="round"/>
<path d="M82.9375 143.054H103.162V145.812C103.162 147.335 101.927 148.57 100.404 148.57H85.6953C84.1723 148.57 82.9375 147.335 82.9375 145.812V143.054Z" stroke="#163050" stroke-width="2.41218" stroke-miterlimit="10" stroke-linecap="round" stroke-linejoin="round"/>
<path d="M86.3057 148.571H99.7884V149.95C99.7884 152.235 97.9363 154.087 95.6517 154.087H90.4424C88.1577 154.087 86.3057 152.235 86.3057 149.95V148.571Z" stroke="#163050" stroke-width="2.41218" stroke-miterlimit="10" stroke-linecap="round" stroke-linejoin="round"/>
<path d="M89.2286 96.8995C97.8882 93.5542 106.55 101.505 104.157 110.407L93.6589 107.442L98.7605 117.307C92.883 120.587 85.3033 117.959 82.7508 111.493C80.5019 105.691 83.4266 99.1484 89.2286 96.8995Z" stroke="#FFFCBE" stroke-width="2.41218" stroke-miterlimit="10" stroke-linecap="round" stroke-linejoin="round"/>
<path d="M95.8047 92.0351V96.1718M90.2891 92.0351V96.1718V92.0351Z" stroke="#FFFCBE" stroke-width="2.41218" stroke-miterlimit="10" stroke-linecap="round" stroke-linejoin="round"/>
<path d="M95.8145 119.613V123.75M90.2988 119.613V123.75V119.613Z" stroke="#FFFCBE" stroke-width="2.41218" stroke-miterlimit="10" stroke-linecap="round" stroke-linejoin="round"/>
<path d="M87.5361 136.16H98.5675" stroke="#163050" stroke-width="2.41218" stroke-miterlimit="10" stroke-linecap="round" stroke-linejoin="round"/>
<path opacity="0.2" d="M126.143 107.204C126.143 101.458 124.679 96.0548 122.104 91.346M59.9551 107.204C59.9551 110.31 60.383 113.316 61.1832 116.167M62.9558 93.4144C63.6155 91.9772 64.3751 90.5952 65.2257 89.2776" stroke="#B5BFC7" stroke-width="2.41218" stroke-miterlimit="10" stroke-linecap="round" stroke-linejoin="round"/>
<path d="M255.079 324.572C245.734 322.86 236.639 316.981 233.785 325.037C233.421 328.78 234.156 332.799 248.019 336.49C261.882 340.181 269.786 340.341 270.913 334.343C272.04 328.344 264.424 326.283 255.079 324.572Z" fill="white" stroke="#153150" stroke-width="3.61827" stroke-linecap="round" stroke-linejoin="round"/>
<path d="M238.289 323.859C238.051 312.514 235.009 297.3 233.518 291.111L245.49 291.907C246.151 303.339 245.003 318.724 244.346 324.989C243.458 328.21 238.353 326.881 238.289 323.859Z" fill="#FFD168" stroke="#153150" stroke-width="3.61827" stroke-linecap="round" stroke-linejoin="round"/>
<path d="M203.104 333.661C194.95 336.894 181.055 340.618 176.657 330.469C174.979 324.206 182.888 323.975 192.883 322.136C202.879 320.296 213.839 317.36 216.376 322.134C218.914 326.907 211.257 330.427 203.104 333.661Z" fill="white" stroke="#153150" stroke-width="3.61827" stroke-linecap="round" stroke-linejoin="round"/>
<path d="M205.238 321.931C205.001 310.586 201.958 295.372 200.467 289.183L212.439 289.978C213.1 301.41 211.952 316.796 211.295 323.06C210.746 325.419 205.311 325.382 205.238 321.931Z" fill="#FFD168" stroke="#153150" stroke-width="3.61827" stroke-linecap="round" stroke-linejoin="round"/>
<circle cx="292.411" cy="210.89" r="18.0046" transform="rotate(-15 292.411 210.89)" fill="#0D88CA" stroke="#153150" stroke-width="3.61827" stroke-linecap="round" stroke-linejoin="round"/>
<path d="M86.8947 172.407C85.2536 174.274 82.3738 180.042 83.9823 188.177M110.643 162.475C119.575 166.505 121.372 183.868 121.241 186.045M124.237 165.256C127.51 168.947 128.218 176.562 128.162 179.908" stroke="#153150" stroke-width="3.61827" stroke-linecap="round" stroke-linejoin="round"/>
<path d="M137.992 170.328C135.335 204.735 138.16 253.637 140.92 283.734C141.58 290.925 147.338 296.543 154.536 297.126C206.811 301.365 240.642 301.176 291.417 296.514C299.292 295.791 305.246 289.065 305.08 281.159C304.21 239.642 303.57 211.372 302.551 170.119C302.348 161.922 295.65 155.369 287.451 155.343C237.033 155.177 203.412 155.633 152.103 157.234C144.727 157.464 138.56 162.97 137.992 170.328Z" fill="#0DBAEC" stroke="#153150" stroke-width="3.61827" stroke-linecap="round" stroke-linejoin="round"/>
<path d="M94.1581 184.943C93.7312 199.333 102.963 231.121 136.905 240.584L136.892 229.881C112.678 222.093 112.522 202.863 110.546 184.834C108.57 166.806 94.585 170.553 94.1581 184.943Z" fill="white" stroke="#153150" stroke-width="3.61827" stroke-linecap="round" stroke-linejoin="round"/>
<path d="M235.792 241.348C236.38 241.339 236.898 241.754 236.974 242.336C238.307 252.525 228.764 258.86 218.148 259.189C207.662 259.513 200.176 252.308 198.997 243.153C198.909 242.473 199.448 241.893 200.135 241.883L235.792 241.348Z" fill="#153150" stroke="#153150" stroke-width="3.61827" stroke-linecap="round" stroke-linejoin="round"/>
<path d="M303.355 205.057L303.077 196.015C302.822 187.694 295.907 181.134 287.585 181.316L152.532 184.271C144.315 184.45 137.696 177.575 138.189 169.37" stroke="#153150" stroke-width="3.61827" stroke-linecap="round" stroke-linejoin="round"/>
<path d="M148.947 182.902L149.007 176.338C149.04 172.764 151.81 169.806 155.373 169.532C205.738 165.663 235.9 164.529 285.247 166.516C288.859 166.662 291.746 169.586 291.848 173.199L292.085 181.665" stroke="#153150" stroke-width="3.61827" stroke-linecap="round" stroke-linejoin="round"/>
<path d="M203.331 226.801C203.411 223.186 200.506 220.178 196.844 220.082C193.181 219.987 190.146 222.84 190.066 226.455C189.986 230.07 192.89 233.078 196.553 233.174C200.216 233.269 203.25 230.416 203.331 226.801Z" fill="#1E324D"/>
<path d="M197.131 225.019C197.155 223.954 196.299 223.068 195.22 223.039C194.141 223.011 193.247 223.852 193.224 224.917C193.2 225.983 194.056 226.869 195.135 226.897C196.214 226.926 197.108 226.085 197.131 225.019Z" fill="white"/>
<path d="M246.727 228.031C246.807 224.413 243.9 221.403 240.235 221.307C236.569 221.212 233.532 224.067 233.452 227.685C233.372 231.303 236.279 234.313 239.945 234.409C243.61 234.504 246.647 231.648 246.727 228.031Z" fill="#1E324D"/>
<path d="M240.847 225.933C240.87 224.868 240.015 223.981 238.936 223.953C237.857 223.925 236.963 224.766 236.939 225.831C236.916 226.897 237.772 227.783 238.85 227.811C239.93 227.839 240.823 226.998 240.847 225.933Z" fill="white"/>
<path d="M227.518 251.551C227.074 253.4 226.566 254.907 225.74 256.824C222.791 258.437 219.699 259.021 216.643 258.924C213.75 258.832 211.121 257.677 208.442 256.663C210.287 253.857 211.022 252.002 211.974 248.647C213.18 244.538 217.509 242.354 221.586 243.046C226.045 243.67 228.724 247.443 227.518 251.551Z" fill="#0DBAEC"/>
<path d="M216.643 258.924C219.699 259.021 222.791 258.437 225.74 256.824C226.566 254.907 227.074 253.4 227.518 251.551C228.724 247.443 226.045 243.67 221.586 243.046C217.509 242.354 213.18 244.538 211.974 248.647C211.022 252.002 210.287 253.857 208.442 256.663C211.121 257.677 213.75 258.832 216.643 258.924ZM216.643 258.924C217.481 257.428 219.187 253.735 219.307 250.927" stroke="#153150" stroke-width="3.61827" stroke-linecap="round" stroke-linejoin="round"/>
<path opacity="0.15" d="M309.934 251.106C310.341 268.363 253.488 278.996 252.654 247.757C251.778 212.93 298.593 227.066 309.038 219.553C309.038 219.553 309.859 242.291 309.934 251.106Z" fill="#153150"/>
<path d="M296.501 225.665L278.943 226.707C270.081 227.233 263.139 234.532 263.058 243.41C262.97 252.948 270.796 260.666 280.332 260.446L296.487 260.075C304.894 259.881 311.538 252.886 311.3 244.481L310.77 210.399C310.811 218.457 304.545 225.187 296.501 225.665Z" fill="#0DBAEC"/>
<path d="M310.77 210.399L311.3 244.481C311.538 252.886 304.894 259.881 296.487 260.075L280.332 260.446C270.796 260.666 262.97 252.948 263.058 243.41C263.139 234.532 270.081 227.233 278.943 226.707L296.501 225.665C304.545 225.187 310.811 218.457 310.77 210.399ZM310.77 210.399C310.742 204.905 307.794 200.079 303.396 197.425" stroke="#153150" stroke-width="3.61827" stroke-linecap="round" stroke-linejoin="round"/>
<circle cx="281.145" cy="243.37" r="8.53637" transform="rotate(-15 281.145 243.37)" fill="#FFD168" stroke="#153150" stroke-width="3.61827" stroke-linecap="round" stroke-linejoin="round"/>
<path d="M185.771 219.221C187.913 215.161 192.346 213.867 195.177 214.087" stroke="#153150" stroke-width="3.61827" stroke-linecap="round" stroke-linejoin="round"/>
<path d="M243.119 215.813C247.524 215.204 251.027 218.691 251.741 221.355" stroke="#153150" stroke-width="3.61827" stroke-linecap="round" stroke-linejoin="round"/>
<path d="M286.586 189.171C292.271 189.076 293.829 192.227 294.9 196.223" stroke="#153150" stroke-width="3.61827" stroke-linecap="round" stroke-linejoin="round"/>
<path d="M287.949 288.743C293.455 287.981 296.071 284.425 296.154 279.406" stroke="#153150" stroke-width="3.61827" stroke-linecap="round" stroke-linejoin="round"/>
<path opacity="0.2" d="M138.237 174.446C139.037 170.114 147.258 170.313 151.269 170.954C148.593 171.671 148.444 175.922 148.704 177.958L291.549 177.147C291.511 174.874 293.368 172.912 295.505 173.686C299.566 175.155 302.52 178.988 302.651 183.568L303.077 198.472C302.668 185.385 294.499 181.993 290.465 181.933C253.155 182.618 175.584 184.141 163.789 184.753C149.045 185.518 137.237 179.86 138.237 174.446Z" fill="#153150"/>
<defs>
<radialGradient id="paint0_radial_19932_94126" cx="0" cy="0" r="1" gradientUnits="userSpaceOnUse" gradientTransform="translate(86.8449 100.999) rotate(46.3639) scale(40.9634 43.3696)">
<stop offset="0.0648649" stop-color="#FFEF9F"/>
<stop offset="0.735" stop-color="#FFC744"/>
</radialGradient>
</defs>
</svg>
