<svg width="20" height="20" viewBox="0 0 20 20" fill="none" xmlns="http://www.w3.org/2000/svg">
<path fill-rule="evenodd" clip-rule="evenodd" d="M10.0014 2.31795C7.88059 2.31795 6.16137 4.03718 6.16137 6.15795V7.11795H18.6414C19.1716 7.11795 19.6014 7.54776 19.6014 8.07795V18.638C19.6014 19.1681 19.1716 19.5979 18.6414 19.5979H1.36137C0.831174 19.5979 0.401367 19.1681 0.401367 18.638V8.07795C0.401367 7.54776 0.831174 7.11795 1.36137 7.11795H4.24137V6.15795C4.24137 2.97679 6.82021 0.397949 10.0014 0.397949C13.1825 0.397949 15.7614 3.45679 15.7614 6.63795V7.11795C14.8014 7.11795 15.3316 7.11795 14.8014 7.11795C14.2712 7.11795 14.8014 7.11795 13.8414 7.11795V6.63795C13.8414 4.51718 12.1221 2.31795 10.0014 2.31795ZM2.32137 9.03795V17.6779H17.6814V9.03795H2.32137ZM8.08137 11.9179C8.08137 10.8576 8.94098 9.99795 10.0014 9.99795C11.0618 9.99795 11.9214 10.8576 11.9214 11.9179C11.9214 12.6286 11.5353 13.2491 10.9614 13.5811V15.7579C10.9614 16.2881 10.5316 16.7179 10.0014 16.7179C9.47117 16.7179 9.04137 16.2881 9.04137 15.7579V13.5811C8.46748 13.2491 8.08137 12.6286 8.08137 11.9179Z" fill="white"/>
</svg>
