<svg width="400" height="400" viewBox="0 0 400 400" fill="none" xmlns="http://www.w3.org/2000/svg">
<path d="M327.359 246.907L319.586 254.679L327.359 262.451L335.131 254.679L327.359 246.907Z" fill="#C8B1FF"/>
<path opacity="0.1" d="M325.853 198.617C311.534 193.824 298.892 204.409 284.349 194.323C274.84 187.732 268.911 188.331 242.509 196.22C222.596 202.112 208.501 217.391 190.825 226.878C169.569 238.262 149.545 251.144 128.96 263.427C126.499 264.925 104.572 275.411 104.572 278.107V305.469C128.96 302.712 129.631 309.164 142.944 312.759C152.118 315.256 162.074 312.36 171.583 313.458C177.177 314.057 182.546 316.054 188.14 316.754C203.354 318.451 197.761 316.254 211.857 325.142C232.553 318.751 214.542 320.948 267.68 330.035C272.043 324.842 270.365 318.451 270.365 318.451L267.68 307.245C267.68 307.245 266.773 295.183 267.568 295.183C275.176 288.493 274.169 290.09 275.399 282.301C276.183 277.508 279.427 274.512 281.664 270.517C283.342 267.422 280.993 267.222 293.858 248.049C306.835 228.675 359.75 210.101 325.853 198.617Z" fill="black"/>
<path d="M93.0419 303.833L87.4238 283.377H99.2362L105.286 306.281L93.0419 303.833Z" fill="#AD8DFF"/>
<path d="M105.198 305.919L113.74 298.774L111.1 286.504H100.072L105.198 305.919Z" fill="#8F64FD"/>
<path d="M105.332 306.239L93.0665 303.723L88.8208 289.099L101.243 291.367M105.332 306.239L101.243 291.367M105.332 306.239L113.666 298.848L110.049 285.01L101.243 291.367" stroke="black" stroke-width="2.15493" stroke-linecap="round" stroke-linejoin="round"/>
<path d="M196.708 323.117L191.09 302.661L204.511 303.136L210.724 325.977L196.708 323.117Z" fill="#AD8DFF"/>
<path d="M210.647 326.114L218.239 315.048L215.599 302.778L205.522 306.7L210.647 326.114Z" fill="#8F64FD"/>
<path d="M210.679 326.041L196.779 323.189L191.967 306.616L206.046 309.186M210.679 326.041L206.046 309.186M210.679 326.041L218.238 315.663L214.139 299.98L206.046 309.186" stroke="black" stroke-width="2.15493" stroke-linecap="round" stroke-linejoin="round"/>
<path d="M273.267 240.717L278.31 231.985L277.203 217.225L271.238 222.01L258.507 223.867L259.245 240.717H273.267Z" fill="#8F64FD"/>
<path d="M273.085 241.132L259.734 239.978L258.012 224.496H271.761M273.085 241.132L271.761 224.496M273.085 241.132L278.307 231.984L277.517 218.365L271.761 224.496" stroke="black" stroke-width="2.15493" stroke-linecap="round" stroke-linejoin="round"/>
<path d="M192.238 197.754L281.084 201.529L206.969 296.311L79.9624 278.266L192.238 197.754Z" fill="#BFA5FF"/>
<path d="M214.078 135.817L192.283 197.353L281.072 200.913L299.703 134.037L214.078 135.817Z" fill="#AD8DFF"/>
<path d="M285.457 205.044L280.749 201.079L299.831 134.041L303.177 141.476L285.457 205.044Z" fill="#8F64FD"/>
<path d="M280.859 205.336H285.018L280.859 201.391V205.336Z" fill="#8F64FD"/>
<path d="M83.1862 291.89L80.3442 278.627L206.34 295.995L210.13 313.047L83.1862 291.89Z" fill="#AD8DFF"/>
<path d="M156.815 259.716L128.602 284.183L124.27 283.129C128.25 278.213 138.786 265.569 148.737 253.746C168.872 251.756 177.652 248.009 179.057 240.985C182.101 244.38 194.276 249.063 197.32 249.063C199.778 249.063 220.148 251.17 229.981 252.224L221.786 254.916C219.328 254.097 212.772 252.458 206.802 252.224C199.427 251.873 188.54 250.585 178.94 250.351C176.013 253.277 167.351 259.131 156.815 259.716Z" fill="#AD8DFF"/>
<path d="M123.802 295.069C129.89 294.952 129.539 287.694 128.602 284.065L123.802 283.363L115.959 293.782C116.076 294.367 117.715 295.186 123.802 295.069Z" fill="#8F64FD"/>
<path d="M206.658 296.312L281.182 202.209V215.472L209.816 311.785L206.658 296.312Z" fill="#8F64FD"/>
<path d="M79.855 278.099L206.593 296.284M79.855 278.099L192.266 197.648M79.855 278.099L83.1646 290.927L209.723 312.456M206.593 296.284L280.983 201.506M206.593 296.284L209.723 312.456M280.983 201.506L192.266 197.648M280.983 201.506L299.886 134.202M192.266 197.648L214.201 136.222L299.886 134.202M209.723 312.456L281.156 215.119L280.983 205.814M299.886 134.202L303.186 141.66L285.966 205.814M285.966 205.814L280.962 201.491L280.983 205.814M285.966 205.814H280.983" stroke="black" stroke-width="2.15493" stroke-linecap="round" stroke-linejoin="round"/>
<path d="M103.784 293.35C102.208 291.661 98.7188 287.384 97.0304 283.332C95.1168 282.656 90.9521 281.981 90.1642 285.02C89.1511 288.735 95.4546 293.125 103.784 293.35Z" fill="#FF8C25"/>
<path d="M106.709 276.352C105.696 269.598 101.531 262.394 95.4529 263.633C87.5736 265.208 95.4528 281.868 99.2799 288.284C103.107 294.7 109.973 300.102 113.8 298.414C117.627 296.726 114.476 290.76 113.125 288.959C111.774 287.158 107.722 283.106 106.709 276.352Z" fill="#FFC835"/>
<path d="M121.906 252.94C119.992 256.429 117.403 260.369 109.524 283.106C110.987 285.92 115.152 289.635 115.827 293.462C125.62 280.18 136.201 267.573 147.457 255.529C162.09 253.953 175.935 251.139 177.061 242.809C176.16 242.021 173.121 240.22 169.519 237.856C167.493 238.307 162.428 239.657 157.925 241.121L155.899 239.77C152.185 240.67 139.69 243.822 133.499 245.286C125.733 246.974 123.819 249.338 121.906 252.94Z" fill="#FFC835"/>
<path d="M147.229 237.181L142.501 242.584L155.896 239.657L151.281 236.055L147.229 237.181Z" fill="#FF8C25"/>
<path d="M109.634 282.881C117.514 260.256 120.215 256.316 122.016 252.714C123.93 249.225 125.843 246.749 133.61 245.06C139.801 243.597 151.845 240.783 155.559 239.882M141.714 243.147L146.78 237.294" stroke="black" stroke-width="2.15493" stroke-linecap="round" stroke-linejoin="round"/>
<path d="M111.435 286.033C116.163 278.266 126.743 261.495 131.584 257.105C150.494 254.516 175.37 254.516 176.946 243.147" stroke="black" stroke-width="2.15493" stroke-linecap="round" stroke-linejoin="round"/>
<path d="M107.385 276.578C106.372 269.824 102.207 262.62 96.1286 263.858C88.2493 265.434 96.1287 282.093 99.9558 288.509C103.783 294.925 110.649 300.328 114.476 298.64C118.303 296.952 115.151 290.986 113.801 289.185C112.45 287.271 108.398 283.219 107.385 276.578Z" stroke="black" stroke-width="2.15493" stroke-linecap="round" stroke-linejoin="round"/>
<path d="M115.825 293.236C124.155 281.98 140.476 263.295 147.568 255.303" stroke="black" stroke-width="2.15493" stroke-linecap="round" stroke-linejoin="round"/>
<path opacity="0.3" d="M127.982 255.078C127.194 256.204 123.479 261.719 110.31 284.344C110.535 284.682 111.098 285.47 111.435 285.695C112.223 284.344 123.929 265.884 131.809 256.992C137.324 255.866 149.481 254.628 158.936 254.065C170.755 253.39 175.145 247.987 176.608 244.723C177.847 242.134 171.656 239.095 168.504 237.856L157.811 241.121L155.334 239.432L151.62 240.558C153.308 241.121 156.685 243.034 156.685 246.186C156.685 250.126 149.594 251.364 139.463 251.814C129.333 252.264 128.77 253.953 127.982 255.078Z" fill="#FF0000"/>
<path opacity="0.3" d="M131.586 256.879C137.89 263.971 127.421 276.352 113.914 289.185C114.477 289.522 115.49 291.098 115.04 294.25C124.495 281.418 135.864 267.685 148.358 254.741C147.007 254.853 139.465 255.641 131.586 256.879Z" fill="#FF0000"/>
<path d="M96.8035 283.218C94.89 282.542 90.7252 281.867 89.9373 284.906C88.9243 288.621 94.8901 293.011 103.22 293.236" stroke="black" stroke-width="2.15493" stroke-linecap="round" stroke-linejoin="round"/>
<path d="M97.4325 81.0727C65.6634 88.7503 60.1037 100.002 62.4865 102.517C73.1544 119.285 94.0263 167.61 92.1705 226.764L271.132 227.397C283.798 227.442 294.632 218.091 295.125 205.436C296.639 166.516 289.896 123.855 282.688 96.6749C279.241 83.6778 268.101 74.6382 254.754 73.0096C191.104 65.2433 126.005 74.1677 97.4325 81.0727Z" fill="#0E9FFF"/>
<path d="M288.587 123.952C294.135 125.471 293.679 134.135 290.983 140.195L288.587 123.952Z" fill="#0E9FFF"/>
<path d="M97.4325 81.0727C65.6634 88.7503 60.1037 100.002 62.4865 102.517C73.1544 119.285 94.0263 167.61 92.1705 226.764L271.132 227.397C283.798 227.442 294.632 218.091 295.125 205.436C296.639 166.516 289.896 123.855 282.688 96.675C279.241 83.6778 268.101 74.6382 254.754 73.0096C191.104 65.2433 126.005 74.1677 97.4325 81.0727Z" stroke="black" stroke-width="2.15493" stroke-linecap="round" stroke-linejoin="round"/>
<path d="M77.3507 166.667C70.575 176.346 67.9477 189.344 71.1281 202.342C81.7756 202.343 84.5412 186.164 77.3507 166.667Z" fill="#35D2FF"/>
<path d="M271.957 102.847C278.155 123.923 286.249 161.215 282.645 222.176C282.32 227.671 277.601 231.831 272.116 231.364C227.638 227.574 143.548 214.853 100.366 222.374C98.9872 188.609 85.2365 122.289 78.5167 93.2744C78.5061 93.2514 78.5006 93.2274 78.5 93.2025C78.4786 92.1876 86.7583 89.6148 98.6411 87.6154C135.143 81.4737 191.9 74.5251 247.259 81.5471C258.885 83.0217 268.652 91.604 271.957 102.847Z" fill="#0E9FFF"/>
<path d="M240.387 84.5359C193.571 78.744 132.469 85.611 94.7005 91.9308C83.6193 93.785 78.8315 93.9576 78.5167 93.2744M78.5 93.2025C78.4786 92.1876 86.7583 89.6148 98.6411 87.6154C135.143 81.4737 191.9 74.5251 247.259 81.5471C258.885 83.0217 268.652 91.604 271.957 102.847C278.155 123.923 286.249 161.215 282.645 222.176C282.32 227.671 277.601 231.831 272.116 231.364C227.638 227.574 143.548 214.853 100.366 222.374C98.9872 188.609 85.2365 122.289 78.5167 93.2744M78.5 93.2025C78.5006 93.2274 78.5061 93.2514 78.5167 93.2744M78.5 93.2025C78.5056 93.2264 78.5111 93.2504 78.5167 93.2744" stroke="black" stroke-width="2.15493" stroke-linecap="round" stroke-linejoin="round"/>
<path d="M123.86 244.9C74.155 251.602 76.3889 240.712 76.6681 232.334C78.0958 189.501 76.1518 142.753 62.2295 101.965C65.5162 105.901 96.1958 96.2085 155.693 91.598C196.381 88.445 225.474 91.0861 243.173 94.5701C254.74 96.8469 262.804 106.234 265.031 117.81C268.032 133.413 271.369 155.917 272.694 181.234C273.934 204.943 272.12 223.917 269.783 236.896C267.862 247.565 258.819 254.878 247.988 255.313C231.555 255.972 209.043 255.103 189.201 249.368C153.459 239.036 173.564 238.199 123.86 244.9Z" fill="#35D2FF"/>
<path d="M123.859 244.9C74.155 251.602 76.3889 240.712 76.6681 232.334C78.0958 189.501 76.1518 142.753 62.2295 101.965C65.5162 105.901 96.1958 96.2085 155.693 91.598C196.381 88.445 225.474 91.0861 243.173 94.5701C254.74 96.8469 262.804 106.234 265.031 117.81C268.032 133.413 271.369 155.917 272.694 181.234C273.934 204.943 272.12 223.917 269.783 236.896C267.862 247.565 258.819 254.878 247.988 255.313C231.555 255.972 209.043 255.103 189.201 249.368C153.459 239.036 173.564 238.199 123.859 244.9Z" stroke="black" stroke-width="2.15493" stroke-linecap="round" stroke-linejoin="round"/>
<path d="M123.203 157.66C129.524 151.533 137.344 153.162 140.464 154.742M159.427 154.742C167.984 151.047 174.257 153.77 176.323 155.593M122.595 177.474C125.804 182.433 137.141 188.373 142.409 190.723M119.07 178.081C120.202 174.915 123.571 173.209 124.661 172.854" stroke="black" stroke-width="2.15493" stroke-linecap="round" stroke-linejoin="round"/>
<path d="M137.803 153.857C131.166 153.514 128.877 153.399 125.329 156.146C118.874 140.064 137.276 137.75 137.803 153.857Z" fill="black"/>
<path d="M130.244 145.602C128.844 145.005 126.96 146.651 126.668 149.413" stroke="white" stroke-width="2.15493" stroke-linecap="round" stroke-linejoin="round"/>
<path d="M173.754 153.258C166.498 151.899 163.995 151.435 159.684 153.935C154.954 135.276 175.554 135.448 173.754 153.258Z" fill="black"/>
<path d="M166.218 143.147C164.371 142.727 162.246 144.857 162.287 147.947" stroke="white" stroke-width="2.15493" stroke-linecap="round" stroke-linejoin="round"/>
<path opacity="0.2" d="M283.036 219.849C293.216 210.912 295.477 199.966 295.334 195.61L291.824 168.964C267.584 172.196 216.883 189.032 231.41 222.106C242.131 246.513 263.399 228.017 272.343 219.849L271.925 224.569C273.478 224.011 277.875 221.271 283.036 214.771C283.036 216.524 283.036 219.993 283.036 219.849Z" fill="#0501A3"/>
<path d="M238.408 179.682C246.584 175.924 256.356 170.98 266.961 164.782C287.889 152.552 293.698 138.312 293.08 130.215C292.931 129.356 292.789 128.541 292.654 127.776C292.866 128.507 293.012 129.324 293.08 130.215C295.563 144.521 299.912 171.049 300.349 179.642C300.834 189.17 287.4 208.697 252.926 224.995C240.893 230.683 227.156 223.446 223.386 210.682C219.733 198.314 226.69 185.068 238.408 179.682Z" fill="#0DBAEC"/>
<path d="M263.388 172.803C260.388 173.78 256.859 175.676 256.821 177.392C256.789 178.866 258.77 179.144 261.767 178.006C270.862 174.551 279.074 167.728 285.927 160.529C289.143 157.151 287.335 155.362 283.914 158.613C274.927 167.152 266.388 171.826 263.388 172.803Z" fill="white"/>
<path d="M289.542 123.867C290.932 124.331 292.056 125.715 292.654 127.776M292.654 127.776C292.866 128.507 293.012 129.324 293.08 130.215M292.654 127.776C292.789 128.541 292.931 129.356 293.08 130.215M293.08 130.215C293.698 138.312 287.889 152.552 266.961 164.782C256.356 170.98 246.584 175.924 238.408 179.682C226.69 185.068 219.733 198.314 223.386 210.682C227.156 223.446 240.893 230.683 252.926 224.995C287.4 208.697 300.834 189.17 300.349 179.642C299.912 171.049 295.563 144.521 293.08 130.215Z" stroke="black" stroke-width="2.15493" stroke-linecap="round" stroke-linejoin="round"/>
<path opacity="0.2" d="M250.744 218.293C235.993 224.091 229.067 198.285 243.818 192.488C258.568 186.691 265.494 212.496 250.744 218.293Z" fill="#0501A3"/>
<path d="M251.867 213.972C238.777 219.299 232.396 195.153 245.487 189.826C258.577 184.5 264.957 208.646 251.867 213.972Z" fill="#FFC835"/>
<path d="M251.867 213.972C238.777 219.299 232.396 195.153 245.487 189.826C258.577 184.5 264.957 208.646 251.867 213.972Z" stroke="black" stroke-width="2.15493" stroke-linecap="round" stroke-linejoin="round"/>
<path opacity="0.2" d="M90.2173 179.74L92.0276 189.47L103.09 256.607C131.652 256.039 195.534 255.245 222.567 256.607C220.475 222.357 214.454 186.875 211.705 173.415C200.374 173.496 168.863 178.426 133.462 197.497C120.75 186.989 99.3356 181.28 90.2173 179.74Z" fill="#0501A3"/>
<path d="M79.9521 182.677L86.1416 197.494L124.028 207.81L198.864 190.555L195.676 177.988L186.298 179.301C186.298 178.238 185.998 175.737 184.797 174.237C155.988 178.588 130.656 191.555 121.59 197.494C115.898 193.822 101.884 184.107 79.9521 182.677Z" fill="#E1DDDD"/>
<path d="M94.3624 249.097C89.3364 222.656 76.0611 198.2 70.0518 189.277C73.1173 189.277 77.8458 189.534 83.5451 190.225C94.2657 191.526 108.421 194.366 121.405 199.93C133.593 195.215 165.304 185.215 196.512 182.109C197.244 182.036 197.976 181.967 198.707 181.902C211.818 213.588 219.649 246.275 221.925 258.658C189.412 253.625 148.838 261.789 133.97 264.667C129.326 260.297 114.904 251.064 94.3624 249.097Z" fill="#006077"/>
<path d="M133.97 264.667C129.326 260.297 114.904 251.064 94.3624 249.097C89.3364 222.656 76.0611 198.2 70.0518 189.277C73.1173 189.277 77.8458 189.534 83.5451 190.225M133.97 264.667C133.533 243.252 125.411 212.586 121.405 199.93M133.97 264.667C148.838 261.789 189.412 253.625 221.925 258.658C219.649 246.275 211.818 213.588 198.707 181.902C197.976 181.967 197.244 182.036 196.512 182.109M121.405 199.93C108.421 194.366 94.2657 191.526 83.5451 190.225M121.405 199.93C133.593 195.215 165.304 185.215 196.512 182.109M83.5451 190.225L79.8343 182.9C100.975 184.401 116.681 194.083 121.977 197.534M121.977 197.534C131.708 190.858 154.588 179.005 185.367 174.295L186.456 179.005M121.977 197.534C145.406 186.859 172.33 179.396 195.57 178.262L196.512 182.109" stroke="black" stroke-width="2.15493" stroke-linecap="round" stroke-linejoin="round"/>
<path opacity="0.14" d="M90.7535 215.581C110.624 216.362 104.146 239.635 88.1178 226.798L86.6431 214.247C87.7402 215.009 89.0912 215.515 90.7535 215.581Z" fill="black"/>
<path d="M76.9239 200.704C76.9239 200.704 77.7175 211.226 85.7106 211.541C105.581 212.322 99.103 235.595 83.0749 222.758C76.9932 217.887 72.5319 211.259 70.4727 203.131L76.9239 200.704Z" fill="#35D2FF"/>
<path d="M74.5124 172.017C64.8259 191.39 71.208 213.256 83.0706 222.758C99.0987 235.595 105.577 212.322 85.7063 211.54C77.7133 211.226 75.8931 198.962 75.8931 198.962" stroke="black" stroke-width="2.15493" stroke-linecap="round" stroke-linejoin="round"/>
<path d="M305.802 285.399L300.671 288.494L303.766 293.625L308.897 290.53L305.802 285.399Z" fill="#FED269"/>
<path d="M145.079 235.842C145.182 235.823 145.26 235.825 145.313 235.846C145.369 235.862 145.437 235.907 145.515 235.98L151.687 241.959C151.655 241.851 151.628 241.746 151.606 241.645C151.583 241.54 151.562 241.439 151.545 241.341L150.382 234.886L151.392 234.704L153.035 243.817L152.452 243.922C152.361 243.939 152.281 243.936 152.211 243.913C152.145 243.89 152.076 243.843 152.002 243.773L145.837 237.8C145.864 237.904 145.889 238.007 145.911 238.108C145.933 238.209 145.952 238.302 145.968 238.387L147.138 244.88L146.127 245.062L144.485 235.949L145.079 235.842Z" fill="white"/>
<path d="M156.151 236.499C156.512 236.434 156.857 236.44 157.185 236.516C157.513 236.588 157.811 236.727 158.077 236.933C158.342 237.135 158.569 237.405 158.757 237.743C158.948 238.076 159.084 238.472 159.167 238.93C159.199 239.108 159.203 239.23 159.178 239.296C159.153 239.361 159.091 239.403 158.992 239.421L154.985 240.143C155.066 240.549 155.182 240.893 155.331 241.177C155.48 241.461 155.657 241.69 155.86 241.863C156.062 242.033 156.287 242.147 156.536 242.208C156.783 242.264 157.049 242.266 157.335 242.215C157.6 242.167 157.822 242.094 158.001 241.996C158.183 241.893 158.337 241.791 158.462 241.69C158.586 241.589 158.689 241.498 158.768 241.418C158.851 241.333 158.926 241.284 158.994 241.272C159.081 241.257 159.155 241.28 159.215 241.344L159.587 241.704C159.487 241.897 159.357 242.074 159.198 242.234C159.038 242.389 158.86 242.526 158.664 242.645C158.473 242.763 158.269 242.86 158.054 242.939C157.84 243.021 157.624 243.082 157.406 243.121C156.99 243.196 156.592 243.191 156.213 243.106C155.837 243.017 155.494 242.851 155.184 242.609C154.878 242.362 154.615 242.037 154.395 241.635C154.175 241.232 154.015 240.754 153.915 240.198C153.834 239.749 153.822 239.318 153.878 238.905C153.939 238.491 154.064 238.12 154.255 237.793C154.444 237.461 154.699 237.183 155.019 236.959C155.338 236.731 155.715 236.578 156.151 236.499ZM156.325 237.328C155.814 237.42 155.44 237.651 155.204 238.022C154.968 238.389 154.864 238.858 154.894 239.431L158.169 238.841C158.122 238.578 158.045 238.344 157.938 238.14C157.831 237.932 157.698 237.761 157.539 237.628C157.379 237.49 157.197 237.396 156.991 237.346C156.789 237.29 156.567 237.284 156.325 237.328Z" fill="white"/>
<path d="M159.236 236.048L160.068 235.898C160.155 235.882 160.231 235.893 160.295 235.93C160.358 235.966 160.406 236.014 160.437 236.074L162.338 240.013C162.397 240.16 162.453 240.303 162.507 240.442C162.56 240.577 162.609 240.715 162.655 240.855C162.661 240.705 162.671 240.557 162.685 240.41C162.699 240.259 162.714 240.103 162.73 239.942L163.25 235.541C163.259 235.474 163.283 235.415 163.323 235.364C163.367 235.312 163.426 235.28 163.501 235.266L163.959 235.184C164.038 235.169 164.108 235.179 164.167 235.212C164.226 235.245 164.271 235.292 164.302 235.352L166.297 239.299C166.367 239.44 166.431 239.579 166.489 239.718C166.55 239.856 166.61 239.992 166.667 240.126C166.661 239.982 166.661 239.831 166.665 239.673C166.669 239.515 166.677 239.367 166.689 239.229L167.119 234.87C167.126 234.799 167.154 234.737 167.202 234.685C167.249 234.628 167.31 234.593 167.385 234.579L168.182 234.436L167.393 241.229L166.555 241.38C166.452 241.399 166.368 241.34 166.302 241.203L164.183 237.074C164.134 236.982 164.091 236.889 164.053 236.795C164.015 236.697 163.977 236.601 163.94 236.507C163.938 236.608 163.936 236.711 163.934 236.817C163.933 236.922 163.925 237.026 163.911 237.129L163.348 241.735C163.33 241.887 163.262 241.974 163.143 241.995L162.347 242.139L159.236 236.048Z" fill="white"/>
<path d="M172.762 234.707C172.731 234.809 172.666 234.869 172.567 234.886C172.507 234.897 172.436 234.886 172.352 234.853C172.269 234.82 172.166 234.786 172.045 234.751C171.928 234.711 171.789 234.681 171.63 234.661C171.471 234.637 171.288 234.644 171.082 234.681C170.903 234.713 170.747 234.768 170.614 234.844C170.48 234.917 170.369 235.005 170.281 235.108C170.197 235.211 170.138 235.324 170.103 235.449C170.071 235.568 170.067 235.694 170.091 235.825C170.121 235.99 170.189 236.12 170.296 236.215C170.407 236.309 170.543 236.383 170.704 236.437C170.866 236.491 171.045 236.533 171.243 236.563C171.44 236.589 171.642 236.62 171.849 236.657C172.059 236.689 172.265 236.731 172.467 236.782C172.668 236.834 172.854 236.91 173.023 237.01C173.193 237.111 173.338 237.247 173.459 237.418C173.583 237.584 173.668 237.796 173.715 238.054C173.768 238.351 173.768 238.636 173.715 238.908C173.661 239.176 173.554 239.421 173.393 239.642C173.232 239.86 173.02 240.047 172.758 240.203C172.496 240.36 172.18 240.472 171.812 240.538C171.392 240.614 170.998 240.61 170.632 240.527C170.264 240.44 169.941 240.304 169.662 240.118L169.833 239.64C169.855 239.58 169.885 239.53 169.923 239.493C169.962 239.455 170.016 239.43 170.088 239.417C170.159 239.404 170.24 239.421 170.33 239.466C170.42 239.511 170.527 239.559 170.651 239.611C170.778 239.663 170.927 239.704 171.096 239.735C171.269 239.765 171.477 239.758 171.719 239.714C171.925 239.677 172.1 239.617 172.245 239.534C172.388 239.447 172.503 239.345 172.589 239.229C172.674 239.113 172.729 238.987 172.754 238.851C172.782 238.715 172.784 238.575 172.758 238.43C172.726 238.252 172.654 238.114 172.542 238.016C172.433 237.913 172.298 237.835 172.137 237.781C171.975 237.722 171.794 237.681 171.593 237.655C171.395 237.625 171.191 237.594 170.981 237.562C170.775 237.529 170.569 237.488 170.363 237.437C170.161 237.382 169.974 237.302 169.804 237.197C169.634 237.092 169.486 236.952 169.36 236.778C169.238 236.598 169.152 236.371 169.102 236.095C169.058 235.849 169.063 235.605 169.118 235.364C169.172 235.117 169.274 234.893 169.426 234.691C169.577 234.484 169.776 234.306 170.023 234.156C170.271 234.007 170.565 233.901 170.905 233.84C171.302 233.768 171.669 233.772 172.006 233.852C172.347 233.926 172.653 234.059 172.925 234.251L172.762 234.707Z" fill="white"/>
<path d="M174.927 230.2L176.615 239.567L175.557 239.758L173.869 230.39L174.927 230.2Z" fill="white"/>
<path d="M179.684 232.258C180.045 232.193 180.39 232.198 180.719 232.275C181.047 232.347 181.344 232.486 181.61 232.692C181.876 232.893 182.102 233.163 182.29 233.502C182.481 233.835 182.618 234.231 182.7 234.688C182.732 234.866 182.736 234.988 182.711 235.054C182.686 235.12 182.624 235.162 182.525 235.18L178.518 235.902C178.6 236.307 178.715 236.652 178.864 236.936C179.014 237.22 179.19 237.448 179.393 237.622C179.596 237.791 179.821 237.906 180.069 237.966C180.316 238.022 180.583 238.025 180.868 237.973C181.134 237.925 181.356 237.853 181.534 237.755C181.716 237.652 181.87 237.55 181.995 237.449C182.12 237.347 182.222 237.257 182.302 237.177C182.385 237.092 182.46 237.043 182.527 237.031C182.614 237.015 182.688 237.039 182.749 237.103L183.12 237.462C183.02 237.655 182.89 237.832 182.731 237.992C182.571 238.148 182.393 238.285 182.198 238.403C182.006 238.521 181.803 238.619 181.588 238.697C181.373 238.78 181.157 238.84 180.939 238.88C180.523 238.955 180.126 238.95 179.746 238.865C179.37 238.775 179.027 238.609 178.717 238.368C178.411 238.121 178.148 237.796 177.928 237.394C177.708 236.991 177.548 236.512 177.448 235.957C177.367 235.507 177.355 235.076 177.411 234.663C177.472 234.25 177.597 233.879 177.788 233.551C177.978 233.22 178.233 232.942 178.552 232.718C178.871 232.489 179.249 232.336 179.684 232.258ZM179.858 233.086C179.347 233.178 178.974 233.41 178.738 233.781C178.501 234.147 178.397 234.617 178.427 235.189L181.702 234.599C181.655 234.336 181.578 234.103 181.472 233.899C181.365 233.69 181.231 233.52 181.072 233.386C180.913 233.249 180.73 233.155 180.524 233.104C180.322 233.049 180.1 233.043 179.858 233.086Z" fill="white"/>
<path d="M186.558 237.88C186.082 237.966 185.69 237.89 185.382 237.652C185.077 237.414 184.876 237.028 184.78 236.494L184.069 232.551L183.344 232.681C183.281 232.693 183.224 232.683 183.173 232.653C183.122 232.619 183.089 232.559 183.073 232.474L182.992 232.023L183.955 231.711L183.84 229.677C183.836 229.612 183.853 229.556 183.889 229.51C183.925 229.46 183.977 229.429 184.044 229.417L184.579 229.32L184.979 231.54L186.703 231.229L186.851 232.049L185.127 232.36L185.824 236.226C185.873 236.498 185.971 236.688 186.117 236.797C186.264 236.907 186.434 236.944 186.628 236.909C186.739 236.889 186.832 236.857 186.906 236.813C186.983 236.764 187.048 236.715 187.1 236.666C187.153 236.617 187.196 236.575 187.231 236.538C187.268 236.496 187.303 236.472 187.334 236.466C187.39 236.456 187.446 236.484 187.502 236.548L187.909 237.033C187.759 237.248 187.565 237.432 187.327 237.584C187.088 237.732 186.831 237.831 186.558 237.88Z" fill="white"/>
<path d="M190.993 237.081C190.517 237.167 190.125 237.091 189.816 236.853C189.512 236.615 189.311 236.228 189.215 235.694L188.504 231.751L187.779 231.882C187.716 231.893 187.659 231.884 187.608 231.854C187.557 231.819 187.524 231.76 187.508 231.675L187.427 231.223L188.39 230.912L188.275 228.877C188.271 228.812 188.288 228.757 188.324 228.711C188.36 228.661 188.412 228.629 188.479 228.617L189.014 228.521L189.414 230.74L191.138 230.43L191.286 231.25L189.562 231.561L190.259 235.427C190.308 235.699 190.406 235.889 190.552 235.998C190.699 236.107 190.869 236.145 191.063 236.11C191.174 236.09 191.267 236.058 191.341 236.014C191.418 235.965 191.483 235.916 191.535 235.867C191.588 235.818 191.631 235.775 191.665 235.738C191.703 235.697 191.738 235.673 191.769 235.667C191.825 235.657 191.881 235.684 191.937 235.748L192.344 236.233C192.194 236.448 192 236.632 191.762 236.785C191.523 236.933 191.266 237.032 190.993 237.081Z" fill="white"/>
<path d="M194.789 229.535C195.15 229.47 195.494 229.476 195.823 229.552C196.151 229.625 196.448 229.764 196.715 229.97C196.98 230.171 197.207 230.441 197.395 230.779C197.586 231.113 197.722 231.508 197.805 231.966C197.837 232.144 197.84 232.266 197.815 232.332C197.791 232.398 197.728 232.439 197.629 232.457L193.623 233.179C193.704 233.585 193.82 233.93 193.969 234.214C194.118 234.497 194.295 234.726 194.498 234.9C194.7 235.069 194.925 235.184 195.173 235.244C195.421 235.3 195.687 235.302 195.973 235.251C196.238 235.203 196.46 235.13 196.639 235.032C196.821 234.93 196.974 234.828 197.099 234.726C197.224 234.625 197.327 234.534 197.406 234.454C197.489 234.369 197.564 234.321 197.632 234.309C197.719 234.293 197.793 234.317 197.853 234.38L198.225 234.74C198.125 234.933 197.995 235.11 197.836 235.27C197.675 235.426 197.498 235.563 197.302 235.681C197.111 235.799 196.907 235.897 196.692 235.975C196.478 236.057 196.262 236.118 196.044 236.157C195.628 236.232 195.23 236.227 194.851 236.143C194.474 236.053 194.131 235.887 193.822 235.645C193.516 235.398 193.252 235.074 193.033 234.671C192.813 234.269 192.653 233.79 192.553 233.234C192.472 232.785 192.459 232.354 192.516 231.941C192.576 231.527 192.702 231.157 192.893 230.829C193.082 230.497 193.337 230.219 193.657 229.995C193.976 229.767 194.353 229.614 194.789 229.535ZM194.963 230.364C194.452 230.456 194.078 230.688 193.842 231.058C193.605 231.425 193.502 231.895 193.531 232.467L196.807 231.877C196.759 231.614 196.682 231.38 196.576 231.176C196.469 230.968 196.336 230.797 196.177 230.664C196.017 230.526 195.834 230.432 195.629 230.382C195.427 230.326 195.205 230.32 194.963 230.364Z" fill="white"/>
<path d="M199.819 235.385L198.658 228.943L199.265 228.834C199.379 228.813 199.463 228.822 199.515 228.861C199.567 228.9 199.611 228.975 199.648 229.086L199.9 230.078C200.025 229.592 200.216 229.196 200.472 228.892C200.731 228.582 201.065 228.391 201.473 228.317C201.639 228.287 201.794 228.281 201.936 228.3C202.078 228.313 202.213 228.346 202.341 228.397L202.356 229.268C202.348 229.379 202.296 229.443 202.201 229.46C202.145 229.47 202.056 229.466 201.935 229.449C201.812 229.427 201.648 229.435 201.442 229.472C201.073 229.539 200.785 229.709 200.576 229.983C200.372 230.256 200.226 230.626 200.138 231.093L200.877 235.194L199.819 235.385Z" fill="white"/>
<mask id="mask0" mask-type="alpha" maskUnits="userSpaceOnUse" x="151" y="198" width="32" height="32">
<path fill-rule="evenodd" clip-rule="evenodd" d="M151.659 203.146L177.679 198.421L182.403 224.44L156.384 229.165L151.659 203.146Z" fill="white"/>
</mask>
<g mask="url(#mask0)">
<path fill-rule="evenodd" clip-rule="evenodd" d="M165.025 202.887C159.047 203.972 155.081 209.705 156.168 215.691C157.255 221.677 162.983 225.65 168.961 224.564C174.94 223.479 178.905 217.746 177.818 211.76C176.731 205.774 171.003 201.801 165.025 202.887Z" fill="#006077"/>
<path fill-rule="evenodd" clip-rule="evenodd" d="M164.657 200.715C157.472 202.019 152.705 208.901 154.01 216.086C155.314 223.271 162.197 228.038 169.382 226.733C176.566 225.428 181.334 218.546 180.029 211.361C178.724 204.177 171.842 199.41 164.657 200.715ZM175.031 211.061C174.668 211.592 173.955 211.729 173.439 211.367L171.524 210.025C170.694 209.443 169.548 209.664 168.965 210.518L167.621 212.486C167.411 212.793 167.085 212.967 166.747 212.991C166.491 213.016 166.226 212.953 165.999 212.794L164.084 211.452C163.254 210.87 162.108 211.091 161.525 211.944L160.18 213.913C159.818 214.444 159.105 214.581 158.589 214.219C157.758 213.637 157.558 212.474 158.141 211.62L160.799 207.728C161.382 206.875 162.528 206.654 163.358 207.236L166.227 209.247L168.239 206.301C168.822 205.448 169.968 205.227 170.798 205.809L174.583 208.462C175.413 209.043 175.614 210.207 175.031 211.061ZM172.497 217.122L169.766 221.121C169.167 221.998 167.976 222.215 167.106 221.606L163.14 218.826C162.271 218.217 162.051 217.012 162.65 216.134C163.023 215.589 163.764 215.454 164.305 215.833L166.311 217.239C167.181 217.849 168.371 217.632 168.971 216.755L170.352 214.732C170.725 214.186 171.466 214.051 172.007 214.43C172.877 215.04 173.096 216.245 172.497 217.122Z" fill="white"/>
</g>
</svg>
