<svg width="20" height="20" viewBox="0 0 20 20" fill="none" xmlns="http://www.w3.org/2000/svg">
<path fill-rule="evenodd" clip-rule="evenodd" d="M16.1534 7.3312C16.1534 5.12521 15.4283 3.38166 14.2568 2.18509C11.9288 -0.193858 8.071 -0.193857 5.74297 2.18509C4.5715 3.38166 3.8464 5.12518 3.8464 7.33117C3.84633 9.75584 3.02003 11.857 0.889987 13.005C0.0329402 13.4669 0.372705 14.8106 1.34654 14.8106H18.6533C19.6271 14.8106 19.9669 13.4669 19.1098 13.005C16.9798 11.857 16.1533 9.75578 16.1534 7.3312ZM4.00758 12.8898C5.28841 11.3128 5.76935 9.30705 5.7694 7.3312C5.77498 0.672675 14.1776 0.65917 14.2305 7.3312C14.2304 9.30711 14.7114 11.3128 15.9923 12.8898H4.00758Z" fill="white"/>
<path d="M11.9229 16.7315H8.07693C7.30649 16.7315 6.84621 17.634 7.2992 18.2565C8.60355 20.049 11.3963 20.049 12.7006 18.2565C13.1536 17.634 12.6933 16.7315 11.9229 16.7315Z" fill="white"/>
</svg>
