<svg width="32" height="32" viewBox="0 0 32 32" fill="none" xmlns="http://www.w3.org/2000/svg">
<path fill-rule="evenodd" clip-rule="evenodd" d="M15.1395 18.2475C15.1278 18.1266 15.0116 16.4713 16.8163 15.1095C17.8829 14.3053 17.4277 12.5586 16 12.5586C15.1714 12.5586 14.5608 13.1558 14.5608 13.8817C14.5369 15.0151 12.8232 15.0128 12.8326 13.8817C12.8326 12.1984 14.2455 10.9102 16 10.9102C17.7355 10.9102 19.1686 12.2646 19.1686 13.9563C19.1686 14.4578 19.0706 14.9074 18.855 15.3175C18.2605 16.4484 16.8625 16.6994 16.8625 18.2475C16.8625 19.2476 15.2303 19.3255 15.1395 18.2475ZM15.9994 19.6401C14.8884 19.6338 14.8846 21.2766 15.9942 21.2782C17.0958 21.2797 17.1024 19.6462 15.9994 19.6401Z" fill="white"/>
<path fill-rule="evenodd" clip-rule="evenodd" d="M15.9994 8.31795C11.7579 8.31795 8.31941 11.7564 8.31941 15.9979C8.31941 20.2395 11.7579 23.6779 15.9994 23.6779C20.241 23.6779 23.6794 20.2395 23.6794 15.9979C23.6794 11.7564 20.241 8.31795 15.9994 8.31795ZM6.39941 15.9979C6.39941 10.696 10.6975 6.39795 15.9994 6.39795C21.3013 6.39795 25.5994 10.696 25.5994 15.9979C25.5994 21.2999 21.3013 25.5979 15.9994 25.5979C10.6975 25.5979 6.39941 21.2999 6.39941 15.9979Z" fill="white"/>
</svg>
