<svg viewBox="0 0 11 26" fill="none" xmlns="http://www.w3.org/2000/svg">
<path d="M4.26034 11.9817L0.877463 8.59879C0.817422 8.53875 0.783691 8.45732 0.783691 8.37241V5.6302C0.783691 5.41792 0.868019 5.21434 1.01812 5.06423L5.85597 0.226387C5.981 0.101357 6.18371 0.101357 6.30874 0.226387L10.1085 4.02612C10.2335 4.15115 10.2335 4.35387 10.1085 4.4789L6.30874 8.27863C6.18371 8.40366 6.18371 8.60638 6.30874 8.73141L7.13925 9.56192C7.26428 9.68695 7.46699 9.68695 7.59202 9.56192L10.0616 7.09235C10.1624 6.99151 10.3349 7.06293 10.3349 7.20555V17.0021C10.3349 17.2144 10.2505 17.418 10.1004 17.5681L7.09438 20.5742C7.03433 20.6342 7.0006 20.7156 7.0006 20.8005V22.8596C7.0006 23.0295 6.93314 23.1923 6.81306 23.3124L4.53538 25.5901C4.38411 25.7414 4.12547 25.6342 4.12547 25.4203V19.6264C4.12547 19.5415 4.09174 19.46 4.0317 19.4L1.01812 16.3864C0.868019 16.2363 0.783691 16.0327 0.783691 15.8205V11.4806C0.783691 11.338 0.95612 11.2666 1.05696 11.3675L2.96576 13.2763C3.0908 13.4013 3.29351 13.4013 3.41854 13.2763L4.26034 12.4345C4.38537 12.3094 4.38537 12.1067 4.26034 11.9817Z" fill="white"/>
</svg>
