<svg width="400" height="400" viewBox="0 0 400 400" fill="none" xmlns="http://www.w3.org/2000/svg">
<g filter="url(#filter0_d_15610_100533)">
<path d="M362.405 338.07V66.7146C362.405 64.2542 360.41 62.2596 357.95 62.2596H209.376C208.628 62.2596 207.899 62.0299 207.287 61.6017L201.625 57.642C200.649 56.9597 199.351 56.9597 198.375 57.642L192.713 61.6017C192.101 62.0299 191.372 62.2596 190.624 62.2596H42.05C39.5896 62.2596 37.595 64.2542 37.595 66.7146V338.07C37.595 340.53 39.5896 342.525 42.05 342.525H357.95C360.41 342.525 362.405 340.53 362.405 338.07Z" stroke="#E8EAED" stroke-width="0.81"/>
</g>
<mask id="mask0_15610_100533" style="mask-type:alpha" maskUnits="userSpaceOnUse" x="38" y="58" width="324" height="283">
<path d="M38 70.77C38 68.5332 39.8132 66.72 42.05 66.72H190.003C191.205 66.72 192.345 66.1861 193.114 65.2627L198.133 59.2401C199.105 58.0743 200.895 58.0743 201.867 59.2401L206.886 65.2627C207.655 66.1861 208.795 66.72 209.997 66.72H357.95C360.187 66.72 362 68.5332 362 70.77V336.45C362 338.687 360.187 340.5 357.95 340.5H42.05C39.8132 340.5 38 338.687 38 336.45V70.77Z" fill="#C4C4C4"/>
</mask>
<g mask="url(#mask0_15610_100533)">
<rect x="38" y="117.75" width="324" height="221.94" fill="white"/>
<rect x="38" y="57" width="324" height="60.75" fill="#163150"/>
<path d="M101.973 275.273H109.008V277.97H98.7045V260.401H101.973V275.273ZM115.789 265.31C116.574 265.31 117.295 265.435 117.951 265.686C118.615 265.937 119.186 266.306 119.664 266.792C120.142 267.27 120.515 267.861 120.782 268.566C121.049 269.262 121.183 270.06 121.183 270.959C121.183 271.186 121.171 271.377 121.147 271.53C121.13 271.676 121.094 271.794 121.037 271.883C120.989 271.964 120.92 272.025 120.831 272.065C120.742 272.097 120.628 272.114 120.491 272.114H112.787C112.877 273.393 113.221 274.333 113.82 274.932C114.42 275.532 115.213 275.832 116.202 275.832C116.688 275.832 117.105 275.775 117.453 275.661C117.809 275.548 118.117 275.423 118.376 275.285C118.644 275.147 118.875 275.022 119.069 274.908C119.272 274.795 119.466 274.738 119.652 274.738C119.774 274.738 119.879 274.762 119.968 274.811C120.057 274.86 120.134 274.928 120.199 275.018L121.074 276.111C120.742 276.5 120.369 276.828 119.956 277.095C119.543 277.354 119.11 277.565 118.656 277.727C118.21 277.881 117.753 277.99 117.283 278.055C116.821 278.12 116.372 278.152 115.934 278.152C115.068 278.152 114.262 278.01 113.516 277.727C112.771 277.435 112.123 277.01 111.572 276.451C111.022 275.884 110.588 275.188 110.272 274.361C109.957 273.527 109.799 272.563 109.799 271.47C109.799 270.619 109.936 269.821 110.212 269.076C110.487 268.323 110.88 267.671 111.39 267.12C111.909 266.561 112.536 266.12 113.273 265.796C114.019 265.472 114.857 265.31 115.789 265.31ZM115.849 267.46C114.974 267.46 114.29 267.707 113.796 268.201C113.302 268.695 112.986 269.396 112.848 270.303H118.486C118.486 269.915 118.433 269.55 118.328 269.21C118.223 268.862 118.061 268.558 117.842 268.299C117.623 268.039 117.348 267.837 117.016 267.691C116.684 267.537 116.295 267.46 115.849 267.46ZM127.712 278.164C126.635 278.164 125.805 277.861 125.221 277.253C124.638 276.638 124.347 275.791 124.347 274.714V267.752H123.083C122.921 267.752 122.779 267.699 122.658 267.594C122.544 267.489 122.488 267.331 122.488 267.12V265.929L124.492 265.601L125.124 262.199C125.157 262.037 125.229 261.912 125.343 261.823C125.464 261.734 125.614 261.689 125.792 261.689H127.348V265.613H130.628V267.752H127.348V274.507C127.348 274.896 127.445 275.2 127.639 275.418C127.834 275.637 128.093 275.747 128.417 275.747C128.603 275.747 128.757 275.726 128.878 275.686C129.008 275.637 129.117 275.589 129.207 275.54C129.304 275.491 129.389 275.447 129.462 275.406C129.535 275.358 129.607 275.333 129.68 275.333C129.769 275.333 129.842 275.358 129.899 275.406C129.956 275.447 130.017 275.512 130.081 275.601L130.98 277.059C130.543 277.423 130.041 277.699 129.474 277.885C128.907 278.071 128.32 278.164 127.712 278.164ZM135.165 259.356C135.449 259.81 135.655 260.263 135.785 260.717C135.923 261.171 135.992 261.624 135.992 262.078C135.992 262.888 135.785 263.661 135.372 264.398C134.967 265.136 134.38 265.816 133.61 266.44L132.675 265.869C132.594 265.82 132.537 265.763 132.504 265.698C132.472 265.626 132.456 265.557 132.456 265.492C132.456 265.338 132.509 265.208 132.614 265.103C132.719 264.982 132.828 264.844 132.942 264.69C133.063 264.528 133.173 264.354 133.27 264.168C133.367 263.973 133.444 263.763 133.501 263.536C133.566 263.309 133.598 263.066 133.598 262.807C133.598 262.531 133.553 262.24 133.464 261.932C133.375 261.616 133.225 261.284 133.015 260.936C132.942 260.83 132.905 260.721 132.905 260.608C132.905 260.348 133.055 260.166 133.355 260.061L135.165 259.356ZM145.872 267.934C145.791 268.064 145.706 268.157 145.617 268.214C145.528 268.262 145.414 268.286 145.277 268.286C145.131 268.286 144.973 268.246 144.803 268.165C144.641 268.084 144.451 267.995 144.232 267.898C144.013 267.792 143.762 267.699 143.479 267.618C143.203 267.537 142.875 267.497 142.494 267.497C141.903 267.497 141.437 267.622 141.097 267.873C140.757 268.124 140.587 268.452 140.587 268.857C140.587 269.125 140.672 269.352 140.842 269.538C141.02 269.716 141.251 269.874 141.535 270.012C141.826 270.149 142.154 270.275 142.519 270.388C142.883 270.494 143.256 270.611 143.637 270.741C144.017 270.87 144.39 271.02 144.754 271.19C145.119 271.352 145.443 271.563 145.726 271.822C146.018 272.073 146.249 272.377 146.419 272.733C146.597 273.09 146.686 273.519 146.686 274.021C146.686 274.621 146.577 275.175 146.358 275.686C146.139 276.188 145.819 276.625 145.398 276.998C144.977 277.362 144.455 277.65 143.831 277.861C143.215 278.063 142.507 278.164 141.705 278.164C141.275 278.164 140.854 278.124 140.441 278.043C140.036 277.97 139.643 277.865 139.263 277.727C138.89 277.589 138.542 277.427 138.218 277.241C137.902 277.055 137.622 276.852 137.379 276.633L138.072 275.491C138.161 275.354 138.266 275.248 138.388 275.175C138.509 275.103 138.663 275.066 138.849 275.066C139.036 275.066 139.21 275.119 139.372 275.224C139.542 275.329 139.736 275.443 139.955 275.564C140.174 275.686 140.429 275.799 140.721 275.904C141.02 276.01 141.397 276.062 141.85 276.062C142.207 276.062 142.511 276.022 142.762 275.941C143.021 275.852 143.232 275.738 143.394 275.601C143.564 275.463 143.685 275.305 143.758 275.127C143.839 274.941 143.88 274.75 143.88 274.556C143.88 274.264 143.79 274.025 143.612 273.839C143.442 273.653 143.211 273.491 142.92 273.353C142.636 273.215 142.308 273.094 141.936 272.988C141.571 272.875 141.194 272.754 140.806 272.624C140.425 272.494 140.048 272.345 139.676 272.174C139.311 271.996 138.983 271.773 138.691 271.506C138.408 271.239 138.177 270.911 137.999 270.522C137.829 270.133 137.744 269.663 137.744 269.113C137.744 268.602 137.845 268.116 138.048 267.655C138.25 267.193 138.546 266.792 138.934 266.452C139.331 266.103 139.821 265.828 140.405 265.626C140.996 265.415 141.676 265.31 142.446 265.31C143.304 265.31 144.086 265.451 144.791 265.735C145.495 266.018 146.083 266.391 146.553 266.853L145.872 267.934ZM162.017 275.564C162.754 275.564 163.394 275.499 163.936 275.37C164.487 275.232 165.01 275.046 165.504 274.811V271.616H163.305C163.094 271.616 162.928 271.559 162.806 271.445C162.685 271.324 162.624 271.178 162.624 271.008V269.161H168.468V276.269C168.023 276.593 167.557 276.876 167.071 277.119C166.593 277.354 166.079 277.549 165.528 277.703C164.985 277.857 164.402 277.97 163.778 278.043C163.155 278.124 162.482 278.164 161.761 278.164C160.482 278.164 159.303 277.942 158.226 277.496C157.149 277.051 156.217 276.431 155.431 275.637C154.646 274.843 154.03 273.896 153.585 272.794C153.147 271.692 152.928 270.49 152.928 269.186C152.928 267.865 153.143 266.654 153.572 265.553C154.002 264.451 154.609 263.503 155.395 262.71C156.189 261.916 157.149 261.3 158.274 260.863C159.4 260.425 160.664 260.207 162.065 260.207C163.499 260.207 164.738 260.421 165.783 260.851C166.836 261.272 167.727 261.823 168.456 262.503L167.508 263.985C167.322 264.285 167.075 264.435 166.767 264.435C166.573 264.435 166.374 264.37 166.172 264.24C165.913 264.087 165.645 263.933 165.37 263.779C165.103 263.625 164.803 263.491 164.471 263.378C164.147 263.264 163.778 263.171 163.365 263.098C162.96 263.025 162.49 262.989 161.956 262.989C161.089 262.989 160.303 263.135 159.599 263.426C158.902 263.718 158.307 264.135 157.813 264.678C157.319 265.221 156.938 265.873 156.671 266.634C156.403 267.395 156.27 268.246 156.27 269.186C156.27 270.198 156.411 271.101 156.695 271.895C156.978 272.681 157.375 273.345 157.886 273.888C158.396 274.43 159.003 274.847 159.708 275.139C160.413 275.423 161.182 275.564 162.017 275.564ZM176.491 265.31C177.277 265.31 177.998 265.435 178.654 265.686C179.318 265.937 179.889 266.306 180.367 266.792C180.845 267.27 181.217 267.861 181.485 268.566C181.752 269.262 181.886 270.06 181.886 270.959C181.886 271.186 181.874 271.377 181.849 271.53C181.833 271.676 181.797 271.794 181.74 271.883C181.691 271.964 181.622 272.025 181.533 272.065C181.444 272.097 181.331 272.114 181.193 272.114H173.49C173.579 273.393 173.923 274.333 174.523 274.932C175.122 275.532 175.916 275.832 176.904 275.832C177.39 275.832 177.807 275.775 178.156 275.661C178.512 275.548 178.82 275.423 179.079 275.285C179.346 275.147 179.577 275.022 179.772 274.908C179.974 274.795 180.168 274.738 180.355 274.738C180.476 274.738 180.582 274.762 180.671 274.811C180.76 274.86 180.837 274.928 180.902 275.018L181.776 276.111C181.444 276.5 181.072 276.828 180.659 277.095C180.245 277.354 179.812 277.565 179.358 277.727C178.913 277.881 178.455 277.99 177.986 278.055C177.524 278.12 177.074 278.152 176.637 278.152C175.77 278.152 174.964 278.01 174.219 277.727C173.474 277.435 172.826 277.01 172.275 276.451C171.724 275.884 171.291 275.188 170.975 274.361C170.659 273.527 170.501 272.563 170.501 271.47C170.501 270.619 170.639 269.821 170.914 269.076C171.19 268.323 171.582 267.671 172.093 267.12C172.611 266.561 173.239 266.12 173.976 265.796C174.721 265.472 175.56 265.31 176.491 265.31ZM176.552 267.46C175.677 267.46 174.993 267.707 174.498 268.201C174.004 268.695 173.688 269.396 173.551 270.303H179.188C179.188 269.915 179.136 269.55 179.03 269.21C178.925 268.862 178.763 268.558 178.544 268.299C178.326 268.039 178.05 267.837 177.718 267.691C177.386 267.537 176.997 267.46 176.552 267.46ZM188.415 278.164C187.337 278.164 186.507 277.861 185.924 277.253C185.341 276.638 185.049 275.791 185.049 274.714V267.752H183.785C183.623 267.752 183.482 267.699 183.36 267.594C183.247 267.489 183.19 267.331 183.19 267.12V265.929L185.195 265.601L185.827 262.199C185.859 262.037 185.932 261.912 186.045 261.823C186.167 261.734 186.317 261.689 186.495 261.689H188.05V265.613H191.331V267.752H188.05V274.507C188.05 274.896 188.147 275.2 188.342 275.418C188.536 275.637 188.795 275.747 189.119 275.747C189.306 275.747 189.459 275.726 189.581 275.686C189.711 275.637 189.82 275.589 189.909 275.54C190.006 275.491 190.091 275.447 190.164 275.406C190.237 275.358 190.31 275.333 190.383 275.333C190.472 275.333 190.545 275.358 190.602 275.406C190.658 275.447 190.719 275.512 190.784 275.601L191.683 277.059C191.246 277.423 190.743 277.699 190.176 277.885C189.609 278.071 189.022 278.164 188.415 278.164ZM208.002 263.597C207.913 263.775 207.808 263.9 207.686 263.973C207.573 264.046 207.435 264.083 207.273 264.083C207.111 264.083 206.929 264.022 206.727 263.9C206.524 263.771 206.285 263.629 206.01 263.475C205.734 263.321 205.41 263.183 205.038 263.062C204.673 262.932 204.24 262.868 203.738 262.868C203.284 262.868 202.887 262.924 202.547 263.038C202.215 263.143 201.931 263.293 201.696 263.487C201.47 263.682 201.3 263.916 201.186 264.192C201.073 264.459 201.016 264.755 201.016 265.079C201.016 265.492 201.129 265.836 201.356 266.112C201.591 266.387 201.899 266.622 202.28 266.816C202.66 267.011 203.094 267.185 203.58 267.339C204.066 267.493 204.56 267.659 205.062 267.837C205.572 268.007 206.07 268.209 206.556 268.444C207.042 268.671 207.476 268.963 207.856 269.319C208.237 269.667 208.541 270.097 208.768 270.607C209.003 271.117 209.12 271.737 209.12 272.466C209.12 273.26 208.982 274.005 208.707 274.702C208.44 275.39 208.043 275.994 207.516 276.512C206.998 277.022 206.362 277.427 205.609 277.727C204.855 278.019 203.993 278.164 203.021 278.164C202.462 278.164 201.911 278.108 201.368 277.994C200.826 277.889 200.303 277.735 199.801 277.533C199.307 277.33 198.841 277.087 198.404 276.804C197.974 276.52 197.59 276.204 197.25 275.856L198.197 274.289C198.286 274.175 198.392 274.082 198.513 274.009C198.643 273.928 198.784 273.888 198.938 273.888C199.141 273.888 199.36 273.973 199.594 274.143C199.829 274.305 200.105 274.487 200.421 274.689C200.745 274.892 201.121 275.078 201.551 275.248C201.988 275.41 202.51 275.491 203.118 275.491C204.049 275.491 204.77 275.273 205.281 274.835C205.791 274.39 206.046 273.754 206.046 272.928C206.046 272.466 205.929 272.089 205.694 271.798C205.467 271.506 205.163 271.263 204.783 271.069C204.402 270.866 203.968 270.696 203.482 270.558C202.996 270.421 202.502 270.271 202 270.109C201.498 269.947 201.004 269.753 200.518 269.526C200.032 269.299 199.599 269.003 199.218 268.639C198.837 268.274 198.529 267.821 198.294 267.278C198.068 266.727 197.954 266.051 197.954 265.249C197.954 264.609 198.08 263.985 198.331 263.378C198.59 262.77 198.963 262.232 199.449 261.762C199.943 261.292 200.546 260.915 201.259 260.632C201.972 260.348 202.786 260.207 203.701 260.207C204.738 260.207 205.694 260.369 206.569 260.693C207.443 261.017 208.189 261.47 208.804 262.053L208.002 263.597ZM215.539 278.164C214.461 278.164 213.631 277.861 213.048 277.253C212.465 276.638 212.173 275.791 212.173 274.714V267.752H210.909C210.747 267.752 210.606 267.699 210.484 267.594C210.371 267.489 210.314 267.331 210.314 267.12V265.929L212.319 265.601L212.951 262.199C212.983 262.037 213.056 261.912 213.169 261.823C213.291 261.734 213.441 261.689 213.619 261.689H215.174V265.613H218.455V267.752H215.174V274.507C215.174 274.896 215.271 275.2 215.466 275.418C215.66 275.637 215.919 275.747 216.243 275.747C216.43 275.747 216.583 275.726 216.705 275.686C216.835 275.637 216.944 275.589 217.033 275.54C217.13 275.491 217.215 275.447 217.288 275.406C217.361 275.358 217.434 275.333 217.507 275.333C217.596 275.333 217.669 275.358 217.726 275.406C217.782 275.447 217.843 275.512 217.908 275.601L218.807 277.059C218.369 277.423 217.867 277.699 217.3 277.885C216.733 278.071 216.146 278.164 215.539 278.164ZM230.61 277.97H229.261C228.978 277.97 228.755 277.929 228.593 277.848C228.431 277.759 228.309 277.585 228.228 277.326L227.961 276.439C227.645 276.723 227.333 276.974 227.026 277.192C226.726 277.403 226.414 277.581 226.09 277.727C225.766 277.873 225.422 277.982 225.057 278.055C224.693 278.128 224.288 278.164 223.842 278.164C223.316 278.164 222.83 278.096 222.384 277.958C221.939 277.812 221.554 277.597 221.23 277.314C220.914 277.03 220.667 276.678 220.489 276.257C220.311 275.836 220.222 275.346 220.222 274.787C220.222 274.317 220.343 273.855 220.586 273.402C220.837 272.94 221.25 272.527 221.825 272.162C222.4 271.79 223.166 271.482 224.122 271.239C225.078 270.996 226.264 270.858 227.682 270.826V270.097C227.682 269.262 227.503 268.647 227.147 268.25C226.799 267.845 226.288 267.642 225.616 267.642C225.13 267.642 224.725 267.699 224.401 267.813C224.077 267.926 223.794 268.056 223.551 268.201C223.316 268.339 223.097 268.465 222.895 268.578C222.692 268.691 222.469 268.748 222.226 268.748C222.024 268.748 221.85 268.695 221.704 268.59C221.558 268.485 221.441 268.355 221.352 268.201L220.805 267.242C222.238 265.929 223.968 265.273 225.993 265.273C226.722 265.273 227.37 265.395 227.937 265.638C228.512 265.873 228.998 266.205 229.395 266.634C229.792 267.055 230.091 267.561 230.294 268.153C230.505 268.744 230.61 269.392 230.61 270.097V277.97ZM224.778 276.099C225.086 276.099 225.369 276.071 225.628 276.014C225.888 275.957 226.131 275.872 226.357 275.759C226.592 275.645 226.815 275.508 227.026 275.346C227.244 275.175 227.463 274.977 227.682 274.75V272.648C226.807 272.689 226.074 272.766 225.483 272.879C224.899 272.984 224.43 273.122 224.073 273.292C223.717 273.462 223.462 273.661 223.308 273.888C223.162 274.114 223.089 274.361 223.089 274.629C223.089 275.155 223.243 275.532 223.551 275.759C223.867 275.985 224.276 276.099 224.778 276.099ZM233.561 277.97V265.504H235.323C235.63 265.504 235.845 265.561 235.966 265.674C236.088 265.788 236.169 265.982 236.209 266.257L236.392 267.764C236.837 266.994 237.36 266.387 237.959 265.941C238.558 265.496 239.231 265.273 239.976 265.273C240.592 265.273 241.102 265.415 241.507 265.698L241.118 267.946C241.094 268.092 241.041 268.197 240.96 268.262C240.879 268.319 240.77 268.347 240.632 268.347C240.511 268.347 240.345 268.319 240.134 268.262C239.923 268.205 239.644 268.177 239.296 268.177C238.672 268.177 238.137 268.351 237.692 268.7C237.246 269.04 236.87 269.542 236.562 270.206V277.97H233.561ZM247.575 278.164C246.497 278.164 245.667 277.861 245.084 277.253C244.501 276.638 244.209 275.791 244.209 274.714V267.752H242.945C242.783 267.752 242.642 267.699 242.52 267.594C242.407 267.489 242.35 267.331 242.35 267.12V265.929L244.355 265.601L244.987 262.199C245.019 262.037 245.092 261.912 245.205 261.823C245.327 261.734 245.477 261.689 245.655 261.689H247.21V265.613H250.491V267.752H247.21V274.507C247.21 274.896 247.307 275.2 247.502 275.418C247.696 275.637 247.955 275.747 248.279 275.747C248.466 275.747 248.62 275.726 248.741 275.686C248.871 275.637 248.98 275.589 249.069 275.54C249.166 275.491 249.251 275.447 249.324 275.406C249.397 275.358 249.47 275.333 249.543 275.333C249.632 275.333 249.705 275.358 249.762 275.406C249.818 275.447 249.879 275.512 249.944 275.601L250.843 277.059C250.406 277.423 249.903 277.699 249.336 277.885C248.769 278.071 248.182 278.164 247.575 278.164ZM258.029 265.31C258.815 265.31 259.536 265.435 260.192 265.686C260.856 265.937 261.427 266.306 261.905 266.792C262.383 267.27 262.755 267.861 263.023 268.566C263.29 269.262 263.424 270.06 263.424 270.959C263.424 271.186 263.411 271.377 263.387 271.53C263.371 271.676 263.334 271.794 263.278 271.883C263.229 271.964 263.16 272.025 263.071 272.065C262.982 272.097 262.869 272.114 262.731 272.114H255.028C255.117 273.393 255.461 274.333 256.061 274.932C256.66 275.532 257.454 275.832 258.442 275.832C258.928 275.832 259.345 275.775 259.694 275.661C260.05 275.548 260.358 275.423 260.617 275.285C260.884 275.147 261.115 275.022 261.309 274.908C261.512 274.795 261.706 274.738 261.893 274.738C262.014 274.738 262.119 274.762 262.209 274.811C262.298 274.86 262.375 274.928 262.439 275.018L263.314 276.111C262.982 276.5 262.61 276.828 262.196 277.095C261.783 277.354 261.35 277.565 260.896 277.727C260.451 277.881 259.993 277.99 259.523 278.055C259.062 278.12 258.612 278.152 258.175 278.152C257.308 278.152 256.502 278.01 255.757 277.727C255.012 277.435 254.364 277.01 253.813 276.451C253.262 275.884 252.829 275.188 252.513 274.361C252.197 273.527 252.039 272.563 252.039 271.47C252.039 270.619 252.177 269.821 252.452 269.076C252.728 268.323 253.12 267.671 253.631 267.12C254.149 266.561 254.777 266.12 255.514 265.796C256.259 265.472 257.097 265.31 258.029 265.31ZM258.09 267.46C257.215 267.46 256.53 267.707 256.036 268.201C255.542 268.695 255.226 269.396 255.089 270.303H260.726C260.726 269.915 260.674 269.55 260.568 269.21C260.463 268.862 260.301 268.558 260.082 268.299C259.864 268.039 259.588 267.837 259.256 267.691C258.924 267.537 258.535 267.46 258.09 267.46ZM274.63 277.97C274.241 277.97 273.986 277.788 273.865 277.423L273.622 276.22C273.363 276.512 273.091 276.775 272.808 277.01C272.524 277.245 272.216 277.448 271.884 277.618C271.56 277.788 271.208 277.917 270.827 278.006C270.455 278.104 270.05 278.152 269.612 278.152C268.932 278.152 268.308 278.01 267.741 277.727C267.174 277.443 266.684 277.034 266.271 276.5C265.866 275.957 265.55 275.289 265.323 274.495C265.105 273.701 264.995 272.794 264.995 271.773C264.995 270.85 265.121 269.991 265.372 269.198C265.623 268.404 265.983 267.715 266.453 267.132C266.923 266.549 267.486 266.095 268.142 265.771C268.798 265.439 269.535 265.273 270.353 265.273C271.05 265.273 271.645 265.387 272.139 265.613C272.634 265.832 273.075 266.128 273.464 266.5V259.915H276.465V277.97H274.63ZM270.633 275.771C271.257 275.771 271.787 275.641 272.225 275.382C272.662 275.123 273.075 274.754 273.464 274.276V268.687C273.124 268.274 272.751 267.983 272.346 267.813C271.949 267.642 271.52 267.557 271.058 267.557C270.605 267.557 270.191 267.642 269.819 267.813C269.454 267.983 269.142 268.242 268.883 268.59C268.632 268.93 268.438 269.368 268.3 269.902C268.162 270.429 268.094 271.053 268.094 271.773C268.094 272.502 268.15 273.122 268.264 273.632C268.385 274.135 268.555 274.548 268.774 274.872C268.993 275.188 269.26 275.418 269.576 275.564C269.892 275.702 270.244 275.771 270.633 275.771ZM283.945 260.401V267.351C283.945 268.088 283.908 268.813 283.835 269.526C283.762 270.23 283.665 270.98 283.544 271.773H281.515C281.393 270.98 281.296 270.23 281.223 269.526C281.15 268.813 281.114 268.088 281.114 267.351V260.401H283.945ZM280.652 276.318C280.652 276.066 280.697 275.828 280.786 275.601C280.883 275.374 281.013 275.18 281.175 275.018C281.345 274.856 281.543 274.726 281.77 274.629C281.997 274.532 282.24 274.483 282.499 274.483C282.75 274.483 282.989 274.532 283.216 274.629C283.443 274.726 283.637 274.856 283.799 275.018C283.961 275.18 284.091 275.374 284.188 275.601C284.285 275.828 284.334 276.066 284.334 276.318C284.334 276.577 284.285 276.82 284.188 277.047C284.091 277.265 283.961 277.456 283.799 277.618C283.637 277.78 283.443 277.905 283.216 277.994C282.989 278.091 282.75 278.14 282.499 278.14C282.24 278.14 281.997 278.091 281.77 277.994C281.543 277.905 281.345 277.78 281.175 277.618C281.013 277.456 280.883 277.265 280.786 277.047C280.697 276.82 280.652 276.577 280.652 276.318Z" fill="#163150"/>
<circle cx="79.3099" cy="91.8302" r="15.39" fill="#22699D"/>
<path d="M77.7286 90.7345L75.161 88.1668C75.0191 88.025 74.9395 87.8326 74.9395 87.6321V85.8504C74.9395 85.3489 75.1386 84.868 75.4932 84.5135L79.1609 80.8458C79.4562 80.5504 79.9351 80.5504 80.2304 80.8458L82.9781 83.5934C83.2734 83.8887 83.2734 84.3676 82.9781 84.6629L80.2304 87.4106C79.9351 87.7059 79.9351 88.1847 80.2304 88.4801L80.3128 88.5625C80.6081 88.8578 81.087 88.8578 81.3823 88.5625L82.8673 87.0775C83.1055 86.8393 83.5128 87.008 83.5128 87.3449V95.087C83.5128 95.5884 83.3136 96.0693 82.959 96.4239L80.7414 98.6415C80.5996 98.7834 80.5199 98.9757 80.5199 99.1763V100.442C80.5199 100.843 80.3605 101.228 80.0769 101.511L78.9074 102.681C78.5501 103.038 77.9391 102.785 77.9391 102.28V98.1224C77.9391 97.9218 77.8594 97.7294 77.7176 97.5876L75.4932 95.3632C75.1386 95.0086 74.9395 94.5277 74.9395 94.0263V91.1823C74.9395 90.8454 75.3468 90.6767 75.585 90.9149L76.5666 91.8965C76.8619 92.1919 77.3408 92.1919 77.6361 91.8965L77.7286 91.804C78.024 91.5087 78.024 91.0298 77.7286 90.7345Z" fill="white"/>
<path d="M183.008 91.6058C183.008 92.0626 182.959 92.5024 182.862 92.9252C182.77 93.3432 182.634 93.7369 182.454 94.1062C182.279 94.4756 182.06 94.8182 181.798 95.1341C181.54 95.45 181.246 95.7295 180.915 95.9725L183.606 98.9103H181.579C181.287 98.9103 181.022 98.8739 180.784 98.801C180.546 98.7329 180.335 98.592 180.15 98.3782L178.831 96.8983C178.617 96.942 178.398 96.9761 178.174 97.0004C177.956 97.0247 177.73 97.0368 177.496 97.0368C176.67 97.0368 175.917 96.8983 175.237 96.6213C174.556 96.3443 173.973 95.9627 173.487 95.4767C173.006 94.9859 172.632 94.41 172.364 93.749C172.102 93.0881 171.971 92.3736 171.971 91.6058C171.971 90.8379 172.102 90.1235 172.364 89.4625C172.632 88.8015 173.006 88.2281 173.487 87.7421C173.973 87.2561 174.556 86.8745 175.237 86.5975C175.917 86.3205 176.67 86.182 177.496 86.182C178.323 86.182 179.074 86.3229 179.749 86.6048C180.429 86.8818 181.01 87.2633 181.491 87.7493C181.973 88.2353 182.344 88.8088 182.607 89.4698C182.874 90.1307 183.008 90.8427 183.008 91.6058ZM180.485 91.6058C180.485 91.0809 180.417 90.6095 180.281 90.1915C180.145 89.7687 179.948 89.4115 179.691 89.1199C179.438 88.8283 179.127 88.6047 178.758 88.4492C178.388 88.2937 177.968 88.2159 177.496 88.2159C177.02 88.2159 176.595 88.2937 176.221 88.4492C175.851 88.6047 175.538 88.8283 175.28 89.1199C175.028 89.4115 174.833 89.7687 174.697 90.1915C174.561 90.6095 174.493 91.0809 174.493 91.6058C174.493 92.1355 174.561 92.6118 174.697 93.0346C174.833 93.4526 175.028 93.8073 175.28 94.0989C175.538 94.3905 175.851 94.6141 176.221 94.7696C176.595 94.9203 177.02 94.9956 177.496 94.9956C177.968 94.9956 178.388 94.9203 178.758 94.7696C179.127 94.6141 179.438 94.3905 179.691 94.0989C179.948 93.8073 180.145 93.4526 180.281 93.0346C180.417 92.6118 180.485 92.1355 180.485 91.6058ZM192.204 94.9737C192.534 94.9737 192.828 94.9203 193.086 94.8134C193.348 94.7016 193.569 94.5436 193.749 94.3395C193.929 94.1354 194.065 93.8875 194.157 93.5959C194.255 93.2995 194.303 92.9641 194.303 92.5899V86.2986H196.767V92.5899C196.767 93.2411 196.66 93.8389 196.446 94.3832C196.237 94.9276 195.936 95.3966 195.542 95.7902C195.149 96.1839 194.67 96.4901 194.106 96.7088C193.543 96.9275 192.908 97.0368 192.204 97.0368C191.494 97.0368 190.857 96.9275 190.294 96.7088C189.73 96.4901 189.251 96.1839 188.857 95.7902C188.464 95.3966 188.163 94.9276 187.954 94.3832C187.745 93.8389 187.64 93.2411 187.64 92.5899V86.2986H190.104V92.5826C190.104 92.9568 190.15 93.2922 190.243 93.5886C190.34 93.8802 190.478 94.1305 190.658 94.3395C190.838 94.5436 191.057 94.7016 191.314 94.8134C191.577 94.9203 191.873 94.9737 192.204 94.9737ZM204.662 96.9202H202.184V86.2986H204.662V96.9202ZM212.699 94.9519H216.636V96.9202H210.235V86.2986H212.699V94.9519ZM223.86 94.9519H227.796V96.9202H221.396V86.2986H223.86V94.9519Z" fill="white"/>
<circle cx="200" cy="195.51" r="40.5" fill="#22699D"/>
<path d="M196.711 193.506L188.72 185.515C188.578 185.373 188.499 185.18 188.499 184.98V178.502C188.499 178.001 188.698 177.52 189.052 177.165L200.48 165.738C200.775 165.442 201.254 165.442 201.55 165.738L210.525 174.713C210.821 175.009 210.821 175.487 210.525 175.783L201.55 184.758C201.254 185.054 201.254 185.533 201.55 185.828L203.511 187.79C203.807 188.085 204.286 188.085 204.581 187.79L210.415 181.956C210.653 181.718 211.06 181.887 211.06 182.224V205.365C211.06 205.866 210.861 206.347 210.506 206.702L203.405 213.802C203.264 213.944 203.184 214.137 203.184 214.337V219.201C203.184 219.602 203.025 219.987 202.741 220.271L197.361 225.651C197.003 226.008 196.392 225.755 196.392 225.25V211.564C196.392 211.363 196.313 211.171 196.171 211.029L189.052 203.91C188.698 203.556 188.499 203.075 188.499 202.573V192.322C188.499 191.985 188.906 191.816 189.144 192.055L193.653 196.564C193.948 196.859 194.427 196.859 194.722 196.564L196.711 194.575C197.006 194.28 197.006 193.801 196.711 193.506Z" fill="white"/>
</g>
<rect x="311.427" y="34" width="73.9165" height="44.6288" rx="5.57861" transform="rotate(10.8847 311.427 34)" fill="#A682FF"/>
<path d="M322.673 51.8993C322.796 51.923 322.897 51.9496 322.977 51.9791C323.058 52.0018 323.126 52.0361 323.181 52.0822C323.244 52.1228 323.301 52.1798 323.35 52.2533C323.401 52.3199 323.455 52.4084 323.512 52.5188L329.399 63.9507C329.417 63.7057 329.441 63.4689 329.471 63.2403C329.509 63.0062 329.547 62.7898 329.585 62.5912L331.322 53.5624L333.756 54.0305L330.9 68.8834L329.472 68.6089C329.253 68.5667 329.078 68.4976 328.947 68.4015C328.817 68.3053 328.7 68.1551 328.597 67.9507L322.734 56.5658C322.713 56.7889 322.684 57.0107 322.649 57.2311C322.622 57.446 322.591 57.6425 322.557 57.8205L320.803 66.9418L318.368 66.4737L321.224 51.6208L322.673 51.8993ZM340.166 59.5663C340.83 59.694 341.419 59.9174 341.933 60.2363C342.454 60.5566 342.877 60.961 343.202 61.4495C343.528 61.9312 343.747 62.4917 343.858 63.1309C343.971 63.7633 343.954 64.4595 343.808 65.2196C343.771 65.4114 343.73 65.5703 343.684 65.6965C343.647 65.8171 343.597 65.9105 343.535 65.9766C343.48 66.0372 343.412 66.0773 343.33 66.0971C343.25 66.11 343.151 66.1052 343.035 66.0829L336.523 64.8306C336.39 65.927 336.528 66.7773 336.938 67.3815C337.347 67.9857 337.969 68.3681 338.805 68.5288C339.215 68.6078 339.577 68.6276 339.89 68.5884C340.21 68.5505 340.491 68.4944 340.732 68.4201C340.98 68.3471 341.196 68.2785 341.379 68.2143C341.568 68.1513 341.742 68.135 341.9 68.1653C342.002 68.185 342.087 68.2227 342.155 68.2782C342.222 68.3338 342.276 68.4045 342.316 68.4904L342.878 69.5571C342.534 69.8318 342.166 70.0485 341.773 70.2073C341.382 70.3593 340.981 70.4669 340.571 70.5301C340.17 70.5878 339.765 70.6059 339.357 70.5843C338.956 70.564 338.571 70.5183 338.201 70.4472C337.469 70.3063 336.81 70.0555 336.226 69.6946C335.644 69.327 335.165 68.8621 334.79 68.3001C334.417 67.7312 334.164 67.0718 334.031 66.322C333.9 65.5653 333.923 64.7248 334.1 63.8003C334.239 63.0813 334.485 62.4292 334.839 61.8439C335.194 61.2519 335.632 60.7645 336.153 60.3818C336.682 59.9936 337.285 59.7224 337.961 59.5683C338.643 59.4155 339.378 59.4149 340.166 59.5663ZM339.868 61.3943C339.128 61.2521 338.509 61.3497 338.011 61.687C337.513 62.0244 337.132 62.5654 336.868 63.31L341.634 64.2265C341.698 63.8978 341.712 63.5811 341.679 63.2763C341.646 62.9648 341.559 62.6816 341.416 62.4269C341.273 62.1723 341.073 61.9563 340.816 61.7791C340.56 61.595 340.244 61.4667 339.868 61.3943ZM345.469 60.7565L347.482 61.1436C347.674 61.1805 347.826 61.2559 347.939 61.37C348.052 61.484 348.113 61.6128 348.121 61.7563L348.548 67.6756C348.571 67.9995 348.578 68.3134 348.57 68.617C348.568 68.922 348.562 69.2263 348.554 69.53C348.686 69.2501 348.821 68.9707 348.96 68.6921C349.106 68.4147 349.256 68.1312 349.411 67.8415L352.244 62.5278C352.311 62.3988 352.415 62.3016 352.555 62.2363C352.696 62.171 352.848 62.1541 353.012 62.1857L354.132 62.401C354.317 62.4366 354.462 62.5107 354.569 62.6234C354.675 62.7361 354.735 62.8649 354.75 63.0098L355.369 69.0938C355.402 69.4053 355.425 69.7081 355.44 70.002C355.462 70.2904 355.481 70.5816 355.495 70.8755C355.6 70.5903 355.708 70.3057 355.819 70.0218C355.938 69.7392 356.072 69.4489 356.221 69.151L358.865 63.8224C358.925 63.692 359.029 63.5948 359.177 63.5308C359.324 63.4668 359.483 63.4513 359.654 63.4842L361.575 63.8535L356.21 73.7504L354.166 73.3573C353.947 73.3152 353.818 73.1342 353.78 72.8145L353.052 66.358C353.028 66.1475 353.008 65.9378 352.991 65.7286C352.983 65.514 352.981 65.3041 352.985 65.0989C352.904 65.2964 352.82 65.4933 352.733 65.6895C352.647 65.8789 352.553 66.0704 352.452 66.264L349.364 71.9652C349.21 72.2481 348.996 72.3632 348.722 72.3105L346.781 71.9372L345.469 60.7565ZM367.407 60.5014L366.277 66.3768C366.158 67 366.009 67.6069 365.831 68.1977C365.655 68.7816 365.451 69.3992 365.219 70.0505L363.504 69.7207C363.53 69.0298 363.57 68.3806 363.623 67.773C363.677 67.1585 363.764 66.5397 363.884 65.9166L365.014 60.0412L367.407 60.5014ZM362.036 73.4221C362.077 73.2098 362.153 73.015 362.266 72.8378C362.385 72.6618 362.526 72.5185 362.689 72.4079C362.859 72.2986 363.048 72.2213 363.256 72.176C363.463 72.1307 363.677 72.1291 363.896 72.1713C364.108 72.2121 364.302 72.292 364.478 72.4111C364.654 72.5301 364.797 72.6713 364.908 72.8346C365.018 72.9978 365.096 73.1833 365.142 73.3908C365.187 73.5983 365.189 73.8083 365.148 74.0205C365.106 74.2397 365.026 74.4372 364.907 74.6131C364.789 74.7822 364.648 74.9221 364.485 75.0327C364.322 75.1433 364.137 75.2179 363.931 75.2563C363.723 75.3016 363.513 75.3039 363.301 75.263C363.082 75.2209 362.884 75.1403 362.709 75.0213C362.531 74.9091 362.384 74.7707 362.266 74.6061C362.156 74.4428 362.077 74.2608 362.031 74.0601C361.992 73.8539 361.994 73.6412 362.036 73.4221Z" fill="white"/>
<defs>
<filter id="filter0_d_15610_100533" x="25.0399" y="45.3853" width="349.92" height="310.505" filterUnits="userSpaceOnUse" color-interpolation-filters="sRGB">
<feFlood flood-opacity="0" result="BackgroundImageFix"/>
<feColorMatrix in="SourceAlpha" type="matrix" values="0 0 0 0 0 0 0 0 0 0 0 0 0 0 0 0 0 0 127 0" result="hardAlpha"/>
<feOffset dy="0.81"/>
<feGaussianBlur stdDeviation="6.075"/>
<feColorMatrix type="matrix" values="0 0 0 0 0 0 0 0 0 0 0 0 0 0 0 0 0 0 0.65 0"/>
<feBlend mode="normal" in2="BackgroundImageFix" result="effect1_dropShadow_15610_100533"/>
<feBlend mode="normal" in="SourceGraphic" in2="effect1_dropShadow_15610_100533" result="shape"/>
</filter>
</defs>
</svg>
