<svg width="20" height="20" viewBox="0 0 20 20" fill="none" xmlns="http://www.w3.org/2000/svg">
<path fill-rule="evenodd" clip-rule="evenodd" d="M13.0962 3.90381C10.5578 1.3654 6.44221 1.3654 3.90381 3.90381C1.3654 6.44221 1.3654 10.5578 3.90381 13.0962C6.44221 15.6346 10.5578 15.6346 13.0962 13.0962C15.6346 10.5578 15.6346 6.44221 13.0962 3.90381ZM2.48959 2.48959C5.80905 -0.829864 11.191 -0.829864 14.5104 2.48959C17.5906 5.56983 17.8126 10.4259 15.1764 13.7621L19.7071 18.2929C20.0976 18.6834 20.0976 19.3166 19.7071 19.7071C19.3166 20.0976 18.6834 20.0976 18.2929 19.7071L13.7621 15.1764C10.4259 17.8126 5.56983 17.5906 2.48959 14.5104C-0.829864 11.191 -0.829864 5.80905 2.48959 2.48959Z" fill="#55B6E2"/>
</svg>
