<svg width="20" height="20" viewBox="0 0 20 20" fill="none" xmlns="http://www.w3.org/2000/svg">
<path fill-rule="evenodd" clip-rule="evenodd" d="M10 0C10.3622 0 10.6929 0.215129 10.8532 0.554932L13.428 6.01379L19.1854 6.88916C19.5438 6.94365 19.8415 7.20631 19.9534 7.5667C20.0653 7.92708 19.972 8.3227 19.7127 8.5872L15.5466 12.8363L16.53 18.8362C16.5913 19.2097 16.4445 19.5871 16.1515 19.8099C15.8586 20.0326 15.4701 20.062 15.1496 19.8856L10 17.0529L4.85042 19.8856C4.52987 20.062 4.14144 20.0326 3.84846 19.8099C3.55547 19.5871 3.40874 19.2097 3.46996 18.8362L4.45344 12.8363L0.287346 8.5872C0.0280143 8.3227 -0.0653173 7.92708 0.0465936 7.5667C0.158504 7.20631 0.456249 6.94365 0.814636 6.88916L6.57204 6.01379L9.14683 0.554932C9.3071 0.215129 9.63785 0 10 0ZM10 3.24492L8.05702 7.36428C7.91843 7.6581 7.65054 7.86175 7.34066 7.90886L2.99602 8.56943L6.13983 11.7759C6.36406 12.0046 6.46639 12.3341 6.41345 12.6571L5.6713 17.1847L9.55726 15.047C9.83444 14.8946 10.1656 14.8946 10.4427 15.047L14.3287 17.1847L13.5865 12.6571C13.5336 12.3341 13.6359 12.0046 13.8602 11.7759L17.004 8.56943L12.6593 7.90886C12.3495 7.86175 12.0816 7.6581 11.943 7.36428L10 3.24492Z" fill="white"/>
</svg>
