<svg width="391" height="281" viewBox="0 0 391 281" fill="none" xmlns="http://www.w3.org/2000/svg">
<path d="M191.38 47.1311C281.531 102.001 407.669 278.595 330.977 278.595C274.329 278.595 111.85 279.856 62.0634 279.856C12.2767 279.856 4.11554 227.004 20.8793 155.61C46.0565 48.3925 4.02723 -66.8726 191.38 47.1311Z" fill="#A682FF" fill-opacity="0.6146"/>
<path d="M378.022 269.765H36.188V278.595H378.022V269.765Z" fill="white" stroke="#163050" stroke-width="4.36974" stroke-linecap="round" stroke-linejoin="round"/>
<path d="M214.464 269.765H148.506L151.382 235.708H211.588L214.464 269.765Z" fill="#D8D8D8" stroke="#163050" stroke-width="4.36974" stroke-linecap="round" stroke-linejoin="round"/>
<path d="M222.248 262.197H145.303V269.765H222.248V262.197Z" fill="#D8D8D8" stroke="#163050" stroke-width="4.36974" stroke-linecap="round" stroke-linejoin="round"/>
<path d="M305.244 55.3301H72.3929C62.1523 55.3301 53.8506 63.6318 53.8506 73.8724V218.427C53.8506 228.667 62.1523 236.969 72.3929 236.969H305.244C315.485 236.969 323.786 228.667 323.786 218.427V73.8724C323.786 63.6318 315.485 55.3301 305.244 55.3301Z" fill="#78E1F2" stroke="#163050" stroke-width="4.36974" stroke-linecap="round" stroke-linejoin="round"/>
<path d="M323.786 206.696V218.427C323.786 223.344 321.833 228.061 318.355 231.538C314.878 235.015 310.162 236.969 305.244 236.969H72.3929C67.4752 236.969 62.7589 235.015 59.2815 231.538C55.8041 228.061 53.8506 223.344 53.8506 218.427V206.696H323.786Z" fill="#D8D8D8" stroke="#163050" stroke-width="4.36974" stroke-linecap="round" stroke-linejoin="round"/>
<path d="M311.499 96.9557H284.354C270.61 96.9557 259.467 108.098 259.467 121.843V162.888C259.467 176.633 270.61 187.775 284.354 187.775H311.499C325.244 187.775 336.386 176.633 336.386 162.888V121.843C336.386 108.098 325.244 96.9557 311.499 96.9557Z" fill="#F0CCBC" stroke="#163050" stroke-width="4.36974" stroke-linecap="round" stroke-linejoin="round"/>
<path d="M340.186 111.752V162.888C340.186 169.489 337.564 175.819 332.897 180.486C328.23 185.153 321.9 187.775 315.299 187.775H306.356C299.94 187.775 293.786 185.226 289.249 180.689C284.712 176.152 282.163 169.998 282.163 163.582V142.807C282.163 138.675 280.522 134.713 277.6 131.792C274.679 128.87 270.716 127.229 266.585 127.229C265.152 127.229 263.733 126.947 262.409 126.398C261.086 125.85 259.883 125.046 258.87 124.033C257.856 123.02 257.053 121.817 256.504 120.493C255.956 119.17 255.674 117.751 255.674 116.318V111.752C255.674 105.151 258.296 98.8212 262.963 94.154C267.63 89.4868 273.96 86.8647 280.561 86.8647H315.299C321.9 86.8647 328.23 89.4868 332.897 94.154C337.564 98.8212 340.186 105.151 340.186 111.752Z" fill="#CE9D84" stroke="#163050" stroke-width="4.36974" stroke-linecap="round" stroke-linejoin="round"/>
<path d="M259.464 133.649V151.309L257.56 153.983C257.102 154.624 256.416 155.068 255.643 155.222C254.87 155.377 254.067 155.231 253.397 154.815C252.501 154.169 251.781 153.309 251.302 152.313C250.824 151.317 250.603 150.217 250.66 149.114V141.949C250.66 138.001 253.259 134.469 256.462 134.053L259.464 133.649Z" fill="#163050" stroke="#163050" stroke-width="4.36974" stroke-linecap="round" stroke-linejoin="round"/>
<path d="M257.564 136.336L279.663 142.365L250.651 144.888L251.269 140.612C251.356 139.896 251.594 139.207 251.969 138.591C252.344 137.975 252.847 137.447 253.443 137.041C254.04 136.636 254.716 136.363 255.427 136.242C256.138 136.12 256.866 136.152 257.564 136.336Z" fill="#163050" stroke="#163050" stroke-width="4.36974" stroke-linecap="round" stroke-linejoin="round"/>
<path d="M261.852 191.774L286.147 187.775H321.465L337.397 190.853C342.271 191.792 346.733 194.221 350.167 197.804C353.602 201.388 355.839 205.949 356.57 210.859L365.399 278.595H236.738L246.009 208.121C246.618 204.086 248.472 200.341 251.313 197.41C254.153 194.479 257.838 192.509 261.852 191.774Z" fill="white" stroke="#163050" stroke-width="4.36974" stroke-linecap="round" stroke-linejoin="round"/>
<path d="M178.727 247.06H206.478V269.765H159.807V265.981C159.807 260.963 161.8 256.15 165.348 252.602C168.897 249.054 173.709 247.06 178.727 247.06Z" fill="#F0CCBC" stroke="#163050" stroke-width="4.36974" stroke-linecap="round" stroke-linejoin="round"/>
<path d="M250.739 250.352C242.918 257.807 235.338 264.896 235.338 264.896C230.503 268.079 224.842 269.776 219.053 269.777H174.905V262.726C174.905 257.237 177.086 251.972 180.967 248.09C184.849 244.208 190.114 242.027 195.604 242.027H219.091L249.213 198.926" fill="white"/>
<path d="M250.739 250.352C242.918 257.807 235.338 264.896 235.338 264.896C230.503 268.079 224.842 269.776 219.053 269.777H174.905V262.726C174.905 257.237 177.086 251.972 180.967 248.09C184.849 244.208 190.114 242.027 195.604 242.027H219.091L249.213 198.926" stroke="#163050" stroke-width="4.36974" stroke-linecap="round" stroke-linejoin="round"/>
<path d="M188.817 229.401C192.997 229.401 196.386 226.013 196.386 221.833C196.386 217.653 192.997 214.264 188.817 214.264C184.637 214.264 181.249 217.653 181.249 221.833C181.249 226.013 184.637 229.401 188.817 229.401Z" fill="#2A455F"/>
<path d="M224.705 1.8476L230.949 8.09144L224.705 14.3353L230.949 20.5791L224.705 26.823L218.461 20.5791L212.217 26.823L205.974 20.5791L212.217 14.3353L205.974 8.09144L212.217 1.8476L218.461 8.09144L224.705 1.8476Z" fill="#FFD167"/>
<path d="M34.1248 227.786L38.6027 240.122L5.76891 254.023L0.00439453 238.167L34.1248 227.786Z" fill="#78E1F2"/>
<path d="M340.639 50.7763L329.16 44.4694L344.763 12.405L359.522 20.5662L340.639 50.7763ZM369.121 53.955L360.455 44.7721L342.077 64.0838L348.812 71.2233L369.121 53.955Z" fill="#007A99"/>
<path d="M369.2 180.207C371.987 180.207 374.246 177.948 374.246 175.162C374.246 172.375 371.987 170.116 369.2 170.116C366.414 170.116 364.155 172.375 364.155 175.162C364.155 177.948 366.414 180.207 369.2 180.207Z" fill="#FFD167"/>
<g filter="url(#filter0_d_15610_100761)">
<path d="M188.821 189.037C219.473 189.037 244.321 164.188 244.321 133.536C244.321 102.884 219.473 78.035 188.821 78.035C158.168 78.035 133.32 102.884 133.32 133.536C133.32 164.188 158.168 189.037 188.821 189.037Z" fill="#007A99"/>
</g>
<path d="M199.475 138.316C199.877 137.913 200.355 137.593 200.881 137.374C201.407 137.156 201.971 137.043 202.54 137.043C203.11 137.043 203.674 137.156 204.2 137.374C204.726 137.593 205.203 137.913 205.605 138.316C206.253 138.963 206.766 139.731 207.116 140.576C207.467 141.421 207.647 142.327 207.647 143.242C207.647 144.157 207.467 145.063 207.116 145.908C206.766 146.753 206.253 147.521 205.605 148.168L193.231 160.567C192.585 161.215 191.817 161.728 190.972 162.078C190.126 162.429 189.22 162.609 188.306 162.609C187.391 162.609 186.485 162.429 185.64 162.078C184.794 161.728 184.026 161.215 183.38 160.567L170.98 148.181C170.333 147.534 169.82 146.766 169.469 145.921C169.119 145.076 168.939 144.17 168.939 143.255C168.939 142.34 169.119 141.434 169.469 140.589C169.82 139.744 170.333 138.976 170.98 138.329C171.382 137.926 171.86 137.605 172.386 137.387C172.912 137.169 173.476 137.056 174.046 137.056C174.615 137.056 175.179 137.169 175.705 137.387C176.231 137.605 176.709 137.926 177.111 138.329L183.418 144.636C184.064 145.283 184.832 145.797 185.677 146.147C186.523 146.497 187.428 146.678 188.343 146.678C189.258 146.678 190.164 146.497 191.009 146.147C191.855 145.797 192.622 145.283 193.269 144.636L199.475 138.316ZM218.724 118.841L206.892 107.022C205.62 105.778 203.907 105.09 202.128 105.109C200.35 105.128 198.651 105.852 197.406 107.123L188.287 116.255L179.318 107.287C178.688 106.669 177.943 106.181 177.124 105.852C176.306 105.523 175.43 105.358 174.548 105.367C173.666 105.377 172.794 105.56 171.983 105.907C171.172 106.253 170.437 106.756 169.82 107.387L157.761 119.459C156.492 120.705 155.77 122.405 155.754 124.183C155.737 125.962 156.427 127.674 157.673 128.944C158.053 129.326 158.505 129.629 159.003 129.834C159.501 130.04 160.035 130.145 160.574 130.143C161.133 130.14 161.686 130.027 162.201 129.811C162.716 129.594 163.183 129.279 163.576 128.881L169.669 122.776C170.285 122.145 171.02 121.642 171.832 121.295C172.643 120.949 173.515 120.766 174.397 120.756C175.279 120.747 176.154 120.911 176.973 121.241C177.791 121.57 178.537 122.058 179.167 122.675L185.158 128.654C185.801 129.297 186.64 129.706 187.542 129.815H187.656H188.16C188.719 129.812 189.272 129.699 189.787 129.483C190.302 129.267 190.77 128.951 191.163 128.553L197.268 122.448C198.513 121.178 200.211 120.453 201.99 120.435C203.768 120.416 205.482 121.104 206.753 122.347L212.745 128.326C213.528 129.109 214.589 129.549 215.696 129.549C216.803 129.549 217.865 129.109 218.648 128.326C219.284 127.693 219.788 126.94 220.132 126.111C220.476 125.282 220.654 124.393 220.654 123.495C220.654 122.63 220.482 121.772 220.149 120.973C219.815 120.174 219.327 119.45 218.711 118.841H218.724Z" fill="#F2F2F2"/>
<path d="M369.788 199.819L380.393 189.207L390.998 199.819L380.393 210.431L369.788 199.819Z" fill="#C8B1FF"/>
<circle cx="123" cy="103" r="28" fill="#55B6E2"/>
<path fill-rule="evenodd" clip-rule="evenodd" d="M112 90.4C112 89.6268 112.644 89 113.438 89H133.562C134.356 89 135 89.6268 135 90.4V115.6C135 116.373 134.356 117 133.562 117H113.438C112.644 117 112 116.373 112 115.6V90.4ZM114.875 91.8V114.2H132.125V91.8H114.875ZM116.312 97.4C116.312 96.6268 116.956 96 117.75 96H124.938C125.731 96 126.375 96.6268 126.375 97.4C126.375 98.1732 125.731 98.8 124.938 98.8H117.75C116.956 98.8 116.312 98.1732 116.312 97.4ZM116.312 103C116.312 102.227 116.956 101.6 117.75 101.6H129.25C130.044 101.6 130.688 102.227 130.688 103C130.688 103.773 130.044 104.4 129.25 104.4H117.75C116.956 104.4 116.312 103.773 116.312 103ZM116.312 108.6C116.312 107.827 116.956 107.2 117.75 107.2H129.25C130.044 107.2 130.688 107.827 130.688 108.6C130.688 109.373 130.044 110 129.25 110H117.75C116.956 110 116.312 109.373 116.312 108.6Z" fill="white"/>
<defs>
<filter id="filter0_d_15610_100761" x="126.594" y="74.6722" width="124.453" height="124.453" filterUnits="userSpaceOnUse" color-interpolation-filters="sRGB">
<feFlood flood-opacity="0" result="BackgroundImageFix"/>
<feColorMatrix in="SourceAlpha" type="matrix" values="0 0 0 0 0 0 0 0 0 0 0 0 0 0 0 0 0 0 127 0" result="hardAlpha"/>
<feOffset dy="3.36283"/>
<feGaussianBlur stdDeviation="3.36283"/>
<feColorMatrix type="matrix" values="0 0 0 0 0 0 0 0 0 0 0 0 0 0 0 0 0 0 0.15 0"/>
<feBlend mode="normal" in2="BackgroundImageFix" result="effect1_dropShadow_15610_100761"/>
<feBlend mode="normal" in="SourceGraphic" in2="effect1_dropShadow_15610_100761" result="shape"/>
</filter>
</defs>
</svg>
